<?xml version="1.0" standalone="no"?>
<!DOCTYPE svg PUBLIC "-//W3C//DTD SVG 20010904//EN"
 "http://www.w3.org/TR/2001/REC-SVG-20010904/DTD/svg10.dtd">
<svg version="1.0" xmlns="http://www.w3.org/2000/svg"
 width="399.000000pt" height="356.000000pt" viewBox="0 0 399.000000 356.000000"
 preserveAspectRatio="xMidYMid meet">
<metadata>
Created by potrace 1.11, written by Peter Selinger 2001-2013
</metadata>
<g transform="translate(0.000000,356.000000) scale(0.100000,-0.100000)"
fill="#000000" stroke="none">
<path d="M1943 3549 c-104 -19 -193 -87 -249 -189 -17 -30 -73 -129 -126 -220
-53 -91 -141 -244 -196 -340 -56 -96 -106 -180 -112 -187 -5 -7 -10 -14 -10
-16 0 -5 -71 -130 -165 -292 -55 -95 -68 -117 -114 -199 -19 -33 -51 -87 -78
-131 -7 -11 -24 -42 -39 -70 -14 -27 -31 -55 -36 -62 -5 -7 -18 -27 -27 -45
-17 -33 -193 -339 -211 -368 -5 -8 -22 -37 -38 -65 -15 -27 -137 -237 -269
-465 -132 -228 -248 -436 -256 -461 -10 -29 -15 -73 -14 -115 5 -124 71 -225
184 -281 l58 -28 1750 0 1750 0 55 26 c69 33 125 88 159 159 22 46 26 68 26
140 -1 92 -8 114 -77 228 -21 34 -38 64 -38 66 0 2 -52 92 -115 201 -63 108
-115 199 -115 201 0 1 -17 31 -38 66 -33 54 -185 316 -264 454 -31 56 -297
515 -309 534 -5 8 -50 87 -100 175 -123 214 -104 182 -299 520 -95 165 -185
320 -199 346 -176 309 -198 338 -277 381 -66 36 -144 49 -211 37z"/>
</g>
</svg>
