<?xml version="1.0" encoding="utf-8"?>
<!-- Generator: Adobe Illustrator 14.0.0, SVG Export Plug-In  -->
<!DOCTYPE svg PUBLIC "-//W3C//DTD SVG 1.1//EN" "http://www.w3.org/Graphics/SVG/1.1/DTD/svg11.dtd" [
	<!ENTITY ns_flows "http://ns.adobe.com/Flows/1.0/">
]>
<svg version="1.1"
	 xmlns="http://www.w3.org/2000/svg" xmlns:xlink="http://www.w3.org/1999/xlink" xmlns:a="http://ns.adobe.com/AdobeSVGViewerExtensions/3.0/"
	 x="0px" y="0px" width="2585px" height="439px" viewBox="-34.589 -24.677 2585 439"
	 enable-background="new -34.589 -24.677 2585 439" xml:space="preserve">
<defs>
</defs>
<path d="M478.556,216.756h60.157c26.338,0,42.524,14.239,42.524,35.955c0,13.343-7.107,24.198-18.146,28.117
	c14.24,4.091,23.486,15.66,23.486,29.538c0,24.56-17.62,39.868-47.158,39.868h-60.863V216.756z M532.12,268.726
	c8.372,0,14.238-4.096,14.238-11.393c0-8.006-5.52-11.746-14.059-11.746H513.08v23.139H532.12z M534.438,321.406
	c10.854,0,16.733-5.879,16.733-12.999c0-7.117-5.52-12.456-16.733-12.456H513.08v25.455H534.438z"/>
<path d="M603.488,282.966c0-41.65,26.519-69.413,66.204-69.413c39.678,0,66.196,27.763,66.196,69.413
	c0,42.17-26.519,70.469-66.196,70.469C630.007,353.435,603.488,325.136,603.488,282.966 M699.764,282.966
	c0-23.14-11.753-38.445-30.071-38.445c-18.52,0-30.079,15.306-30.079,38.445c0,23.842,11.559,39.5,30.079,39.5
	C688.011,322.466,699.764,306.808,699.764,282.966"/>
<path d="M758.308,300.758v-84.002h36.132v84.182c0,11.746,7.479,21.528,20.465,21.528c13.879,0,21.178-9.782,21.178-21.528v-84.182
	h34.353v84.002c0,29.009-22.073,52.671-55.012,52.671C780.379,353.429,758.308,329.767,758.308,300.758"/>
<polygon points="977.556,279.399 958.877,350.234 919.539,350.234 890.181,230.995 890.181,216.756 925.598,216.756 
	941.432,303.608 962.617,216.756 994.828,216.756 1014.753,303.608 1031.666,216.756 1065.471,216.756 1065.471,229.213 
	1035.753,350.234 996.428,350.234 "/>
<path d="M1086.123,216.756h60.144c26.339,0,42.539,14.239,42.539,35.955c0,13.343-7.121,24.198-18.16,28.117
	c14.239,4.091,23.492,15.66,23.492,29.538c0,24.56-17.618,39.868-47.15,39.868h-60.864V216.756z M1139.688,268.726
	c8.359,0,14.232-4.096,14.232-11.393c0-8.006-5.514-11.746-14.06-11.746h-19.219v23.139H1139.688z M1142.001,321.406
	c10.859,0,16.725-5.879,16.725-12.999c0-7.117-5.52-12.456-16.725-12.456h-21.359v25.455H1142.001z"/>
<polygon points="1217.456,216.756 1306.258,216.756 1306.258,247.907 1253.582,247.907 1253.582,267.652 1299.318,267.652 
	1299.318,295.777 1253.582,295.777 1253.582,319.084 1306.258,319.084 1306.258,350.234 1217.456,350.234 "/>
<path d="M1331.877,216.756h50.551c40.745,0,65.843,29.718,65.843,66.21c0,37.011-25.098,67.269-65.843,67.269h-50.551V216.756z
	 M1381.895,319.084c19.039,0,28.818-16.192,28.818-36.118c0-19.227-9.779-35.059-28.818-35.059h-13.885v71.177H1381.895z"/>
<path d="M1471.943,350.234V216.756h48.044c33.278,0,54.099,17.62,54.099,45.735c0,14.598-7.828,27.94-22.248,36.133l26.88,37.545
	v14.065h-33.639l-28.11-42.184h-8.9v42.184H1471.943z M1519.807,279.226c11.214,0,18.152-6.76,18.152-16.734
	c0-9.431-6.759-15.301-18.152-15.301h-12.459v32.035H1519.807z"/>
<rect x="1601.496" y="216.756" width="36.118" height="133.479"/>
<path d="M1658.26,324.069V310.19h29.358c0,7.297,2.854,12.1,9.794,12.1c6.759,0,10.318-3.56,10.318-15.482v-90.052h36.125v88.632
	c0,32.748-16.187,48.047-43.598,48.047C1671.072,353.435,1660.573,336.706,1658.26,324.069"/>
<polygon points="1773.047,216.756 1858.822,216.756 1858.822,247.907 1809.172,247.907 1809.172,269.433 1853.483,269.433 
	1853.483,297.558 1809.172,297.558 1809.172,350.234 1773.047,350.234 "/>
<polygon fill="#BC0B2D" points="511.934,136.673 546.719,76.402 581.517,136.673 623.774,136.673 546.719,3.203 469.662,136.673 "/>
<polygon fill="#BC0B2D" points="630.888,3.203 667.012,3.203 667.012,105.535 718.09,105.535 718.09,136.673 630.888,136.673 "/>
<path fill="#BC0B2D" d="M734.628,3.203h60.157c26.338,0,42.538,14.236,42.538,35.948c0,13.35-7.121,24.205-18.159,28.117
	c14.239,4.094,23.498,15.661,23.498,29.545c0,24.563-17.625,39.863-47.164,39.863h-60.87V3.203z M788.199,55.164
	c8.366,0,14.245-4.086,14.245-11.386c0-8.006-5.519-11.747-14.065-11.747H769.16v23.133H788.199z M790.519,107.841
	c10.86,0,16.726-5.866,16.726-12.985c0-7.118-5.52-12.456-16.726-12.456H769.16v25.441H790.519z"/>
<polygon fill="#BC0B2D" points="861.521,3.203 950.33,3.203 950.33,34.342 897.653,34.342 897.653,54.101 943.391,54.101 
	943.391,82.22 897.653,82.22 897.653,105.535 950.33,105.535 950.33,136.673 861.521,136.673 "/>
<path fill="#BC0B2D" d="M971.497,136.677V3.203h48.057c33.278,0,54.098,17.619,54.098,45.737c0,14.594-7.826,27.939-22.246,36.122
	l26.88,37.555v14.06h-33.64l-28.118-42.179h-8.899v42.179H971.497z M1019.373,65.669c11.214,0,18.153-6.765,18.153-16.729
	c0-9.436-6.76-15.309-18.153-15.309h-12.459v32.037H1019.373z"/>
<polygon fill="#BC0B2D" points="1119.742,34.342 1084.511,34.342 1084.511,3.203 1191.104,3.203 1191.104,34.342 1155.867,34.342 
	1155.867,136.677 1119.742,136.677 "/>
<path fill="#BC0B2D" d="M1201.425,109.269v-14.06h29.191c3.199,9.969,10.86,15.126,24.198,15.126c11.039,0,17.8-4.273,17.8-12.277
	c0-6.582-5.16-10.858-17.26-12.631l-14.239-1.968c-24.738-3.557-39.857-17.081-39.857-40.214c0-27.76,20.639-43.245,52.496-43.245
	c26.686,0,46.799,11.213,50.004,30.782v13.889h-29.365c-1.612-8.549-7.832-15.131-20.817-15.131
	c-10.681,0-16.913,4.092-16.913,11.921c0,5.163,3.56,9.26,15.133,11.04l13.166,1.957c25.632,3.732,43.07,17.618,43.07,41.109
	c0,27.226-21.538,44.309-53.75,44.309C1222.963,139.876,1206.943,126.532,1201.425,109.269"/>
<path fill="#BC0B2D" d="M1446.305,129.917c-11.213,6.399-24.199,10.143-38.619,10.143c-31.857,0-48.936-16.905-48.936-39.512
	c0-22.245,17.258-31.498,23.305-33.99c-6.58-8.54-10.32-17.977-10.32-29.539c0-22.246,17.439-37.019,43.431-37.019
	c29.006,0,41.819,17.083,41.819,35.591c0,15.48-10.5,29.014-23.492,36.846l12.992,12.452c2.487-4.986,4.268-10.507,4.987-16.019
	h35.052c-2.134,14.419-7.475,27.765-15.661,38.971l17.44,16.376v12.456h-35.239L1446.305,129.917z M1424.232,107.135l-23.126-22.778
	c-1.959,1.423-6.413,5.872-6.413,12.103c0,8.719,5.341,13.876,15.121,13.876C1414.626,110.335,1420.507,109.095,1424.232,107.135
	 M1413.387,53.925c6.579-3.74,10.499-9.254,10.499-15.486c0-5.873-3.74-10.321-8.899-10.321c-6.233,0-9.974,4.095-9.974,10.681
	C1405.013,43.778,1407.867,48.581,1413.387,53.925"/>
<path fill="#BC0B2D" d="M1543.105,3.203h50.551c40.746,0,65.844,29.72,65.844,66.2c0,37.018-25.098,67.273-65.844,67.273h-50.551
	V3.203z M1593.117,105.535c19.045,0,28.839-16.196,28.839-36.132c0-19.219-9.794-35.062-28.839-35.062h-13.879v71.193H1593.117z"/>
<polygon fill="#BC0B2D" points="1683.172,3.203 1771.954,3.203 1771.954,34.342 1719.296,34.342 1719.296,54.102 1765.035,54.102 
	1765.035,82.22 1719.296,82.22 1719.296,105.535 1771.954,105.535 1771.954,136.673 1683.172,136.673 "/>
<path fill="#BC0B2D" d="M1833.904,70.12c0-43.961,25.978-70.12,65.136-70.12c33.626,0,48.225,17.439,51.604,32.031v13.887h-29.186
	c-1.778-8.546-9.078-14.954-22.239-14.954c-17.271,0-29.19,12.814-29.19,38.977c0,25.446,11.738,38.798,29.19,38.798
	c12.981,0,21.001-7.12,23.126-15.662h29.192v13.882c-4.453,17.979-22.778,32.919-52.498,32.919
	C1859.521,139.877,1833.904,113.188,1833.904,70.12"/>
<path fill="#BC0B2D" d="M1973.424,136.677V3.203h48.049c33.279,0,54.1,17.619,54.1,45.737c0,14.595-7.835,27.939-22.239,36.122
	l26.864,37.555v14.06h-33.639l-28.104-42.178h-8.898v42.178H1973.424z M2021.295,65.669c11.205,0,18.159-6.765,18.159-16.729
	c0-9.436-6.774-15.309-18.159-15.309h-12.461v32.037H2021.295z"/>
<path fill="#BC0B2D" d="M2095.15,69.403C2095.15,27.763,2121.672,0,2161.35,0c39.686,0,66.203,27.763,66.203,69.403
	c0,42.178-26.518,70.474-66.203,70.474C2121.672,139.877,2095.15,111.581,2095.15,69.403 M2191.435,69.403
	c0-23.132-11.746-38.439-30.085-38.439c-18.499,0-30.076,15.308-30.076,38.439c0,23.851,11.577,39.511,30.076,39.511
	C2179.688,108.914,2191.435,93.254,2191.435,69.403"/>
<path fill="#BC0B2D" d="M2244.813,69.403c0-41.641,26.517-69.403,66.21-69.403c39.684,0,66.195,27.763,66.195,69.403
	c0,42.178-26.512,70.474-66.195,70.474C2271.33,139.877,2244.813,111.581,2244.813,69.403 M2341.1,69.403
	c0-23.132-11.752-38.439-30.076-38.439c-18.514,0-30.08,15.308-30.08,38.439c0,23.851,11.566,39.511,30.08,39.511
	C2329.348,108.914,2341.1,93.254,2341.1,69.403"/>
<polygon fill="#BC0B2D" points="2400.884,3.203 2435.236,3.203 2484.88,76.522 2484.88,3.203 2519.231,3.203 2519.231,136.673 
	2484.88,136.673 2435.236,64.776 2435.236,136.673 2400.884,136.673 "/>
<rect x="20.345" y="311.104" fill="#BC0B2D" width="310.424" height="39.098"/>
<polygon fill="#BC0B2D" points="351.121,76.409 251.988,135.58 175.558,3.203 98.743,136.239 0,78.439 20.339,272.046 
	62.604,272.046 80.162,241.642 175.558,76.409 220.549,154.339 228.995,168.964 270.953,241.642 288.505,272.046 330.77,272.046 "/>
<rect x="155.998" y="212.552" fill="#BC0B2D" width="39.113" height="59.494"/>
</svg>
