<?xml version="1.0" encoding="utf-8"?>
<!-- Generator: Adobe Illustrator 14.0.0, SVG Export Plug-In  -->
<!DOCTYPE svg PUBLIC "-//W3C//DTD SVG 1.1//EN" "http://www.w3.org/Graphics/SVG/1.1/DTD/svg11.dtd" [
	<!ENTITY ns_flows "http://ns.adobe.com/Flows/1.0/">
]>
<svg version="1.1"
	 xmlns="http://www.w3.org/2000/svg" xmlns:xlink="http://www.w3.org/1999/xlink" xmlns:a="http://ns.adobe.com/AdobeSVGViewerExtensions/3.0/"
	 x="0px" y="0px" width="859px" height="166px" viewBox="16.757 37.144 859 166" enable-background="new 16.757 37.144 859 166"
	 xml:space="preserve">
<defs>
</defs>
<g>
	<defs>
		<path id="SVGID_5_" d="M161.249,73.713l-18.828,39.379h32.83c12.013,0,21.751,9.738,21.751,21.752s-9.738,21.752-21.751,21.752
			h-13.678l14.872,31.105c3.74,7.822,11.54,12.393,19.669,12.393c3.15,0,6.35-0.688,9.381-2.135
			c10.854-5.189,15.446-18.197,10.257-29.051L161.255,54.931C163.987,60.664,164.202,67.538,161.249,73.713 M161.255,54.931
			l-0.005-0.01c-0.006-0.014-0.013-0.027-0.019-0.041C161.239,54.896,161.247,54.914,161.255,54.931 M161.231,54.879
			c-0.04-0.084-0.081-0.167-0.122-0.25C161.15,54.712,161.191,54.795,161.231,54.879 M161.096,54.604
			c0-0.001-0.001-0.003-0.001-0.004C161.095,54.602,161.096,54.604,161.096,54.604 M121.897,55.017l0.046-0.096
			c0.29-0.609,0.605-1.197,0.944-1.765C122.526,53.761,122.196,54.381,121.897,55.017 M122.887,53.155
			c0.001-0.002,0.002-0.005,0.003-0.007C122.889,53.15,122.888,53.153,122.887,53.155 M122.89,53.148
			c0.014-0.023,0.028-0.045,0.041-0.068C122.918,53.104,122.904,53.125,122.89,53.148 M122.931,53.081
			c0.007-0.011,0.013-0.021,0.02-0.032C122.944,53.06,122.938,53.069,122.931,53.081 M122.951,53.048
			c0.009-0.015,0.018-0.03,0.027-0.045C122.969,53.019,122.96,53.034,122.951,53.048 M122.978,53.003
			c0.011-0.019,0.023-0.038,0.034-0.056C123.001,52.965,122.989,52.984,122.978,53.003 M160.171,52.934L160.171,52.934
			L160.171,52.934z M123.012,52.947c0.005-0.008,0.009-0.015,0.014-0.022C123.021,52.933,123.017,52.939,123.012,52.947
			 M123.026,52.925c0.016-0.027,0.032-0.053,0.048-0.079C123.058,52.873,123.042,52.898,123.026,52.925 M123.074,52.847
			c0-0.001,0.001-0.001,0.001-0.002C123.075,52.846,123.074,52.846,123.074,52.847 M160.154,52.903
			c-0.017-0.028-0.033-0.055-0.05-0.082C160.121,52.849,160.137,52.876,160.154,52.903 M160.104,52.821
			c-0.016-0.025-0.032-0.052-0.048-0.077C160.072,52.771,160.088,52.796,160.104,52.821 M160.056,52.745
			c-0.001-0.001-0.002-0.002-0.003-0.003C160.054,52.743,160.055,52.744,160.056,52.745 M160.053,52.742
			c-0.017-0.027-0.033-0.054-0.051-0.081C160.02,52.688,160.036,52.714,160.053,52.742 M160.002,52.661
			c-0.015-0.024-0.03-0.048-0.045-0.072C159.972,52.612,159.987,52.637,160.002,52.661 M159.957,52.588
			c-0.002-0.003-0.003-0.005-0.004-0.007C159.954,52.583,159.955,52.586,159.957,52.588 M123.075,52.845
			c0.145-0.234,0.294-0.465,0.447-0.694C123.369,52.378,123.22,52.609,123.075,52.845 M123.522,52.15
			c0.001-0.002,0.003-0.003,0.004-0.005C123.525,52.147,123.523,52.148,123.522,52.15 M123.526,52.146
			c0.02-0.029,0.039-0.058,0.058-0.087C123.565,52.087,123.546,52.117,123.526,52.146 M123.584,52.059
			c0.005-0.007,0.009-0.013,0.014-0.02C123.593,52.045,123.589,52.052,123.584,52.059 M123.598,52.039
			c0.017-0.024,0.033-0.048,0.05-0.072C123.631,51.991,123.615,52.015,123.598,52.039 M123.648,51.966
			c0.009-0.013,0.017-0.026,0.026-0.039C123.665,51.94,123.657,51.954,123.648,51.966 M123.674,51.928
			c0.013-0.018,0.026-0.036,0.038-0.054C123.7,51.892,123.687,51.91,123.674,51.928 M123.712,51.874
			c0.022-0.031,0.044-0.063,0.065-0.093C123.756,51.811,123.734,51.842,123.712,51.874 M123.79,51.762
			c0.001-0.003,0.003-0.005,0.005-0.009C123.793,51.755,123.791,51.758,123.79,51.762 M150.992,44.664
			c3.808,1.821,6.846,4.604,8.961,7.918c-2.456-3.851-5.981-6.713-9.99-8.379C150.307,44.347,150.651,44.5,150.992,44.664
			 M141.582,42.528c-2.819,0-5.676,0.549-8.419,1.702c2.655-1.113,5.523-1.701,8.433-1.702H141.582z"/>
	</defs>
	<clipPath id="SVGID_6_">
		<use xlink:href="#SVGID_5_"  overflow="visible"/>
	</clipPath>
	
		<linearGradient id="SVGID_7_" gradientUnits="userSpaceOnUse" x1="-16.7852" y1="277.562" x2="-15.7856" y2="277.562" gradientTransform="matrix(128.88 73.1848 73.1848 -128.88 -18040.9336 37086.5703)">
		<stop  offset="0" style="stop-color:#FDB813"/>
		<stop  offset="0.0035" style="stop-color:#FDB714"/>
		<stop  offset="0.1637" style="stop-color:#F7911E"/>
		<stop  offset="0.3205" style="stop-color:#F37221"/>
		<stop  offset="0.4704" style="stop-color:#F05523"/>
		<stop  offset="0.6117" style="stop-color:#EF3B24"/>
		<stop  offset="0.741" style="stop-color:#EE2624"/>
		<stop  offset="0.8472" style="stop-color:#ED1C24"/>
		<stop  offset="1" style="stop-color:#ED1C24"/>
	</linearGradient>
	<polygon clip-path="url(#SVGID_6_)" fill="url(#SVGID_7_)" points="146.047,0 288.599,80.948 196.791,242.624 54.239,161.674 	"/>
</g>
<g>
	<defs>
		<path id="SVGID_4_" d="M67.441,168.909c-5.19,10.854-0.598,23.861,10.256,29.051c3.032,1.447,6.232,2.135,9.382,2.135
			c8.128,0,15.928-4.57,19.668-12.393l14.873-31.105h39.953l-39.629-82.883c-2.94-6.146-2.742-12.981-0.047-18.697L67.441,168.909z
			 M161.109,54.629c-0.004-0.008-0.009-0.016-0.013-0.025C161.1,54.613,161.105,54.622,161.109,54.629 M161.095,54.601
			c-0.283-0.568-0.591-1.125-0.924-1.667C160.501,53.472,160.808,54.027,161.095,54.601 M160.171,52.933
			c-0.006-0.01-0.011-0.019-0.017-0.029C160.16,52.914,160.165,52.922,160.171,52.933 M123.777,51.78
			c0.005-0.007,0.008-0.013,0.013-0.019C123.785,51.768,123.781,51.773,123.777,51.78 M123.795,51.752
			c0.016-0.023,0.032-0.046,0.05-0.069C123.827,51.707,123.811,51.729,123.795,51.752 M123.845,51.684
			c0.016-0.023,0.032-0.045,0.048-0.068C123.877,51.638,123.861,51.661,123.845,51.684 M123.893,51.616
			c2.069-2.889,4.874-5.311,8.306-6.952c0.32-0.153,0.642-0.297,0.964-0.433C129.525,45.755,126.288,48.27,123.893,51.616
			 M141.596,42.528c2.887,0.001,5.731,0.579,8.367,1.674c-2.722-1.134-5.557-1.674-8.352-1.674H141.596z"/>
	</defs>
	<clipPath id="SVGID_8_">
		<use xlink:href="#SVGID_4_"  overflow="visible"/>
	</clipPath>
	
		<linearGradient id="SVGID_9_" gradientUnits="userSpaceOnUse" x1="-16.793" y1="277.2769" x2="-15.793" y2="277.2769" gradientTransform="matrix(-52.0114 106.1685 106.1685 52.0114 -30179.7227 -12557.8867)">
		<stop  offset="0" style="stop-color:#00B26B"/>
		<stop  offset="0.1008" style="stop-color:#00B26B"/>
		<stop  offset="0.8566" style="stop-color:#006EB7"/>
		<stop  offset="1" style="stop-color:#006EB7"/>
	</linearGradient>
	<polygon clip-path="url(#SVGID_8_)" fill="url(#SVGID_9_)" points="223.824,73.025 142.35,239.334 0,169.598 81.474,3.289 	"/>
</g>
<g>
	<defs>
		<path id="SVGID_2_" d="M133.163,44.23c-0.322,0.136-0.644,0.28-0.964,0.433c-3.486,1.667-6.326,4.14-8.404,7.089
			c-0.002,0.004-0.004,0.006-0.005,0.009c-0.005,0.006-0.009,0.012-0.013,0.019c-0.687,0.977-1.302,2.025-1.834,3.14l-0.046,0.096
			c-2.695,5.716-2.893,12.551,0.047,18.697l39.629,82.883h13.678c12.013,0,21.751-9.738,21.751-21.752s-9.738-21.752-21.751-21.752
			h-32.83l18.828-39.379c3.005-6.285,2.73-13.291-0.14-19.084c-0.004-0.008-0.009-0.016-0.013-0.025
			c0-0.001-0.001-0.003-0.001-0.004c-0.287-0.573-0.594-1.129-0.924-1.667v-0.001c-0.006-0.01-0.011-0.019-0.017-0.029
			c-2.121-3.456-5.231-6.361-9.162-8.24c-0.341-0.163-0.685-0.317-1.029-0.461c-2.636-1.095-5.48-1.673-8.367-1.674
			C138.686,42.529,135.818,43.118,133.163,44.23"/>
	</defs>
	<linearGradient id="SVGID_10_" gradientUnits="userSpaceOnUse" x1="146.9063" y1="78.7568" x2="175.4063" y2="131.7568">
		<stop  offset="0" style="stop-color:#FFF200"/>
		<stop  offset="1" style="stop-color:#EB2E25"/>
	</linearGradient>
	<use xlink:href="#SVGID_2_"  overflow="visible" fill="url(#SVGID_10_)"/>
	<clipPath id="SVGID_11_">
		<use xlink:href="#SVGID_2_"  overflow="visible"/>
	</clipPath>
	<g clip-path="url(#SVGID_11_)">
		<defs>
			<rect id="SVGID_3_" x="118.057" y="41.86" width="79.538" height="115.423"/>
		</defs>
		<clipPath id="SVGID_12_">
			<use xlink:href="#SVGID_3_"  overflow="visible"/>
		</clipPath>
		<linearGradient id="SVGID_13_" gradientUnits="userSpaceOnUse" x1="139.4014" y1="79.0298" x2="184.3175" y2="129.9278">
			<stop  offset="0" style="stop-color:#FFF200"/>
			<stop  offset="1" style="stop-color:#EB2E25"/>
		</linearGradient>
		<rect x="118.057" y="41.86" clip-path="url(#SVGID_12_)" fill="url(#SVGID_13_)" width="78.945" height="115.423"/>
	</g>
</g>
<g>
	<defs>
		<rect id="SVGID_1_" x="19.349" y="42.526" width="607.098" height="157.568"/>
	</defs>
	<clipPath id="SVGID_14_">
		<use xlink:href="#SVGID_1_"  overflow="visible"/>
	</clipPath>
	<path clip-path="url(#SVGID_14_)" fill="#1B2C5D" d="M54.189,156.598l-3.379-8.541H33.974l-3.195,8.541H19.35l18.25-43.506h10.2
		l18.065,43.506H54.189z M42.515,124.706l-5.53,14.932h10.937L42.515,124.706z M104.194,146.454
		c-0.858,2.096-2.085,3.891-3.68,5.387c-1.596,1.494-3.522,2.662-5.775,3.5c-2.254,0.838-4.757,1.258-7.51,1.258
		c-2.793,0-5.306-0.42-7.54-1.258s-4.129-2.006-5.685-3.5c-1.555-1.496-2.752-3.291-3.59-5.387
		c-0.838-2.094-1.256-4.418-1.256-6.971v-26.391h10.172v25.553c0,1.158,0.15,2.254,0.449,3.291c0.299,1.039,0.757,1.965,1.376,2.783
		c0.618,0.816,1.438,1.467,2.454,1.943c1.017,0.48,2.244,0.719,3.68,0.719s2.663-0.238,3.68-0.719
		c1.017-0.477,1.845-1.127,2.484-1.943c0.637-0.818,1.097-1.744,1.376-2.783c0.279-1.037,0.419-2.133,0.419-3.291v-25.553h10.233
		v26.391C105.481,142.036,105.052,144.36,104.194,146.454 M135.063,122.065v34.533h-10.508v-34.533h-12.289v-8.973h35.086v8.973
		H135.063z M197.002,134.668c0,3.268-0.564,6.25-1.69,8.953c-1.13,2.703-2.694,5.016-4.695,6.939
		c-2.004,1.924-4.384,3.412-7.144,4.463c-2.762,1.049-5.756,1.574-8.981,1.574c-3.228,0-6.211-0.525-8.952-1.574
		c-2.741-1.051-5.113-2.539-7.115-4.463c-2.003-1.924-3.567-4.236-4.694-6.939c-1.129-2.703-1.691-5.686-1.691-8.953
		c0-3.303,0.562-6.287,1.691-8.949c1.127-2.664,2.691-4.929,4.694-6.795c2.002-1.866,4.374-3.304,7.115-4.315
		c2.741-1.01,5.724-1.517,8.952-1.517c3.225,0,6.219,0.506,8.981,1.517c2.76,1.012,5.14,2.449,7.144,4.315
		c2.001,1.866,3.565,4.131,4.695,6.795C196.438,128.381,197.002,131.366,197.002,134.668 M186.331,134.668
		c0-1.785-0.291-3.459-0.875-5.014s-1.39-2.887-2.419-3.996c-1.032-1.105-2.275-1.98-3.733-2.623
		c-1.459-0.641-3.062-0.963-4.811-0.963c-1.751,0-3.345,0.322-4.782,0.963c-1.439,0.643-2.683,1.518-3.734,2.623
		c-1.049,1.109-1.856,2.441-2.419,3.996c-0.564,1.555-0.846,3.229-0.846,5.014c0,1.867,0.293,3.588,0.875,5.162
		c0.583,1.574,1.39,2.928,2.421,4.053c1.029,1.129,2.264,2.014,3.703,2.654c1.437,0.643,3.031,0.961,4.782,0.961
		c1.749,0,3.343-0.318,4.781-0.961c1.438-0.641,2.683-1.525,3.733-2.654c1.05-1.125,1.865-2.479,2.449-4.053
		S186.331,136.536,186.331,134.668 M273.664,156.598l-3.38-8.541h-16.837l-3.195,8.541h-11.43l18.25-43.506h10.2l18.066,43.506
		H273.664z M261.987,124.706l-5.531,14.932h10.938L261.987,124.706z M233.992,113.092h11.428l-18.25,43.506h-10.2l-18.065-43.506
		h11.675l11.674,31.891L233.992,113.092z M317.423,156.598l-16.161-20.033h-0.122v20.033h-10.261v-43.506h10.261v17.697h0.184
		l15.546-17.697h13.149l-18.74,20.031l19.848,23.475H317.423z M376.067,156.598l0.246-30.785h-0.184l-11.306,30.785h-7.374
		l-10.998-30.785h-0.185l0.245,30.785h-9.891v-43.506h14.949l9.904,27.896h0.247l9.474-27.896h15.197v43.506H376.067z
		 M396.958,156.598v-43.506h29.249v8.85h-19.11v8.232h18.066v8.418h-18.066v9.033h20.216v8.973H396.958z M436.267,156.598v-43.506
		h29.248v8.85h-19.109v8.232h18.065v8.418h-18.065v9.033h20.215v8.973H436.267z M499.125,124.862
		c-0.86-1.092-1.979-1.959-3.363-2.602c-1.385-0.646-2.719-0.967-4.006-0.967c-0.663,0-1.335,0.06-2.018,0.176
		c-0.682,0.118-1.296,0.342-1.842,0.672c-0.546,0.332-1.002,0.762-1.373,1.287s-0.555,1.197-0.555,2.018
		c0,0.701,0.145,1.287,0.438,1.754c0.292,0.467,0.721,0.877,1.287,1.229c0.564,0.352,1.236,0.672,2.017,0.965
		c0.779,0.293,1.656,0.594,2.631,0.906c1.403,0.469,2.865,0.984,4.386,1.549c1.521,0.566,2.904,1.316,4.151,2.252
		s2.281,2.096,3.099,3.479c0.819,1.385,1.229,3.109,1.229,5.174c0,2.381-0.439,4.436-1.316,6.172
		c-0.878,1.734-2.057,3.166-3.538,4.297c-1.483,1.131-3.178,1.969-5.087,2.514c-1.911,0.545-3.879,0.818-5.906,0.818
		c-2.962,0-5.828-0.518-8.597-1.549c-2.767-1.031-5.066-2.506-6.899-4.414l6.55-6.666c1.013,1.248,2.347,2.289,4.005,3.127
		c1.656,0.84,3.304,1.258,4.941,1.258c0.741,0,1.461-0.078,2.164-0.234c0.701-0.156,1.316-0.41,1.841-0.76
		c0.527-0.35,0.945-0.818,1.257-1.404c0.311-0.584,0.468-1.285,0.468-2.104c0-0.779-0.195-1.443-0.585-1.988
		c-0.39-0.547-0.945-1.043-1.665-1.492c-0.723-0.447-1.62-0.855-2.69-1.227c-1.073-0.371-2.292-0.77-3.656-1.199
		c-1.325-0.428-2.621-0.936-3.888-1.52c-1.267-0.586-2.397-1.336-3.391-2.252c-0.994-0.914-1.795-2.027-2.398-3.332
		c-0.605-1.307-0.906-2.896-0.906-4.768c0-2.299,0.468-4.269,1.404-5.905c0.935-1.637,2.163-2.982,3.683-4.035
		c1.52-1.052,3.235-1.82,5.146-2.309c1.91-0.487,3.839-0.731,5.789-0.731c2.339,0,4.726,0.429,7.162,1.286
		c2.437,0.859,4.571,2.126,6.403,3.801L499.125,124.862z M533.172,122.065v34.533h-10.506v-34.533h-12.291v-8.973h35.086v8.973
		H533.172z M551.563,156.598v-43.506h29.247v8.85h-19.108v8.232h18.064v8.418h-18.064v9.033h20.214v8.973H551.563z M614.157,156.598
		l-9.445-17.268h-3.581v17.268H590.87v-43.506h16.591c2.089,0,4.127,0.215,6.114,0.646c1.986,0.431,3.768,1.158,5.346,2.182
		c1.576,1.023,2.835,2.376,3.779,4.055c0.942,1.68,1.414,3.771,1.414,6.269c0,2.949-0.8,5.428-2.398,7.436
		c-1.597,2.008-3.809,3.439-6.635,4.301l11.366,18.619H614.157z M613.729,126.426c0-1.023-0.218-1.854-0.649-2.488
		c-0.433-0.635-0.989-1.125-1.667-1.475c-0.681-0.348-1.442-0.584-2.285-0.706c-0.844-0.124-1.657-0.186-2.438-0.186h-5.62v10.14
		h5.001c0.864,0,1.749-0.072,2.656-0.215c0.905-0.143,1.728-0.398,2.47-0.77c0.741-0.367,1.347-0.9,1.821-1.596
		C613.49,128.434,613.729,127.532,613.729,126.426"/>
</g>
<path fill="#1B2C5D" d="M651.31,116.128c2.604-0.434,6.012-0.806,10.351-0.806c5.33,0,9.235,1.24,11.714,3.471
	c2.231,1.983,3.657,5.021,3.657,8.739c0,3.781-1.116,6.756-3.223,8.926c-2.914,3.037-7.5,4.586-12.769,4.586
	c-1.611,0-3.099-0.062-4.338-0.372v16.735h-5.393V116.128z M656.702,136.272c1.178,0.31,2.665,0.434,4.462,0.434
	c6.508,0,10.475-3.223,10.475-8.863c0-5.578-3.967-8.243-9.855-8.243c-2.355,0-4.153,0.186-5.083,0.434V136.272z"/>
<path fill="#1B2C5D" d="M683.232,116.19c2.728-0.496,6.694-0.868,10.351-0.868c5.764,0,9.545,1.116,12.086,3.409
	c2.045,1.859,3.285,4.71,3.285,7.996c0,5.454-3.471,9.111-7.81,10.599v0.187c3.161,1.115,5.083,4.09,6.074,8.429
	c1.364,5.826,2.355,9.855,3.223,11.467h-5.579c-0.682-1.239-1.611-4.772-2.727-9.979c-1.24-5.765-3.533-7.934-8.429-8.12h-5.083
	v18.099h-5.393V116.19z M688.625,135.218h5.516c5.764,0,9.421-3.161,9.421-7.934c0-5.392-3.905-7.748-9.607-7.748
	c-2.603,0-4.4,0.186-5.33,0.434V135.218z"/>
<path fill="#1B2C5D" d="M737.097,137.822h-16.177v15.062h18.099v4.524h-23.553v-41.775h22.623v4.525h-17.168v13.202h16.177V137.822z
	"/>
<path fill="#1B2C5D" d="M750.362,115.632v24.793c0,9.297,4.153,13.264,9.731,13.264c6.136,0,10.165-4.091,10.165-13.264v-24.793
	h5.454v24.421c0,12.83-6.756,18.036-15.805,18.036c-8.553,0-15-4.834-15-17.851v-24.606H750.362z"/>
<path fill="#1B2C5D" d="M791.954,120.219h-12.706v-4.587h30.929v4.587h-12.768v37.188h-5.455V120.219z"/>
<path fill="#1B2C5D" d="M835.344,137.822h-16.178v15.062h18.099v4.524h-23.553v-41.775h22.623v4.525h-17.169v13.202h16.178V137.822z
	"/>
<path fill="#1B2C5D" d="M843.218,116.19c2.727-0.496,6.693-0.868,10.351-0.868c5.765,0,9.545,1.116,12.086,3.409
	c2.046,1.859,3.285,4.71,3.285,7.996c0,5.454-3.471,9.111-7.81,10.599v0.187c3.161,1.115,5.083,4.09,6.074,8.429
	c1.363,5.826,2.355,9.855,3.223,11.467h-5.578c-0.682-1.239-1.611-4.772-2.727-9.979c-1.24-5.765-3.533-7.934-8.43-8.12h-5.083
	v18.099h-5.392V116.19z M848.609,135.218h5.517c5.765,0,9.421-3.161,9.421-7.934c0-5.392-3.904-7.748-9.606-7.748
	c-2.604,0-4.401,0.186-5.331,0.434V135.218z"/>
</svg>
