<?xml version="1.0" encoding="utf-8"?>
<!-- Generator: Adobe Illustrator 14.0.0, SVG Export Plug-In . SVG Version: 6.00 Build 43363)  -->
<!DOCTYPE svg PUBLIC "-//W3C//DTD SVG 1.1//EN" "http://www.w3.org/Graphics/SVG/1.1/DTD/svg11.dtd">
<svg version="1.1" xmlns="http://www.w3.org/2000/svg" xmlns:xlink="http://www.w3.org/1999/xlink" x="0px" y="0px" width="513px"
	 height="158.896px" viewBox="0 0 513 158.896" enable-background="new 0 0 513 158.896" xml:space="preserve">
<g id="New_Layer">
	<g>
		<path d="M120.461,152v-8.59h1.137v3.527h4.465v-3.527h1.137V152h-1.137v-4.049h-4.465V152H120.461z"/>
		<path d="M128.564,148.889c0-1.152,0.32-2.006,0.961-2.561c0.535-0.461,1.188-0.691,1.957-0.691c0.855,0,1.555,0.28,2.098,0.841
			s0.814,1.335,0.814,2.323c0,0.801-0.12,1.431-0.36,1.89s-0.59,0.815-1.049,1.069s-0.96,0.381-1.503,0.381
			c-0.871,0-1.575-0.279-2.112-0.838S128.564,149.939,128.564,148.889z M129.648,148.889c0,0.797,0.174,1.394,0.521,1.79
			s0.785,0.595,1.313,0.595c0.523,0,0.959-0.199,1.307-0.598s0.521-1.006,0.521-1.822c0-0.77-0.175-1.353-0.524-1.749
			s-0.784-0.595-1.304-0.595c-0.527,0-0.965,0.197-1.313,0.592S129.648,148.092,129.648,148.889z"/>
		<path d="M135.238,148.889c0-1.152,0.32-2.006,0.961-2.561c0.535-0.461,1.188-0.691,1.957-0.691c0.855,0,1.555,0.28,2.098,0.841
			s0.814,1.335,0.814,2.323c0,0.801-0.12,1.431-0.36,1.89s-0.59,0.815-1.049,1.069s-0.96,0.381-1.503,0.381
			c-0.871,0-1.575-0.279-2.112-0.838S135.238,149.939,135.238,148.889z M136.322,148.889c0,0.797,0.174,1.394,0.521,1.79
			s0.785,0.595,1.313,0.595c0.523,0,0.959-0.199,1.307-0.598s0.521-1.006,0.521-1.822c0-0.77-0.175-1.353-0.524-1.749
			s-0.784-0.595-1.304-0.595c-0.527,0-0.965,0.197-1.313,0.592S136.322,148.092,136.322,148.889z"/>
		<path d="M142.557,152v-5.402h-0.932v-0.82h0.932v-0.662c0-0.418,0.037-0.729,0.111-0.932c0.102-0.273,0.28-0.495,0.536-0.665
			s0.614-0.255,1.075-0.255c0.297,0,0.625,0.035,0.984,0.105l-0.158,0.92c-0.219-0.039-0.426-0.059-0.621-0.059
			c-0.32,0-0.547,0.068-0.68,0.205s-0.199,0.393-0.199,0.768v0.574h1.213v0.82h-1.213V152H142.557z"/>
		<path d="M149.676,152v-0.785c-0.395,0.617-0.975,0.926-1.74,0.926c-0.496,0-0.952-0.137-1.368-0.41s-0.738-0.655-0.967-1.146
			s-0.343-1.054-0.343-1.69c0-0.621,0.104-1.185,0.311-1.69s0.518-0.894,0.932-1.163s0.877-0.404,1.389-0.404
			c0.375,0,0.709,0.079,1.002,0.237s0.531,0.364,0.715,0.618v-3.082h1.049V152H149.676z M146.342,148.895
			c0,0.797,0.168,1.393,0.504,1.787s0.732,0.592,1.189,0.592c0.461,0,0.853-0.188,1.175-0.565s0.483-0.952,0.483-1.726
			c0-0.852-0.164-1.477-0.492-1.875s-0.732-0.598-1.213-0.598c-0.469,0-0.86,0.191-1.175,0.574S146.342,148.07,146.342,148.895z"/>
		<path d="M151.891,150.143l1.043-0.164c0.059,0.418,0.222,0.738,0.489,0.961s0.642,0.334,1.122,0.334
			c0.484,0,0.844-0.099,1.078-0.296s0.352-0.429,0.352-0.694c0-0.238-0.104-0.426-0.311-0.563c-0.145-0.094-0.504-0.213-1.078-0.357
			c-0.773-0.195-1.31-0.364-1.608-0.507s-0.525-0.34-0.68-0.592s-0.231-0.53-0.231-0.835c0-0.277,0.063-0.534,0.19-0.771
			s0.3-0.433,0.519-0.589c0.164-0.121,0.388-0.224,0.671-0.308s0.587-0.126,0.911-0.126c0.488,0,0.917,0.07,1.286,0.211
			s0.642,0.331,0.817,0.571s0.297,0.562,0.363,0.964l-1.031,0.141c-0.047-0.32-0.183-0.57-0.407-0.75s-0.542-0.27-0.952-0.27
			c-0.484,0-0.83,0.08-1.037,0.24s-0.311,0.348-0.311,0.563c0,0.137,0.043,0.26,0.129,0.369c0.086,0.113,0.221,0.207,0.404,0.281
			c0.105,0.039,0.416,0.129,0.932,0.27c0.746,0.199,1.267,0.362,1.562,0.489s0.526,0.312,0.694,0.554s0.252,0.543,0.252,0.902
			c0,0.352-0.103,0.683-0.308,0.993s-0.501,0.551-0.888,0.721s-0.824,0.255-1.313,0.255c-0.809,0-1.425-0.168-1.849-0.504
			S152.008,150.803,151.891,150.143z"/>
		<path d="M160.615,151.057l0.152,0.932c-0.297,0.063-0.563,0.094-0.797,0.094c-0.383,0-0.68-0.061-0.891-0.182
			s-0.359-0.28-0.445-0.478s-0.129-0.612-0.129-1.245v-3.58h-0.773v-0.82h0.773v-1.541l1.049-0.633v2.174h1.061v0.82h-1.061v3.639
			c0,0.301,0.019,0.494,0.056,0.58s0.098,0.154,0.182,0.205s0.204,0.076,0.36,0.076C160.27,151.098,160.424,151.084,160.615,151.057
			z"/>
		<path d="M161.635,152v-6.223h0.949v0.943c0.242-0.441,0.466-0.732,0.671-0.873s0.431-0.211,0.677-0.211
			c0.355,0,0.717,0.113,1.084,0.34l-0.363,0.979c-0.258-0.152-0.516-0.229-0.773-0.229c-0.23,0-0.438,0.069-0.621,0.208
			s-0.314,0.331-0.393,0.577c-0.117,0.375-0.176,0.785-0.176,1.23V152H161.635z"/>
		<path d="M169.703,151.232c-0.391,0.332-0.767,0.566-1.128,0.703s-0.749,0.205-1.163,0.205c-0.684,0-1.209-0.167-1.576-0.501
			s-0.551-0.761-0.551-1.28c0-0.305,0.069-0.583,0.208-0.835s0.32-0.454,0.545-0.606s0.478-0.268,0.759-0.346
			c0.207-0.055,0.52-0.107,0.938-0.158c0.852-0.102,1.479-0.223,1.881-0.363c0.004-0.145,0.006-0.236,0.006-0.275
			c0-0.43-0.1-0.732-0.299-0.908c-0.27-0.238-0.67-0.357-1.201-0.357c-0.496,0-0.862,0.087-1.099,0.261s-0.411,0.481-0.524,0.923
			l-1.031-0.141c0.094-0.441,0.248-0.798,0.463-1.069s0.525-0.48,0.932-0.627s0.877-0.22,1.412-0.22
			c0.531,0,0.963,0.063,1.295,0.188s0.576,0.282,0.732,0.472s0.266,0.429,0.328,0.718c0.035,0.18,0.053,0.504,0.053,0.973v1.406
			c0,0.98,0.022,1.601,0.067,1.86s0.134,0.509,0.267,0.747h-1.102C169.805,151.781,169.734,151.525,169.703,151.232z
			 M169.615,148.877c-0.383,0.156-0.957,0.289-1.723,0.398c-0.434,0.063-0.74,0.133-0.92,0.211s-0.318,0.192-0.416,0.343
			s-0.146,0.317-0.146,0.501c0,0.281,0.106,0.516,0.319,0.703s0.524,0.281,0.935,0.281c0.406,0,0.768-0.089,1.084-0.267
			s0.549-0.421,0.697-0.729c0.113-0.238,0.17-0.59,0.17-1.055V148.877z"/>
		<path d="M176.377,151.232c-0.391,0.332-0.767,0.566-1.128,0.703s-0.749,0.205-1.163,0.205c-0.684,0-1.209-0.167-1.576-0.501
			s-0.551-0.761-0.551-1.28c0-0.305,0.069-0.583,0.208-0.835s0.32-0.454,0.545-0.606s0.478-0.268,0.759-0.346
			c0.207-0.055,0.52-0.107,0.938-0.158c0.852-0.102,1.479-0.223,1.881-0.363c0.004-0.145,0.006-0.236,0.006-0.275
			c0-0.43-0.1-0.732-0.299-0.908c-0.27-0.238-0.67-0.357-1.201-0.357c-0.496,0-0.862,0.087-1.099,0.261s-0.411,0.481-0.524,0.923
			l-1.031-0.141c0.094-0.441,0.248-0.798,0.463-1.069s0.525-0.48,0.932-0.627s0.877-0.22,1.412-0.22
			c0.531,0,0.963,0.063,1.295,0.188s0.576,0.282,0.732,0.472s0.266,0.429,0.328,0.718c0.035,0.18,0.053,0.504,0.053,0.973v1.406
			c0,0.98,0.022,1.601,0.067,1.86s0.134,0.509,0.267,0.747h-1.102C176.479,151.781,176.408,151.525,176.377,151.232z
			 M176.289,148.877c-0.383,0.156-0.957,0.289-1.723,0.398c-0.434,0.063-0.74,0.133-0.92,0.211s-0.318,0.192-0.416,0.343
			s-0.146,0.317-0.146,0.501c0,0.281,0.106,0.516,0.319,0.703s0.524,0.281,0.935,0.281c0.406,0,0.768-0.089,1.084-0.267
			s0.549-0.421,0.697-0.729c0.113-0.238,0.17-0.59,0.17-1.055V148.877z"/>
		<path d="M181.293,151.057l0.152,0.932c-0.297,0.063-0.563,0.094-0.797,0.094c-0.383,0-0.68-0.061-0.891-0.182
			s-0.359-0.28-0.445-0.478s-0.129-0.612-0.129-1.245v-3.58h-0.773v-0.82h0.773v-1.541l1.049-0.633v2.174h1.061v0.82h-1.061v3.639
			c0,0.301,0.019,0.494,0.056,0.58s0.098,0.154,0.182,0.205s0.204,0.076,0.36,0.076
			C180.947,151.098,181.102,151.084,181.293,151.057z"/>
		<path d="M188.746,152v-2.057h-3.727v-0.967l3.92-5.566h0.861v5.566h1.16v0.967h-1.16V152H188.746z M188.746,148.977v-3.873
			l-2.689,3.873H188.746z"/>
		<path d="M192.039,147.764c0-1.016,0.104-1.833,0.313-2.452s0.52-1.097,0.932-1.433s0.931-0.504,1.556-0.504
			c0.461,0,0.865,0.093,1.213,0.278s0.635,0.453,0.861,0.803s0.404,0.775,0.533,1.277s0.193,1.179,0.193,2.03
			c0,1.008-0.104,1.821-0.311,2.44s-0.517,1.098-0.929,1.436s-0.933,0.507-1.562,0.507c-0.828,0-1.479-0.297-1.951-0.891
			C192.322,150.541,192.039,149.377,192.039,147.764z M193.123,147.764c0,1.41,0.165,2.349,0.495,2.815s0.737,0.7,1.222,0.7
			s0.892-0.234,1.222-0.703s0.495-1.406,0.495-2.813c0-1.414-0.165-2.354-0.495-2.818s-0.741-0.697-1.233-0.697
			c-0.484,0-0.871,0.205-1.16,0.615C193.305,145.387,193.123,146.354,193.123,147.764z"/>
		<path d="M205.451,144.535v-1.014h5.561v0.82c-0.547,0.582-1.089,1.355-1.626,2.32s-0.952,1.957-1.245,2.977
			c-0.211,0.719-0.346,1.506-0.404,2.361h-1.084c0.012-0.676,0.145-1.492,0.398-2.449s0.618-1.88,1.093-2.769
			s0.979-1.638,1.515-2.247H205.451z"/>
		<path d="M217.598,150.986V152h-5.678c-0.008-0.254,0.033-0.498,0.123-0.732c0.145-0.387,0.376-0.768,0.694-1.143
			s0.778-0.809,1.38-1.301c0.934-0.766,1.564-1.372,1.893-1.819s0.492-0.87,0.492-1.269c0-0.418-0.149-0.771-0.448-1.058
			s-0.688-0.431-1.169-0.431c-0.508,0-0.914,0.152-1.219,0.457s-0.459,0.727-0.463,1.266l-1.084-0.111
			c0.074-0.809,0.354-1.425,0.838-1.849s1.135-0.636,1.951-0.636c0.824,0,1.477,0.229,1.957,0.686s0.721,1.023,0.721,1.699
			c0,0.344-0.07,0.682-0.211,1.014s-0.374,0.682-0.7,1.049s-0.868,0.871-1.626,1.512c-0.633,0.531-1.039,0.892-1.219,1.081
			s-0.328,0.38-0.445,0.571H217.598z"/>
		<path d="M222.701,152h-1.055v-6.721c-0.254,0.242-0.587,0.484-0.999,0.727s-0.782,0.424-1.11,0.545v-1.02
			c0.59-0.277,1.105-0.613,1.547-1.008s0.754-0.777,0.938-1.148h0.68V152z"/>
		<path d="M225.408,149.732l1.055-0.141c0.121,0.598,0.327,1.028,0.618,1.292s0.646,0.396,1.063,0.396
			c0.496,0,0.915-0.172,1.257-0.516s0.513-0.77,0.513-1.277c0-0.484-0.158-0.884-0.475-1.198s-0.719-0.472-1.207-0.472
			c-0.199,0-0.447,0.039-0.744,0.117l0.117-0.926c0.07,0.008,0.127,0.012,0.17,0.012c0.449,0,0.854-0.117,1.213-0.352
			s0.539-0.596,0.539-1.084c0-0.387-0.131-0.707-0.393-0.961s-0.6-0.381-1.014-0.381c-0.41,0-0.752,0.129-1.025,0.387
			s-0.449,0.645-0.527,1.16l-1.055-0.188c0.129-0.707,0.422-1.255,0.879-1.644s1.025-0.583,1.705-0.583
			c0.469,0,0.9,0.101,1.295,0.302s0.696,0.476,0.905,0.823s0.313,0.717,0.313,1.107c0,0.371-0.1,0.709-0.299,1.014
			s-0.494,0.547-0.885,0.727c0.508,0.117,0.902,0.36,1.184,0.729s0.422,0.831,0.422,1.386c0,0.75-0.273,1.386-0.82,1.907
			s-1.238,0.782-2.074,0.782c-0.754,0-1.38-0.225-1.878-0.674S225.479,150.447,225.408,149.732z"/>
		<path d="M241.967,148.988l1.137,0.287c-0.238,0.934-0.667,1.646-1.286,2.136s-1.376,0.735-2.271,0.735
			c-0.926,0-1.679-0.188-2.259-0.565s-1.021-0.923-1.324-1.638s-0.454-1.482-0.454-2.303c0-0.895,0.171-1.675,0.513-2.341
			s0.828-1.172,1.459-1.518s1.325-0.519,2.083-0.519c0.859,0,1.582,0.219,2.168,0.656s0.994,1.053,1.225,1.846l-1.119,0.264
			c-0.199-0.625-0.488-1.08-0.867-1.365s-0.855-0.428-1.43-0.428c-0.66,0-1.212,0.158-1.655,0.475s-0.755,0.741-0.935,1.274
			s-0.27,1.083-0.27,1.649c0,0.73,0.106,1.368,0.319,1.913s0.544,0.952,0.993,1.222s0.936,0.404,1.459,0.404
			c0.637,0,1.176-0.184,1.617-0.551S241.811,149.711,241.967,148.988z"/>
		<path d="M243.631,152l3.322-4.477l-2.93-4.113h1.354l1.559,2.203c0.324,0.457,0.555,0.809,0.691,1.055
			c0.191-0.313,0.418-0.639,0.68-0.979l1.729-2.279h1.236l-3.018,4.049l3.252,4.541H250.1l-2.162-3.064
			c-0.121-0.176-0.246-0.367-0.375-0.574c-0.191,0.313-0.328,0.527-0.41,0.645L244.996,152H243.631z"/>
		<path d="M259.861,148.631v-1.008l3.639-0.006v3.188c-0.559,0.445-1.135,0.78-1.729,1.005s-1.203,0.337-1.828,0.337
			c-0.844,0-1.61-0.181-2.3-0.542s-1.21-0.884-1.562-1.567s-0.527-1.447-0.527-2.291c0-0.836,0.175-1.616,0.524-2.341
			s0.853-1.263,1.509-1.614s1.412-0.527,2.268-0.527c0.621,0,1.183,0.101,1.685,0.302s0.896,0.481,1.181,0.841
			s0.502,0.828,0.65,1.406l-1.025,0.281c-0.129-0.438-0.289-0.781-0.48-1.031s-0.465-0.45-0.82-0.601s-0.75-0.226-1.184-0.226
			c-0.52,0-0.969,0.079-1.348,0.237s-0.685,0.366-0.917,0.624s-0.413,0.541-0.542,0.85c-0.219,0.531-0.328,1.107-0.328,1.729
			c0,0.766,0.132,1.406,0.396,1.922s0.647,0.898,1.151,1.148s1.039,0.375,1.605,0.375c0.492,0,0.973-0.095,1.441-0.284
			s0.824-0.392,1.066-0.606v-1.6H259.861z"/>
		<path d="M264.648,148.889c0-1.152,0.32-2.006,0.961-2.561c0.535-0.461,1.188-0.691,1.957-0.691c0.855,0,1.555,0.28,2.098,0.841
			s0.814,1.335,0.814,2.323c0,0.801-0.12,1.431-0.36,1.89s-0.59,0.815-1.049,1.069s-0.96,0.381-1.503,0.381
			c-0.871,0-1.575-0.279-2.112-0.838S264.648,149.939,264.648,148.889z M265.732,148.889c0,0.797,0.174,1.394,0.521,1.79
			s0.785,0.595,1.313,0.595c0.523,0,0.959-0.199,1.307-0.598s0.521-1.006,0.521-1.822c0-0.77-0.175-1.353-0.524-1.749
			s-0.784-0.595-1.304-0.595c-0.527,0-0.965,0.197-1.313,0.592S265.732,148.092,265.732,148.889z"/>
		<path d="M271.703,152v-6.223h0.949v0.943c0.242-0.441,0.466-0.732,0.671-0.873s0.431-0.211,0.677-0.211
			c0.355,0,0.717,0.113,1.084,0.34l-0.363,0.979c-0.258-0.152-0.516-0.229-0.773-0.229c-0.23,0-0.438,0.069-0.621,0.208
			s-0.314,0.331-0.393,0.577c-0.117,0.375-0.176,0.785-0.176,1.23V152H271.703z"/>
		<path d="M275.289,150.143l1.043-0.164c0.059,0.418,0.222,0.738,0.489,0.961s0.642,0.334,1.122,0.334
			c0.484,0,0.844-0.099,1.078-0.296s0.352-0.429,0.352-0.694c0-0.238-0.104-0.426-0.311-0.563c-0.145-0.094-0.504-0.213-1.078-0.357
			c-0.773-0.195-1.31-0.364-1.608-0.507s-0.525-0.34-0.68-0.592s-0.231-0.53-0.231-0.835c0-0.277,0.063-0.534,0.19-0.771
			s0.3-0.433,0.519-0.589c0.164-0.121,0.388-0.224,0.671-0.308s0.587-0.126,0.911-0.126c0.488,0,0.917,0.07,1.286,0.211
			s0.642,0.331,0.817,0.571s0.297,0.562,0.363,0.964l-1.031,0.141c-0.047-0.32-0.183-0.57-0.407-0.75s-0.542-0.27-0.952-0.27
			c-0.484,0-0.83,0.08-1.037,0.24s-0.311,0.348-0.311,0.563c0,0.137,0.043,0.26,0.129,0.369c0.086,0.113,0.221,0.207,0.404,0.281
			c0.105,0.039,0.416,0.129,0.932,0.27c0.746,0.199,1.267,0.362,1.562,0.489s0.526,0.312,0.694,0.554s0.252,0.543,0.252,0.902
			c0,0.352-0.103,0.683-0.308,0.993s-0.501,0.551-0.888,0.721s-0.824,0.255-1.313,0.255c-0.809,0-1.425-0.168-1.849-0.504
			S275.406,150.803,275.289,150.143z"/>
		<path d="M281.289,150.143l1.043-0.164c0.059,0.418,0.222,0.738,0.489,0.961s0.642,0.334,1.122,0.334
			c0.484,0,0.844-0.099,1.078-0.296s0.352-0.429,0.352-0.694c0-0.238-0.104-0.426-0.311-0.563c-0.145-0.094-0.504-0.213-1.078-0.357
			c-0.773-0.195-1.31-0.364-1.608-0.507s-0.525-0.34-0.68-0.592s-0.231-0.53-0.231-0.835c0-0.277,0.063-0.534,0.19-0.771
			s0.3-0.433,0.519-0.589c0.164-0.121,0.388-0.224,0.671-0.308s0.587-0.126,0.911-0.126c0.488,0,0.917,0.07,1.286,0.211
			s0.642,0.331,0.817,0.571s0.297,0.562,0.363,0.964l-1.031,0.141c-0.047-0.32-0.183-0.57-0.407-0.75s-0.542-0.27-0.952-0.27
			c-0.484,0-0.83,0.08-1.037,0.24s-0.311,0.348-0.311,0.563c0,0.137,0.043,0.26,0.129,0.369c0.086,0.113,0.221,0.207,0.404,0.281
			c0.105,0.039,0.416,0.129,0.932,0.27c0.746,0.199,1.267,0.362,1.562,0.489s0.526,0.312,0.694,0.554s0.252,0.543,0.252,0.902
			c0,0.352-0.103,0.683-0.308,0.993s-0.501,0.551-0.888,0.721s-0.824,0.255-1.313,0.255c-0.809,0-1.425-0.168-1.849-0.504
			S281.406,150.803,281.289,150.143z"/>
		<path d="M291.971,149.996l1.09,0.135c-0.172,0.637-0.49,1.131-0.955,1.482s-1.059,0.527-1.781,0.527
			c-0.91,0-1.632-0.28-2.165-0.841s-0.8-1.347-0.8-2.358c0-1.047,0.27-1.859,0.809-2.438s1.238-0.867,2.098-0.867
			c0.832,0,1.512,0.283,2.039,0.85s0.791,1.363,0.791,2.391c0,0.063-0.002,0.156-0.006,0.281h-4.641
			c0.039,0.684,0.232,1.207,0.58,1.57s0.781,0.545,1.301,0.545c0.387,0,0.717-0.102,0.99-0.305S291.811,150.441,291.971,149.996z
			 M288.508,148.291h3.475c-0.047-0.523-0.18-0.916-0.398-1.178c-0.336-0.406-0.771-0.609-1.307-0.609
			c-0.484,0-0.892,0.162-1.222,0.486S288.543,147.748,288.508,148.291z"/>
		<path d="M294.361,152v-8.59h1.055V152H294.361z"/>
		<path d="M303.426,147.764c0-1.016,0.104-1.833,0.313-2.452s0.52-1.097,0.932-1.433s0.931-0.504,1.556-0.504
			c0.461,0,0.865,0.093,1.213,0.278s0.635,0.453,0.861,0.803s0.404,0.775,0.533,1.277s0.193,1.179,0.193,2.03
			c0,1.008-0.104,1.821-0.311,2.44s-0.517,1.098-0.929,1.436s-0.933,0.507-1.562,0.507c-0.828,0-1.479-0.297-1.951-0.891
			C303.709,150.541,303.426,149.377,303.426,147.764z M304.51,147.764c0,1.41,0.165,2.349,0.495,2.815s0.737,0.7,1.222,0.7
			s0.892-0.234,1.222-0.703s0.495-1.406,0.495-2.813c0-1.414-0.165-2.354-0.495-2.818s-0.741-0.697-1.233-0.697
			c-0.484,0-0.871,0.205-1.16,0.615C304.691,145.387,304.51,146.354,304.51,147.764z"/>
		<path d="M310.1,149.75l1.107-0.094c0.082,0.539,0.272,0.944,0.571,1.216s0.659,0.407,1.081,0.407c0.508,0,0.938-0.191,1.289-0.574
			s0.527-0.891,0.527-1.523c0-0.602-0.169-1.076-0.507-1.424s-0.78-0.521-1.327-0.521c-0.34,0-0.646,0.077-0.92,0.231
			s-0.488,0.354-0.645,0.601l-0.99-0.129l0.832-4.412h4.271v1.008h-3.428l-0.463,2.309c0.516-0.359,1.057-0.539,1.623-0.539
			c0.75,0,1.383,0.26,1.898,0.779s0.773,1.188,0.773,2.004c0,0.777-0.227,1.449-0.68,2.016c-0.551,0.695-1.303,1.043-2.256,1.043
			c-0.781,0-1.419-0.219-1.913-0.656S310.17,150.473,310.1,149.75z"/>
		<path d="M316.844,144.535v-1.014h5.561v0.82c-0.547,0.582-1.089,1.355-1.626,2.32s-0.952,1.957-1.245,2.977
			c-0.211,0.719-0.346,1.506-0.404,2.361h-1.084c0.012-0.676,0.145-1.492,0.398-2.449s0.618-1.88,1.093-2.769
			s0.979-1.638,1.515-2.247H316.844z"/>
		<path d="M323.447,149.75l1.107-0.094c0.082,0.539,0.272,0.944,0.571,1.216s0.659,0.407,1.081,0.407
			c0.508,0,0.938-0.191,1.289-0.574s0.527-0.891,0.527-1.523c0-0.602-0.169-1.076-0.507-1.424s-0.78-0.521-1.327-0.521
			c-0.34,0-0.646,0.077-0.92,0.231s-0.488,0.354-0.645,0.601l-0.99-0.129l0.832-4.412h4.271v1.008h-3.428l-0.463,2.309
			c0.516-0.359,1.057-0.539,1.623-0.539c0.75,0,1.383,0.26,1.898,0.779s0.773,1.188,0.773,2.004c0,0.777-0.227,1.449-0.68,2.016
			c-0.551,0.695-1.303,1.043-2.256,1.043c-0.781,0-1.419-0.219-1.913-0.656S323.518,150.473,323.447,149.75z"/>
		<path d="M330.004,149.422v-1.061h3.24v1.061H330.004z"/>
		<path d="M337.498,152v-2.057h-3.727v-0.967l3.92-5.566h0.861v5.566h1.16v0.967h-1.16V152H337.498z M337.498,148.977v-3.873
			l-2.689,3.873H337.498z"/>
		<path d="M340.949,150.014l1.014-0.094c0.086,0.477,0.25,0.822,0.492,1.037s0.553,0.322,0.932,0.322
			c0.324,0,0.608-0.074,0.853-0.223s0.444-0.347,0.601-0.595s0.287-0.583,0.393-1.005s0.158-0.852,0.158-1.289
			c0-0.047-0.002-0.117-0.006-0.211c-0.211,0.336-0.499,0.608-0.864,0.817s-0.761,0.313-1.187,0.313
			c-0.711,0-1.313-0.258-1.805-0.773s-0.738-1.195-0.738-2.039c0-0.871,0.257-1.572,0.771-2.104s1.157-0.797,1.931-0.797
			c0.559,0,1.069,0.15,1.532,0.451s0.814,0.729,1.055,1.286s0.36,1.362,0.36,2.417c0,1.098-0.119,1.972-0.357,2.622
			s-0.593,1.146-1.063,1.485s-1.022,0.51-1.655,0.51c-0.672,0-1.221-0.187-1.646-0.56S341.035,150.689,340.949,150.014z
			 M345.268,146.223c0-0.605-0.161-1.086-0.483-1.441s-0.71-0.533-1.163-0.533c-0.469,0-0.877,0.191-1.225,0.574
			s-0.521,0.879-0.521,1.488c0,0.547,0.165,0.991,0.495,1.333s0.737,0.513,1.222,0.513c0.488,0,0.89-0.171,1.204-0.513
			S345.268,146.828,345.268,146.223z"/>
		<path d="M351.438,152h-1.055v-6.721c-0.254,0.242-0.587,0.484-0.999,0.727s-0.782,0.424-1.11,0.545v-1.02
			c0.59-0.277,1.105-0.613,1.547-1.008s0.754-0.777,0.938-1.148h0.68V152z"/>
		<path d="M354.139,149.75l1.107-0.094c0.082,0.539,0.272,0.944,0.571,1.216s0.659,0.407,1.081,0.407
			c0.508,0,0.938-0.191,1.289-0.574s0.527-0.891,0.527-1.523c0-0.602-0.169-1.076-0.507-1.424s-0.78-0.521-1.327-0.521
			c-0.34,0-0.646,0.077-0.92,0.231s-0.488,0.354-0.645,0.601l-0.99-0.129l0.832-4.412h4.271v1.008h-3.428l-0.463,2.309
			c0.516-0.359,1.057-0.539,1.623-0.539c0.75,0,1.383,0.26,1.898,0.779s0.773,1.188,0.773,2.004c0,0.777-0.227,1.449-0.68,2.016
			c-0.551,0.695-1.303,1.043-2.256,1.043c-0.781,0-1.419-0.219-1.913-0.656S354.209,150.473,354.139,149.75z"/>
		<path d="M362.436,147.342c-0.438-0.16-0.762-0.389-0.973-0.686s-0.316-0.652-0.316-1.066c0-0.625,0.225-1.15,0.674-1.576
			s1.047-0.639,1.793-0.639c0.75,0,1.354,0.218,1.811,0.653s0.686,0.966,0.686,1.591c0,0.398-0.104,0.745-0.313,1.04
			s-0.526,0.522-0.952,0.683c0.527,0.172,0.929,0.449,1.204,0.832s0.413,0.84,0.413,1.371c0,0.734-0.26,1.352-0.779,1.852
			s-1.203,0.75-2.051,0.75s-1.531-0.251-2.051-0.753s-0.779-1.128-0.779-1.878c0-0.559,0.142-1.026,0.425-1.403
			S361.912,147.479,362.436,147.342z M361.885,149.521c0,0.301,0.071,0.592,0.214,0.873s0.354,0.499,0.636,0.653
			s0.584,0.231,0.908,0.231c0.504,0,0.92-0.162,1.248-0.486s0.492-0.736,0.492-1.236c0-0.508-0.169-0.928-0.507-1.26
			s-0.761-0.498-1.269-0.498c-0.496,0-0.907,0.164-1.233,0.492S361.885,149.029,361.885,149.521z M362.225,145.555
			c0,0.406,0.131,0.738,0.393,0.996s0.602,0.387,1.02,0.387c0.406,0,0.739-0.128,0.999-0.384s0.39-0.569,0.39-0.94
			c0-0.387-0.134-0.712-0.401-0.976s-0.601-0.396-0.999-0.396c-0.402,0-0.736,0.129-1.002,0.387S362.225,145.195,362.225,145.555z"
			/>
		<path d="M370.867,152v-2.057h-3.727v-0.967l3.92-5.566h0.861v5.566h1.16v0.967h-1.16V152H370.867z M370.867,148.977v-3.873
			l-2.689,3.873H370.867z"/>
		<path d="M381.127,144.623v-1.213h1.055v1.213H381.127z M381.127,152v-6.223h1.055V152H381.127z"/>
		<path d="M383.787,152v-6.223h0.949v0.885c0.457-0.684,1.117-1.025,1.98-1.025c0.375,0,0.72,0.067,1.034,0.202
			s0.55,0.312,0.706,0.53s0.266,0.479,0.328,0.779c0.039,0.195,0.059,0.537,0.059,1.025V152h-1.055v-3.785
			c0-0.43-0.041-0.751-0.123-0.964s-0.228-0.383-0.437-0.51s-0.454-0.19-0.735-0.19c-0.449,0-0.837,0.143-1.163,0.428
			s-0.489,0.826-0.489,1.623V152H383.787z"/>
		<path d="M390.713,152v-5.402h-0.932v-0.82h0.932v-0.662c0-0.418,0.037-0.729,0.111-0.932c0.102-0.273,0.28-0.495,0.536-0.665
			s0.614-0.255,1.075-0.255c0.297,0,0.625,0.035,0.984,0.105l-0.158,0.92c-0.219-0.039-0.426-0.059-0.621-0.059
			c-0.32,0-0.547,0.068-0.68,0.205s-0.199,0.393-0.199,0.768v0.574h1.213v0.82h-1.213V152H390.713z"/>
		<path d="M393.402,148.889c0-1.152,0.32-2.006,0.961-2.561c0.535-0.461,1.188-0.691,1.957-0.691c0.855,0,1.555,0.28,2.098,0.841
			s0.814,1.335,0.814,2.323c0,0.801-0.12,1.431-0.36,1.89s-0.59,0.815-1.049,1.069s-0.96,0.381-1.503,0.381
			c-0.871,0-1.575-0.279-2.112-0.838S393.402,149.939,393.402,148.889z M394.486,148.889c0,0.797,0.174,1.394,0.521,1.79
			s0.785,0.595,1.313,0.595c0.523,0,0.959-0.199,1.307-0.598s0.521-1.006,0.521-1.822c0-0.77-0.175-1.353-0.524-1.749
			s-0.784-0.595-1.304-0.595c-0.527,0-0.965,0.197-1.313,0.592S394.486,148.092,394.486,148.889z"/>
		<path d="M406.48,151.045c-0.254,0.293-0.538,0.528-0.853,0.706s-0.63,0.267-0.946,0.267c-0.348,0-0.686-0.102-1.014-0.305
			s-0.595-0.516-0.8-0.938s-0.308-0.885-0.308-1.389c0-0.621,0.159-1.243,0.478-1.866s0.714-1.091,1.187-1.403
			s0.932-0.469,1.377-0.469c0.34,0,0.664,0.089,0.973,0.267s0.574,0.448,0.797,0.812l0.199-0.908h1.049l-0.844,3.932
			c-0.117,0.547-0.176,0.85-0.176,0.908c0,0.105,0.04,0.196,0.12,0.272s0.177,0.114,0.29,0.114c0.207,0,0.479-0.119,0.814-0.357
			c0.445-0.313,0.798-0.731,1.058-1.257s0.39-1.067,0.39-1.626c0-0.652-0.167-1.262-0.501-1.828s-0.832-1.02-1.494-1.359
			s-1.394-0.51-2.194-0.51c-0.914,0-1.749,0.214-2.505,0.642s-1.342,1.041-1.758,1.84s-0.624,1.655-0.624,2.569
			c0,0.957,0.208,1.781,0.624,2.473s1.018,1.202,1.805,1.532s1.659,0.495,2.616,0.495c1.023,0,1.881-0.172,2.572-0.516
			s1.209-0.762,1.553-1.254h1.061c-0.199,0.41-0.541,0.828-1.025,1.254s-1.061,0.763-1.729,1.011s-1.473,0.372-2.414,0.372
			c-0.867,0-1.667-0.111-2.399-0.334s-1.356-0.558-1.872-1.005s-0.904-0.962-1.166-1.544c-0.328-0.738-0.492-1.535-0.492-2.391
			c0-0.953,0.195-1.861,0.586-2.725c0.477-1.059,1.153-1.869,2.03-2.432s1.94-0.844,3.19-0.844c0.969,0,1.839,0.198,2.61,0.595
			s1.38,0.987,1.825,1.772c0.379,0.676,0.568,1.41,0.568,2.203c0,1.133-0.398,2.139-1.195,3.018
			c-0.711,0.789-1.488,1.184-2.332,1.184c-0.27,0-0.487-0.041-0.653-0.123s-0.288-0.199-0.366-0.352
			C406.541,151.451,406.504,151.283,406.48,151.045z M403.645,149.457c0,0.535,0.127,0.951,0.381,1.248s0.545,0.445,0.873,0.445
			c0.219,0,0.449-0.065,0.691-0.196s0.474-0.325,0.694-0.583s0.401-0.585,0.542-0.981s0.211-0.794,0.211-1.192
			c0-0.531-0.132-0.943-0.396-1.236s-0.585-0.439-0.964-0.439c-0.25,0-0.485,0.063-0.706,0.19s-0.435,0.331-0.642,0.612
			s-0.373,0.623-0.498,1.025S403.645,149.121,403.645,149.457z"/>
		<path d="M413.623,152h-0.979v-8.59h1.055v3.064c0.445-0.559,1.014-0.838,1.705-0.838c0.383,0,0.745,0.077,1.087,0.231
			s0.623,0.371,0.844,0.65s0.394,0.616,0.519,1.011s0.188,0.816,0.188,1.266c0,1.066-0.264,1.891-0.791,2.473
			s-1.16,0.873-1.898,0.873c-0.734,0-1.311-0.307-1.729-0.92V152z M413.611,148.842c0,0.746,0.102,1.285,0.305,1.617
			c0.332,0.543,0.781,0.814,1.348,0.814c0.461,0,0.859-0.2,1.195-0.601s0.504-0.997,0.504-1.79c0-0.813-0.161-1.412-0.483-1.799
			s-0.712-0.58-1.169-0.58c-0.461,0-0.859,0.2-1.195,0.601S413.611,148.084,413.611,148.842z"/>
		<path d="M423.584,149.996l1.09,0.135c-0.172,0.637-0.49,1.131-0.955,1.482s-1.059,0.527-1.781,0.527
			c-0.91,0-1.632-0.28-2.165-0.841s-0.8-1.347-0.8-2.358c0-1.047,0.27-1.859,0.809-2.438s1.238-0.867,2.098-0.867
			c0.832,0,1.512,0.283,2.039,0.85s0.791,1.363,0.791,2.391c0,0.063-0.002,0.156-0.006,0.281h-4.641
			c0.039,0.684,0.232,1.207,0.58,1.57s0.781,0.545,1.301,0.545c0.387,0,0.717-0.102,0.99-0.305S423.424,150.441,423.584,149.996z
			 M420.121,148.291h3.475c-0.047-0.523-0.18-0.916-0.398-1.178c-0.336-0.406-0.771-0.609-1.307-0.609
			c-0.484,0-0.892,0.162-1.222,0.486S420.156,147.748,420.121,148.291z"/>
		<path d="M430.059,149.721l1.037,0.135c-0.113,0.715-0.403,1.274-0.87,1.679s-1.04,0.606-1.72,0.606
			c-0.852,0-1.536-0.278-2.054-0.835s-0.776-1.354-0.776-2.394c0-0.672,0.111-1.26,0.334-1.764s0.562-0.882,1.017-1.134
			s0.95-0.378,1.485-0.378c0.676,0,1.229,0.171,1.658,0.513s0.705,0.827,0.826,1.456l-1.025,0.158
			c-0.098-0.418-0.271-0.732-0.519-0.943s-0.548-0.316-0.899-0.316c-0.531,0-0.963,0.19-1.295,0.571s-0.498,0.983-0.498,1.808
			c0,0.836,0.16,1.443,0.48,1.822s0.738,0.568,1.254,0.568c0.414,0,0.76-0.127,1.037-0.381S429.984,150.248,430.059,149.721z"/>
		<path d="M431.998,152v-8.59h1.055v3.082c0.492-0.57,1.113-0.855,1.863-0.855c0.461,0,0.861,0.091,1.201,0.272
			s0.583,0.433,0.729,0.753s0.22,0.785,0.22,1.395V152h-1.055v-3.943c0-0.527-0.114-0.911-0.343-1.151s-0.552-0.36-0.97-0.36
			c-0.313,0-0.606,0.081-0.882,0.243s-0.472,0.382-0.589,0.659s-0.176,0.66-0.176,1.148V152H431.998z"/>
		<path d="M440.975,151.057l0.152,0.932c-0.297,0.063-0.563,0.094-0.797,0.094c-0.383,0-0.68-0.061-0.891-0.182
			s-0.359-0.28-0.445-0.478s-0.129-0.612-0.129-1.245v-3.58h-0.773v-0.82h0.773v-1.541l1.049-0.633v2.174h1.061v0.82h-1.061v3.639
			c0,0.301,0.019,0.494,0.056,0.58s0.098,0.154,0.182,0.205s0.204,0.076,0.36,0.076
			C440.629,151.098,440.783,151.084,440.975,151.057z"/>
		<path d="M441.982,152v-8.59h1.055V152H441.982z"/>
		<path d="M448.932,149.996l1.09,0.135c-0.172,0.637-0.49,1.131-0.955,1.482s-1.059,0.527-1.781,0.527
			c-0.91,0-1.632-0.28-2.165-0.841s-0.8-1.347-0.8-2.358c0-1.047,0.27-1.859,0.809-2.438s1.238-0.867,2.098-0.867
			c0.832,0,1.512,0.283,2.039,0.85s0.791,1.363,0.791,2.391c0,0.063-0.002,0.156-0.006,0.281h-4.641
			c0.039,0.684,0.232,1.207,0.58,1.57s0.781,0.545,1.301,0.545c0.387,0,0.717-0.102,0.99-0.305S448.771,150.441,448.932,149.996z
			 M445.469,148.291h3.475c-0.047-0.523-0.18-0.916-0.398-1.178c-0.336-0.406-0.771-0.609-1.307-0.609
			c-0.484,0-0.892,0.162-1.222,0.486S445.504,147.748,445.469,148.291z"/>
		<path d="M450.936,149.422v-1.061h3.24v1.061H450.936z"/>
		<path d="M455.148,152.516l1.025,0.152c0.043,0.316,0.162,0.547,0.357,0.691c0.262,0.195,0.619,0.293,1.072,0.293
			c0.488,0,0.865-0.098,1.131-0.293s0.445-0.469,0.539-0.82c0.055-0.215,0.08-0.666,0.076-1.354
			c-0.461,0.543-1.035,0.814-1.723,0.814c-0.855,0-1.518-0.309-1.986-0.926s-0.703-1.357-0.703-2.221
			c0-0.594,0.107-1.142,0.322-1.644s0.526-0.89,0.935-1.163s0.888-0.41,1.438-0.41c0.734,0,1.34,0.297,1.816,0.891v-0.75h0.973
			v5.379c0,0.969-0.099,1.655-0.296,2.06s-0.51,0.724-0.938,0.958s-0.954,0.352-1.579,0.352c-0.742,0-1.342-0.167-1.799-0.501
			S455.133,153.188,455.148,152.516z M456.021,148.777c0,0.816,0.162,1.412,0.486,1.787s0.73,0.563,1.219,0.563
			c0.484,0,0.891-0.187,1.219-0.56s0.492-0.958,0.492-1.755c0-0.762-0.169-1.336-0.507-1.723s-0.745-0.58-1.222-0.58
			c-0.469,0-0.867,0.19-1.195,0.571S456.021,148.027,456.021,148.777z"/>
		<path d="M461.623,148.889c0-1.152,0.32-2.006,0.961-2.561c0.535-0.461,1.188-0.691,1.957-0.691c0.855,0,1.555,0.28,2.098,0.841
			s0.814,1.335,0.814,2.323c0,0.801-0.12,1.431-0.36,1.89s-0.59,0.815-1.049,1.069s-0.96,0.381-1.503,0.381
			c-0.871,0-1.575-0.279-2.112-0.838S461.623,149.939,461.623,148.889z M462.707,148.889c0,0.797,0.174,1.394,0.521,1.79
			s0.785,0.595,1.313,0.595c0.523,0,0.959-0.199,1.307-0.598s0.521-1.006,0.521-1.822c0-0.77-0.175-1.353-0.524-1.749
			s-0.784-0.595-1.304-0.595c-0.527,0-0.965,0.197-1.313,0.592S462.707,148.092,462.707,148.889z"/>
		<path d="M468.678,152v-6.223h0.949v0.943c0.242-0.441,0.466-0.732,0.671-0.873s0.431-0.211,0.677-0.211
			c0.355,0,0.717,0.113,1.084,0.34l-0.363,0.979c-0.258-0.152-0.516-0.229-0.773-0.229c-0.23,0-0.438,0.069-0.621,0.208
			s-0.314,0.331-0.393,0.577c-0.117,0.375-0.176,0.785-0.176,1.23V152H468.678z"/>
		<path d="M472.264,150.143l1.043-0.164c0.059,0.418,0.222,0.738,0.489,0.961s0.642,0.334,1.122,0.334
			c0.484,0,0.844-0.099,1.078-0.296s0.352-0.429,0.352-0.694c0-0.238-0.104-0.426-0.311-0.563c-0.145-0.094-0.504-0.213-1.078-0.357
			c-0.773-0.195-1.31-0.364-1.608-0.507s-0.525-0.34-0.68-0.592s-0.231-0.53-0.231-0.835c0-0.277,0.063-0.534,0.19-0.771
			s0.3-0.433,0.519-0.589c0.164-0.121,0.388-0.224,0.671-0.308s0.587-0.126,0.911-0.126c0.488,0,0.917,0.07,1.286,0.211
			s0.642,0.331,0.817,0.571s0.297,0.562,0.363,0.964l-1.031,0.141c-0.047-0.32-0.183-0.57-0.407-0.75s-0.542-0.27-0.952-0.27
			c-0.484,0-0.83,0.08-1.037,0.24s-0.311,0.348-0.311,0.563c0,0.137,0.043,0.26,0.129,0.369c0.086,0.113,0.221,0.207,0.404,0.281
			c0.105,0.039,0.416,0.129,0.932,0.27c0.746,0.199,1.267,0.362,1.562,0.489s0.526,0.312,0.694,0.554s0.252,0.543,0.252,0.902
			c0,0.352-0.103,0.683-0.308,0.993s-0.501,0.551-0.888,0.721s-0.824,0.255-1.313,0.255c-0.809,0-1.425-0.168-1.849-0.504
			S472.381,150.803,472.264,150.143z"/>
		<path d="M478.264,150.143l1.043-0.164c0.059,0.418,0.222,0.738,0.489,0.961s0.642,0.334,1.122,0.334
			c0.484,0,0.844-0.099,1.078-0.296s0.352-0.429,0.352-0.694c0-0.238-0.104-0.426-0.311-0.563c-0.145-0.094-0.504-0.213-1.078-0.357
			c-0.773-0.195-1.31-0.364-1.608-0.507s-0.525-0.34-0.68-0.592s-0.231-0.53-0.231-0.835c0-0.277,0.063-0.534,0.19-0.771
			s0.3-0.433,0.519-0.589c0.164-0.121,0.388-0.224,0.671-0.308s0.587-0.126,0.911-0.126c0.488,0,0.917,0.07,1.286,0.211
			s0.642,0.331,0.817,0.571s0.297,0.562,0.363,0.964l-1.031,0.141c-0.047-0.32-0.183-0.57-0.407-0.75s-0.542-0.27-0.952-0.27
			c-0.484,0-0.83,0.08-1.037,0.24s-0.311,0.348-0.311,0.563c0,0.137,0.043,0.26,0.129,0.369c0.086,0.113,0.221,0.207,0.404,0.281
			c0.105,0.039,0.416,0.129,0.932,0.27c0.746,0.199,1.267,0.362,1.562,0.489s0.526,0.312,0.694,0.554s0.252,0.543,0.252,0.902
			c0,0.352-0.103,0.683-0.308,0.993s-0.501,0.551-0.888,0.721s-0.824,0.255-1.313,0.255c-0.809,0-1.425-0.168-1.849-0.504
			S478.381,150.803,478.264,150.143z"/>
		<path d="M488.945,149.996l1.09,0.135c-0.172,0.637-0.49,1.131-0.955,1.482s-1.059,0.527-1.781,0.527
			c-0.91,0-1.632-0.28-2.165-0.841s-0.8-1.347-0.8-2.358c0-1.047,0.27-1.859,0.809-2.438s1.238-0.867,2.098-0.867
			c0.832,0,1.512,0.283,2.039,0.85s0.791,1.363,0.791,2.391c0,0.063-0.002,0.156-0.006,0.281h-4.641
			c0.039,0.684,0.232,1.207,0.58,1.57s0.781,0.545,1.301,0.545c0.387,0,0.717-0.102,0.99-0.305S488.785,150.441,488.945,149.996z
			 M485.482,148.291h3.475c-0.047-0.523-0.18-0.916-0.398-1.178c-0.336-0.406-0.771-0.609-1.307-0.609
			c-0.484,0-0.892,0.162-1.222,0.486S485.518,147.748,485.482,148.291z"/>
		<path d="M491.336,152v-8.59h1.055V152H491.336z"/>
		<path d="M494.324,152v-1.201h1.201V152H494.324z"/>
		<path d="M497.359,152v-6.223h0.949v0.885c0.457-0.684,1.117-1.025,1.98-1.025c0.375,0,0.72,0.067,1.034,0.202
			s0.55,0.312,0.706,0.53s0.266,0.479,0.328,0.779c0.039,0.195,0.059,0.537,0.059,1.025V152h-1.055v-3.785
			c0-0.43-0.041-0.751-0.123-0.964s-0.228-0.383-0.437-0.51s-0.454-0.19-0.735-0.19c-0.449,0-0.837,0.143-1.163,0.428
			s-0.489,0.826-0.489,1.623V152H497.359z"/>
		<path d="M504.01,152v-8.59h1.055V152H504.01z"/>
	</g>
	<rect x="2.932" y="3.658" width="108.018" height="150.342"/>
	<polygon fill="#FFFFFF" points="57.049,22.778 47.678,22.778 47.678,18.895 61.67,18.895 61.67,65.224 57.049,65.224 	"/>
	<path fill="#FFFFFF" d="M69.532,40.757v-4.135h21.805v3.249l-0.684,0.89L69.532,40.757z M91.575,61.086v4.137H68.351v-3.015
		l0.874-1.138L91.575,61.086z M71.985,57.479c0,0,9.307-12.111,9.306-12.111c0.284-0.346,0.56-0.683,0.831-1.013h5.767
		l-9.375,12.181c-0.243,0.318-0.486,0.632-0.73,0.943H71.985z"/>
	<path fill="#FFFFFF" d="M100.114,65.223c-2.222,0-4.075-1.852-4.075-4.073c0-2.223,1.854-4.075,4.075-4.075
		c2.225,0,4.076,1.852,4.076,4.075C104.19,63.371,102.339,65.223,100.114,65.223"/>
	<rect x="9.58" y="78.748" fill="#FFD400" width="6.306" height="75.252"/>
	<rect x="22.193" y="78.747" fill="#F58220" width="6.31" height="75.253"/>
	<rect x="34.807" y="78.747" fill="#ED1C24" width="6.31" height="75.253"/>
	<rect x="47.422" y="78.747" fill="#EC008C" width="6.308" height="75.253"/>
	<rect x="60.037" y="78.748" fill="#5F469C" width="6.308" height="75.252"/>
	<rect x="72.651" y="78.748" fill="#0092D7" width="6.31" height="75.252"/>
	<rect x="85.269" y="78.748" fill="#50B848" width="6.306" height="75.252"/>
	<rect x="97.88" y="78.747" fill="#E2E41A" width="6.31" height="75.253"/>
	<g opacity="0.56">
		<g>
			<defs>
				<rect id="SVGID_6_" x="4.818" y="116.354" width="104.459" height="37.646"/>
			</defs>
			<clipPath id="SVGID_1_">
				<use xlink:href="#SVGID_6_"  overflow="visible"/>
			</clipPath>
			<g clip-path="url(#SVGID_1_)">
				<defs>
					<rect id="SVGID_8_" x="4.818" y="116.354" width="104.46" height="37.646"/>
				</defs>
				<clipPath id="SVGID_2_">
					<use xlink:href="#SVGID_8_"  overflow="visible"/>
				</clipPath>
			</g>
		</g>
	</g>
	
		<linearGradient id="SVGID_3_" gradientUnits="userSpaceOnUse" x1="-287.7876" y1="501.332" x2="-287.2773" y2="501.332" gradientTransform="matrix(0 73.7949 73.7949 0 -36938.7031 21353.6445)">
		<stop  offset="0" style="stop-color:#000000;stop-opacity:0"/>
		<stop  offset="0.0273" style="stop-color:#000000;stop-opacity:0.0273"/>
		<stop  offset="0.1396" style="stop-color:#000000;stop-opacity:0.1396"/>
		<stop  offset="0.2556" style="stop-color:#000000;stop-opacity:0.2556"/>
		<stop  offset="0.3727" style="stop-color:#000000;stop-opacity:0.3727"/>
		<stop  offset="0.4912" style="stop-color:#000000;stop-opacity:0.4912"/>
		<stop  offset="0.6116" style="stop-color:#000000;stop-opacity:0.6116"/>
		<stop  offset="0.7346" style="stop-color:#000000;stop-opacity:0.7346"/>
		<stop  offset="0.8618" style="stop-color:#000000;stop-opacity:0.8618"/>
		<stop  offset="1" style="stop-color:#000000"/>
	</linearGradient>
	<rect x="4.818" y="116.354" fill="url(#SVGID_3_)" width="104.461" height="37.646"/>
	<rect x="21.916" y="20.832" fill="#FFFFFF" width="4.623" height="44.391"/>
	<path fill="#FFFFFF" d="M31.029,61.339h3.297c4.067,0,8.139-2.404,8.139-7.952c0-4.932-3.087-9.31-10.111-9.31h-1.325l0.001-3.884
		h0.89c4.132,0,8.633-3.021,8.633-8.323c0-7.336-6.167-7.151-9.002-7.151h-0.522v-3.884h0.215c5.116,0,13.93,0.616,13.93,11.221
		c0,4.253-2.215,7.519-5.855,9.554c5.056,2.466,7.767,5.795,7.767,11.529c0,6.473-4.685,12.083-12.453,12.083H31.03L31.029,61.339z"
		/>
</g>
<g id="Layer_3">
	<polyline fill-rule="evenodd" clip-rule="evenodd" points="199.475,32.429 199.913,32.617 201.102,33.18 203.105,33.994 
		205.733,35.057 209.05,36.247 212.743,37.75 216.999,39.314 221.567,41.003 226.574,42.818 231.894,44.508 237.402,46.135 
		243.035,47.826 248.667,49.328 254.488,50.642 260.121,51.706 265.629,52.645 264.69,55.398 262.249,62.721 258.869,73.547 
		254.926,86.316 250.983,100.335 247.479,114.229 244.85,126.747 243.661,136.447 243.348,136.322 242.722,136.01 241.658,135.571 
		240.155,134.945 238.153,134.194 235.899,133.255 233.271,132.192 230.393,131.002 227.2,129.626 223.695,128.249 220.003,126.747 
		216.06,125.182 211.804,123.367 207.673,121.677 203.292,119.862 198.536,118.048 193.841,116.045 189.085,114.229 
		184.204,112.227 179.322,110.286 174.315,108.284 169.496,106.28 164.614,104.466 159.732,102.464 155.039,100.648 150.281,98.833 
		145.9,97.143 141.457,95.454 137.201,93.827 133.195,92.449 129.44,90.884 125.748,89.695 126.499,89.195 128.501,88.131 
		131.693,86.316 135.824,83.75 140.832,80.87 146.464,77.491 152.597,73.547 158.981,69.229 165.365,64.849 171.749,60.281 
		177.945,55.398 183.766,50.642 188.96,45.822 193.529,41.254 197.034,36.685 	"/>
	<polyline fill-rule="evenodd" clip-rule="evenodd" fill="#FFFFFF" points="203.418,36.109 203.718,36.315 204.842,36.59 
		206.491,37.276 208.888,38.101 211.436,39.131 214.734,40.3 218.555,41.605 222.752,42.979 227.098,44.491 231.819,45.934 
		236.765,47.445 242.085,48.957 247.331,50.262 252.651,51.773 258.122,52.942 263.442,54.11 262.543,56.652 260.295,63.316 
		257.223,73.21 253.401,84.891 249.729,97.602 246.432,109.969 243.884,120.894 242.835,129.207 241.86,128.932 239.313,127.901 
		235.491,126.39 230.246,124.397 223.801,122.061 216.682,119.176 208.888,116.221 200.271,112.991 191.128,109.694 
		182.061,106.121 172.918,102.823 163.852,99.456 155.083,96.433 146.916,93.411 139.197,90.73 132.453,88.601 133.052,88.258 
		134.851,87.227 137.773,85.577 141.595,83.241 146.017,80.563 151.112,77.539 156.583,74.035 162.577,70.188 168.573,66.133 
		174.567,61.805 180.413,57.477 186.033,53.148 191.353,48.612 196.074,44.285 200.121,40.163 	"/>
	<polyline fill-rule="evenodd" clip-rule="evenodd" fill="#FFFFFF" points="170.436,28.162 188.526,78.455 153.689,34.602 	"/>
	<polyline fill-rule="evenodd" clip-rule="evenodd" fill="#FFFFFF" points="187.363,29.112 186.742,28.236 185.866,27.542 
		184.88,26.812 183.749,26.301 182.397,25.753 180.973,25.388 179.367,25.133 177.76,24.877 176.008,24.768 174.255,24.768 
		172.393,24.95 170.421,25.133 168.486,25.388 166.514,25.826 164.469,26.374 162.535,26.995 160.636,27.725 158.956,28.419 
		157.276,29.222 155.852,30.098 154.501,31.083 153.26,31.961 152.311,32.947 151.397,34.005 150.594,34.991 150.083,36.05 
		149.718,37.036 149.462,38.095 149.462,39.081 149.536,40.066 149.9,41.052 150.412,41.928 151.142,42.731 152.019,43.535 
		153.004,44.156 154.173,44.777 155.414,45.215 156.838,45.653 158.262,45.945 159.832,46.128 161.439,46.274 163.155,46.274 
		164.908,46.201 166.697,46.019 168.486,45.763 170.348,45.325 172.21,44.85 174.073,44.229 175.898,43.535 177.688,42.804 
		179.294,41.928 180.9,41.125 182.325,40.139 183.566,39.19 184.698,38.205 185.684,37.219 186.487,36.16 187.181,35.101 
		187.655,34.115 187.984,33.056 188.167,31.961 188.094,31.011 187.838,30.025 	"/>
	<polyline fill-rule="evenodd" clip-rule="evenodd" fill="#FFFFFF" points="156.911,35.43 143.839,16.588 143.583,16.588 
		142.963,16.515 141.977,16.333 140.736,15.968 139.494,15.419 138.253,14.543 137.084,13.375 136.208,11.878 136.099,11.623 
		136.026,11.002 136.099,9.906 136.646,8.665 137.705,7.168 139.677,5.561 142.708,3.881 146.943,2.275 147.053,2.275 
		147.491,2.203 148.039,2.02 148.842,1.91 149.718,1.728 150.777,1.582 151.945,1.399 153.187,1.29 154.428,1.216 155.743,1.107 
		157.021,1.216 158.262,1.29 159.504,1.472 160.636,1.837 161.622,2.275 162.535,2.823 162.68,3.005 163.228,3.516 163.776,4.319 
		164.396,5.306 164.834,6.365 165.017,7.424 164.652,8.41 163.776,9.286 178.308,29.404 	"/>
	<polyline fill-rule="evenodd" clip-rule="evenodd" points="175.642,39.446 187.911,67.962 168.048,42.366 	"/>
	<polyline fill-rule="evenodd" clip-rule="evenodd" points="185.611,29.77 184.99,29.039 184.26,28.346 183.383,27.798 
		182.325,27.25 181.156,26.922 179.915,26.557 178.491,26.374 176.957,26.191 175.497,26.119 173.89,26.119 172.21,26.301 
		170.421,26.447 168.669,26.739 166.879,27.177 165.09,27.615 163.301,28.163 161.622,28.784 160.015,29.478 158.518,30.208 
		157.167,31.011 155.925,31.814 154.866,32.691 153.88,33.567 153.077,34.48 152.384,35.356 151.836,36.233 151.507,37.146 
		151.215,38.022 151.142,38.898 151.325,39.811 151.58,40.614 152.019,41.417 152.64,42.111 153.369,42.804 154.246,43.353 
		155.305,43.791 156.4,44.229 157.642,44.594 158.956,44.85 160.38,44.959 161.804,45.033 163.301,45.033 164.908,44.959 
		166.624,44.777 168.194,44.521 169.91,44.156 171.59,43.717 173.269,43.17 174.949,42.549 176.519,41.855 178.052,41.125 
		179.477,40.322 180.718,39.446 181.85,38.643 182.945,37.767 183.821,36.854 184.625,35.903 185.246,34.991 185.793,34.115 
		186.049,33.129 186.231,32.252 186.231,31.449 185.939,30.536 	"/>
	<polyline fill-rule="evenodd" clip-rule="evenodd" points="157.276,33.312 145.263,15.603 145.008,15.603 144.387,15.529 
		143.401,15.347 142.232,14.982 140.991,14.543 139.859,13.923 138.874,13.047 138.143,11.988 138.07,11.805 137.96,11.185 
		137.96,10.199 138.435,9.03 139.385,7.606 141.174,6.182 143.839,4.685 147.746,3.151 148.185,3.078 149.28,2.896 150.959,2.641 
		153.004,2.458 155.231,2.458 157.459,2.641 159.504,3.151 161.183,4.064 161.366,4.247 161.731,4.575 162.169,5.197 162.607,5.926 
		162.863,6.803 162.863,7.716 162.352,8.592 161.366,9.468 175.497,28.236 	"/>
	<polyline fill-rule="evenodd" clip-rule="evenodd" fill="#6982BC" points="153.26,37.219 153.369,37.146 153.552,36.781 
		153.88,36.233 154.428,35.612 155.049,34.809 155.925,34.005 157.021,33.056 158.262,32.143 159.759,31.157 161.439,30.28 
		163.484,29.478 165.711,28.674 168.194,28.053 170.969,27.615 174.073,27.36 177.432,27.36 177.249,27.36 176.702,27.433 
		175.825,27.542 174.693,27.798 173.379,27.98 171.772,28.346 170.092,28.784 168.194,29.222 166.259,29.844 164.214,30.536 
		162.242,31.34 160.197,32.252 158.335,33.312 156.473,34.48 154.793,35.795 	"/>
	<polyline fill-rule="evenodd" clip-rule="evenodd" fill="#6982BC" points="158.335,29.404 158.59,29.222 159.321,28.784 
		160.49,28.236 162.06,27.542 163.849,26.812 165.894,26.301 168.121,25.826 170.531,25.681 157.532,9.03 157.094,9.03 
		156.035,9.03 154.501,9.14 152.749,9.395 150.777,9.906 149.097,10.709 147.673,11.805 146.797,13.302 	"/>
	<polyline fill-rule="evenodd" clip-rule="evenodd" points="162.242,25.936 168.742,24.768 157.35,9.833 150.705,11.002 
		156.838,11.805 153.369,13.485 158.153,13.741 154.793,15.419 159.759,15.603 156.546,17.209 161.183,17.574 157.642,19.254 
		162.68,19.254 159.211,21.226 164.214,21.299 160.563,23.088 165.346,23.343 	"/>
	<polyline fill-rule="evenodd" clip-rule="evenodd" fill="#6982BC" points="139.933,11.623 140.005,11.695 140.297,11.988 
		140.736,12.317 141.357,12.754 141.977,13.12 142.781,13.485 143.657,13.667 144.569,13.667 144.569,13.375 144.569,12.682 
		144.898,11.695 145.702,10.564 147.053,9.395 149.28,8.337 152.384,7.534 156.729,7.168 156.546,7.168 156.217,6.986 
		155.487,6.803 154.684,6.621 153.625,6.474 152.457,6.365 151.142,6.182 149.792,6.182 148.367,6.292 146.943,6.474 145.519,6.803 
		144.204,7.351 142.854,8.044 141.722,8.957 140.736,10.199 	"/>
	<polyline fill-rule="evenodd" clip-rule="evenodd" fill="#FFFFFF" points="158.956,27.25 158.59,26.922 157.715,26.009 
		156.4,24.695 154.866,22.905 153.077,20.788 151.397,18.378 149.9,15.785 148.659,13.229 148.987,13.485 149.792,14.288 
		151.033,15.419 152.64,17.136 154.246,19.182 156.035,21.554 157.642,24.33 	"/>
	<polyline fill-rule="evenodd" clip-rule="evenodd" points="168.376,38.095 168.304,38.277 168.121,38.643 168.304,39.008 
		169.106,39.263 171.151,38.57 171.225,38.387 171.334,38.095 171.225,37.767 170.604,37.474 170.421,37.474 169.91,37.474 
		169.18,37.657 	"/>
	<polyline fill-rule="evenodd" clip-rule="evenodd" fill="#FFFFFF" points="181.521,56.936 168.486,38.898 168.559,38.715 
		168.742,38.277 169.289,37.949 170.166,37.657 	"/>
	<polyline fill-rule="evenodd" clip-rule="evenodd" fill="#FFFFFF" points="141.101,11.44 141.284,11.623 141.722,11.988 
		142.525,12.426 143.657,12.754 143.583,12.426 143.474,11.44 143.657,10.199 144.46,8.774 144.387,8.774 144.022,8.848 
		143.583,9.03 143.036,9.286 142.525,9.651 141.904,10.089 141.43,10.709 	"/>
	<polyline fill-rule="evenodd" clip-rule="evenodd" fill="#BCBEC0" points="186.742,65.296 223.84,55.585 211.645,52.042 	"/>
	<polyline fill-rule="evenodd" clip-rule="evenodd" fill="#FFFFFF" points="187.107,64.75 184.88,65.991 188.276,68.292 	"/>
	<polyline fill-rule="evenodd" clip-rule="evenodd" fill="#E6E7E8" points="138.912,84.982 243.82,122.593 242.511,130.401 
		131.853,89.1 	"/>
	<g>
		<path fill="#A90533" d="M256.179,77.527c-9.094-0.083-11.129-0.933-11.139-4.57c-0.009-3.53,2.232-5.355,11.208-9.231
			c13.464-5.707,20.295-11.502,20.28-17.173c-0.014-4.814-3.876-8.654-8.797-8.641c-7.703,0.021-17.315,5.824-27.343,16.443
			c-6.934,7.293-15.25,17.479-20.898,25.625c-2.984,4.287-5.007,7.717-9.159,15.431c-1.703,3.215-2.664,4.18-4.268,4.184
			c-1.284,0.003-2.785-1.17-4.289-3.197c-1.611-2.35-2.365-4.381-2.372-6.627c-0.014-5.135,2.755-9.636,11.397-18.218
			c3.414-3.54,5.762-5.579,8.538-7.726c4.255-8.784,5.528-12.746,5.515-17.774c-0.013-4.493-0.982-6.844-3.876-8.976
			c-1.072-0.747-1.287-1.066-1.395-1.601c-0.001-0.428,0.425-0.857,0.96-0.859c3.531-0.01,6.756,5.865,6.773,12.07
			c0.012,4.172-0.835,7.384-3.386,13.703c9.5-7.836,15.906-12.347,24.345-17.291c10.361-6.019,16.025-8.067,22.658-8.085
			c7.167-0.02,11.457,3.392,11.472,9.062c0.02,6.847-4.997,11.46-21.449,19.743c-1.175,0.645-1.816,1.075-1.815,1.289
			c0.001,0.321,0.322,0.534,0.964,0.426c0.214-0.001-0.749,0.001,7.168,0.301c0.642,0.105,2.89,0.313,5.886,0.626
			c7.812,0.728,10.595,1.469,13.703,3.386c3.858,2.451,5.792,5.761,5.804,9.826c0.001,0.75,0.003,1.391-0.208,2.676
			c4.067,0.311,4.602,0.522,4.604,1.271c0.001,0.534-1.067,0.966-2.137,0.861l-1.712-0.102c-0.214,0-0.642,0.001-1.283,0.109
			c-2.658,5.999-6.819,10.29-14.936,15.341c-11.642,7.199-25.644,11.73-36.663,11.761c-7.917,0.021-13.594-2.744-13.605-6.702
			c-0.013-4.814,6.288-8.791,21.787-13.647c5.345-1.619,13.897-3.889,23.199-5.947c4.598-0.976,6.522-1.408,10.693-1.955
			c-0.861-2.138-1.934-3.098-4.397-4.053c-2.142-0.743-7.172-1.479-11.987-1.572l-3.208,0.01l-3.317-0.099L256.179,77.527z
			 M282.624,85.05c-5.025,0.55-8.982,1.309-15.184,2.931c-25.336,6.489-33.35,10.255-33.335,15.925
			c0.009,3.209,3.01,5.234,7.824,5.221c7.489-0.021,16.896-2.829,26.511-7.989c9.721-5.162,14.416-9.774,14.403-14.269
			c0,0-0.001-0.534-0.11-1.177L282.624,85.05z"/>
	</g>
	<g>
		<path fill="#00539F" d="M311.027,100.171c0.01,3.59,1.953,5.692,5.258,5.685c2.85-0.009,6.094-1.442,10.018-4.131l1.202,1.421
			c-5.343,5.372-10.635,8.234-16.503,8.251c-5.698,0.016-9.128-3.622-9.144-9.492c-0.014-5.07,2.422-10.378,6.572-13.978
			c3.525-3.087,7.68-4.751,12.238-4.764c4.331-0.012,6.614,1.862,6.624,5.111c0.013,4.614-5.39,8.391-16.266,11.554L311.027,100.171
			z M320.229,89.147c-0.006-1.652-0.805-2.505-2.229-2.501c-2.736,0.007-6.087,4.233-7.036,11.244
			C316.943,96.223,320.236,92.566,320.229,89.147z"/>
	</g>
	<g>
		<path fill="#00539F" d="M362.545,90.457c-2.513-1.816-4.339-3.008-6.163-3.003c-3.135,0.009-6.365,5.772-6.349,12.041
			c0.011,3.988,2.067,6.091,5.601,6.081c2.165-0.005,4.954-0.924,7.799-2.813l1.03,1.537c-4.889,4.515-9.782,6.978-14.283,6.99
			c-5.813,0.017-9.185-3.621-9.201-9.491c-0.027-9.972,8.213-18.713,19.494-18.744c2.735-0.007,4.788,0.672,6.101,1.295
			L362.545,90.457z"/>
	</g>
	<g>
		<path fill="#00539F" d="M389.646,94.657c7.615-7.2,12.39-11.715,15.581-11.725c1.881-0.006,2.853,1.475,2.858,3.526
			c0.004,1.253-0.956,4.504-2.708,9.808c-1.412,4.335-2.26,6.901-2.259,7.871c0.003,0.626,0.345,0.966,0.915,0.965
			c0.569-0.001,1.538-0.688,3.244-1.718l0.858,1.536c-5.801,4.118-10.298,5.84-12.634,5.847c-1.596,0.005-2.338-0.792-2.344-2.501
			c-0.001-0.513,0.167-1.426,0.505-2.737l3.273-11.69c0.169-0.684,0.282-1.14,0.282-1.481c-0.002-0.456-0.231-0.74-0.629-0.74
			c-0.798,0.003-3.243,2.062-7.563,6.119l-2.929,12.602l-9.003,0.023l5.24-21.554c1.747-7.127,2.705-11.233,2.701-12.43
			c-0.001-0.626-0.345-0.968-0.801-0.967c-0.228,0.001-0.854,0.231-1.65,0.689l-1.593,0.972l-1.029-1.535l8.931-5.893
			c1.877-1.259,3.299-1.89,4.497-1.894c1.253-0.003,1.938,0.68,1.941,1.819c0.001,0.626-0.166,1.595-0.448,2.907L389.646,94.657z"/>
	</g>
	<g>
		<path fill="#00539F" d="M437.063,85.125l5.07-0.014l-1.013,4.22l-5.072,0.014l-2.479,10.548c-0.508,1.997-0.788,3.366-0.787,4.05
			c0.003,0.854,0.402,1.252,1.2,1.249c0.514-0.001,1.424-0.288,2.618-1.032l1.024-0.63l1.145,1.593
			c-5.745,3.891-9.899,5.953-12.236,5.96c-2.165,0.006-3.309-1.415-3.314-3.809c-0.004-1.254,0.39-3.192,1.01-5.759l2.987-12.145
			l-4.73,0.012l1.015-4.22l4.729-0.014c0.508-1.938,1.072-3.819,1.466-5.758l9.62-3.731
			C438.413,79.025,437.681,82.161,437.063,85.125z"/>
	</g>
	<g>
		<path fill="#00539F" d="M463.676,102.205c-0.226,0.855-0.28,1.539-0.279,1.995c0,0.456,0.287,0.854,0.743,0.853
			c0.342,0,1.024-0.23,2.106-0.859l1.251-0.744l0.859,1.593c-6.03,3.664-9.956,5.84-12.293,5.846
			c-1.766,0.005-2.624-0.903-2.628-2.728c-0.003-0.741,0.278-2.28,0.842-4.619l6.596-26.116c0.169-0.684,0.281-1.255,0.28-1.653
			c-0.001-0.627-0.345-0.968-0.743-0.967c-0.455,0.001-1.082,0.289-2.05,0.803l-1.593,0.802l-0.916-1.535l2.275-1.375
			c6.371-3.835,10.24-5.954,11.894-5.958c1.082-0.004,1.711,0.678,1.714,1.875c0.003,0.684-0.223,1.653-0.562,2.965L463.676,102.205
			z"/>
	</g>
	<g>
		<path fill="#00539F" d="M491.852,99.678c0.01,3.591,1.952,5.692,5.258,5.685c2.849-0.009,6.094-1.442,10.018-4.131l1.2,1.422
			c-5.341,5.371-10.633,8.234-16.503,8.251c-5.697,0.015-9.126-3.623-9.143-9.492c-0.014-5.071,2.423-10.378,6.572-13.979
			c3.524-3.087,7.68-4.751,12.238-4.764c4.33-0.012,6.615,1.862,6.624,5.111c0.012,4.614-5.392,8.391-16.266,11.555L491.852,99.678z
			 M501.053,88.654c-0.006-1.651-0.805-2.505-2.23-2.5c-2.734,0.007-6.085,4.232-7.034,11.244
			C497.767,95.729,501.061,92.073,501.053,88.654z"/>
	</g>
</g>
</svg>
