<?xml version="1.0" encoding="utf-8"?>
<!-- Generator: Adobe Illustrator 14.0.0, SVG Export Plug-In . SVG Version: 6.00 Build 43363)  -->
<!DOCTYPE svg PUBLIC "-//W3C//DTD SVG 1.1//EN" "http://www.w3.org/Graphics/SVG/1.1/DTD/svg11.dtd">
<svg version="1.1" id="Layer_1" xmlns="http://www.w3.org/2000/svg" xmlns:xlink="http://www.w3.org/1999/xlink" x="0px" y="0px"
	 width="1190.72px" height="640.011px" viewBox="0 0 1190.72 640.011" enable-background="new 0 0 1190.72 640.011"
	 xml:space="preserve">
<g>
	<path fill="#5C6466" d="M1119.819,497.612c-1.837-2.862-4.759-4.853-8.097-5.514l-47.094-9.332
		c-0.807-0.161-1.624-0.238-2.433-0.238c-0.69,0-1.379,0.063-2.059,0.177c-0.76-0.423-1.565-0.786-2.43-1.048
		c-8.009-2.425-15.81-4.717-23.146-6.061c-4.766-0.892-8.921-1.327-12.707-1.327c-7.662,0-14.04,1.803-19.113,5.372
		c-5.636-7.233-14.74-12.06-27.743-14.638l-29.385-5.821c-0.807-0.16-1.62-0.238-2.431-0.238c-0.413,0-0.82,0.057-1.229,0.097
		c-1.052-0.554-2.162-1.012-3.353-1.249l-47.096-9.332c-0.804-0.16-1.619-0.238-2.428-0.238c-2.673,0-5.297,0.856-7.473,2.479
		c-2.84,2.112-4.646,5.329-4.983,8.85c-0.406,4.295-1.397,9.823-2.264,14.646l-8.055,40.68c-1.065,4.892-2.264,10.433-3.534,14.605
		c-1.033,3.382-0.585,7.038,1.231,10.071c1.819,3.033,4.832,5.155,8.3,5.843l47.583,9.429c0.807,0.158,1.624,0.239,2.433,0.239
		c0.323,0,0.643-0.048,0.968-0.071c0.989,0.494,2.02,0.906,3.126,1.123l25.297,5.016c0.804,0.158,1.621,0.239,2.43,0.239
		c2.673,0,5.299-0.857,7.478-2.48c2.834-2.114,4.643-5.334,4.976-8.855c0.074-0.767,0.162-1.566,0.266-2.39
		c2.104,0.384,4.207,0.58,6.263,0.58c2.604,0,5.101-0.336,7.505-0.921l-1.326,5.737c-1.438,6.221,2.04,12.524,8.071,14.627
		c6.858,2.392,19.222,5.656,26.427,6.98c3.971,0.74,7.521,1.1,10.85,1.1c4.586,0,8.714-0.695,12.398-2.055
		c0.027,0.052,0.041,0.108,0.073,0.158c1.816,3.038,4.835,5.162,8.303,5.851l47.586,9.428c0.82,0.163,1.636,0.241,2.441,0.241
		c5.852,0,11.076-4.123,12.257-10.079l4.149-20.92c0.692-3.493-0.139-7.114-2.28-9.956l2.829-14.264
		c2.119-1.725,3.627-4.108,4.27-6.799l4.786-20.084C1122.247,503.96,1121.655,500.474,1119.819,497.612L1119.819,497.612z"/>
	<path fill="#5C6466" d="M903.225,518.447c8.697,1.521,17.747,2.808,23.233,3.188l-4.142,20.921l-47.584-9.429
		c1.426-4.674,2.664-10.394,3.8-15.632l8.1-40.867c0.947-5.274,1.984-11.032,2.446-15.897l47.094,9.332l-4.791,20.084
		c-6.223-1.741-14.225-3.728-21.504-5.272l-1.719,8.66c6.831,1.252,14.657,2.602,19.051,2.864l-3.433,17.32
		c-4.184-1.334-11.892-3.264-18.684-4.715L903.225,518.447L903.225,518.447z"/>
	<path fill="#5C6466" d="M960.471,513.306l3.683,0.83c4.959,0.984,7.214-2.214,8.348-7.954c1.137-5.742,0.259-9.455-4.722-10.34
		l-3.721-0.637L960.471,513.306L960.471,513.306z M956.578,532.96c-0.939,5.277-1.984,11.035-2.441,15.901l-25.297-5.016
		c1.333-4.69,2.661-10.392,3.803-15.628l7.999-40.887c1.042-5.256,1.982-11.033,2.541-15.879l29.388,5.823
		c24.424,4.839,26.371,16.953,22.957,34.176c-3.352,16.934-13.34,26.483-26.764,23.822c-5.16-1.022-8.434-2.377-11.859-3.966
		L956.578,532.96L956.578,532.96z"/>
	<path fill="#5C6466" d="M997.184,531.198c6.19,4.464,16.329,8.396,21.102,9.34c3.309,0.654,4.359-0.048,4.664-1.604
		c0.367-1.847,0.035-2.725-2.477-3.829l-7.535-3.309c-11.642-5.039-14.1-11.492-11.095-26.676
		c3.243-16.343,11.888-20.698,30.414-17.229c6.735,1.234,14.093,3.396,21.824,5.738l-5.72,23.742
		c-6.911-2.887-14.412-5.889-18.884-6.773c-1.848-0.366-3.192,0.275-3.595,2.32c-0.386,1.95,0.548,2.842,2.22,3.577l5.163,2.539
		c11.467,5.406,14.551,10.771,11.989,23.713c-3.493,17.615-12.003,22.804-29.171,19.607c-6.925-1.275-18.547-4.386-24.6-6.495
		L997.184,531.198L997.184,531.198z"/>
	<path fill="#5C6466" d="M1076.343,552.752c8.699,1.521,17.748,2.808,23.238,3.186l-4.148,20.923l-47.581-9.431
		c1.427-4.672,2.668-10.392,3.804-15.628l8.097-40.869c0.945-5.274,1.987-11.032,2.444-15.897l47.097,9.332l-4.791,20.085
		c-6.228-1.741-14.223-3.729-21.507-5.272l-1.716,8.659c6.831,1.252,14.657,2.603,19.053,2.866l-3.433,17.323
		c-4.184-1.339-11.89-3.269-18.686-4.717L1076.343,552.752L1076.343,552.752z"/>
	<path fill="#5C6466" d="M1119.819,497.612c-1.837-2.862-4.759-4.853-8.097-5.514l-47.094-9.332
		c-0.807-0.161-1.624-0.238-2.433-0.238c-0.69,0-1.379,0.063-2.059,0.177c-0.76-0.423-1.565-0.786-2.43-1.048
		c-8.009-2.425-15.81-4.717-23.146-6.061c-4.766-0.892-8.921-1.327-12.707-1.327c-7.662,0-14.04,1.803-19.113,5.372
		c-5.636-7.233-14.74-12.06-27.743-14.638l-29.385-5.821c-0.807-0.16-1.62-0.238-2.431-0.238c-0.413,0-0.82,0.057-1.229,0.097
		c-1.052-0.554-2.162-1.012-3.353-1.249l-47.096-9.332c-0.804-0.16-1.619-0.238-2.428-0.238c-2.673,0-5.297,0.856-7.473,2.479
		c-2.84,2.112-4.646,5.329-4.983,8.85c-0.406,4.295-1.397,9.823-2.264,14.646l-8.055,40.68c-1.065,4.892-2.264,10.433-3.534,14.605
		c-1.033,3.382-0.585,7.038,1.231,10.071c1.819,3.033,4.832,5.155,8.3,5.843l47.583,9.429c0.807,0.158,1.624,0.239,2.433,0.239
		c0.323,0,0.643-0.048,0.968-0.071c0.989,0.494,2.02,0.906,3.126,1.123l25.297,5.016c0.804,0.158,1.621,0.239,2.43,0.239
		c2.673,0,5.299-0.857,7.478-2.48c2.834-2.114,4.643-5.334,4.976-8.855c0.074-0.767,0.162-1.566,0.266-2.39
		c2.104,0.384,4.207,0.58,6.263,0.58c2.604,0,5.101-0.336,7.505-0.921l-1.326,5.737c-1.438,6.221,2.04,12.524,8.071,14.627
		c6.858,2.392,19.222,5.656,26.427,6.98c3.971,0.74,7.521,1.1,10.85,1.1c4.586,0,8.714-0.695,12.398-2.055
		c0.027,0.052,0.041,0.108,0.073,0.158c1.816,3.038,4.835,5.162,8.303,5.851l47.586,9.428c0.82,0.163,1.636,0.241,2.441,0.241
		c5.852,0,11.076-4.123,12.257-10.079l4.149-20.92c0.692-3.493-0.139-7.114-2.28-9.956l2.829-14.264
		c2.119-1.725,3.627-4.108,4.27-6.799l4.786-20.084C1122.247,503.96,1121.655,500.474,1119.819,497.612L1119.819,497.612z"/>
	<path fill="#5C6466" d="M903.225,518.447c8.697,1.521,17.747,2.808,23.233,3.188l-4.142,20.921l-47.584-9.429
		c1.426-4.674,2.664-10.394,3.8-15.632l8.1-40.867c0.947-5.274,1.984-11.032,2.446-15.897l47.094,9.332l-4.791,20.084
		c-6.223-1.741-14.225-3.728-21.504-5.272l-1.719,8.66c6.831,1.252,14.657,2.602,19.051,2.864l-3.433,17.32
		c-4.184-1.334-11.892-3.264-18.684-4.715L903.225,518.447L903.225,518.447z"/>
	<path fill="#5C6466" d="M960.471,513.306l3.683,0.83c4.959,0.984,7.214-2.214,8.348-7.954c1.137-5.742,0.259-9.455-4.722-10.34
		l-3.721-0.637L960.471,513.306L960.471,513.306z M956.578,532.96c-0.939,5.277-1.984,11.035-2.441,15.901l-25.297-5.016
		c1.333-4.69,2.661-10.392,3.803-15.628l7.999-40.887c1.042-5.256,1.982-11.033,2.541-15.879l29.388,5.823
		c24.424,4.839,26.371,16.953,22.957,34.176c-3.352,16.934-13.34,26.483-26.764,23.822c-5.16-1.022-8.434-2.377-11.859-3.966
		L956.578,532.96L956.578,532.96z"/>
	<path fill="#5C6466" d="M997.184,531.198c6.19,4.464,16.329,8.396,21.102,9.34c3.309,0.654,4.359-0.048,4.664-1.604
		c0.367-1.847,0.035-2.725-2.477-3.829l-7.535-3.309c-11.642-5.039-14.1-11.492-11.095-26.676
		c3.243-16.343,11.888-20.698,30.414-17.229c6.735,1.234,14.093,3.396,21.824,5.738l-5.72,23.742
		c-6.911-2.887-14.412-5.889-18.884-6.773c-1.848-0.366-3.192,0.275-3.595,2.32c-0.386,1.95,0.548,2.842,2.22,3.577l5.163,2.539
		c11.467,5.406,14.551,10.771,11.989,23.713c-3.493,17.615-12.003,22.804-29.171,19.607c-6.925-1.275-18.547-4.386-24.6-6.495
		L997.184,531.198L997.184,531.198z"/>
	<path fill="#5C6466" d="M1076.343,552.752c8.699,1.521,17.748,2.808,23.238,3.186l-4.148,20.923l-47.581-9.431
		c1.427-4.672,2.668-10.392,3.804-15.628l8.097-40.869c0.945-5.274,1.987-11.032,2.444-15.897l47.097,9.332l-4.791,20.085
		c-6.228-1.741-14.223-3.729-21.507-5.272l-1.716,8.659c6.831,1.252,14.657,2.603,19.053,2.866l-3.433,17.323
		c-4.184-1.339-11.89-3.269-18.686-4.717L1076.343,552.752L1076.343,552.752z"/>
	<path fill="#5C6466" d="M144.631,506.22c-8.284,3.104-17.494,2.551-25.35-1.517c-7.854-4.067-13.62-11.274-15.865-19.83
		c-4.041-15.395-10.515-33.702-16.78-51.41l-0.318-0.908L33.881,292.568l-0.356-0.896c-6.912-17.464-14.059-35.522-21.125-49.783
		c-3.927-7.925-4.315-17.145-1.067-25.372c3.25-8.227,9.834-14.694,18.115-17.796l127.813-47.876
		c61.349-22.981,110.31,0.611,134.324,64.725c5.736,15.305,6.902,31.792,3.945,47.319c17.221,10.013,31.439,26.765,39.469,48.208
		c35.84,95.68-29.607,134.906-98.355,160.658L144.631,506.22L144.631,506.22z"/>
	<path fill="#5C6466" d="M319.154,376.66c-8.734,0-17.073-3.657-22.994-10.079c-5.92-6.424-8.884-15.03-8.173-23.74
		c0.801-9.805,1.356-22.677,1.649-38.258l-0.252-104.8c0-13.341-0.508-27.19-1.397-38.075c-0.711-8.708,2.252-17.314,8.173-23.739
		c5.92-6.423,14.259-10.077,22.994-10.077h64.83c8.736,0,17.073,3.654,22.992,10.077c5.923,6.424,8.884,15.03,8.175,23.739
		c-0.801,9.813-1.358,22.696-1.649,38.295v104.541c0.292,15.599,0.848,28.485,1.649,38.296c0.709,8.71-2.252,17.316-8.175,23.74
		c-5.918,6.422-14.255,10.079-22.992,10.079H319.154L319.154,376.66z"/>
	<path fill="#5C6466" d="M683.054,363.737c-1.121,0.255-2.264,0.449-3.419,0.582l-83.874,9.55
		c-12.1,1.377-23.897-4.393-30.235-14.789l-1.763-2.891c-0.924,4.236-2.73,8.279-5.353,11.846
		c-4.47,6.08-10.956,10.307-18.237,11.969c-1.125,0.259-2.266,0.453-3.423,0.585l-93.523,10.649
		c-8.757,0.996-17.526-1.748-24.153-7.558c-6.625-5.812-10.492-14.15-10.649-22.961c-0.316-17.866-2.391-39.425-4.398-60.276
		l-0.131-1.372l-18.848-165.548l-0.175-1.336c-2.735-20.779-5.56-42.266-9.272-59.756c-1.834-8.646,0.079-17.665,5.26-24.825
		c4.472-6.174,11.017-10.47,18.372-12.149c1.171-0.267,2.361-0.469,3.567-0.599l84.292-9.196
		c11.749-1.282,23.216,4.168,29.64,14.086l1.876,2.896c0.924-4.009,2.643-7.839,5.098-11.25c4.47-6.204,11.033-10.521,18.408-12.205
		c1.125-0.256,2.266-0.452,3.424-0.584L639.06,7.956c8.65-0.985,17.322,1.682,23.925,7.36c6.602,5.679,10.54,13.853,10.861,22.556
		c0.594,16.118,2.123,37.061,4.544,62.25l18.848,165.544c3.314,25.138,6.532,45.89,9.567,61.687
		c1.643,8.551-0.355,17.4-5.514,24.418C696.823,357.85,690.337,362.075,683.054,363.737L683.054,363.737z"/>
	<g>
		<defs>
			<rect id="SVGID_1_" y="0" width="1190.72" height="640.012"/>
		</defs>
		<clipPath id="SVGID_2_">
			<use xlink:href="#SVGID_1_"  overflow="visible"/>
		</clipPath>
		<path clip-path="url(#SVGID_2_)" fill="#5C6466" d="M755.465,374.101c-44.067-3.864-117.479-28.808-113.996-152.476
			C645.483,78.938,752.242,80.489,787.324,80.997c5.432,0.059,11.34,0.362,17.457,0.897c13.294,1.166,28.284,3.485,45.814,7.089
			c15.639,3.217,26.343,17.695,24.832,33.587c-1.108,11.683-2.712,25.062-4.264,38c-0.952,7.923-1.869,15.577-2.627,22.442
			c0.756,0.712,1.472,1.468,2.158,2.264c5.737,6.665,8.412,15.437,7.353,24.166c-2.057,16.968-3.153,31.126-3.571,45.901
			l-1.888,66.982l1.211,14.273c1.409,16.655-10.527,31.474-27.102,33.645c-30.503,3.991-57.556,5.428-82.705,4.396
			C761.157,374.528,758.295,374.349,755.465,374.101L755.465,374.101z"/>
		<path clip-path="url(#SVGID_2_)" fill="#5C6466" d="M954.137,461.089c-12.397-3.762-25.313-9.073-38.381-15.799
			c-99.621-51.255-119.521-136.744-59.152-254.091C908.576,90.172,976.646,51.6,1058.921,76.555
			c12.407,3.763,25.329,9.082,38.406,15.809c99.623,51.254,119.66,136.481,59.554,253.315
			C1104.645,447.22,1036.433,486.049,954.137,461.089L954.137,461.089z"/>
		<path clip-path="url(#SVGID_2_)" fill="#EAEBED" d="M135.484,499.627c-8.284,3.104-17.494,2.553-25.35-1.517
			c-7.854-4.066-13.618-11.271-15.865-19.827c-4.04-15.395-10.515-33.702-16.78-51.413l-0.319-0.906L24.733,285.975l-0.355-0.894
			c-6.912-17.466-14.059-35.524-21.125-49.784c-3.927-7.926-4.315-17.144-1.067-25.372c3.25-8.227,9.833-14.694,18.115-17.796
			l127.812-47.876c61.352-22.979,110.31,0.612,134.327,64.725c5.733,15.305,6.9,31.792,3.943,47.321
			c17.221,10.013,31.437,26.765,39.469,48.205c35.839,95.682-29.607,134.909-98.355,160.658L135.484,499.627L135.484,499.627z"/>
		<path clip-path="url(#SVGID_2_)" fill="#EAEBED" d="M312.901,367.278c-8.736,0-17.073-3.656-22.996-10.076
			c-5.921-6.428-8.884-15.032-8.171-23.742c0.802-9.805,1.354-22.675,1.647-38.259l-0.25-104.799
			c0-13.342-0.508-27.191-1.398-38.075c-0.713-8.709,2.25-17.314,8.171-23.74c5.923-6.422,14.259-10.078,22.996-10.078h64.831
			c8.734,0,17.073,3.656,22.991,10.078c5.923,6.425,8.887,15.031,8.175,23.74c-0.802,9.812-1.356,22.696-1.649,38.294v104.542
			c0.293,15.597,0.848,28.485,1.649,38.296c0.711,8.71-2.252,17.314-8.175,23.742c-5.918,6.42-14.257,10.076-22.991,10.076H312.901
			L312.901,367.278z"/>
		<path clip-path="url(#SVGID_2_)" fill="#EAEBED" d="M674.869,355.983c-1.123,0.256-2.267,0.449-3.421,0.582l-83.872,9.55
			c-12.1,1.377-23.897-4.394-30.236-14.788l-1.763-2.892c-0.924,4.236-2.732,8.279-5.352,11.846
			c-4.47,6.08-10.958,10.307-18.237,11.97c-1.125,0.255-2.266,0.451-3.424,0.584l-93.522,10.649
			c-8.757,0.995-17.526-1.749-24.153-7.558c-6.627-5.812-10.495-14.149-10.649-22.961c-0.316-17.867-2.391-39.425-4.398-60.276
			l-0.132-1.373L376.863,125.77l-0.176-1.337c-2.735-20.778-5.56-42.266-9.272-59.755c-1.834-8.646,0.078-17.666,5.26-24.825
			c4.47-6.174,11.016-10.471,18.372-12.149c1.171-0.268,2.36-0.469,3.566-0.601l84.292-9.196
			c11.746-1.281,23.215,4.168,29.637,14.086l1.878,2.897c0.924-4.009,2.641-7.838,5.096-11.25
			c4.47-6.203,11.032-10.521,18.411-12.205c1.125-0.258,2.266-0.453,3.423-0.584l93.523-10.649
			c8.653-0.985,17.325,1.683,23.927,7.36c6.602,5.678,10.538,13.852,10.861,22.555c0.594,16.118,2.126,37.062,4.544,62.25
			l18.848,165.545c3.314,25.138,6.532,45.889,9.567,61.687c1.643,8.55-0.355,17.4-5.516,24.417
			C688.639,350.095,682.15,354.32,674.869,355.983L674.869,355.983z"/>
		<path clip-path="url(#SVGID_2_)" fill="#EAEBED" d="M750.055,364.208c-44.067-3.861-117.479-28.808-113.998-152.475
			C640.071,69.047,746.835,70.598,781.915,71.106c5.428,0.059,11.337,0.361,17.454,0.898c13.294,1.164,28.283,3.483,45.814,7.089
			c15.639,3.215,26.345,17.693,24.834,33.586c-1.108,11.683-2.714,25.061-4.264,38c-0.954,7.923-1.871,15.576-2.627,22.441
			c0.753,0.713,1.472,1.469,2.155,2.264c5.743,6.664,8.413,15.437,7.354,24.166c-2.054,16.968-3.153,31.126-3.571,45.902
			l-1.883,66.979l1.205,14.276c1.409,16.655-10.526,31.472-27.101,33.645c-30.504,3.99-57.554,5.428-82.705,4.395
			C755.747,364.636,752.885,364.457,750.055,364.208L750.055,364.208z"/>
		<path clip-path="url(#SVGID_2_)" fill="#EAEBED" d="M950.875,450.298c-12.397-3.761-25.313-9.076-38.381-15.802
			c-99.621-51.254-119.521-136.744-59.152-254.09C905.314,79.379,973.384,40.808,1055.659,65.763
			c12.407,3.763,25.329,9.082,38.406,15.809c99.623,51.254,119.66,136.482,59.554,253.317
			C1101.383,436.429,1033.171,475.258,950.875,450.298L950.875,450.298z"/>
	</g>
	<path fill="#AC7743" d="M201.032,377.204c15.057-5.64,15.147-18.645,11.01-29.687c-4.387-11.712-12.872-21.123-27.928-15.481
		l-12.714,4.762l16.919,45.168L201.032,377.204L201.032,377.204z M137.311,245.789l16.041,42.827l11.377-4.261
		c14.052-5.262,13.178-16.764,9.043-27.806c-4.137-11.042-10.908-19.95-25.086-15.021L137.311,245.789L137.311,245.789z
		 M296.567,315.475c21.934,58.554,1.599,89.825-80.042,120.405l-92.01,34.465c-4.47-17.02-11.529-36.887-17.962-55.081
		L53.915,274.737c-7.103-17.941-14.832-37.556-22.645-53.325l127.812-47.875c42.158-15.792,75.147-4.113,94.073,46.41
		c7.896,21.078,2.074,44.242-11.564,57.744C265.304,273.771,287.167,290.38,296.567,315.475L296.567,315.475z"/>
	<path fill="#AC7743" d="M314.654,295.457l-0.251-105.128c0-13.516-0.501-28.284-1.502-40.55h64.831
		c-1.005,12.266-1.504,27.034-1.753,40.55v105.128c0.25,13.518,0.749,28.286,1.753,40.551h-64.831
		C313.901,323.743,314.403,308.975,314.654,295.457L314.654,295.457z"/>
	<path fill="#AC7743" d="M658.013,261.725c2.81,21.316,6.207,44.563,9.898,63.77l-83.874,9.55l-78.122-128.107l8.847,71.097
		c2.807,21.315,6.575,44.521,10.264,63.729l-93.521,10.647c-0.347-19.589-2.638-42.961-4.694-64.361L407.9,121.957
		c-2.807-21.312-5.828-44.603-9.896-63.769l84.294-9.196l77.08,119.01l-7.859-62.398c-2.8-21.313-6.572-44.519-10.63-63.685
		l93.52-10.648c0.724,19.546,2.639,42.963,4.696,64.36L658.013,261.725L658.013,261.725z"/>
	<path fill="#AC7743" d="M667.315,212.614c2.546-90.452,47.789-111.205,114.146-110.242c17.493,0.192,37.024,3.156,57.427,7.351
		c-2.146,22.57-6.312,52.628-8.06,71.89c-16.112-6.489-33.835-9.402-46.496-9.757c-31.056-0.875-42.758,7.545-43.668,39.807
		c-1.017,36.18,3.675,51.701,25.685,52.321l5.729,0.161l0.652-23.217l-14.473-0.406l1.326-47.035l82.01,2.31
		c-1.966,16.238-3.306,31.589-3.786,48.774l-1.938,68.745l1.36,16.03c-28.468,3.727-53.855,5.124-77.364,4.159
		C707.121,331.417,664.77,303.066,667.315,212.614L667.315,212.614z"/>
	<path fill="#AC7743" d="M1028.256,270.392c25.292-49.164,31.589-71.873,11.071-82.428c-20.518-10.556-35.329,7.771-60.623,56.936
		c-25.694,49.939-31.788,72.261-11.273,82.815C987.948,338.27,1002.563,320.331,1028.256,270.392L1028.256,270.392z
		 M881.147,194.711c50.788-98.716,113.054-129.348,198.609-85.333s96.842,112.488,46.057,211.205
		c-51.188,99.492-113.458,130.125-199.014,86.108C841.245,362.677,829.963,294.202,881.147,194.711L881.147,194.711z"/>
	<path fill="#E28C36" d="M201.032,377.204c15.057-5.64,15.147-18.645,11.01-29.687c-4.387-11.712-12.872-21.123-27.928-15.481
		l-12.714,4.762l16.919,45.168L201.032,377.204L201.032,377.204z M137.311,245.789l16.041,42.827l11.377-4.261
		c14.052-5.262,13.178-16.764,9.043-27.806c-4.137-11.042-10.908-19.95-25.086-15.021L137.311,245.789L137.311,245.789z
		 M296.567,315.475c21.934,58.554,1.599,89.825-80.042,120.405l-92.01,34.465c-4.47-17.02-11.529-36.887-17.962-55.081
		L53.915,274.737c-7.103-17.941-14.832-37.556-22.645-53.325l127.812-47.875c42.158-15.792,75.147-4.113,94.073,46.41
		c7.896,21.078,2.074,44.242-11.564,57.744C265.304,273.771,287.167,290.38,296.567,315.475L296.567,315.475z"/>
	<path fill="#E28C36" d="M314.654,295.457l-0.251-105.128c0-13.516-0.501-28.284-1.502-40.55h64.831
		c-1.005,12.266-1.504,27.034-1.753,40.55v105.128c0.25,13.518,0.749,28.286,1.753,40.551h-64.831
		C313.901,323.743,314.403,308.975,314.654,295.457L314.654,295.457z"/>
	<path fill="#E28C36" d="M658.013,261.725c2.81,21.316,6.207,44.563,9.898,63.77l-83.874,9.55l-78.122-128.107l8.847,71.097
		c2.807,21.315,6.575,44.521,10.264,63.729l-93.521,10.647c-0.347-19.589-2.638-42.961-4.694-64.361L407.9,121.957
		c-2.807-21.312-5.828-44.603-9.896-63.769l84.294-9.196l77.08,119.01l-7.859-62.398c-2.8-21.313-6.572-44.519-10.63-63.685
		l93.52-10.648c0.724,19.546,2.639,42.963,4.696,64.36L658.013,261.725L658.013,261.725z"/>
	<path fill="#E28C36" d="M667.315,212.614c2.546-90.452,47.789-111.205,114.146-110.242c17.493,0.192,37.024,3.156,57.427,7.351
		c-2.146,22.57-6.312,52.628-8.06,71.89c-16.112-6.489-33.835-9.402-46.496-9.757c-31.056-0.875-42.758,7.545-43.668,39.807
		c-1.017,36.18,3.675,51.701,25.685,52.321l5.729,0.161l0.652-23.217l-14.473-0.406l1.326-47.035l82.01,2.31
		c-1.966,16.238-3.306,31.589-3.786,48.774l-1.938,68.745l1.36,16.03c-28.468,3.727-53.855,5.124-77.364,4.159
		C707.121,331.417,664.77,303.066,667.315,212.614L667.315,212.614z"/>
	<path fill="#E28C36" d="M1028.256,270.392c25.292-49.164,31.589-71.873,11.071-82.428c-20.518-10.556-35.329,7.771-60.623,56.936
		c-25.694,49.939-31.788,72.261-11.273,82.815C987.948,338.27,1002.563,320.331,1028.256,270.392L1028.256,270.392z
		 M881.147,194.711c50.788-98.716,113.054-129.348,198.609-85.333s96.842,112.488,46.057,211.205
		c-51.188,99.492-113.458,130.125-199.014,86.108C841.245,362.677,829.963,294.202,881.147,194.711L881.147,194.711z"/>
	<path fill="#5C6466" d="M874.675,539.788c-2.79-0.705-5.622-1.379-8.461-2.051c14.255-13.242,22.619-33.232,24.675-59.681
		c1.236-15.903-0.342-29.326-4.945-40.598c2.695-4.045,4.444-8.715,5.033-13.656l6.253-52.671
		c1.955-16.457-9.268-31.575-25.578-34.474c-16.843-2.997-33.238-5.786-48.711-6.987c-1.111-0.086-2.216-0.163-3.192-0.222
		c-21.976-1.477-40.178,1.092-54.564,7.67c-5.195-3.636-11.414-5.688-17.907-5.688h-49.555c-4.301,0-8.417,0.873-12.171,2.46
		c-3.756-1.587-7.875-2.46-12.174-2.46h-60.751c-8.787,0-17.099,3.714-22.984,10.112c-18.009-11.198-40.254-15.163-66.394-11.73
		c-22.553,2.962-40.889,10.484-54.816,22.422c-11.811-11.247-28.217-18.067-48.36-19.408l-82.116-5.462
		c-8.829-0.589-17.487,2.591-23.842,8.748c-6.35,6.157-9.796,14.715-9.485,23.557c0.321,9.074-0.229,20.511-0.76,31.569
		l-6.032,90.634c-0.94,11.032-1.908,22.441-3.428,31.393c-1.483,8.724,0.801,17.66,6.281,24.605
		c2.689,3.406,6.027,6.166,9.769,8.173c-64.8,9.837-123.075,20.35-177.96,32.119c-16.629,3.563-27.362,19.771-24.151,36.474
		c2.869,14.94,15.946,25.377,30.672,25.377c1.742,0,3.504-0.147,5.276-0.448c54.962-9.346,113.386-17.288,178.561-24.283
		c63.788-6.753,122.451-11.139,179.318-13.402c28.967-1.138,55.639-1.689,81.531-1.689c34.145,0,65.688,0.958,96.535,2.94
		c29.933,1.819,59.099,4.88,86.681,9.1c31.36,4.807,58.417,10.68,82.922,18.013c0.665,0.198,1.333,0.384,1.812,0.499
		c3.768,0.954,7.644,1.439,11.521,1.439c21.492,0,40.188-14.561,45.464-35.402C914.989,571.708,899.755,546.146,874.675,539.788
		L874.675,539.788z"/>
	<path fill="#5C6466" d="M326.29,549.701c-8.829-0.589-16.993-4.887-22.472-11.831c-5.479-6.945-7.764-15.882-6.281-24.605
		c1.518-8.951,2.488-20.36,3.428-31.393l6.031-90.634c0.529-11.059,1.081-22.495,0.76-31.569
		c-0.314-8.842,3.132-17.399,9.485-23.557s15.013-9.337,23.841-8.748l82.116,5.462c45.899,3.054,72.441,34.535,69.272,82.154
		c-0.614,9.225-3.238,18.117-7.452,26.083c5.678,10.784,8.466,23.586,7.561,37.188c-5.468,82.149-79.358,77.233-107.177,75.385
		L326.29,549.701L326.29,549.701z"/>
	<path fill="#5C6466" d="M556.061,555.873c-33.104,4.345-59.979-3.129-79.871-22.219c-17.9-17.178-28.856-42.718-33.502-78.088
		c-4.622-35.196-0.603-62.598,12.285-83.77c14.315-23.515,38.337-37.642,71.402-41.984c33.065-4.341,59.926,3.104,79.822,22.126
		c17.919,17.129,28.878,42.564,33.497,77.758c4.646,35.37,0.651,62.878-12.206,84.091
		C613.196,537.366,589.166,551.525,556.061,555.873L556.061,555.873z"/>
	<path fill="#5C6466" d="M655.825,553.825c-8.847,0-17.278-3.747-23.208-10.313s-8.799-15.337-7.903-24.134
		c0.922-9,1.133-20.403,1.338-31.434l0.012-0.583v-2.58c-16.156-38.169-29.725-76.31-40.37-113.471
		c-2.705-9.435-0.82-19.593,5.089-27.433c5.907-7.841,15.154-12.448,24.969-12.448h60.753c4.299,0,8.415,0.873,12.171,2.46
		c3.754-1.587,7.87-2.46,12.174-2.46h49.555c9.725,0,18.896,4.525,24.812,12.241c5.918,7.721,7.911,17.752,5.385,27.146
		c-8.817,32.812-22.937,74.013-39,113.889l0.009,3.012c0.203,11.113,0.414,22.602,1.336,31.669
		c0.898,8.799-1.976,17.567-7.903,24.129c-5.93,6.563-14.361,10.31-23.206,10.31H655.825L655.825,553.825z"/>
	<path fill="#EAEBED" d="M868.42,530.406c-2.788-0.705-5.623-1.379-8.462-2.05c14.257-13.242,22.622-33.233,24.678-59.681
		c1.233-15.9-0.344-29.326-4.948-40.598c2.698-4.045,4.447-8.715,5.036-13.656l6.253-52.671
		c1.954-16.457-9.268-31.577-25.578-34.475c-16.843-2.996-33.241-5.783-48.714-6.987c-1.108-0.085-2.213-0.164-3.19-0.223
		c-21.975-1.476-40.18,1.092-54.566,7.671c-5.195-3.636-11.414-5.689-17.905-5.689h-49.554c-4.304,0-8.42,0.873-12.174,2.46
		c-3.756-1.587-7.875-2.46-12.171-2.46h-60.751c-8.79,0-17.099,3.714-22.987,10.113c-18.009-11.199-40.25-15.163-66.392-11.728
		c-22.552,2.961-40.889,10.48-54.816,22.419c-11.813-11.248-28.219-18.067-48.358-19.408l-82.118-5.462
		c-8.829-0.589-17.489,2.59-23.839,8.747c-6.354,6.157-9.801,14.716-9.489,23.558c0.323,9.074-0.229,20.512-0.758,31.569
		l-6.031,90.635c-0.94,11.032-1.911,22.44-3.428,31.392c-1.483,8.724,0.802,17.66,6.279,24.604c2.691,3.407,6.029,6.168,9.771,8.173
		c-64.802,9.839-123.074,20.351-177.96,32.121c-16.632,3.562-27.362,19.77-24.153,36.473c2.871,14.939,15.948,25.376,30.674,25.376
		c1.74,0,3.504-0.146,5.276-0.446c54.961-9.347,113.384-17.29,178.558-24.284c63.793-6.753,122.453-11.137,179.321-13.402
		c28.968-1.138,55.637-1.688,81.532-1.688c34.142,0,65.685,0.958,96.532,2.94c29.934,1.819,59.102,4.88,86.684,9.099
		c31.36,4.808,58.42,10.681,82.919,18.016c0.668,0.196,1.338,0.382,1.813,0.497c3.768,0.953,7.642,1.438,11.522,1.438
		c21.492,0,40.185-14.559,45.463-35.4C908.733,562.328,893.502,536.764,868.42,530.406L868.42,530.406z"/>
	<path fill="#AC7743" d="M384.171,476.963c9.672,0.644,12.952-6.479,13.426-13.572c0.501-7.524-1.82-14.806-11.497-15.449
		l-8.166-0.541l-1.931,29.019L384.171,476.963L384.171,476.963z M381.825,388.928l-1.832,27.516l7.309,0.487
		c9.027,0.601,11.407-5.936,11.878-13.029c0.474-7.094-1.033-13.669-10.048-14.486L381.825,388.928L381.825,388.928z
		 M451.998,466.795c-2.502,37.617-21.449,49.744-73.899,46.253l-59.113-3.932c1.774-10.462,2.832-23.131,3.821-34.724l6.006-90.287
		c0.559-11.621,1.187-24.319,0.813-34.923l82.118,5.464c27.083,1.802,42.306,16.416,40.146,48.877
		c-0.901,13.543-9.856,24.82-20.705,28.849C445.186,436.113,453.07,450.671,451.998,466.795L451.998,466.795z"/>
	<path fill="#AC7743" d="M545.481,431.453c-3.564-27.127-7.401-38.141-18.72-36.652c-11.321,1.485-12.186,13.114-8.624,40.243
		c3.62,27.555,7.427,38.354,18.748,36.867C548.207,470.423,549.099,459.008,545.481,431.453L545.481,431.453z M464.31,442.112
		c-7.154-54.47,9.55-84.475,56.757-90.675c47.207-6.197,71.088,18.479,78.242,72.947c7.21,54.897-9.494,84.903-56.701,91.104
		C495.4,521.684,471.52,497.009,464.31,442.112L464.31,442.112z"/>
	<path fill="#AC7743" d="M700.949,478.271c0.215,11.637,0.43,24.346,1.508,34.903h-56.013c1.076-10.558,1.291-23.267,1.506-34.903
		v-9.262c-16.588-38.564-30.591-77.344-41.579-115.691h60.755c3.015,19.174,6.676,38.133,12.712,59.246h0.645
		c5.387-21.113,8.618-40.072,10.988-59.246h49.552c-9.268,34.471-24.13,76.912-40.073,115.906V478.271L700.949,478.271z"/>
	<path fill="#AC7743" d="M746.825,453.643c14.505,8.042,37.383,13.925,47.91,14.744c7.302,0.566,9.386-1.217,9.651-4.654
		c0.318-4.079-0.624-5.882-6.323-7.62l-17.096-5.219c-26.399-7.886-33.361-21.178-30.756-54.685
		c2.805-36.084,20.345-47.687,61.189-44.943c14.835,0.937,31.26,3.727,48.521,6.796l-6.255,52.672
		c-15.644-4.456-32.576-9.015-42.456-9.784c-4.081-0.316-6.808,1.417-7.16,5.929c-0.333,4.295,1.914,5.981,5.712,7.142l11.776,4.158
		c26.117,8.728,34.14,19.508,31.918,48.075c-3.02,38.879-20.051,52.248-57.887,49.738c-15.267-0.971-41.123-4.708-54.72-7.71
		L746.825,453.643L746.825,453.643z"/>
	<path fill="#E28C36" d="M384.171,476.963c9.672,0.644,12.952-6.479,13.426-13.572c0.501-7.524-1.82-14.806-11.497-15.449
		l-8.166-0.541l-1.931,29.019L384.171,476.963L384.171,476.963z M381.825,388.928l-1.832,27.516l7.309,0.487
		c9.027,0.601,11.407-5.936,11.878-13.029c0.474-7.094-1.033-13.669-10.048-14.486L381.825,388.928L381.825,388.928z
		 M451.998,466.795c-2.502,37.617-21.449,49.744-73.899,46.253l-59.113-3.932c1.774-10.462,2.832-23.131,3.821-34.724l6.006-90.287
		c0.559-11.621,1.187-24.319,0.813-34.923l82.118,5.464c27.083,1.802,42.306,16.416,40.146,48.877
		c-0.901,13.543-9.856,24.82-20.705,28.849C445.186,436.113,453.07,450.671,451.998,466.795L451.998,466.795z"/>
	<path fill="#E28C36" d="M545.481,431.453c-3.564-27.127-7.401-38.141-18.72-36.652c-11.321,1.485-12.186,13.114-8.624,40.243
		c3.62,27.555,7.427,38.354,18.748,36.867C548.207,470.423,549.099,459.008,545.481,431.453L545.481,431.453z M464.31,442.112
		c-7.154-54.47,9.55-84.475,56.757-90.675c47.207-6.197,71.088,18.479,78.242,72.947c7.21,54.897-9.494,84.903-56.701,91.104
		C495.4,521.684,471.52,497.009,464.31,442.112L464.31,442.112z"/>
	<path fill="#E28C36" d="M700.949,478.271c0.215,11.637,0.43,24.346,1.508,34.903h-56.013c1.076-10.558,1.291-23.267,1.506-34.903
		v-9.262c-16.588-38.564-30.591-77.344-41.579-115.691h60.755c3.015,19.174,6.676,38.133,12.712,59.246h0.645
		c5.387-21.113,8.618-40.072,10.988-59.246h49.552c-9.268,34.471-24.13,76.912-40.073,115.906V478.271L700.949,478.271z"/>
	<path fill="#E28C36" d="M746.825,453.643c14.505,8.042,37.383,13.925,47.91,14.744c7.302,0.566,9.386-1.217,9.651-4.654
		c0.318-4.079-0.624-5.882-6.323-7.62l-17.096-5.219c-26.399-7.886-33.361-21.178-30.756-54.685
		c2.805-36.084,20.345-47.687,61.189-44.943c14.835,0.937,31.26,3.727,48.521,6.796l-6.255,52.672
		c-15.644-4.456-32.576-9.015-42.456-9.784c-4.081-0.316-6.808,1.417-7.16,5.929c-0.333,4.295,1.914,5.981,5.712,7.142l11.776,4.158
		c26.117,8.728,34.14,19.508,31.918,48.075c-3.02,38.879-20.051,52.248-57.887,49.738c-15.267-0.971-41.123-4.708-54.72-7.71
		L746.825,453.643L746.825,453.643z"/>
	<path fill-rule="evenodd" clip-rule="evenodd" fill="#5C6466" d="M574.077,349.363c-8.674-14.691-24.659-23.489-41.718-22.99
		c8.413,2.021,15.798,7.059,20.76,14.164c-13.521-12.993-33.398-16.908-50.832-10.003c8.288-2.378,17.188-1.467,24.846,2.517
		c-22.407-4.371-45.389,4.203-59.443,22.188c10.46-7.605,23.646-10.454,36.313-7.87c-20.686-1.885-39.919,10.823-46.297,30.588
		c5.174-5.268,12.402-7.997,19.769-7.5c-32.091,5.629-23.851,41.097-11.693,61.342c-2.793-34.319-2.377-68.741,43.308-60.585
		c-3.774-3.118-8.274-5.228-13.058-6.146c18.491-0.099,19.45,9.834,45.583,2.997c-5.93-6.469-13.417-11.285-21.744-14.012
		c8.334,1.479,16.251,4.684,23.22,9.4c11.215,7.566,23.902,1.065,29.293-9.737c-0.783,4.192-2.181,8.055-4.211,12.006
		c21.264,3.947,25.068,29.441,26.81,55.478C603.587,399.635,603.749,354.178,574.077,349.363L574.077,349.363L574.077,349.363z"/>
	<path fill-rule="evenodd" clip-rule="evenodd" fill="#5C6466" d="M504.179,447.211c6.484-3.027,10.746-9.81,10.198-17.354
		c-0.071-0.97-0.217-1.916-0.441-2.814L504.179,447.211L504.179,447.211z M496.246,448.84c0.584,0.018,1.168,0.012,1.751-0.029
		c0.97-0.069,1.933-0.219,2.855-0.44l11.945-24.674c-0.667-1.415-1.503-2.718-2.488-3.912L496.246,448.84L496.246,448.84z
		 M485.777,445.08c1.592,1.249,3.396,2.229,5.373,2.884l15.304-31.623c-1.684-1.126-3.576-1.943-5.599-2.439L485.777,445.08
		L485.777,445.08z M489.224,415.06c-6.468,3.025-10.749,9.81-10.199,17.371c0.069,0.952,0.215,1.896,0.439,2.797L489.224,415.06
		L489.224,415.06z"/>
	<path fill-rule="evenodd" clip-rule="evenodd" fill="#5C6466" d="M495.207,410.493c-11.402,0.83-19.979,10.753-19.15,22.157
		c0.832,11.383,10.753,19.96,22.157,19.127c11.402-0.831,19.958-10.751,19.129-22.136
		C516.514,418.239,506.608,409.66,495.207,410.493L495.207,410.493L495.207,410.493z M561.857,405.637
		c-11.402,0.829-19.958,10.753-19.127,22.156c0.827,11.382,10.73,19.959,22.135,19.129c11.402-0.831,19.96-10.753,19.129-22.136
		C583.165,413.383,573.259,404.806,561.857,405.637L561.857,405.637L561.857,405.637z M539.208,417.717
		c3.379-9.526,12.093-16.263,22.292-17.006c10.277-0.748,19.563,4.676,24.271,13.126c0.414-0.226,0.871-0.354,1.375-0.393
		c1.979-0.145,3.708,1.348,3.849,3.325c0.129,1.746-1.026,3.293-2.652,3.742c0.289,1.266,0.48,2.579,0.58,3.915
		c1.028,14.119-9.58,26.394-23.698,27.422c-14.117,1.027-26.392-9.579-27.42-23.699c-0.134-1.842-0.074-3.678,0.185-5.489
		c-2.772-0.58-5.623-0.896-8.453-0.691c-2.832,0.206-5.585,0.933-8.244,1.907c0.518,1.755,0.845,3.564,0.979,5.406
		c1.025,14.118-9.58,26.393-23.698,27.421c-14.119,1.029-26.392-9.58-27.422-23.697c-0.097-1.338-0.097-2.663,0.005-3.957
		c-1.672-0.211-3.038-1.572-3.165-3.319c-0.144-1.978,1.349-3.704,3.326-3.849c0.503-0.038,0.977,0.027,1.416,0.189
		c3.417-9.04,11.839-15.756,22.116-16.506c10.199-0.742,19.797,4.66,24.521,13.597c3.148-1.223,6.415-2.124,9.79-2.37
		C532.531,416.545,535.913,416.961,539.208,417.717L539.208,417.717L539.208,417.717z"/>
	<path fill-rule="evenodd" clip-rule="evenodd" fill="#5C6466" d="M570.848,442.355c6.465-3.025,10.729-9.807,10.18-17.354
		c-0.069-0.969-0.217-1.913-0.418-2.814L570.848,442.355L570.848,442.355z M562.917,443.985c0.564,0.019,1.148,0.014,1.73-0.028
		c0.991-0.07,1.936-0.22,2.855-0.442l11.945-24.674c-0.647-1.414-1.483-2.719-2.467-3.913L562.917,443.985L562.917,443.985z
		 M552.427,440.225c1.592,1.25,3.417,2.228,5.375,2.885l15.302-31.624c-1.682-1.126-3.574-1.941-5.579-2.44L552.427,440.225
		L552.427,440.225z M555.893,410.204c-6.487,3.026-10.749,9.81-10.196,17.372c0.067,0.951,0.215,1.895,0.418,2.799L555.893,410.204
		L555.893,410.204z"/>
	<path fill="#5C6466" d="M132.802,599.353c59.427-12.741,119.355-23.226,179.517-32.304c60.176-8.994,120.647-16.366,181.414-21.407
		c60.765-4.998,121.841-7.842,183.151-6.538c30.651,0.549,61.362,2.35,92.058,5.703c30.684,3.366,61.391,8.215,91.807,15.917
		c8.374,2.12,13.444,10.625,11.323,18.999c-2.118,8.374-10.626,13.443-18.999,11.321c-0.199-0.05-0.396-0.104-0.59-0.16
		l-0.127-0.038c-28.187-8.44-57.417-14.383-86.95-18.908c-29.548-4.521-59.464-7.576-89.52-9.402
		c-60.111-3.865-120.688-3.664-181.192-1.287c-60.522,2.413-121.026,7.166-181.381,13.555
		C252.966,581.28,192.712,589.171,132.802,599.353L132.802,599.353z"/>
	<path fill="#E28C36" d="M132.802,599.353c59.427-12.741,119.355-23.226,179.517-32.304c60.176-8.994,120.647-16.366,181.414-21.407
		c60.765-4.998,121.841-7.842,183.151-6.538c30.651,0.549,61.362,2.35,92.058,5.703c30.684,3.366,61.391,8.215,91.807,15.917
		c8.374,2.12,13.444,10.625,11.323,18.999c-2.118,8.374-10.626,13.443-18.999,11.321c-0.199-0.05-0.396-0.104-0.59-0.16
		l-0.127-0.038c-28.187-8.44-57.417-14.383-86.95-18.908c-29.548-4.521-59.464-7.576-89.52-9.402
		c-60.111-3.865-120.688-3.664-181.192-1.287c-60.522,2.413-121.026,7.166-181.381,13.555
		C252.966,581.28,192.712,589.171,132.802,599.353L132.802,599.353z"/>
	<path fill="#EAEBED" d="M1112.898,489.408c-1.836-2.859-4.761-4.851-8.097-5.511l-47.094-9.334
		c-0.807-0.158-1.624-0.237-2.433-0.237c-0.69,0-1.379,0.063-2.058,0.176c-0.763-0.422-1.566-0.785-2.433-1.045
		c-8.007-2.429-15.808-4.718-23.145-6.063c-4.766-0.892-8.921-1.324-12.707-1.324c-7.662,0-14.04,1.802-19.115,5.372
		c-5.634-7.234-14.737-12.062-27.741-14.638l-29.385-5.823c-0.807-0.159-1.622-0.239-2.433-0.239c-0.411,0-0.817,0.057-1.227,0.097
		c-1.054-0.553-2.162-1.013-3.352-1.247l-47.097-9.334c-0.807-0.158-1.619-0.236-2.43-0.236c-2.673,0-5.295,0.857-7.471,2.478
		c-2.839,2.113-4.646,5.329-4.983,8.851c-0.406,4.293-1.397,9.821-2.264,14.646l-8.057,40.682
		c-1.063,4.889-2.265,10.431-3.532,14.602c-1.035,3.383-0.585,7.042,1.231,10.075c1.817,3.029,4.832,5.153,8.3,5.84l47.583,9.431
		c0.807,0.159,1.624,0.236,2.433,0.236c0.323,0,0.643-0.045,0.966-0.07c0.991,0.494,2.021,0.905,3.125,1.126l25.3,5.014
		c0.804,0.159,1.619,0.237,2.43,0.237c2.673,0,5.297-0.856,7.476-2.479c2.837-2.115,4.646-5.334,4.978-8.857
		c0.074-0.766,0.162-1.563,0.266-2.388c2.104,0.386,4.207,0.578,6.263,0.578c2.604,0,5.101-0.335,7.503-0.919l-1.323,5.737
		c-1.439,6.222,2.039,12.525,8.07,14.626c6.856,2.393,19.222,5.658,26.427,6.981c3.971,0.74,7.521,1.102,10.851,1.102
		c4.583,0,8.711-0.695,12.397-2.056c0.027,0.049,0.041,0.107,0.071,0.159c1.818,3.034,4.837,5.158,8.305,5.847l47.584,9.432
		c0.822,0.16,1.635,0.241,2.441,0.241c5.854,0,11.079-4.126,12.259-10.08l4.146-20.923c0.695-3.492-0.139-7.112-2.277-9.953
		l2.827-14.266c2.121-1.725,3.629-4.108,4.271-6.798l4.786-20.086C1115.326,495.756,1114.735,492.273,1112.898,489.408
		L1112.898,489.408z"/>
	<path fill="#EAEBED" d="M896.304,510.243c8.697,1.521,17.748,2.811,23.233,3.189l-4.142,20.921l-47.584-9.43
		c1.424-4.673,2.664-10.392,3.801-15.629l8.099-40.869c0.944-5.273,1.984-11.033,2.444-15.896l47.094,9.331l-4.789,20.086
		c-6.223-1.741-14.228-3.731-21.506-5.275l-1.717,8.66c6.829,1.253,14.655,2.602,19.049,2.864l-3.431,17.321
		c-4.184-1.334-11.892-3.264-18.684-4.716L896.304,510.243L896.304,510.243z"/>
	<path fill="#EAEBED" d="M953.55,505.103l3.683,0.833c4.959,0.981,7.212-2.214,8.348-7.956c1.135-5.74,0.257-9.453-4.722-10.341
		l-3.721-0.634L953.55,505.103L953.55,505.103z M949.655,524.757c-0.938,5.277-1.981,11.038-2.439,15.9l-25.297-5.012
		c1.328-4.69,2.661-10.394,3.803-15.632l7.999-40.886c1.042-5.254,1.982-11.032,2.539-15.879l29.39,5.823
		c24.422,4.84,26.371,16.955,22.957,34.178c-3.352,16.933-13.34,26.481-26.764,23.823c-5.16-1.024-8.436-2.381-11.859-3.968
		L949.655,524.757L949.655,524.757z"/>
	<path fill="#EAEBED" d="M990.261,522.996c6.193,4.466,16.331,8.395,21.102,9.339c3.311,0.657,4.361-0.045,4.666-1.604
		c0.365-1.848,0.032-2.722-2.476-3.827l-7.536-3.312c-11.642-5.038-14.1-11.491-11.095-26.675
		c3.241-16.344,11.888-20.697,30.414-17.229c6.735,1.232,14.093,3.396,21.824,5.737l-5.72,23.743
		c-6.913-2.885-14.414-5.887-18.884-6.773c-1.851-0.368-3.192,0.276-3.595,2.322c-0.386,1.947,0.548,2.839,2.221,3.575l5.16,2.537
		c11.469,5.408,14.553,10.775,11.991,23.716c-3.493,17.613-12.005,22.803-29.171,19.604c-6.925-1.272-18.547-4.385-24.602-6.495
		L990.261,522.996L990.261,522.996z"/>
	<path fill="#EAEBED" d="M1069.422,544.548c8.699,1.521,17.748,2.811,23.236,3.189l-4.146,20.923l-47.584-9.432
		c1.431-4.672,2.669-10.392,3.808-15.629l8.096-40.869c0.945-5.272,1.984-11.033,2.444-15.896l47.097,9.332l-4.791,20.085
		c-6.228-1.741-14.223-3.73-21.506-5.275l-1.717,8.66c6.831,1.254,14.654,2.603,19.053,2.869l-3.433,17.32
		c-4.184-1.337-11.892-3.268-18.686-4.715L1069.422,544.548L1069.422,544.548z"/>
	
		<text transform="matrix(0.9809 0.1944 -0.1944 0.9809 864.6904 525.6821)" fill="#E28C36" font-family="'DunkelSans-Mediumv0.7'" font-size="99.2072">EPSE</text>
	
		<text transform="matrix(0.9809 0.1944 -0.1944 0.9809 864.6904 525.6821)" fill="#E28C36" font-family="'DunkelSans-Mediumv0.7'" font-size="99.2072">EPSE</text>
	
		<text transform="matrix(0.9809 0.1944 -0.1944 0.9809 864.6904 525.6821)" fill="#E28C36" font-family="'DunkelSans-Mediumv0.7'" font-size="99.2072">EPSE</text>
	<path fill="#5C6466" d="M144.631,506.22c-8.284,3.104-17.494,2.551-25.35-1.517c-7.854-4.067-13.62-11.274-15.865-19.83
		c-4.041-15.395-10.515-33.702-16.78-51.41l-0.318-0.908L33.881,292.568l-0.356-0.896c-6.912-17.464-14.059-35.522-21.125-49.783
		c-3.927-7.925-4.315-17.145-1.067-25.372c3.25-8.227,9.834-14.694,18.115-17.796l127.813-47.876
		c61.349-22.981,110.31,0.611,134.324,64.725c5.736,15.305,6.902,31.792,3.945,47.319c17.221,10.013,31.439,26.765,39.469,48.208
		c35.84,95.68-29.607,134.906-98.355,160.658L144.631,506.22L144.631,506.22z"/>
	<path fill="#5C6466" d="M319.154,376.66c-8.734,0-17.073-3.657-22.994-10.079c-5.92-6.424-8.884-15.03-8.173-23.74
		c0.801-9.805,1.356-22.677,1.649-38.258l-0.252-104.8c0-13.341-0.508-27.19-1.397-38.075c-0.711-8.708,2.252-17.314,8.173-23.739
		c5.92-6.423,14.259-10.077,22.994-10.077h64.83c8.736,0,17.073,3.654,22.992,10.077c5.923,6.424,8.884,15.03,8.175,23.739
		c-0.801,9.813-1.358,22.696-1.649,38.295v104.541c0.292,15.599,0.848,28.485,1.649,38.296c0.709,8.71-2.252,17.316-8.175,23.74
		c-5.918,6.422-14.255,10.079-22.992,10.079H319.154L319.154,376.66z"/>
	<path fill="#5C6466" d="M683.054,363.737c-1.121,0.255-2.264,0.449-3.419,0.582l-83.874,9.55
		c-12.1,1.377-23.897-4.393-30.235-14.789l-1.763-2.891c-0.924,4.236-2.73,8.279-5.353,11.846
		c-4.47,6.08-10.956,10.307-18.237,11.969c-1.125,0.259-2.266,0.453-3.423,0.585l-93.523,10.649
		c-8.757,0.996-17.526-1.748-24.153-7.558c-6.625-5.812-10.492-14.15-10.649-22.961c-0.316-17.866-2.391-39.425-4.398-60.276
		l-0.131-1.372l-18.848-165.548l-0.175-1.336c-2.735-20.779-5.56-42.266-9.272-59.756c-1.834-8.646,0.079-17.665,5.26-24.825
		c4.472-6.174,11.017-10.47,18.372-12.149c1.171-0.267,2.361-0.469,3.567-0.599l84.292-9.196
		c11.749-1.282,23.216,4.168,29.64,14.086l1.876,2.896c0.924-4.009,2.643-7.839,5.098-11.25c4.47-6.204,11.033-10.521,18.408-12.205
		c1.125-0.256,2.266-0.452,3.424-0.584L639.06,7.956c8.65-0.985,17.322,1.682,23.925,7.36c6.602,5.679,10.54,13.853,10.861,22.556
		c0.594,16.118,2.123,37.061,4.544,62.25l18.848,165.544c3.314,25.138,6.532,45.89,9.567,61.687
		c1.643,8.551-0.355,17.4-5.514,24.418C696.823,357.85,690.337,362.075,683.054,363.737L683.054,363.737z"/>
	<g>
		<defs>
			<rect id="SVGID_3_" y="0" width="1190.72" height="640.012"/>
		</defs>
		<clipPath id="SVGID_4_">
			<use xlink:href="#SVGID_3_"  overflow="visible"/>
		</clipPath>
		<path clip-path="url(#SVGID_4_)" fill="#5C6466" d="M755.465,374.101c-44.067-3.864-117.479-28.808-113.996-152.476
			C645.483,78.938,752.242,80.489,787.324,80.997c5.432,0.059,11.34,0.362,17.457,0.897c13.294,1.166,28.284,3.485,45.814,7.089
			c15.639,3.217,26.343,17.695,24.832,33.587c-1.108,11.683-2.712,25.062-4.264,38c-0.952,7.923-1.869,15.577-2.627,22.442
			c0.756,0.712,1.472,1.468,2.158,2.264c5.737,6.665,8.412,15.437,7.353,24.166c-2.057,16.968-3.153,31.126-3.571,45.901
			l-1.888,66.982l1.211,14.273c1.409,16.655-10.527,31.474-27.102,33.645c-30.503,3.991-57.556,5.428-82.705,4.396
			C761.157,374.528,758.295,374.349,755.465,374.101L755.465,374.101z"/>
		<path clip-path="url(#SVGID_4_)" fill="#5C6466" d="M954.137,461.089c-12.397-3.762-25.313-9.073-38.381-15.799
			c-99.621-51.255-119.521-136.744-59.152-254.091C908.576,90.172,976.646,51.6,1058.921,76.555
			c12.407,3.763,25.329,9.082,38.406,15.809c99.623,51.254,119.66,136.481,59.554,253.315
			C1104.645,447.22,1036.433,486.049,954.137,461.089L954.137,461.089z"/>
		<path clip-path="url(#SVGID_4_)" fill="#EAEBED" d="M135.484,499.627c-8.284,3.104-17.494,2.553-25.35-1.517
			c-7.854-4.066-13.618-11.271-15.865-19.827c-4.04-15.395-10.515-33.702-16.78-51.413l-0.319-0.906L24.733,285.975l-0.355-0.894
			c-6.912-17.466-14.059-35.524-21.125-49.784c-3.927-7.926-4.315-17.144-1.067-25.372c3.25-8.227,9.833-14.694,18.115-17.796
			l127.812-47.876c61.352-22.979,110.31,0.612,134.327,64.725c5.733,15.305,6.9,31.792,3.943,47.321
			c17.221,10.013,31.437,26.765,39.469,48.205c35.839,95.682-29.607,134.909-98.355,160.658L135.484,499.627L135.484,499.627z"/>
		<path clip-path="url(#SVGID_4_)" fill="#EAEBED" d="M312.901,367.278c-8.736,0-17.073-3.656-22.996-10.076
			c-5.921-6.428-8.884-15.032-8.171-23.742c0.802-9.805,1.354-22.675,1.647-38.259l-0.25-104.799
			c0-13.342-0.508-27.191-1.398-38.075c-0.713-8.709,2.25-17.314,8.171-23.74c5.923-6.422,14.259-10.078,22.996-10.078h64.831
			c8.734,0,17.073,3.656,22.991,10.078c5.923,6.425,8.887,15.031,8.175,23.74c-0.802,9.812-1.356,22.696-1.649,38.294v104.542
			c0.293,15.597,0.848,28.485,1.649,38.296c0.711,8.71-2.252,17.314-8.175,23.742c-5.918,6.42-14.257,10.076-22.991,10.076H312.901
			L312.901,367.278z"/>
		<path clip-path="url(#SVGID_4_)" fill="#EAEBED" d="M674.869,355.983c-1.123,0.256-2.267,0.449-3.421,0.582l-83.872,9.55
			c-12.1,1.377-23.897-4.394-30.236-14.788l-1.763-2.892c-0.924,4.236-2.732,8.279-5.352,11.846
			c-4.47,6.08-10.958,10.307-18.237,11.97c-1.125,0.255-2.266,0.451-3.424,0.584l-93.522,10.649
			c-8.757,0.995-17.526-1.749-24.153-7.558c-6.627-5.812-10.495-14.149-10.649-22.961c-0.316-17.867-2.391-39.425-4.398-60.276
			l-0.132-1.373L376.863,125.77l-0.176-1.337c-2.735-20.778-5.56-42.266-9.272-59.755c-1.834-8.646,0.078-17.666,5.26-24.825
			c4.47-6.174,11.016-10.471,18.372-12.149c1.171-0.268,2.36-0.469,3.566-0.601l84.292-9.196
			c11.746-1.281,23.215,4.168,29.637,14.086l1.878,2.897c0.924-4.009,2.641-7.838,5.096-11.25
			c4.47-6.203,11.032-10.521,18.411-12.205c1.125-0.258,2.266-0.453,3.423-0.584l93.523-10.649
			c8.653-0.985,17.325,1.683,23.927,7.36c6.602,5.678,10.538,13.852,10.861,22.555c0.594,16.118,2.126,37.062,4.544,62.25
			l18.848,165.545c3.314,25.138,6.532,45.889,9.567,61.687c1.643,8.55-0.355,17.4-5.516,24.417
			C688.639,350.095,682.15,354.32,674.869,355.983L674.869,355.983z"/>
		<path clip-path="url(#SVGID_4_)" fill="#EAEBED" d="M750.055,364.208c-44.067-3.861-117.479-28.808-113.998-152.475
			C640.071,69.047,746.835,70.598,781.915,71.106c5.428,0.059,11.337,0.361,17.454,0.898c13.294,1.164,28.283,3.483,45.814,7.089
			c15.639,3.215,26.345,17.693,24.834,33.586c-1.108,11.683-2.714,25.061-4.264,38c-0.954,7.923-1.871,15.576-2.627,22.441
			c0.753,0.713,1.472,1.469,2.155,2.264c5.743,6.664,8.413,15.437,7.354,24.166c-2.054,16.968-3.153,31.126-3.571,45.902
			l-1.883,66.979l1.205,14.276c1.409,16.655-10.526,31.472-27.101,33.645c-30.504,3.99-57.554,5.428-82.705,4.395
			C755.747,364.636,752.885,364.457,750.055,364.208L750.055,364.208z"/>
		<path clip-path="url(#SVGID_4_)" fill="#EAEBED" d="M950.875,450.298c-12.397-3.761-25.313-9.076-38.381-15.802
			c-99.621-51.254-119.521-136.744-59.152-254.09C905.314,79.379,973.384,40.808,1055.659,65.763
			c12.407,3.763,25.329,9.082,38.406,15.809c99.623,51.254,119.66,136.482,59.554,253.317
			C1101.383,436.429,1033.171,475.258,950.875,450.298L950.875,450.298z"/>
	</g>
	<path fill="#AC7743" d="M201.032,377.204c15.057-5.64,15.147-18.645,11.01-29.687c-4.387-11.712-12.872-21.123-27.928-15.481
		l-12.714,4.762l16.919,45.168L201.032,377.204L201.032,377.204z M137.311,245.789l16.041,42.827l11.377-4.261
		c14.052-5.262,13.178-16.764,9.043-27.806c-4.137-11.042-10.908-19.95-25.086-15.021L137.311,245.789L137.311,245.789z
		 M296.567,315.475c21.934,58.554,1.599,89.825-80.042,120.405l-92.01,34.465c-4.47-17.02-11.529-36.887-17.962-55.081
		L53.915,274.737c-7.103-17.941-14.832-37.556-22.645-53.325l127.812-47.875c42.158-15.792,75.147-4.113,94.073,46.41
		c7.896,21.078,2.074,44.242-11.564,57.744C265.304,273.771,287.167,290.38,296.567,315.475L296.567,315.475z"/>
	<path fill="#AC7743" d="M314.654,295.457l-0.251-105.128c0-13.516-0.501-28.284-1.502-40.55h64.831
		c-1.005,12.266-1.504,27.034-1.753,40.55v105.128c0.25,13.518,0.749,28.286,1.753,40.551h-64.831
		C313.901,323.743,314.403,308.975,314.654,295.457L314.654,295.457z"/>
	<path fill="#AC7743" d="M658.013,261.725c2.81,21.316,6.207,44.563,9.898,63.77l-83.874,9.55l-78.122-128.107l8.847,71.097
		c2.807,21.315,6.575,44.521,10.264,63.729l-93.521,10.647c-0.347-19.589-2.638-42.961-4.694-64.361L407.9,121.957
		c-2.807-21.312-5.828-44.603-9.896-63.769l84.294-9.196l77.08,119.01l-7.859-62.398c-2.8-21.313-6.572-44.519-10.63-63.685
		l93.52-10.648c0.724,19.546,2.639,42.963,4.696,64.36L658.013,261.725L658.013,261.725z"/>
	<path fill="#AC7743" d="M667.315,212.614c2.546-90.452,47.789-111.205,114.146-110.242c17.493,0.192,37.024,3.156,57.427,7.351
		c-2.146,22.57-6.312,52.628-8.06,71.89c-16.112-6.489-33.835-9.402-46.496-9.757c-31.056-0.875-42.758,7.545-43.668,39.807
		c-1.017,36.18,3.675,51.701,25.685,52.321l5.729,0.161l0.652-23.217l-14.473-0.406l1.326-47.035l82.01,2.31
		c-1.966,16.238-3.306,31.589-3.786,48.774l-1.938,68.745l1.36,16.03c-28.468,3.727-53.855,5.124-77.364,4.159
		C707.121,331.417,664.77,303.066,667.315,212.614L667.315,212.614z"/>
	<path fill="#AC7743" d="M1028.256,270.392c25.292-49.164,31.589-71.873,11.071-82.428c-20.518-10.556-35.329,7.771-60.623,56.936
		c-25.694,49.939-31.788,72.261-11.273,82.815C987.948,338.27,1002.563,320.331,1028.256,270.392L1028.256,270.392z
		 M881.147,194.711c50.788-98.716,113.054-129.348,198.609-85.333s96.842,112.488,46.057,211.205
		c-51.188,99.492-113.458,130.125-199.014,86.108C841.245,362.677,829.963,294.202,881.147,194.711L881.147,194.711z"/>
	<path fill="#E28C36" d="M201.032,377.204c15.057-5.64,15.147-18.645,11.01-29.687c-4.387-11.712-12.872-21.123-27.928-15.481
		l-12.714,4.762l16.919,45.168L201.032,377.204L201.032,377.204z M137.311,245.789l16.041,42.827l11.377-4.261
		c14.052-5.262,13.178-16.764,9.043-27.806c-4.137-11.042-10.908-19.95-25.086-15.021L137.311,245.789L137.311,245.789z
		 M296.567,315.475c21.934,58.554,1.599,89.825-80.042,120.405l-92.01,34.465c-4.47-17.02-11.529-36.887-17.962-55.081
		L53.915,274.737c-7.103-17.941-14.832-37.556-22.645-53.325l127.812-47.875c42.158-15.792,75.147-4.113,94.073,46.41
		c7.896,21.078,2.074,44.242-11.564,57.744C265.304,273.771,287.167,290.38,296.567,315.475L296.567,315.475z"/>
	<path fill="#E28C36" d="M314.654,295.457l-0.251-105.128c0-13.516-0.501-28.284-1.502-40.55h64.831
		c-1.005,12.266-1.504,27.034-1.753,40.55v105.128c0.25,13.518,0.749,28.286,1.753,40.551h-64.831
		C313.901,323.743,314.403,308.975,314.654,295.457L314.654,295.457z"/>
	<path fill="#E28C36" d="M658.013,261.725c2.81,21.316,6.207,44.563,9.898,63.77l-83.874,9.55l-78.122-128.107l8.847,71.097
		c2.807,21.315,6.575,44.521,10.264,63.729l-93.521,10.647c-0.347-19.589-2.638-42.961-4.694-64.361L407.9,121.957
		c-2.807-21.312-5.828-44.603-9.896-63.769l84.294-9.196l77.08,119.01l-7.859-62.398c-2.8-21.313-6.572-44.519-10.63-63.685
		l93.52-10.648c0.724,19.546,2.639,42.963,4.696,64.36L658.013,261.725L658.013,261.725z"/>
	<path fill="#E28C36" d="M667.315,212.614c2.546-90.452,47.789-111.205,114.146-110.242c17.493,0.192,37.024,3.156,57.427,7.351
		c-2.146,22.57-6.312,52.628-8.06,71.89c-16.112-6.489-33.835-9.402-46.496-9.757c-31.056-0.875-42.758,7.545-43.668,39.807
		c-1.017,36.18,3.675,51.701,25.685,52.321l5.729,0.161l0.652-23.217l-14.473-0.406l1.326-47.035l82.01,2.31
		c-1.966,16.238-3.306,31.589-3.786,48.774l-1.938,68.745l1.36,16.03c-28.468,3.727-53.855,5.124-77.364,4.159
		C707.121,331.417,664.77,303.066,667.315,212.614L667.315,212.614z"/>
	<path fill="#E28C36" d="M1028.256,270.392c25.292-49.164,31.589-71.873,11.071-82.428c-20.518-10.556-35.329,7.771-60.623,56.936
		c-25.694,49.939-31.788,72.261-11.273,82.815C987.948,338.27,1002.563,320.331,1028.256,270.392L1028.256,270.392z
		 M881.147,194.711c50.788-98.716,113.054-129.348,198.609-85.333s96.842,112.488,46.057,211.205
		c-51.188,99.492-113.458,130.125-199.014,86.108C841.245,362.677,829.963,294.202,881.147,194.711L881.147,194.711z"/>
	<path fill="#5C6466" d="M874.675,539.788c-2.79-0.705-5.622-1.379-8.461-2.051c14.255-13.242,22.619-33.232,24.675-59.681
		c1.236-15.903-0.342-29.326-4.945-40.598c2.695-4.045,4.444-8.715,5.033-13.656l6.253-52.671
		c1.955-16.457-9.268-31.575-25.578-34.474c-16.843-2.997-33.238-5.786-48.711-6.987c-1.111-0.086-2.216-0.163-3.192-0.222
		c-21.976-1.477-40.178,1.092-54.564,7.67c-5.195-3.636-11.414-5.688-17.907-5.688h-49.555c-4.301,0-8.417,0.873-12.171,2.46
		c-3.756-1.587-7.875-2.46-12.174-2.46h-60.751c-8.787,0-17.099,3.714-22.984,10.112c-18.009-11.198-40.254-15.163-66.394-11.73
		c-22.553,2.962-40.889,10.484-54.816,22.422c-11.811-11.247-28.217-18.067-48.36-19.408l-82.116-5.462
		c-8.829-0.589-17.487,2.591-23.842,8.748c-6.35,6.157-9.796,14.715-9.485,23.557c0.321,9.074-0.229,20.511-0.76,31.569
		l-6.032,90.634c-0.94,11.032-1.908,22.441-3.428,31.393c-1.483,8.724,0.801,17.66,6.281,24.605
		c2.689,3.406,6.027,6.166,9.769,8.173c-64.8,9.837-123.075,20.35-177.96,32.119c-16.629,3.563-27.362,19.771-24.151,36.474
		c2.869,14.94,15.946,25.377,30.672,25.377c1.742,0,3.504-0.147,5.276-0.448c54.962-9.346,113.386-17.288,178.561-24.283
		c63.788-6.753,122.451-11.139,179.318-13.402c28.967-1.138,55.639-1.689,81.531-1.689c34.145,0,65.688,0.958,96.535,2.94
		c29.933,1.819,59.099,4.88,86.681,9.1c31.36,4.807,58.417,10.68,82.922,18.013c0.665,0.198,1.333,0.384,1.812,0.499
		c3.768,0.954,7.644,1.439,11.521,1.439c21.492,0,40.188-14.561,45.464-35.402C914.989,571.708,899.755,546.146,874.675,539.788
		L874.675,539.788z"/>
	<path fill="#5C6466" d="M326.29,549.701c-8.829-0.589-16.993-4.887-22.472-11.831c-5.479-6.945-7.764-15.882-6.281-24.605
		c1.518-8.951,2.488-20.36,3.428-31.393l6.031-90.634c0.529-11.059,1.081-22.495,0.76-31.569
		c-0.314-8.842,3.132-17.399,9.485-23.557s15.013-9.337,23.841-8.748l82.116,5.462c45.899,3.054,72.441,34.535,69.272,82.154
		c-0.614,9.225-3.238,18.117-7.452,26.083c5.678,10.784,8.466,23.586,7.561,37.188c-5.468,82.149-79.358,77.233-107.177,75.385
		L326.29,549.701L326.29,549.701z"/>
	<path fill="#5C6466" d="M556.061,555.873c-33.104,4.345-59.979-3.129-79.871-22.219c-17.9-17.178-28.856-42.718-33.502-78.088
		c-4.622-35.196-0.603-62.598,12.285-83.77c14.315-23.515,38.337-37.642,71.402-41.984c33.065-4.341,59.926,3.104,79.822,22.126
		c17.919,17.129,28.878,42.564,33.497,77.758c4.646,35.37,0.651,62.878-12.206,84.091
		C613.196,537.366,589.166,551.525,556.061,555.873L556.061,555.873z"/>
	<path fill="#5C6466" d="M655.825,553.825c-8.847,0-17.278-3.747-23.208-10.313s-8.799-15.337-7.903-24.134
		c0.922-9,1.133-20.403,1.338-31.434l0.012-0.583v-2.58c-16.156-38.169-29.725-76.31-40.37-113.471
		c-2.705-9.435-0.82-19.593,5.089-27.433c5.907-7.841,15.154-12.448,24.969-12.448h60.753c4.299,0,8.415,0.873,12.171,2.46
		c3.754-1.587,7.87-2.46,12.174-2.46h49.555c9.725,0,18.896,4.525,24.812,12.241c5.918,7.721,7.911,17.752,5.385,27.146
		c-8.817,32.812-22.937,74.013-39,113.889l0.009,3.012c0.203,11.113,0.414,22.602,1.336,31.669
		c0.898,8.799-1.976,17.567-7.903,24.129c-5.93,6.563-14.361,10.31-23.206,10.31H655.825L655.825,553.825z"/>
	<path fill="#EAEBED" d="M868.42,530.406c-2.788-0.705-5.623-1.379-8.462-2.05c14.257-13.242,22.622-33.233,24.678-59.681
		c1.233-15.9-0.344-29.326-4.948-40.598c2.698-4.045,4.447-8.715,5.036-13.656l6.253-52.671
		c1.954-16.457-9.268-31.577-25.578-34.475c-16.843-2.996-33.241-5.783-48.714-6.987c-1.108-0.085-2.213-0.164-3.19-0.223
		c-21.975-1.476-40.18,1.092-54.566,7.671c-5.195-3.636-11.414-5.689-17.905-5.689h-49.554c-4.304,0-8.42,0.873-12.174,2.46
		c-3.756-1.587-7.875-2.46-12.171-2.46h-60.751c-8.79,0-17.099,3.714-22.987,10.113c-18.009-11.199-40.25-15.163-66.392-11.728
		c-22.552,2.961-40.889,10.48-54.816,22.419c-11.813-11.248-28.219-18.067-48.358-19.408l-82.118-5.462
		c-8.829-0.589-17.489,2.59-23.839,8.747c-6.354,6.157-9.801,14.716-9.489,23.558c0.323,9.074-0.229,20.512-0.758,31.569
		l-6.031,90.635c-0.94,11.032-1.911,22.44-3.428,31.392c-1.483,8.724,0.802,17.66,6.279,24.604c2.691,3.407,6.029,6.168,9.771,8.173
		c-64.802,9.839-123.074,20.351-177.96,32.121c-16.632,3.562-27.362,19.77-24.153,36.473c2.871,14.939,15.948,25.376,30.674,25.376
		c1.74,0,3.504-0.146,5.276-0.446c54.961-9.347,113.384-17.29,178.558-24.284c63.793-6.753,122.453-11.137,179.321-13.402
		c28.968-1.138,55.637-1.688,81.532-1.688c34.142,0,65.685,0.958,96.532,2.94c29.934,1.819,59.102,4.88,86.684,9.099
		c31.36,4.808,58.42,10.681,82.919,18.016c0.668,0.196,1.338,0.382,1.813,0.497c3.768,0.953,7.642,1.438,11.522,1.438
		c21.492,0,40.185-14.559,45.463-35.4C908.733,562.328,893.502,536.764,868.42,530.406L868.42,530.406z"/>
	<path fill="#AC7743" d="M384.171,476.963c9.672,0.644,12.952-6.479,13.426-13.572c0.501-7.524-1.82-14.806-11.497-15.449
		l-8.166-0.541l-1.931,29.019L384.171,476.963L384.171,476.963z M381.825,388.928l-1.832,27.516l7.309,0.487
		c9.027,0.601,11.407-5.936,11.878-13.029c0.474-7.094-1.033-13.669-10.048-14.486L381.825,388.928L381.825,388.928z
		 M451.998,466.795c-2.502,37.617-21.449,49.744-73.899,46.253l-59.113-3.932c1.774-10.462,2.832-23.131,3.821-34.724l6.006-90.287
		c0.559-11.621,1.187-24.319,0.813-34.923l82.118,5.464c27.083,1.802,42.306,16.416,40.146,48.877
		c-0.901,13.543-9.856,24.82-20.705,28.849C445.186,436.113,453.07,450.671,451.998,466.795L451.998,466.795z"/>
	<path fill="#AC7743" d="M545.481,431.453c-3.564-27.127-7.401-38.141-18.72-36.652c-11.321,1.485-12.186,13.114-8.624,40.243
		c3.62,27.555,7.427,38.354,18.748,36.867C548.207,470.423,549.099,459.008,545.481,431.453L545.481,431.453z M464.31,442.112
		c-7.154-54.47,9.55-84.475,56.757-90.675c47.207-6.197,71.088,18.479,78.242,72.947c7.21,54.897-9.494,84.903-56.701,91.104
		C495.4,521.684,471.52,497.009,464.31,442.112L464.31,442.112z"/>
	<path fill="#AC7743" d="M700.949,478.271c0.215,11.637,0.43,24.346,1.508,34.903h-56.013c1.076-10.558,1.291-23.267,1.506-34.903
		v-9.262c-16.588-38.564-30.591-77.344-41.579-115.691h60.755c3.015,19.174,6.676,38.133,12.712,59.246h0.645
		c5.387-21.113,8.618-40.072,10.988-59.246h49.552c-9.268,34.471-24.13,76.912-40.073,115.906V478.271L700.949,478.271z"/>
	<path fill="#AC7743" d="M746.825,453.643c14.505,8.042,37.383,13.925,47.91,14.744c7.302,0.566,9.386-1.217,9.651-4.654
		c0.318-4.079-0.624-5.882-6.323-7.62l-17.096-5.219c-26.399-7.886-33.361-21.178-30.756-54.685
		c2.805-36.084,20.345-47.687,61.189-44.943c14.835,0.937,31.26,3.727,48.521,6.796l-6.255,52.672
		c-15.644-4.456-32.576-9.015-42.456-9.784c-4.081-0.316-6.808,1.417-7.16,5.929c-0.333,4.295,1.914,5.981,5.712,7.142l11.776,4.158
		c26.117,8.728,34.14,19.508,31.918,48.075c-3.02,38.879-20.051,52.248-57.887,49.738c-15.267-0.971-41.123-4.708-54.72-7.71
		L746.825,453.643L746.825,453.643z"/>
	<path fill="#E28C36" d="M384.171,476.963c9.672,0.644,12.952-6.479,13.426-13.572c0.501-7.524-1.82-14.806-11.497-15.449
		l-8.166-0.541l-1.931,29.019L384.171,476.963L384.171,476.963z M381.825,388.928l-1.832,27.516l7.309,0.487
		c9.027,0.601,11.407-5.936,11.878-13.029c0.474-7.094-1.033-13.669-10.048-14.486L381.825,388.928L381.825,388.928z
		 M451.998,466.795c-2.502,37.617-21.449,49.744-73.899,46.253l-59.113-3.932c1.774-10.462,2.832-23.131,3.821-34.724l6.006-90.287
		c0.559-11.621,1.187-24.319,0.813-34.923l82.118,5.464c27.083,1.802,42.306,16.416,40.146,48.877
		c-0.901,13.543-9.856,24.82-20.705,28.849C445.186,436.113,453.07,450.671,451.998,466.795L451.998,466.795z"/>
	<path fill="#E28C36" d="M545.481,431.453c-3.564-27.127-7.401-38.141-18.72-36.652c-11.321,1.485-12.186,13.114-8.624,40.243
		c3.62,27.555,7.427,38.354,18.748,36.867C548.207,470.423,549.099,459.008,545.481,431.453L545.481,431.453z M464.31,442.112
		c-7.154-54.47,9.55-84.475,56.757-90.675c47.207-6.197,71.088,18.479,78.242,72.947c7.21,54.897-9.494,84.903-56.701,91.104
		C495.4,521.684,471.52,497.009,464.31,442.112L464.31,442.112z"/>
	<path fill="#E28C36" d="M700.949,478.271c0.215,11.637,0.43,24.346,1.508,34.903h-56.013c1.076-10.558,1.291-23.267,1.506-34.903
		v-9.262c-16.588-38.564-30.591-77.344-41.579-115.691h60.755c3.015,19.174,6.676,38.133,12.712,59.246h0.645
		c5.387-21.113,8.618-40.072,10.988-59.246h49.552c-9.268,34.471-24.13,76.912-40.073,115.906V478.271L700.949,478.271z"/>
	<path fill="#E28C36" d="M746.825,453.643c14.505,8.042,37.383,13.925,47.91,14.744c7.302,0.566,9.386-1.217,9.651-4.654
		c0.318-4.079-0.624-5.882-6.323-7.62l-17.096-5.219c-26.399-7.886-33.361-21.178-30.756-54.685
		c2.805-36.084,20.345-47.687,61.189-44.943c14.835,0.937,31.26,3.727,48.521,6.796l-6.255,52.672
		c-15.644-4.456-32.576-9.015-42.456-9.784c-4.081-0.316-6.808,1.417-7.16,5.929c-0.333,4.295,1.914,5.981,5.712,7.142l11.776,4.158
		c26.117,8.728,34.14,19.508,31.918,48.075c-3.02,38.879-20.051,52.248-57.887,49.738c-15.267-0.971-41.123-4.708-54.72-7.71
		L746.825,453.643L746.825,453.643z"/>
	<path fill-rule="evenodd" clip-rule="evenodd" fill="#5C6466" d="M574.077,349.363c-8.674-14.691-24.659-23.489-41.718-22.99
		c8.413,2.021,15.798,7.059,20.76,14.164c-13.521-12.993-33.398-16.908-50.832-10.003c8.288-2.378,17.188-1.467,24.846,2.517
		c-22.407-4.371-45.389,4.203-59.443,22.188c10.46-7.605,23.646-10.454,36.313-7.87c-20.686-1.885-39.919,10.823-46.297,30.588
		c5.174-5.268,12.402-7.997,19.769-7.5c-32.091,5.629-23.851,41.097-11.693,61.342c-2.793-34.319-2.377-68.741,43.308-60.585
		c-3.774-3.118-8.274-5.228-13.058-6.146c18.491-0.099,19.45,9.834,45.583,2.997c-5.93-6.469-13.417-11.285-21.744-14.012
		c8.334,1.479,16.251,4.684,23.22,9.4c11.215,7.566,23.902,1.065,29.293-9.737c-0.783,4.192-2.181,8.055-4.211,12.006
		c21.264,3.947,25.068,29.441,26.81,55.478C603.587,399.635,603.749,354.178,574.077,349.363L574.077,349.363L574.077,349.363z"/>
	<path fill-rule="evenodd" clip-rule="evenodd" fill="#5C6466" d="M504.179,447.211c6.484-3.027,10.746-9.81,10.198-17.354
		c-0.071-0.97-0.217-1.916-0.441-2.814L504.179,447.211L504.179,447.211z M496.246,448.84c0.584,0.018,1.168,0.012,1.751-0.029
		c0.97-0.069,1.933-0.219,2.855-0.44l11.945-24.674c-0.667-1.415-1.503-2.718-2.488-3.912L496.246,448.84L496.246,448.84z
		 M485.777,445.08c1.592,1.249,3.396,2.229,5.373,2.884l15.304-31.623c-1.684-1.126-3.576-1.943-5.599-2.439L485.777,445.08
		L485.777,445.08z M489.224,415.06c-6.468,3.025-10.749,9.81-10.199,17.371c0.069,0.952,0.215,1.896,0.439,2.797L489.224,415.06
		L489.224,415.06z"/>
	<path fill-rule="evenodd" clip-rule="evenodd" fill="#5C6466" d="M495.207,410.493c-11.402,0.83-19.979,10.753-19.15,22.157
		c0.832,11.383,10.753,19.96,22.157,19.127c11.402-0.831,19.958-10.751,19.129-22.136
		C516.514,418.239,506.608,409.66,495.207,410.493L495.207,410.493L495.207,410.493z M561.857,405.637
		c-11.402,0.829-19.958,10.753-19.127,22.156c0.827,11.382,10.73,19.959,22.135,19.129c11.402-0.831,19.96-10.753,19.129-22.136
		C583.165,413.383,573.259,404.806,561.857,405.637L561.857,405.637L561.857,405.637z M539.208,417.717
		c3.379-9.526,12.093-16.263,22.292-17.006c10.277-0.748,19.563,4.676,24.271,13.126c0.414-0.226,0.871-0.354,1.375-0.393
		c1.979-0.145,3.708,1.348,3.849,3.325c0.129,1.746-1.026,3.293-2.652,3.742c0.289,1.266,0.48,2.579,0.58,3.915
		c1.028,14.119-9.58,26.394-23.698,27.422c-14.117,1.027-26.392-9.579-27.42-23.699c-0.134-1.842-0.074-3.678,0.185-5.489
		c-2.772-0.58-5.623-0.896-8.453-0.691c-2.832,0.206-5.585,0.933-8.244,1.907c0.518,1.755,0.845,3.564,0.979,5.406
		c1.025,14.118-9.58,26.393-23.698,27.421c-14.119,1.029-26.392-9.58-27.422-23.697c-0.097-1.338-0.097-2.663,0.005-3.957
		c-1.672-0.211-3.038-1.572-3.165-3.319c-0.144-1.978,1.349-3.704,3.326-3.849c0.503-0.038,0.977,0.027,1.416,0.189
		c3.417-9.04,11.839-15.756,22.116-16.506c10.199-0.742,19.797,4.66,24.521,13.597c3.148-1.223,6.415-2.124,9.79-2.37
		C532.531,416.545,535.913,416.961,539.208,417.717L539.208,417.717L539.208,417.717z"/>
	<path fill-rule="evenodd" clip-rule="evenodd" fill="#5C6466" d="M570.848,442.355c6.465-3.025,10.729-9.807,10.18-17.354
		c-0.069-0.969-0.217-1.913-0.418-2.814L570.848,442.355L570.848,442.355z M562.917,443.985c0.564,0.019,1.148,0.014,1.73-0.028
		c0.991-0.07,1.936-0.22,2.855-0.442l11.945-24.674c-0.647-1.414-1.483-2.719-2.467-3.913L562.917,443.985L562.917,443.985z
		 M552.427,440.225c1.592,1.25,3.417,2.228,5.375,2.885l15.302-31.624c-1.682-1.126-3.574-1.941-5.579-2.44L552.427,440.225
		L552.427,440.225z M555.893,410.204c-6.487,3.026-10.749,9.81-10.196,17.372c0.067,0.951,0.215,1.895,0.418,2.799L555.893,410.204
		L555.893,410.204z"/>
	<path fill="#5C6466" d="M132.802,599.353c59.427-12.741,119.355-23.226,179.517-32.304c60.176-8.994,120.647-16.366,181.414-21.407
		c60.765-4.998,121.841-7.842,183.151-6.538c30.651,0.549,61.362,2.35,92.058,5.703c30.684,3.366,61.391,8.215,91.807,15.917
		c8.374,2.12,13.444,10.625,11.323,18.999c-2.118,8.374-10.626,13.443-18.999,11.321c-0.199-0.05-0.396-0.104-0.59-0.16
		l-0.127-0.038c-28.187-8.44-57.417-14.383-86.95-18.908c-29.548-4.521-59.464-7.576-89.52-9.402
		c-60.111-3.865-120.688-3.664-181.192-1.287c-60.522,2.413-121.026,7.166-181.381,13.555
		C252.966,581.28,192.712,589.171,132.802,599.353L132.802,599.353z"/>
	<path fill="#E28C36" d="M132.802,599.353c59.427-12.741,119.355-23.226,179.517-32.304c60.176-8.994,120.647-16.366,181.414-21.407
		c60.765-4.998,121.841-7.842,183.151-6.538c30.651,0.549,61.362,2.35,92.058,5.703c30.684,3.366,61.391,8.215,91.807,15.917
		c8.374,2.12,13.444,10.625,11.323,18.999c-2.118,8.374-10.626,13.443-18.999,11.321c-0.199-0.05-0.396-0.104-0.59-0.16
		l-0.127-0.038c-28.187-8.44-57.417-14.383-86.95-18.908c-29.548-4.521-59.464-7.576-89.52-9.402
		c-60.111-3.865-120.688-3.664-181.192-1.287c-60.522,2.413-121.026,7.166-181.381,13.555
		C252.966,581.28,192.712,589.171,132.802,599.353L132.802,599.353z"/>
	<path fill="#EAEBED" d="M1112.898,489.408c-1.836-2.859-4.761-4.851-8.097-5.511l-47.094-9.334
		c-0.807-0.158-1.624-0.237-2.433-0.237c-0.69,0-1.379,0.063-2.058,0.176c-0.763-0.422-1.566-0.785-2.433-1.045
		c-8.007-2.429-15.808-4.718-23.145-6.063c-4.766-0.892-8.921-1.324-12.707-1.324c-7.662,0-14.04,1.802-19.115,5.372
		c-5.634-7.234-14.737-12.062-27.741-14.638l-29.385-5.823c-0.807-0.159-1.622-0.239-2.433-0.239c-0.411,0-0.817,0.057-1.227,0.097
		c-1.054-0.553-2.162-1.013-3.352-1.247l-47.097-9.334c-0.807-0.158-1.619-0.236-2.43-0.236c-2.673,0-5.295,0.857-7.471,2.478
		c-2.839,2.113-4.646,5.329-4.983,8.851c-0.406,4.293-1.397,9.821-2.264,14.646l-8.057,40.682
		c-1.063,4.889-2.265,10.431-3.532,14.602c-1.035,3.383-0.585,7.042,1.231,10.075c1.817,3.029,4.832,5.153,8.3,5.84l47.583,9.431
		c0.807,0.159,1.624,0.236,2.433,0.236c0.323,0,0.643-0.045,0.966-0.07c0.991,0.494,2.021,0.905,3.125,1.126l25.3,5.014
		c0.804,0.159,1.619,0.237,2.43,0.237c2.673,0,5.297-0.856,7.476-2.479c2.837-2.115,4.646-5.334,4.978-8.857
		c0.074-0.766,0.162-1.563,0.266-2.388c2.104,0.386,4.207,0.578,6.263,0.578c2.604,0,5.101-0.335,7.503-0.919l-1.323,5.737
		c-1.439,6.222,2.039,12.525,8.07,14.626c6.856,2.393,19.222,5.658,26.427,6.981c3.971,0.74,7.521,1.102,10.851,1.102
		c4.583,0,8.711-0.695,12.397-2.056c0.027,0.049,0.041,0.107,0.071,0.159c1.818,3.034,4.837,5.158,8.305,5.847l47.584,9.432
		c0.822,0.16,1.635,0.241,2.441,0.241c5.854,0,11.079-4.126,12.259-10.08l4.146-20.923c0.695-3.492-0.139-7.112-2.277-9.953
		l2.827-14.266c2.121-1.725,3.629-4.108,4.271-6.798l4.786-20.086C1115.326,495.756,1114.735,492.273,1112.898,489.408
		L1112.898,489.408z"/>
	<path fill="#EAEBED" d="M896.304,510.243c8.697,1.521,17.748,2.811,23.233,3.189l-4.142,20.921l-47.584-9.43
		c1.424-4.673,2.664-10.392,3.801-15.629l8.099-40.869c0.944-5.273,1.984-11.033,2.444-15.896l47.094,9.331l-4.789,20.086
		c-6.223-1.741-14.228-3.731-21.506-5.275l-1.717,8.66c6.829,1.253,14.655,2.602,19.049,2.864l-3.431,17.321
		c-4.184-1.334-11.892-3.264-18.684-4.716L896.304,510.243L896.304,510.243z"/>
	<path fill="#EAEBED" d="M953.55,505.103l3.683,0.833c4.959,0.981,7.212-2.214,8.348-7.956c1.135-5.74,0.257-9.453-4.722-10.341
		l-3.721-0.634L953.55,505.103L953.55,505.103z M949.655,524.757c-0.938,5.277-1.981,11.038-2.439,15.9l-25.297-5.012
		c1.328-4.69,2.661-10.394,3.803-15.632l7.999-40.886c1.042-5.254,1.982-11.032,2.539-15.879l29.39,5.823
		c24.422,4.84,26.371,16.955,22.957,34.178c-3.352,16.933-13.34,26.481-26.764,23.823c-5.16-1.024-8.436-2.381-11.859-3.968
		L949.655,524.757L949.655,524.757z"/>
	<path fill="#EAEBED" d="M990.261,522.996c6.193,4.466,16.331,8.395,21.102,9.339c3.311,0.657,4.361-0.045,4.666-1.604
		c0.365-1.848,0.032-2.722-2.476-3.827l-7.536-3.312c-11.642-5.038-14.1-11.491-11.095-26.675
		c3.241-16.344,11.888-20.697,30.414-17.229c6.735,1.232,14.093,3.396,21.824,5.737l-5.72,23.743
		c-6.913-2.885-14.414-5.887-18.884-6.773c-1.851-0.368-3.192,0.276-3.595,2.322c-0.386,1.947,0.548,2.839,2.221,3.575l5.16,2.537
		c11.469,5.408,14.553,10.775,11.991,23.716c-3.493,17.613-12.005,22.803-29.171,19.604c-6.925-1.272-18.547-4.385-24.602-6.495
		L990.261,522.996L990.261,522.996z"/>
	<path fill="#EAEBED" d="M1069.422,544.548c8.699,1.521,17.748,2.811,23.236,3.189l-4.146,20.923l-47.584-9.432
		c1.431-4.672,2.669-10.392,3.808-15.629l8.096-40.869c0.945-5.272,1.984-11.033,2.444-15.896l47.097,9.332l-4.791,20.085
		c-6.228-1.741-14.223-3.73-21.506-5.275l-1.717,8.66c6.831,1.254,14.654,2.603,19.053,2.869l-3.433,17.32
		c-4.184-1.337-11.892-3.268-18.686-4.715L1069.422,544.548L1069.422,544.548z"/>
	
		<text transform="matrix(0.9809 0.1944 -0.1944 0.9809 864.6904 525.6821)" fill="#E28C36" font-family="'DunkelSans-Mediumv0.7'" font-size="99.2072">EPSE</text>
	
		<text transform="matrix(0.9809 0.1944 -0.1944 0.9809 864.6904 525.6821)" fill="#E28C36" font-family="'DunkelSans-Mediumv0.7'" font-size="99.2072">EPSE</text>
	
		<text transform="matrix(0.9809 0.1944 -0.1944 0.9809 864.6904 525.6821)" fill="#E28C36" font-family="'DunkelSans-Mediumv0.7'" font-size="99.2072">EPSE</text>
</g>
</svg>
