<?xml version="1.0" encoding="utf-8"?>
<!-- Generator: Adobe Illustrator 14.0.0, SVG Export Plug-In . SVG Version: 6.00 Build 43363)  -->
<!DOCTYPE svg PUBLIC "-//W3C//DTD SVG 1.1//EN" "http://www.w3.org/Graphics/SVG/1.1/DTD/svg11.dtd">
<svg version="1.1" xmlns="http://www.w3.org/2000/svg" xmlns:xlink="http://www.w3.org/1999/xlink" x="0px" y="0px" width="228.5px"
	 height="183px" viewBox="0 0 228.5 183" enable-background="new 0 0 228.5 183" xml:space="preserve">
<g id="Layer_2">
</g>
<g id="Layer_1">
	<path fill="none" stroke="#22562B" stroke-width="3" stroke-linecap="round" stroke-linejoin="round" d="M126.244,84.023
		c2.027,8.786-8.109,14.699-16.389,16.727c-2.196,11.997-14.53,11.997-20.106,9.462c-0.845,3.042-2.535,4.731-7.266,4.899
		c-0.675,2.873-1.521,5.745-6.251,5.576c0.169,14.192-1.689,31.089,4.73,39.706c6.42,8.616,15.038,7.771,17.91,8.785
		c2.873,1.014,1.352,3.549-0.845,4.394c-2.196,0.845-22.979-1.015-25.175-0.508c-2.196,0.508-4.224,6.59-6.759,6.928
		c-2.534,0.338-5.406-8.447-8.448-9.124c-3.041-0.676-2.196,1.014-4.562,1.184c-2.365,0.168-2.365-1.689-5.238-0.677
		c-2.872,1.015-19.431,5.069-19.261,1.183c0.169-3.885,21.12-5.406,26.357-23.316c3.276-11.202,4.055-16.558-1.014-33.453
		c-6.759,13.854-16.051,11.489-22.81,3.21c-27.878,6.42-27.878-18.585-17.741-22.133c-4.055-7.265-1.858-8.448-1.014-11.151
		c-9.124-8.279-2.873-16.22-2.028-17.403c-10.137-10.645-10.645-26.526,9.8-27.371c-0.675-5.238,2.028-9.969,8.617-10.645
		C25.15,10.92,43.961,9.174,51.283,12.497c2.478-13.967,23.766-7.378,24.33-1.577c6.758-3.154,12.785-0.395,17.572,5.632
		c10.363-7.209,23.09,10.532,16.22,19.148c3.617-2.893,7.771-0.732,7.998,2.704"/>
	<path fill="#22562B" d="M224.491,87.583c0,0.783-0.635,1.417-1.418,1.417h-103.78c-0.783,0-1.418-0.635-1.418-1.417v-8.54
		c0-0.783,0.635-1.417,1.418-1.417h103.78c0.783,0,1.418,0.635,1.418,1.417V87.583z"/>
	<g>
		<path fill="#86BD40" d="M56.05,43.307c0.408,0,1.156,0.051,2.04,0.051c0.986,0,1.785-0.051,2.09-0.051
			c0.051,0.051,0.017,0.425-0.051,0.493c-0.323,0.034-0.612,0.068-0.833,0.136c-0.357,0.102-0.51,0.255-0.612,0.782
			c-0.119,0.561-0.289,1.547-0.544,3.213c0,0.068,0.017,0.119,0.068,0.136c0.085,0.017,0.374,0.034,2.822,0.034
			c1.7,0,2.363,0,2.533-0.017c0.034-0.017,0.102-0.068,0.102-0.136c0.204-1.139,0.442-2.754,0.51-3.366
			c0.034-0.374-0.068-0.561-0.323-0.629c-0.238-0.085-0.459-0.102-0.884-0.17c-0.051-0.068,0-0.425,0.068-0.476
			c0.34,0,1.071,0.051,1.989,0.051c1.088,0,1.717-0.051,2.04-0.051c0.051,0.068,0.017,0.425-0.051,0.476
			c-0.357,0.051-0.663,0.102-0.867,0.17c-0.408,0.136-0.493,0.391-0.612,0.969c-0.17,0.918-1.054,6.408-1.156,7.479
			c-0.051,0.476,0.051,0.714,0.374,0.816c0.255,0.068,0.51,0.102,0.969,0.153c0.034,0.085,0,0.425-0.085,0.493
			c-0.323,0-1.275-0.051-2.159-0.051c-0.969,0-1.666,0.034-2.108,0.051c-0.068-0.068-0.034-0.442,0.051-0.493
			c0.357-0.051,0.731-0.102,0.952-0.17c0.323-0.102,0.459-0.34,0.561-0.782c0.136-0.646,0.408-2.329,0.578-3.451
			c0-0.051-0.017-0.119-0.068-0.119c-0.357-0.034-1.632-0.034-2.549-0.034c-1.751,0-2.686,0-2.839,0.017
			c-0.017,0-0.085,0.085-0.085,0.102c-0.136,0.884-0.425,2.72-0.493,3.297c-0.085,0.663-0.017,0.884,0.425,0.986
			c0.221,0.068,0.459,0.085,0.935,0.153c0.034,0.068-0.017,0.459-0.102,0.493c-0.357,0-1.189-0.051-2.159-0.051
			c-1.071,0-1.853,0.051-2.244,0.051c-0.034-0.085,0-0.425,0.051-0.493c0.289-0.034,0.646-0.068,0.935-0.136
			c0.527-0.102,0.629-0.357,0.799-1.241c0.187-1.088,1.054-6.391,1.139-7.241c0.051-0.459,0-0.714-0.323-0.799
			c-0.272-0.085-0.51-0.102-0.952-0.153C55.948,43.698,55.982,43.357,56.05,43.307z"/>
		<path fill="#86BD40" d="M77.424,49.103c0,1.751-0.714,3.485-2.295,4.386c-0.68,0.408-1.445,0.595-1.853,0.595
			c-1.122,0-1.649-1.105-1.649-2.363c0-1.479,0.51-3.094,1.734-3.995c0.731-0.544,1.768-0.901,2.363-0.901
			C76.999,46.825,77.424,48.066,77.424,49.103z M74.143,53.268c1.088,0,1.955-1.819,1.955-3.706c0-1.003-0.238-1.972-1.224-1.989
			c-1.309,0-1.955,2.125-1.955,3.621C72.919,52.571,73.293,53.268,74.143,53.268z"/>
		<path fill="#86BD40" d="M87.56,47.522c-0.017-0.034,0.017-0.136,0.068-0.187c0.306-0.221,0.884-0.493,1.122-0.51
			c0.204,0.051,0.391,0.493,0.391,1.071c0,1.292-0.918,2.873-1.802,3.91c-1.003,1.207-1.853,1.904-2.482,2.21
			c-0.153,0.085-0.34,0.085-0.425,0.068c-0.204-0.204-0.272-0.782-0.255-1.802c0.017-0.969,0.136-2.771,0.153-3.587
			c0.017-0.34-0.034-0.493-0.153-0.493c-0.153,0-0.51,0.238-0.969,0.714c-0.017,0-0.068-0.034-0.085-0.085
			c-0.017-0.136,0.034-0.425,0.085-0.493c0.306-0.374,0.714-0.782,1.19-1.122c0.374-0.272,0.646-0.391,0.833-0.391
			c0.255,0,0.357,0.459,0.323,1.275c-0.068,1.105-0.136,2.533-0.17,3.349c-0.034,0.714-0.017,1.071,0.068,1.241
			c0.051,0.119,0.153,0.119,0.272,0.034c1.003-0.731,2.294-2.72,2.278-3.978C88.002,48.355,87.849,47.862,87.56,47.522z"/>
		<path fill="#86BD40" d="M99.567,47.913c0.017,0.833-0.612,1.445-1.649,1.989c-0.697,0.374-1.411,0.612-1.921,0.782
			c-0.051,0.017-0.102,0.085-0.102,0.153c-0.017,0.085-0.034,0.221-0.034,0.34c0,1.054,0.357,1.785,1.241,1.785
			c0.663,0,1.411-0.306,2.244-1.19c0.017,0,0.085,0.051,0.085,0.102c0,0.102-0.068,0.374-0.119,0.493
			c-0.782,1.054-2.074,1.7-3.06,1.7c-1.207,0-1.615-1.139-1.615-2.346c0-1.224,0.458-2.89,1.461-3.791
			c0.68-0.612,1.802-1.105,2.414-1.105C99.091,46.825,99.533,47.284,99.567,47.913z M95.997,49.97
			c-0.017,0.051,0.017,0.085,0.051,0.085c0.527-0.102,1.207-0.34,1.717-0.646c0.391-0.238,0.629-0.595,0.629-1.088
			c0-0.391-0.221-0.731-0.68-0.731C97.085,47.59,96.252,48.338,95.997,49.97z"/>
		<path fill="#86BD40" d="M105.199,48.831c-0.034-0.102,0.034-0.442,0.051-0.493c0.748-0.867,1.717-1.513,2.091-1.513
			c0.306,0,0.34,0.544,0.153,1.581l-0.255,1.343c0,0.017,0.034,0.034,0.051,0c0.867-1.224,1.87-2.159,2.753-2.635
			c0.34-0.187,0.612-0.289,0.918-0.289c0.578,0,0.612,0.799,0.306,2.295c-0.272,1.275-0.493,2.396-0.612,3.127
			c-0.017,0.255-0.017,0.459,0.136,0.459c0.17,0,0.493-0.153,1.02-0.748c0.017,0,0.051,0.017,0.068,0.085
			c0.017,0.068-0.034,0.458-0.085,0.527c-0.663,0.918-1.683,1.513-2.142,1.513c-0.357,0-0.425-0.595-0.204-1.717
			c0.238-1.224,0.527-2.499,0.714-3.417c0.119-0.646,0.085-0.952-0.221-0.952c-0.51,0-1.53,0.867-2.533,2.482
			c-0.238,0.374-0.493,1.037-0.612,1.581c-0.153,0.612-0.272,1.224-0.221,1.462c-0.187,0.204-0.969,0.544-1.139,0.561
			c-0.085,0.017-0.17-0.102-0.153-0.187c0.068-0.68,0.833-3.858,1.02-5.287c0.034-0.238,0.017-0.391-0.102-0.391
			c-0.17,0-0.561,0.306-0.935,0.663C105.25,48.882,105.199,48.848,105.199,48.831z"/>
		<path fill="#86BD40" d="M120.486,52.044c0.017,0.085-0.018,0.408-0.051,0.493c-0.799,1.071-1.785,1.547-2.143,1.547
			c-0.356,0-0.51-0.459-0.271-1.598c0.255-1.309,0.595-2.89,0.799-3.91c0.051-0.238,0.017-0.374-0.068-0.374
			c-0.187,0-0.51,0.187-0.918,0.51c0,0-0.051-0.017-0.051-0.051c-0.034-0.102,0.034-0.391,0.068-0.442
			c0.68-0.697,1.717-1.394,2.142-1.394c0.221,0,0.272,0.408,0.103,1.19c-0.171,0.918-0.766,3.485-0.867,4.284
			c-0.034,0.306,0.017,0.442,0.17,0.442c0.221,0,0.544-0.221,1.037-0.748C120.436,51.993,120.486,52.01,120.486,52.044z
			 M120.69,44.021c0.067,0.102,0.102,0.306,0.085,0.459c-0.034,0.323-0.221,0.595-0.425,0.731c-0.119,0.068-0.681,0.119-0.766,0.051
			c-0.17-0.102-0.255-0.272-0.271-0.578c0.017-0.136,0.085-0.391,0.153-0.476c0.17-0.17,0.526-0.306,0.815-0.306
			C120.521,43.901,120.656,43.97,120.69,44.021z"/>
		<path fill="#86BD40" d="M131.318,47.913c0.017,0.833-0.612,1.445-1.648,1.989c-0.697,0.374-1.411,0.612-1.921,0.782
			c-0.051,0.017-0.103,0.085-0.103,0.153c-0.017,0.085-0.033,0.221-0.033,0.34c0,1.054,0.356,1.785,1.24,1.785
			c0.663,0,1.411-0.306,2.244-1.19c0.017,0,0.085,0.051,0.085,0.102c0,0.102-0.068,0.374-0.119,0.493
			c-0.782,1.054-2.074,1.7-3.06,1.7c-1.207,0-1.615-1.139-1.615-2.346c0-1.224,0.459-2.89,1.462-3.791
			c0.68-0.612,1.802-1.105,2.414-1.105C130.843,46.825,131.284,47.284,131.318,47.913z M127.749,49.97
			c-0.018,0.051,0.017,0.085,0.051,0.085c0.527-0.102,1.207-0.34,1.717-0.646c0.391-0.238,0.629-0.595,0.629-1.088
			c0-0.391-0.221-0.731-0.68-0.731C128.837,47.59,128.004,48.338,127.749,49.97z"/>
		<path fill="#86BD40" d="M140.164,47.794c0.492-0.612,0.969-0.969,1.343-0.969c0.271,0,0.578,0.102,0.73,0.391v0.238
			c-0.051,0.255-0.493,0.952-0.696,1.122c-0.068,0.068-0.153,0.068-0.204,0.034c-0.238-0.289-0.477-0.425-0.663-0.425
			c-0.272,0-0.799,0.595-1.513,2.091c-0.238,0.51-0.477,1.207-0.663,1.989c-0.103,0.459-0.204,0.935-0.188,1.275
			c-0.152,0.17-0.985,0.527-1.173,0.544c-0.067,0-0.119-0.102-0.119-0.153c0.085-0.408,0.851-3.74,0.986-5.1
			c0.051-0.408,0.017-0.578-0.102-0.578c-0.153,0-0.511,0.238-0.97,0.629c-0.017,0-0.067-0.017-0.067-0.051
			c-0.018-0.119,0.051-0.408,0.067-0.459c0.715-0.816,1.751-1.547,2.125-1.547c0.238,0,0.323,0.357,0.17,1.394
			c-0.067,0.442-0.152,0.816-0.221,1.207c0,0.017,0.051,0.034,0.068,0C139.416,48.848,139.722,48.372,140.164,47.794z"/>
		<path fill="#86BD40" d="M151.32,47.199c0.017,0.034,0.034,0.17,0.017,0.255c-0.067,0.221-0.356,0.68-0.544,0.85
			c-0.051,0.034-0.152,0.017-0.187,0c-0.238-0.425-0.663-0.68-1.139-0.68c-0.477,0-0.884,0.374-0.884,0.918
			c0,0.442,0.187,0.714,1.206,1.479c0.901,0.697,1.225,1.088,1.225,1.649c0,0.425-0.17,1.037-0.952,1.683
			c-0.731,0.578-1.428,0.731-1.955,0.731c-0.544,0-1.003-0.187-1.24-0.425c-0.137-0.136-0.222-0.34-0.222-0.493
			c0-0.204,0.222-0.867,0.374-1.105c0.034-0.051,0.255-0.068,0.255-0.034c0.188,0.833,0.867,1.309,1.581,1.309
			c0.629,0,1.054-0.425,1.054-0.918c0-0.425-0.136-0.731-1.155-1.513c-0.918-0.714-1.14-1.139-1.14-1.683
			c0-0.442,0.188-1.054,0.782-1.581c0.68-0.612,1.445-0.816,1.887-0.816C150.827,46.825,151.219,47.012,151.32,47.199z"/>
		<path fill="#86BD40" d="M163.207,48.559c0,1.632-0.714,3.162-1.972,4.25c-0.867,0.748-1.972,1.275-2.907,1.275
			c-0.51,0-1.207-0.476-1.207-1.717c0-0.527,0.085-1.105,0.137-1.462c0.255-1.479,1.189-6.29,1.291-7.19
			c0.018-0.102-0.017-0.255-0.118-0.255c-0.204,0-0.544,0.068-1.055,0.323c-0.051-0.068,0-0.459,0.052-0.493
			c0.765-0.51,1.972-1.088,2.396-1.105c0.204,0,0.17,0.476,0.085,0.918l-1.173,6.051c0,0.051,0.051,0.051,0.085,0.017
			c1.224-1.479,2.651-2.346,3.417-2.346C162.884,46.825,163.207,47.573,163.207,48.559z M160.742,52.417
			c0.697-0.816,1.139-2.278,1.139-3.399c0-0.816-0.289-1.105-0.629-1.105c-0.663,0-1.717,1.003-2.277,1.887
			c-0.408,0.629-0.612,1.564-0.612,2.159c0,0.765,0.323,1.241,0.969,1.241C159.808,53.2,160.317,52.911,160.742,52.417z"/>
		<path fill="#86BD40" d="M173.973,47.913c0.017,0.833-0.612,1.445-1.648,1.989c-0.697,0.374-1.411,0.612-1.921,0.782
			c-0.051,0.017-0.103,0.085-0.103,0.153c-0.017,0.085-0.033,0.221-0.033,0.34c0,1.054,0.356,1.785,1.24,1.785
			c0.663,0,1.411-0.306,2.244-1.19c0.017,0,0.085,0.051,0.085,0.102c0,0.102-0.068,0.374-0.119,0.493
			c-0.782,1.054-2.074,1.7-3.06,1.7c-1.207,0-1.615-1.139-1.615-2.346c0-1.224,0.459-2.89,1.462-3.791
			c0.68-0.612,1.802-1.105,2.414-1.105C173.497,46.825,173.938,47.284,173.973,47.913z M170.403,49.97
			c-0.018,0.051,0.017,0.085,0.051,0.085c0.527-0.102,1.207-0.34,1.717-0.646c0.391-0.238,0.629-0.595,0.629-1.088
			c0-0.391-0.221-0.731-0.68-0.731C171.491,47.59,170.658,48.338,170.403,49.97z"/>
		<path fill="#86BD40" d="M181.085,48.1c0.748-0.714,2.091-1.275,2.754-1.275c0.425,0,0.73,0.051,0.918,0.119
			c0.033,0.017,0.085-0.017,0.085-0.051c0.237-1.105,0.492-2.533,0.561-3.077c0.034-0.357,0-0.51-0.17-0.51
			c-0.188,0-0.595,0.068-1.104,0.289c-0.034-0.068,0.017-0.425,0.067-0.476c0.765-0.459,2.023-0.952,2.448-0.952
			c0.204,0.017,0.187,0.374,0.102,0.867c-0.51,2.703-1.7,8.363-1.717,9.468c0,0.153,0.068,0.289,0.153,0.289
			c0.255,0,0.629-0.289,1.104-0.765c0.018,0.017,0.051,0.034,0.051,0.068c0.018,0.136-0.051,0.442-0.085,0.527
			c-0.629,0.833-1.887,1.632-2.295,1.632c-0.203,0-0.306-0.34-0.255-0.714c0.018-0.459,0.137-1.088,0.307-2.04
			c-0.018-0.017-0.068-0.017-0.085,0c-1.122,1.513-2.55,2.566-3.332,2.566c-0.815,0-1.037-1.105-1.037-1.938
			C179.555,50.633,180.133,49.018,181.085,48.1z M183.839,50.786c0.17-0.272,0.34-0.595,0.425-0.969
			c0.119-0.442,0.271-1.326,0.306-1.53c0-0.153-0.017-0.272-0.102-0.34c-0.289-0.255-0.766-0.391-1.275-0.391
			c-1.563,0-2.328,2.329-2.328,4.029c0,0.833,0.221,1.258,0.646,1.258C181.985,52.843,182.903,52.214,183.839,50.786z"/>
		<path fill="#86BD40" d="M195.301,47.794c0.492-0.612,0.969-0.969,1.343-0.969c0.271,0,0.578,0.102,0.73,0.391v0.238
			c-0.051,0.255-0.493,0.952-0.696,1.122c-0.068,0.068-0.153,0.068-0.204,0.034c-0.238-0.289-0.477-0.425-0.663-0.425
			c-0.272,0-0.799,0.595-1.513,2.091c-0.238,0.51-0.477,1.207-0.663,1.989c-0.103,0.459-0.204,0.935-0.188,1.275
			c-0.152,0.17-0.985,0.527-1.173,0.544c-0.067,0-0.119-0.102-0.119-0.153c0.085-0.408,0.851-3.74,0.986-5.1
			c0.051-0.408,0.017-0.578-0.102-0.578c-0.153,0-0.511,0.238-0.97,0.629c-0.017,0-0.067-0.017-0.067-0.051
			c-0.018-0.119,0.051-0.408,0.067-0.459c0.715-0.816,1.751-1.547,2.125-1.547c0.238,0,0.323,0.357,0.17,1.394
			c-0.067,0.442-0.152,0.816-0.221,1.207c0,0.017,0.051,0.034,0.068,0C194.553,48.848,194.858,48.372,195.301,47.794z"/>
		<path fill="#86BD40" d="M205.267,52.044c0.017,0.085-0.018,0.408-0.051,0.493c-0.799,1.071-1.785,1.547-2.143,1.547
			c-0.356,0-0.51-0.459-0.271-1.598c0.255-1.309,0.595-2.89,0.799-3.91c0.051-0.238,0.017-0.374-0.068-0.374
			c-0.187,0-0.51,0.187-0.917,0.51c0,0-0.052-0.017-0.052-0.051c-0.034-0.102,0.034-0.391,0.068-0.442
			c0.68-0.697,1.717-1.394,2.142-1.394c0.221,0,0.272,0.408,0.103,1.19c-0.171,0.918-0.766,3.485-0.867,4.284
			c-0.034,0.306,0.017,0.442,0.17,0.442c0.221,0,0.544-0.221,1.037-0.748C205.216,51.993,205.267,52.01,205.267,52.044z
			 M205.471,44.021c0.067,0.102,0.102,0.306,0.085,0.459c-0.034,0.323-0.222,0.595-0.425,0.731
			c-0.119,0.068-0.681,0.119-0.766,0.051c-0.17-0.102-0.255-0.272-0.271-0.578c0.017-0.136,0.085-0.391,0.152-0.476
			c0.171-0.17,0.527-0.306,0.816-0.306C205.301,43.901,205.437,43.97,205.471,44.021z"/>
		<path fill="#86BD40" d="M209.013,57.874c1.462-0.816,1.938-1.768,2.312-3.519c0.408-1.989,0.918-4.93,1.021-5.746
			c0.034-0.153,0-0.323-0.103-0.323c-0.204,0-0.68,0.357-1.054,0.629l-0.051-0.102c-0.018-0.085,0-0.34,0.034-0.391
			c0.68-0.663,1.853-1.615,2.413-1.598c0.188,0,0.222,0.459,0.137,1.105c-0.289,1.785-0.527,3.179-0.936,5.202
			c-0.34,1.75-0.748,2.873-1.733,3.909c-0.544,0.578-1.258,1.037-1.785,1.224C209.166,58.265,208.996,57.976,209.013,57.874z
			 M214.078,44.055c0.068,0.085,0.085,0.289,0.068,0.425c-0.034,0.323-0.204,0.612-0.442,0.748
			c-0.119,0.068-0.646,0.102-0.748,0.051c-0.17-0.102-0.255-0.289-0.255-0.578c0-0.187,0.068-0.408,0.153-0.493
			c0.153-0.17,0.51-0.306,0.799-0.306C213.892,43.901,214.044,44.003,214.078,44.055z"/>
		<path fill="#86BD40" d="M219.914,47.658c0.119-0.187,0.51-0.561,0.629-0.595h0.748c0.034-0.017,0.085-0.068,0.085-0.119
			c0.407-2.091,1.02-3.196,2.312-4.147c0.527-0.374,1.088-0.595,1.462-0.612c0.306,0,0.629,0.102,0.629,0.306
			c0,0.17-0.561,0.85-0.765,1.003c-0.034,0.034-0.153,0.068-0.204,0.034c-0.17-0.119-0.459-0.255-0.731-0.255
			c-0.255,0-0.526,0.136-0.73,0.544c-0.306,0.629-0.51,1.496-0.748,3.111c-0.017,0.068,0.034,0.119,0.068,0.119
			c0.935,0,1.377-0.034,1.699-0.102c0.018,0.051-0.034,0.289-0.067,0.323c-0.272,0.272-0.681,0.442-1.088,0.493l-0.663,0.051
			c-0.034,0-0.103,0.085-0.103,0.119c-0.289,1.802-0.526,3.808-0.9,5.796c-0.544,3.026-2.396,4.419-3.638,4.419
			c-0.629,0-0.986-0.306-1.003-0.663c-0.017-0.272,0.102-0.816,0.221-1.054c0.034-0.051,0.17-0.102,0.204-0.102
			c0.391,0.544,0.935,0.867,1.462,0.867c0.748,0,1.054-0.714,1.377-2.55c0.425-2.465,0.867-5.474,1.037-6.697
			c0-0.068-0.052-0.136-0.085-0.136c-0.392,0-1.021-0.017-1.207-0.034C219.896,47.76,219.896,47.692,219.914,47.658z"/>
		<path fill="#86BD40" d="M55.39,55.037c0.736,0,1.824,0.096,3.68,0.096c1.855,0,3.072-0.064,5.151-0.064
			c2.176,0,5.632,0.704,5.632,4.48c0,1.824-1.248,3.328-3.104,4.096c-0.064,0.032-0.064,0.096,0,0.128
			c2.496,0.576,4.512,2.112,4.512,4.928c0,2.656-1.568,4.447-4,5.503c-1.472,0.64-3.264,0.8-4.96,0.8
			c-1.44,0-5.184-0.16-7.295-0.096c-0.16-0.096-0.192-0.832-0.032-0.928c0.576-0.064,1.504-0.128,2.048-0.256
			c0.704-0.192,0.928-0.48,1.024-1.632c0.064-1.024,0.064-3.84,0.064-7.264c0-4,0.032-6.08-0.032-7.263
			c-0.032-0.896-0.32-1.184-0.864-1.344c-0.448-0.128-1.248-0.224-1.856-0.288C55.229,55.837,55.261,55.101,55.39,55.037z
			 M61.149,56.285c-0.128,0.064-0.256,0.352-0.256,0.512c-0.032,0.928-0.096,4.32-0.096,6.591c0,0.064,0.096,0.16,0.16,0.16
			c0.352,0.032,1.088,0.064,1.984,0.064c1.568,0,2.208-0.16,2.592-0.384c1.024-0.608,1.504-1.728,1.504-2.976
			c0-2.784-1.728-4.063-4.768-4.063C61.917,56.189,61.469,56.221,61.149,56.285z M68.285,69.404c0-3.04-2.176-4.704-5.792-4.704
			c-0.48,0-1.312,0-1.536,0.064c-0.064,0-0.16,0.064-0.16,0.128c0,2.016,0,5.92,0.096,7.231c0.064,0.416,0.352,0.992,0.736,1.216
			c0.544,0.352,1.728,0.448,2.464,0.448C66.653,73.788,68.285,72.38,68.285,69.404z"/>
		<path fill="#86BD40" d="M86.939,62.428c0.032,0.096,0.032,0.384,0,0.512c-0.064,0.384-0.672,1.632-0.992,2.016
			c-0.032,0.032-0.224,0.128-0.256,0.128c-0.608-0.512-1.344-0.992-2.08-0.992c-0.64,0-1.28,0.672-1.696,1.344
			c-0.096,0.192-0.256,0.672-0.256,1.088c0,2.176,0.032,5.472,0.064,6.112c0.032,0.544,0.192,0.864,0.672,1.024
			c0.576,0.16,1.312,0.256,2.016,0.32c0.064,0.16,0.032,0.8-0.128,0.928c-0.384,0-2.464-0.096-3.744-0.096
			c-0.992,0-2.624,0.064-3.2,0.096c-0.096-0.128-0.128-0.8,0-0.928c0.384-0.032,0.896-0.128,1.248-0.256
			c0.32-0.128,0.512-0.32,0.576-0.896c0.064-0.512,0.096-3.168,0.096-5.375c0-1.184,0-2.144-0.032-2.528
			c-0.064-0.448-0.32-0.832-1.76-1.344c0-0.16,0.064-0.64,0.16-0.704c1.152-0.128,3.04-0.672,3.904-1.184
			c0.064,0,0.16,0.064,0.16,0.128c-0.032,0.448-0.064,1.856-0.064,2.464c0,0.096,0.096,0.096,0.16,0.064
			c0.608-0.768,1.28-1.504,2.016-2.016c0.512-0.384,1.024-0.608,1.632-0.608S86.683,61.98,86.939,62.428z"/>
		<path fill="#86BD40" d="M103.001,71.932c0.032,0.224-0.096,0.768-0.16,0.864c-1.408,1.6-3.616,2.399-5.088,2.399
			c-1.664,0-2.943-0.544-3.903-1.536c-1.312-1.312-1.824-3.264-1.824-5.088c0-2.815,1.184-4.704,2.816-5.792
			c0.992-0.64,2.432-1.056,3.456-1.056c3.104,0,4.224,2.751,4.48,4.543c0.032,0.128,0.16,0.256,0.48,0.352
			c0.032,0.128-0.16,0.672-0.256,0.736c-1.344,0.384-5.696,0.64-8.384,0.704c-0.128,0.032-0.192,0.192-0.192,0.352
			c0.064,1.088,0.544,2.432,1.312,3.264c0.96,0.992,2.048,1.408,3.488,1.408c1.28,0,2.464-0.384,3.647-1.344
			C102.905,71.772,102.969,71.836,103.001,71.932z M94.489,66.62c0,0.064,0.064,0.224,0.16,0.224c1.024,0.064,4.8-0.064,5.439-0.192
			c0.064-0.064,0.16-0.16,0.16-0.288c-0.16-1.6-1.216-3.424-2.944-3.424C95.769,62.94,94.649,64.348,94.489,66.62z"/>
		<path fill="#86BD40" d="M108.696,62.396c1.28-0.032,3.647-0.256,4.447-0.512c-0.096,0.8-0.192,2.464-0.192,6.24
			c0,1.696,0.032,2.752,0.16,3.264c0.256,1.024,0.992,1.856,2.624,1.856c0.96,0,1.824-0.32,2.624-0.992
			c0.192-0.16,0.32-0.448,0.352-0.768c0.032-0.448,0.032-3.104,0-6.944c-0.031-0.384-0.128-0.8-0.607-0.928
			c-0.448-0.16-1.152-0.224-2.048-0.352c-0.064-0.192,0.032-0.768,0.16-0.864c1.696,0,4.352-0.256,5.087-0.448
			c-0.063,0.576-0.063,1.568-0.096,2.784l-0.032,7.231c0.032,0.864,0.192,1.152,0.704,1.184c0.48,0.032,0.864-0.032,1.344-0.064
			c0.032,0.16,0,0.8-0.128,0.928c-1.184,0.48-3.52,1.152-4.159,1.312c-0.064,0-0.16-0.16-0.192-0.288
			c-0.032-0.352-0.032-1.312-0.032-1.792c0-0.064-0.128-0.128-0.191-0.064c-1.824,1.536-3.232,2.016-4.224,2.016
			c-3.136,0-3.776-2.176-3.808-4.319c0-1.536,0.096-4.896,0-6.24c-0.032-0.544-0.128-0.928-0.512-1.088
			c-0.288-0.096-0.896-0.192-1.472-0.288C108.472,63.068,108.536,62.492,108.696,62.396z"/>
		<path fill="#86BD40" d="M129.75,73.755c0.448-0.128,0.64-0.576,0.672-1.12c0.064-0.992,0.064-3.232,0.064-5.248
			c0-1.248-0.032-2.08-0.064-2.56c-0.096-0.448-0.479-0.768-1.664-1.216c-0.063-0.192,0.032-0.64,0.16-0.736
			c1.28-0.128,3.136-0.736,3.936-1.184c0.032,0.032,0.128,0.128,0.128,0.224c-0.032,0.352-0.063,1.28-0.063,1.824
			c0,0.064,0.096,0.096,0.16,0.064c1.663-1.376,3.231-2.08,4.352-2.08c1.376,0,2.367,0.608,3.071,1.664
			c0.608,0.96,0.832,2.24,0.832,3.776c0,1.792,0,4.672,0.064,5.792c0,0.256,0.096,0.512,0.319,0.608
			c0.513,0.256,0.96,0.32,1.601,0.416c0.096,0.16,0.063,0.768-0.097,0.928c-0.447,0-1.407-0.096-3.071-0.096
			c-1.472,0-2.4,0.064-3.168,0.096c-0.096-0.128-0.128-0.8,0-0.928c0.608-0.064,1.12-0.16,1.312-0.224
			c0.448-0.16,0.544-0.48,0.576-1.312c0.032-1.792,0.064-5.024-0.096-6.208c-0.064-0.512-0.288-1.376-0.896-1.888
			c-0.447-0.416-1.056-0.736-1.983-0.736s-1.92,0.384-2.656,1.024c-0.191,0.192-0.319,0.48-0.319,1.152c0,2.272,0,5.375,0.063,6.848
			c0.032,0.736,0.16,0.96,0.608,1.088c0.352,0.128,0.832,0.192,1.344,0.256c0.064,0.128,0.032,0.768-0.096,0.928
			c-0.48,0-1.376-0.096-3.136-0.096c-1.568,0-2.72,0.096-3.104,0.096c-0.128-0.128-0.128-0.8,0-0.928
			C129.046,73.916,129.366,73.852,129.75,73.755z"/>
		<path fill="#86BD40" d="M154.995,74.908c-0.607,0-1.632-0.096-3.264-0.096c-1.344,0-2.592,0.096-3.136,0.096
			c-0.128-0.096-0.128-0.8,0-0.928c0.544-0.064,0.992-0.16,1.376-0.288c0.416-0.16,0.512-0.416,0.576-1.152
			c0.064-0.8,0.064-2.912,0.064-4.671c0-1.248-0.032-2.4-0.032-3.04c0-0.192-0.032-0.448-0.225-0.672
			c-0.352-0.352-0.896-0.544-1.535-0.768c-0.097-0.128,0-0.672,0.128-0.768c0.96-0.032,2.911-0.416,4.159-0.928
			c0,1.44-0.031,3.648-0.031,5.6c0,1.76,0,3.904,0.031,5.344c0,0.576,0.192,0.928,0.672,1.088c0.416,0.096,0.608,0.16,1.344,0.256
			C155.22,74.14,155.123,74.812,154.995,74.908z M152.531,58.717c-0.159,0.096-1.247,0.192-1.439,0.064
			c-0.479-0.224-0.736-0.672-0.832-1.312c-0.032-0.192,0-0.768,0.16-0.928c0.288-0.256,0.96-0.576,1.536-0.576
			c0.512,0,0.863,0.16,0.928,0.256c0.192,0.224,0.32,0.64,0.32,0.928C153.204,57.757,152.947,58.396,152.531,58.717z"/>
		<path fill="#86BD40" d="M169.104,65.436c-0.096,0.128-0.736,0.16-0.864,0.064c-0.191-1.375-0.447-2.048-1.088-2.432
			c-0.416-0.256-0.928-0.384-1.567-0.384c-1.088,0-1.984,0.704-1.984,1.855c0,1.088,0.544,1.728,2.976,2.88
			c2.656,1.216,3.328,2.304,3.328,3.84c0,2.304-2.144,3.936-5.023,3.936c-1.184,0-2.624-0.288-3.359-0.608
			c-0.225-0.736-0.513-2.784-0.545-3.52c0.097-0.128,0.769-0.352,0.929-0.288c0.447,1.664,1.056,2.496,1.888,2.976
			c0.479,0.256,1.12,0.384,1.6,0.384c1.313,0,2.144-0.704,2.144-1.792c0-1.152-0.607-1.76-2.592-2.72
			c-2.592-1.28-3.52-2.432-3.52-4.128c0-1.984,1.568-3.775,4.704-3.775c0.735,0,1.536,0.096,2.08,0.192
			c0.512,0.096,1.023,0.16,1.279,0.192C169.265,63.068,169.2,64.125,169.104,65.436z"/>
		<path fill="#86BD40" d="M184.174,65.436c-0.096,0.128-0.736,0.16-0.864,0.064c-0.191-1.375-0.447-2.048-1.088-2.432
			c-0.416-0.256-0.928-0.384-1.567-0.384c-1.088,0-1.984,0.704-1.984,1.855c0,1.088,0.544,1.728,2.976,2.88
			c2.656,1.216,3.328,2.304,3.328,3.84c0,2.304-2.144,3.936-5.023,3.936c-1.184,0-2.624-0.288-3.359-0.608
			c-0.225-0.736-0.513-2.784-0.544-3.52c0.096-0.128,0.768-0.352,0.928-0.288c0.447,1.664,1.056,2.496,1.888,2.976
			c0.479,0.256,1.12,0.384,1.6,0.384c1.313,0,2.144-0.704,2.144-1.792c0-1.152-0.607-1.76-2.592-2.72
			c-2.592-1.28-3.52-2.432-3.52-4.128c0-1.984,1.568-3.775,4.704-3.775c0.735,0,1.536,0.096,2.08,0.192
			c0.512,0.096,1.023,0.16,1.279,0.192C184.334,63.068,184.27,64.125,184.174,65.436z"/>
		<path fill="#86BD40" d="M202.411,71.932c0.032,0.224-0.097,0.768-0.16,0.864c-1.408,1.6-3.616,2.399-5.088,2.399
			c-1.664,0-2.943-0.544-3.903-1.536c-1.313-1.312-1.824-3.264-1.824-5.088c0-2.815,1.184-4.704,2.816-5.792
			c0.991-0.64,2.432-1.056,3.455-1.056c3.104,0,4.224,2.751,4.479,4.543c0.032,0.128,0.16,0.256,0.48,0.352
			c0.032,0.128-0.16,0.672-0.256,0.736c-1.344,0.384-5.696,0.64-8.384,0.704c-0.128,0.032-0.191,0.192-0.191,0.352
			c0.063,1.088,0.544,2.432,1.312,3.264c0.96,0.992,2.048,1.408,3.487,1.408c1.28,0,2.464-0.384,3.648-1.344
			C202.314,71.772,202.379,71.836,202.411,71.932z M193.899,66.62c0,0.064,0.064,0.224,0.16,0.224
			c1.023,0.064,4.8-0.064,5.439-0.192c0.064-0.064,0.16-0.16,0.16-0.288c-0.16-1.6-1.216-3.424-2.944-3.424
			C195.18,62.94,194.06,64.348,193.899,66.62z"/>
		<path fill="#86BD40" d="M209.418,73.755c0.448-0.128,0.64-0.576,0.672-1.12c0.064-0.992,0.064-3.232,0.064-5.248
			c0-1.248-0.032-2.08-0.064-2.56c-0.096-0.448-0.479-0.768-1.664-1.216c-0.063-0.192,0.032-0.64,0.16-0.736
			c1.28-0.128,3.136-0.736,3.936-1.184c0.032,0.032,0.128,0.128,0.128,0.224c-0.032,0.352-0.063,1.28-0.063,1.824
			c0,0.064,0.096,0.096,0.16,0.064c1.663-1.376,3.231-2.08,4.352-2.08c1.376,0,2.367,0.608,3.071,1.664
			c0.608,0.96,0.832,2.24,0.832,3.776c0,1.792,0,4.672,0.064,5.792c0,0.256,0.096,0.512,0.319,0.608
			c0.513,0.256,0.96,0.32,1.601,0.416c0.096,0.16,0.063,0.768-0.097,0.928c-0.447,0-1.407-0.096-3.071-0.096
			c-1.472,0-2.4,0.064-3.168,0.096c-0.096-0.128-0.128-0.8,0-0.928c0.608-0.064,1.12-0.16,1.312-0.224
			c0.448-0.16,0.544-0.48,0.576-1.312c0.032-1.792,0.064-5.024-0.096-6.208c-0.064-0.512-0.288-1.376-0.896-1.888
			c-0.447-0.416-1.056-0.736-1.983-0.736s-1.92,0.384-2.656,1.024c-0.191,0.192-0.319,0.48-0.319,1.152c0,2.272,0,5.375,0.063,6.848
			c0.032,0.736,0.16,0.96,0.608,1.088c0.352,0.128,0.832,0.192,1.344,0.256c0.064,0.128,0.032,0.768-0.096,0.928
			c-0.48,0-1.376-0.096-3.136-0.096c-1.568,0-2.72,0.096-3.104,0.096c-0.128-0.128-0.128-0.8,0-0.928
			C208.714,73.916,209.034,73.852,209.418,73.755z"/>
	</g>
	<g>
		<path fill="#666766" d="M172.24,100.197c0-1.373,0.578-2.83,1.669-3.838c1.058-1.065,2.594-1.723,4.23-1.723
			c2.562,0,3.768,1.611,3.784,3.558c0.017,1.358-0.463,2.773-1.471,3.796c-1.174,1.219-2.628,1.779-4.313,1.779
			C173.463,103.769,172.24,102.229,172.24,100.197z M178.437,102.732c1.521-0.938,2-2.899,2-4.426
			c-0.033-1.737-0.826-3.109-2.876-3.109c-2.479,0-3.833,2.521-3.833,4.889c0,1.849,0.975,3.124,2.958,3.124
			C177.346,103.209,177.958,103.041,178.437,102.732z"/>
		<path fill="#666766" d="M183.159,99.413c-0.033-0.084,0.033-0.364,0.05-0.406c0.727-0.714,1.669-1.247,2.032-1.247
			c0.298,0,0.331,0.448,0.148,1.303l-0.247,1.107c0,0.014,0.032,0.028,0.049,0c0.843-1.009,1.818-1.779,2.678-2.171
			c0.33-0.154,0.595-0.238,0.892-0.238c0.563,0,0.596,0.659,0.298,1.891c-0.265,1.051-0.479,1.975-0.595,2.578
			c-0.017,0.21-0.017,0.378,0.132,0.378c0.165,0,0.479-0.126,0.992-0.616c0.016,0,0.049,0.014,0.065,0.07
			c0.017,0.056-0.033,0.378-0.082,0.434c-0.645,0.756-1.637,1.247-2.083,1.247c-0.347,0-0.413-0.49-0.198-1.415
			c0.231-1.009,0.513-2.059,0.694-2.816c0.116-0.532,0.083-0.784-0.215-0.784c-0.496,0-1.487,0.714-2.462,2.045
			c-0.231,0.308-0.479,0.854-0.595,1.303c-0.149,0.504-0.265,1.009-0.215,1.205c-0.183,0.168-0.942,0.448-1.107,0.462
			c-0.083,0.014-0.165-0.084-0.148-0.154c0.065-0.56,0.81-3.18,0.991-4.356c0.033-0.196,0.017-0.322-0.1-0.322
			c-0.165,0-0.545,0.252-0.908,0.546C183.209,99.455,183.159,99.427,183.159,99.413z"/>
		<path fill="#666766" d="M192.46,101.976c-0.082,0.561,0.066,0.714,0.298,0.714c0.463,0,1.206-0.616,1.487-0.938
			c0.033-0.014,0.099,0.028,0.082,0.056c0.017,0.126-0.032,0.378-0.082,0.434c-0.513,0.687-1.785,1.499-2.562,1.499
			c-0.298,0-0.562-0.294-0.529-0.938c0.017-0.561,0.563-2.899,0.843-4.146c0-0.028-0.017-0.07-0.049-0.07
			c-0.479,0-0.926-0.014-1.174-0.042c-0.017-0.028-0.017-0.07-0.017-0.098c0.1-0.14,0.563-0.462,0.645-0.49
			c0.066-0.014,0.265,0.014,0.661,0c0.066,0,0.116-0.042,0.116-0.07c0.23-0.813,0.347-1.289,0.462-1.499
			c0.1-0.168,0.976-0.742,1.256-0.827c0.05-0.014,0.166,0.126,0.133,0.168c-0.149,0.168-0.281,0.476-0.363,0.798
			c-0.116,0.378-0.248,0.882-0.348,1.331c-0.017,0.028,0,0.098,0.05,0.098c0.843,0.014,1.801-0.056,1.95-0.112
			c0.017,0.07-0.05,0.252-0.1,0.308c-0.115,0.112-0.495,0.266-0.876,0.322c-0.33,0.056-0.628,0.084-1.106,0.098
			c-0.05,0-0.083,0.042-0.116,0.098C192.89,99.595,192.543,101.346,192.46,101.976z"/>
		<path fill="#666766" d="M203.432,99.091c0-0.294-0.132-0.546-0.694-0.616c0-0.056,0.05-0.238,0.066-0.28
			c0.347-0.196,1.074-0.42,1.487-0.435c0.165,0.07,0.231,0.378,0.231,0.561c0,0.336-0.083,0.7-0.281,1.19
			c-0.645,1.583-2.396,3.474-3.503,4.146c-0.083,0.056-0.331,0.084-0.413,0.084c-0.331-0.588-0.479-2.115-0.596-3.306
			c0-0.028-0.065-0.014-0.082-0.014c-0.562,0.84-2.215,2.914-3.024,3.32c-0.082,0.014-0.281-0.014-0.313-0.056
			c-0.133-0.21-0.149-0.756-0.083-1.457c0.05-0.911,0.165-2.129,0.215-2.872c0-0.294-0.017-0.504-0.182-0.504
			c-0.182,0-0.611,0.252-1.008,0.603c-0.033,0-0.083-0.014-0.1-0.07c0-0.084,0.05-0.336,0.1-0.42
			c0.743-0.813,1.652-1.205,2.016-1.205c0.298,0,0.396,0.351,0.331,1.289c-0.05,0.742-0.166,1.765-0.198,2.395
			c-0.05,0.546-0.05,0.756,0,0.854c0.016,0.028,0.065,0.028,0.115,0c0.43-0.42,1.322-1.555,2.049-2.675
			c0.198-0.322,0.364-0.63,0.529-0.925c0.165-0.084,0.628-0.224,0.743-0.21c-0.082,0.953,0.116,3.782,0.396,4.076
			c0.033,0.014,0.083,0.028,0.116,0C202.474,101.71,203.432,99.945,203.432,99.091z"/>
		<path fill="#666766" d="M210.187,98.656c0.017,0.687-0.595,1.191-1.603,1.639c-0.678,0.308-1.372,0.504-1.867,0.644
			c-0.05,0.014-0.1,0.07-0.1,0.126c-0.017,0.07-0.033,0.182-0.033,0.28c0,0.869,0.348,1.471,1.207,1.471
			c0.645,0,1.371-0.252,2.181-0.981c0.017,0,0.083,0.042,0.083,0.084c0,0.084-0.066,0.308-0.116,0.406
			c-0.76,0.868-2.016,1.4-2.975,1.4c-1.173,0-1.569-0.938-1.569-1.933c0-1.008,0.446-2.381,1.421-3.124
			c0.661-0.504,1.752-0.911,2.347-0.911C209.724,97.76,210.153,98.138,210.187,98.656z M206.717,100.352
			c-0.017,0.042,0.017,0.07,0.049,0.07c0.513-0.084,1.174-0.28,1.67-0.532c0.38-0.196,0.611-0.49,0.611-0.896
			c0-0.322-0.215-0.603-0.661-0.603C207.774,98.39,206.964,99.007,206.717,100.352z"/>
		<path fill="#666766" d="M214.217,98.559c0.479-0.504,0.942-0.799,1.306-0.799c0.265,0,0.562,0.084,0.711,0.322v0.196
			c-0.05,0.21-0.479,0.784-0.678,0.924c-0.066,0.056-0.148,0.056-0.198,0.028c-0.231-0.238-0.463-0.351-0.645-0.351
			c-0.265,0-0.776,0.491-1.471,1.723c-0.231,0.42-0.463,0.995-0.645,1.639c-0.1,0.378-0.198,0.771-0.182,1.051
			c-0.149,0.14-0.959,0.434-1.141,0.448c-0.066,0-0.115-0.084-0.115-0.126c0.082-0.336,0.826-3.082,0.958-4.202
			c0.05-0.336,0.017-0.477-0.099-0.477c-0.149,0-0.496,0.196-0.942,0.519c-0.017,0-0.066-0.014-0.066-0.042
			c-0.017-0.098,0.05-0.336,0.066-0.378c0.694-0.672,1.702-1.275,2.065-1.275c0.231,0,0.314,0.294,0.165,1.149
			c-0.065,0.364-0.148,0.672-0.214,0.995c0,0.014,0.049,0.028,0.065,0C213.49,99.427,213.787,99.035,214.217,98.559z"/>
		<path fill="#666766" d="M221.255,102.747c-0.661,0.49-1.62,0.967-2.446,0.967c-0.297,0-0.677-0.098-0.876-0.21
			c-0.099,0.462-0.33,1.583-0.413,2.354c-0.016,0.336,0.033,0.49,0.413,0.546c0.265,0.042,0.596,0.042,0.843,0.056
			c0.05,0.056-0.016,0.336-0.082,0.378c-0.976,0-2.479,0.154-3.768,0.35c-0.033-0.056-0.017-0.336,0.033-0.378
			c0.297-0.07,0.479-0.112,0.71-0.196c0.38-0.126,0.479-0.266,0.611-0.687c0.116-0.406,0.348-1.569,0.563-2.633
			c0.215-1.009,0.71-3.348,0.843-4.244c0.017-0.14,0-0.266-0.116-0.266c-0.148,0-0.528,0.238-0.975,0.588
			c-0.033,0-0.083,0-0.1-0.028c-0.017-0.098,0.033-0.35,0.066-0.42c0.545-0.519,1.95-1.527,2.28-1.527
			c0.083,0,0.215,0.154,0.215,0.308c-0.033,0.434-0.215,1.163-0.38,1.975c0,0.014,0.05,0.014,0.083,0
			c0.958-1.037,2.33-1.919,3.14-1.919c0.611,0,1.024,0.659,1.024,1.625C222.924,100.771,222.229,102.032,221.255,102.747z
			 M220.494,102.663c0.794-0.602,1.157-1.807,1.157-2.886c0-0.84-0.281-1.092-0.595-1.092c-0.479,0-1.372,0.518-2.215,1.541
			c-0.132,0.168-0.313,0.462-0.396,0.785c-0.132,0.448-0.265,1.051-0.281,1.289c-0.017,0.112,0.017,0.224,0.05,0.266
			c0.215,0.308,0.711,0.49,1.157,0.49C219.85,103.055,220.131,102.957,220.494,102.663z"/>
		<path fill="#666766" d="M158.942,118.041c0.562-0.084,0.711-0.294,0.859-0.994c0.33-1.513,0.843-4.342,1.256-6.485
			c0-0.042-0.05-0.112-0.1-0.112c-0.23-0.028-1.52-0.014-1.851,0.014c-0.215,0.014-0.512,0.098-0.776,0.364
			c-0.281,0.28-0.546,0.659-0.942,1.26c-0.115,0.042-0.446-0.084-0.479-0.154c0.264-0.561,0.628-1.568,0.776-2.185
			c0.017-0.028,0.099-0.042,0.132-0.042c0.413,0.14,0.826,0.196,1.256,0.196h5.751c0.578,0,1.024-0.042,1.554-0.168
			c0.033,0,0.099,0.07,0.099,0.098c-0.247,0.504-0.528,1.387-0.727,2.213c-0.05,0.056-0.446,0.07-0.513,0
			c0.033-0.532,0.017-0.966-0.05-1.218c-0.049-0.28-0.347-0.364-0.495-0.364c-0.578-0.042-1.983-0.042-2.215-0.028
			c-0.033,0.014-0.115,0.084-0.115,0.126c-0.363,1.933-1.174,6.079-1.223,6.835c-0.017,0.351,0.099,0.533,0.462,0.603
			c0.265,0.07,0.661,0.112,1.124,0.154c0.066,0.056,0,0.364-0.066,0.406c-0.545,0-1.536-0.042-2.462-0.042
			c-0.876,0-2.032,0.042-2.38,0.042c-0.049-0.07-0.017-0.364,0.066-0.406C158.331,118.111,158.678,118.083,158.942,118.041z"/>
		<path fill="#666766" d="M167.549,113.881c-0.165,0-0.562,0.225-0.975,0.547c-0.017,0-0.066-0.028-0.066-0.057
			c-0.017-0.084,0.033-0.35,0.066-0.393c0.693-0.658,1.751-1.219,2.132-1.219c0.23,0,0.33,0.322,0.082,1.262
			c-0.231,0.938-0.562,2.227-0.694,2.871c-0.115,0.561-0.049,0.813,0.314,0.813c0.578,0,1.719-0.952,2.429-2.102
			c0.166-0.279,0.298-0.615,0.43-1.008c0.149-0.547,0.298-1.205,0.413-1.387c0.133-0.112,0.926-0.393,1.207-0.449
			c0.033,0.015,0.082,0.113,0.065,0.169c-0.182,0.21-0.28,0.504-0.38,0.91c-0.28,1.009-0.628,2.479-0.727,3.292
			c-0.033,0.28-0.033,0.504,0.148,0.504s0.496-0.153,1.041-0.686c0.017,0,0.066,0.042,0.066,0.069c0,0.126-0.05,0.364-0.083,0.435
			c-0.611,0.784-1.636,1.289-2.082,1.289c-0.363,0-0.43-0.449-0.298-1.247c0.066-0.378,0.149-0.687,0.215-1.051
			c0-0.028-0.049-0.028-0.065-0.014c-0.611,0.771-1.322,1.358-1.967,1.765c-0.545,0.351-1.024,0.547-1.438,0.547
			c-0.446,0-0.728-0.379-0.479-1.556c0.132-0.644,0.545-2.282,0.728-2.997C167.664,114.035,167.664,113.881,167.549,113.881z"/>
		<path fill="#666766" d="M176.883,117.061c0.017,0.07-0.017,0.336-0.05,0.406c-0.776,0.883-1.735,1.275-2.082,1.275
			s-0.496-0.379-0.265-1.317c0.248-1.078,0.579-2.381,0.777-3.222c0.049-0.195,0.017-0.309-0.066-0.309
			c-0.182,0-0.496,0.154-0.893,0.421c0,0-0.05-0.015-0.05-0.042c-0.032-0.084,0.033-0.322,0.066-0.364
			c0.661-0.574,1.669-1.149,2.082-1.149c0.215,0,0.265,0.337,0.1,0.981c-0.165,0.757-0.744,2.871-0.843,3.529
			c-0.033,0.253,0.017,0.364,0.165,0.364c0.215,0,0.529-0.182,1.008-0.616C176.833,117.019,176.883,117.033,176.883,117.061z
			 M177.081,110.449c0.066,0.084,0.1,0.252,0.083,0.378c-0.033,0.266-0.215,0.491-0.413,0.602c-0.116,0.057-0.661,0.098-0.744,0.042
			c-0.165-0.084-0.248-0.224-0.265-0.476c0.017-0.112,0.083-0.322,0.149-0.392c0.165-0.14,0.512-0.252,0.793-0.252
			C176.916,110.351,177.048,110.407,177.081,110.449z"/>
		<path fill="#666766" d="M178.038,114.414c-0.033-0.085,0.033-0.365,0.05-0.406c0.727-0.715,1.669-1.248,2.032-1.248
			c0.298,0,0.331,0.449,0.148,1.303l-0.247,1.107c0,0.014,0.032,0.027,0.049,0c0.843-1.009,1.818-1.779,2.678-2.172
			c0.33-0.153,0.595-0.238,0.892-0.238c0.563,0,0.596,0.659,0.298,1.892c-0.265,1.051-0.479,1.976-0.595,2.577
			c-0.017,0.211-0.017,0.379,0.132,0.379c0.165,0,0.479-0.126,0.992-0.616c0.016,0,0.049,0.014,0.065,0.069
			c0.017,0.057-0.033,0.379-0.082,0.435c-0.645,0.756-1.637,1.247-2.083,1.247c-0.347,0-0.413-0.491-0.198-1.415
			c0.231-1.009,0.513-2.06,0.694-2.815c0.116-0.533,0.083-0.785-0.215-0.785c-0.496,0-1.487,0.715-2.462,2.045
			c-0.231,0.309-0.479,0.855-0.595,1.304c-0.149,0.504-0.265,1.008-0.215,1.204c-0.183,0.168-0.942,0.448-1.107,0.463
			c-0.083,0.014-0.165-0.085-0.148-0.154c0.065-0.561,0.81-3.18,0.991-4.356c0.033-0.196,0.017-0.322-0.1-0.322
			c-0.165,0-0.545,0.252-0.908,0.546C178.088,114.455,178.038,114.428,178.038,114.414z"/>
		<path fill="#666766" d="M192.049,117.033c0.017,0.084-0.017,0.378-0.05,0.434c-0.611,0.729-1.619,1.275-2.049,1.275
			c-0.347,0-0.463-0.406-0.347-1.093c0.065-0.337,0.115-0.658,0.215-1.135c0.016-0.028-0.033-0.028-0.05-0.015
			c-1.024,1.219-2.396,2.242-3.189,2.242c-0.678,0-0.876-0.869-0.876-1.415c0-1.205,0.562-2.479,1.521-3.319
			c0.545-0.463,1.817-1.219,3.223-1.219c0.495,0,1.09,0.056,1.471,0.125c-0.198,0.379-0.314,0.645-0.397,0.883
			c-0.264,0.91-0.645,2.83-0.693,3.418c-0.017,0.294,0.049,0.393,0.165,0.393c0.165,0,0.496-0.154,0.991-0.616
			C191.982,116.991,192.049,117.005,192.049,117.033z M189.686,115.926c0.215-0.308,0.363-0.645,0.496-1.092
			c0.148-0.49,0.313-1.107,0.396-1.262c-0.165-0.069-0.678-0.14-1.074-0.14c-0.843,0-1.438,0.378-1.917,1.12
			c-0.463,0.715-0.628,1.569-0.628,2.158c0,0.7,0.198,0.966,0.513,0.966C188.017,117.677,188.926,116.963,189.686,115.926z"/>
		<path fill="#666766" d="M199.482,117.033c0.017,0.084-0.017,0.378-0.05,0.434c-0.611,0.729-1.619,1.275-2.049,1.275
			c-0.347,0-0.463-0.406-0.347-1.093c0.065-0.337,0.115-0.658,0.215-1.135c0.016-0.028-0.033-0.028-0.05-0.015
			c-1.024,1.219-2.396,2.242-3.189,2.242c-0.678,0-0.876-0.869-0.876-1.415c0-1.205,0.562-2.479,1.521-3.319
			c0.545-0.463,1.817-1.219,3.223-1.219c0.495,0,1.09,0.056,1.471,0.125c-0.198,0.379-0.314,0.645-0.397,0.883
			c-0.264,0.91-0.645,2.83-0.693,3.418c-0.017,0.294,0.049,0.393,0.165,0.393c0.165,0,0.496-0.154,0.991-0.616
			C199.416,116.991,199.482,117.005,199.482,117.033z M197.119,115.926c0.215-0.308,0.363-0.645,0.496-1.092
			c0.148-0.49,0.313-1.107,0.396-1.262c-0.165-0.069-0.678-0.14-1.074-0.14c-0.843,0-1.438,0.378-1.917,1.12
			c-0.463,0.715-0.628,1.569-0.628,2.158c0,0.7,0.198,0.966,0.513,0.966C195.45,117.677,196.359,116.963,197.119,115.926z"/>
		<path fill="#666766" d="M200.57,114.414c-0.033-0.085,0.033-0.365,0.05-0.406c0.727-0.715,1.669-1.248,2.032-1.248
			c0.298,0,0.331,0.449,0.148,1.303l-0.247,1.107c0,0.014,0.032,0.027,0.049,0c0.843-1.009,1.818-1.779,2.678-2.172
			c0.33-0.153,0.595-0.238,0.892-0.238c0.563,0,0.596,0.659,0.298,1.892c-0.265,1.051-0.479,1.976-0.595,2.577
			c-0.017,0.211-0.017,0.379,0.132,0.379c0.165,0,0.479-0.126,0.992-0.616c0.016,0,0.049,0.014,0.065,0.069
			c0.017,0.057-0.033,0.379-0.082,0.435c-0.645,0.756-1.637,1.247-2.083,1.247c-0.347,0-0.413-0.491-0.198-1.415
			c0.231-1.009,0.513-2.06,0.694-2.815c0.116-0.533,0.083-0.785-0.215-0.785c-0.495,0-1.487,0.715-2.462,2.045
			c-0.231,0.309-0.479,0.855-0.595,1.304c-0.149,0.504-0.265,1.008-0.215,1.204c-0.183,0.168-0.942,0.448-1.107,0.463
			c-0.083,0.014-0.165-0.085-0.148-0.154c0.065-0.561,0.81-3.18,0.991-4.356c0.033-0.196,0.017-0.322-0.1-0.322
			c-0.165,0-0.545,0.252-0.908,0.546C200.62,114.455,200.57,114.428,200.57,114.414z"/>
		<path fill="#666766" d="M208.896,109.819c0.826-0.448,1.934-0.882,2.297-0.882c0.231,0,0.165,0.504,0.1,0.854
			c-0.43,1.934-1.455,6.359-1.587,7.326c-0.05,0.308,0,0.518,0.165,0.518c0.231,0,0.611-0.182,1.124-0.658
			c0.017,0,0.05,0.042,0.05,0.084c0,0.112-0.05,0.379-0.1,0.421c-0.694,0.77-1.702,1.246-2.182,1.246
			c-0.297,0-0.445-0.392-0.264-1.303c0.264-1.345,1.256-5.603,1.504-7.102c0.032-0.238,0-0.364-0.133-0.364
			c-0.215,0-0.661,0.098-1.091,0.266C208.764,110.169,208.847,109.833,208.896,109.819z"/>
		<path fill="#666766" d="M216.844,113.656c0.017,0.688-0.595,1.191-1.603,1.64c-0.678,0.308-1.372,0.505-1.867,0.645
			c-0.05,0.014-0.1,0.069-0.1,0.126c-0.017,0.07-0.033,0.182-0.033,0.28c0,0.868,0.348,1.471,1.207,1.471
			c0.644,0,1.371-0.252,2.181-0.98c0.017,0,0.083,0.042,0.083,0.084c0,0.084-0.066,0.308-0.116,0.406
			c-0.76,0.868-2.016,1.4-2.975,1.4c-1.173,0-1.569-0.938-1.569-1.933c0-1.009,0.446-2.381,1.421-3.124
			c0.661-0.505,1.752-0.911,2.347-0.911C216.381,112.76,216.811,113.139,216.844,113.656z M213.374,115.352
			c-0.017,0.043,0.017,0.07,0.049,0.07c0.513-0.084,1.174-0.28,1.669-0.532c0.381-0.196,0.612-0.49,0.612-0.896
			c0-0.322-0.215-0.603-0.661-0.603C214.432,113.391,213.621,114.008,213.374,115.352z"/>
		<path fill="#666766" d="M224.18,113.068c-0.116,0.309-0.529,0.658-0.876,0.757c-0.149,0.069-0.364,0.126-0.546,0.153
			c0.017,0.084,0.017,0.295,0.017,0.379c0,1.037-0.578,1.919-1.404,2.396c-0.413,0.252-0.976,0.406-1.339,0.476
			c-0.099,0.028-0.231,0.057-0.363,0.112c-0.132,0.07-0.281,0.168-0.281,0.267c0,0.14,0.149,0.266,0.479,0.406
			c0.678,0.266,1.636,0.672,2.148,0.966c0.545,0.309,0.876,0.645,0.876,1.106c0,0.533-0.496,1.205-1.471,1.695
			c-0.744,0.364-1.57,0.49-2.099,0.49c-1.702,0-2.893-0.784-2.893-1.736c0-0.491,1.041-1.107,2.248-1.724
			c0.032-0.014,0.017-0.042,0-0.056c-0.381-0.225-0.563-0.463-0.563-0.673c0-0.056,0.05-0.168,0.1-0.21
			c0.182-0.168,0.727-0.462,0.925-0.561c0-0.014,0.017-0.042-0.017-0.056c-0.892-0.168-1.239-0.799-1.239-1.526
			c0.017-0.896,0.513-1.905,1.487-2.466c0.479-0.267,1.306-0.505,1.752-0.505c0.281,0,0.661,0.113,1.091,0.295
			c0.182,0.07,0.528,0.196,0.81,0.182c0.463,0,0.776-0.07,1.124-0.336C224.18,112.914,224.18,113.026,224.18,113.068z
			 M221.783,120.646c0-0.35-0.248-0.603-0.661-0.854c-0.562-0.35-1.504-0.771-1.834-0.771c-0.231,0-1.735,0.771-1.735,1.247
			c0,0.687,1.074,1.358,2.412,1.358C221.139,121.613,221.783,121.165,221.783,120.646z M221.635,114.596
			c0-0.742-0.348-1.289-1.074-1.289c-0.959,0-1.471,1.205-1.471,2.129c0,0.743,0.363,1.289,1.09,1.289
			C221.039,116.725,221.635,115.632,221.635,114.596z"/>
		<path fill="#666766" d="M156.546,130.198c0-1.373,0.578-2.83,1.669-3.839c1.058-1.064,2.594-1.723,4.23-1.723
			c2.562,0,3.768,1.611,3.784,3.558c0.017,1.359-0.463,2.773-1.471,3.797c-1.174,1.218-2.628,1.778-4.313,1.778
			C157.769,133.77,156.546,132.229,156.546,130.198z M162.742,132.733c1.521-0.938,2-2.899,2-4.427
			c-0.033-1.736-0.826-3.109-2.876-3.109c-2.479,0-3.833,2.521-3.833,4.889c0,1.849,0.975,3.123,2.958,3.123
			C161.651,133.209,162.264,133.041,162.742,132.733z"/>
		<path fill="#666766" d="M167.465,129.413c-0.033-0.084,0.033-0.364,0.05-0.406c0.727-0.714,1.669-1.246,2.032-1.246
			c0.298,0,0.331,0.448,0.148,1.303l-0.247,1.106c0,0.014,0.032,0.028,0.049,0c0.843-1.009,1.818-1.779,2.678-2.171
			c0.33-0.154,0.595-0.238,0.892-0.238c0.563,0,0.596,0.658,0.298,1.891c-0.265,1.051-0.479,1.976-0.595,2.577
			c-0.017,0.211-0.017,0.379,0.132,0.379c0.165,0,0.479-0.126,0.992-0.616c0.016,0,0.049,0.014,0.065,0.069
			c0.017,0.057-0.033,0.379-0.082,0.435c-0.645,0.756-1.637,1.247-2.083,1.247c-0.347,0-0.413-0.491-0.198-1.415
			c0.231-1.009,0.513-2.06,0.694-2.815c0.116-0.532,0.083-0.785-0.215-0.785c-0.495,0-1.487,0.715-2.462,2.046
			c-0.231,0.308-0.479,0.854-0.595,1.303c-0.149,0.504-0.265,1.008-0.215,1.204c-0.183,0.168-0.942,0.448-1.107,0.463
			c-0.083,0.014-0.165-0.085-0.148-0.154c0.065-0.561,0.81-3.18,0.991-4.356c0.033-0.196,0.017-0.322-0.1-0.322
			c-0.165,0-0.545,0.252-0.908,0.546C167.515,129.455,167.465,129.428,167.465,129.413z"/>
		<path fill="#666766" d="M176.634,128.811c0.727-0.588,2.032-1.05,2.677-1.05c0.413,0,0.711,0.042,0.893,0.098
			c0.033,0.014,0.083-0.014,0.083-0.042c0.23-0.91,0.479-2.087,0.545-2.535c0.033-0.294,0-0.42-0.165-0.42
			c-0.182,0-0.578,0.056-1.074,0.237c-0.033-0.056,0.017-0.35,0.066-0.392c0.743-0.379,1.966-0.784,2.379-0.784
			c0.198,0.014,0.182,0.308,0.1,0.714c-0.496,2.228-1.652,6.892-1.669,7.803c0,0.126,0.065,0.237,0.148,0.237
			c0.248,0,0.611-0.237,1.074-0.63c0.017,0.014,0.05,0.028,0.05,0.056c0.017,0.112-0.05,0.364-0.083,0.435
			c-0.611,0.687-1.834,1.345-2.23,1.345c-0.198,0-0.298-0.28-0.248-0.589c0.017-0.378,0.132-0.896,0.297-1.681
			c-0.017-0.014-0.065-0.014-0.082,0c-1.091,1.247-2.479,2.115-3.239,2.115c-0.793,0-1.008-0.91-1.008-1.597
			C175.146,130.898,175.708,129.567,176.634,128.811z M179.311,131.024c0.165-0.225,0.331-0.49,0.413-0.799
			c0.116-0.364,0.265-1.093,0.298-1.261c0-0.126-0.017-0.224-0.1-0.28c-0.28-0.21-0.743-0.321-1.239-0.321
			c-1.521,0-2.264,1.919-2.264,3.319c0,0.687,0.215,1.036,0.628,1.036C177.51,132.719,178.401,132.201,179.311,131.024z"/>
		<path fill="#666766" d="M187.653,128.657c0.017,0.687-0.595,1.19-1.603,1.639c-0.678,0.308-1.372,0.504-1.867,0.645
			c-0.05,0.014-0.1,0.069-0.1,0.126c-0.017,0.07-0.033,0.182-0.033,0.28c0,0.868,0.348,1.471,1.207,1.471
			c0.645,0,1.371-0.252,2.181-0.98c0.017,0,0.083,0.042,0.083,0.084c0,0.084-0.066,0.308-0.116,0.406
			c-0.76,0.868-2.016,1.4-2.975,1.4c-1.173,0-1.569-0.938-1.569-1.933c0-1.009,0.446-2.382,1.421-3.124
			c0.661-0.504,1.752-0.91,2.347-0.91C187.19,127.761,187.62,128.139,187.653,128.657z M184.184,130.352
			c-0.017,0.042,0.017,0.07,0.049,0.07c0.513-0.084,1.174-0.28,1.67-0.532c0.38-0.196,0.611-0.49,0.611-0.896
			c0-0.322-0.215-0.603-0.661-0.603C185.241,128.391,184.431,129.007,184.184,130.352z"/>
		<path fill="#666766" d="M191.684,128.559c0.479-0.504,0.942-0.798,1.306-0.798c0.265,0,0.562,0.084,0.711,0.322v0.195
			c-0.05,0.211-0.479,0.785-0.678,0.925c-0.066,0.057-0.148,0.057-0.198,0.028c-0.231-0.238-0.463-0.351-0.645-0.351
			c-0.265,0-0.776,0.49-1.471,1.723c-0.231,0.421-0.463,0.995-0.645,1.64c-0.1,0.378-0.198,0.771-0.182,1.05
			c-0.149,0.141-0.959,0.435-1.141,0.449c-0.066,0-0.115-0.085-0.115-0.127c0.082-0.336,0.826-3.081,0.958-4.202
			c0.05-0.336,0.017-0.476-0.099-0.476c-0.149,0-0.496,0.195-0.942,0.518c-0.017,0-0.066-0.014-0.066-0.042
			c-0.017-0.098,0.05-0.336,0.066-0.378c0.694-0.672,1.702-1.274,2.065-1.274c0.231,0,0.314,0.294,0.165,1.148
			c-0.065,0.364-0.148,0.672-0.214,0.994c0,0.015,0.049,0.028,0.065,0C190.957,129.428,191.254,129.035,191.684,128.559z"/>
		<path fill="#666766" d="M196.259,130.59c-0.396,0.532-0.628,0.98-0.81,1.667c-0.099,0.364-0.182,0.757-0.082,0.98
			c-0.198,0.154-0.992,0.532-1.174,0.532c-0.033,0-0.132-0.098-0.132-0.168c0-0.21,0.065-0.477,0.132-0.799
			c0.463-2.227,1.521-6.709,1.652-7.563c0.017-0.21-0.065-0.309-0.182-0.309c-0.215,0-0.43,0.057-0.975,0.267
			c-0.017-0.057,0.033-0.364,0.082-0.406c0.628-0.378,1.835-0.854,2.265-0.854c0.148,0,0.231,0.182,0.115,0.742
			c-0.33,1.471-1.041,4.454-1.272,5.533c0,0.014,0.05,0.028,0.066,0c1.223-1.415,2.793-2.451,3.734-2.451
			c0.578,0,0.578,0.616,0.331,1.681c-0.231,1.022-0.513,2.087-0.645,2.815c-0.017,0.252,0.017,0.364,0.165,0.364
			c0.182,0,0.578-0.21,1.008-0.603c0.017,0.015,0.05,0.042,0.05,0.084c0.017,0.112-0.05,0.364-0.066,0.406
			c-0.743,0.813-1.719,1.233-2.082,1.233c-0.298,0-0.43-0.393-0.313-0.967c0.182-0.98,0.495-2.144,0.776-3.278
			c0.132-0.588,0.083-0.813-0.215-0.813C198.176,128.685,197.118,129.428,196.259,130.59z"/>
		<path fill="#666766" d="M207.478,129.638c0,1.442-0.694,2.871-2.23,3.613c-0.661,0.337-1.405,0.491-1.802,0.491
			c-1.091,0-1.603-0.911-1.603-1.947c0-1.219,0.495-2.55,1.686-3.292c0.71-0.448,1.719-0.742,2.297-0.742
			C207.064,127.761,207.478,128.783,207.478,129.638z M204.288,133.069c1.058,0,1.9-1.499,1.9-3.054
			c0-0.826-0.231-1.625-1.189-1.639c-1.272,0-1.9,1.751-1.9,2.983C203.099,132.495,203.462,133.069,204.288,133.069z"/>
		<path fill="#666766" d="M209.821,128.881c-0.165,0-0.562,0.225-0.975,0.547c-0.017,0-0.066-0.028-0.066-0.057
			c-0.017-0.084,0.033-0.35,0.066-0.392c0.693-0.659,1.751-1.219,2.132-1.219c0.23,0,0.33,0.322,0.082,1.261
			c-0.231,0.938-0.562,2.227-0.694,2.871c-0.115,0.561-0.049,0.813,0.314,0.813c0.578,0,1.719-0.952,2.429-2.102
			c0.166-0.279,0.298-0.616,0.43-1.008c0.149-0.547,0.298-1.205,0.414-1.387c0.132-0.112,0.925-0.393,1.206-0.448
			c0.033,0.014,0.082,0.111,0.065,0.168c-0.182,0.21-0.28,0.504-0.38,0.91c-0.28,1.009-0.628,2.479-0.727,3.292
			c-0.033,0.28-0.033,0.504,0.148,0.504s0.496-0.153,1.041-0.686c0.017,0,0.066,0.042,0.066,0.069c0,0.126-0.05,0.364-0.083,0.435
			c-0.611,0.784-1.636,1.289-2.082,1.289c-0.363,0-0.43-0.449-0.298-1.247c0.066-0.378,0.149-0.687,0.215-1.051
			c0-0.028-0.049-0.028-0.065-0.014c-0.611,0.771-1.322,1.358-1.967,1.765c-0.545,0.351-1.024,0.547-1.438,0.547
			c-0.446,0-0.728-0.379-0.479-1.556c0.132-0.644,0.546-2.283,0.728-2.997C209.937,129.035,209.937,128.881,209.821,128.881z"/>
		<path fill="#666766" d="M217.933,128.811c0.727-0.588,2.032-1.05,2.677-1.05c0.413,0,0.711,0.042,0.893,0.098
			c0.033,0.014,0.083-0.014,0.083-0.042c0.23-0.91,0.479-2.087,0.545-2.535c0.033-0.294,0-0.42-0.165-0.42
			c-0.182,0-0.578,0.056-1.074,0.237c-0.033-0.056,0.017-0.35,0.066-0.392c0.743-0.379,1.966-0.784,2.379-0.784
			c0.198,0.014,0.182,0.308,0.1,0.714c-0.496,2.228-1.652,6.892-1.669,7.803c0,0.126,0.065,0.237,0.148,0.237
			c0.248,0,0.611-0.237,1.074-0.63c0.017,0.014,0.05,0.028,0.05,0.056c0.017,0.112-0.05,0.364-0.083,0.435
			c-0.611,0.687-1.834,1.345-2.23,1.345c-0.198,0-0.298-0.28-0.248-0.589c0.017-0.378,0.132-0.896,0.297-1.681
			c-0.017-0.014-0.065-0.014-0.082,0c-1.091,1.247-2.479,2.115-3.239,2.115c-0.793,0-1.008-0.91-1.008-1.597
			C216.445,130.898,217.007,129.567,217.933,128.811z M220.609,131.024c0.165-0.225,0.331-0.49,0.413-0.799
			c0.116-0.364,0.265-1.093,0.298-1.261c0-0.126-0.017-0.224-0.1-0.28c-0.28-0.21-0.743-0.321-1.239-0.321
			c-1.521,0-2.264,1.919-2.264,3.319c0,0.687,0.215,1.036,0.628,1.036C218.809,132.719,219.7,132.201,220.609,131.024z"/>
		<path fill="#666766" d="M167.086,139.861c0.298,0,1.355,0.042,1.95,0.042c1.173-0.015,1.537-0.015,2.148-0.015
			c1.784,0,2.743,0.799,2.743,1.989c0,1.316-1.174,2.115-2.413,2.493c-0.033,0.028-0.066,0.07-0.05,0.084
			c0.479,0.883,1.422,2.199,2.066,2.956c0.528,0.603,0.859,0.687,1.784,0.784c0.033,0.056-0.017,0.364-0.115,0.406
			c-0.711,0.028-1.9-0.028-2.38-0.266c-0.231-0.112-0.496-0.309-0.728-0.603c-0.479-0.631-1.288-1.947-1.768-2.704
			c-0.133-0.224-0.331-0.308-0.463-0.322h-0.843c-0.033,0-0.1,0.057-0.1,0.085c-0.148,0.784-0.38,2.003-0.445,2.521
			c-0.066,0.477,0.099,0.631,0.445,0.701c0.231,0.069,0.546,0.098,0.959,0.153c0.033,0.042,0,0.351-0.083,0.393
			c-0.677,0-1.735-0.042-2.264-0.042c-1.008,0.014-1.537,0.042-2.115,0.042c-0.05-0.056-0.017-0.351,0.033-0.406
			c0.313-0.014,0.743-0.084,0.925-0.112c0.43-0.084,0.596-0.224,0.728-0.756c0.347-1.415,1.024-5.071,1.206-6.275
			c0.05-0.421-0.082-0.547-0.396-0.616c-0.215-0.057-0.578-0.099-0.925-0.141C166.954,140.197,167.02,139.875,167.086,139.861z
			 M170.375,140.352c-0.116,0-0.381,0.014-0.496,0.056c-0.1,0.042-0.148,0.154-0.182,0.252c-0.133,0.547-0.479,2.493-0.661,3.474
			c-0.017,0.057,0.033,0.099,0.083,0.099c0.644,0.028,1.338,0,1.9-0.183c0.908-0.308,1.486-0.966,1.486-1.919
			C172.506,141.023,171.829,140.352,170.375,140.352z"/>
		<path fill="#666766" d="M180.451,143.657c0.017,0.687-0.595,1.19-1.603,1.639c-0.678,0.308-1.372,0.504-1.867,0.645
			c-0.05,0.014-0.1,0.069-0.1,0.126c-0.017,0.07-0.033,0.182-0.033,0.28c0,0.868,0.348,1.471,1.207,1.471
			c0.644,0,1.371-0.252,2.181-0.98c0.017,0,0.083,0.042,0.083,0.084c0,0.084-0.066,0.308-0.116,0.406
			c-0.76,0.868-2.016,1.4-2.975,1.4c-1.173,0-1.569-0.938-1.569-1.933c0-1.009,0.446-2.382,1.421-3.124
			c0.661-0.504,1.752-0.91,2.347-0.91C179.988,142.761,180.418,143.139,180.451,143.657z M176.981,145.352
			c-0.017,0.042,0.017,0.07,0.049,0.07c0.513-0.084,1.174-0.28,1.669-0.532c0.381-0.196,0.612-0.49,0.612-0.896
			c0-0.322-0.215-0.603-0.661-0.603C178.039,143.391,177.229,144.007,176.981,145.352z"/>
		<path fill="#666766" d="M181.358,144.413c-0.033-0.084,0.033-0.364,0.05-0.406c0.727-0.714,1.669-1.246,2.032-1.246
			c0.298,0,0.331,0.448,0.148,1.303l-0.247,1.106c0,0.014,0.032,0.028,0.049,0c0.843-1.009,1.818-1.779,2.678-2.171
			c0.33-0.154,0.595-0.238,0.892-0.238c0.563,0,0.596,0.658,0.298,1.891c-0.265,1.051-0.479,1.976-0.595,2.577
			c-0.017,0.211-0.017,0.379,0.132,0.379c0.165,0,0.479-0.126,0.992-0.616c0.016,0,0.049,0.014,0.065,0.069
			c0.017,0.057-0.033,0.379-0.082,0.435c-0.645,0.756-1.637,1.247-2.083,1.247c-0.347,0-0.413-0.491-0.198-1.415
			c0.231-1.009,0.513-2.06,0.694-2.815c0.116-0.532,0.083-0.785-0.215-0.785c-0.496,0-1.487,0.715-2.462,2.046
			c-0.231,0.308-0.479,0.854-0.595,1.303c-0.149,0.504-0.265,1.008-0.215,1.204c-0.183,0.168-0.942,0.448-1.107,0.463
			c-0.083,0.014-0.165-0.085-0.148-0.154c0.065-0.561,0.81-3.18,0.991-4.356c0.033-0.196,0.017-0.322-0.1-0.322
			c-0.165,0-0.545,0.252-0.908,0.546C181.408,144.455,181.358,144.428,181.358,144.413z"/>
		<path fill="#666766" d="M194.708,144.638c0,1.442-0.694,2.871-2.23,3.613c-0.661,0.337-1.405,0.491-1.802,0.491
			c-1.091,0-1.603-0.911-1.603-1.947c0-1.219,0.495-2.55,1.686-3.292c0.71-0.448,1.719-0.742,2.297-0.742
			C194.295,142.761,194.708,143.783,194.708,144.638z M191.519,148.069c1.058,0,1.9-1.499,1.9-3.054
			c0-0.826-0.231-1.625-1.189-1.639c-1.272,0-1.9,1.751-1.9,2.983C190.329,147.495,190.692,148.069,191.519,148.069z"/>
		<path fill="#666766" d="M200.175,143.335c-0.017-0.028,0.017-0.112,0.066-0.154c0.298-0.182,0.859-0.406,1.091-0.42
			c0.198,0.042,0.38,0.406,0.38,0.882c0,1.064-0.893,2.367-1.752,3.222c-0.975,0.995-1.801,1.569-2.412,1.821
			c-0.149,0.07-0.331,0.07-0.413,0.057c-0.198-0.169-0.265-0.645-0.248-1.485c0.017-0.799,0.132-2.283,0.148-2.955
			c0.017-0.28-0.033-0.406-0.148-0.406c-0.148,0-0.496,0.195-0.942,0.588c-0.017,0-0.065-0.028-0.082-0.07
			c-0.017-0.111,0.032-0.35,0.082-0.406c0.298-0.308,0.694-0.644,1.157-0.924c0.363-0.225,0.628-0.322,0.81-0.322
			c0.248,0,0.347,0.378,0.313,1.05c-0.065,0.911-0.132,2.088-0.165,2.76c-0.033,0.589-0.017,0.883,0.066,1.022
			c0.05,0.099,0.148,0.099,0.265,0.028c0.975-0.603,2.23-2.241,2.214-3.277C200.604,144.021,200.456,143.615,200.175,143.335z"/>
		<path fill="#666766" d="M208.882,147.033c0.017,0.084-0.017,0.378-0.05,0.434c-0.611,0.729-1.619,1.275-2.049,1.275
			c-0.347,0-0.463-0.406-0.347-1.093c0.065-0.337,0.115-0.658,0.214-1.135c0.017-0.028-0.032-0.028-0.049-0.015
			c-1.024,1.219-2.396,2.242-3.189,2.242c-0.678,0-0.876-0.869-0.876-1.415c0-1.205,0.562-2.479,1.521-3.32
			c0.545-0.462,1.817-1.219,3.223-1.219c0.495,0,1.09,0.057,1.471,0.126c-0.198,0.379-0.314,0.645-0.397,0.883
			c-0.264,0.91-0.644,2.83-0.693,3.418c-0.017,0.294,0.05,0.393,0.165,0.393c0.165,0,0.496-0.154,0.991-0.616
			C208.815,146.991,208.882,147.005,208.882,147.033z M206.519,145.926c0.215-0.308,0.363-0.644,0.496-1.092
			c0.148-0.49,0.313-1.107,0.396-1.261c-0.165-0.07-0.678-0.141-1.074-0.141c-0.843,0-1.438,0.378-1.917,1.121
			c-0.463,0.714-0.628,1.568-0.628,2.157c0,0.7,0.198,0.966,0.513,0.966C204.85,147.677,205.759,146.963,206.519,145.926z"/>
		<path fill="#666766" d="M211.605,146.977c-0.082,0.561,0.066,0.715,0.298,0.715c0.463,0,1.206-0.616,1.487-0.938
			c0.033-0.015,0.099,0.027,0.082,0.056c0.017,0.126-0.032,0.378-0.082,0.435c-0.513,0.687-1.785,1.499-2.562,1.499
			c-0.298,0-0.562-0.295-0.529-0.939c0.017-0.56,0.563-2.899,0.843-4.146c0-0.028-0.017-0.07-0.049-0.07
			c-0.479,0-0.926-0.014-1.174-0.042c-0.017-0.028-0.017-0.07-0.017-0.098c0.1-0.141,0.563-0.463,0.645-0.49
			c0.066-0.015,0.265,0.014,0.661,0c0.066,0,0.116-0.043,0.116-0.07c0.23-0.813,0.347-1.289,0.462-1.499
			c0.1-0.168,0.976-0.742,1.256-0.826c0.05-0.015,0.166,0.126,0.133,0.168c-0.148,0.168-0.281,0.477-0.363,0.798
			c-0.116,0.379-0.248,0.883-0.348,1.331c-0.017,0.028,0,0.099,0.05,0.099c0.843,0.014,1.801-0.057,1.95-0.112
			c0.017,0.069-0.05,0.252-0.1,0.308c-0.115,0.112-0.495,0.267-0.876,0.322c-0.33,0.057-0.628,0.084-1.106,0.099
			c-0.05,0-0.083,0.042-0.116,0.098C212.035,144.596,211.688,146.347,211.605,146.977z"/>
		<path fill="#666766" d="M217.272,147.061c0.017,0.07-0.017,0.336-0.05,0.406c-0.776,0.883-1.734,1.275-2.082,1.275
			c-0.347,0-0.496-0.379-0.265-1.317c0.248-1.078,0.579-2.381,0.777-3.222c0.049-0.196,0.017-0.308-0.066-0.308
			c-0.182,0-0.496,0.153-0.893,0.42c0,0-0.05-0.014-0.05-0.042c-0.032-0.084,0.033-0.322,0.066-0.364
			c0.661-0.574,1.669-1.148,2.082-1.148c0.215,0,0.265,0.336,0.1,0.98c-0.165,0.756-0.744,2.871-0.843,3.529
			c-0.033,0.253,0.017,0.364,0.165,0.364c0.215,0,0.529-0.182,1.008-0.616C217.223,147.019,217.272,147.033,217.272,147.061z
			 M217.471,140.449c0.066,0.084,0.1,0.252,0.083,0.378c-0.033,0.267-0.215,0.49-0.413,0.603c-0.116,0.056-0.661,0.098-0.744,0.042
			c-0.165-0.084-0.248-0.224-0.265-0.477c0.017-0.111,0.083-0.321,0.149-0.392c0.165-0.141,0.512-0.252,0.793-0.252
			C217.306,140.352,217.438,140.407,217.471,140.449z"/>
		<path fill="#666766" d="M223.236,143.657c0.017,0.687-0.595,1.19-1.603,1.639c-0.678,0.308-1.372,0.504-1.867,0.645
			c-0.05,0.014-0.1,0.069-0.1,0.126c-0.017,0.07-0.033,0.182-0.033,0.28c0,0.868,0.348,1.471,1.207,1.471
			c0.644,0,1.371-0.252,2.181-0.98c0.017,0,0.083,0.042,0.083,0.084c0,0.084-0.066,0.308-0.116,0.406
			c-0.76,0.868-2.016,1.4-2.975,1.4c-1.173,0-1.569-0.938-1.569-1.933c0-1.009,0.446-2.382,1.421-3.124
			c0.661-0.504,1.752-0.91,2.347-0.91C222.773,142.761,223.203,143.139,223.236,143.657z M219.767,145.352
			c-0.017,0.042,0.017,0.07,0.049,0.07c0.513-0.084,1.174-0.28,1.669-0.532c0.381-0.196,0.612-0.49,0.612-0.896
			c0-0.322-0.215-0.603-0.661-0.603C220.824,143.391,220.014,144.007,219.767,145.352z"/>
		<path fill="#666766" d="M186.299,161.879c1.156-1.695,3.338-5.295,3.834-6.178c0.198-0.322,0.347-0.645,0.413-0.826
			c0.132,0.014,0.297,0.028,0.479,0.028c0.183,0,0.348-0.015,0.479-0.028c0,0.168,0.066,0.519,0.116,0.756
			c0.148,0.799,1.024,5.226,1.305,6.388c0.231,0.967,0.381,1.009,1.554,1.135c0.066,0.056,0.033,0.378-0.05,0.406
			c-0.347,0-1.14-0.042-1.884-0.042c-0.727,0-1.768,0.042-2.065,0.042c-0.05-0.056-0.033-0.364,0.033-0.406
			c0.33-0.042,0.661-0.07,0.893-0.14c0.215-0.07,0.264-0.267,0.247-0.364c-0.065-0.589-0.313-1.821-0.462-2.438
			c0-0.056-0.066-0.084-0.1-0.084c-0.248-0.015-0.843-0.015-1.554-0.015c-1.008,0-1.073,0-1.223,0.015
			c-0.065,0-0.148,0.07-0.165,0.098c-0.463,0.729-1.156,1.863-1.355,2.312c-0.099,0.224-0.065,0.435,0.314,0.504
			c0.165,0.028,0.528,0.084,0.81,0.112c0.05,0.042,0.017,0.351-0.05,0.406c-0.33,0-1.041-0.042-2.032-0.042
			c-0.909,0-1.454,0.042-1.702,0.042c-0.05-0.056-0.05-0.351,0.017-0.393C185.356,163.027,185.555,162.943,186.299,161.879z
			 M188.612,159.413c0,0.042-0.017,0.084,0.033,0.099c0.148,0.014,0.595,0.027,1.321,0.027c0.381,0,0.827,0,1.009-0.014
			c0.033,0,0.099-0.056,0.082-0.112c-0.182-0.994-0.462-2.465-0.595-3.067c-0.017,0-0.066,0.014-0.082,0.014
			C189.967,157.088,189.025,158.657,188.612,159.413z"/>
		<path fill="#666766" d="M196.822,158.811c0.727-0.588,2.032-1.05,2.677-1.05c0.413,0,0.711,0.042,0.893,0.098
			c0.033,0.014,0.083-0.014,0.083-0.042c0.23-0.91,0.479-2.087,0.545-2.535c0.033-0.294,0-0.42-0.165-0.42
			c-0.182,0-0.578,0.056-1.074,0.237c-0.033-0.056,0.017-0.35,0.066-0.392c0.743-0.379,1.966-0.784,2.379-0.784
			c0.198,0.014,0.182,0.308,0.1,0.714c-0.496,2.228-1.652,6.892-1.669,7.803c0,0.126,0.065,0.237,0.148,0.237
			c0.248,0,0.611-0.237,1.074-0.63c0.017,0.014,0.05,0.028,0.05,0.056c0.017,0.112-0.05,0.364-0.083,0.435
			c-0.611,0.687-1.834,1.345-2.23,1.345c-0.198,0-0.298-0.28-0.248-0.589c0.017-0.378,0.132-0.896,0.297-1.681
			c-0.017-0.014-0.065-0.014-0.082,0c-1.091,1.247-2.479,2.115-3.239,2.115c-0.793,0-1.008-0.91-1.008-1.597
			C195.335,160.898,195.896,159.567,196.822,158.811z M199.499,161.024c0.165-0.225,0.331-0.49,0.413-0.799
			c0.116-0.364,0.265-1.093,0.298-1.261c0-0.126-0.017-0.224-0.1-0.28c-0.28-0.21-0.743-0.321-1.239-0.321
			c-1.521,0-2.264,1.919-2.264,3.319c0,0.687,0.215,1.036,0.628,1.036C197.698,162.719,198.59,162.201,199.499,161.024z"/>
		<path fill="#666766" d="M207.197,158.335c-0.017-0.028,0.017-0.112,0.066-0.154c0.298-0.182,0.859-0.406,1.091-0.42
			c0.198,0.042,0.38,0.406,0.38,0.882c0,1.064-0.893,2.367-1.752,3.222c-0.975,0.995-1.801,1.569-2.412,1.821
			c-0.149,0.07-0.331,0.07-0.413,0.057c-0.198-0.169-0.265-0.645-0.248-1.485c0.017-0.799,0.132-2.283,0.148-2.955
			c0.017-0.28-0.033-0.406-0.148-0.406c-0.148,0-0.496,0.195-0.942,0.588c-0.017,0-0.065-0.028-0.082-0.07
			c-0.017-0.111,0.033-0.35,0.082-0.406c0.298-0.308,0.694-0.644,1.157-0.924c0.363-0.225,0.628-0.322,0.81-0.322
			c0.248,0,0.347,0.378,0.313,1.05c-0.065,0.911-0.132,2.088-0.165,2.76c-0.033,0.589-0.017,0.883,0.066,1.022
			c0.05,0.099,0.148,0.099,0.265,0.028c0.975-0.603,2.23-2.241,2.214-3.277C207.627,159.021,207.479,158.615,207.197,158.335z"/>
		<path fill="#666766" d="M212.285,162.061c0.017,0.07-0.017,0.336-0.05,0.406c-0.776,0.883-1.735,1.275-2.082,1.275
			s-0.496-0.379-0.265-1.317c0.248-1.078,0.579-2.381,0.777-3.222c0.049-0.196,0.017-0.308-0.066-0.308
			c-0.182,0-0.496,0.153-0.893,0.42c0,0-0.05-0.014-0.05-0.042c-0.032-0.084,0.033-0.322,0.066-0.364
			c0.661-0.574,1.669-1.148,2.082-1.148c0.215,0,0.265,0.336,0.1,0.98c-0.165,0.756-0.744,2.871-0.843,3.529
			c-0.033,0.253,0.017,0.364,0.165,0.364c0.215,0,0.529-0.182,1.008-0.616C212.235,162.019,212.285,162.033,212.285,162.061z
			 M212.483,155.449c0.066,0.084,0.1,0.252,0.083,0.378c-0.033,0.267-0.215,0.49-0.413,0.603c-0.116,0.056-0.661,0.098-0.744,0.042
			c-0.165-0.084-0.248-0.224-0.265-0.477c0.017-0.111,0.083-0.321,0.149-0.392c0.165-0.141,0.512-0.252,0.793-0.252
			C212.318,155.352,212.45,155.407,212.483,155.449z"/>
		<path fill="#666766" d="M218.249,158.657c0.017,0.687-0.595,1.19-1.603,1.639c-0.678,0.308-1.372,0.504-1.867,0.645
			c-0.05,0.014-0.1,0.069-0.1,0.126c-0.017,0.07-0.033,0.182-0.033,0.28c0,0.868,0.348,1.471,1.207,1.471
			c0.645,0,1.371-0.252,2.181-0.98c0.017,0,0.083,0.042,0.083,0.084c0,0.084-0.066,0.308-0.116,0.406
			c-0.76,0.868-2.016,1.4-2.975,1.4c-1.173,0-1.569-0.938-1.569-1.933c0-1.009,0.446-2.382,1.421-3.124
			c0.661-0.504,1.752-0.91,2.347-0.91C217.786,157.761,218.216,158.139,218.249,158.657z M214.779,160.352
			c-0.017,0.042,0.017,0.07,0.049,0.07c0.513-0.084,1.174-0.28,1.67-0.532c0.38-0.196,0.611-0.49,0.611-0.896
			c0-0.322-0.215-0.603-0.661-0.603C215.837,158.391,215.026,159.007,214.779,160.352z"/>
		<path fill="#666766" d="M223.188,158.068c0.017,0.028,0.033,0.141,0.017,0.21c-0.066,0.183-0.348,0.561-0.529,0.701
			c-0.049,0.027-0.148,0.014-0.182,0c-0.231-0.351-0.645-0.561-1.107-0.561c-0.462,0-0.859,0.308-0.859,0.756
			c0,0.364,0.183,0.589,1.174,1.219c0.876,0.574,1.189,0.896,1.189,1.359c0,0.35-0.165,0.854-0.925,1.387
			c-0.711,0.476-1.389,0.603-1.9,0.603c-0.529,0-0.976-0.154-1.207-0.351c-0.132-0.112-0.215-0.28-0.215-0.406
			c0-0.168,0.215-0.715,0.364-0.91c0.033-0.042,0.247-0.057,0.247-0.028c0.183,0.687,0.843,1.078,1.537,1.078
			c0.611,0,1.024-0.35,1.024-0.756c0-0.351-0.132-0.603-1.123-1.247c-0.893-0.588-1.107-0.938-1.107-1.387
			c0-0.364,0.182-0.868,0.76-1.303c0.661-0.504,1.405-0.672,1.835-0.672C222.709,157.761,223.089,157.914,223.188,158.068z"/>
	</g>
	<g>
		<path fill="#FFFFFF" d="M125.745,86.786c-0.387,0-1.174-0.034-1.987-0.034c-0.987,0-1.667,0.034-2.014,0.034
			c-0.054-0.056-0.04-0.282,0-0.328c0.413-0.034,0.746-0.068,0.946-0.113c0.427-0.068,0.494-0.294,0.507-0.814
			c0.04-0.882,0.054-3.302,0.054-5.178c0-0.045-0.054-0.091-0.094-0.091c-0.227-0.011-1.213-0.011-1.72,0
			c-0.228,0.011-0.4,0.091-0.561,0.317c-0.16,0.215-0.333,0.622-0.521,1.051c-0.053,0.034-0.387-0.034-0.413-0.09
			c0.106-0.475,0.24-1.379,0.267-1.866c0-0.022,0.12-0.057,0.146-0.045c0.24,0.102,0.587,0.169,1.081,0.169h4.934
			c0.614,0,0.907-0.022,1.294-0.169c0.04,0,0.12,0.034,0.134,0.056c-0.134,0.396-0.24,1.3-0.307,1.911
			c-0.04,0.057-0.387,0.057-0.427,0.011c-0.04-0.396-0.107-0.792-0.214-1.006c-0.106-0.226-0.267-0.316-0.521-0.328
			c-0.626-0.011-1.56-0.011-1.866,0c-0.04,0.012-0.067,0.057-0.067,0.091c0,1.662,0,4.794,0.04,5.371
			c0.04,0.396,0.146,0.531,0.454,0.599c0.213,0.057,0.439,0.079,0.906,0.125C125.838,86.515,125.812,86.764,125.745,86.786z"/>
		<path fill="#FFFFFF" d="M133.318,85.735c0.013,0.079-0.04,0.271-0.067,0.305c-0.587,0.565-1.507,0.848-2.12,0.848
			c-0.693,0-1.227-0.192-1.627-0.543c-0.547-0.463-0.76-1.153-0.76-1.797c0-0.995,0.493-1.662,1.173-2.047
			c0.414-0.226,1.014-0.373,1.44-0.373c1.294,0,1.761,0.973,1.867,1.605c0.014,0.045,0.066,0.091,0.2,0.125
			c0.014,0.045-0.066,0.237-0.106,0.26c-0.561,0.135-2.374,0.226-3.494,0.249c-0.054,0.011-0.08,0.068-0.08,0.125
			c0.026,0.384,0.227,0.859,0.547,1.153c0.399,0.351,0.854,0.498,1.453,0.498c0.533,0,1.027-0.136,1.521-0.475
			C133.278,85.678,133.305,85.701,133.318,85.735z M129.771,83.858c0,0.022,0.026,0.079,0.066,0.079
			c0.427,0.022,2.001-0.022,2.268-0.068c0.026-0.022,0.066-0.057,0.066-0.102c-0.066-0.565-0.507-1.21-1.227-1.21
			C130.304,82.558,129.837,83.055,129.771,83.858z"/>
		<path fill="#FFFFFF" d="M133.971,86.458c0.254-0.034,0.427-0.057,0.587-0.113c0.146-0.056,0.2-0.158,0.214-0.316
			c0.04-0.362,0.053-1.142,0.053-2.985c0-0.803,0-2.465-0.04-2.804c-0.013-0.125-0.026-0.316-0.2-0.351
			c-0.133-0.034-0.373-0.068-0.693-0.102c-0.053-0.034-0.04-0.249,0.014-0.283c0.653-0.045,1.48-0.237,1.96-0.418
			c0.04,0.011,0.094,0.079,0.094,0.102c-0.08,0.204-0.12,0.43-0.12,0.984c-0.014,0.577-0.014,1.854-0.014,2.827
			c0,1.775,0.014,2.544,0.04,2.849c0.014,0.306,0.054,0.441,0.294,0.509c0.16,0.056,0.267,0.079,0.56,0.102
			c0.027,0.057,0,0.271-0.053,0.328c-0.24,0-0.667-0.034-1.374-0.034c-0.52,0-1.146,0.034-1.32,0.034
			C133.944,86.73,133.918,86.526,133.971,86.458z"/>
		<path fill="#FFFFFF" d="M139.158,82.852c0.2,0.147,0.24,0.351,0.24,0.509c0,0.125-0.054,0.328-0.2,0.441
			c-0.16,0.136-0.36,0.192-0.573,0.192c-0.147,0-0.347-0.057-0.48-0.169c-0.16-0.136-0.227-0.294-0.227-0.486
			c0-0.17,0.08-0.339,0.24-0.464c0.133-0.113,0.333-0.181,0.507-0.181C138.852,82.693,139.052,82.761,139.158,82.852z
			 M139.158,85.746c0.2,0.147,0.24,0.339,0.24,0.498c0,0.113-0.067,0.328-0.2,0.441c-0.16,0.136-0.36,0.192-0.573,0.192
			c-0.16,0-0.347-0.057-0.48-0.17c-0.16-0.136-0.227-0.294-0.227-0.475c0-0.17,0.08-0.339,0.24-0.475
			c0.133-0.113,0.333-0.181,0.507-0.181C138.852,85.577,139.038,85.645,139.158,85.746z"/>
		<path fill="#FFFFFF" d="M147.959,80.455c0.427,0.407,0.946,1.244,0.946,2.725c0,1.492-0.439,2.521-1.227,3.143
			c-0.587,0.475-1.267,0.565-1.613,0.565c-0.641,0-1.147-0.169-1.521-0.441c-0.641-0.475-1.134-1.47-1.134-2.974
			c0-1.131,0.267-2.126,1-2.838c0.547-0.52,1.268-0.757,1.974-0.757C147.226,79.878,147.759,80.262,147.959,80.455z M145.238,80.647
			c-0.4,0.418-0.653,1.368-0.653,2.386c0,2.25,0.627,3.392,1.733,3.392c0.307,0,0.573-0.102,0.733-0.26
			c0.4-0.407,0.667-1.221,0.667-2.668c0-2.103-0.641-3.188-1.653-3.188C145.665,80.308,145.411,80.466,145.238,80.647z"/>
		<path fill="#FFFFFF" d="M151.398,82.716c-0.027,0.034,0.013,0.068,0.04,0.057c0.613-0.26,1.28-0.486,1.76-0.486
			c1.08,0,2.054,0.859,2.054,2.047c0,0.972-0.507,1.718-1.427,2.205c-0.373,0.204-1,0.362-1.413,0.362
			c-1.801,0-2.614-1.221-2.614-2.499c0-2.069,1.987-4.093,5.188-4.998c0.067,0.023,0.2,0.249,0.16,0.306
			C152.759,80.681,151.798,81.834,151.398,82.716z M151.425,83.157c-0.134,0.057-0.267,0.181-0.32,0.339
			c-0.093,0.249-0.12,0.509-0.12,0.724c0,1.493,0.827,2.228,1.814,2.228c0.813,0,1.347-0.6,1.347-1.605
			c0-1.289-0.813-1.922-1.773-1.922C152.052,82.919,151.678,83.01,151.425,83.157z"/>
		<path fill="#FFFFFF" d="M161.519,84.05v0.113c-0.014,0.125-0.134,0.509-0.2,0.532c-0.12,0.045-2.32,0.09-2.601,0.079l-0.014-0.102
			c0.014-0.147,0.107-0.565,0.174-0.565C159.505,84.106,161.132,84.062,161.519,84.05z"/>
		<path fill="#FFFFFF" d="M169.532,81.427c0,0.747-0.627,1.199-1.174,1.515c-0.014,0.011-0.014,0.045,0,0.057
			c0.894,0.237,1.881,0.735,1.881,1.787c0,0.825-0.561,1.504-1.32,1.922c-0.627,0.339-1.28,0.521-2.041,0.521
			c-0.507,0-0.894-0.068-1.16-0.181c-0.187-0.09-0.28-0.169-0.413-0.396c-0.107-0.215-0.214-0.577-0.24-0.837
			c0.014-0.057,0.28-0.158,0.32-0.147c0.227,0.418,0.479,0.69,0.813,0.871c0.319,0.169,0.706,0.237,1.227,0.237
			c0.8,0,1.653-0.441,1.653-1.47c0.014-0.95-0.8-1.662-2.054-1.662c-0.106,0-0.279,0-0.479,0.034
			c-0.04-0.045,0.133-0.407,0.187-0.429c1.267-0.227,1.747-0.758,1.747-1.402c0-0.667-0.493-1.21-1.347-1.21
			c-0.587,0-1.081,0.238-1.561,0.645c-0.054,0.012-0.2-0.226-0.2-0.283c0.453-0.463,1.32-1.119,2.308-1.119
			C168.771,79.878,169.519,80.579,169.532,81.427z"/>
		<path fill="#FFFFFF" d="M175.879,80.455c0.427,0.407,0.946,1.244,0.946,2.725c0,1.492-0.439,2.521-1.227,3.143
			c-0.587,0.475-1.267,0.565-1.613,0.565c-0.641,0-1.147-0.169-1.521-0.441c-0.641-0.475-1.134-1.47-1.134-2.974
			c0-1.131,0.267-2.126,1-2.838c0.547-0.52,1.268-0.757,1.974-0.757C175.146,79.878,175.679,80.262,175.879,80.455z M173.158,80.647
			c-0.4,0.418-0.653,1.368-0.653,2.386c0,2.25,0.627,3.392,1.733,3.392c0.307,0,0.573-0.102,0.733-0.26
			c0.4-0.407,0.667-1.221,0.667-2.668c0-2.103-0.641-3.188-1.653-3.188C173.585,80.308,173.331,80.466,173.158,80.647z"/>
		<path fill="#FFFFFF" d="M185.759,80.126c-0.413,1.232-3.254,6.106-3.601,6.931c-0.014,0.034-0.066,0.045-0.08,0.045
			c-0.12-0.011-0.427-0.125-0.493-0.192c-0.027-0.022-0.014-0.125,0-0.147c0.706-1.3,2.894-4.862,3.227-5.778
			c0-0.022-0.013-0.056-0.04-0.056c-0.546-0.012-2.641-0.023-3.28,0.022c-0.387,0.022-0.521,0.113-0.947,0.859
			c-0.053,0.034-0.347-0.045-0.373-0.102c0.187-0.498,0.4-1.221,0.507-1.786c0.2,0.056,0.64,0.09,1.054,0.09h2.573
			c0.467,0,1.081,0,1.4-0.022C185.732,80.002,185.772,80.093,185.759,80.126z"/>
		<path fill="#FFFFFF" d="M186.971,87.058c2.134-0.836,3.081-1.967,3.614-3.2c0.014-0.022-0.026-0.057-0.053-0.034
			c-0.587,0.316-1.4,0.565-1.921,0.565c-1.066,0-2.054-0.859-2.054-2.069c0-0.78,0.44-1.538,1.24-2.001
			c0.467-0.26,1.054-0.43,1.641-0.43c1.627,0,2.561,1.221,2.561,2.68c0,2.273-2.134,4.059-4.854,4.794
			C187.078,87.352,186.958,87.114,186.971,87.058z M187.638,81.856c0,1.289,0.88,1.854,1.841,1.854c0.399,0,0.76-0.102,1.014-0.237
			c0.106-0.057,0.213-0.181,0.239-0.26c0.067-0.271,0.08-0.475,0.08-0.667c0-1.255-0.706-2.239-1.747-2.239
			C188.211,80.308,187.638,80.941,187.638,81.856z"/>
		<path fill="#FFFFFF" d="M200.452,81.518c0,0.531-0.32,0.938-1.4,1.56c-0.014,0.011-0.014,0.045,0,0.057
			c1.2,0.645,1.681,1.074,1.681,1.854c0,1.006-1.214,1.888-2.614,1.888c-1.813,0-2.468-0.961-2.468-1.685
			c0-0.509,0.214-0.871,1.654-1.729c0.04-0.023,0.04-0.057,0.014-0.068c-1.027-0.588-1.334-1.12-1.334-1.708
			c0-0.531,0.307-1.018,0.773-1.334c0.427-0.283,0.987-0.475,1.627-0.475C199.559,79.878,200.452,80.568,200.452,81.518z
			 M199.679,85.452c0-0.757-0.521-1.153-1.907-1.82c-0.014-0.011-0.094-0.011-0.12,0c-0.707,0.509-1,0.882-1,1.413
			c0,0.747,0.68,1.447,1.747,1.447C199.078,86.492,199.679,86.142,199.679,85.452z M196.944,81.303c0,0.712,0.547,1.074,1.641,1.605
			c0.04,0.022,0.093,0.022,0.12,0c0.667-0.475,0.826-0.905,0.826-1.3c0-0.803-0.586-1.346-1.413-1.346
			C197.397,80.262,196.944,80.669,196.944,81.303z"/>
		<path fill="#FFFFFF" d="M202.197,87.058c2.134-0.836,3.081-1.967,3.614-3.2c0.014-0.022-0.026-0.057-0.053-0.034
			c-0.587,0.316-1.4,0.565-1.921,0.565c-1.066,0-2.054-0.859-2.054-2.069c0-0.78,0.44-1.538,1.24-2.001
			c0.467-0.26,1.054-0.43,1.641-0.43c1.627,0,2.561,1.221,2.561,2.68c0,2.273-2.134,4.059-4.854,4.794
			C202.305,87.352,202.185,87.114,202.197,87.058z M202.864,81.856c0,1.289,0.88,1.854,1.841,1.854c0.399,0,0.76-0.102,1.014-0.237
			c0.106-0.057,0.213-0.181,0.239-0.26c0.067-0.271,0.08-0.475,0.08-0.667c0-1.255-0.706-2.239-1.747-2.239
			C203.438,80.308,202.864,80.941,202.864,81.856z"/>
		<path fill="#FFFFFF" d="M214.998,84.808c-0.026,0-0.053,0.034-0.066,0.068l0.026,2.171c-0.359,0.011-0.894,0.057-1.146,0.113
			c0.014-0.747,0.026-1.538,0.026-2.295c0-0.034-0.026-0.057-0.053-0.057h-3.374c-0.014-0.045,0.013-0.316,0.04-0.362
			c0.854-1.051,3.427-3.958,3.813-4.455c0.08-0.023,0.587-0.091,0.653-0.08v4.161c0,0.022,0.027,0.068,0.067,0.068
			c0.693,0,1.146-0.011,1.533-0.022c-0.08,0.215-0.173,0.531-0.173,0.701C215.905,84.819,215.452,84.808,214.998,84.808z
			 M212.558,84.163h1.228c0.026,0,0.053-0.034,0.053-0.068l0.054-2.985c0-0.022-0.04-0.022-0.054-0.011
			c-0.347,0.396-2.214,2.646-2.44,2.985c-0.014,0.022,0,0.057,0.014,0.057C211.678,84.152,212.078,84.163,212.558,84.163z"/>
		<path fill="#FFFFFF" d="M217.237,81.551c-0.066,0.011-0.28-0.181-0.267-0.226c0.373-0.588,1.307-1.447,2.507-1.447
			s2.121,0.803,2.121,2.001c0,0.803-0.561,1.605-1.48,2.465c-0.693,0.689-1.094,1.018-1.587,1.47c-0.027,0.034,0,0.09,0.04,0.09
			c0.479,0.057,1.907,0.068,2.667,0.057c0.254,0,0.533-0.125,1.014-1.006c0.08-0.022,0.307,0.057,0.347,0.125
			c-0.094,0.351-0.48,1.345-0.707,1.628c-0.04,0.045-0.187,0.079-0.64,0.079c-0.894,0.012-2.4-0.034-3.521-0.034
			c-0.227,0-0.506,0.011-0.666,0.022c-0.04-0.034-0.054-0.192-0.054-0.249c0.867-0.667,1.387-1.074,2.294-2.058
			c0.72-0.792,1.134-1.594,1.134-2.318c0-0.735-0.427-1.447-1.507-1.447C218.317,80.703,217.771,80.997,217.237,81.551z"/>
	</g>
</g>
</svg>
