<?xml version="1.0" encoding="utf-8"?>
<!-- Generator: Adobe Illustrator 14.0.0, SVG Export Plug-In . SVG Version: 6.00 Build 43363)  -->
<!DOCTYPE svg PUBLIC "-//W3C//DTD SVG 1.1//EN" "http://www.w3.org/Graphics/SVG/1.1/DTD/svg11.dtd">
<svg version="1.1"
	 id="svg2" xmlns:sodipodi="http://sodipodi.sourceforge.net/DTD/sodipodi-0.dtd" xmlns:inkscape="http://www.inkscape.org/namespaces/inkscape" xmlns:svg="http://www.w3.org/2000/svg" sodipodi:docname="Logo_Dehoutenhollander-03.eps"
	 xmlns="http://www.w3.org/2000/svg" xmlns:xlink="http://www.w3.org/1999/xlink" x="0px" y="0px" width="757.307px"
	 height="1060.658px" viewBox="106.126 176.5 757.307 1060.658" enable-background="new 106.126 176.5 757.307 1060.658"
	 xml:space="preserve">
<sodipodi:namedview  id="namedview4" pagecolor="#ffffff" borderopacity="0.25" bordercolor="#000000" inkscape:pagecheckerboard="0" inkscape:deskcolor="#d1d1d1" inkscape:pageopacity="0.0" inkscape:showpageshadow="2">
	</sodipodi:namedview>
<g id="g8" transform="matrix(1.3333333,0,0,-1.3333333,0,1440)" inkscape:label="ink_ext_XXXXXX" inkscape:groupmode="layer">
	<g id="g10" transform="scale(0.1)">
		<path id="path12" fill="#8F531A" d="M946.192,3067.323l-5.852-363.867l2.908-110.457c51.05-3.97,94.68-13.564,128.196-5.896
			c80.903,18.53,108.604,47.219,165.278,109.321c31.978,35.039,68.005,75.249,63.091,137.007
			c-5.61,70.291-19.146,83.518-28.711,107.432c-12.063,30.161-27.554,61.436-49.365,77.578
			c-34.805,25.774-39.697,24.478-65.493,33.882l-35.332,9.148l-43.169,7.603c0,0-15.125,3.699-38.042,3.948
			C1039.7,3073.021,962.825,3071.878,946.192,3067.323z M1319.647,3106.405c55.466-57.466,83.254-144.39,83.254-260.742
			c0-116.389-30.959-207.979-92.834-274.761c-61.868-66.79-150.249-100.188-265.137-100.188c-81.541,0-164.539,2.476-248.987,7.397
			l8.855,212.08l-8.855,497.974l287.249,4.395C1185.343,3192.559,1264.151,3163.834,1319.647,3106.405"/>
		<path id="path14" fill="#8F531A" d="M2008.768,2590.802l-10.305-111.936H1552.11l8.848,212.08l-8.848,497.959h450.798
			l8.811-11.799l-10.313-111.943l-170.859,5.903h-128.188l-2.952-170.903l123.743-2.952l114.939,2.952l8.804-10.313l-10.305-111.936
			l-125.2,2.908l-113.438-1.458l-1.45-75.161l2.908-107.498l125.244-1.501l175.305,7.397L2008.768,2590.802"/>
		<path id="path16" fill="#8F531A" d="M2930.47,2478.865h-150.3l8.855,212.08l-1.45,82.515l-160.605,2.952l-144.36-2.952
			l-1.443-69.258l5.859-225.337h-150.256l8.855,212.08l-8.855,497.959h153.201l-5.896-291.694l151.75-4.446l150.249,4.446
			l-5.903,291.694h153.215l-8.811-484.702L2930.47,2478.865"/>
		<path id="path18" fill="#8F531A" d="M3403.08,3078.419c-59.436,0-95.896-11.755-129.609-42.114
			c-13.557-12.209-34.775-35.354-50.068-56.404c-25.876-35.618-41.433-90.461-41.433-146.016c0-88.381,33.032-135.454,59.033-175.21
			c26.038-39.814,101.448-75.22,161.353-75.22c59.897,0,138.728,32.227,164.766,69.089c25.994,36.804,96.57,82.478,96.57,171.409
			c0,88.857-42.048,162.708-72.737,198.501C3555.709,3063.551,3462.516,3078.419,3403.08,3078.419z M3408.983,3199.173
			c103.601,0,182.402-30.454,236.448-91.333c54.001-60.886,81.028-149.736,81.028-266.602c0-116.909-29.246-208.447-87.656-274.724
			c-58.447-66.321-139.468-99.456-243.083-99.456c-103.638,0-182.446,31.172-236.448,93.552
			c-54.009,62.344-81.028,151.97-81.028,268.821c0,116.858,29.246,207.729,87.649,272.549
			C3224.354,3166.763,3305.375,3199.173,3408.983,3199.173"/>
		<path id="path20" fill="#8F531A" d="M4417.784,2735.155c0.974-84.492-23.562-149.993-73.682-196.641
			c-50.068-46.655-121.04-70.005-212.849-70.005c-91.838,0-161.074,22.581-207.722,67.771
			c-46.648,45.205-69.009,109.512-67.002,192.971l1.45,101.682l-4.395,357.971h150.249l-7.354-440.493
			c-0.989-105.103,46.128-157.61,141.401-157.61c95.266,0,142.39,50.112,141.453,150.249l-7.405,447.854h153.201L4417.784,2735.155"
			/>
		<path id="path22" fill="#8F531A" d="M5048.722,3065.162l-132.59,7.361h-45.667l-4.402-368.32l5.896-225.337H4723.16l7.354,212.08
			l-5.903,381.577h-44.165l-135.542-7.361l-10.313,13.257l10.313,110.486h503.819l8.848-11.807L5048.722,3065.162"/>
		<path id="path24" fill="#8F531A" d="M5644.35,2590.802l-10.305-111.936h-446.353l8.848,212.08l-8.848,497.959h450.798
			l8.811-11.799l-10.313-111.943l-170.859,5.903h-128.188l-2.952-170.903l123.743-2.952l114.939,2.952l8.811-10.313l-10.313-111.936
			l-125.2,2.908l-113.43-1.458l-1.458-75.161l2.908-107.498l125.244-1.501l175.305,7.397L5644.35,2590.802"/>
		<path id="path26" fill="#8F531A" d="M6371.11,2478.865h-162.048l-288.75,481.707h-10.298v-235.723l4.402-245.984h-137.007
			l8.855,209.165l-5.903,500.874h160.562l288.75-480.264h10.298l-5.896,474.368l139.951,8.804l-8.811-493.469L6371.11,2478.865"/>
		<path id="path28" fill="#8F531A" d="M1370.272,1521.312h-144.031l8.481,203.24l-1.392,79.08l-153.904,2.827l-138.333-2.827
			l-1.399-66.379l5.618-215.94H801.326l8.481,203.24l-8.481,477.188H948.14l-5.654-279.529l145.422-4.255l143.979,4.255
			l-5.647,279.529h146.807l-8.438-464.487L1370.272,1521.312"/>
		<path id="path30" fill="#8F531A" d="M2636.029,1521.312h-368.445l8.489,203.24l-8.489,477.188h146.821l-8.481-464.487l2.82-97.361
			h228.691l8.474-11.309L2636.029,1521.312"/>
		<path id="path32" fill="#8F531A" d="M3122.079,1521.312h-368.445l8.481,203.24l-8.481,477.188h146.821l-8.481-464.487l2.82-97.361
			h228.691l8.474-11.309l-9.873-107.271"/>
		<path id="path34" fill="#8F531A" d="M3488.15,2067.589h-9.866l-93.186-283.704l91.794-1.443l91.736,1.443L3488.15,2067.589z
			 M3633.58,1521.312l-16.926,88.923l-18.354,63.508l-132.715,2.856l-117.151-2.856l-18.362-56.47l-18.347-95.962h-141.16
			l230.068,680.427h170.83l208.931-680.427H3633.58"/>
		<path id="path36" fill="#8F531A" d="M4475.411,1521.312h-155.288l-276.709,461.631h-9.873v-225.901l4.219-235.73h-131.287
			l8.481,200.449l-5.654,479.978h153.86l276.709-460.225h9.873l-5.647,454.578l134.106,8.438l-8.438-472.896L4475.411,1521.312"/>
		<path id="path38" fill="#8F531A" d="M5825.873,1628.582L5816,1521.312h-427.742l8.481,203.24l-8.481,477.188h432.004l8.438-11.309
			l-9.866-107.271l-163.74,5.662h-122.842l-2.827-163.777l118.579-2.834l110.134,2.834l8.445-9.88l-9.873-107.271l-119.978,2.791
			l-108.699-1.399l-1.399-72.034l2.791-103.008l120.015-1.443l167.988,7.09L5825.873,1628.582"/>
		<path id="path40" fill="#8F531A" d="M6287.951,1987.161c0,71.499-39.5,108.208-118.579,110.098l-71.99-4.255l-2.827-230.083
			l104.487-5.647C6259.269,1877.964,6288.903,1921.273,6287.951,1987.161z M6475.744,1555.15l-2.834-15.476
			c-46.128-16.97-92.717-26.843-139.753-29.67l-15.535,12.7c-50.808,87.532-92.241,163.25-124.241,227.285h-101.616v-12.737
			l5.618-215.94h-143.987l8.474,203.24l-8.474,477.188l262.566,1.399c71.543,0,126.57-17.454,165.168-52.244
			c38.606-34.834,57.905-84.69,57.905-149.605c0-43.345-11.316-83.335-33.896-120.007c-22.566-36.724-53.628-66.343-93.179-88.96
			C6368.429,1704.798,6423.009,1625.762,6475.744,1555.15"/>
		<path id="path42" fill="#8F531A" d="M1819.041,2097.991c-56.96,0-91.904-11.257-124.204-40.349
			c-12.986-11.712-33.325-33.889-47.974-54.053c-24.8-34.131-39.712-86.689-39.712-139.929c0-84.697,31.655-129.8,56.565-167.908
			c24.961-38.152,97.222-72.078,154.622-72.078c57.415,0,132.942,30.879,157.903,66.204c24.91,35.273,92.542,79.043,92.542,164.26
			c0,85.151-40.291,155.925-69.705,190.225C1965.313,2083.753,1875.987,2097.991,1819.041,2097.991L1819.041,2097.991z
			 M1824.688,2213.714c99.294,0,174.8-29.18,226.604-87.532c51.746-58.337,77.651-143.489,77.651-255.469
			c0-112.031-28.037-199.761-84.002-263.269c-56.023-63.552-133.66-95.31-232.954-95.31c-99.316,0-174.836,29.868-226.589,89.648
			c-51.746,59.751-77.651,145.627-77.651,257.622c0,111.98,28.03,199.05,84.001,261.167
			C1647.757,2182.652,1725.409,2213.714,1824.688,2213.714"/>
		<path id="path44" fill="#8F531A" d="M4807.792,2092.22l-5.61-348.699l2.791-105.842c48.918-3.809,90.733-13.008,122.842-5.647
			c77.542,17.761,104.077,45.242,158.386,104.758c30.652,33.582,65.186,72.114,60.461,131.294
			c-5.369,67.361-18.34,80.039-27.51,102.957c-11.558,28.894-26.396,58.872-47.3,74.341c-33.369,24.69-38.049,23.46-62.769,32.461
			l-33.853,8.767l-41.375,7.295c0,0-14.495,3.538-36.453,3.779C4897.404,2097.684,4823.729,2096.593,4807.792,2092.22
			L4807.792,2092.22z M5165.675,2129.669c53.145-55.071,79.775-138.369,79.775-249.866c0-111.533-29.656-199.299-88.96-263.298
			c-59.29-64.014-143.979-96.013-254.077-96.013c-78.143,0-157.684,2.38-238.602,7.09l8.481,203.24l-8.481,477.188l275.267,4.233
			C5036.974,2212.242,5112.494,2184.703,5165.675,2129.669"/>
		<path id="path46" fill="#8F531A" d="M5723.034,8457.56c4.358,2.681,10.078,1.611,13.169-2.468
			c241.707-320.229,368.43-716.829,485.186-1128.772c55.313-195.198,124.153-438.091,128.884-683.467
			c5.237-272.271-62.988-545.604-208.55-835.643c-112.354-223.857-266.448-450.352-484.944-712.756
			c-555.557-667.251-1077.73-1048.066-1643.299-1198.44c-172.156-45.784-349.79-68.562-529.688-68.562
			c-282.729,0-571.157,56.243-853.638,167.93c-441.453,174.529-835.364,477.393-1109.143,852.803
			c-34.534,47.336-67.471,95.874-98.804,145.503l-5.757,9.36l169.578,69.822c4.373,1.802,9.404,0.249,12.004-3.691l9.917-14.985
			l67.917-93.04c252.693-346.479,616.626-626.155,1024.754-787.515c423.779-167.578,860.72-199.468,1263.611-92.38
			c525.307,139.695,1016.323,500.603,1545.249,1135.854c307.844,369.741,659.839,865.518,649.131,1422.049
			c-3.933,204.36-55.129,400.173-121.663,634.878c-113.005,398.76-234.968,781.458-463.857,1078.652
			c-3.567,4.629-2.373,11.265,2.607,14.326L5723.034,8457.56z M5108.986,8755.15c-3.083-3.083-7.793-3.75-11.616-1.647
			c-333.384,182.644-736.436,269.729-1134.507,333.566c-145.672,23.364-314.92,48.853-480.11,55.394
			c-450.088,17.9-811.223-26.272-1219.497-300.652l-0.703-0.513l-151.428-119.67l-0.894-0.799
			c-253.089-255.301-514.109-519.529-674.041-841.362c-56.748-114.177-105.513-245.823-149.07-402.444
			c-196.472-706.355-146.462-1443.838,122.498-2053.44c2.644-5.969-1.128-12.759-7.595-13.66l-184.102-25.752
			C943.87,6027.354,897.589,6791.908,1102.44,7528.38c46.868,168.457,99.88,311.206,162.078,436.392
			c174.653,351.445,448.894,628.044,714.082,895.547l8.643,7.734l165.147,130.166l0.674,0.483
			c451.362,304.445,860.977,354.199,1337.3,335.31c175.737-6.979,351.716-33.42,502.859-57.671
			c433.498-69.521,873.882-166.398,1239.961-379.175c5.632-3.267,6.606-11.037,2.021-15.637L5108.986,8755.15"/>
		<path id="path48" fill="#8F531A" d="M5491.339,8315.191c4.38,2.681,10.129,1.597,13.206-2.52
			c160.356-214.658,267.957-468.903,352.126-746.696c88.242-314.78,190.803-625.935,201.028-956.873
			c2.9-166.421-27.729-331.67-78.245-488.248c-183.875-561.277-723.589-1156.04-1167.54-1532.241
			c-489.47-419.29-1146.973-664.285-1786.633-524.795c-597.598,114.536-1141.289,482.241-1478.408,995.281
			c-3.442,5.244-1.187,12.371,4.636,14.7l37.588,15.073c4.395,1.758,9.382,0.132,11.909-3.86
			c149.707-235.664,339.141-444.39,567.07-609.199c413.914-306.812,939.617-475.898,1453.491-415.488
			c436.223,50.867,835.693,272,1166.624,557.424c412.464,361.794,923.563,946.633,1109.4,1467.715
			c59.978,167.007,94.592,345.176,90.623,522.327c-11.455,317.908-117.971,630.549-203.672,935.193
			c-88.718,287.476-192.817,528.574-343.03,729.075c-3.472,4.644-2.241,11.191,2.703,14.224L5491.339,8315.191z M5016.452,8663.488
			c-3.179-3.135-8.02-3.75-11.858-1.458c-70.122,41.8-146.265,80.464-229.205,116.133
			c-365.75,153.626-760.071,230.706-1150.078,292.171c-313.396,38.386-639.25,45.827-944.18-48.187
			c-151.648-47.3-296.506-121.018-428.613-207.619l-0.696-0.498L2100.16,8696.77c-225.813-225.682-456.716-456.307-614.539-737.872
			c-290.984-532.104-363.318-1282.324-260.889-1875.594c38.108-228.149,104.341-452.732,197.959-664.219
			c2.629-5.94-1.069-12.7-7.5-13.667l-44.502-6.665c-4.431-0.674-8.789,1.721-10.598,5.815
			c-192.744,436.26-264.5,925.195-225.161,1400.787c18.889,241.238,69.031,486.606,140.61,717.356
			c139.006,487.346,468.34,837.421,819.961,1179.507l151.282,118.462l0.718,0.52c133.938,88.631,277.354,163.147,429.558,213.978
			c306.57,99.865,634.753,103.41,952.734,73.015c475.898-62.842,963.838-137.38,1390.76-373.813
			c10.686-5.889,21.262-11.865,31.699-17.937c5.618-3.274,6.563-11.009,1.941-15.594L5016.452,8663.488"/>
		<path id="path50" fill="#8F531A" d="M4922.006,7950.329c3.237,5.31,10.583,6.394,15.198,2.219
			c274.775-248.577,395.361-603.376,511.091-1043.481c161.096-536.675-21.482-934.512-354.419-1353.685
			c-554.253-698.987-1281.724-1202.051-2190.162-829.827c-344.553,138.069-633.34,387.158-826.223,699.727l-0.93,1.458
			c-0.22,0.352,0.908,1.282,1.897,2.644c6.35,8.657,29.312,34.871,29.312,34.871l1.121-1.809
			c238.491-409.622,625.92-719.912,1145.852-819.976c498.918-96.204,946.648,84.221,1319.802,412.017
			c180.82,156.885,339.888,337.705,487.544,525.908c145.605,187.588,275.845,391.062,346.853,618.787
			c34.109,112.72,53.438,230.149,48.75,347.329c-12.026,236.265-96.006,467.315-163.55,693.003
			c-81.973,257.263-197.483,494.026-387.612,670.32c-3.42,3.179-4.167,8.291-1.729,12.275L4922.006,7950.329z M4660.421,8095.451
			c-0.652-6.943-8.049-10.95-14.26-7.771c-307.222,157.712-658.366,213.332-997.178,263.562
			c-437.131,47.651-802.397,0.022-1145.669-294.301c-409.827-406.399-579.712-653.884-655.093-1239.58
			c-52.639-420.564,12.129-846.138,184.402-1209.998c2.329-4.907,0.249-10.723-4.666-13.037l-25.437-11.99
			c-4.937-2.336-10.891-0.242-13.25,4.688c-24.712,51.621-46.934,104.59-66.519,158.73
			c-206.909,542.937-167.805,1253.218,113.591,1762.933c122.468,209.106,293.928,381.445,463.491,552.144
			c0.176,0.139,109.167,86.829,113.079,89.919l0.33,0.234c198.977,137.981,434.451,218.679,676.362,231.687
			c241.56,18.391,483.164-12.788,720.894-52.903c119.135-19.489,237.605-45.314,354.221-79.16
			c109.548-30.645,206.77-67.529,293.489-110.39c3.706-1.816,5.845-5.75,5.464-9.844L4660.421,8095.451"/>
		<path id="path52" fill="#8F531A" d="M4615.23,7896.693c-1.875-6.16-8.979-8.833-14.465-5.471
			c-221.631,135.579-495.271,204.749-757.566,264.001c-257.314,59.297-531.006,93.618-788.921,20.186
			c-101.367-29.656-202.463-80.918-287.915-137.249l-0.769-0.549l-101.25-79.57c-228.933-225.674-439.951-483.955-497.673-806.997
			c-71.052-333.655-65.618-682.186,11.228-1013.46c64.241-274.08,182.161-541.399,364.556-757.551
			c199.937-240.278,480.396-421.692,788.54-485.361c684.097-150.989,1205.42,345.168,1571.888,860.889
			c76.252,106.033,147.869,215.12,205.422,332.153c76.941,153.45,128.679,328.542,120.366,499.527
			c-6.526,146.58-55.935,303.86-99.419,449.502c-44.78,148.557-93.809,301.523-161.807,437.769
			c-48.062,105.593-110.72,193.513-184.241,267.539c-3.413,3.428-3.823,8.782-0.952,12.678l117.313,159.207
			c3.501,4.753,10.437,5.435,14.78,1.436c189.558-174.749,302.446-404.275,380.039-658.088
			c63.457-220.605,133.674-428.54,140.64-664.46c1.23-473.182-312.173-862.735-628.133-1181.807
			c-394.709-400.854-910.136-692.021-1488.611-584.304c-459.39,76.714-858.311,337.493-1101.248,717.715
			c-2.959,4.636-1.575,10.847,3.091,13.792c25.957,16.355,103.945,64.578,121.567,64.578c21.218,0-74.421,41.821-177.437,16.912
			l-3.025-0.784c-49.98,91.89-91.289,189.844-122.747,293.049c-128.372,405.168-99.954,848.299,41.69,1244.041
			c37.31,104.363,83.115,207.261,142.676,301.091c118.066,187.266,274.021,339.558,427.471,496.458l101.016,82.039l0.659,0.505
			c89.722,62.629,186.335,116.675,290.032,155.837c208.887,77.058,435.205,93.127,656.331,86.118
			c324.778-21.24,653.928-52.552,951.035-196.201c7.332-3.545,11.682-12.986,9.683-20.874l-7.551-51.475l-0.139-0.762l-7.734-33.97
			l-6.819-27.188L4615.23,7896.693"/>
		<path id="path54" fill="#8F531A" d="M4558.57,7593.419c84.924-71.689,157.258-161.895,212.19-274.46
			c58.433-114.939,98.094-237.957,131.434-361.619c32.878-126.628,67.969-245.017,70.715-382.925
			c4.182-429.265-351.614-806.082-658.88-1059.683c-178.396-140.061-388.037-251.499-614.524-277.888
			c-371.616-44.773-759.851,105.066-1018.271,381.335c-395.303,430.891-405.015,1125.682-110.383,1614.332
			c87.305,138.303,207.473,254.487,319.709,370.774c286.912,262.156,656.294,274.805,1020.696,231.416
			c200.53-19.629,393.288-70.649,553.718-172.625c5.149-3.274,6.16-10.408,2.109-14.978c-7.5-8.445-19.175-21.497-28.755-31.846
			c-6.929-7.493-3.779-19.644,5.962-22.683c22.302-6.936,61.824-13.857,111.738-0.117L4558.57,7593.419z M2902.843,7589.296
			c-111.709-114.126-223.022-236.177-292.039-379.885c-35.083-71.118-56.821-147.561-72.744-225.557
			c-38.467-193.235-42.048-391.685-15.286-586.004c36.694-264.756,130.444-526.538,300.674-732.1
			c244.087-303.04,666.101-469.827,1038.34-331.179c297.48,109.387,512.08,364.211,693.992,617.849
			c86.733,123.289,169.438,259.028,210.278,403.989c43.213,147.004,27.151,282.942-16.545,430.525
			c-45.168,153.94-88.418,307.866-154.38,439.797c-166.831,363.809-584.428,446.799-938.591,527.585
			C3376.009,7807.367,3124.649,7783.842,2902.843,7589.296"/>
		<path id="path56" fill="#8F531A" d="M3214.305,7290.863c204.829,150.469,466.846,149.751,707.146,104.927
			c334.673-56.799,547.954-236.367,583.301-584.897c46.15-357.313,19.109-500.94-222.349-776.558
			c-151.992-169.541-313.213-335.544-542.168-401.873c-298.271-83.02-629.795,54.023-816.57,293.54
			c-111.694,143.459-171.394,325.43-177.554,505.811c-5.42,233.108,78.01,461.258,223.11,640.247
			C3043.16,7158.009,3130.252,7221.752,3214.305,7290.863z M3226.141,7274.625c-81.262-67.742-162.341-142.837-213.318-233.423
			c-72.854-134.817-89.568-296.038-86.785-446.609c5.244-237.811,79.402-478.125,262.932-638.24
			c231.914-208.301,524.993-218.503,791.573-61.37c172.492,103.667,352.588,248.884,433.117,438.245
			c40.364,96.973,34.16,196.15,5.508,296.28c-52.288,190.781-106.765,385.313-272.82,496.56
			c-114.375,79.922-273.904,139.951-411.218,191.814C3557.159,7380.255,3383.729,7387.763,3226.141,7274.625"/>
		<path id="path58" fill="#8F531A" d="M3462.809,6910.465l-1.047-0.945c-35.75-36.057-72.026-72.979-94.622-118.44
			c-9.067-18.267-15.776-37.639-21.248-57.29c-33.193-119.341-17.849-254.795,55.137-354.881
			c72.993-100.078,206.814-156.958,326.521-125.12c88.374,23.489,159.265,89.15,217.771,159.419
			c48.538,58.301,93.149,127.024,91.692,202.874c-0.593,30.637-8.752,60.571-17.109,90.051
			c-17.439,61.545-37.471,125.42-82.339,171.021c-64.065,65.098-164.795,79.175-252.041,92.146l-1.011,0.11
			c-81.152,5.735-137.314,0.439-200.449-42.158L3462.809,6910.465"/>
		<path id="path60" fill="#8F531A" d="M1900.897,5524.869c3.97,2.666,5.522,7.822,3.64,12.209
			c-10.386,24.243-21.804,47.754-32.776,71.521c-179.553,389.055-242.754,826.89-202.917,1252.186
			c20.889,223.044,67.998,446.506,146.689,656.506c81.885,218.54,218.24,407.651,373.484,579.47
			c82.478,91.267,169.336,178.439,255.894,265.781c2.688,2.71,3.794,6.818,2.322,10.334c-20.852,49.9-107.19,40.591-145.012,2.432
			c-170.237-171.716-341.69-345.769-475.064-548.686c-134.297-204.353-213.757-438.083-264.06-676.15
			c-91.443-432.839-78.516-893.453,54.602-1316.39c38.818-123.362,88.184-243.655,147.744-358.608
			c1.956-3.772,6.108-5.896,10.298-5.273l53.481,7.822c1.45,0.205,2.834,0.747,4.058,1.56L1900.897,5524.869"/>
		<path id="path62" fill="#8F531A" d="M4819.649,8467.909c4.592,4.922,3.069,12.964-3.018,15.82
			c-138.157,64.9-285.007,112.244-432.473,149.261c-105.798,26.558-212.849,47.871-320.288,66.563
			c-125.779,21.877-252.21,42.517-379.27,55.356c-310.708,31.392-637.112,14.78-928.469-98.138l-0.652-0.278
			c-105.696-48.215-227.366-102.524-323.884-178.792c-38.621-30.52-77.234-61.032-115.854-91.553
			c-20.999-16.597-43.828-47.227-11.382-66.196c29.224-17.08,82.053-8.013,107.776,12.319l129.829,102.598l0.74,0.535
			c35.881,23.869,72.429,46.729,109.885,68.035c6.152,3.501,12.334,6.943,18.523,10.371c-13.411-7.42,6.753,3.589,7.72,4.102
			c24.229,12.78,48.809,24.902,73.733,36.291c22.251,10.166,44.766,19.769,67.537,28.74c10.203,4.014,20.449,7.918,30.754,11.689
			c2.834,1.04,23.687,8.152,4.937,1.816c8.232,2.783,16.45,5.574,24.712,8.24c47.241,15.234,95.317,27.81,143.928,37.822
			c4.226,0.871,8.481,1.691,12.708,2.563c21.409,4.409-16.597-2.732,4.995,0.938c12.854,2.189,25.708,4.416,38.621,6.387
			c26.089,3.97,52.273,7.295,78.538,10.005c24.536,2.541,49.138,4.57,73.762,6.138c11.375,0.732,22.764,1.362,34.153,1.896
			c6.907,0.337,13.806,0.623,20.713,0.887c2.563,0.095,30.183,0.879,15.608,0.549c237.81,5.369,470.925-26.162,703.682-67.954
			c205.158-36.848,418.403-85.547,607.221-162.715c37.742-15.425,86.631-32.065,124.438-50.024
			c3.882-1.846,8.372-0.967,11.301,2.183L4819.649,8467.909"/>
		<path id="path64" fill="#8F531A" d="M5254.606,8169.689c71.118-76.67,133.293-161.777,186.05-254.128
			c112.024-196.113,185.405-410.339,248.936-626.206c70.957-241.113,146.418-488.291,130.671-742.53
			c-14.282-230.544-99.448-451.78-212.688-651.094c-115.005-202.427-260.295-386.807-412.573-562.28
			c-149.788-172.595-311.353-334.658-490.188-477.239c-174.258-138.918-366.914-257.959-575.303-338.357
			c-206.22-79.563-422.871-120.652-643.975-119.736c-411.372,1.721-820.32,150.996-1147.5,397.866
			c-153.494,115.818-290.545,251.755-404.165,406.736c-3.809,5.2-1.692,12.664,4.27,15.11l54.17,22.273
			c3.362,1.377,5.684,4.387,6.057,7.998c1.465,14.202,6.943,52.632,25.613,89.15l10.247-15.161
			c166.297-243.267,386.016-447.063,644.883-592.881c172.961-97.419,348.64-164.326,544.16-203.958
			c25.071-5.083,50.251-9.602,75.513-13.63c-11.521,1.838,2.161-0.308,4.98-0.718c5.266-0.776,10.54-1.523,15.806-2.234
			c12.656-1.729,25.32-3.311,38.013-4.746c48.574-5.53,97.383-9.016,146.257-10.342c25.496-0.703,50.962-0.652,76.465-0.322
			c21.226,0.271-14.993-0.718,6.218,0.183c4.248,0.176,8.503,0.308,12.737,0.491c12.744,0.535,25.474,1.23,38.203,2.08
			c48.853,3.237,97.559,8.716,145.898,16.487c8.43,1.362,16.831,2.864,25.254,4.27c3.567,0.601,15.19,2.871-1.641-0.366
			c12.598,2.424,25.181,4.958,37.727,7.676c23.064,5.002,46.011,10.532,68.819,16.589c27.166,7.222,54.141,15.154,80.903,23.752
			c11.111,3.567,22.17,7.31,33.223,11.06c22.024,7.478-15.132-5.757,6.636,2.388c6.541,2.446,13.118,4.805,19.658,7.266
			c50.01,18.838,99.155,39.99,147.304,63.186c25.107,12.1,49.915,24.792,74.517,37.917c-13.696-7.31,6.548,3.604,7.551,4.16
			c5.09,2.82,10.159,5.662,15.22,8.525c11.14,6.299,22.222,12.7,33.252,19.197c92.71,54.705,181.157,116.462,265.591,183.179
			c3.684,2.922,7.368,5.852,11.045,8.796c-4.351-3.472-3.347-2.666,2.996,2.446c4.556,3.728,9.126,7.441,13.674,11.184
			c10.034,8.225,19.995,16.538,29.912,24.91c19.849,16.765,39.492,33.794,58.909,51.079
			c40.723,36.218,80.493,73.499,119.421,111.636c155.311,152.205,300.374,317.82,430.569,490.334
			c134.114,177.678,256.714,370.334,331.121,581.301c37.112,105.176,62.468,214.68,71.484,325.957
			c9.91,122.352-3.494,243.882-28.484,363.729c-25.02,119.963-59.612,237.92-93.889,355.503
			c-30.769,105.505-63.442,210.542-101.689,313.608c-73.323,197.585-176.433,395.786-317.087,554.385L5254.606,8169.689"/>
		<path id="path66" fill="#8F531A" d="M3349.759,7031.322c89.026,81.108,212.483,107.161,330.242,100.708
			c106.055-7.588,209.978-17.175,307.852-68.254c135.857-66.006,182.182-224.304,209.883-359.231
			c7.588-33.831,13.293-68.965,13.594-104.67c0.234-106.861-56.66-203.46-118.506-285.704
			c-41.689-54.888-85.789-108.391-137.52-155.815c-166.289-163.843-403.22-182.791-596.69-52.046
			c-248.284,163.564-291.35,526.29-144.719,769.6C3251.476,6934.679,3300.584,6982.682,3349.759,7031.322L3349.759,7031.322z
			 M3354.022,7026.554c-71.843-71.353-139.167-151.721-157.61-253.535c-46.882-218.724,9.258-478.646,200.273-611.529
			c167.373-121.648,376.707-106.355,534.815,24.829c145.869,120.623,315.483,306.855,234.28,509.693
			c-70.305,234.822-145.041,328.572-390.125,382.793C3631.771,7116.254,3472.601,7134.286,3354.022,7026.554"/>
		<path id="path68" fill="#8F531A" d="M913.636,6829.899c1.758,7.427,1.707,12.18,0.652,15.125l100.313-103.55
			c-6.211-5.112-1.003-12.29-3.362-14.612c2.08,0.593,4.014,1.128,5.669,1.604l-115.547,119.275
			c-2.512-36.497,16.011-17.439,12.275-17.834"/>
		<path id="path70" fill="#8F531A" d="M909.864,6394.43l-6.189,7.493c5.596-21.108,10.781-42.092,16.736-62.856
			C916.514,6357.413,913.402,6375.892,909.864,6394.43"/>
		<path id="path72" fill="#8F531A" d="M958.123,5995.67c7.449,21.064,0.359,56.404-10.195,95.654
			c-5.083,19.651-9.763,40.488-14.019,60.82c-4.387,20.317-6.951,40.327-6.526,58.374l4.38,12.341l-23.467,30.11
			C918.763,6165.643,951.707,6056.725,958.123,5995.67"/>
		<path id="path74" fill="#8F531A" d="M961.983,5772.552c5.281,15.85,21.672-42.773-11.96,49.717c0.41-5.024,0.242-6.57,0.322-9.543
			C953.062,5804.295,956.571,5792.613,961.983,5772.552"/>
		<path id="path76" fill="#8F531A" d="M950.345,5812.726C937.103,5853.954,950.799,5783.304,950.345,5812.726"/>
		<path id="path78" fill="#8F531A" d="M1020.43,5626.024L992.02,5676.1c-1.128-13.044,15.85-61.077,5.2-44.919
			C1022.738,5578.072,1023.609,5591.703,1020.43,5626.024"/>
		<path id="path80" fill="#8F531A" d="M1057.366,5583.104l-14.744,25.54C1042.388,5603.033,1044.63,5595.533,1057.366,5583.104"/>
		<path id="path82" fill="#8F531A" d="M1013.209,5663.875l29.414-55.232c0.754,9.148,7.998,12.847-12.795,25.576
			C1038.499,5632.169,1027.528,5640.995,1013.209,5663.875"/>
		<path id="path84" fill="#8F531A" d="M1004.603,5698.219c-5.237,31.875-15.154,71.396,11.279,20.823
			c-19.395,50.098-30.813,70.613-33.743,65.53C978.814,5779.378,985.208,5748.785,1004.603,5698.219"/>
		<path id="path86" fill="#8F531A" d="M987.742,5981.351l-1.963,41.792l-14.81,33.45
			C977.642,6039.762,980.521,5977.14,987.742,5981.351"/>
		<path id="path88" fill="#8F531A" d="M1086.729,5584.591c-19.417,28.389-37.207,57.751-55.276,87.29l30.703-53.181l32.417-51.965
			L1086.729,5584.591"/>
		<path id="path90" fill="#8F531A" d="M1379.559,4969.825c-17.908,11.169-4.49-16.45-5.786-23.196
			c-0.549-2.9-0.791-5.991,1.179-8.196c24.91-27.913,51.519-48.23,75.205-66.833
			C1425.028,4896.363,1401.759,4925.909,1379.559,4969.825"/>
		<path id="path92" fill="#8F531A" d="M1494.432,4836.451c-13.052,11.821-28.015,22.917-44.275,35.149
			C1463.912,4858.783,1478.282,4846.903,1494.432,4836.451"/>
		<path id="path94" fill="#8F531A" d="M1142.152,5432.152c23.328-29.128,66.892-90.681,44.019-20.801
			C1165.479,5429.771,1177.857,5389.122,1142.152,5432.152"/>
		<path id="path96" fill="#8F531A" d="M1433.817,4932.743c22.69-18.303,42.334-42.268,65.852-68.247
			c-22.149,30.388-44.751,61.934-67.691,90.74C1425.079,4956.422,1408.328,4964.024,1433.817,4932.743"/>
		<path id="path98" fill="#8F531A" d="M1733.509,4612.206c-0.696,1.985-1.318,3.757-2.036,5.786c-0.916-0.3-1.714-0.703-2.725-0.938
			L1733.509,4612.206"/>
		<path id="path100" fill="#8F531A" d="M1430.272,4961.864c-14.883,24.089-27.693,35.457-41.074,45.557
			c13.96-15.916,27.795-33.479,42.781-52.185C1435.113,4954.715,1436.483,4955.221,1430.272,4961.864"/>
		<path id="path102" fill="#8F531A" d="M1563.097,4768.131c-7.419,13.154-16.465,27.429-26.228,42.173
			C1542.801,4796.432,1556.761,4769.471,1563.097,4768.131"/>
		<path id="path104" fill="#8F531A" d="M1359.549,5032.14c-0.996,1.033-1.897,1.963-2.988,3.069
			C1359.373,5025.782,1359.952,5027.635,1359.549,5032.14"/>
		<path id="path106" fill="#8F531A" d="M1873.753,4610.646c-12.715-6.921-74.854,33.186-108.545,87.949
			c-46.765,33.787-54.419-15.93-37.969-68.445c1.633-5.208,5.698-9.741,11.104-10.518l0.3-0.037
			c12.62-2.117,21.943,11.074,14.575,21.533c-17.139,24.324-27.832,43.572-2.52,27.883c54.587-45.498,50.083-50.962,61.963-71.499
			c1.838-3.193,6.555-6.299,10.085-5.273c5.962,1.75,23.401-8.298,42.07-18.354c26.36-13.916,54.712-28.25,56.331-12.7
			c-14.209,10.063-28.638,19.915-42.891,30.029c-3.918,2.776-3.01,7.515-1.055,11.917c0.498,1.113-0.352,3.369-3.45,7.507"/>
		<path id="path108" fill="#8F531A" d="M1645.948,4706.534c-6.658,5.896-12.957,12.158-19.438,18.23
			c18.391-23.621,29.861-42.261,49.329-77.512c0.688-1.26,1.765-2.483,2.915-3.333c34.68-25.51,44.766-27.898,49.995-26.865
			c-30.981,30.769-60.667,62.827-90.601,94.614L1645.948,4706.534"/>
		<path id="path110" fill="#8F531A" d="M1582.909,4773.932c-7.156,7.69,1.143,20.164,10.774,15.981
			c10.84-4.702,16.926-3.552,10.767,14.421c-51.716,57.429-45.608,32.036-80.347,63.45c63.501-69.565,14.641-22.683,8.708-26.125
			c-4.182-2.424-8.738-4.014-12.041-0.498c-7.427,7.939-14.363,15.754-21.101,23.335c13.198-18.611,25.459-37.002,37.2-54.192
			c-0.491,1.099-0.828,1.868-1.23,2.769l-0.388,0.447l0.22,0.037c-2.168,5.325-2.49,7.427,0.762,2.109l1.97-1.772
			c2.117,0.71,5.046,0.161,8.027-0.571c21.819-29.473,0.894-6.877-8.027,0.571l-2.732-0.337l0.168-0.483l44.941-44.744l45.93-43.564
			C1615.758,4738.453,1602.142,4753.285,1582.909,4773.932"/>
		<path id="path112" fill="#8F531A" d="M1739.793,4596.224c-1.882,1.406-4.204,2.087-6.541,1.919l-17.432-1.289
			c19.68-9.001,39.412-17.769,59.399-26.074C1763.341,4579.144,1751.439,4587.53,1739.793,4596.224"/>
		<path id="path114" fill="#8F531A" d="M1838.011,4506.444l-12.993-6.841l32.439-17.974L1838.011,4506.444z"/>
		<path id="path116" fill="#8F531A" d="M5979.44,8032.184l-14.722,25.173C5971.076,8045.221,5975.683,8037.604,5979.44,8032.184"/>
		<path id="path118" fill="#8F531A" d="M6049.445,7831.793l8.086-2.944C6050.924,7837.184,6047.05,7840.202,6049.445,7831.793"/>
		<path id="path120" fill="#8F531A" d="M4880.47,4425.152c10.371,3.662,21.182,7.141,31.37,10.378
			c10.276,2.922,19.885,5.662,27.773,8.291c15.762,5.251,24.697,10.107,18.376,15.168l-18.86,5.303
			c-11.14-9.39-21.497-16.875-31.267-23.035C4898.195,4434.74,4889.12,4429.532,4880.47,4425.152"/>
		<path id="path122" fill="#8F531A" d="M6295.722,6107.123c-2.791-3.457-5.691-7.068-8.569-10.649
			c1.399-11.77,2.71-22.83,3.882-32.732C6292.44,6076.793,6294.044,6091.595,6295.722,6107.123"/>
		<path id="path124" fill="#8F531A" d="M6245.06,6155.052l25.173,50.801C6263.385,6194.684,6255.146,6178.351,6245.06,6155.052"/>
		<path id="path126" fill="#8F531A" d="M3070.846,3855.775c39.529-9.741,71.104-13.835,98.679-15.74
			C3122.13,3850.729,3084.784,3866.871,3070.846,3855.775"/>
		<path id="path128" fill="#8F531A" d="M6159.784,8009.149c-8.972,16.934-14.619,23.452-17.644,21.753
			C6151.259,8013.493,6157.631,8004.074,6159.784,8009.149"/>
		<path id="path130" fill="#8F531A" d="M3282.003,3837.669c-6.379,1.501-12.649,2.314-19.109,3.53l-2.439,0.139
			c-27.803-2.175-56.294-3.56-90.93-1.304C3204.359,3832.198,3244.269,3827.474,3282.003,3837.669"/>
		<path id="path132" fill="#8F531A" d="M1577.43,8265.182c-2.659-2.021-5.537-4.731-8.123-6.423
			C1570.194,8256.649,1573.27,8259.967,1577.43,8265.182"/>
		<path id="path134" fill="#8F531A" d="M955.281,7201.83c1.099,12.729,4.841,33.12,8.042,52.419
			C960.665,7245.05,957.823,7229.311,955.281,7201.83"/>
		<path id="path136" fill="#8F531A" d="M2298.412,4179.879C2269.679,4191.634,2293.255,4180.362,2298.412,4179.879"/>
		<path id="path138" fill="#8F531A" d="M2195.799,4299.535c6.218-1.663,11.375-2.124,13.748,0.527
			C2205.672,4298.121,2201,4298.15,2195.799,4299.535"/>
		<path id="path140" fill="#8F531A" d="M3564.52,3933.675c0.835,0.007,1.494,0.007,2.454,0.015
			C3558.47,3936.371,3559.935,3935.851,3564.52,3933.675"/>
		<path id="path142" fill="#8F531A" d="M2259.059,4205.514c9.412-6.921,21.064-13.63,33.926-20.581
			C2287.726,4188.763,2276.996,4194.483,2259.059,4205.514"/>
		<path id="path144" fill="#8F531A" d="M2261.563,4196.322c-9.294,5.208-16.582,9.309-23.54,13.213
			C2233.387,4209.029,2235.79,4206.041,2261.563,4196.322"/>
		<path id="path146" fill="#8F531A" d="M2338.871,4164.249c-16.582,6.482-31.97,12.957-45.886,20.684
			c5.127-3.428,7.141-5.244,5.427-5.054C2306.703,4176.224,2318.985,4172.013,2338.871,4164.249"/>
		<path id="path148" fill="#8F531A" d="M3438.785,9306.269c-1.714,0.711-3.677,1.531-5.552,2.322
			C3405.145,9306.188,3417.179,9305.624,3438.785,9306.269"/>
		<path id="path150" fill="#8F531A" d="M5414.625,4919.42c-0.842-0.916-1.062-1.641-1.824-2.498c1.062,0.681,2.38,1.538,3.333,2.146
			L5414.625,4919.42"/>
		<path id="path152" fill="#8F531A" d="M5444.56,4941.539l-2.329-2.249c-9.47-8.899-5.449-24.58,7.31-27.012
			c1.003-0.183,1.992-0.374,2.996-0.564c9.016-1.699,17.666,4.834,18.545,13.975c0.11,1.187,0.22,2.366,0.33,3.552
			C5472.794,4944,5455.092,4951.983,5444.56,4941.539"/>
		<path id="path154" fill="#8F531A" d="M3138.792,9427.99l19.856-2.681C3115.216,9416.645,3127.059,9422.079,3138.792,9427.99z
			 M2517.062,4131.166c-8.438,0.33-8.708-2.161-6.057-5.413c6.636,2.358,24.287-2.952,39.126-11.572
			C2547.589,4120.084,2541.173,4127.174,2517.062,4131.166L2517.062,4131.166z M2574.264,4094.779l1.67-0.308
			c10.078-12.649,14.07-18.647,12.788-16.89C2587.564,4078.98,2581.544,4086.942,2574.264,4094.779z M6210.819,5973.119
			c0.52,16.165,11.66,36.584,27.415,58.777C6232.404,6013.651,6223.732,5993.692,6210.819,5973.119z M6148.996,7524.704
			c-9.053,18.772-30.952,55.02-25.576,72.209C6148.402,7579.833,6144.652,7559.845,6148.996,7524.704z M5298.705,8942.899
			c4.365,4.321,3.867,11.492-1.15,15.044c-61.692,43.447-141.863,96.841-222.041,127.5c2.271,1.019,6.665,2.425,18.567-1.304
			c-80.779,32.739-166.787,91.553-244.446,137.842c-76.172,45.439-143.064,78.89-186.094,66.328
			c-1.758-0.52-3.538-0.557-5.288-0.029c-36.863,11.331-75.688,22.09-116.309,27.693c38.54-11.953,53.76-21.629,58.455-26.353
			c4.563-4.959-2.117-6.196-11.287-6.65c-11.653-0.557-27.1-0.557-30.417-4.058c-2.952-3.113-6.445-5.589-10.503-4.233
			c-22.822,7.653-46.97,16.735-63.267,22.603c-21.321,7.471-27.166,15.088,11.36,12.355l11.213-5.075
			c8.372,6.738,0.886,13.381-16.399,18.698c-17.205,5.361-44.465,7.801-71.411,6.431c-47.805-2.321-93.047-13.931-103.755-8.73
			c-2.681,1.297-5.493,2.373-8.379,1.626c-34.211-8.854-66.24-18.024-97.046-24.484c-16.15-3.67-32.227-5.384-48.318-7.515
			c-15.952-2.71-32.38-2.718-48.589-3.597c-65.119-2.072-130.876,6.753-196.201,20.809
			c-130.877,28.242-260.149,76.413-398.035,105.534l26.045-31.691c-31.216,7.588-62.996,14.099-95.01,20.148
			c-12.275,4.746-20.208,10.921-16.282,14.517c3.911,3.589,19.98,4.944,54.412-2.204c-8.438,5.215-20.127,8.43-32.886,10.188
			c-12.993,1.318-27.034,1.157-39.976,0.198c-21.431-1.385-39.998-6.636-46.399-9.705c-1.941-0.93-4.116-1.281-6.24-0.915
			c-31.26,5.412-44.048,9.089-45.908,12.048c-1.941,3.172,7.998,6.914,21.072,8.636c26.096,4.021,64.922,5.61,43.33,7.814
			c-19.644,0.952-39.25,2.476-58.828,2.835c4.358-1.011,8.694-2.358,13.037-3.772c-24.023-3.677-37.002-9.36-54.624-12.642
			c-8.796-1.875-18.779-2.769-31.787-4.123c-13-1.443-29.077-2.425-50.229-2.82c-53.679,2.117-28.477,13.777-49.688,13.265
			c-0.022,1.853-7.295,2.058-32.563-2.109c-41.44-4.321-82.866-9.222-123.618-16.648c17.578-3.64,34.9-7.053,52.148-11.001
			c-52.112-18.999-113.35-20.391-53.738-31.867c-11.008,2.644-26.169,2.886-44.451,1.479c-18.252-1.479-39.939-3.641-63.032-8.613
			c-46.509-8.95-100.452-23.636-152.08-41.082c-101.616-33.464-195.066-74.787-222.532-80.391c-1.15-0.234-2.124-0.637-3.12-1.289
			c-56.44-36.95-115.898-63.566-187.317-93.34c-5.552-2.307-7.288-8.774-4.563-14.136c2.856-5.581-5.164-15.974-37.427-30.212
			c-4.922-2.168-10.759,0.007-12.971,4.914c-6.299,14.033-37.112,4.995-75.22-9.521c-45.059-16.963-99.419-43.14-136.648-45.439
			c31.436,4.717-19.19-24.009-62.901-57.063c-44.084-32.988-79.534-69.17-33.574-51.79c-27.759-19.797-31.238-17.526-33.889-12.788
			c-2.688,4.658-4.197,11.609-27.781-2.139c-28.301-31.289-57.078-63.713-85.708-97.69c-28.872-33.823-57.803-69.17-85.928-105.762
			c-53.225-68.643-104.231-141.218-151.941-213.618c-3.655-5.552-0.264-12.194,6.021-14.333c3.787-1.297,5.024-6.681-1.86-23.541
			c-26.675-20.456-53.665-39.521-80.801-57.231c-1.194-0.776-2.278-1.838-3.04-3.039c-17.9-28.037,6.072-47.352-53.511-82.42
			c10.195,3.553,25.576,8.943,10.313-10.788c-67.456-62.959-137.446-129.917-196.934-212.351
			c-29.839-40.84-55.913-86.609-76.78-132.993c-20.999-46.509-37.617-94.087-52.097-141.475
			c-14.465-47.41-26.843-94.695-39.331-141.233c-12.429-46.45-25.393-92.637-39.001-138.926
			c-27.29-92.505-56.953-184.658-89.202-277.654c21.899,49.395,16.084,14.714,8.994-24.771c7.603,25.129,14.7-3.347,23.848,0.161
			c-17.358-51.475-33.369-103.799-47.769-157.119c9.829-16.267,5.237-59.692,2.607-101.96c-1.318-21.108-1.963-41.938-1.421-58.506
			c0.967-16.626,3.677-29.026,9.082-33.362c-1.099,17.256-2.139,34.563-2.395,51.826c11.309-34.885,26.953-11.067,43.828,18.567
			c17.109,29.788,36.79,65.259,52.859,58.85c-10.935,37.925,5.149,85.378,23.306,137.373
			c17.871,52.244,36.753,109.263,29.18,173.101c12.502,24.683,5.581-24.624,16.274-12.29c-7.339,33.003-2.131,70.129,20.801,135.732
			l1.545-8.438c21.819,94.57,42.715,161.755,65.493,230.757c11.455,34.329,23.687,68.738,38.306,106.267
			c14.692,37.449,31.633,78.135,54.866,122.703l-21.292-6.877c20.186,39.316,29.685,44.495,42.891,60.044
			c1.589,27.473-14.465,2.043-29.063-25.898c-14.619-27.678-27.781-57.7-31.348-30.586c13.77,10.327,28.506,33.215,46.157,60.168
			c17.52,26.902,38.408,58.228,61.992,88.25c46.897,59.861,101.821,114.902,129.91,117.612c49.087,52.588-26.77-1.45,19.439,48.735
			c1.099,1.193,2.571,2.204,4.102,2.739l14.37,5.083c2.542,0.9,4.358,3.171,4.688,5.852l1.838,15.037
			c0.271,2.233,1.355,4.387,2.952,5.969c33.01,32.688,57.979,43.271,65.72,39.295c-8.643-8.724-20.632-28.096-28.66-38.152
			c25.972,19.856,55.32,56.836,78.362,90.799c22.837,33.918,39.91,64.211,47.842,72.129c-15.586-18.647-31.113-37.288-47.556-55.679
			c58.462,86.521,116.66,181.531,176.58,268.828c59.832,87.781,122.483,164.964,185.413,226.523
			c-5.222-0.615-10.166-1.545-15.33-2.344c49.058,48.003,75.769,60.103,102.371,72.811c27.429,12.224,55.928,24.484,125.31,61.047
			l-4.358-4.123c22.288,18.215,54.192,36.848,89.583,52.485c2.637,1.172,5.017-0.498,7.339-2.197
			c5.105-3.743,43.55,7.097,48.435,2.907c2.52-2.146,7.786-1.34,10.671,0.271c109.219,60.908,52.104,35.207,127.625,95.288
			c2.014,1.604,4.688,2.432,7.258,2.175l18.94-1.926c2.681-0.278,5.479,0.63,7.529,2.38c21.108,18.011,26.741,26.851,68.708,46.714
			c4.409,2.08,10.898,2.681,13.542-1.428c3.04-4.731,29.421-0.447,27.788-8.13c-1.333-6.343,6.167-11.316,12.451-9.734
			c65.002,16.333,111.489,37.962,151.311,55.254c45.886,20.047,82.815,33.677,123.86,22.705
			c32.271,25.254-3.259,23.665-42.07,14.231c-38.899-8.262-80.369-23.768-61.165-13.777c-18.706,0.454-5.676,11.367,18.691,23.701
			c24.58,11.155,60.322,24.764,86.345,28.213c26.023,5.545,50.544-0.366,84.236-6.035c16.824-2.57,35.881-4.541,58.711-5.939
			c11.411-0.513,23.738-0.535,37.2,0.168c13.469,0.33,28.088,0.718,44.092,2.293c-12.759-0.952-13.381-3.735-26.074-4.651
			c24.331-2.761,47.366,3.457,72.056,6.006c12.327,1.59,25.056,3.018,38.379,3.274c12.158-0.052,24.771-1.875,37.888-5.2
			c2.358-0.601,4.856-0.213,7.009,0.93c7.383,3.904,15.19,5.859,22.932,6.834c8.87,0.695,17.629-0.146,25.679-0.594
			c16.099-0.981,29.297-0.923,35.647,12.363l-59.15,1.963h-0.615l-59.143-1.721c16.802,1.369,33.442,4.328,50.852,7.712
			c17.41,3.421,35.42,5.252,55.049,7.332c39.148,3.926,84.419,0.725,138.787-18.509c-9.888-3.186-44.436-4.365-67.654-4.263
			c15.491-7.002,31.194-8.488,47.175-10.1c15.981-2.103,32.19-4.277,48.032-11.961c-7.852-12.751-43.982-5.361-87.202,1.312
			c-21.68,3.698-45,6.525-67.61,7.998c-22.61,0.469-44.268,0.021-62.08-4.021c16.56-7.199,49.775-4.665,74.7-4.87
			c14.473-0.477,25.898-1.289,29.055-4.285c2.849-2.725,6.255-4.533,10.085-3.669c8.533,1.919,17.38,2.248,26.514,1.56
			c15.747-0.886,32.395-5.127,50.076-10.305c35.31-9.771,74.839-23.379,122.454-20.56l-9.932-14.531
			c14.531-1.018,45.461-1.157,71.338-8.306l-52.185-8.511c75.938-0.894,135.52-52.559,211.75-58.037
			c-76.846,16.113-83.225,23.826-79.431,29.414c2.095,3.076,7.266,5.823,7.222,9.771c-0.081,6.263,5.259,11.133,11.433,10.159
			c30.41-4.79,51.885-9.976,68.54-15.506c21.475-7.441,34.651-15.879,48.977-24.448c14.238-8.701,29.084-18.391,55.239-25.913
			c13.015-3.859,28.484-7.939,48.494-9.917c9.932-1.157,20.83-2.153,32.834-2.951c12.1-0.469,25.51-0.096,40.042,0.3
			c-32.52-3.962-115.796,15.82-67.324,19.775c41.514-7.404,98.752-11.616,127.61-17.637c0.93-0.19,1.853-0.241,2.791-0.168
			c18.728,1.377,32.534,4.849,42.312,6.768c10.056,2.212,15.938,3.962,18.816,5.361c5.764,2.805-0.447,4.226-9.346,5.479
			c-17.922,2.482-46.003,4.438-14.524,14.15c27.144-6.453,46.26-0.996,64.241,8.994c18.164,9.748,36.27,23.54,64.094,34.299
			l4.709-16.149c37.551,7.229,55.972,11.975,67.141,16.794c10.986,4.746,14.216,9.521,17.168,14.246
			c2.981,4.768,5.632,9.44,15.249,12.766c9.507,3.12,26.587,5.809,54.873,0.103c-16.86-6.313-32.161-14.063-47.256-23.283
			c19.351,3.691,37.244,5.449,56.162,4.834c-4.739-5.903-9.236-11.543-13.271-17.725c28.535,4.292,50.581,0.329,71.184-6.46
			c17.93-6.131,35.237-14.897,60.308-28.74c4.541-2.498,9.602-0.557,13.088,3.281c7.273,7.998,37.324,5.734,84.214-16.458
			c37.507-29.502-30.374-2.798,57.568-43.389c-23.218,0.366-49.16-0.944-78.662,27.298c-2.175,2.08-5.098,3.2-8.086,2.783
			c-7.888-1.136-20.889,0.41-26.133-2.065c40.239-31.685,111.782-57.319,143.093-72.905c-11.704,6.657-25.723,14.561-32.043,20.376
			c45.264-13.74,90.344-28.162,135.484-42.781c4.746-4.526,6.687-7.456,6.621-9.258c-0.176-4.592,0.754-9.082,5.127-10.48
			c15.139-4.849,31.597-10.086,53.899-20.991c-15.938-6.951-20.288-20.53-75.381,1.164c40.833-15.835,81.643-31.875,122.271-48.42
			c1.523-0.623,2.732-1.743,3.743-3.032c7.712-9.902,36.951-34.49,36.936-40.269c-0.007-2.271,2.205-5.098,4.116-6.313
			c36.299-23.079,87.297-40.818,138.45-63.157c3.699-1.618,8.005-0.842,10.876,2L5298.705,8942.899z M5668.783,8494.628
			c-0.601-1.019-1.003-2.139-1.201-3.296l-2.9-16.948c-0.417-2.205-0.212-1.854-0.066-1.802l0.388,0.021l0.776,0.037l3.274,0.197
			c2.197-0.015,4.6-0.139,6.936-0.388c4.761-0.608,9.221-1.729,13.074-3.018c14.685-9.793,30.959-21.387,45.359-35.428
			c6.987-7.354,13.799-15.161,20.251-23.444c6.599-8.115,12.517-17.051,17.417-26.961c-10.657,9.419-19.775,17.871-28.271,26.683
			c-8.679,8.569-16.128,18.237-26.704,25.913c12.634-17.747,23.87-36.592,35.2-54.756c-17.212,10.151-32.351,19.775-44.436,28.469
			c-12.634,8.013-22.808,14.393-29.575,18.377c-13.682,7.917-14.502,4.753,0.176-21.102c19.292,15.469,64.424-25.459,103.784-72.912
			c36.445-42.832,66.855-91.81,89.326-93.772c3.984-0.344,7.463-2.769,8.723-6.555c3.889-11.712,7.266-23.745,10.649-35.669
			c-5.662,11.221-9.001,11.638-14.604,22.69c10.642-42.729,25.635-52.09,43.381-64.783c18.054-12.239,39.58-27.136,59.143-80.728
			c8.335-26.133,12.678-47.622,9.631-51.064c-2.161-2.417-1.296-6.321,0.278-9.155c11.206-20.354,22.397-40.833,32.952-61.824
			c7.91-24.749-2.014-21.482-9.851,3.062c16.736-41.96,32.109-84.932,47.271-128.167l-1.633,0.549
			c13.081-16.34,37.178-55.723,48.208-75.33c3.677-35.771-9.895,15.498-12.927,5.149l33.062-70.452
			c-2.871-33.618-32.329,24.338-46.04,75.476c-24.734-82.104,30.212-57.715,46.948-214.167l-25.942,67.91
			c-6.995-28.909-2.454-57.568,3.94-91.37c2.043-10.759,17.629-10.781,19.446,0.022c3.56,21.277,10.576,28.997,24.998-3.428
			c2.651-22.266,8.95-50.383,27.312-87.795c1.619-3.311,0.667-6.987-1.355-10.078c-7.72-11.799,5.801-48.948,18.354-94.951
			l-22.522-1.897c19.878-54.302,30.132-48.354,47.197-77.783c0.615-1.04,1.091-2.351,1.311-3.538
			c10.95-59.011-0.205-77.322-10.972-94.043c-1.34-2.087-1.816-4.746-1.399-7.185c16.34-93.56,12.532,77.798,40.613-39.214
			l0.227-1.406c7.983-86.389,27.532-144.031,51.995-245.083c-1.135-60.82-14.714,9.06-18.721-13.118
			c7.83-17.014,15.857-34.153,22.705-51.431c0.483-13.081-5.259-9.28-8.145-7.368c9.778-44.333,23.005-1.934,32.959-72.744
			c12.231-9.038,5.259-46.34-3.391-91.252c-4.702-22.463-9.331-46.868-11.118-71.148c-2.783-24.199-3.179-48.252,2.336-70.62
			c-2.417-6.519-4.592-7.852-6.709-6.768c-6.497,3.325-13.777-3.75-13.381-11.045c1.003-18.186,0.769-32.498,1.34-44.59
			c0.439-16.809,0.82-29.07,1.472-40.715c0.469-22.852,1.34-42.949,4.6-92.344c0.11-1.56-0.161-3.215-0.776-4.658l-19.497-45.022
			c-2.124-4.915-0.19-11.221,4.922-12.795c4.124-1.282,6.921-8.364,8.833-19.299c3.062-22.39,1.326-61.216-1.692-97.654
			c14.854,18.853,26.558,35.64,33.669,47.183c-3.706-18.838-6.541-38.042-11.038-56.748l-13.345-56.382
			c-8.027-11.924-11.36,1.809-13.975,22.566c-0.82-7.954-1.545-15.564-1.86-21.599c-10.532-17.93-17.952-20.281-21.746-14.751
			c-3.516,5.112-5.12,17.263-6.328,31.406c-0.205,2.446,0.498,4.937,1.992,6.907c7.083,9.287,14.319,18.523,21.519,27.583
			c1.641,2.043,2.402,4.666,2.102,7.266c-3.362,29.07-11.602,55.759-24.719,54.031c0.227-7.566-0.894-21.702-4.951-36.453
			c-1.128,7.91-2.761,13.213-5.984,10.781c-3.069-2.498-2.695-12.51-2.974-28.015c-0.073-3.713-2.256-7.126-5.596-8.745
			l-26.25-12.708l7.295-9.082c-21.394-42.627-43.645-84.587-68.21-125.317c-0.579-0.959-0.989-2.021-1.208-3.135
			c-18.911-96.05-28.96-189.456-97.295-322.163c-3.42-6.636-12.327-7.061-16.956-1.216c-1.875,2.373-4.409,3.604-7.339,4.314
			c-10.671,2.6-14.67,16.172-7.756,24.712c24.543,30.264,41.016,82.91,65.793,134.238c1.846,3.831,0.081,9.25-4.153,9.719
			l-0.205,0.029c-3.765,0.688-7.383-0.571-8.745-4.138c-7.039-18.413-14.524-36.68-22.31-54.895
			c-8.518-20.779-17.307-41.528-26.682-62.043c-1.458-3.215-5.625-6.555-9.126-6.101c-10.232,1.311-21.914-18.779-40.21-40.386
			c-3.413-4.014-4.563-10.554-0.681-14.136c7.529-6.929-2.6-29.502-18.333-57.144c-20.72-34.746-50.493-77.424-65.017-105.82
			c-12.041,3.911-11.887,22.529,33.809,83.562c-34.658-27.07-42.136-54.91-49.57-83.123c-7.119-28.293-14.355-56.777-48.464-83.218
			c11.089,15.161,18.618,22.163,18.303,31.663c-17.666-41.543-90.41-121.179-82.874-94.922l11.309,14.919
			c-39.609-48.01-99.434-121.956-148.11-187.881c-48.391-65.815-87.158-121.121-82.668-137.981
			c-3.596,1.692-15.513,36.021-15.154,45.454c-21.738-70.239-46.868-140.032-81.621-208.718c-2.981-5.903-11.089-7.625-15.857-3.04
			c-8.459,8.13-22.749,14.604-32.754,23.789c-9.045,8.276-14.656,18.091-11.023,32.476c2.3,9.155-7.786,16.362-15.315,10.671
			c-10.767-8.152-22.727-17.761-36.357-29.597c-6.313-5.471-3.479-15.769,4.761-17.183c15.139-2.6,27.327-10.437,14.487-21.438
			c-38.357-9.441-50.911-12.07-65.142-16.956c-14.458-4.387-29.985-10.935-75.747-20.31c23.84,7.083,20.479-27.18-7.148-49.907
			c-7.859-6.46-19.805-3.501-24.104,5.713l-0.227,0.498c-4.512,9.697-17.051,12.151-24.873,4.856
			c-22.471-20.955-45.659-41.88-68.73-63.054c22.903,17.644-4.666,30.806-32.681,31.128c-2.19,0.029-4.109-1.172-5.815-2.527
			c-5.09-4.072-24.272-12.795-46.641-23.335c-14.934-7.075-31.223-15.059-45.542-22.668c-14.07-7.947-26.199-15.19-33.062-20.281
			c17.205,6.284,33.999,13.044,51.343,18.508c-64.387-31.787-86.543-63.245-106.948-93.896
			c-17.725-27.422-34.461-54.404-74.59-88.154c-7.632-6.416-14.399-3.406-16.216,6.401c-3.047,16.531-17.695,30.681-55.569,6.262
			c-1.89-1.223-3.354-3.04-4.065-5.171c-6.504-19.277-18.582-58.162-37.493-102.942c-19.841-46.516-47.41-99.639-88.147-143.379
			c-1.414-1.509-3.259-2.556-5.266-3.01l-19.16-4.307c-1.904-0.432-3.64-1.421-4.966-2.849
			c-20.603-22.024-41.624-43.835-63.252-65.391c14.29,29.736,43.162,81.621,73.044,136.187
			c23.306,41.99,48.076,85.334,70.305,120.242c4.995,7.83-2.659,17.41-11.492,14.568c-7.947-2.542-12.839-4.929-47.358-34.629
			c-5.728-1.882-8.152-1.282-8.225,0.989c-0.264,7.046-10.181,9.36-15.762,5.061c-23.503-18.105-46.831-35.999-70.093-53.518
			c-2.988-2.249-5.361-5.75-4.79-9.448c1.531-9.932-17.388-31.531-36.855-52.61c-22.69-24.441-46.326-47.915-38.042-53.694
			c39.617,37.683,77.82,77.212,115.92,117.759c7.412,7.881,20.251,0,16.509-10.144c-14.854-40.305-68.701-113.804-145.649-163.843
			c-16.304-5.12-16.721,8.152-14.451,22.683c1.428,9.185-9.368,15.146-16.282,8.928c-8.218-7.405-18.171-15.645-28.242-23.569
			c-22.485-16.414-45.505-31.208-51.746-31.208c12.466,12.019,24.492,24.69,36.548,36.826
			c-15.212-6.702-27.422-15.198-38.621-24.573c-11.426-8.694-21.812-18.347-32.871-27.905c-10.95-9.8-23.408-17.769-37.639-25.378
			c-7.185-3.662-14.839-7.141-23.335-9.851c-8.65-2.402-18.025-4.27-28.242-5.449c-14.451-5.713-39.778-4.915-59.231-5.72
			c-9.844-0.41-12.737-13.14-4.402-18.376c36.189-22.668,60.483-75.11,44.473-101.653c-1.399-2.322-3.97-3.735-6.65-4.197
			l-25.1-4.255l-0.527-0.081c-15.813-1.772-36.211-4.058-57.356-6.438c-42.59-3.311-87.744-4.16-105.417-0.535
			c-25.547,5.515-10.137,21.394,5.413,36.921c15.754,15.3,31.326,31.421,10.356,35.64c-0.205-6.57-23.599-19.38-33.64-24.016
			c-15.051-0.271-12.942,5.208-14.919,8.796c-1.89,3.398-7.427,4.973-35.757-0.667c-2.095-0.41-3.669-2.021-4.863-3.801
			c-15.022-22.354-124.497-13.103-25.518-21.672c-58.132-14.041-66.533-5.522-128.262-10.532c-3.962-0.315-8.752-3.618-8.95-7.595
			c-0.842-16.772-68.979-49.072-124.871-58.726c-3.757-0.645-7.097,1.465-9.478,4.446c-3.582,4.497-12.371,8.818-17.373,11.169
			c-131.96-1.56-203.188,10.408-325.415,11.785c-1.274,0.022-2.446,0.293-3.611,0.762c-10.679,4.263-42.422,10.034-48.406,16.414
			c-2.197,2.336-5.654,4.277-8.774,3.479c-13.682-3.508-29.919-7.229-57.59-5.837c-35.405,12.993-14.414,12.195,8.445,11.763
			c23.101,0.066,48.142,0.615,21.365,14.392c-5.493-14.15-97.214-13.462-150.579-11.829c6.086-12.041,36.709-18.157,72.495-18.94
			c35.742-1.187,76.421,3.127,103.389,6.357c-0.469-14.663-24.346-29.033-65.369-39.177c-40.935-9.998-99.375-15.828-167.498-7.522
			c-53.782,9.023-63.794,18.45-62.651,23.306c1.069,5.054,12.722,6.929,3.259,7.954c-47.791,16.135-81.035,30.835-108.699,40.342
			c-13.447,5.632-25.532,9.99-36.848,13.762c-11.162,4.446-21.233,8.459-31.033,12.356c-10.188,3.633-19.16,8.782-28.857,14.15
			c-9.543,5.486-19.812,11.77-29.443,20.164c-19.629,16.179-37.72,38.87-57.898,62.827c-12.781,21.914-10.159,29.641-1.318,34.724
			c5.64,3.34,13.579,4.468,17.82,7.625c3.435,2.563,7.961,3.611,11.492,1.172c29.443-20.31,46.025-45.381,62.285-66.379
			c8.643-11.982,18.01-22.603,27.561-32.988c9.243-10.818,20.273-19.57,32.344-28.169c-18.42,16.128-34.673,34.395-50.142,52.668
			c5.83-3.794,13.63-8.123,21.592-13.594c8.049-5.383,16.45-11.748,25.664-17.19c9.104-5.574,17.571-12.195,26.03-17.505
			c8.43-5.376,15.974-10.781,21.885-15.952c-4.724,5.317-12.561,11.982-22.852,19.702c-9.778,8.459-22.134,17.981-35.31,29.597
			c-12.854,12.07-27.583,24.91-41.66,40.723c-14.443,15.425-29.502,32.505-47.19,48.42c-17.534,16.069-38.628,29.817-61.062,40.034
			c-22.471,10.254-45.952,17.864-68.782,24.624c-45.249,12.876-86.946,26.287-119.729,42.817c-0.938,0.469-1.846,0.754-2.886,0.872
			c-13.14,1.56-29.941,5.332-41.953,6.548c-12.261,1.743-19.226,1.055-10.796-6.848c14.839-5.508,29.919-10.393,44.905-15.337
			c18.025-14.202-4.98-12.275-25.591-8.174c-20.669,3.669-39.258,8.064-12.129-6.951c-32.256,7.383-66.87,15.916-102.781,30.073
			c-34.893,13.44-70.811,32.432-105.82,59.927c-2.175,1.714-3.582,4.299-3.831,7.053l-2.08,22.896
			c-2.109-6.299,42.839-43.586,68.613-50.859c-18.933,5.596-45.015,30.381-71.309,54.192c-26.25,24.031-53.167,46.853-77.952,48.45
			c13.74-16.882,28.118-33.311,42.678-49.812c-59.429,28.726-137.747,62.021-194.18,120.41
			c14.099-40.107,15.293-10.364,43.923-66.526c-9.543,27.913,30.088-5.918,68.606-35.779c38.584-29.941,75.623-55.789,51.973-18.882
			c15.718-29.238,35.779-46.721,58.477-64.512c19.849-15.608,41.741-31.274,66.76-55.334c2.615-2.512,6.365-1.252,9.844-0.256
			c2.769,0.791,12.891-3.75,42.781-21.335c0.842-0.491,1.75-0.732,2.717-0.71c4.175,0.103,11.052-0.813,15.549-1.494
			c1.86-1.179,2.512-1.597,4.109-2.607c-1.15,0.901-2.014,1.582-3.186,2.49c3.259-0.41,3.596-0.337-1.201,0.901
			c-14.026,10.239-24.514,19.819-27.48,26.001c19.16-1.289,53.818-14.011,88.982-26.082c35.376-11.667,71.382-22.449,90.747-23.899
			c39.053-15.41-19.219-2.607,0.469-16.458c17.454-1.582,34.937-2.695,51.504-3.12c3.091-0.081,5.75-1.545,7.537-4.065
			c5.676-8.02,23.936-18.376,32.585-25.972c5.31-4.446,7.515-7.976,3.86-9.456c-3.853-1.472-13.352-1.069-35.625,2.358
			c25.554-6.863,47.9-13.447,65.632-21.079l2.292-1.34c6.731-5.098,13.081-10.254,18.45-15.227
			c5.486-5.105,10.62-10.422,17.651-17.512c13.564-13.733,32.124-33.582,51.519-48.479c7.185-8.804,18.179-17.761,28.828-25.232
			c10.737-7.522,21.013-14.553,29.817-18.53c17.161-8.562,24.675-11.367,4.351-4.167c44.143-29.194,91.604-50.991,139.175-65.771
			l-0.139-4.167c69.045-27.993,142.939-36.292,215.698-42.217c72.488-5.186,145.518-8.188,219.858-22.793l2.542-0.154
			c43.271,3.45,87.048,7.749,158.32,3.75c1.67-0.103,3.34-0.776,4.556-1.926l10.305-9.602c1.421-1.333,3.215-1.992,5.156-1.86
			c54.258,3.596,157.705-9.082,188.342,3.142c2.769,1.106,5.64,1.326,8.379,0.139c33.472-14.626,101.367-12.173,173.789-2.336
			c75.703,10.166,155.574,30.835,207.488,39.573l-0.168,18.164c70.034,15.234,135.835,40.327,215.969,81.489l-11.14,12.297
			c16.589,9.829,35.925,19.929,57.583,30.073c21.987,9.485,45.374,20.669,70.408,32.095c49.241,23.73,103.103,51.841,150.212,87.986
			c-3.157-9.434-28.257-26.316-48.281-35.295c69.324,26.111,124.805,77.974,174.932,129.104
			c49.827,50.801,95.991,101.58,150.681,130.239c0.981,0.52,1.89,1.252,2.607,2.087c19.431,22.661,37.441,34.57,56.052,44.033
			c-2.168-1.765-3.948-3.523-5.339-5.222c2.52,1.758,6.138,4.497,9.807,7.39c12.041,5.823,24.471,11.807,37.889,18.289
			c-12.209-4.27-23.65-8.789-32.725-14.187c8.87,7.266,20.025,16.406,32.278,26.448c10.759,9.25,22.368,19.241,33.948,29.202
			c2.483,2.131,5.859,2.9,9.023,2.051l16.143-4.373c2.139,1.692,3.86,3.04,6.086,4.79c22.969,9.492,21.423,16.509,9.961,19.929
			c-5.369,1.604-7.302,8.188-3.23,12.048c6.738,6.416,12.839,12.656,17.959,18.545c2.212,2.549,5.413,3.457,8.767,3.215
			c16.589-1.216,32.629,10.151,49.819,22.266c17.681,11.755,37.295,23.489,58.154,21.379c2.966-0.3,5.999,0.308,8.071,2.446
			c11.375,11.799,45.908,30.703,80.706,50.925c38.181,22.178,75.681,47.249,77.703,64.863c2.798-2.908,13.22,0.11-4.248-8.708
			c36.174,13.835,72.92,29.685,100.005,54.463c4.775,0.212,8.159,0.359,12.935,0.579c8.254-5.508,19.05-3.486,24.998,3.772
			c17.131,20.867,32.783,42.451,47.629,63.992c0.981,1.414,2.38,2.563,3.948,3.296c23.892,11.191,40.964,19.351,48.633,18.948
			c7.881-0.41,6.218-10.239-9.88-34.27c42.319,51.731,59.399,72.605,74.919,91.582c15.249,18.53,28.96,35.559,56.14,84.214
			l6.702-13.184c26.06,29.377,51.672,88.411,75.117,98.914c37.544,24.8,105.491,105.85,181.78,202.72
			c71.851,91.077,149.502,196.794,217.375,281.711c3.604,4.504,4.189,12.1-0.806,15.007c-14.194,8.276,82.053,81.768,61.736,103.601
			c9.06,3.831,20.281,14.421,25.049,13.931c4.446-0.461,8.906,0.344,10.986,4.299c20.94,39.719,40.195,70.071,57.18,98.181
			c18.743,34.16,34.849,64.958,39.001,107.036c14.238,8.079,2.549-28.55,12.598-20.222c1.97,9.456,7.603,37.185,17.82,45.894
			c10.115,8.518,0.374-18.809-3.479-37.471c11.799,27.51,19.805,49.277,23.401,67.397c3.582,18.142,4.043,31.963,2.41,42.795
			c-2.629,17.534-10.671,27.319-19.688,35.12c-3.662,3.164-4.38,8.577-1.853,12.708c27.539,45,35.779,73.191,31.135,114.8
			c-0.293,2.637,0.469,5.347,2.146,7.412c13.989,17.168,29.81,40.459,13.257-26.462c3.325,9.771,10.042,29.583,18.296,53.862
			c7.734,24.456,15.168,54.016,22.339,82.405c10.642,52.434,17.432,101.682,9.771,112.595c-1.194,1.685-1.582,3.787-0.872,5.735
			c5.566,15.205,6.79,52.083,5.771,63.186l0.007,1.736c9.214,90.425,11.792,98.855,11.038,188.57l-4.08-24.895
			c-25.701,35.588-5.757,74.275-12.107,146.316l2.871-1.897c1.919,41.426,2.146,66.76,1.128,83.716
			c-1.443,16.926-3.472,25.613-5.398,34.233c-4.314,17.219-6.042,34.219-7.214,116.309l-15.3-11.177
			c-18.896,4.929-18.237,40.964-18.604,87.239c0.63,46.421-0.322,103.132-16.575,147.722c-0.527-11.675-1.626-23.474-2.424-35.156
			c-21.987,47.241,16.45,150.645,7.888,202.361c0.308,11.741,9.148-16.084,15.176-30.864
			c-12.319,134.268-24.756,16.633-53.877,102.517c-2.073,6.13,2.241,12.766,8.701,13.162c9.639,0.571,20.061-2.703,9.25,43.008
			c0.359,31.816-72.114,149.099-90.952,240.798c-1.121,5.442-6.57,7.068-11.96,5.742c-3.625-0.901-9.126,5.288-17.988,24.185
			c-11.792,33.604-17.622,82.266-27.253,129.404c-9.441,47.102-23.079,92.732-47.798,118.55c-0.718,9.536,0.264,13.638,2.227,14.788
			c-6.738,12.363-14.875,28.813-23.716,46.904c-9.338,17.93-19.534,37.478-29.399,56.418c-10.598,18.655-21.284,36.46-30.93,51.079
			c-8.262,11.806-15.974,21.438-22.419,27.7c-2.578,2.513-3.105,6.16-2.358,9.676c7.954,37.91-37.793,109.263-89.084,167.98
			c-49.109,57.803-102.781,102.034-96.108,123.025c1.157,3.655,0.557,7.669-2.153,10.379c-19.277,19.351-40.51,36.76-61.179,54.689
			c-2.307,2.161-7.097,5.691-11.067,8.65c-4.102,3.193-8.313,5.69-12.488,8.4c-5.72,3.553-11.484,6.782-17.344,9.727
			c-4.636,2.337-10.327,0.483-12.942-3.999l-62.168-106.897"/>
		<path id="path156" fill="#8F531A" d="M6250.839,6149.054c4.314,4.57,7.742,5.171,11.155,5.53
			C6261.525,6162.962,6258.419,6164.01,6250.839,6149.054"/>
		<path id="path158" fill="#8F531A" d="M3930.621,4037.503c18.94,1.377,29.941,0.491,37.529-1.23
			C3968.26,4040.47,3959.061,4042.184,3930.621,4037.503"/>
		<path id="path160" fill="#8F531A" d="M2023.497,4333.79c18.274-11.675,36.68-23.188,55.474-34.27
			c-17.739,11.543-26.624,19.724-33.904,27.312c-2.849,2.959-7.405,4.219-10.95,2.117
			C2032.879,4328.224,2029.95,4329.212,2023.497,4333.79"/>
		<path id="path162" fill="#8F531A" d="M1692.061,4774.496c-7.588,5.156-13.074,13.784-20.603,18.86l-4.065-7.112
			C1693.68,4758.36,1716.81,4743.595,1692.061,4774.496"/>
		<path id="path164" fill="#8F531A" d="M2010.731,4414.042c4.849,14.187-28.821,34.578-63.64,60.923
			c2.029-1.663,4.006-3.171,5.881-4.995C1930.362,4463.282,1970.008,4437.721,2010.731,4414.042"/>
		<path id="path166" fill="#8F531A" d="M1939.063,4481.124c-10.635,8.218-21.13,16.985-30.623,26.067
			C1899.381,4504.605,1919.632,4495.194,1939.063,4481.124"/>
		<path id="path168" fill="#8F531A" d="M2398.072,4155.042c-20.208,9.983-19.028-12.751-29.312-3.259
			c-14.985-4.424,22.661-11.88,48.904-12.502c13.059-0.608,22.896,0.645,22.207,2.952
			C2439.264,4144.554,2428.05,4148.202,2398.072,4155.042"/>
		<path id="path170" fill="#8F531A" d="M2012.481,4472.379l0.652-15.146c0.205-4.739,3.75-8.657,8.445-9.353l19.614-2.834
			C2031.612,4454.171,2021.864,4463.063,2012.481,4472.379"/>
		<path id="path172" fill="#8F531A" d="M2289.33,4274.383c-18.889,10.737-37.251,22.288-55.356,34.08
			c-1.772,1.15-3.86,1.172-5.969,1.157c-3.245-0.015-9.602,2.351-16.772,5.42C2247.552,4292.511,2288.539,4268.971,2289.33,4274.383
			"/>
		<path id="path174" fill="#8F531A" d="M2211.231,4315.04c-19.16,11.389-37.134,22.544-49.182,26.733
			C2172.347,4335.511,2194.562,4321.991,2211.231,4315.04"/>
		<path id="path176" fill="#8F531A" d="M2089.598,4418.89l13.623-14.275l1.201-1.091c12.51-9.792,25.518-18.918,38.269-28.433
			C2124.732,4389.439,2106.964,4403.934,2089.598,4418.89"/>
		<path id="path178" fill="#8F531A" d="M2939.823,3944.032c25.188-4.307,50.442-7.258,75.63-9.47
			c8.438,4.702-11.25,11.228-39.17,14.099C2957.84,3948.009,2929.811,3952.33,2939.823,3944.032"/>
		<path id="path180" fill="#8F531A" d="M2757.501,4076.952c13.169-13.813,11.638-18.333,17.813-28.85l13.535,17.08
			C2777.979,4068.185,2768.202,4072.982,2757.501,4076.952"/>
		<path id="path182" fill="#8F531A" d="M2944.54,3997.162c8.635,3.552,104.026-3.999,16.392,12.59
			C2952.552,4004.442,2883.243,4019.588,2944.54,3997.162"/>
		<path id="path184" fill="#8F531A" d="M4054.115,4005.855c-6.035-1.831-12.004-3.926-18.142-5.391l11.836-33.633
			C4050.116,3979.649,4052.152,3992.899,4054.115,4005.855"/>
		<path id="path186" fill="#8F531A" d="M4830.899,4612.14c-41.279-23.167-42.019-31.318-42.546-38.035
			c-0.359-6.899-0.33-12.561-36.621-33.486c-10.217-16.26,37.947,18.113,46.56,18.933l5.698,1.787
			C4840.252,4596.502,4863.83,4607.679,4830.899,4612.14"/>
		<path id="path188" fill="#8F531A" d="M4797.918,4555.34c-6.299-6.401-12.839-13.359-19.475-21.108
			C4789.972,4545.511,4795.04,4551.371,4797.918,4555.34"/>
		<path id="path190" fill="#8F531A" d="M910.985,6988.82c-3.376-19.819-7.104-39.668-10.166-59.707
			c4.226,12.876,9.104,25.569,13.63,38.232L910.985,6988.82"/>
		<path id="path192" fill="#8F531A" d="M933.792,6873.639l-22.375-14.246l21.086-35.442
			C931.251,6837.326,928.856,6863.422,933.792,6873.639"/>
		<path id="path194" fill="#8F531A" d="M6146.271,7361.769l6.372-2.747c3.472,9.88,0.513,22.683-5.339,48.362L6146.271,7361.769"/>
		<path id="path196" fill="#8F531A" d="M5932.265,8086.464l4.768-11.587l8.936,29.751L5932.265,8086.464z"/>
	</g>
</g>
</svg>
