<?xml version="1.0" encoding="utf-8"?>
<!-- Generator: Adobe Illustrator 14.0.0, SVG Export Plug-In . SVG Version: 6.00 Build 43363)  -->
<!DOCTYPE svg PUBLIC "-//W3C//DTD SVG 1.1//EN" "http://www.w3.org/Graphics/SVG/1.1/DTD/svg11.dtd">
<svg version="1.1" id="Laag_1" xmlns="http://www.w3.org/2000/svg" xmlns:xlink="http://www.w3.org/1999/xlink" x="0px" y="0px"
	 width="576px" height="202.912px" viewBox="0 0 576 202.912" enable-background="new 0 0 576 202.912" xml:space="preserve">
<g>
	<path d="M54.387,138.681c4.988,0,8.684-1.291,11.088-3.877c2.403-2.585,3.606-6.281,3.606-11.089c0-4.809-1.203-8.503-3.606-11.088
		c-2.404-2.586-6.101-3.878-11.088-3.878h-3.538v29.932H54.387z M16.018,171.335V76.094h38.369c7.164,0,13.809,1.18,19.932,3.538
		c6.123,2.358,11.406,5.646,15.852,9.863c4.445,4.217,7.936,9.253,10.477,15.103c2.539,5.851,3.81,12.223,3.81,19.116
		c0,6.893-1.271,13.267-3.81,19.116c-2.541,5.851-6.032,10.885-10.477,15.104c-4.446,4.218-9.729,7.505-15.852,9.863
		c-6.123,2.358-12.768,3.537-19.932,3.537H16.018z"/>
	<polygon points="110.578,76.094 172.621,76.094 172.621,103.731 145.409,103.731 145.409,111.555 170.444,111.555 170.444,134.854 
		145.409,134.854 145.409,143.698 173.981,143.698 173.981,171.335 110.578,171.335 	"/>
	<polygon points="296.706,171.335 261.875,171.335 261.875,134.514 242.689,134.514 242.689,171.335 207.859,171.335 
		207.859,76.094 242.689,76.094 242.689,111.215 261.875,111.215 261.875,76.094 296.706,76.094 	"/>
	<path d="M338.338,123.74c0,2.358,0.295,4.584,0.886,6.672c0.589,2.087,1.473,3.901,2.653,5.444
		c1.178,1.543,2.696,2.767,4.557,3.675c1.859,0.908,4.014,1.361,6.463,1.361c2.45,0,4.602-0.453,6.464-1.361
		c1.858-0.908,3.398-2.132,4.626-3.675c1.224-1.543,2.129-3.357,2.719-5.444c0.592-2.088,0.886-4.313,0.886-6.672
		s-0.294-4.581-0.886-6.67c-0.59-2.086-1.495-3.924-2.719-5.514c-1.228-1.587-2.768-2.836-4.626-3.742
		c-1.862-0.908-4.014-1.362-6.464-1.362c-2.449,0-4.604,0.454-6.463,1.362c-1.86,0.906-3.379,2.155-4.557,3.742
		c-1.181,1.59-2.064,3.428-2.653,5.514C338.633,119.159,338.338,121.382,338.338,123.74z M302.964,123.74
		c0-6.896,1.245-13.382,3.74-19.459c2.493-6.078,5.964-11.364,10.41-15.855c4.443-4.49,9.728-8.052,15.85-10.682
		c6.123-2.632,12.767-3.947,19.933-3.947c7.167,0,13.811,1.315,19.934,3.947c6.123,2.63,11.406,6.191,15.85,10.682
		c4.445,4.491,7.937,9.777,10.477,15.855c2.539,6.077,3.811,12.563,3.811,19.459c0,6.895-1.271,13.383-3.811,19.46
		c-2.54,6.079-6.031,11.362-10.477,15.854c-4.443,4.49-9.727,8.027-15.85,10.613c-6.123,2.585-12.767,3.879-19.934,3.879
		c-7.166,0-13.81-1.294-19.933-3.879c-6.122-2.586-11.406-6.123-15.85-10.613c-4.446-4.492-7.917-9.775-10.41-15.854
		C304.209,137.123,302.964,130.635,302.964,123.74z"/>
	<polygon points="409.224,76.094 471.268,76.094 471.268,103.731 444.054,103.731 444.054,111.555 469.09,111.555 469.09,134.854 
		444.054,134.854 444.054,143.698 472.628,143.698 472.628,171.335 409.224,171.335 	"/>
	<polygon points="530.591,76.094 567.462,76.094 543.787,119.497 571.543,171.335 534.673,171.335 514.126,129.973 514.126,171.335 
		479.295,171.335 479.295,76.094 514.126,76.094 514.126,109.155 	"/>
	<path fill="#F7941E" d="M19.382,48.233c2.177-0.089,4.286-0.633,6.327-1.631s3.832-2.269,5.375-3.81
		c-1.271-0.454-2.518-0.589-3.742-0.409c-1.225,0.182-2.358,0.545-3.401,1.089c-1.045,0.545-1.974,1.249-2.791,2.109
		C20.334,46.442,19.745,47.328,19.382,48.233z M5.505,52.044c1.631-0.817,3.333-1.723,5.102-2.721
		c1.769-0.998,3.56-1.86,5.375-2.586c1.179-2.087,2.856-3.786,5.033-5.103c2.177-1.315,4.49-2.199,6.94-2.653
		c1.269-0.181,2.743-0.181,4.421,0c1.678,0.183,2.971,0.863,3.878,2.041c0.635,0.726,0.793,1.498,0.476,2.313
		c-0.318,0.817-0.863,1.588-1.633,2.314c-0.771,0.724-1.633,1.382-2.584,1.973c-0.952,0.589-1.655,1.021-2.109,1.291
		c-1.632,1-3.423,1.748-5.374,2.246c-1.951,0.5-3.923,0.658-5.918,0.475h-0.545c0.363,1.996,1.179,3.539,2.449,4.627
		c1.271,1.089,2.767,1.883,4.49,2.381c1.724,0.5,3.515,0.703,5.375,0.612c1.86-0.089,3.561-0.272,5.102-0.545
		c2.177-0.452,4.309-1.021,6.396-1.701c2.086-0.68,4.127-1.473,6.122-2.379c0.907-0.454,1.837-0.884,2.789-1.292
		c0.953-0.409,1.837-0.838,2.654-1.292c0.635-0.181,1.292-0.091,1.973,0.272s0.749,0.952,0.205,1.769
		c-0.455,0.725-1.09,1.224-1.906,1.496c-0.817,0.271-1.542,0.545-2.176,0.815l-6.803,2.993c-4.174,1.634-8.301,2.995-12.383,4.082
		c-1.814,0.363-3.65,0.477-5.51,0.342c-1.859-0.135-3.583-0.545-5.169-1.226c-1.589-0.681-3.017-1.655-4.287-2.925
		c-1.271-1.271-2.176-2.902-2.721-4.897c-0.182-0.726-0.342-1.454-0.477-2.178c-0.136-0.726-0.113-1.406,0.068-2.041
		c-0.998,0.454-1.973,0.975-2.925,1.564c-0.953,0.591-1.792,1.112-2.517,1.564c-0.455,0.183-1.043,0.522-1.768,1.022
		c-0.726,0.5-1.453,0.522-2.178,0.068c-0.544-0.363-0.793-0.863-0.749-1.498C4.665,52.632,4.959,52.225,5.505,52.044z"/>
	<path fill="#F7941E" d="M67.684,48.233c2.176-0.089,4.285-0.633,6.326-1.631s3.832-2.269,5.375-3.81
		c-1.27-0.454-2.518-0.589-3.742-0.409c-1.226,0.182-2.358,0.545-3.402,1.089c-1.044,0.545-1.974,1.249-2.79,2.109
		C68.635,46.442,68.045,47.328,67.684,48.233z M53.806,52.044c1.631-0.817,3.333-1.723,5.103-2.721
		c1.768-0.998,3.56-1.86,5.374-2.586c1.179-2.087,2.857-3.786,5.034-5.103c2.176-1.315,4.49-2.199,6.94-2.653
		c1.269-0.181,2.743-0.181,4.42,0c1.678,0.183,2.971,0.863,3.878,2.041c0.636,0.726,0.793,1.498,0.476,2.313
		c-0.317,0.817-0.863,1.588-1.632,2.314c-0.771,0.724-1.633,1.382-2.585,1.973c-0.953,0.589-1.656,1.021-2.108,1.291
		c-1.633,1-3.424,1.748-5.375,2.246c-1.951,0.5-3.922,0.658-5.918,0.475h-0.544c0.362,1.996,1.178,3.539,2.449,4.627
		c1.27,1.089,2.766,1.883,4.49,2.381c1.723,0.5,3.514,0.703,5.374,0.612c1.86-0.089,3.562-0.272,5.103-0.545
		c2.176-0.452,4.309-1.021,6.395-1.701s4.127-1.473,6.123-2.379c0.906-0.454,1.836-0.884,2.789-1.292
		c0.952-0.409,1.838-0.838,2.653-1.292c0.636-0.181,1.293-0.091,1.974,0.272c0.68,0.363,0.748,0.952,0.204,1.769
		c-0.454,0.725-1.09,1.224-1.905,1.496c-0.817,0.271-1.543,0.545-2.176,0.815l-6.804,2.993c-4.173,1.634-8.301,2.995-12.382,4.082
		c-1.815,0.363-3.651,0.477-5.51,0.342c-1.86-0.135-3.584-0.545-5.17-1.226c-1.588-0.681-3.016-1.655-4.287-2.925
		c-1.27-1.271-2.177-2.902-2.721-4.897c-0.182-0.726-0.341-1.454-0.477-2.178c-0.136-0.726-0.113-1.406,0.069-2.041
		c-0.998,0.454-1.974,0.975-2.926,1.564c-0.953,0.591-1.791,1.112-2.517,1.564c-0.454,0.183-1.042,0.522-1.768,1.022
		c-0.725,0.5-1.453,0.522-2.178,0.068c-0.544-0.363-0.793-0.863-0.748-1.498C52.966,52.632,53.261,52.225,53.806,52.044z"/>
	<path fill="#F7941E" d="M138.571,22.382c0.453-0.633,0.884-1.313,1.293-2.04c0.408-0.724,0.838-1.452,1.292-2.178
		c-0.907,0.908-1.747,1.815-2.517,2.721c-0.771,0.908-1.429,1.633-1.974,2.176c-1.633,1.815-3.22,3.652-4.762,5.513
		c-1.541,1.859-2.947,3.832-4.217,5.918C131.769,30.773,135.396,26.737,138.571,22.382z M113.946,35.308
		c1.632,0.091,3.264,0.114,4.897,0.068c1.632-0.044,3.264-0.16,4.897-0.34c2.54-3.901,5.284-7.959,8.232-12.178
		c2.947-4.217,6.28-7.778,9.999-10.68c0.725-0.454,1.473-0.907,2.244-1.361c0.771-0.454,1.566-0.726,2.383-0.815
		c0.906,0,1.586,0.361,2.041,1.087c0.453,0.726,0.543,1.498,0.271,2.313c-0.455,1.816-1.453,3.561-2.994,5.239
		c-1.541,1.678-2.856,3.196-3.944,4.557c-1.36,1.816-2.791,3.584-4.286,5.308c-1.496,1.724-3.016,3.402-4.558,5.033l8.027-1.904
		l13.469-4.081c0.635-0.273,1.292-0.477,1.973-0.614c0.681-0.135,1.292,0.158,1.836,0.884c0.545,0.728,0.681,1.475,0.409,2.246
		c-0.272,0.77-0.771,1.292-1.497,1.564c-4.171,1.452-8.525,2.586-13.061,3.401c-4.536,0.817-8.98,1.498-13.333,2.041l-1.906,0.409
		c-1.089,0.998-2.222,1.996-3.4,2.993c-1.18,0.998-2.404,1.996-3.674,2.993c-0.636,0.907-1.18,1.837-1.633,2.79
		c-0.454,0.952-0.907,1.927-1.361,2.925c-0.181,0.272-0.452,0.952-0.815,2.041s-0.704,2.201-1.021,3.333
		c-0.317,1.134-0.567,2.178-0.748,3.128c-0.182,0.954-0.137,1.429,0.135,1.429c1.906,0.454,3.969,0.34,6.19-0.34
		c2.222-0.68,4.149-1.247,5.782-1.701c2.085-0.726,4.173-1.45,6.259-2.176c2.086-0.726,4.172-1.541,6.258-2.449
		c0.545-0.181,1.248-0.317,2.109-0.407c0.861-0.091,1.248,0.453,1.157,1.631c-0.091,0.817-0.659,1.385-1.702,1.703
		c-1.043,0.317-1.882,0.612-2.517,0.884l-9.66,3.537c-1.089,0.454-2.608,1.089-4.558,1.906c-1.951,0.817-3.899,1.475-5.851,1.973
		c-1.95,0.498-3.719,0.566-5.305,0.205c-1.588-0.363-2.563-1.589-2.926-3.675c-0.183-2.085,0.203-4.15,1.155-6.191
		c0.953-2.041,2.064-4.24,3.334-6.598c-4.172,2.813-8.526,5.308-13.061,7.483c-0.545,0.272-0.998,0.317-1.36,0.137
		c-0.363-0.181-0.636-0.452-0.817-0.817c-0.18-0.363-0.202-0.749-0.068-1.156c0.138-0.408,0.433-0.749,0.886-1.021
		c3.174-1.452,6.235-3.039,9.184-4.762c2.947-1.724,5.828-3.629,8.639-5.714l1.905-3.267c-1.36,0.091-2.857,0.273-4.489,0.545
		c-1.633,0.271-2.948,0.137-3.946-0.409c-0.726-0.453-0.976-1.087-0.748-1.904C112.606,35.717,113.129,35.308,113.946,35.308z"/>
	<path fill="#F7941E" d="M142.65,52.037c2.358-0.996,4.603-2.129,6.734-3.398s4.332-2.448,6.6-3.537
		c0.815-0.361,1.587-0.723,2.313-1.087c0.726-0.363,1.497-0.635,2.314-0.815c1.541-0.635,3.354-1.177,5.441-1.631
		c2.086-0.454,3.946-0.589,5.58-0.409c0.635,0.181,1.155,0.521,1.563,1.021c0.408,0.498,0.636,1.019,0.681,1.564
		c0.045,0.543-0.09,1.042-0.408,1.494c-0.317,0.454-0.885,0.726-1.701,0.815c-0.544,0.182-1.155,0.205-1.836,0.07
		c-0.68-0.137-1.383-0.25-2.108-0.342c-1.271-0.091-2.518-0.044-3.744,0.137c-1.225,0.181-2.426,0.587-3.604,1.222
		c-1.816,0.817-3.131,2.064-3.947,3.742c-0.815,1.677-0.542,3.421,0.818,5.233c1.361,1.632,3.039,2.697,5.034,3.195
		c1.996,0.5,4.104,0.635,6.326,0.409s4.422-0.656,6.599-1.291c2.177-0.635,4.082-1.224,5.716-1.77
		c2.087-0.635,3.99-1.404,5.714-2.311s3.221-1.676,4.491-2.311c0.633-0.453,1.246-0.384,1.836,0.205
		c0.59,0.589,0.658,1.245,0.205,1.971c-0.273,0.725-0.886,1.27-1.838,1.631c-0.952,0.363-1.791,0.635-2.516,0.815
		c-3.721,1.815-7.621,3.491-11.702,5.031c-4.082,1.541-8.254,2.313-12.516,2.313c-1.906,0.09-3.721-0.228-5.444-0.952
		c-1.723-0.726-3.174-1.722-4.353-2.99c-1.18-1.27-1.973-2.788-2.381-4.557c-0.41-1.766-0.16-3.647,0.748-5.643v-0.135
		c-0.998,0.543-1.973,1.132-2.925,1.767c-0.953,0.635-1.928,1.179-2.925,1.631c-0.544,0.363-1.203,0.815-1.974,1.361
		c-0.77,0.543-1.52,0.724-2.245,0.543c-0.815,0-1.292-0.431-1.428-1.291C141.632,52.876,141.926,52.31,142.65,52.037z"/>
	<path fill="#F7941E" d="M190.678,52.18c1.087-0.543,2.471-1.247,4.149-2.109c1.678-0.861,3.469-1.701,5.375-2.516
		c1.905-0.815,3.742-1.587,5.512-2.313c1.769-0.726,3.241-1.315,4.421-1.769c0.636-0.272,1.769-0.68,3.402-1.224
		c1.631-0.545,3.355-1.043,5.17-1.497c1.814-0.454,3.514-0.771,5.103-0.952c1.586-0.181,2.743-0.046,3.469,0.408
		c1.088,0.998,1.292,1.904,0.612,2.722c-0.68,0.815-1.52,1.315-2.516,1.496l-6.123,0.68c-1.271,0.365-2.337,0.794-3.198,1.292
		c-0.862,0.5-1.837,1.112-2.924,1.836c-0.455,0.365-1.248,1.113-2.381,2.246c-1.134,1.134-2.245,2.358-3.333,3.673
		c-1.089,1.315-1.951,2.586-2.586,3.81c-0.635,1.224-0.635,2.108,0,2.653c0.545,0.454,1.428,0.545,2.654,0.271
		c1.223-0.271,2.471-0.68,3.741-1.224c1.271-0.544,2.45-1.112,3.538-1.701c1.088-0.591,1.813-1.021,2.178-1.294
		c2.629-1.631,4.761-3.354,6.395-5.169c0.816-0.907,1.699-1.021,2.652-0.34c0.953,0.68,1.248,1.61,0.884,2.79
		c-0.181,0.635-0.5,1.179-0.952,1.633c-0.455,0.454-0.885,0.885-1.293,1.292c-0.408,0.41-0.748,0.975-1.021,1.701
		c-0.363,0.635-0.453,1.111-0.272,1.429c0.181,0.317,0.499,0.522,0.953,0.612c1.271,0.182,2.856,0.091,4.763-0.272
		c1.905-0.363,3.878-0.861,5.919-1.498c2.04-0.635,4.058-1.382,6.053-2.244c1.995-0.861,3.719-1.655,5.171-2.381
		c0.361-0.091,0.861-0.338,1.496-0.749c0.635-0.407,1.293-0.747,1.973-1.021c0.68-0.271,1.338-0.407,1.973-0.407
		c0.636,0,1.088,0.272,1.361,0.815c0.361,0.545,0.338,1.043-0.069,1.496c-0.408,0.454-0.975,0.84-1.701,1.157
		c-0.725,0.317-1.451,0.613-2.176,0.885s-1.271,0.498-1.633,0.679c-1.542,0.728-3.083,1.429-4.625,2.109
		c-1.543,0.68-3.131,1.383-4.763,2.109c-1.089,0.454-2.268,0.998-3.538,1.632c-1.271,0.637-2.584,1.179-3.945,1.633
		c-1.36,0.452-2.745,0.77-4.151,0.952c-1.406,0.181-2.699,0.045-3.877-0.409c-1.543-0.635-2.451-1.519-2.722-2.653
		c-0.272-1.133-0.227-2.334,0.137-3.605l-3.673,2.178c-1.543,0.907-3.153,1.838-4.832,2.788c-1.678,0.952-3.424,1.519-5.238,1.701
		c-1.632,0.091-3.083-0.272-4.354-1.087c-1.271-0.817-1.951-2.086-2.041-3.81c0-0.907,0.363-2.064,1.088-3.469
		c0.726-1.406,1.655-2.858,2.791-4.355c1.133-1.496,2.381-2.879,3.742-4.148c1.36-1.271,2.629-2.223,3.809-2.858
		c-0.635,0.182-1.655,0.589-3.061,1.226c-1.406,0.635-2.994,1.406-4.762,2.313c-1.77,0.907-3.629,1.837-5.58,2.788
		c-1.951,0.954-3.741,1.837-5.373,2.655c-0.455,0.271-0.908,0.34-1.361,0.203c-0.453-0.135-0.793-0.363-1.021-0.68
		c-0.226-0.317-0.317-0.68-0.272-1.089C189.839,52.792,190.133,52.452,190.678,52.18z"/>
	<path fill="#F7941E" d="M290.135,21.838c2.087-2.358,3.813-4.671,5.173-6.938c0.451-0.635,0.905-1.427,1.36-2.379
		c0.451-0.954,0.725-1.883,0.814-2.792c-1,0.365-1.928,0.931-2.79,1.703c-0.861,0.77-1.655,1.519-2.38,2.245
		c-1.724,1.814-3.289,3.719-4.694,5.714c-1.406,1.996-2.744,4.037-4.013,6.123c-0.725,1.27-1.428,2.516-2.108,3.742
		c-0.68,1.224-1.384,2.471-2.11,3.74c1.906-1.722,3.765-3.491,5.58-5.306C286.78,25.876,288.503,23.925,290.135,21.838z
		 M250.133,76.942c2.631-2.902,5.058-6.077,7.28-9.523c2.222-3.447,4.331-6.938,6.327-10.477c-3.357,2.358-6.371,5.329-9.048,8.911
		C252.017,69.436,250.498,73.132,250.133,76.942z M250.951,52.079c3.99-1.813,7.844-3.899,11.563-6.258
		c3.719-2.358,7.303-4.854,10.75-7.485c1.723-3.263,3.423-6.576,5.102-9.932s3.517-6.621,5.512-9.796
		c0.725-1.361,1.564-2.834,2.516-4.422c0.951-1.585,2.041-3.084,3.266-4.489c1.224-1.406,2.562-2.585,4.012-3.537
		c1.45-0.954,3.086-1.431,4.9-1.431c1.903,0,3.059,0.5,3.467,1.498c0.41,0.998,0.41,2.155,0,3.47
		c-0.408,1.315-1.019,2.63-1.836,3.945c-0.815,1.316-1.495,2.29-2.041,2.925c-2.266,3.356-4.762,6.531-7.481,9.524
		c-2.72,2.993-5.625,5.804-8.708,8.436c-0.999,0.998-2.041,1.95-3.129,2.856c-1.09,0.908-2.133,1.815-3.129,2.721l-5.443,10.342
		c-0.092,2.63,0.429,4.443,1.564,5.441c1.133,1,2.743,1.361,4.83,1.089c1.27-0.271,2.493-0.61,3.673-1.021
		c1.178-0.408,2.358-0.838,3.539-1.292c0.815-0.361,1.767-0.93,2.856-1.699c1.088-0.771,2.086-1.157,2.994-1.157
		c0.815,0,1.336,0.431,1.563,1.292c0.225,0.861-0.068,1.473-0.884,1.836l-6.395,2.993c-1.906,0.726-3.992,1.429-6.259,2.109
		c-2.269,0.681-4.446,0.749-6.532,0.205c-1.724-0.636-3.129-1.858-4.217-3.675c-1.815,3.538-3.697,7.007-5.647,10.408
		c-1.951,3.402-3.968,6.781-6.054,10.137c-0.273,0.453-0.794,1.27-1.565,2.45c-0.771,1.178-1.588,2.267-2.449,3.265
		c-0.861,0.996-1.747,1.676-2.654,2.041c-0.906,0.363-1.678-0.046-2.313-1.226c-0.361-0.635-0.543-1.405-0.543-2.312
		c0-0.908,0.091-1.837,0.271-2.79c0.182-0.954,0.409-1.883,0.68-2.79c0.273-0.908,0.5-1.678,0.681-2.313
		c0.635-1.906,1.632-4.037,2.993-6.395c1.36-2.358,2.969-4.671,4.83-6.938c1.86-2.267,3.856-4.376,5.987-6.326
		c2.131-1.952,4.286-3.47,6.463-4.559c0.452-0.906,0.883-1.769,1.292-2.584c0.409-0.815,0.839-1.632,1.293-2.45l-5.714,3.945
		c-1.633,0.998-3.289,1.997-4.966,2.995c-1.679,0.998-3.379,1.95-5.103,2.856c-0.545,0.272-1.18,0.589-1.905,0.952
		c-0.726,0.365-1.361,0.365-1.904,0c-0.453-0.363-0.658-0.861-0.613-1.496C250.111,52.805,250.406,52.351,250.951,52.079z"/>
	<path fill="#F7941E" d="M333.13,12.995c-0.635,1.361-1.906,2.427-3.812,3.198c-1.904,0.77-3.581,1.384-5.033,1.836
		c-1.27,0.454-2.495,0.84-3.675,1.156c-1.181,0.317-2.402,0.658-3.672,1.021c-0.364,0.091-0.84,0.25-1.429,0.475
		c-0.591,0.228-1.225,0.433-1.904,0.614c-0.681,0.182-1.338,0.294-1.975,0.34c-0.635,0.044-1.135-0.068-1.496-0.34
		c-0.726-0.726-0.68-1.406,0.136-2.041s1.905-1.178,3.267-1.632c1.36-0.454,2.721-0.817,4.082-1.089
		c1.36-0.272,2.176-0.498,2.449-0.681c0.633-0.271,1.402-0.589,2.313-0.952c0.905-0.361,1.791-0.77,2.651-1.224
		c0.861-0.454,1.655-0.907,2.382-1.361c0.726-0.454,1.18-0.907,1.36-1.361c0.271-0.726,0.726-1.155,1.36-1.292
		s1.225-0.091,1.77,0.135c0.545,0.227,0.975,0.635,1.291,1.224C333.514,11.612,333.491,12.27,333.13,12.995z M302.381,48.233
		c2.177-0.089,4.284-0.633,6.325-1.631s3.831-2.269,5.374-3.81c-1.27-0.454-2.52-0.589-3.74-0.409
		c-1.226,0.182-2.359,0.545-3.401,1.089c-1.045,0.545-1.976,1.249-2.79,2.109C303.332,46.442,302.742,47.328,302.381,48.233z
		 M288.501,52.044c1.633-0.817,3.333-1.723,5.103-2.721c1.77-0.998,3.56-1.86,5.376-2.586c1.177-2.087,2.856-3.786,5.032-5.103
		c2.178-1.315,4.489-2.199,6.938-2.653c1.271-0.181,2.743-0.181,4.423,0c1.676,0.183,2.972,0.863,3.877,2.041
		c0.635,0.726,0.794,1.498,0.475,2.313c-0.315,0.817-0.859,1.588-1.631,2.314c-0.771,0.724-1.634,1.382-2.584,1.973
		c-0.954,0.589-1.657,1.021-2.109,1.291c-1.635,1-3.425,1.748-5.375,2.246c-1.951,0.5-3.922,0.658-5.918,0.475h-0.545
		c0.363,1.996,1.18,3.539,2.449,4.627s2.768,1.883,4.489,2.381c1.726,0.5,3.516,0.703,5.376,0.612
		c1.86-0.089,3.56-0.272,5.103-0.545c2.176-0.452,4.307-1.021,6.394-1.701c2.086-0.68,4.127-1.473,6.123-2.379
		c0.904-0.454,1.836-0.884,2.789-1.292c0.951-0.409,1.836-0.838,2.653-1.292c0.635-0.181,1.292-0.091,1.973,0.272
		s0.749,0.952,0.205,1.769c-0.454,0.725-1.089,1.224-1.904,1.496c-0.819,0.271-1.545,0.545-2.178,0.815l-6.804,2.993
		c-4.173,1.634-8.301,2.995-12.383,4.082c-1.814,0.363-3.65,0.477-5.508,0.342c-1.86-0.135-3.585-0.545-5.172-1.226
		c-1.586-0.681-3.015-1.655-4.286-2.925c-1.271-1.271-2.176-2.902-2.721-4.897c-0.181-0.726-0.341-1.454-0.478-2.178
		c-0.133-0.726-0.113-1.406,0.07-2.041c-0.999,0.454-1.975,0.975-2.925,1.564c-0.954,0.591-1.792,1.112-2.517,1.564
		c-0.455,0.183-1.045,0.522-1.771,1.022c-0.726,0.5-1.452,0.522-2.178,0.068c-0.543-0.363-0.793-0.863-0.747-1.498
		C287.662,52.632,287.957,52.225,288.501,52.044z"/>
	<path d="M218.542,193.005h7.008v0.56c0,1.273-0.15,2.399-0.45,3.381c-0.293,0.906-0.788,1.756-1.482,2.546
		c-1.575,1.771-3.578,2.656-6.008,2.656c-2.373,0-4.404-0.856-6.096-2.57c-1.692-1.719-2.539-3.784-2.539-6.193
		c0-2.459,0.861-4.546,2.583-6.26c1.721-1.719,3.815-2.579,6.283-2.579c1.326,0,2.563,0.269,3.712,0.807
		c1.099,0.539,2.178,1.415,3.24,2.627l-1.824,1.747c-1.391-1.853-3.085-2.778-5.085-2.778c-1.793,0-3.297,0.618-4.513,1.855
		c-1.216,1.216-1.823,2.739-1.823,4.57c0,1.89,0.678,3.445,2.032,4.668c1.267,1.136,2.64,1.704,4.119,1.704
		c1.259,0,2.39-0.424,3.394-1.271c1.003-0.854,1.563-1.875,1.68-3.066h-4.229V193.005z"/>
	<polygon points="240.37,187.266 233.571,187.266 233.571,191.347 240.172,191.347 240.172,193.749 233.571,193.749 
		233.571,199.426 240.37,199.426 240.37,201.828 231.02,201.828 231.02,184.863 240.37,184.863 	"/>
	<polygon points="246.814,184.863 251.229,196.196 255.841,184.055 260.256,196.196 264.946,184.863 267.725,184.863 260.146,202.9 
		255.787,190.884 251.24,202.912 244.036,184.863 	"/>
	<path d="M273.047,193.291c0,1.874,0.63,3.413,1.89,4.621c1.251,1.208,2.697,1.812,4.337,1.812c1.78,0,3.28-0.613,4.503-1.844
		c1.223-1.244,1.834-2.759,1.834-4.545c0-1.808-0.605-3.321-1.813-4.544c-1.201-1.229-2.688-1.844-4.46-1.844
		c-1.764,0-3.253,0.615-4.469,1.844C273.654,190.005,273.047,191.506,273.047,193.291z M270.475,193.264
		c0-2.388,0.874-4.436,2.622-6.149c1.741-1.714,3.833-2.569,6.276-2.569c2.414,0,4.484,0.862,6.21,2.591
		c1.733,1.729,2.601,3.804,2.601,6.228c0,2.438-0.871,4.505-2.611,6.202c-1.749,1.708-3.86,2.561-6.332,2.561
		c-2.188,0-4.152-0.759-5.893-2.273C271.432,198.176,270.475,195.979,270.475,193.264z"/>
	<path d="M295.396,193.291c0,1.874,0.63,3.413,1.89,4.621c1.252,1.208,2.697,1.812,4.338,1.812c1.78,0,3.279-0.613,4.502-1.844
		c1.224-1.244,1.836-2.759,1.836-4.545c0-1.808-0.605-3.321-1.813-4.544c-1.201-1.229-2.686-1.844-4.46-1.844
		c-1.764,0-3.253,0.615-4.469,1.844C296.003,190.005,295.396,191.506,295.396,193.291z M292.824,193.264
		c0-2.388,0.874-4.436,2.62-6.149c1.741-1.714,3.835-2.569,6.277-2.569c2.412,0,4.482,0.862,6.21,2.591
		c1.733,1.729,2.601,3.804,2.601,6.228c0,2.438-0.869,4.505-2.61,6.202c-1.748,1.708-3.859,2.561-6.332,2.561
		c-2.188,0-4.151-0.759-5.892-2.273C293.781,198.176,292.824,195.979,292.824,193.264z"/>
	<polygon points="316.022,201.828 316.022,183.715 328.374,196.647 328.374,184.863 330.926,184.863 330.926,202.87 
		318.572,189.956 318.572,201.828 	"/>
	<path fill="#F7941E" d="M343.748,189.624c0.938,0,1.743,0.352,2.419,1.055c0.681,0.695,1.022,1.528,1.022,2.502
		c0,0.994-0.342,1.836-1.022,2.524c-0.683,0.693-1.507,1.042-2.474,1.042c-0.954,0-1.777-0.349-2.475-1.042
		c-0.684-0.703-1.023-1.541-1.023-2.513c0-0.995,0.344-1.838,1.033-2.526C341.926,189.973,342.766,189.624,343.748,189.624z"/>
	<path d="M365.186,193.005h7.007v0.56c0,1.273-0.149,2.399-0.449,3.381c-0.293,0.906-0.788,1.756-1.483,2.546
		c-1.573,1.771-3.575,2.656-6.007,2.656c-2.373,0-4.404-0.856-6.096-2.57c-1.694-1.719-2.54-3.784-2.54-6.193
		c0-2.459,0.862-4.546,2.584-6.26c1.721-1.719,3.815-2.579,6.283-2.579c1.324,0,2.562,0.269,3.711,0.807
		c1.1,0.539,2.178,1.415,3.242,2.627l-1.826,1.747c-1.391-1.853-3.085-2.778-5.085-2.778c-1.794,0-3.298,0.618-4.514,1.855
		c-1.216,1.216-1.823,2.739-1.823,4.57c0,1.89,0.68,3.445,2.033,4.668c1.267,1.136,2.641,1.704,4.118,1.704
		c1.26,0,2.39-0.424,3.394-1.271c1.004-0.854,1.563-1.875,1.68-3.066h-4.229V193.005z"/>
	<path d="M379.386,193.291c0,1.874,0.629,3.413,1.889,4.621c1.253,1.208,2.698,1.812,4.339,1.812c1.779,0,3.278-0.613,4.502-1.844
		c1.224-1.244,1.834-2.759,1.834-4.545c0-1.808-0.604-3.321-1.812-4.544c-1.201-1.229-2.687-1.844-4.459-1.844
		c-1.765,0-3.256,0.615-4.47,1.844C379.993,190.005,379.386,191.506,379.386,193.291z M376.813,193.264
		c0-2.388,0.874-4.436,2.622-6.149c1.742-1.714,3.833-2.569,6.276-2.569c2.414,0,4.482,0.862,6.211,2.591
		c1.731,1.729,2.601,3.804,2.601,6.228c0,2.438-0.87,4.505-2.61,6.202c-1.75,1.708-3.859,2.561-6.331,2.561
		c-2.188,0-4.154-0.759-5.894-2.273C377.771,198.176,376.813,195.979,376.813,193.264z"/>
	<polygon points="409.363,187.266 402.563,187.266 402.563,191.347 409.165,191.347 409.165,193.749 402.563,193.749 
		402.563,199.426 409.363,199.426 409.363,201.828 400.013,201.828 400.013,184.863 409.363,184.863 	"/>
	<path d="M417.53,199.426h1.154c1.149,0,2.104-0.12,2.866-0.363c0.762-0.257,1.448-0.662,2.063-1.221
		c1.26-1.15,1.889-2.649,1.889-4.497c0-1.861-0.622-3.372-1.865-4.529c-1.12-1.033-2.771-1.55-4.953-1.55h-1.154V199.426z
		 M414.98,201.828v-16.965h3.553c1.702,0,3.05,0.168,4.036,0.505c1.062,0.329,2.021,0.891,2.885,1.682
		c1.748,1.598,2.622,3.696,2.622,6.295c0,2.609-0.91,4.717-2.733,6.33c-0.913,0.806-1.87,1.367-2.871,1.68
		c-0.936,0.317-2.266,0.474-3.98,0.474H414.98z"/>
	<path fill="#F7941E" d="M440.047,189.624c0.939,0,1.746,0.352,2.42,1.055c0.683,0.695,1.024,1.528,1.024,2.502
		c0,0.994-0.342,1.836-1.024,2.524c-0.682,0.693-1.505,1.042-2.474,1.042c-0.952,0-1.779-0.349-2.474-1.042
		c-0.683-0.703-1.024-1.541-1.024-2.513c0-0.995,0.346-1.838,1.035-2.526C438.226,189.973,439.065,189.624,440.047,189.624z"/>
	<path d="M461.487,193.005h7.007v0.56c0,1.273-0.149,2.399-0.449,3.381c-0.293,0.906-0.788,1.756-1.482,2.546
		c-1.574,1.771-3.578,2.656-6.008,2.656c-2.373,0-4.404-0.856-6.097-2.57c-1.693-1.719-2.539-3.784-2.539-6.193
		c0-2.459,0.862-4.546,2.584-6.26c1.721-1.719,3.815-2.579,6.283-2.579c1.324,0,2.562,0.269,3.711,0.807
		c1.1,0.539,2.178,1.415,3.242,2.627l-1.826,1.747c-1.391-1.853-3.085-2.778-5.085-2.778c-1.794,0-3.298,0.618-4.514,1.855
		c-1.216,1.216-1.822,2.739-1.822,4.57c0,1.89,0.679,3.445,2.031,4.668c1.268,1.136,2.642,1.704,4.119,1.704
		c1.26,0,2.39-0.424,3.394-1.271c1.004-0.854,1.563-1.875,1.68-3.066h-4.229V193.005z"/>
	<polygon points="483.315,187.266 476.517,187.266 476.517,191.347 483.116,191.347 483.116,193.749 476.517,193.749 
		476.517,199.426 483.315,199.426 483.315,201.828 473.966,201.828 473.966,184.863 483.315,184.863 	"/>
	<polygon points="491.856,199.426 499.995,199.426 499.995,201.828 487.651,201.828 495.975,187.266 489.012,187.266 
		489.012,184.863 500.182,184.863 	"/>
	<polygon points="514.591,187.266 507.793,187.266 507.793,191.347 514.395,191.347 514.395,193.749 507.793,193.749 
		507.793,199.426 514.591,199.426 514.591,201.828 505.242,201.828 505.242,184.863 514.591,184.863 	"/>
	<polygon points="522.762,184.863 522.762,199.426 527.749,199.426 527.749,201.828 520.21,201.828 520.21,184.863 	"/>
	<polygon points="534.983,184.863 534.983,199.426 539.971,199.426 539.971,201.828 532.433,201.828 532.433,184.863 	"/>
	<rect x="544.656" y="184.863" width="2.551" height="16.965"/>
	<path d="M562.256,193.005h7.007v0.56c0,1.273-0.15,2.399-0.449,3.381c-0.293,0.906-0.788,1.756-1.484,2.546
		c-1.574,1.771-3.576,2.656-6.006,2.656c-2.373,0-4.404-0.856-6.098-2.57c-1.692-1.719-2.539-3.784-2.539-6.193
		c0-2.459,0.863-4.546,2.585-6.26c1.719-1.719,3.813-2.579,6.281-2.579c1.326,0,2.563,0.269,3.712,0.807
		c1.098,0.539,2.18,1.415,3.239,2.627l-1.823,1.747c-1.39-1.853-3.086-2.778-5.084-2.778c-1.794,0-3.298,0.618-4.514,1.855
		c-1.216,1.216-1.823,2.739-1.823,4.57c0,1.89,0.678,3.445,2.031,4.668c1.267,1.136,2.641,1.704,4.12,1.704
		c1.258,0,2.389-0.424,3.394-1.271c1.002-0.854,1.561-1.875,1.681-3.066h-4.229V193.005z"/>
</g>
</svg>
