<?xml version="1.0" encoding="utf-8"?>
<!-- Generator: Adobe Illustrator 14.0.0, SVG Export Plug-In . SVG Version: 6.00 Build 43363)  -->
<!DOCTYPE svg PUBLIC "-//W3C//DTD SVG 1.1//EN" "http://www.w3.org/Graphics/SVG/1.1/DTD/svg11.dtd">
<svg version="1.1" id="Layer_1" xmlns="http://www.w3.org/2000/svg" xmlns:xlink="http://www.w3.org/1999/xlink" x="0px" y="0px"
	 width="720px" height="209px" viewBox="0 0 720 209" enable-background="new 0 0 720 209" xml:space="preserve">
<g>
	<defs>
		<rect id="SVGID_1_" x="-60.445" y="-193.138" width="841.89" height="595.276"/>
	</defs>
	<clipPath id="SVGID_2_">
		<use xlink:href="#SVGID_1_"  overflow="visible"/>
	</clipPath>
	<path clip-path="url(#SVGID_2_)" d="M213.599,195.309h6.849v0.548c0,1.245-0.147,2.348-0.441,3.306
		c-0.286,0.888-0.769,1.718-1.449,2.491c-1.539,1.731-3.496,2.597-5.872,2.597c-2.318,0-4.304-0.838-5.957-2.511
		c-1.653-1.682-2.48-3.701-2.48-6.055c0-2.404,0.841-4.444,2.523-6.118c1.681-1.682,3.728-2.524,6.14-2.524
		c1.295,0,2.504,0.267,3.628,0.796c1.074,0.529,2.129,1.389,3.167,2.575l-1.782,1.707c-1.36-1.81-3.016-2.715-4.97-2.715
		c-1.753,0-3.224,0.604-4.412,1.813c-1.188,1.188-1.782,2.677-1.782,4.466c0,1.847,0.662,3.367,1.986,4.562
		c1.238,1.11,2.58,1.664,4.025,1.664c1.231,0,2.337-0.415,3.317-1.246c0.981-0.836,1.528-1.838,1.643-3.004h-4.133V195.309z"/>
	<polygon clip-path="url(#SVGID_2_)" points="234.937,189.716 228.292,189.716 228.292,193.698 234.744,193.698 234.744,196.05 
		228.292,196.05 228.292,201.589 234.937,201.589 234.937,203.939 225.791,203.939 225.791,187.364 234.937,187.364 	"/>
	<polygon clip-path="url(#SVGID_2_)" points="241.235,187.365 245.55,198.443 250.06,186.56 254.375,198.443 258.958,187.365 
		261.673,187.365 254.268,204.991 250.005,193.248 245.562,205.002 238.52,187.365 	"/>
	<path clip-path="url(#SVGID_2_)" d="M264.355,195.577c0-2.333,0.855-4.337,2.566-6.011c1.703-1.675,3.749-2.514,6.14-2.514
		c2.361,0,4.387,0.846,6.076,2.535c1.696,1.688,2.544,3.718,2.544,6.085c0,2.384-0.852,4.406-2.555,6.066
		c-1.71,1.667-3.775,2.501-6.194,2.501c-2.14,0-4.061-0.741-5.764-2.223C265.293,200.379,264.355,198.232,264.355,195.577
		 M266.878,195.609c0,1.832,0.615,3.339,1.846,4.52c1.224,1.181,2.637,1.771,4.24,1.771c1.739,0,3.206-0.602,4.401-1.803
		c1.196-1.217,1.793-2.698,1.793-4.444c0-1.769-0.591-3.249-1.771-4.444c-1.174-1.203-2.627-1.803-4.358-1.803
		c-1.725,0-3.181,0.6-4.369,1.803C267.472,192.396,266.878,193.863,266.878,195.609"/>
	<path clip-path="url(#SVGID_2_)" d="M286.198,195.577c0-2.333,0.855-4.337,2.565-6.011c1.703-1.675,3.75-2.514,6.141-2.514
		c2.361,0,4.386,0.846,6.075,2.535c1.696,1.688,2.544,3.718,2.544,6.085c0,2.384-0.852,4.406-2.555,6.066
		c-1.71,1.667-3.774,2.501-6.193,2.501c-2.14,0-4.062-0.741-5.765-2.223C287.135,200.379,286.198,198.232,286.198,195.577
		 M288.72,195.609c0,1.832,0.615,3.339,1.847,4.52c1.223,1.181,2.636,1.771,4.24,1.771c1.739,0,3.206-0.602,4.401-1.803
		c1.195-1.217,1.792-2.698,1.792-4.444c0-1.769-0.59-3.249-1.77-4.444c-1.174-1.203-2.627-1.803-4.359-1.803
		c-1.724,0-3.181,0.6-4.369,1.803C289.314,192.396,288.72,193.863,288.72,195.609"/>
	<polygon clip-path="url(#SVGID_2_)" points="308.868,203.939 308.868,186.238 320.955,198.883 320.955,187.365 323.456,187.365 
		323.456,204.948 311.369,192.335 311.369,203.939 	"/>
	<path clip-path="url(#SVGID_2_)" fill="#F39200" d="M335.98,192.003c0.916,0,1.703,0.344,2.361,1.03
		c0.666,0.68,0.998,1.495,0.998,2.447c0,0.974-0.332,1.796-0.998,2.468c-0.665,0.682-1.47,1.021-2.415,1.021
		c-0.93,0-1.735-0.34-2.415-1.021c-0.666-0.686-0.999-1.506-0.999-2.458c0-0.972,0.337-1.796,1.01-2.468
		C334.202,192.343,335.021,192.003,335.98,192.003"/>
	<path clip-path="url(#SVGID_2_)" d="M356.92,195.309h6.849v0.548c0,1.245-0.147,2.348-0.44,3.306
		c-0.287,0.888-0.769,1.718-1.448,2.491c-1.54,1.731-3.497,2.597-5.873,2.597c-2.318,0-4.305-0.838-5.958-2.511
		c-1.652-1.682-2.48-3.701-2.48-6.055c0-2.404,0.841-4.444,2.523-6.118c1.681-1.682,3.728-2.524,6.14-2.524
		c1.295,0,2.505,0.267,3.628,0.796c1.074,0.529,2.129,1.389,3.167,2.575l-1.782,1.707c-1.359-1.81-3.016-2.715-4.97-2.715
		c-1.753,0-3.224,0.604-4.412,1.813c-1.188,1.188-1.782,2.677-1.782,4.466c0,1.847,0.662,3.367,1.986,4.562
		c1.239,1.11,2.581,1.664,4.026,1.664c1.23,0,2.336-0.415,3.316-1.246c0.981-0.836,1.529-1.838,1.644-3.004h-4.133V195.309z"/>
	<path clip-path="url(#SVGID_2_)" d="M368.287,195.577c0-2.333,0.854-4.337,2.565-6.011c1.702-1.675,3.75-2.514,6.141-2.514
		c2.361,0,4.386,0.846,6.075,2.535c1.695,1.688,2.544,3.718,2.544,6.085c0,2.384-0.853,4.406-2.556,6.066
		c-1.71,1.667-3.773,2.501-6.192,2.501c-2.141,0-4.063-0.741-5.766-2.223C369.224,200.379,368.287,198.232,368.287,195.577
		 M370.809,195.609c0,1.832,0.615,3.339,1.848,4.52c1.223,1.181,2.636,1.771,4.24,1.771c1.738,0,3.206-0.602,4.4-1.803
		c1.195-1.217,1.792-2.698,1.792-4.444c0-1.769-0.59-3.249-1.77-4.444c-1.174-1.203-2.627-1.803-4.359-1.803
		c-1.724,0-3.181,0.6-4.369,1.803C371.403,192.396,370.809,193.863,370.809,195.609"/>
	<polygon clip-path="url(#SVGID_2_)" points="400.103,189.716 393.457,189.716 393.457,193.698 399.909,193.698 399.909,196.05 
		393.457,196.05 393.457,201.589 400.103,201.589 400.103,203.939 390.956,203.939 390.956,187.364 400.103,187.364 	"/>
	<path clip-path="url(#SVGID_2_)" d="M405.585,203.939v-16.575h3.479c1.667,0,2.983,0.165,3.95,0.495
		c1.038,0.322,1.978,0.869,2.822,1.643c1.71,1.56,2.565,3.609,2.565,6.149c0,2.548-0.89,4.609-2.672,6.185
		c-0.896,0.787-1.832,1.334-2.813,1.642c-0.916,0.309-2.215,0.462-3.896,0.462H405.585z M408.086,201.589h1.127
		c1.123,0,2.059-0.118,2.803-0.354c0.744-0.25,1.417-0.647,2.017-1.191c1.232-1.124,1.847-2.587,1.847-4.392
		c0-1.816-0.607-3.292-1.824-4.422c-1.096-1.009-2.708-1.514-4.842-1.514h-1.127V201.589z"/>
	<path clip-path="url(#SVGID_2_)" fill="#F39200" d="M430.1,192.003c0.916,0,1.703,0.344,2.361,1.03
		c0.666,0.68,0.998,1.495,0.998,2.447c0,0.974-0.332,1.796-0.998,2.468c-0.665,0.682-1.47,1.021-2.415,1.021
		c-0.93,0-1.734-0.34-2.415-1.021c-0.666-0.686-0.999-1.506-0.999-2.458c0-0.972,0.337-1.796,1.01-2.468
		C428.322,192.343,429.141,192.003,430.1,192.003"/>
	<path clip-path="url(#SVGID_2_)" d="M451.041,195.309h6.849v0.548c0,1.245-0.147,2.348-0.44,3.306
		c-0.287,0.888-0.769,1.718-1.448,2.491c-1.539,1.731-3.496,2.597-5.872,2.597c-2.318,0-4.306-0.838-5.958-2.511
		c-1.652-1.682-2.48-3.701-2.48-6.055c0-2.404,0.841-4.444,2.523-6.118c1.681-1.682,3.728-2.524,6.14-2.524
		c1.295,0,2.505,0.267,3.628,0.796c1.074,0.529,2.129,1.389,3.167,2.575l-1.782,1.707c-1.358-1.81-3.016-2.715-4.97-2.715
		c-1.753,0-3.224,0.604-4.412,1.813c-1.188,1.188-1.782,2.677-1.782,4.466c0,1.847,0.662,3.367,1.986,4.562
		c1.239,1.11,2.581,1.664,4.026,1.664c1.229,0,2.336-0.415,3.315-1.246c0.981-0.836,1.529-1.838,1.644-3.004h-4.133V195.309z"/>
	<polygon clip-path="url(#SVGID_2_)" points="472.379,189.716 465.734,189.716 465.734,193.698 472.187,193.698 472.187,196.05 
		465.734,196.05 465.734,201.589 472.379,201.589 472.379,203.939 463.233,203.939 463.233,187.364 472.379,187.364 	"/>
	<path clip-path="url(#SVGID_2_)" d="M483.476,196.875l5.132,7.064h-3.059l-4.735-6.784h-0.45v6.784h-2.501v-16.574h2.931
		c2.189,0,3.771,0.412,4.745,1.234c1.072,0.916,1.609,2.126,1.609,3.629c0,1.174-0.337,2.183-1.01,3.026
		C485.467,196.1,484.579,196.64,483.476,196.875 M480.363,194.977h0.795c2.368,0,3.554-0.905,3.554-2.716
		c0-1.696-1.153-2.545-3.457-2.545h-0.892V194.977z"/>
	<polygon clip-path="url(#SVGID_2_)" points="502.441,189.716 495.797,189.716 495.797,193.698 502.249,193.698 502.249,196.05 
		495.797,196.05 495.797,201.589 502.441,201.589 502.441,203.939 493.296,203.939 493.296,187.364 502.441,187.364 	"/>
	<path clip-path="url(#SVGID_2_)" d="M516.447,195.309h6.85v0.548c0,1.245-0.147,2.348-0.44,3.306
		c-0.287,0.888-0.769,1.718-1.448,2.491c-1.539,1.731-3.496,2.597-5.872,2.597c-2.318,0-4.306-0.838-5.958-2.511
		c-1.652-1.682-2.48-3.701-2.48-6.055c0-2.404,0.841-4.444,2.523-6.118c1.681-1.682,3.728-2.524,6.14-2.524
		c1.295,0,2.505,0.267,3.628,0.796c1.074,0.529,2.129,1.389,3.167,2.575l-1.782,1.707c-1.358-1.81-3.016-2.715-4.97-2.715
		c-1.753,0-3.224,0.604-4.412,1.813c-1.188,1.188-1.782,2.677-1.782,4.466c0,1.847,0.662,3.367,1.986,4.562
		c1.239,1.11,2.581,1.664,4.026,1.664c1.229,0,2.336-0.415,3.315-1.246c0.981-0.836,1.529-1.838,1.644-3.004h-4.134V195.309z"/>
	<polygon clip-path="url(#SVGID_2_)" points="537.786,189.716 531.142,189.716 531.142,193.698 537.594,193.698 537.594,196.05 
		531.142,196.05 531.142,201.589 537.786,201.589 537.786,203.939 528.641,203.939 528.641,187.364 537.786,187.364 	"/>
	<polygon clip-path="url(#SVGID_2_)" points="545.771,187.365 545.771,201.589 550.644,201.589 550.644,203.939 543.27,203.939 
		543.27,187.365 	"/>
	<path clip-path="url(#SVGID_2_)" d="M555.215,203.939v-16.575h3.479c1.667,0,2.984,0.165,3.95,0.495
		c1.038,0.322,1.978,0.869,2.822,1.643c1.71,1.56,2.565,3.609,2.565,6.149c0,2.548-0.89,4.609-2.672,6.185
		c-0.896,0.787-1.832,1.334-2.813,1.642c-0.916,0.309-2.215,0.462-3.896,0.462H555.215z M557.716,201.589h1.127
		c1.123,0,2.059-0.118,2.803-0.354c0.744-0.25,1.417-0.647,2.017-1.191c1.232-1.124,1.847-2.587,1.847-4.392
		c0-1.816-0.607-3.292-1.824-4.422c-1.096-1.009-2.708-1.514-4.842-1.514h-1.127V201.589z"/>
	<path clip-path="url(#SVGID_2_)" fill="#F39200" d="M239.755,24.24c0.525,0.383,1.067,0.574,1.597,0.574
		c0.534,0,1.056-0.194,1.538-0.58c0.678-0.509,1.192-1.192,1.528-2.031c0.224-0.561,0.611-1,1.22-1.367
		c1.656-1.125,3.556-1.746,5.648-1.846c2.168-0.104,4.279,0.053,6.278,0.466c0.587,0.117,1.142-0.033,1.603-0.438
		c0.41-0.36,0.671-0.805,0.786-1.391c0.109-1.001-0.357-1.741-1.248-1.981c-0.574-0.152-1.105-0.232-1.579-0.238
		c-2.514-0.355-5.098-0.462-7.752-0.312c-0.95,0.147-1.958,0.349-2.999,0.6c-1.079,0.261-2.114,0.619-3.075,1.062
		c-0.987,0.456-1.896,1.055-2.699,1.781c-0.832,0.754-1.455,1.659-1.852,2.69l-0.011,0.031
		C238.349,22.424,238.711,23.482,239.755,24.24"/>
	<path clip-path="url(#SVGID_2_)" fill="#F39200" d="M334.626,47.704c-0.325-0.243-0.884-0.489-1.699-0.287
		c-0.492,0.124-0.989,0.33-1.477,0.615c-0.457,0.266-0.881,0.556-1.264,0.862c-0.336,0.268-0.603,0.47-0.767,0.58
		c-2.448,1.44-4.783,3.101-6.941,4.935c-1.17,0.994-2.314,2.021-3.424,3.071l0.004-0.007c0.278-0.632,0.647-1.404,1.105-2.317
		c0.739-1.476,0.349-2.566-0.108-3.222l-0.128-0.14c-0.855-0.733-1.614-0.755-2.098-0.642c-0.519,0.119-1.081,0.331-1.715,0.648
		l-1.923,0.961c-0.651,0.326-1.421,0.593-2.303,0.797c-1.041,0.26-2.33,0.291-3.83,0.092c-1.346-0.18-2.222-0.74-2.687-1.729
		c-0.266-0.531-0.322-1.007-0.171-1.457c0.174-0.526,0.49-1.019,0.939-1.468c0.499-0.499,1.053-0.952,1.647-1.348
		c0.594-0.396,1.154-0.693,1.689-0.893c1.626-0.677,3.362-1.09,5.161-1.226c1.839-0.138,3.687-0.138,5.551,0.002
		c1.116,0,2.004-0.496,2.565-1.432l0.058-0.117c0.593-1.541,0.163-2.372-0.301-2.798c-0.569-0.521-1.35-0.784-2.322-0.784
		c-2.17,0-4.281,0.183-6.276,0.546c-1.993,0.363-4.026,0.913-6.062,1.639c-1.867,0.719-3.719,1.517-5.501,2.374
		c-1.556,0.746-3.149,1.532-4.758,2.332c-0.313,0.054-0.651,0.148-1.053,0.333c-0.47,0.217-0.958,0.453-1.463,0.705
		c-0.517,0.259-1.021,0.539-1.499,0.832c-0.441,0.272-0.795,0.475-1.03,0.594l-4.356,1.913c-0.361,0.144-0.879,0.359-1.562,0.645
		c-0.653,0.276-1.353,0.539-2.081,0.781c-0.709,0.237-1.431,0.426-2.147,0.563c-0.222,0.042-0.43,0.07-0.623,0.084
		c0.03-0.048,0.064-0.098,0.099-0.149c0.306-0.442,0.651-0.89,1.025-1.332c0.371-0.439,0.734-0.836,1.079-1.182
		c0.389-0.389,0.664-0.705,0.79-0.9c0.764-0.903,1.527-1.754,2.266-2.53c0.779-0.816,1.509-1.753,2.164-2.772
		c0.65-0.976,0.98-1.924,0.98-2.819c0-0.923-0.257-1.696-0.766-2.301c-0.494-0.581-1.181-0.986-2.046-1.203
		c-0.829-0.205-1.772-0.188-2.842,0.06c-2.537,0.725-5.07,1.789-7.53,3.163c-2.411,1.348-4.778,2.639-6.997,3.819l-2.777,1.281
		c-0.299,0.138-0.601,0.285-0.902,0.439l0.423-0.989c0.193-0.513,0.506-1.088,0.932-1.709c0.601-0.879,0.72-1.841,0.328-2.821
		c-0.406-0.88-1.436-1.817-4.037-1.274c-1.756,0.367-3.696,1.032-5.766,1.974c-2.03,0.927-4.039,1.922-5.971,2.959
		c-1.62,0.871-11.767,5.803-11.961,5.881c-1.195,0.422-2.529,0.848-3.965,1.269c-1.22,0.357-2.351,0.503-3.365,0.434
		c-0.341-0.624-0.367-1.409-0.083-2.39c0.377-1.306,0.777-2.421,1.219-3.388c0.19-0.569,0.496-1.147,0.911-1.721
		c0.519-0.719,0.866-1.459,1.037-2.223c0.407-2.167-0.775-2.709-1.304-2.842c-0.823-0.204-1.799-0.188-2.901,0.048
		c-1.039,0.222-2.107,0.559-3.174,1.002c-1.052,0.435-1.713,0.721-2.019,0.874c0,0-14.435,6.853-15.341,7.323
		c-0.865,0.451-1.726,0.855-2.542,1.195c-2.513,0.979-4.556,1.689-6.071,2.112c-0.849,0.237-1.365,0.295-1.667,0.295
		c-0.328,0-0.39-0.053-0.385-0.052l-0.084-0.086c-0.398-0.347-0.571-0.801-0.544-1.433c0.031-0.774,0.197-1.6,0.493-2.455
		c0.309-0.891,0.689-1.773,1.132-2.623c0.452-0.87,0.856-1.589,1.193-2.129c0.79-1.229,0.948-2.341,0.467-3.306
		c-0.377-0.751-1.265-1.502-3.364-0.802l-0.154,0.072c-1.238,0.757-2.676,1.476-4.274,2.136c-1.517,0.627-2.977,0.879-4.413,0.744
		c-0.048,0-0.096-0.001-0.143-0.002c0.452-0.416,0.846-0.875,1.177-1.37c0.706-0.972,0.89-2.056,0.532-3.135
		c-0.262-0.784-0.913-1.767-2.599-2.007c-1.737-0.084-3.192,0.588-4.307,1.992c-0.968,1.219-1.444,2.527-1.418,3.895
		c-1.523,0.884-2.978,1.699-4.33,2.425c-1.456,0.782-4.847,2.631-5.007,2.816c-0.36,0.177-2.641,1.195-3.332,1.541
		c-1.526,0.694-3.117,1.313-4.728,1.839c-1.61,0.524-3.272,0.966-4.917,1.309c-1.184,0.209-2.499,0.349-3.911,0.417
		c-1.37,0.067-2.707-0.084-3.974-0.452c-1.242-0.359-2.333-0.936-3.245-1.719c-0.668-0.572-1.146-1.321-1.447-2.272
		c1.44,0.072,2.884-0.074,4.296-0.436c1.596-0.408,3.085-1.03,4.419-1.846c0.357-0.215,0.913-0.554,1.664-1.02
		c0.787-0.487,1.51-1.039,2.148-1.64c0.682-0.642,1.175-1.345,1.467-2.09c0.245-0.631,0.355-1.59-0.479-2.545
		c-0.839-1.088-2.035-1.724-3.557-1.89c-1.374-0.147-2.604-0.147-3.689,0.008c-2.002,0.372-3.918,1.105-5.698,2.179
		c-1.733,1.048-3.106,2.409-4.083,4.047c-1.37,0.561-2.737,1.225-4.067,1.976c-1.341,0.756-4.854,2.298-5.216,2.421
		c-1.613,0.702-3.249,1.341-4.861,1.902l-4.868,1.694c-1.286,0.359-2.805,0.805-4.557,1.34c-1.451,0.445-2.816,0.559-4.063,0.338
		c0.01-0.087,0.028-0.197,0.054-0.335c0.137-0.725,0.33-1.53,0.573-2.394c0.244-0.873,0.509-1.741,0.79-2.582
		c0.374-1.126,0.526-1.382,0.552-1.422l0.06-0.107c0.353-0.778,0.707-1.539,1.062-2.283c0.321-0.674,0.709-1.343,1.156-1.992
		c0.972-0.765,1.919-1.537,2.817-2.297c0.893-0.756,1.747-1.506,2.542-2.232l1.232-0.266c3.406-0.426,6.941-0.967,10.506-1.608
		c3.587-0.647,7.075-1.555,10.383-2.706c0.774-0.291,1.334-0.872,1.618-1.68c0.298-0.841,0.15-1.692-0.427-2.463
		c-0.765-1.019-1.615-1.098-2.188-0.979c-0.586,0.116-1.157,0.294-1.619,0.498l-10.53,3.192l-3.903,0.926
		c0.65-0.715,1.291-1.438,1.919-2.161c1.181-1.358,2.324-2.774,3.384-4.189c0.839-1.049,1.87-2.24,3.064-3.539
		c1.289-1.403,2.138-2.895,2.508-4.382c0.283-0.845,0.183-1.693-0.289-2.451c-0.493-0.785-1.261-1.201-2.303-1.201
		c-0.006,0-0.012,0-0.018,0c-0.745,0.083-1.473,0.332-2.166,0.74c-0.612,0.361-1.205,0.719-1.843,1.123
		c-2.967,2.315-5.659,5.19-8.003,8.545c-2.229,3.188-4.34,6.308-6.281,9.281c-1.135,0.118-2.287,0.193-3.432,0.225
		c-1.247,0.035-2.519,0.018-3.781-0.053l-0.042-0.001c-0.975,0-1.686,0.551-1.951,1.51c-0.266,0.956,0.067,1.806,0.95,2.355
		c0.93,0.507,2.136,0.643,3.58,0.401c0.702-0.116,1.378-0.212,2.019-0.286l-0.683,1.172c-2.135,1.578-4.351,3.041-6.59,4.349
		c-2.285,1.336-4.688,2.582-7.217,3.743c-0.052,0.03-0.094,0.067-0.142,0.1c-0.183,0.052-3.062,1.495-3.174,1.523l-0.157,0.058
		c-1.113,0.557-2.466,1.18-4.02,1.851c-1.537,0.664-3.11,1.248-4.678,1.734c-1.571,0.49-3.106,0.878-4.563,1.154
		c-1.409,0.269-2.586,0.339-3.453,0.214c-0.089-0.017-0.204-0.052-0.214-0.034c0-0.002,0-0.133,0.187-0.459l0.051-0.109
		c0.174-0.466,0.386-0.825,0.628-1.068l1.015-1.015c0.444-0.444,0.759-0.983,0.934-1.592c0.378-1.229,0.031-2.301-0.974-3.019
		c-1.058-0.755-2.18-0.619-3.077,0.376c-1.226,1.363-2.86,2.683-4.912,3.959c-0.176,0.133-0.6,0.406-1.616,0.956
		c-0.818,0.444-1.731,0.883-2.714,1.305c-0.951,0.407-1.895,0.716-2.805,0.918c-0.697,0.156-1.209,0.135-1.432-0.051
		c-0.258-0.221,0.001-0.826,0.178-1.168c0.468-0.904,1.121-1.866,1.941-2.857c0.841-1.015,1.705-1.967,2.569-2.832
		c0.868-0.867,1.476-1.442,1.754-1.668c0.845-0.562,1.604-1.039,2.256-1.417c0.61-0.351,1.377-0.663,2.281-0.925l4.793-0.535
		c0.957-0.173,1.771-0.655,2.419-1.432c0.378-0.454,1.081-1.671-0.55-3.169l-0.11-0.084c-0.725-0.452-1.773-0.592-3.206-0.429
		c-1.278,0.147-2.658,0.405-4.102,0.765c-1.449,0.364-2.833,0.764-4.113,1.191c-1.321,0.44-2.213,0.762-2.702,0.973
		c-0.931,0.359-2.092,0.823-3.487,1.394c-1.392,0.573-2.837,1.178-4.336,1.821c-1.499,0.642-17.662,8.883-17.662,8.883
		c-1.85,0.925-3.68,1.832-5.495,2.72c-1.759,0.864-3.597,1.702-5.457,2.491c-1.705,0.709-3.554,1.455-5.54,2.237
		c-1.958,0.769-3.977,1.424-6.002,1.948c-2.005,0.519-4.026,0.853-6.005,0.993c-1.932,0.135-3.834-0.071-5.662-0.612
		c-1.715-0.509-2.834-1.419-3.423-2.783c-0.629-1.454-0.914-3.105-0.846-4.908c0.067-1.85,0.363-3.732,0.88-5.594
		c0.523-1.884,1.068-3.465,1.636-4.746c1.4-3.78,3.157-7.419,5.224-10.818c2.071-3.405,4.406-6.738,6.941-9.907
		c1.11-1.388,2.375-2.868,3.76-4.396c1.367-1.506,2.836-2.939,4.368-4.262c1.521-1.314,3.148-2.451,4.838-3.382
		c1.662-0.916,3.437-1.554,5.28-1.896c1.701-0.327,3.163-0.268,4.345,0.178c1.026,0.389,1.585,1.435,1.707,3.199
		c0.136,1.843-0.002,3.71-0.411,5.549c-0.415,1.864-1.01,3.686-1.782,5.443c-0.625,1.598-1.355,3.289-2.17,5.028
		c-0.8,1.705-1.722,3.424-2.739,5.11c-1.013,1.674-2.125,3.263-3.306,4.722c-1.166,1.44-2.451,2.69-3.818,3.717
		c-0.767,0.574-1.155,1.242-1.155,1.989c0,0.688,0.227,1.288,0.673,1.782c0.428,0.478,0.998,0.79,1.691,0.928
		c0.727,0.145,1.467-0.014,2.201-0.473l0.16-0.133c1.3-1.445,2.477-3.007,3.497-4.645c0.997-1.604,1.995-3.225,3.006-4.887
		c1.855-3.28,3.659-6.745,5.364-10.297c1.73-3.606,2.938-7.374,3.585-11.191c0.298-1.64,0.336-3.318,0.113-4.986
		c-0.237-1.777-1.073-3.315-2.488-4.574c-1.412-1.253-3.138-1.91-5.13-1.951c-1.902-0.035-3.647,0.211-5.162,0.717
		c-1.772,0.443-3.477,1.155-5.066,2.115c-1.558,0.943-3.064,2.026-4.475,3.22c-1.405,1.189-2.741,2.488-3.973,3.864
		c-1.212,1.354-2.387,2.671-3.534,3.963C19,24.413,14.546,31.186,10.985,38.452c-0.784,1.493-1.564,3.126-2.32,4.853
		c-0.756,1.729-1.414,3.538-1.955,5.376c-0.546,1.86-0.915,3.758-1.094,5.64c-0.186,1.92-0.092,3.793,0.28,5.569
		c0.459,2.14,1.38,3.854,2.737,5.096c1.321,1.207,2.853,2.089,4.556,2.619c1.671,0.518,3.488,0.781,5.402,0.781
		c1.892,0,3.706-0.185,5.388-0.55c3.746-0.794,7.379-2.035,10.799-3.691c3.437-1.666,6.799-3.32,9.985-4.912
		c2.104-1.017,4.143-2.046,6.057-3.055c1.953-1.029,13.237-6.79,14.184-7.252c1.535-0.75,3-1.482,4.391-2.196
		c0.377-0.193,0.743-0.378,1.098-0.555c-0.646,0.687-1.256,1.409-1.823,2.158c-0.911,1.201-1.671,2.388-2.259,3.526
		c-0.63,1.222-0.938,2.225-0.937,3.106c0.083,1.602,0.738,2.807,1.946,3.583c1.125,0.724,2.418,1.053,3.898,0.969
		c1.522-0.152,3.005-0.633,4.407-1.428c1.32-0.75,2.587-1.481,3.804-2.197l1.51-0.895c-0.017,0.53,0.035,1.046,0.155,1.546
		c0.271,1.133,1.139,2.008,2.596,2.608c0.745,0.287,1.547,0.43,2.393,0.43c0.332,0,0.671-0.022,1.017-0.066
		c1.146-0.149,2.29-0.411,3.398-0.78c1.103-0.369,2.178-0.813,3.194-1.322c0.973-0.485,1.892-0.91,2.746-1.267l0.294-0.13
		c1.178-0.523,2.324-1.032,3.443-1.524c1.216-0.537,2.431-1.09,3.663-1.671c0.183-0.091,3.829-1.688,4.169-1.977
		c2.525-1.236,5-2.602,7.389-4.093c-0.47,0.928-0.907,1.823-1.306,2.679c-0.802,1.717-1.13,3.481-0.967,5.304
		c0.422,2.439,1.793,3.242,2.869,3.488c0.575,0.13,1.179,0.196,1.811,0.196c0.856,0,1.76-0.121,2.706-0.362
		c1.549-0.395,3.129-0.928,4.696-1.583l2.682-1.121l8.485-3.154c0.46-0.197,7.093-3.309,7.093-3.309
		c0.343-0.211,0.692-0.413,1.046-0.604c0.013,0.158,0.035,0.317,0.065,0.479c0.109,0.585,0.236,1.17,0.387,1.768
		c0.461,1.689,1.245,3.094,2.329,4.177c1.058,1.059,2.268,1.886,3.6,2.456c1.317,0.564,2.763,0.908,4.299,1.019
		c0.408,0.03,0.817,0.045,1.227,0.045c1.11,0,2.225-0.11,3.346-0.335c3.212-0.856,6.509-1.943,9.828-3.242l5.334-2.347
		c0.468-0.201,3.852-2.029,4.107-2.114c0,0,1.3-0.742,2.127-1.245c0.807-0.491,1.597-0.949,2.372-1.371
		c0.664-0.362,1.483-0.802,2.456-1.319c0.673,0.656,1.578,1.056,2.701,1.192c1.213,0.147,2.504,0.166,3.838,0.056
		c1.318-0.11,2.564-0.315,3.702-0.608c0.372-0.096,0.701-0.179,0.986-0.251l-0.565,2.331c-0.141,0.562-0.299,1.14-0.473,1.734
		c-0.184,0.626-0.334,1.264-0.447,1.897c-0.119,0.678-0.139,1.363-0.059,2.032c0.085,0.733,0.346,1.408,0.769,1.996
		c0.786,1.136,1.892,1.712,3.287,1.712c1.218,0,2.488-0.23,3.774-0.684c1.245-0.44,2.486-0.995,3.687-1.65
		c0,0,9.177-4.249,9.613-4.487c0.248-0.136,0.48-0.287,0.703-0.448c0.051-0.011,0.097-0.006,0.148-0.02l0.167-0.068
		c1.254-0.696,2.528-1.332,3.803-1.901c1.47-0.699,2.989-1.317,4.512-1.836c1.102-0.376,2.234-0.782,3.379-1.214
		c-0.267,0.882-0.524,1.81-0.77,2.774c-0.405,1.584-0.611,3.084-0.611,4.458c0,1.464,0.33,2.7,0.981,3.674
		c0.601,0.903,1.564,1.358,2.878,1.358c0.303,0,0.625-0.024,0.966-0.073c1.763-0.293,3.499-0.834,5.16-1.609
		c1.625-0.758,3.23-1.534,4.772-2.305c0.179-0.09,0.648-0.297,1.86-0.774c1.018-0.399,6.719-3.115,7.219-3.423
		c0.447-0.274,0.949-0.551,1.491-0.822c0.978-0.489,1.964-0.929,2.929-1.308c1.004-0.393,2.007-0.807,2.953-1.215
		c0.432-0.143,1.043-0.359,1.835-0.647c0.384-0.139,0.768-0.27,1.148-0.391c-0.031,0.134-0.064,0.267-0.099,0.399
		c-0.128,0.476-0.254,0.939-0.381,1.386c-0.152,0.206-0.37,0.578-0.746,1.369c-0.313,0.656-0.627,1.244-0.935,1.75
		c-0.917,0.572-1.514,1.253-1.786,2.075c-0.187,0.746-0.15,1.388,0.11,1.904c0.25,0.506,0.634,0.889,1.135,1.138
		c0.482,0.241,0.997,0.338,1.526,0.291c0.538-0.049,1.05-0.264,1.596-0.709c1.577-1.647,3.46-3.093,5.594-4.298
		c2.184-1.233,4.326-2.357,6.387-3.352c1.602-0.837,3.394-1.653,5.324-2.425c1.451-0.581,2.905-1.002,4.338-1.259
		c-0.313,0.565-0.742,1.159-1.283,1.777c-0.97,1.109-1.66,1.836-2.101,2.207c-0.422,0.421-0.896,0.879-1.424,1.37
		c-0.557,0.521-1.079,1.061-1.549,1.605c-0.484,0.557-0.921,1.146-1.298,1.75c-0.43,0.687-0.648,1.467-0.648,2.32
		c0,2.207,1.029,3.026,1.892,3.325c0.597,0.207,1.253,0.31,1.961,0.31c0.535,0,1.099-0.059,1.69-0.176
		c1.295-0.261,2.602-0.672,3.887-1.221c1.277-0.549,2.18-0.956,2.762-1.247c0.99-0.493,1.944-0.954,2.863-1.379
		c0.946-0.436,1.935-0.949,2.878-1.492l2.242-1.015c0.572-0.257,1.115-0.529,1.646-0.812c0.556,0.065,1.163-0.1,1.817-0.523
		c0.022-0.015,0.045-0.03,0.068-0.044c-0.095,0.97,0.065,1.99,0.48,3.049c0.56,1.444,1.446,2.508,2.632,3.163
		c1.113,0.615,2.375,1.004,3.753,1.157c1.328,0.147,2.772,0.128,4.284-0.054c0.987-0.121,1.942-0.282,2.855-0.483l-3.127,8.919
		c-2.25,2.677-4.41,5.556-6.422,8.557c-2.049,3.055-3.779,6.242-5.139,9.467c-0.223,0.517-0.465,1.188-0.72,1.99
		c-0.26,0.814-0.45,1.647-0.563,2.477c-0.124,0.908-0.037,1.753,0.258,2.508c0.24,0.619,0.822,1.406,2.272,1.649
		c0.144,0.016,0.286,0.023,0.426,0.023c0.646,0,1.251-0.167,1.805-0.499c0.617-0.371,1.158-0.869,1.607-1.482
		c0.412-0.564,0.791-1.17,1.126-1.801c0.324-0.612,0.594-1.133,0.818-1.582c1.003-2.151,1.943-4.358,2.797-6.562
		c0.853-2.204,1.707-4.373,2.551-6.487l2.743-6.328c1.393-1.875,2.919-3.698,4.539-5.418c1.645-1.753,3.403-3.422,5.232-4.967
		c1.603-1.395,3.267-2.668,4.943-3.787c1.687-1.123,3.463-2.189,5.28-3.168l0.174-0.129c0.425-0.425,0.732-0.868,0.914-1.319
		C335.569,49.25,335.68,48.46,334.626,47.704 M149.221,44.91c0.234-0.314,0.498-0.628,0.792-0.938
		c0.812-0.857,1.748-1.565,2.783-2.105c1.028-0.537,2.171-0.902,3.397-1.085c0.336-0.05,0.673-0.075,1.009-0.075
		c0.256,0,0.512,0.014,0.769,0.043c-1.262,1.038-2.662,1.936-4.182,2.679C152.307,44.154,150.777,44.649,149.221,44.91"/>
	<path clip-path="url(#SVGID_2_)" d="M51.054,138.326c4.988,0,8.684-1.291,11.089-3.877c2.402-2.585,3.605-6.282,3.605-11.089
		c0-4.809-1.203-8.503-3.605-11.088c-2.405-2.586-6.101-3.878-11.089-3.878h-3.538v29.932H51.054z M12.685,170.98V75.739h38.369
		c7.164,0,13.809,1.18,19.932,3.538c6.122,2.359,11.406,5.647,15.851,9.864c4.445,4.217,7.936,9.253,10.477,15.103
		c2.539,5.851,3.809,12.223,3.809,19.116c0,6.892-1.27,13.266-3.809,19.116c-2.541,5.851-6.032,10.885-10.477,15.104
		c-4.445,4.217-9.729,7.504-15.851,9.863c-6.123,2.358-12.768,3.537-19.932,3.537H12.685z"/>
	<polygon clip-path="url(#SVGID_2_)" points="107.245,75.739 169.287,75.739 169.287,103.376 142.076,103.376 142.076,111.199 
		167.111,111.199 167.111,134.498 142.076,134.498 142.076,143.344 170.647,143.344 170.647,170.98 107.245,170.98 	"/>
	<polygon clip-path="url(#SVGID_2_)" points="293.373,170.98 258.542,170.98 258.542,134.159 239.355,134.159 239.355,170.98 
		204.525,170.98 204.525,75.739 239.355,75.739 239.355,110.86 258.542,110.86 258.542,75.739 293.373,75.739 	"/>
	<path clip-path="url(#SVGID_2_)" d="M335.004,123.386c0,2.357,0.295,4.584,0.886,6.672c0.589,2.087,1.472,3.901,2.653,5.444
		c1.178,1.543,2.696,2.767,4.557,3.675c1.859,0.908,4.013,1.36,6.463,1.36c2.45,0,4.601-0.452,6.463-1.36
		c1.859-0.908,3.399-2.132,4.626-3.675c1.224-1.543,2.129-3.357,2.719-5.444c0.592-2.088,0.887-4.314,0.887-6.672
		c0-2.358-0.295-4.581-0.887-6.67c-0.59-2.086-1.495-3.925-2.719-5.515c-1.227-1.587-2.767-2.836-4.626-3.741
		c-1.862-0.908-4.013-1.362-6.463-1.362c-2.45,0-4.604,0.454-6.463,1.362c-1.861,0.905-3.379,2.154-4.557,3.741
		c-1.181,1.59-2.064,3.429-2.653,5.515C335.299,118.805,335.004,121.027,335.004,123.386 M299.63,123.386
		c0-6.896,1.245-13.382,3.74-19.459c2.493-6.078,5.964-11.364,10.41-15.855c4.444-4.49,9.728-8.052,15.85-10.682
		c6.123-2.631,12.767-3.947,19.933-3.947c7.167,0,13.81,1.316,19.933,3.947c6.123,2.63,11.406,6.192,15.851,10.682
		c4.444,4.491,7.936,9.777,10.476,15.855c2.539,6.077,3.812,12.563,3.812,19.459c0,6.895-1.272,13.383-3.812,19.46
		c-2.54,6.079-6.031,11.361-10.476,15.854c-4.444,4.491-9.728,8.028-15.851,10.614c-6.123,2.585-12.766,3.879-19.933,3.879
		c-7.166,0-13.81-1.294-19.933-3.879c-6.122-2.586-11.406-6.123-15.85-10.614c-4.446-4.492-7.917-9.774-10.41-15.854
		C300.875,136.769,299.63,130.28,299.63,123.386"/>
	<polygon clip-path="url(#SVGID_2_)" points="405.891,75.739 467.935,75.739 467.935,103.376 440.72,103.376 440.72,111.199 
		465.756,111.199 465.756,134.498 440.72,134.498 440.72,143.344 469.294,143.344 469.294,170.98 405.891,170.98 	"/>
	<polygon clip-path="url(#SVGID_2_)" points="527.257,75.739 564.128,75.739 540.453,119.143 568.209,170.98 531.339,170.98 
		510.792,129.617 510.792,170.98 475.961,170.98 475.961,75.739 510.792,75.739 510.792,108.801 	"/>
	<path clip-path="url(#SVGID_2_)" fill="#F39200" d="M715.779,142.576c-0.058-0.231-0.222-0.557-0.676-0.799
		c-0.648-0.347-1.296-0.433-1.92-0.253l-0.106,0.044c-0.612,0.342-1.298,0.675-2.036,0.991c-0.756,0.324-1.5,0.67-2.199,1.02
		c-1.533,0.697-3.133,1.319-4.754,1.848c-1.618,0.529-3.289,0.974-4.951,1.319c-1.196,0.211-2.522,0.351-3.943,0.42
		c-1.396,0.069-2.763-0.086-4.055-0.462c-1.277-0.368-2.4-0.963-3.338-1.769c-0.773-0.661-1.317-1.579-1.621-2.732
		c1.528,0.111,3.068-0.025,4.57-0.408c1.573-0.401,3.039-1.014,4.352-1.817c0.357-0.216,0.911-0.553,1.661-1.019
		c0.772-0.479,1.482-1.02,2.108-1.61c0.655-0.616,1.129-1.289,1.404-1.997c0.316-0.813,0.157-1.616-0.441-2.303
		c-0.797-1.033-1.937-1.636-3.388-1.794c-1.353-0.146-2.56-0.145-3.616,0.005c-1.973,0.367-3.86,1.089-5.613,2.147
		c-1.725,1.042-3.082,2.397-4.04,4.033c-1.388,0.563-2.771,1.233-4.118,1.993c-1.249,0.704-2.473,1.358-3.657,1.955
		c-0.259,0.019-0.548,0.099-0.868,0.28l-10.197,5.343c0.14-0.596,0.129-1.19-0.034-1.778c-0.292-1.033-1.192-1.953-2.715-2.791
		c-0.186-0.122-0.54-0.295-1.662-0.553c-0.778-0.174-1.552-0.369-2.328-0.581c-0.729-0.197-1.344-0.464-1.83-0.788
		c-0.194-0.13-0.253-0.226-0.258-0.26c-0.003-0.018,0.014-0.08,0.112-0.197c0.081-0.108,0.328-0.319,1.063-0.513
		c0.705-0.184,1.366-0.43,1.966-0.729c0.619-0.31,1.135-0.688,1.535-1.125c0.358-0.395,0.64-1.104-0.078-2.293
		c-0.269-0.358-0.685-0.648-1.236-0.86c-0.549-0.212-1.09-0.239-1.604-0.082c-1.25,0.084-2.72,0.473-4.372,1.154
		c-1.64,0.679-3.285,1.419-4.887,2.202c-1.619,0.792-3.103,1.569-4.406,2.312l-2.657,1.509c-0.249,0.075-0.504,0.164-0.771,0.285
		c-0.712,0.32-1.429,0.687-2.129,1.09c-0.664,0.387-1.138,0.648-1.38,0.772c-1.565,0.64-3.101,1.211-4.563,1.696
		c-1.024,0.343-2.076,0.652-3.138,0.928l3.597-4.541c0.365-0.511,0.792-1.188,1.306-2.067c0.516-0.882,0.908-1.782,1.171-2.676
		c0.276-0.952,0.273-1.845-0.009-2.656c-0.313-0.889-1.142-1.465-2.48-1.717c-2.026-0.296-4.067,0.097-6.077,1.176
		c-1.932,1.038-3.679,2.148-5.19,3.297c-2.569,1.93-5.031,4.065-7.315,6.35c-1.339,1.339-2.666,2.717-3.971,4.12l2.216-4.519
		c0.417-0.903,0.926-1.816,1.513-2.713c0.632-0.969,1.068-1.918,1.294-2.823c0.338-1.355,0.231-2.237-0.329-2.697
		c-0.504-0.411-1.211-0.556-2.095-0.429c-0.786,0.113-1.62,0.359-2.479,0.732c-0.83,0.36-1.46,0.648-1.893,0.865
		c-1.871,0.936-3.692,1.891-5.411,2.839c-1.539,0.848-3.133,1.618-4.741,2.319c-0.467,0.106-0.945,0.314-1.435,0.64
		c-0.612,0.408-1.159,0.717-1.656,0.93l-10.253,5.127c-3.526,1.763-7.165,3.465-10.816,5.063c-3.613,1.578-7.405,2.771-11.285,3.548
		c-0.897,0.207-2.225,0.401-3.943,0.578c-1.695,0.172-3.304,0.136-4.782-0.104c-1.429-0.233-2.585-0.732-3.433-1.482
		c-0.762-0.673-0.822-1.803-0.185-3.455c0.619-1.653,1.528-3.242,2.7-4.726c1.189-1.504,2.516-2.9,3.944-4.152
		c1.431-1.259,2.943-2.451,4.496-3.545c1.54-1.086,3.077-2.104,4.582-3.037c0.612-0.408,1.454-0.863,2.497-1.352
		c1.22-0.568,1.926-1.376,2.093-2.374c0.182-0.828-0.081-1.554-0.765-2.101c-0.659-0.527-1.364-0.704-2.018-0.533
		c-1.471,0.147-2.888,0.521-4.211,1.108c-1.188,0.528-2.536,0.696-3.991,0.496c-1.177-0.185-1.889-0.625-2.176-1.348
		c-0.317-0.789-0.345-1.766-0.084-2.906c0.271-1.195,0.779-2.521,1.506-3.941c0.736-1.436,1.551-2.82,2.425-4.113
		c0.879-1.3,1.734-2.476,2.541-3.495c0.815-1.025,1.4-1.753,1.741-2.165c2.595-2.874,5.544-5.396,8.767-7.498
		c3.216-2.098,6.727-3.693,10.443-4.747c0.697-0.208,1.53-0.421,2.475-0.631c0.921-0.205,1.859-0.326,2.793-0.362
		c0.925-0.034,1.784,0.053,2.586,0.253c0.75,0.188,1.359,0.585,1.86,1.21c0.438,0.563,0.69,1.21,0.752,1.925
		c0.065,0.753-0.018,1.516-0.247,2.267c-0.241,0.791-0.555,1.574-0.931,2.326c-0.376,0.755-0.74,1.379-1.085,1.862
		c-2.153,3.125-5.005,5.659-8.476,7.533c-3.507,1.894-7.092,3.242-10.655,4.01l-0.018,0.004c-0.703,0.178-1.222,0.544-1.537,1.087
		c-0.31,0.527-0.42,1.088-0.329,1.663c0.086,0.567,0.331,1.056,0.728,1.454c0.434,0.432,1.016,0.604,1.721,0.518
		c1.131-0.073,2.349-0.452,3.619-1.126c1.198-0.633,2.27-1.169,3.194-1.595c2.428-1.214,4.799-2.59,7.048-4.09
		c2.266-1.51,4.365-3.334,6.218-5.402c0.867-0.868,1.712-1.877,2.512-3.002c0.803-1.132,1.469-2.352,1.979-3.628
		c0.515-1.292,0.814-2.602,0.888-3.896c0.076-1.339-0.27-2.673-1.021-3.956c-0.76-1.365-1.785-2.369-3.05-2.983
		c-1.23-0.596-2.589-0.936-4.037-1.01c-1.418-0.076-2.859,0.019-4.28,0.273c-1.414,0.255-2.719,0.605-3.871,1.037
		c-5.23,1.864-10.186,4.713-14.728,8.468c-4.54,3.754-8.365,8.051-11.36,12.757c-0.648,0.937-1.321,2.027-2.001,3.245
		c-0.693,1.238-1.246,2.549-1.644,3.893c-0.406,1.362-0.594,2.726-0.557,4.054c0.038,1.387,0.525,2.673,1.453,3.834
		c0.837,0.989,1.788,1.685,2.826,2.068c0.663,0.247,1.372,0.429,2.118,0.545l-5.014,4.285c-1.531,1.461-3.137,3.064-4.769,4.768
		c-1.638,1.712-2.912,3.651-3.786,5.763c-0.904,2.186-0.957,4.203-0.154,6.002c0.803,1.791,2.315,3.119,4.503,3.949
		c1.79,0.657,3.677,0.988,5.622,0.988c0.437,0,0.875-0.017,1.317-0.05c2.375-0.182,4.64-0.602,6.712-1.245
		c4.779-1.283,9.466-3.112,13.932-5.433c4.333-2.254,8.77-4.535,13.193-6.783c1.189-0.629,2.404-1.236,3.61-1.805
		c1.201-0.565,2.416-1.101,3.694-1.638c0.1-0.065,0.212-0.15,0.329-0.243c0.558-0.079,1.116-0.313,1.672-0.737
		c0.721-0.548,1.358-0.963,1.873-1.223c1.141-0.496,2.393-1.113,3.723-1.833c0.957-0.516,1.934-0.94,2.918-1.267
		c-1.146,2.84-2.341,5.705-3.562,8.532c-1.337,3.095-2.799,6.268-4.345,9.434c-1.983,2.462-4.056,5.09-6.165,7.814
		c-2.057,2.661-4.041,5.42-5.877,8.174c-0.217,0.289-0.544,0.761-0.978,1.413c-0.432,0.646-0.892,1.387-1.405,2.269
		c-0.51,0.877-0.984,1.77-1.408,2.651c-0.439,0.917-0.757,1.816-0.944,2.674c-0.197,0.915-0.152,1.733,0.133,2.434
		c0.315,0.758,0.987,1.27,2.025,1.527c0.252,0.048,0.501,0.071,0.746,0.071c1.015,0,1.967-0.405,2.837-1.21
		c0.993-0.92,1.921-2.089,2.758-3.474c0.82-1.353,1.567-2.772,2.219-4.218c0.631-1.403,1.163-2.506,1.596-3.299l7.126-14.783
		l2.953-3.375c1.83-2.184,3.778-4.33,5.794-6.379c2.007-2.042,4.165-3.968,6.421-5.73l2.616-2.137
		c0.938-0.764,1.946-1.488,2.996-2.153c1.042-0.66,2.116-1.242,3.193-1.729c0.813-0.366,1.639-0.611,2.467-0.735
		c-0.146,0.4-0.346,0.821-0.597,1.26c-0.423,0.743-0.742,1.292-0.958,1.65c-0.972,1.664-2.201,3.208-3.66,4.599
		c-0.832,0.832-1.71,1.587-2.61,2.246c-0.846,0.616-1.797,0.918-2.951,0.92c-0.979,0.081-1.735,0.403-2.247,0.96
		c-0.505,0.547-0.784,1.135-0.827,1.744c-0.044,0.604,0.089,1.155,0.398,1.641c0.339,0.532,0.866,0.814,1.59,0.814h0.015
		c0.603-0.075,1.765-0.379,3.555-0.927c1.747-0.533,3.602-1.123,5.563-1.764c1.96-0.642,3.777-1.247,5.453-1.818
		c1.715-0.584,2.765-0.976,3.174-1.183c0.352-0.141,0.917-0.354,1.695-0.636c0.794-0.288,1.596-0.617,2.386-0.977
		c0.807-0.368,1.536-0.778,2.163-1.222c0.068-0.049,0.119-0.102,0.182-0.152c0.588-0.166,1.209-0.482,1.862-0.979
		c0.862-0.655,1.615-1.164,2.185-1.485c0.859-0.357,1.807-0.768,2.844-1.233c0.759-0.342,1.539-0.677,2.327-1.001
		c-0.015,0.338,0.011,0.675,0.073,1.01c0.126,0.68,0.559,1.35,1.292,2.001c0.493,0.412,1.332,0.744,2.563,1.013
		c1.12,0.246,2.196,0.546,3.201,0.892c0.933,0.323,1.59,0.732,1.952,1.215c0.322,0.432-0.211,1.168-0.754,1.76
		c-0.318,0.445-0.866,0.924-1.629,1.421c-0.783,0.511-1.664,0.942-2.564,1.267c-1.413,0.335-2.652,0.391-3.673,0.16
		c-0.562-0.127-1.323-0.479-1.482-2.079c-0.087-0.78-0.389-1.365-0.899-1.737c-0.513-0.371-1.095-0.487-1.731-0.351
		c-0.601,0.128-1.12,0.431-1.547,0.899c-0.456,0.502-0.644,1.154-0.558,1.886c0,1.424,0.612,2.698,1.82,3.789
		c1.193,1.077,2.582,1.624,4.126,1.624c2.048,0,4.071-0.408,6.013-1.213c1.889-0.785,3.892-1.688,5.975-2.692
		c1.723-0.933,3.463-1.848,5.169-2.718c1.717-0.876,3.453-1.717,5.148-2.496c0.495-0.213,1.046-0.443,1.649-0.691
		c0.077-0.031,0.141-0.068,0.21-0.104c0.337-0.033,0.674-0.148,1.003-0.373c0.54-0.37,0.974-0.622,1.371-0.79l1.974-1.227
		c0.458-0.283,0.931-0.552,1.41-0.797c-0.002,0.272,0.024,0.552,0.077,0.838c0.11,0.581,0.235,1.16,0.383,1.748
		c0.45,1.646,1.212,3.015,2.267,4.066c1.033,1.037,2.219,1.846,3.519,2.403c1.293,0.554,2.713,0.89,4.22,1
		c0.403,0.029,0.807,0.044,1.209,0.044c1.094,0,2.188-0.109,3.281-0.326c3.204-0.854,6.492-1.938,9.791-3.229l5.337-2.349
		c0.479-0.206,1.04-0.416,1.668-0.626c0.751-0.249,1.344-0.715,1.755-1.372C715.766,143.404,715.878,142.965,715.779,142.576
		 M687.037,138.447c0.239-0.396,0.543-0.786,0.907-1.172c0.601-0.633,1.292-1.156,2.059-1.557c0.762-0.396,1.606-0.668,2.512-0.802
		c0.246-0.037,0.496-0.055,0.748-0.055c0.373,0,0.752,0.04,1.132,0.12c-1.021,0.905-2.18,1.679-3.455,2.302
		C689.68,137.901,688.37,138.291,687.037,138.447"/>
</g>
</svg>
