<?xml version="1.0" encoding="utf-8"?>
<!-- Generator: Adobe Illustrator 23.0.2, SVG Export Plug-In . SVG Version: 6.00 Build 0)  -->
<svg version="1.1" id="Laag_1" xmlns="http://www.w3.org/2000/svg" xmlns:xlink="http://www.w3.org/1999/xlink" x="0px" y="0px"
	 viewBox="0 0 553.6 336.7" style="enable-background:new 0 0 553.6 336.7;" xml:space="preserve">
<style type="text/css">
	.st0{fill:#FAF3ED;}
	.st1{fill:#E0C69F;}
	.st2{fill:#141D2B;}
</style>
<g>
	<g>
		<path class="st0" d="M547.4,88.3c-4.2-7-10.8-12-18.6-14.3l-243-71.3c-6-1.8-12.3-1.8-18.3,0L24.6,74C16.8,76.3,10.2,81.4,6,88.3
			c-4.2,7-5.6,15.2-4.1,23.1L27,237c2.3,11.4,10.5,20.7,21.6,24.4l217.9,72.4c3.3,1.1,6.8,1.6,10.2,1.6c3.5,0,6.9-0.5,10.2-1.6
			l217.9-72.4c11-3.7,19.3-13,21.6-24.4l25.1-125.5C553.1,103.5,551.6,95.2,547.4,88.3z"/>
		<path class="st1" d="M276.7,336.7c-3.6,0-7.2-0.6-10.6-1.7L48.2,262.6c-11.5-3.8-20.1-13.5-22.4-25.4L0.7,111.7
			c-1.7-8.3-0.2-16.8,4.2-24.1c4.4-7.2,11.2-12.5,19.4-14.9l243-71.3c6.2-1.8,12.8-1.8,19,0l243,71.3c8.1,2.4,15,7.7,19.4,14.9
			c4.4,7.2,5.9,15.8,4.2,24.1l-25.1,125.5c-2.4,11.8-11,21.6-22.4,25.4L287.3,335C283.9,336.2,280.4,336.7,276.7,336.7z M276.7,2.6
			c-2.9,0-5.9,0.4-8.8,1.3L25,75.2C17.5,77.3,11.2,82.2,7.1,89c-4,6.7-5.4,14.6-3.9,22.2l25.1,125.5c2.2,10.9,10.1,19.9,20.7,23.4
			l217.9,72.4c3.2,1,6.5,1.6,9.8,1.6c3.4,0,6.7-0.5,9.8-1.6l217.9-72.4c10.6-3.5,18.5-12.5,20.7-23.4l25.1-125.5
			c1.5-7.7,0.1-15.5-3.9-22.2s-10.4-11.6-17.9-13.8l-243-71.3C282.6,3.1,279.7,2.6,276.7,2.6z"/>
	</g>
	<g>
		<path class="st2" d="M11.2,103.3l27.1,135.4c1.1,5.3,4.8,9.6,9.9,11.3L272,324.2c3.1,1,6.4,1,9.4,0l223.7-74.4
			c5.1-1.7,8.9-6,9.9-11.3l27.1-135.4c1.5-7.6-3-15.1-10.4-17.3L280.9,12.4c-2.7-0.8-5.7-0.8-8.4,0L21.7,86
			C14.3,88.2,9.7,95.7,11.2,103.3z"/>
		<path class="st2" d="M276.7,325.8c-2.4,0-4.9-0.4-7.2-1.2L51.6,252.2c-7.7-2.6-13.5-9.1-15.1-17.1L11.4,109.5
			c-1.1-5.6-0.1-11.4,2.8-16.2c3-4.9,7.6-8.5,13.1-10.1l243-71.3c4.2-1.2,8.6-1.2,12.8,0l243,71.3c5.5,1.6,10.1,5.2,13.1,10.1
			s4,10.7,2.8,16.2L516.9,235c-1.6,8-7.4,14.6-15.1,17.1l-217.9,72.4C281.6,325.4,279.1,325.8,276.7,325.8z M276.7,13.2
			c-2,0-3.9,0.3-5.8,0.8l-243,71.3c-10.3,3-16.5,13.3-14.4,23.8l25.1,125.5c1.4,7.2,6.7,13.2,13.7,15.5l217.9,72.4
			c4.2,1.4,8.8,1.4,13,0l217.9-72.4c7-2.3,12.3-8.3,13.7-15.5l25.1-125.5c2.1-10.6-4.1-20.8-14.4-23.8L282.5,14
			C280.6,13.4,278.7,13.2,276.7,13.2z"/>
	</g>
	<g>
		<path class="st0" d="M292.1,102.9c-4.2,0-8.3,0-12.5,0c-8.3,0-15.1,5.9-15.1,13.2c0,24.2,0,48.5,0,72.7c0,7.3,6.8,13.1,15.2,13.1
			c4.2,0,8.3,0,12.5,0.1c8.4,0.1,15.2-5.6,15.2-12.9c0-24.3,0-48.6-0.1-72.9C307.2,108.8,300.4,102.9,292.1,102.9z M291.2,188
			c0,1.7-1.6,3.1-3.6,3.1c-1.2,0-2.4,0-3.6,0c-2,0-3.6-1.4-3.6-3.1c0-23.7,0-47.4,0-71.1c0-1.7,1.6-3.1,3.6-3.1c1.2,0,2.4,0,3.6,0
			c2,0,3.6,1.4,3.6,3.1C291.2,140.5,291.2,164.3,291.2,188z"/>
		<path class="st0" d="M251.7,130.2c0-4.7,0-9.4,0-14.1c0-7.3-6.8-13.2-15.1-13.2c-4.2,0-8.3,0-12.5,0c-8.4,0-15.1,6-15.2,13.4
			c0,24.7-0.1,49.4-0.1,74.1c0,7.4,6.8,13,15.1,12.6c4.2-0.2,8.3-0.3,12.5-0.5c8.4-0.3,15.2-6.3,15.2-13.6c0-14.5,0-28.9,0-43.4
			c-5,1-10,1.9-15.1,2.9c-2.1,0.4-4.2,0.8-6.3,1.3c0,0,0,0-0.1,0c1.8,3.1,3.6,6.2,5.3,9.3c0,9.9,0,19.7,0,29.6
			c0,1.7-1.6,3.2-3.6,3.2c-1.2,0-2.4,0.1-3.6,0.1c-2,0.1-3.6-1.3-3.6-3c0-24,0.1-48,0.1-71.9c0-1.7,1.6-3.1,3.6-3.1
			c1.2,0,2.4,0,3.6,0c2,0,3.6,1.4,3.6,3.1c0,5.5,0,10.9,0,16.4C241,132.2,246.3,131.2,251.7,130.2z"/>
		<path class="st0" d="M164.1,155c6.2-0.3,12.5-0.6,18.7-0.8c0.9-3.8,1.8-7.5,2.6-11.3c-7.1,0.2-14.2,0.4-21.4,0.7
			c0-9.8,0-19.6,0.1-29.3c7.4-0.1,14.9-0.1,22.3-0.2c0.9-3.7,1.8-7.5,2.6-11.2c-15.7,0-31.5,0-47.2,0c2.1,3.9,4.1,7.7,6.2,11.6
			c-0.1,31.4-0.1,62.9-0.2,94.3c12.8-1.4,25.5-2.5,38.3-3.5c0.9-3.8,1.8-7.6,2.7-11.4c-8.3,0.5-16.6,1.2-24.9,1.9
			C164,182.2,164.1,168.6,164.1,155z"/>
		<path class="st0" d="M441.3,158c6.2,0.4,12.5,0.9,18.7,1.4c0.9-4.1,1.7-8.1,2.6-12.2c-7.1-0.4-14.2-0.8-21.3-1.2
			c0-10.3,0-20.7,0-31c7.4,0.1,14.9,0.2,22.3,0.4c0.9-4.1,1.7-8.3,2.6-12.4c-15.7,0-31.5,0-47.2,0c2.1,3.9,4.2,7.9,6.3,11.8
			c0.1,32.1,0.1,64.2,0.2,96.4c12.7,1.6,25.5,3.4,38.2,5.3c0.9-4,1.7-8,2.6-12.1c-8.3-1.2-16.5-2.3-24.8-3.3
			C441.3,186.7,441.3,172.4,441.3,158z"/>
		<path class="st0" d="M336.3,153.1c6.3,0.2,12.5,0.3,18.8,0.5c0.9-3.7,1.7-7.3,2.6-11c-7.1-0.2-14.3-0.3-21.4-0.5
			c0-9.4,0-18.8,0-28.2c7.4,0,14.9,0.1,22.3,0.1c0.9-3.7,1.7-7.4,2.6-11.1c-15.7,0-31.5,0-47.2,0c2.1,3.6,4.2,7.3,6.2,10.9
			c0,29.6,0.1,59.2,0.1,88.8c12.8,0.4,25.6,1.1,38.4,1.9c0.9-3.6,1.7-7.3,2.6-11c-8.3-0.5-16.6-0.9-25-1.3
			C336.4,179.2,336.4,166.1,336.3,153.1z"/>
		<path class="st0" d="M121.1,102.9c-11.3,0-22.6,0-33.8,0c2.1,4.2,4.2,8.3,6.2,12.4c0,33.5,0,67.1,0,100.6
			c9.1-1.4,18.3-2.7,27.5-3.9c8.3-1.1,15.1-8.3,15.1-16.1c0-26.2,0.1-52.5,0.1-78.7C136.2,109.3,129.5,102.9,121.1,102.9z
			 M120.1,196.7c0,1.9-1.6,3.6-3.6,3.8c-2.4,0.3-4.7,0.6-7.1,0.9c0-28.8,0.1-57.6,0.1-86.4c2.4,0,4.7-0.1,7.1-0.1
			c2,0,3.6,1.5,3.6,3.4C120.2,144.4,120.1,170.6,120.1,196.7z"/>
		<path class="st0" d="M399.2,102.9c-11.3,0-22.6,0-33.8,0c2.1,3.7,4.2,7.5,6.3,11.2c0.1,30.5,0.1,61,0.2,91.4
			c9.2,0.7,18.4,1.5,27.6,2.5c8.3,0.9,15.1-4.7,15.1-12.6c-0.1-26.1-0.1-52.3-0.2-78.4C414.3,109.2,407.5,102.9,399.2,102.9z
			 M398.5,193.2c0,1.8-1.6,3.1-3.6,3c-2.4-0.2-4.7-0.4-7.1-0.6c-0.1-27.1-0.1-54.2-0.2-81.3c2.4,0,4.7,0,7.1,0.1
			c2,0,3.6,1.5,3.6,3.3C398.4,142.8,398.4,168,398.5,193.2z"/>
	</g>
	<g>
		<path class="st0" d="M181.5,248.7c0,0,2.5,2.5,5.9,2.5c2.2,0,4-1.2,4-3.4c0-5-11.2-3.9-11.2-11c0-3.6,3.1-6.5,7.5-6.5
			c4.3,0,6.6,2.3,6.6,2.3l-1.5,2.7c0,0-2.1-2-5.1-2c-2.5,0-4.2,1.5-4.2,3.4c0,4.8,11.2,3.5,11.2,11c0,3.6-2.8,6.5-7.3,6.5
			c-4.9,0-7.7-3-7.7-3L181.5,248.7z"/>
		<path class="st0" d="M205.9,230.7h3.2V251h10.4v2.8h-13.6L205.9,230.7L205.9,230.7z"/>
		<path class="st0" d="M241.6,247.2h-8.7l-2.3,6.7h-3.3l8.3-23.1h3.4l8.3,23.1h-3.4L241.6,247.2z M237.2,233.9c0,0-0.5,2.1-0.9,3.3
			l-2.6,7.3h7l-2.6-7.3C237.8,236,237.3,233.9,237.2,233.9L237.2,233.9z"/>
		<path class="st0" d="M267.4,230.3c5.5,0,8.4,2.8,8.4,2.8l-1.6,2.4c0,0-2.6-2.3-6.5-2.3c-5.4,0-8.7,4-8.7,8.9
			c0,5.4,3.7,9.1,8.5,9.1c4,0,6.6-2.9,6.6-2.9V245h-3.8v-2.8h6.7v11.6h-2.9v-1.4c0-0.5,0-1,0-1H274c0,0-2.5,2.8-7.1,2.8
			c-6.2,0-11.4-4.9-11.4-12C255.6,235.5,260.6,230.3,267.4,230.3z"/>
		<path class="st0" d="M288.6,230.7H302v2.8h-10.2v7.2h8.3v2.8h-8.3v7.4h10.8v2.8h-14L288.6,230.7L288.6,230.7z"/>
		<path class="st0" d="M313.9,230.7h7.1c2.4,0,3.4,0.2,4.3,0.5c2.4,0.9,3.9,3.2,3.9,6.3c0,3-1.6,5.4-4.2,6.3v0.1c0,0,0.3,0.3,0.7,1
			l4.9,9H327l-4.9-9.2h-5v9.2h-3.2V230.7z M321.8,241.8c2.5,0,4.1-1.6,4.1-4.2c0-1.7-0.7-2.9-1.8-3.6c-0.6-0.3-1.4-0.5-3.2-0.5h-3.7
			v8.3H321.8z"/>
		<path class="st0" d="M341.5,230.7h3.2v23.1h-3.2V230.7z"/>
		<path class="st0" d="M355.4,246h3.2v1c0,3.1,1.8,4.2,3.7,4.2c1.8,0,3.6-1,3.6-4.1v-13.6h-5.8v-2.8h9.1v16.5c0,5-3.5,7-6.9,7
			s-6.9-2.1-6.9-7L355.4,246L355.4,246z"/>
	</g>
	<path class="st1" d="M166.6,233.9H97.2l63.2,6.6c1,0.1,2-0.4,2.7-1.3L166.6,233.9z"/>
	<path class="st1" d="M388.2,233.9h69.4l-63.2,6.6c-1,0.1-2-0.4-2.7-1.3L388.2,233.9z"/>
	<path class="st0" d="M276.7,315.4c-1.4,0-2.8-0.2-4.1-0.7L55.3,242.5c-4.4-1.5-7.8-5.2-8.7-9.8L21.7,108.1
		c-1.3-6.7,2.6-13.1,9.1-15.1L273,22c2.4-0.7,4.9-0.7,7.3,0l242.3,71c6.5,1.9,10.4,8.4,9.1,15.1l-24.9,124.6
		c-0.9,4.6-4.2,8.3-8.7,9.8l-217.3,72.2C279.5,315.1,278.1,315.4,276.7,315.4z M23,107.8l24.9,124.6c0.8,4.1,3.8,7.5,7.8,8.8
		L273,313.5c2.4,0.8,5,0.8,7.4,0l217.3-72.2c4-1.3,7-4.7,7.8-8.8l24.9-124.6c1.2-6-2.3-11.8-8.2-13.6L280,23.2
		c-2.2-0.6-4.4-0.6-6.6,0L31.2,94.3C25.3,96,21.8,101.8,23,107.8L23,107.8z"/>
	<g>
		<path class="st1" d="M255.8,64.3c2.1,5.8,4.3,11.6,6.4,17.4c0.3,0.9,1,1.2,2,0.8c7.3-2.7,14.5-5.4,21.8-8.1
			c2.2-0.8,4.4-1.6,6.6-2.5c1.1-0.4,1.4-1,1-2.1c-1-2.6-2-5.3-2.9-7.9c-0.6-1.7-0.1-3.1,1.6-3.9c4.1-1.9,8.4-2.6,12.9-2.6
			c1.3,0,2.6,0.1,3.9,0c1.7,0,2.2-0.7,2.2-2.3c-0.1-2.9-0.1-5.8-0.2-8.6c0-1.5-0.9-2.1-2.3-1.6c-5.5,2-11,4-16.5,6.1
			c-3.4,1.3-6.7,2.9-10,4.4c-7.5,3.4-15.2,6.4-23.3,8.3c-0.7,0.2-1.5,0.3-2.2,0.5c-0.4,0.1-0.8,0.4-1.2,0.7
			C255.7,63.6,255.7,64,255.8,64.3z"/>
		<path class="st2" d="M261.3,65.7c0.4-0.8,0-1.7-0.8-2.1s-1.7,0-2.1,0.7c-0.4,0.8,0,1.7,0.8,2.1C260,66.8,261,66.5,261.3,65.7z"/>
		<path class="st2" d="M307,52.8c0.6,0.3,1.4,0,1.7-0.6c0.3-0.6,0-1.4-0.6-1.7s-1.4,0-1.7,0.6C306.1,51.8,306.4,52.5,307,52.8z"/>
	</g>
	<path class="st1" d="M324.1,83c-8.1,0-16.2-0.1-24.2-0.1l-12.1-0.1c-4,0-8.1,0-12.1,0c-8.1,0-16.1,0.1-24.2,0.1
		c-8.1,0.1-16.1,0.2-24.2,0.2c8-1.1,16.1-1.8,24.2-2.2c8.1-0.5,16.2-0.7,24.3-0.7c4,0,8.1,0,12.1,0.1s8.1,0.2,12.1,0.5
		C308,81.3,316.1,82,324.1,83z"/>
</g>
</svg>
