<?xml version="1.0" encoding="utf-8"?>
<!-- Generator: Adobe Illustrator 14.0.0, SVG Export Plug-In . SVG Version: 6.00 Build 43363)  -->
<!DOCTYPE svg PUBLIC "-//W3C//DTD SVG 1.1//EN" "http://www.w3.org/Graphics/SVG/1.1/DTD/svg11.dtd">
<svg version="1.1" id="Layer_1" xmlns="http://www.w3.org/2000/svg" xmlns:xlink="http://www.w3.org/1999/xlink" x="0px" y="0px"
	 width="198.43px" height="41.091px" viewBox="0 0 198.43 41.091" enable-background="new 0 0 198.43 41.091" xml:space="preserve">
<path fill="#010101" d="M196.982,25.35c0.443,0.248,0.811,0.613,1.063,1.055c0.26,0.456,0.393,0.973,0.385,1.497
	c0.004,0.527-0.131,1.046-0.392,1.504c-0.255,0.447-0.626,0.818-1.073,1.073c-0.455,0.264-0.973,0.398-1.498,0.392
	c-0.525,0.009-1.043-0.127-1.496-0.392c-0.445-0.256-0.812-0.627-1.063-1.073c-0.521-0.924-0.521-2.053,0-2.976
	c0.254-0.447,0.622-0.818,1.068-1.074c0.456-0.265,0.976-0.399,1.503-0.392C196.006,24.956,196.525,25.089,196.982,25.35z
	 M196.807,30.194c1.252-0.752,1.678-2.366,0.96-3.639c-0.221-0.396-0.546-0.724-0.941-0.947c-0.409-0.235-0.874-0.355-1.346-0.348
	c-0.474-0.007-0.94,0.113-1.352,0.348c-0.397,0.229-0.728,0.561-0.954,0.96c-0.463,0.831-0.463,1.842,0,2.672
	C193.922,30.496,195.538,30.921,196.807,30.194z M196.769,27.99c-0.139,0.188-0.333,0.327-0.556,0.397l0.783,1.207h-0.449
	l-0.727-1.118h-0.189h-0.871v1.118h-0.436v-3.367h1.307c0.353-0.019,0.699,0.089,0.979,0.303c0.241,0.201,0.374,0.502,0.36,0.815
	c0.007,0.235-0.064,0.466-0.202,0.657V27.99z M196.288,27.908c0.167-0.144,0.259-0.355,0.247-0.575
	c0.012-0.214-0.08-0.421-0.247-0.556c-0.201-0.141-0.443-0.21-0.688-0.196h-0.853v1.522h0.853c0.244,0.021,0.487-0.045,0.688-0.184
	V27.908z"/>
<path fill="#010101" d="M42.67,34.325h0.594v6.734H42.67V34.325z"/>
<path fill="#010101" d="M51.798,34.325v6.734h-0.499l-4.536-5.686v5.686h-0.632v-6.734h0.505l4.523,5.686v-5.686H51.798z"/>
<path fill="#010101" d="M55.335,34.856v2.772h3.588v0.512h-3.588v2.919h-0.6v-6.734h4.643v0.531H55.335z"/>
<path fill="#010101" d="M62.296,40.674c-1.095-0.592-1.77-1.743-1.75-2.987c-0.006-0.611,0.155-1.212,0.468-1.737
	c0.297-0.529,0.734-0.967,1.263-1.264c0.557-0.305,1.184-0.459,1.819-0.448c0.633-0.012,1.258,0.144,1.813,0.448
	c0.529,0.297,0.966,0.734,1.263,1.264c0.313,0.525,0.474,1.126,0.467,1.737c0.02,1.244-0.654,2.396-1.75,2.987
	c-0.556,0.303-1.18,0.457-1.813,0.448C63.456,41.124,62.843,40.97,62.296,40.674z M65.625,40.213c0.444-0.241,0.813-0.6,1.067-1.036
	c0.514-0.921,0.514-2.042,0-2.963c-0.256-0.433-0.625-0.789-1.067-1.029c-0.943-0.505-2.077-0.505-3.02,0
	c-0.442,0.24-0.807,0.599-1.055,1.036c-0.521,0.916-0.521,2.04,0,2.956c0.248,0.438,0.613,0.796,1.055,1.036
	C63.553,40.702,64.678,40.702,65.625,40.213z"/>
<path fill="#010101" d="M74.576,41.06l-1.598-2.211c-0.209,0.026-0.42,0.039-0.632,0.038h-1.895v2.173h-0.6v-6.734h2.527
	c0.729-0.034,1.447,0.189,2.028,0.632c0.5,0.401,0.783,1.015,0.764,1.655c0.017,0.478-0.127,0.947-0.411,1.333
	c-0.3,0.377-0.711,0.651-1.175,0.783l1.693,2.331H74.576z M73.944,37.901c0.722-0.694,0.746-1.842,0.052-2.563
	c-0.017-0.018-0.034-0.035-0.052-0.052c-0.474-0.331-1.047-0.489-1.623-0.449h-1.896v3.569h1.896
	c0.592,0.041,1.179-0.131,1.655-0.486L73.944,37.901z"/>
<path fill="#010101" d="M84.531,34.325v6.734h-0.587V35.45l-2.773,4.725h-0.316l-2.773-4.662v5.547h-0.587v-6.734h0.512l3.007,5.098
	l3-5.098H84.531z"/>
<path fill="#010101" d="M91.549,39.196h-3.91l-0.859,1.895h-0.632l3.121-6.733h0.632l3.158,6.733h-0.632L91.549,39.196z
	 M91.31,38.69l-1.718-3.752l-1.725,3.752H91.31z"/>
<path fill="#010101" d="M95.384,34.856h-2.438v-0.531h5.477v0.531h-2.407v6.203h-0.631V34.856z"/>
<path fill="#010101" d="M100.052,34.325h0.632v6.734h-0.632V34.325z"/>
<path fill="#010101" d="M104.588,40.674c-0.525-0.302-0.962-0.738-1.264-1.264c-0.311-0.532-0.471-1.14-0.461-1.756
	c-0.02-1.237,0.653-2.382,1.743-2.969c1.14-0.598,2.499-0.598,3.638,0c1.085,0.592,1.756,1.733,1.744,2.969
	c0.018,1.242-0.652,2.393-1.744,2.988c-1.139,0.598-2.498,0.598-3.638,0L104.588,40.674z M107.916,40.213
	c0.445-0.239,0.815-0.598,1.068-1.036c0.514-0.921,0.514-2.042,0-2.963c-0.255-0.435-0.625-0.791-1.068-1.029
	c-0.943-0.505-2.076-0.505-3.02,0c-0.439,0.243-0.803,0.602-1.055,1.036c-0.521,0.916-0.521,2.04,0,2.956
	c0.252,0.435,0.615,0.793,1.055,1.036C105.844,40.702,106.969,40.702,107.916,40.213z"/>
<path fill="#010101" d="M117.803,34.325v6.734h-0.5l-4.535-5.686v5.686h-0.632v-6.734h0.505l4.523,5.686v-5.686H117.803z"/>
<path fill="#010101" d="M125.18,34.856h-2.438v-0.531h5.488v0.531h-2.438v6.203h-0.632L125.18,34.856z"/>
<path fill="#010101" d="M134.604,40.548v0.512h-4.757v-6.734h4.618v0.531h-4.024v2.526h3.595v0.512h-3.595v2.646L134.604,40.548z"/>
<path fill="#010101" d="M137.789,40.674c-0.525-0.302-0.962-0.738-1.264-1.264c-0.311-0.532-0.471-1.14-0.461-1.756
	c-0.02-1.237,0.653-2.382,1.742-2.969c0.559-0.305,1.186-0.459,1.82-0.448c0.474-0.009,0.945,0.072,1.389,0.24
	c0.407,0.148,0.775,0.388,1.074,0.701l-0.385,0.41c-0.562-0.543-1.324-0.827-2.104-0.783c-0.529-0.008-1.053,0.123-1.516,0.379
	c-0.423,0.248-0.771,0.604-1.012,1.029c-0.521,0.914-0.521,2.036,0,2.95c0.254,0.437,0.621,0.797,1.062,1.042
	c0.464,0.254,0.987,0.383,1.517,0.373c0.77,0.027,1.518-0.266,2.064-0.809l0.386,0.392c-0.306,0.313-0.677,0.557-1.087,0.714
	c-1.045,0.389-2.207,0.315-3.195-0.202H137.789z"/>
<path fill="#010101" d="M144.137,34.325h0.6v3.064h4.422v-3.064h0.633v6.734h-0.633v-3.158h-4.422v3.158h-0.6V34.325z"/>
<path fill="#010101" d="M158.324,34.325v6.734h-0.506l-4.528-5.686v5.686h-0.601v-6.734h0.506l4.516,5.686v-5.686H158.324z"/>
<path fill="#010101" d="M162.26,40.674c-1.096-0.592-1.77-1.743-1.75-2.987c-0.006-0.611,0.155-1.212,0.468-1.737
	c0.297-0.529,0.733-0.967,1.263-1.264c0.558-0.305,1.185-0.459,1.82-0.448c0.633-0.012,1.258,0.144,1.813,0.448
	c0.529,0.297,0.967,0.734,1.264,1.264c0.313,0.525,0.474,1.126,0.467,1.737c0.02,1.244-0.654,2.396-1.75,2.987
	c-0.556,0.303-1.18,0.457-1.813,0.448C163.419,41.124,162.807,40.97,162.26,40.674z M165.588,40.213
	c0.445-0.239,0.816-0.598,1.068-1.036c0.514-0.921,0.514-2.042,0-2.963c-0.254-0.435-0.624-0.791-1.068-1.029
	c-0.942-0.505-2.076-0.505-3.019,0c-0.442,0.24-0.808,0.599-1.056,1.036c-0.521,0.916-0.521,2.04,0,2.956
	c0.248,0.438,0.613,0.796,1.056,1.036C163.516,40.702,164.642,40.702,165.588,40.213z"/>
<path fill="#010101" d="M169.84,34.325h0.6v6.223h3.904v0.512h-4.479L169.84,34.325z"/>
<path fill="#010101" d="M176.871,40.674c-0.525-0.302-0.962-0.738-1.264-1.264c-0.311-0.532-0.471-1.14-0.461-1.756
	c-0.02-1.237,0.653-2.382,1.742-2.969c1.141-0.598,2.5-0.598,3.639,0c1.085,0.592,1.756,1.733,1.744,2.969
	c0.018,1.242-0.652,2.393-1.744,2.988c-1.139,0.598-2.498,0.598-3.639,0L176.871,40.674z M180.199,40.213
	c0.445-0.239,0.815-0.598,1.068-1.036c0.514-0.921,0.514-2.042,0-2.963c-0.256-0.435-0.625-0.791-1.068-1.029
	c-0.943-0.505-2.076-0.505-3.02,0c-0.439,0.243-0.804,0.602-1.055,1.036c-0.521,0.916-0.521,2.04,0,2.956
	c0.251,0.435,0.615,0.793,1.055,1.036C178.127,40.702,179.252,40.702,180.199,40.213z"/>
<path fill="#010101" d="M189.17,37.711h0.587v2.527c-0.321,0.281-0.694,0.495-1.099,0.632c-0.436,0.147-0.893,0.223-1.353,0.221
	c-0.647,0.009-1.286-0.146-1.856-0.448c-1.1-0.589-1.777-1.742-1.757-2.988c-0.013-1.237,0.661-2.38,1.75-2.969
	c0.563-0.305,1.197-0.459,1.838-0.448c0.483-0.009,0.962,0.073,1.415,0.24c0.412,0.146,0.783,0.387,1.086,0.701l-0.385,0.41
	c-0.561-0.548-1.32-0.842-2.104-0.814c-0.535-0.009-1.064,0.122-1.535,0.379c-0.443,0.238-0.813,0.595-1.067,1.029
	c-0.521,0.914-0.521,2.036,0,2.95c0.257,0.438,0.628,0.799,1.074,1.042c0.474,0.253,1.004,0.382,1.541,0.373
	c0.679,0.032,1.347-0.169,1.896-0.568L189.17,37.711z"/>
<path fill="#010101" d="M194.646,38.849v2.211h-0.594v-2.211l-2.805-4.523h0.662l2.451,3.936l2.451-3.936h0.632L194.646,38.849z"/>
<path fill="#EF8022" d="M0,1.213h6.582c4.245,0,7.403,0.526,9.475,1.579c2.175,1.163,3.951,2.952,5.098,5.136
	c1.383,2.542,2.076,5.401,2.009,8.294c0.022,2.12-0.359,4.226-1.124,6.203c-0.671,1.775-1.726,3.38-3.089,4.699
	c-1.205,1.179-2.667,2.061-4.27,2.578c-1.533,0.479-4.192,0.718-7.978,0.713H0V1.213z M5.521,6.576v18.42h2.577
	c2.527,0,4.384-0.291,5.534-0.872c1.216-0.665,2.192-1.694,2.792-2.943c0.768-1.571,1.144-3.306,1.093-5.054
	c0-3.1-0.868-5.504-2.603-7.214c-1.558-1.541-4.066-2.31-7.523-2.306L5.521,6.576z"/>
<path fill="#EF8022" d="M26.486,8.263h5.477v10.959c-0.069,1.42,0.072,2.842,0.417,4.22c0.243,0.738,0.714,1.379,1.346,1.832
	c0.673,0.448,1.472,0.67,2.28,0.632c0.811,0.029,1.611-0.191,2.293-0.632c0.659-0.466,1.153-1.129,1.409-1.895
	c0.292-1.31,0.404-2.652,0.334-3.992V8.263h5.439v9.709c0,3.79-0.297,6.371-0.891,7.744c-0.647,1.598-1.77,2.958-3.215,3.897
	c-1.632,0.963-3.507,1.435-5.401,1.358c-2.036,0.098-4.05-0.458-5.748-1.586c-1.49-1.093-2.576-2.647-3.089-4.422
	c-0.421-1.306-0.632-3.687-0.632-7.145L26.486,8.263z"/>
<path fill="#EF8022" d="M57.401,1.137v7.126h3.67v4.207h-3.67v11.408c-0.055,0.606,0.106,1.212,0.455,1.712
	c0.488,0.403,1.121,0.588,1.75,0.512c0.559,0.001,1.118-0.05,1.667-0.152v4.353c-1.126,0.341-2.297,0.514-3.474,0.512
	c-4,0.009-6.047-2.023-6.14-6.096V12.47H48.5V8.263h3.158V1.137H57.401z"/>
<path fill="#EF8022" d="M85.909,13.266l-4.51,2.482c-1.345-1.586-3.349-2.459-5.426-2.362c-1.817-0.079-3.589,0.574-4.921,1.813
	c-1.261,1.212-1.949,2.901-1.895,4.649c-0.062,1.688,0.595,3.321,1.807,4.497c1.287,1.193,2.998,1.821,4.75,1.744
	c2.181,0.117,4.289-0.804,5.685-2.482l4.27,2.931c-2.312,3.015-5.58,4.521-9.804,4.517c-3.79,0-6.765-1.125-8.926-3.373
	c-4.366-4.406-4.334-11.518,0.071-15.884c0.783-0.776,1.677-1.433,2.651-1.949c1.934-1.019,4.093-1.535,6.279-1.503
	c1.999-0.038,3.979,0.395,5.78,1.264C83.407,10.448,84.849,11.708,85.909,13.266z"/>
<path fill="#EF8022" d="M88.877,1.137h5.382v9.943c0.953-0.846,2.031-1.539,3.196-2.054c1.026-0.446,2.134-0.679,3.253-0.682
	c2.035-0.045,3.996,0.761,5.413,2.224c1.264,1.263,1.896,3.158,1.896,5.685v14.276h-5.344v-9.476
	c0.064-1.702-0.055-3.407-0.354-5.085c-0.173-0.793-0.614-1.503-1.251-2.009c-0.619-0.441-1.368-0.664-2.128-0.632
	c-1.038-0.017-2.043,0.368-2.805,1.074c-0.832,0.809-1.404,1.847-1.642,2.981c-0.209,1.464-0.288,2.944-0.234,4.422v8.692h-5.382
	V1.137z"/>
<path fill="#010101" d="M108.599,8.345h5.521l5.458,13.297l5.444-13.297h5.496l-9.191,22.153h-3.518L108.599,8.345z"/>
<path fill="#010101" d="M136.146,0c0.923-0.01,1.809,0.366,2.444,1.036c0.672,0.667,1.04,1.58,1.017,2.526
	c0.018,0.928-0.349,1.82-1.01,2.47c-0.627,0.663-1.502,1.034-2.414,1.023c-0.931,0.014-1.824-0.364-2.463-1.042
	c-0.67-0.669-1.039-1.58-1.023-2.526c0.004-1.904,1.545-3.448,3.449-3.456V0z M133.436,8.345h5.42v22.153h-5.42V8.345z"/>
<path fill="#010101" d="M164.982,21.269h-17.416c0.195,1.427,0.914,2.73,2.016,3.657c1.186,0.941,2.67,1.426,4.182,1.365
	c1.958,0.028,3.844-0.74,5.225-2.129l4.566,2.147c-1.038,1.522-2.447,2.755-4.094,3.582c-1.78,0.819-3.726,1.217-5.685,1.162
	c-3.369,0-6.128-1.07-8.275-3.209c-2.127-2.121-3.284-5.026-3.196-8.029c-0.104-3.052,1.037-6.016,3.158-8.211
	c2.098-2.173,5.018-3.356,8.035-3.26c3.407,0,6.174,1.089,8.301,3.266s3.191,5.052,3.195,8.622L164.982,21.269z M159.563,16.999
	c-0.351-1.193-1.1-2.23-2.123-2.938c-1.067-0.762-2.352-1.158-3.663-1.131c-1.43-0.029-2.829,0.415-3.979,1.264
	c-0.882,0.757-1.563,1.721-1.984,2.805H159.563z"/>
<path fill="#010101" d="M165.381,8.414h5.306l4.825,12.772l4.422-12.842h3.254l4.852,12.703l4.352-12.703h5.325l-7.89,22.153h-3.43
	l-4.611-12.306l-4.744,12.312h-3.393L165.381,8.414z"/>
</svg>
