<?xml version="1.0" encoding="utf-8"?>
<!-- Generator: Adobe Illustrator 14.0.0, SVG Export Plug-In . SVG Version: 6.00 Build 43363)  -->
<!DOCTYPE svg PUBLIC "-//W3C//DTD SVG 1.1//EN" "http://www.w3.org/Graphics/SVG/1.1/DTD/svg11.dtd">
<svg version="1.1" id="Layer_1" xmlns="http://www.w3.org/2000/svg" xmlns:xlink="http://www.w3.org/1999/xlink" x="0px" y="0px"
	 width="537.945px" height="150.875px" viewBox="0 0 537.945 150.875" enable-background="new 0 0 537.945 150.875"
	 xml:space="preserve">
<polygon points="373.001,58.525 365.877,58.525 318.805,105.598 325.922,105.604 "/>
<polygon points="372.988,105.604 365.863,105.604 318.788,58.528 325.923,58.539 "/>
<polygon points="420.02,105.604 412.895,105.604 365.821,58.528 372.956,58.539 "/>
<polygon points="0,59.276 0,105.604 5.496,105.604 5.496,84.797 27.09,84.797 27.09,79.691 5.496,79.691 5.496,64.38 28.725,64.38 
	28.725,59.276 "/>
<polygon points="36.381,59.276 41.877,59.276 41.877,100.5 63.078,100.5 63.078,105.604 36.381,105.604 "/>
<path d="M90.626,101.676c2.704,0,5.179-0.5,7.427-1.504c2.246-1.004,4.176-2.377,5.79-4.123c1.614-1.744,2.869-3.785,3.763-6.119
	c0.894-2.332,1.341-4.83,1.341-7.49s-0.447-5.158-1.341-7.492s-2.149-4.373-3.763-6.118c-1.614-1.744-3.544-3.119-5.79-4.123
	c-2.248-1.002-4.723-1.505-7.427-1.505c-2.705,0-5.18,0.503-7.427,1.505c-2.247,1.004-4.177,2.379-5.791,4.123
	c-1.614,1.745-2.868,3.784-3.762,6.118s-1.342,4.832-1.342,7.492s0.448,5.158,1.342,7.49c0.894,2.334,2.148,4.375,3.762,6.119
	c1.614,1.746,3.544,3.119,5.791,4.123C85.446,101.176,87.921,101.676,90.626,101.676 M90.626,106.781
	c-3.533,0-6.772-0.611-9.717-1.832c-2.944-1.223-5.496-2.912-7.656-5.072c-2.159-2.16-3.839-4.732-5.038-7.721
	c-1.2-2.986-1.8-6.227-1.8-9.717s0.6-6.729,1.8-9.717c1.199-2.988,2.879-5.562,5.038-7.721c2.16-2.159,4.712-3.849,7.656-5.072
	c2.945-1.22,6.184-1.832,9.717-1.832c3.534,0,6.772,0.612,9.717,1.832c2.945,1.223,5.497,2.913,7.656,5.072
	c2.159,2.159,3.838,4.733,5.038,7.721c1.199,2.988,1.8,6.227,1.8,9.717s-0.601,6.73-1.8,9.717c-1.2,2.988-2.879,5.561-5.038,7.721
	s-4.711,3.85-7.656,5.072C97.398,106.17,94.16,106.781,90.626,106.781"/>
<path d="M145.198,101.676c2.704,0,5.179-0.5,7.427-1.504c2.246-1.004,4.176-2.377,5.79-4.123c1.614-1.744,2.869-3.785,3.763-6.119
	c0.894-2.332,1.341-4.83,1.341-7.49s-0.447-5.158-1.341-7.492s-2.149-4.373-3.763-6.118c-1.614-1.744-3.544-3.119-5.79-4.123
	c-2.248-1.002-4.723-1.505-7.427-1.505c-2.705,0-5.18,0.503-7.427,1.505c-2.247,1.004-4.177,2.379-5.791,4.123
	c-1.614,1.745-2.868,3.784-3.762,6.118c-0.895,2.334-1.342,4.832-1.342,7.492s0.447,5.158,1.342,7.49
	c0.894,2.334,2.148,4.375,3.762,6.119c1.614,1.746,3.544,3.119,5.791,4.123C140.018,101.176,142.493,101.676,145.198,101.676
	 M145.198,106.781c-3.533,0-6.772-0.611-9.717-1.832c-2.944-1.223-5.496-2.912-7.656-5.072c-2.159-2.16-3.839-4.732-5.038-7.721
	c-1.2-2.986-1.8-6.227-1.8-9.717s0.6-6.729,1.8-9.717c1.199-2.988,2.879-5.562,5.038-7.721c2.16-2.159,4.712-3.849,7.656-5.072
	c2.945-1.22,6.184-1.832,9.717-1.832s6.772,0.612,9.717,1.832c2.944,1.223,5.496,2.913,7.656,5.072
	c2.159,2.159,3.838,4.733,5.038,7.721c1.199,2.988,1.799,6.227,1.799,9.717s-0.6,6.73-1.799,9.717
	c-1.2,2.988-2.879,5.561-5.038,7.721c-2.16,2.16-4.712,3.85-7.656,5.072C151.97,106.17,148.731,106.781,145.198,106.781"/>
<path d="M183.738,79.691h4.908c1.526,0,3.108-0.043,4.744-0.131c1.636-0.086,3.141-0.371,4.515-0.852
	c1.374-0.479,2.508-1.232,3.403-2.258c0.892-1.023,1.341-2.496,1.341-4.417c0-1.657-0.328-2.987-0.981-3.991
	c-0.654-1.003-1.517-1.777-2.585-2.323c-1.07-0.545-2.269-0.905-3.599-1.08c-1.331-0.174-2.673-0.261-4.024-0.261h-7.722V79.691z
	 M178.242,59.276h11.844c2.224,0,4.438,0.131,6.641,0.393c2.203,0.261,4.176,0.829,5.922,1.701c1.745,0.873,3.163,2.149,4.252,3.828
	c1.09,1.68,1.638,3.959,1.638,6.837c0,3.403-1.027,6.151-3.076,8.245c-2.052,2.096-4.886,3.426-8.507,3.992l13.152,21.332h-6.74
	l-12.563-20.809h-7.067v20.809h-5.496V59.276z"/>
<polygon points="218.222,59.276 226.401,59.276 242.105,95.59 242.237,95.59 258.072,59.276 266.054,59.276 266.054,105.604 
	260.559,105.604 260.559,66.736 260.427,66.736 243.807,105.604 240.469,105.604 223.849,66.736 223.718,66.736 223.718,105.604 
	218.222,105.604 "/>
<path d="M295.106,66.343h-0.131l-9.619,22.771h18.91L295.106,66.343z M292.619,59.276h5.171l19.694,46.328h-6.413l-4.711-11.387
	h-23.164l-4.775,11.387h-6.216L292.619,59.276z"/>
<path fill="#0066B3" d="M219.798,123.463h3.455v18.197h-3.455V123.463z M218.992,116.939c0-0.691,0.25-1.287,0.748-1.785
	c0.5-0.5,1.094-0.75,1.786-0.75c0.691,0,1.285,0.25,1.785,0.75c0.498,0.498,0.748,1.094,0.748,1.785c0,0.689-0.25,1.285-0.748,1.785
	c-0.5,0.5-1.094,0.748-1.785,0.748c-0.692,0-1.286-0.248-1.786-0.748C219.242,118.225,218.992,117.629,218.992,116.939"/>
<path fill="#0066B3" d="M228.743,123.465h3.455v2.803h0.076c0.435-0.973,1.19-1.76,2.267-2.361c1.073-0.602,2.315-0.9,3.723-0.9
	c0.87,0,1.709,0.133,2.515,0.4c0.807,0.27,1.51,0.688,2.111,1.248c0.601,0.564,1.081,1.287,1.44,2.168
	c0.357,0.885,0.538,1.928,0.538,3.131v11.709h-3.455v-10.75c0-0.844-0.116-1.566-0.347-2.168c-0.229-0.602-0.538-1.09-0.922-1.461
	c-0.384-0.369-0.825-0.637-1.324-0.805c-0.499-0.166-1.017-0.248-1.555-0.248c-0.717,0-1.382,0.113-1.996,0.342
	c-0.615,0.232-1.15,0.598-1.613,1.098c-0.46,0.498-0.818,1.131-1.074,1.898c-0.257,0.77-0.384,1.678-0.384,2.727v9.367h-3.455
	V123.465z"/>
<path fill="#0066B3" d="M250.089,123.465h3.453v2.803h0.077c0.436-0.973,1.19-1.76,2.267-2.361c1.072-0.602,2.314-0.9,3.723-0.9
	c0.87,0,1.709,0.133,2.514,0.4c0.808,0.27,1.511,0.688,2.112,1.248c0.6,0.564,1.081,1.287,1.44,2.168
	c0.356,0.885,0.536,1.928,0.536,3.131v11.709h-3.453v-10.75c0-0.844-0.116-1.566-0.348-2.168c-0.229-0.602-0.538-1.09-0.922-1.461
	c-0.382-0.369-0.825-0.637-1.324-0.805c-0.499-0.166-1.016-0.248-1.555-0.248c-0.716,0-1.381,0.113-1.996,0.342
	c-0.615,0.232-1.149,0.598-1.613,1.098c-0.46,0.498-0.817,1.131-1.072,1.898c-0.256,0.77-0.386,1.678-0.386,2.727v9.367h-3.453
	V123.465z"/>
<path fill="#0066B3" d="M274.234,132.564c0,0.92,0.14,1.771,0.421,2.551c0.283,0.783,0.679,1.447,1.192,1.998
	c0.511,0.549,1.138,0.984,1.881,1.305c0.742,0.32,1.574,0.48,2.495,0.48s1.753-0.16,2.495-0.48c0.741-0.32,1.368-0.756,1.881-1.305
	c0.513-0.551,0.907-1.215,1.189-1.998c0.281-0.779,0.423-1.631,0.423-2.551c0-0.922-0.142-1.773-0.423-2.555
	c-0.282-0.779-0.677-1.445-1.189-1.996s-1.14-0.984-1.881-1.305c-0.742-0.32-1.574-0.479-2.495-0.479s-1.753,0.158-2.495,0.479
	c-0.743,0.32-1.37,0.754-1.881,1.305c-0.514,0.551-0.909,1.217-1.192,1.996C274.374,130.791,274.234,131.643,274.234,132.564
	 M270.549,132.564c0-1.332,0.25-2.574,0.748-3.727c0.5-1.15,1.185-2.162,2.056-3.031c0.869-0.869,1.892-1.555,3.07-2.055
	c1.177-0.498,2.443-0.748,3.801-0.748c1.354,0,2.623,0.25,3.801,0.748c1.176,0.5,2.2,1.186,3.071,2.055
	c0.868,0.869,1.555,1.881,2.053,3.031c0.5,1.152,0.75,2.395,0.75,3.727c0,1.33-0.25,2.578-0.75,3.742
	c-0.498,1.164-1.185,2.176-2.053,3.031c-0.871,0.859-1.896,1.537-3.071,2.035c-1.178,0.5-2.446,0.748-3.801,0.748
	c-1.357,0-2.624-0.248-3.801-0.748c-1.179-0.498-2.201-1.176-3.07-2.035c-0.871-0.855-1.556-1.867-2.056-3.031
	C270.799,135.143,270.549,133.895,270.549,132.564"/>
<polygon fill="#0066B3" points="292.047,123.465 296.039,123.465 301.49,137.4 306.711,123.465 310.398,123.465 303.257,141.662 
	299.455,141.662 "/>
<path fill="#0066B3" d="M323.257,132.908c-0.818,0-1.657,0.045-2.515,0.135c-0.856,0.09-1.638,0.264-2.34,0.52
	c-0.705,0.256-1.281,0.613-1.729,1.072c-0.447,0.463-0.672,1.051-0.672,1.768c0,1.051,0.353,1.805,1.057,2.264
	c0.703,0.461,1.656,0.693,2.859,0.693c0.947,0,1.753-0.16,2.419-0.48c0.665-0.32,1.202-0.736,1.612-1.248s0.704-1.082,0.883-1.709
	s0.269-1.248,0.269-1.861v-1.152H323.257z M313.506,125.691c0.974-0.896,2.099-1.568,3.38-2.016
	c1.278-0.447,2.558-0.672,3.839-0.672c1.33,0,2.475,0.166,3.435,0.498c0.96,0.334,1.747,0.783,2.361,1.346s1.068,1.209,1.362,1.938
	c0.295,0.73,0.441,1.492,0.441,2.285v9.291c0,0.639,0.013,1.227,0.038,1.764c0.026,0.539,0.063,1.051,0.116,1.537h-3.071
	c-0.077-0.922-0.116-1.844-0.116-2.764h-0.076c-0.768,1.176-1.677,2.01-2.726,2.496c-1.048,0.484-2.265,0.727-3.646,0.727
	c-0.846,0-1.65-0.113-2.42-0.344c-0.767-0.232-1.438-0.576-2.015-1.037c-0.576-0.461-1.03-1.029-1.362-1.709
	c-0.333-0.676-0.5-1.465-0.5-2.361c0-1.176,0.264-2.162,0.788-2.955c0.525-0.793,1.24-1.439,2.15-1.938
	c0.907-0.5,1.97-0.857,3.185-1.076c1.217-0.217,2.516-0.326,3.898-0.326h2.532v-0.768c0-0.461-0.09-0.922-0.269-1.381
	c-0.179-0.461-0.448-0.877-0.805-1.248c-0.36-0.371-0.807-0.666-1.345-0.885c-0.537-0.217-1.179-0.326-1.919-0.326
	c-0.666,0-1.248,0.064-1.747,0.191c-0.499,0.129-0.954,0.289-1.363,0.48c-0.41,0.191-0.781,0.416-1.113,0.672
	c-0.333,0.258-0.652,0.5-0.96,0.73L313.506,125.691z"/>
<path fill="#0066B3" d="M343.105,126.459h-4.952v8.254c0,0.514,0.012,1.018,0.039,1.518c0.022,0.498,0.12,0.945,0.288,1.342
	c0.164,0.398,0.422,0.717,0.767,0.961c0.345,0.242,0.851,0.363,1.515,0.363c0.41,0,0.832-0.039,1.27-0.113
	c0.433-0.078,0.831-0.219,1.188-0.424v3.148c-0.408,0.23-0.938,0.389-1.593,0.479c-0.651,0.092-1.158,0.137-1.515,0.137
	c-1.331,0-2.361-0.186-3.092-0.559c-0.729-0.369-1.267-0.85-1.611-1.438c-0.346-0.59-0.551-1.248-0.615-1.979
	c-0.063-0.729-0.095-1.463-0.095-2.207v-9.482h-3.992v-2.994h3.992v-5.105h3.455v5.105h4.952V126.459z"/>
<path fill="#0066B3" d="M347.827,123.463h3.455v18.197h-3.455V123.463z M347.021,116.939c0-0.691,0.25-1.287,0.747-1.785
	c0.5-0.5,1.095-0.75,1.786-0.75s1.285,0.25,1.785,0.75c0.497,0.498,0.747,1.094,0.747,1.785c0,0.689-0.25,1.285-0.747,1.785
	c-0.5,0.5-1.094,0.748-1.785,0.748s-1.286-0.248-1.786-0.748C347.271,118.225,347.021,117.629,347.021,116.939"/>
<polygon fill="#0066B3" points="354.582,123.465 358.575,123.465 364.026,137.4 369.247,123.465 372.934,123.465 365.793,141.662 
	361.991,141.662 "/>
<path fill="#0066B3" d="M389.479,131.064c-0.023-0.766-0.146-1.471-0.363-2.109c-0.219-0.641-0.545-1.195-0.98-1.67
	c-0.434-0.475-0.979-0.846-1.631-1.113c-0.652-0.27-1.414-0.404-2.283-0.404c-0.844,0-1.621,0.162-2.324,0.48
	c-0.705,0.32-1.299,0.734-1.784,1.248c-0.487,0.512-0.863,1.082-1.134,1.709c-0.269,0.627-0.401,1.248-0.401,1.859H389.479z
	 M378.578,133.83c0,0.795,0.172,1.518,0.517,2.17c0.347,0.65,0.8,1.209,1.363,1.67c0.563,0.461,1.215,0.818,1.959,1.074
	c0.74,0.256,1.51,0.385,2.303,0.385c1.074,0,2.008-0.25,2.803-0.75c0.793-0.498,1.523-1.158,2.189-1.977l2.607,1.996
	c-1.918,2.482-4.605,3.725-8.061,3.725c-1.434,0-2.732-0.244-3.896-0.73c-1.166-0.486-2.15-1.156-2.956-2.014
	c-0.808-0.859-1.428-1.869-1.862-3.033c-0.436-1.166-0.653-2.426-0.653-3.783c0-1.355,0.238-2.615,0.712-3.781
	c0.472-1.162,1.125-2.176,1.957-3.031c0.831-0.857,1.823-1.529,2.974-2.018c1.152-0.484,2.406-0.729,3.764-0.729
	c1.611,0,2.975,0.283,4.088,0.846c1.115,0.563,2.029,1.297,2.746,2.207c0.715,0.908,1.232,1.932,1.555,3.07
	c0.32,1.139,0.48,2.299,0.48,3.475v1.229H378.578z"/>
<path fill="#0066B3" d="M409.327,126.459h-3.916v-2.994h3.916v-4.068c0-2.432,0.467-4.244,1.4-5.434s2.541-1.785,4.818-1.785
	c0.385,0,0.787,0.014,1.209,0.039c0.424,0.025,0.877,0.102,1.363,0.23l-0.385,3.072c-0.332-0.129-0.652-0.219-0.959-0.27
	s-0.641-0.078-0.998-0.078c-0.639,0-1.15,0.098-1.535,0.289s-0.686,0.467-0.902,0.826c-0.219,0.357-0.359,0.785-0.422,1.285
	c-0.064,0.498-0.098,1.07-0.098,1.709v4.184h4.109v2.994h-4.146v15.203h-3.455V126.459z"/>
<rect x="421.036" y="112.639" fill="#0066B3" width="3.453" height="29.023"/>
<path fill="#0066B3" d="M432.782,132.564c0,0.92,0.139,1.771,0.42,2.551c0.283,0.783,0.68,1.447,1.193,1.998
	c0.51,0.549,1.137,0.984,1.881,1.305c0.742,0.32,1.574,0.48,2.494,0.48c0.922,0,1.754-0.16,2.496-0.48
	c0.74-0.32,1.367-0.756,1.881-1.305c0.512-0.551,0.906-1.215,1.189-1.998c0.281-0.779,0.422-1.631,0.422-2.551
	c0-0.922-0.141-1.773-0.422-2.555c-0.283-0.779-0.678-1.445-1.189-1.996c-0.514-0.551-1.141-0.984-1.881-1.305
	c-0.742-0.32-1.574-0.479-2.496-0.479c-0.92,0-1.752,0.158-2.494,0.479c-0.744,0.32-1.371,0.754-1.881,1.305
	c-0.514,0.551-0.91,1.217-1.193,1.996C432.92,130.791,432.782,131.643,432.782,132.564 M429.096,132.564
	c0-1.332,0.248-2.574,0.748-3.727c0.5-1.15,1.184-2.162,2.055-3.031c0.869-0.869,1.895-1.555,3.07-2.055
	c1.178-0.498,2.443-0.748,3.801-0.748s2.623,0.25,3.801,0.748c1.176,0.5,2.201,1.186,3.072,2.055
	c0.869,0.869,1.553,1.881,2.053,3.031c0.5,1.152,0.748,2.395,0.748,3.727c0,1.33-0.248,2.578-0.748,3.742s-1.184,2.176-2.053,3.031
	c-0.871,0.859-1.896,1.537-3.072,2.035c-1.178,0.5-2.443,0.748-3.801,0.748s-2.623-0.248-3.801-0.748
	c-1.176-0.498-2.201-1.176-3.07-2.035c-0.871-0.855-1.555-1.867-2.055-3.031S429.096,133.895,429.096,132.564"/>
<path fill="#0066B3" d="M455.586,132.564c0,0.92,0.139,1.771,0.42,2.551c0.283,0.783,0.678,1.447,1.193,1.998
	c0.51,0.549,1.137,0.984,1.881,1.305c0.74,0.32,1.572,0.48,2.494,0.48s1.754-0.16,2.494-0.48c0.742-0.32,1.369-0.756,1.883-1.305
	c0.512-0.551,0.908-1.215,1.188-1.998c0.283-0.779,0.424-1.631,0.424-2.551c0-0.922-0.141-1.773-0.424-2.555
	c-0.279-0.779-0.676-1.445-1.188-1.996c-0.514-0.551-1.141-0.984-1.883-1.305c-0.74-0.32-1.572-0.479-2.494-0.479
	s-1.754,0.158-2.494,0.479c-0.744,0.32-1.371,0.754-1.881,1.305c-0.516,0.551-0.91,1.217-1.193,1.996
	C455.725,130.791,455.586,131.643,455.586,132.564 M451.901,132.564c0-1.332,0.248-2.574,0.746-3.727
	c0.5-1.15,1.186-2.162,2.057-3.031c0.869-0.869,1.893-1.555,3.07-2.055c1.178-0.498,2.443-0.748,3.801-0.748
	c1.355,0,2.623,0.25,3.801,0.748c1.176,0.5,2.201,1.186,3.072,2.055c0.867,0.869,1.553,1.881,2.053,3.031
	c0.5,1.152,0.748,2.395,0.748,3.727c0,1.33-0.248,2.578-0.748,3.742s-1.186,2.176-2.053,3.031c-0.871,0.859-1.896,1.537-3.072,2.035
	c-1.178,0.5-2.445,0.748-3.801,0.748c-1.357,0-2.623-0.248-3.801-0.748c-1.178-0.498-2.201-1.176-3.07-2.035
	c-0.871-0.855-1.557-1.867-2.057-3.031C452.149,135.143,451.901,133.895,451.901,132.564"/>
<path fill="#0066B3" d="M475.586,123.465h3.455v2.803h0.076c0.232-0.486,0.535-0.928,0.92-1.324s0.814-0.736,1.287-1.018
	c0.475-0.281,0.99-0.504,1.557-0.672c0.561-0.166,1.125-0.248,1.688-0.248s1.076,0.074,1.535,0.229l-0.152,3.723
	c-0.283-0.074-0.564-0.139-0.844-0.191c-0.283-0.051-0.564-0.076-0.846-0.076c-1.689,0-2.982,0.475-3.877,1.42
	c-0.898,0.949-1.344,2.418-1.344,4.416v9.137h-3.455V123.465z"/>
<path fill="#0066B3" d="M490.059,123.463h3.455v18.197h-3.455V123.463z M489.252,116.939c0-0.691,0.25-1.287,0.75-1.785
	c0.498-0.5,1.094-0.75,1.783-0.75c0.693,0,1.287,0.25,1.785,0.75c0.498,0.498,0.75,1.094,0.75,1.785c0,0.689-0.252,1.285-0.75,1.785
	s-1.092,0.748-1.785,0.748c-0.689,0-1.285-0.248-1.783-0.748C489.502,118.225,489.252,117.629,489.252,116.939"/>
<path fill="#0066B3" d="M499.004,123.465h3.455v2.803h0.074c0.438-0.973,1.193-1.76,2.268-2.361c1.072-0.602,2.314-0.9,3.725-0.9
	c0.869,0,1.707,0.133,2.512,0.4c0.809,0.27,1.512,0.688,2.113,1.248c0.6,0.564,1.08,1.287,1.439,2.168
	c0.357,0.885,0.537,1.928,0.537,3.131v11.709h-3.453v-10.75c0-0.844-0.117-1.566-0.35-2.168c-0.227-0.602-0.537-1.09-0.92-1.461
	c-0.383-0.369-0.824-0.637-1.324-0.805c-0.5-0.166-1.018-0.248-1.555-0.248c-0.715,0-1.381,0.113-1.996,0.342
	c-0.615,0.232-1.15,0.598-1.611,1.098c-0.463,0.498-0.82,1.131-1.074,1.898c-0.258,0.77-0.385,1.678-0.385,2.727v9.367h-3.455
	V123.465z"/>
<path fill="#0066B3" d="M529.139,126.229c-0.92,0-1.754,0.16-2.496,0.48s-1.369,0.756-1.879,1.305
	c-0.514,0.551-0.91,1.217-1.193,1.998c-0.281,0.779-0.42,1.631-0.42,2.553c0,1.84,0.535,3.32,1.613,4.434
	c1.074,1.113,2.531,1.67,4.375,1.67c1.842,0,3.301-0.557,4.377-1.67c1.074-1.113,1.611-2.594,1.611-4.434
	c0-0.922-0.141-1.773-0.424-2.553c-0.279-0.781-0.678-1.447-1.188-1.998c-0.514-0.549-1.141-0.984-1.881-1.305
	C530.893,126.389,530.061,126.229,529.139,126.229 M538.583,141.508c0,1.383-0.236,2.643-0.711,3.781s-1.145,2.123-2.016,2.955
	c-0.869,0.832-1.92,1.48-3.146,1.939c-1.229,0.461-2.586,0.691-4.07,0.691c-1.74,0-3.332-0.242-4.779-0.729
	c-1.447-0.488-2.822-1.332-4.127-2.535l2.342-2.916c0.896,0.973,1.867,1.707,2.916,2.207c1.051,0.498,2.242,0.748,3.572,0.748
	c1.279,0,2.342-0.186,3.186-0.557c0.846-0.371,1.518-0.852,2.018-1.439c0.498-0.59,0.848-1.262,1.053-2.016s0.309-1.516,0.309-2.285
	v-2.686h-0.115c-0.664,1.1-1.568,1.914-2.705,2.438c-1.141,0.525-2.336,0.787-3.59,0.787c-1.332,0-2.568-0.238-3.705-0.711
	c-1.141-0.473-2.117-1.125-2.938-1.957c-0.818-0.832-1.459-1.818-1.92-2.957c-0.459-1.139-0.689-2.373-0.689-3.703
	c0-1.332,0.217-2.58,0.65-3.744c0.438-1.166,1.059-2.182,1.863-3.053c0.805-0.869,1.779-1.547,2.916-2.033
	c1.141-0.486,2.414-0.729,3.822-0.729c1.227,0,2.424,0.268,3.59,0.805c1.164,0.537,2.08,1.293,2.746,2.264h0.074v-2.609h3.455
	V141.508z"/>
<path fill="#0066B3" d="M472.293,110.852l-55.848-55.849l54.965-54.962l0.824,0.823L473.104,0l0.908,0.908l-0.908,0.907l1.602,1.599
	l0.537,0.537c0.082,0.08,0.193,0.13,0.318,0.13c0.244,0,0.445-0.199,0.445-0.446l0.031-0.951c0-0.246,0.201-0.445,0.447-0.445
	c0.121,0,0.227,0.048,0.307,0.122l0.551,0.547c0.084,0.081,0.137,0.195,0.137,0.321c0,0,0.008,0.113-0.074,0.3
	c-0.119,0.263-0.004,0.574,0.211,0.788c0.213,0.213,0.525,0.328,0.789,0.21c0.188-0.083,0.301-0.072,0.301-0.072
	c0.127,0,0.24,0.051,0.322,0.135l0.541,0.539c0.08,0.081,0.129,0.192,0.129,0.316c0,0.246-0.199,0.446-0.445,0.446l-0.953,0.031
	c-0.248,0-0.447,0.2-0.447,0.446c0,0.119,0.047,0.227,0.123,0.307l0.549,0.547c0.082,0.084,0.195,0.136,0.32,0.136
	c0,0,0.113,0.01,0.301-0.073c0.264-0.118,0.576-0.003,0.791,0.211c0.213,0.213,0.328,0.524,0.211,0.787
	c-0.084,0.186-0.074,0.3-0.074,0.3c0,0.126,0.053,0.24,0.135,0.321l0.539,0.536c0.08,0.081,0.193,0.131,0.316,0.131
	c0.248,0,0.447-0.199,0.447-0.446l0.031-0.951c0-0.246,0.199-0.446,0.447-0.446c0.119,0,0.229,0.047,0.309,0.123l0.547,0.547
	c0.084,0.081,0.137,0.194,0.137,0.32c0,0,0.01,0.114-0.074,0.3c-0.117,0.264-0.002,0.575,0.211,0.788
	c0.215,0.214,0.527,0.329,0.791,0.212c0.188-0.084,0.301-0.074,0.301-0.074c0.125,0,0.24,0.053,0.32,0.136l0.541,0.54
	c0.082,0.08,0.131,0.191,0.131,0.314c0,0.246-0.199,0.446-0.445,0.446l-0.953,0.033c-0.248,0-0.447,0.199-0.447,0.445
	c0,0.119,0.047,0.227,0.123,0.307l0.547,0.547c0.082,0.083,0.195,0.135,0.322,0.135c0,0,0.113,0.011,0.301-0.073
	c0.264-0.118,0.576-0.003,0.791,0.211c0.213,0.213,0.33,0.524,0.209,0.788c-0.082,0.186-0.072,0.3-0.072,0.3
	c0,0.126,0.051,0.239,0.135,0.32l0.539,0.537c0.08,0.081,0.193,0.13,0.316,0.13c0.248,0,0.447-0.199,0.447-0.445l0.031-0.951
	c0-0.246,0.199-0.446,0.447-0.446c0.119,0,0.229,0.048,0.309,0.123l0.547,0.547c0.084,0.081,0.137,0.194,0.137,0.32
	c0,0,0.01,0.114-0.074,0.3c-0.117,0.264-0.002,0.574,0.211,0.788c0.215,0.214,0.527,0.329,0.791,0.21
	c0.188-0.083,0.301-0.072,0.301-0.072c0.127,0,0.24,0.052,0.32,0.135l0.541,0.54c0.082,0.08,0.131,0.192,0.131,0.315
	c0,0.246-0.199,0.446-0.445,0.446l-0.955,0.032c-0.244,0-0.445,0.199-0.445,0.445c0,0.119,0.045,0.227,0.123,0.307l0.547,0.547
	c0.082,0.084,0.195,0.136,0.322,0.136c0,0,0.113,0.01,0.301-0.073c0.264-0.118,0.576-0.003,0.789,0.211
	c0.215,0.213,0.33,0.524,0.211,0.788c-0.084,0.186-0.072,0.3-0.072,0.3c0,0.125,0.053,0.239,0.137,0.32l0.539,0.539
	c0.08,0.081,0.193,0.13,0.316,0.13c0.246,0,0.447-0.199,0.447-0.445l0.031-0.951c0-0.246,0.199-0.446,0.447-0.446
	c0.119,0,0.229,0.047,0.309,0.123l0.549,0.547c0.084,0.081,0.135,0.194,0.135,0.32c0,0,0.01,0.114-0.074,0.3
	c-0.117,0.264-0.002,0.575,0.211,0.788c0.215,0.214,0.527,0.329,0.791,0.21c0.188-0.083,0.301-0.073,0.301-0.073
	c0.127,0,0.24,0.053,0.32,0.136l0.541,0.54c0.082,0.08,0.131,0.192,0.131,0.315c0,0.247-0.199,0.446-0.445,0.446l-0.953,0.032
	c-0.248,0-0.447,0.199-0.447,0.445c0,0.119,0.045,0.227,0.123,0.307l0.547,0.547c0.082,0.084,0.195,0.137,0.322,0.137
	c0,0,0.113,0.009,0.301-0.074c0.264-0.118,0.576-0.003,0.789,0.21c0.215,0.214,0.33,0.525,0.211,0.789
	c-0.084,0.186-0.072,0.3-0.072,0.3c0,0.125,0.053,0.239,0.137,0.32l0.537,0.538c0.082,0.079,0.191,0.129,0.316,0.129
	c0.246,0,0.445-0.199,0.445-0.446l0.033-0.951c0-0.246,0.201-0.445,0.447-0.445c0.119,0,0.229,0.047,0.309,0.122l0.547,0.548
	c0.084,0.08,0.137,0.194,0.137,0.319c0,0,0.01,0.114-0.072,0.301c-0.119,0.263-0.004,0.574,0.211,0.788
	c0.213,0.213,0.523,0.328,0.789,0.21c0.186-0.083,0.301-0.073,0.301-0.073c0.127,0,0.238,0.052,0.32,0.136l0.541,0.539
	c0.08,0.081,0.131,0.192,0.131,0.316c0,0.246-0.199,0.445-0.445,0.445l-0.955,0.032c-0.246,0-0.447,0.2-0.447,0.447
	c0,0.118,0.047,0.226,0.123,0.306l0.549,0.548c0.082,0.084,0.195,0.135,0.322,0.135c0,0,0.113,0.011,0.299-0.072
	c0.266-0.119,0.578-0.004,0.791,0.209c0.215,0.214,0.33,0.525,0.211,0.789c-0.084,0.185-0.072,0.299-0.072,0.299
	c0,0.126,0.053,0.239,0.135,0.321l0.539,0.536c0.08,0.081,0.191,0.131,0.314,0.131c0.248,0,0.447-0.2,0.447-0.446l0.033-0.951
	c0-0.246,0.199-0.446,0.447-0.446c0.119,0,0.227,0.047,0.309,0.123l0.547,0.547c0.084,0.081,0.135,0.194,0.135,0.32
	c0,0,0.012,0.114-0.072,0.3c-0.117,0.264-0.002,0.575,0.211,0.789c0.215,0.213,0.525,0.328,0.791,0.21
	c0.186-0.084,0.301-0.073,0.301-0.073c0.127,0,0.24,0.052,0.32,0.135l0.541,0.54c0.08,0.082,0.131,0.192,0.131,0.315
	c0,0.247-0.199,0.446-0.447,0.446l-0.953,0.032c-0.246,0-0.447,0.199-0.447,0.446c0,0.119,0.047,0.227,0.123,0.307l0.549,0.547
	c0.08,0.083,0.195,0.136,0.32,0.136c0,0,0.117,0.01,0.301-0.074c0.266-0.118,0.576-0.003,0.791,0.211
	c0.213,0.213,0.328,0.524,0.211,0.788c-0.084,0.186-0.072,0.3-0.072,0.3c0,0.126,0.053,0.239,0.137,0.32l0.537,0.538
	c0.08,0.08,0.191,0.129,0.314,0.129c0.248,0,0.447-0.199,0.447-0.445l0.033-0.951c0-0.246,0.199-0.446,0.447-0.446
	c0.117,0,0.227,0.047,0.307,0.123l0.549,0.548c0.084,0.079,0.135,0.193,0.135,0.319c0,0,0.012,0.114-0.072,0.3
	c-0.117,0.264-0.002,0.574,0.211,0.788c0.215,0.214,0.525,0.328,0.791,0.21c0.186-0.083,0.301-0.072,0.301-0.072
	c0.125,0,0.24,0.051,0.32,0.135l0.541,0.54c0.082,0.08,0.131,0.192,0.131,0.315c0,0.246-0.199,0.445-0.447,0.445l-0.953,0.033
	c-0.246,0-0.447,0.199-0.447,0.446c0,0.118,0.047,0.226,0.123,0.306l0.549,0.548c0.08,0.084,0.195,0.135,0.32,0.135
	c0,0,0.115,0.011,0.301-0.072c0.266-0.119,0.576-0.004,0.791,0.209c0.215,0.214,0.328,0.525,0.211,0.79
	c-0.084,0.185-0.072,0.299-0.072,0.299c0,0.125,0.051,0.239,0.135,0.32l0.541,0.539c0.082,0.08,0.193,0.13,0.316,0.13
	c0.246,0,0.445-0.199,0.445-0.445l0.033-0.951c0-0.246,0.201-0.446,0.447-0.446c0.119,0,0.227,0.047,0.307,0.123l0.549,0.547
	c0.084,0.08,0.137,0.194,0.137,0.321c0,0,0.01,0.113-0.072,0.299c-0.121,0.264-0.004,0.574,0.211,0.788
	c0.213,0.213,0.525,0.328,0.789,0.21c0.186-0.083,0.301-0.073,0.301-0.073c0.125,0,0.24,0.052,0.32,0.136l0.541,0.539
	c0.082,0.082,0.131,0.193,0.131,0.316c0,0.246-0.199,0.445-0.447,0.445l-0.953,0.032c-0.246,0-0.447,0.2-0.447,0.446
	c0,0.119,0.047,0.227,0.123,0.307l0.549,0.547c0.082,0.084,0.195,0.136,0.32,0.136c0,0,0.115,0.01,0.303-0.073
	c0.264-0.117,0.574-0.003,0.789,0.21c0.215,0.215,0.328,0.525,0.211,0.789c-0.084,0.186-0.072,0.301-0.072,0.301
	c0,0.125,0.051,0.238,0.135,0.319l0.537,0.536c0.082,0.082,0.193,0.131,0.318,0.131c0.246,0,0.445-0.2,0.445-0.445l0.031-0.952
	c0-0.246,0.201-0.446,0.449-0.446c0.119,0,0.227,0.047,0.307,0.123l0.549,0.547c0.082,0.082,0.137,0.195,0.137,0.32
	c0,0,0.01,0.114-0.072,0.3c-0.121,0.264-0.004,0.575,0.209,0.788c0.213,0.214,0.525,0.329,0.791,0.211
	c0.186-0.084,0.299-0.073,0.299-0.073c0.127,0,0.242,0.052,0.322,0.136l0.541,0.539c0.08,0.081,0.131,0.192,0.131,0.315
	c0,0.246-0.201,0.446-0.447,0.446l-0.953,0.032c-0.248,0-0.447,0.2-0.447,0.446c0,0.119,0.047,0.228,0.123,0.307l0.549,0.547
	c0.082,0.083,0.193,0.135,0.32,0.135c0,0,0.115,0.011,0.301-0.072c0.266-0.118,0.576-0.003,0.791,0.21
	c0.213,0.213,0.33,0.524,0.211,0.788c-0.084,0.187-0.074,0.3-0.074,0.3c0,0.126,0.053,0.24,0.137,0.32l0.549,0.552
	c0.08,0.075,0.189,0.122,0.309,0.122c0.246,0,0.447-0.199,0.447-0.446l0.031-0.951c0-0.246,0.199-0.445,0.447-0.445
	c0.123,0,0.234,0.05,0.316,0.131l0.537,0.536l1.977,1.971l-0.801,0.798l0.912,0.909l-0.91,0.908l-0.91-0.908L472.293,110.852z"/>
<polygon fill="#FFFFFF" points="494.588,43.84 483.438,43.833 483.426,32.677 472.262,21.514 461.098,32.677 449.936,43.84 
	438.772,55.002 449.936,66.166 461.098,55.002 472.262,66.166 461.098,77.33 472.262,88.492 483.426,77.33 494.588,66.166 
	505.75,55.002 "/>
<polygon points="472.262,88.492 461.098,77.33 472.262,66.167 461.098,55.002 449.936,66.167 438.772,55.002 449.936,43.839 
	461.098,32.676 449.936,21.514 438.772,32.676 427.61,43.839 416.446,55.002 427.61,66.167 438.772,77.33 449.936,88.492 
	461.098,99.656 472.262,110.818 483.424,99.656 "/>
<polygon points="416.506,62.052 412.909,58.525 365.837,105.598 372.955,105.604 "/>
</svg>
