<?xml version="1.0" encoding="utf-8"?>
<!-- Generator: Adobe Illustrator 14.0.0, SVG Export Plug-In . SVG Version: 6.00 Build 43363)  -->
<!DOCTYPE svg PUBLIC "-//W3C//DTD SVG 1.1//EN" "http://www.w3.org/Graphics/SVG/1.1/DTD/svg11.dtd">
<svg version="1.1" id="Layer_1" xmlns="http://www.w3.org/2000/svg" xmlns:xlink="http://www.w3.org/1999/xlink" x="0px" y="0px"
	 width="398.311px" height="174.145px" viewBox="0 0 398.311 174.145" enable-background="new 0 0 398.311 174.145"
	 xml:space="preserve">
<g id="Layer_2" display="none">
	
		<linearGradient id="SVGID_1_" gradientUnits="userSpaceOnUse" x1="492.2668" y1="-191.9778" x2="492.2668" y2="-479.1956" gradientTransform="matrix(1 0 0 -1 -198.3848 -147.481)">
		<stop  offset="0" style="stop-color:#454545"/>
		<stop  offset="1" style="stop-color:#3B3B3B"/>
	</linearGradient>
	<rect x="-139.285" y="44.497" display="inline" fill="url(#SVGID_1_)" stroke="#999999" width="866.333" height="287.218"/>
</g>
<g id="Layer_1_1_">
	<g>
		<g>
			<polygon fill="#00B1F0" points="109.039,20.433 48.863,22.052 98.158,25.319 			"/>
			<g>
				<path fill="none" d="M139.242,23.842c-4.688,3.836-5.541,5.143,3.209,5.768c1.705,0.128,8.684,0.588,18.813,1.247l5.813-21.051
					C151.741,14.014,143.168,20.652,139.242,23.842z"/>
				<path fill="none" d="M172.615,8.464c-0.536,0.114-1.068,0.23-1.592,0.351l-9.54,22.058c15.79,1.024,39.124,2.527,62.055,3.999
					l-9.104-26.737C201.031,7.922,185.912,8.105,172.615,8.464z"/>
				<path fill="none" d="M246.24,10.233c-5.535-1.097-15.242-1.712-26.66-1.994l4.25,26.65c37.707,2.419,74.232,4.75,74.232,4.75
					l-18.693-16.065C268.593,17.81,256.573,12.284,246.24,10.233z"/>
				<path fill="#00B1F0" d="M389.066,61.205c-0.002,0-0.014-0.017-0.033-0.052c-0.295-0.474-2.701-4.349-12.988-9.438
					c10.393,4.441,16.855,9.033,16.855,9.033c-14.914-21.961-75.887-22.586-82.279-23.666s-29.209-17.275-48.611-26.65
					c-18.158-8.775-72.894-6.152-91.372-5.269c-1.269,0.063-2.365,0.114-3.269,0.152C153.306,5.941,117.703,8.3,117.703,8.3
					s10.457,3.409,20.428,1.932c3.574-0.536,15.723-1.206,30.807-1.662c-7.649,1.133-19.175,3.56-26.486,8.48
					c-0.32,0.216-0.643,0.431-0.961,0.645c-11.35,7.598-21.096,14.12,5.847,15.778c27.731,1.705,155.186,8.098,155.186,8.098
					s-5.797-6.434-13.697-12.726c6.553,3.776,12.127,7.21,15.83,9.317c10.852,6.166,20.881,2.755,45.4,6.166
					c7.592,1.054,14.588,3.029,20.637,5.257c4.326,2.539,14.834,9.035,17.834,13.891l4.629-1.731L389.066,61.205z M142.451,29.61
					c-8.75-0.625-7.898-1.932-3.209-5.768c3.926-3.19,12.499-9.828,27.836-14.037l-5.814,21.051
					C151.135,30.198,144.156,29.738,142.451,29.61z M161.483,30.872l9.54-22.058c0.523-0.12,1.056-0.236,1.592-0.351
					c13.297-0.359,28.417-0.542,41.818-0.33l9.105,26.737C200.607,33.4,177.272,31.897,161.483,30.872z M298.062,39.639
					c0,0-36.525-2.332-74.232-4.75l-4.25-26.65c11.418,0.282,21.125,0.897,26.66,1.994c10.334,2.053,22.354,7.577,33.129,13.341
					L298.062,39.639z"/>
			</g>
			<path fill="#00B1F0" d="M149.897,58.817c-30.488-4.231-34.55,19.634-34.55,19.634s5.341-17.476,31.141-16.424
				c25.568,1.052,30.057,30.487,30.057,30.487S180.38,63.078,149.897,58.817z"/>
			<path fill="#00B1F0" d="M350.909,58.817c-30.459-4.231-34.521,19.634-34.521,19.634s5.313-17.476,31.109-16.424
				c25.572,1.052,30.061,30.487,30.061,30.487S381.396,63.078,350.909,58.817z"/>
			<path fill="#00B1F0" d="M393.214,62.453c-0.283,16.365-4.975,30.429-5.541,32.417s-16.053,3.979-16.053,3.979
				c5.113-0.143,17.047-1.988,17.047-1.988s1.848-5.684,3.691-11.934C394.208,78.648,393.214,62.453,393.214,62.453z"/>
			<path fill="#00B1F0" d="M152.851,49.527c-7.981-1.31-16.049-2.019-23.485-2.361c0.767-0.027,1.454-0.054,2.029-0.078
				c35.26,1.547,168.682,4.884,197.293,6.645c31.453,1.903,45.518,10.541,45.518,10.541s-8.836-9.263-27.502-12.132
				c-18.668-2.897-205.618-7.357-212.493-7.045c-3.917,0.179-14.111-0.889-22.154-1.842l-9.423-6.053
				c1.775-2.684,3.795-4.957,5.837-6.057c5.968-3.209,22.389-13.211,22.389-13.211L116.854,9.38l7.869,9.177
				c0,0-27.729,14.491-30.06,22.588c-2.358,8.097-0.853,23.041-2.358,24.746c-1.479,1.704-5.539,4.261-5.769,7.672
				c-0.225,3.409,0.854,14.49,7.673,16.849c6.818,2.357,22.586,4.688,22.586,4.688s-23.895-7.047-25.798-10.457
				c-1.932-3.409-1.506-11.506,1.705-14.062c3.211-2.559,4.034-14.491,4.034-18.752c0-0.581,0.109-1.328,0.307-2.196
				c5.122-0.299,42.166-2.242,60.524,3.304c22.843,6.904,25.712,24.037,25.712,24.037l123.081,3.692l-121.377-6.249
				C184.983,74.416,181.433,54.242,152.851,49.527z"/>
			<polygon fill="#00B1F0" points="85.911,33.331 -0.999,35.832 88.412,40.833 			"/>
			<polygon fill="#00B1F0" points="19.029,52.169 83.356,55.408 87.02,50.55 			"/>
		</g>
	</g>
	<rect x="1.489" y="116.334" fill="#00B1F0" width="395.821" height="1.986"/>
	<g>
		<path fill="#231F20" d="M16.261,171.785c-2.187,0-4.201-0.361-6.047-1.088c-1.846-0.723-3.443-1.74-4.798-3.055
			c-1.353-1.311-2.405-2.854-3.156-4.633c-0.752-1.775-1.128-3.717-1.128-5.822c0-2.104,0.376-4.045,1.128-5.82
			c0.751-1.775,1.812-3.32,3.178-4.635c1.367-1.311,2.973-2.328,4.817-3.053c1.846-0.725,3.86-1.088,6.047-1.088
			c2.188,0,4.188,0.342,6.008,1.025c1.816,0.684,3.367,1.723,4.652,3.115l-1.886,1.928c-1.203-1.203-2.528-2.063-3.978-2.582
			c-1.448-0.521-3.008-0.779-4.675-0.779c-1.776,0-3.409,0.293-4.898,0.881c-1.49,0.588-2.788,1.422-3.896,2.502
			c-1.106,1.08-1.969,2.336-2.583,3.771s-0.923,3.014-0.923,4.734c0,1.695,0.309,3.268,0.923,4.715
			c0.614,1.449,1.477,2.715,2.583,3.793c1.106,1.08,2.404,1.914,3.896,2.5c1.489,0.59,3.108,0.883,4.857,0.883
			c1.642,0,3.191-0.246,4.653-0.738s2.81-1.324,4.039-2.5l1.722,2.295c-1.366,1.203-2.966,2.111-4.797,2.727
			C20.17,171.478,18.257,171.785,16.261,171.785z M23.888,167.765v-10.578h2.91v10.947L23.888,167.765z"/>
		<path fill="#231F20" d="M43.896,171.744c-2.241,0-4.21-0.473-5.904-1.414c-1.695-0.943-3.021-2.24-3.977-3.896
			c-0.957-1.652-1.437-3.547-1.437-5.678c0-2.133,0.458-4.02,1.374-5.658c0.915-1.641,2.173-2.932,3.771-3.875
			c1.6-0.943,3.396-1.414,5.392-1.414c2.022,0,3.819,0.457,5.392,1.373c1.571,0.916,2.81,2.201,3.711,3.855
			c0.901,1.652,1.354,3.561,1.354,5.719c0,0.137-0.007,0.281-0.021,0.432c-0.014,0.15-0.021,0.309-0.021,0.473H34.793v-2.176h17.181
			l-1.148,0.861c0-1.557-0.335-2.945-1.004-4.16c-0.671-1.217-1.579-2.166-2.728-2.85c-1.147-0.684-2.475-1.025-3.978-1.025
			c-1.476,0-2.802,0.342-3.977,1.025c-1.177,0.684-2.092,1.639-2.747,2.869c-0.656,1.229-0.984,2.639-0.984,4.223v0.451
			c0,1.641,0.362,3.082,1.087,4.326c0.724,1.242,1.735,2.213,3.034,2.91c1.298,0.697,2.78,1.047,4.448,1.047
			c1.312,0,2.534-0.232,3.669-0.697s2.111-1.176,2.932-2.133l1.641,1.887c-0.957,1.148-2.152,2.023-3.588,2.623
			C47.197,171.443,45.618,171.744,43.896,171.744z"/>
		<path fill="#231F20" d="M59.516,171.539v-21.525h2.788v5.863l-0.287-1.025c0.602-1.639,1.612-2.891,3.033-3.75
			c1.422-0.861,3.186-1.293,5.289-1.293v2.83c-0.108,0-0.219-0.006-0.327-0.021c-0.109-0.014-0.22-0.021-0.328-0.021
			c-2.27,0-4.045,0.691-5.329,2.07c-1.285,1.381-1.929,3.342-1.929,5.885v10.988H59.516L59.516,171.539z"/>
		<path fill="#231F20" d="M81.656,171.744c-1.777,0-3.458-0.252-5.043-0.76c-1.585-0.506-2.829-1.141-3.73-1.904l1.313-2.297
			c0.875,0.654,1.995,1.225,3.362,1.701c1.365,0.479,2.801,0.719,4.305,0.719c2.05,0,3.526-0.322,4.428-0.965
			c0.902-0.643,1.354-1.496,1.354-2.563c0-0.793-0.253-1.414-0.76-1.865c-0.506-0.451-1.168-0.793-1.987-1.025
			c-0.82-0.23-1.736-0.432-2.747-0.596c-1.012-0.164-2.017-0.354-3.015-0.572c-0.997-0.219-1.905-0.539-2.727-0.965
			c-0.819-0.424-1.482-1.004-1.988-1.74c-0.506-0.738-0.759-1.725-0.759-2.953c0-1.174,0.328-2.229,0.984-3.156
			c0.655-0.93,1.619-1.66,2.891-2.193s2.821-0.801,4.653-0.801c1.394,0,2.788,0.186,4.182,0.555
			c1.396,0.369,2.542,0.854,3.444,1.455l-1.271,2.338c-0.957-0.656-1.98-1.129-3.073-1.414c-1.095-0.287-2.188-0.432-3.28-0.432
			c-1.941,0-3.369,0.334-4.284,1.004c-0.916,0.67-1.374,1.523-1.374,2.564c0,0.818,0.253,1.463,0.759,1.926
			c0.505,0.465,1.175,0.828,2.009,1.088s1.749,0.471,2.747,0.635c0.997,0.164,1.995,0.363,2.993,0.596
			c0.997,0.23,1.913,0.547,2.747,0.941c0.833,0.396,1.503,0.957,2.009,1.682s0.76,1.676,0.76,2.85c0,1.258-0.35,2.344-1.047,3.26
			c-0.696,0.916-1.708,1.627-3.033,2.133C85.15,171.494,83.542,171.744,81.656,171.744z"/>
		<path fill="#231F20" d="M92.521,152.431v-2.418h13.325v2.418H92.521z M102.689,171.744c-2.023,0-3.581-0.547-4.674-1.641
			c-1.095-1.094-1.642-2.637-1.642-4.633v-20.213h2.911v20.049c0,1.258,0.321,2.229,0.964,2.91c0.643,0.684,1.564,1.025,2.769,1.025
			c1.283,0,2.35-0.369,3.196-1.107l1.025,2.092c-0.574,0.52-1.265,0.902-2.07,1.148S103.536,171.744,102.689,171.744z"/>
		<path fill="#231F20" d="M112.528,171.539v-30.422h2.911v30.422H112.528z"/>
		<path fill="#231F20" d="M132.332,171.744c-2.077,0-3.942-0.473-5.597-1.414c-1.654-0.943-2.959-2.24-3.915-3.896
			c-0.957-1.652-1.437-3.547-1.437-5.678c0-2.16,0.479-4.061,1.437-5.699c0.956-1.641,2.255-2.924,3.895-3.854
			c1.642-0.932,3.513-1.396,5.617-1.396c2.132,0,4.024,0.465,5.679,1.396c1.653,0.93,2.952,2.213,3.896,3.854
			s1.415,3.539,1.415,5.699c0,2.131-0.472,4.023-1.415,5.678c-0.942,1.654-2.248,2.953-3.915,3.896
			C136.322,171.271,134.436,171.744,132.332,171.744z M132.332,169.162c1.559,0,2.938-0.35,4.142-1.047
			c1.202-0.697,2.152-1.682,2.85-2.951c0.697-1.271,1.046-2.74,1.046-4.408c0-1.693-0.349-3.17-1.046-4.428
			c-0.696-1.258-1.646-2.234-2.85-2.932c-1.204-0.699-2.569-1.047-4.101-1.047s-2.896,0.35-4.1,1.047s-2.16,1.674-2.87,2.932
			c-0.711,1.258-1.066,2.732-1.066,4.428c0,1.668,0.355,3.137,1.066,4.408c0.71,1.27,1.667,2.254,2.87,2.951
			C129.475,168.812,130.828,169.162,132.332,169.162z"/>
		<path fill="#00B1F0" d="M156.029,171.539l13.12-28.699h2.993l13.12,28.699h-3.198l-12.055-26.938h1.229l-12.054,26.938H156.029z
			 M161.195,163.873l0.902-2.461h16.687l0.902,2.461H161.195z"/>
		<path fill="#00B1F0" d="M197.89,171.744c-1.832,0-3.432-0.342-4.798-1.025c-1.366-0.682-2.426-1.707-3.178-3.074
			s-1.128-3.076-1.128-5.125v-12.506h2.911v12.178c0,2.297,0.567,4.025,1.702,5.188c1.134,1.162,2.727,1.742,4.775,1.742
			c1.503,0,2.81-0.309,3.916-0.924c1.107-0.613,1.953-1.51,2.541-2.686c0.59-1.174,0.883-2.582,0.883-4.223v-11.275h2.91v21.525
			h-2.787v-5.904l0.451,1.066c-0.684,1.586-1.742,2.822-3.178,3.711C201.478,171.301,199.802,171.744,197.89,171.744z"/>
		<path fill="#00B1F0" d="M213.183,152.431v-2.418h13.324v2.418H213.183z M223.351,171.744c-2.023,0-3.58-0.547-4.674-1.641
			s-1.641-2.637-1.641-4.633v-20.213h2.91v20.049c0,1.258,0.322,2.229,0.965,2.91c0.641,0.684,1.564,1.025,2.768,1.025
			c1.283,0,2.35-0.369,3.197-1.107l1.025,2.092c-0.574,0.52-1.266,0.902-2.07,1.148
			C225.025,171.621,224.198,171.744,223.351,171.744z"/>
		<path fill="#00B1F0" d="M241.187,171.744c-2.078,0-3.943-0.473-5.598-1.414c-1.654-0.943-2.959-2.24-3.916-3.896
			c-0.957-1.652-1.436-3.547-1.436-5.678c0-2.16,0.479-4.061,1.436-5.699c0.957-1.641,2.256-2.924,3.896-3.854
			c1.641-0.932,3.512-1.396,5.617-1.396c2.131,0,4.023,0.465,5.678,1.396c1.654,0.93,2.953,2.213,3.895,3.854
			c0.943,1.641,1.416,3.539,1.416,5.699c0,2.131-0.473,4.023-1.416,5.678c-0.941,1.654-2.246,2.953-3.914,3.896
			C245.175,171.271,243.29,171.744,241.187,171.744z M241.187,169.162c1.557,0,2.938-0.35,4.141-1.047s2.152-1.682,2.85-2.951
			c0.697-1.271,1.047-2.74,1.047-4.408c0-1.693-0.35-3.17-1.047-4.428c-0.695-1.258-1.646-2.234-2.85-2.932
			c-1.205-0.699-2.57-1.047-4.1-1.047c-1.531,0-2.898,0.35-4.102,1.047s-2.16,1.674-2.869,2.932
			c-0.711,1.258-1.066,2.732-1.066,4.428c0,1.668,0.355,3.137,1.066,4.408c0.709,1.27,1.666,2.254,2.869,2.951
			S239.683,169.162,241.187,169.162z"/>
		<path fill="#00B1F0" d="M285.015,149.808c1.75,0,3.271,0.334,4.57,1.004s2.311,1.689,3.035,3.057
			c0.723,1.365,1.086,3.088,1.086,5.166v12.504h-2.91V159.32c0-2.268-0.541-3.982-1.621-5.145c-1.078-1.164-2.604-1.744-4.57-1.744
			c-1.477,0-2.754,0.309-3.832,0.924c-1.08,0.615-1.914,1.502-2.502,2.664s-0.881,2.564-0.881,4.203v11.316h-2.912V159.32
			c0-2.27-0.547-3.982-1.641-5.146c-1.094-1.162-2.623-1.742-4.592-1.742c-1.449,0-2.721,0.307-3.813,0.922
			c-1.096,0.615-1.936,1.504-2.521,2.666c-0.588,1.162-0.883,2.563-0.883,4.201v11.316h-2.91v-21.525h2.787v5.822l-0.449-1.025
			c0.654-1.557,1.715-2.779,3.176-3.668c1.463-0.889,3.191-1.334,5.188-1.334c2.104,0,3.896,0.527,5.371,1.58
			c1.477,1.051,2.434,2.631,2.871,4.734l-1.148-0.451c0.629-1.748,1.742-3.162,3.342-4.242S282.775,149.808,285.015,149.808z"/>
		<path fill="#00B1F0" d="M310.394,171.744c-2.078,0-3.943-0.473-5.598-1.414c-1.654-0.943-2.959-2.24-3.916-3.896
			c-0.957-1.652-1.436-3.547-1.436-5.678c0-2.16,0.479-4.061,1.436-5.699c0.957-1.641,2.256-2.924,3.896-3.854
			c1.641-0.932,3.512-1.396,5.617-1.396c2.131,0,4.023,0.465,5.678,1.396c1.654,0.93,2.953,2.213,3.895,3.854
			c0.943,1.641,1.416,3.539,1.416,5.699c0,2.131-0.473,4.023-1.416,5.678c-0.941,1.654-2.248,2.953-3.914,3.896
			C314.382,171.271,312.497,171.744,310.394,171.744z M310.394,169.162c1.557,0,2.938-0.35,4.141-1.047s2.152-1.682,2.85-2.951
			c0.697-1.271,1.047-2.74,1.047-4.408c0-1.693-0.35-3.17-1.047-4.428c-0.695-1.258-1.646-2.234-2.85-2.932
			c-1.205-0.699-2.57-1.047-4.1-1.047c-1.531,0-2.898,0.35-4.102,1.047s-2.16,1.674-2.869,2.932
			c-0.711,1.258-1.066,2.732-1.066,4.428c0,1.668,0.355,3.137,1.066,4.408c0.709,1.27,1.666,2.254,2.869,2.951
			S308.89,169.162,310.394,169.162z"/>
		<path fill="#00B1F0" d="M323.964,152.431v-2.418h13.324v2.418H323.964z M334.132,171.744c-2.023,0-3.582-0.547-4.674-1.641
			c-1.094-1.094-1.641-2.637-1.641-4.633v-20.213h2.91v20.049c0,1.258,0.32,2.229,0.965,2.91c0.641,0.684,1.563,1.025,2.768,1.025
			c1.283,0,2.35-0.369,3.197-1.107l1.025,2.092c-0.574,0.52-1.266,0.902-2.07,1.148C335.806,171.621,334.98,171.744,334.132,171.744
			z"/>
		<path fill="#00B1F0" d="M345.448,145.258c-0.602,0-1.107-0.205-1.518-0.615s-0.615-0.9-0.615-1.475
			c0-0.576,0.205-1.061,0.615-1.457c0.408-0.396,0.916-0.594,1.518-0.594c0.6,0,1.105,0.191,1.516,0.572
			c0.41,0.385,0.615,0.861,0.615,1.438c0,0.602-0.197,1.105-0.594,1.516C346.587,145.054,346.075,145.258,345.448,145.258z
			 M343.972,171.539v-21.525h2.91v21.525H343.972z"/>
		<path fill="#00B1F0" d="M360.536,171.539l-9.553-21.525h3.033l8.773,19.967h-1.436l8.896-19.967h2.869l-9.594,21.525H360.536z"/>
		<path fill="#00B1F0" d="M385.751,171.744c-2.242,0-4.211-0.473-5.904-1.414c-1.695-0.943-3.021-2.24-3.977-3.896
			c-0.957-1.652-1.436-3.547-1.436-5.678c0-2.133,0.457-4.02,1.373-5.658c0.916-1.641,2.174-2.932,3.771-3.875
			c1.6-0.943,3.396-1.414,5.393-1.414c2.021,0,3.818,0.457,5.391,1.373s2.809,2.201,3.711,3.855
			c0.902,1.652,1.354,3.561,1.354,5.719c0,0.137-0.008,0.281-0.021,0.432s-0.021,0.309-0.021,0.473h-18.736v-2.176h17.18
			l-1.146,0.861c0-1.557-0.336-2.945-1.006-4.16c-0.67-1.217-1.578-2.166-2.727-2.85s-2.475-1.025-3.977-1.025
			c-1.477,0-2.803,0.342-3.979,1.025s-2.09,1.639-2.746,2.869c-0.656,1.229-0.984,2.639-0.984,4.223v0.451
			c0,1.641,0.361,3.082,1.088,4.326c0.723,1.242,1.734,2.213,3.033,2.91s2.779,1.047,4.447,1.047c1.313,0,2.535-0.232,3.67-0.697
			s2.111-1.176,2.932-2.133l1.641,1.887c-0.957,1.148-2.152,2.023-3.588,2.623C389.05,171.443,387.472,171.744,385.751,171.744z"/>
	</g>
</g>
</svg>
