<?xml version="1.0" encoding="utf-8"?>
<!-- Generator: Adobe Illustrator 14.0.0, SVG Export Plug-In . SVG Version: 6.00 Build 43363)  -->
<!DOCTYPE svg PUBLIC "-//W3C//DTD SVG 1.1//EN" "http://www.w3.org/Graphics/SVG/1.1/DTD/svg11.dtd">
<svg version="1.1" id="Layer_1" xmlns="http://www.w3.org/2000/svg" xmlns:xlink="http://www.w3.org/1999/xlink" x="0px" y="0px"
	 width="195.5px" height="152.5px" viewBox="0 0 195.5 152.5" enable-background="new 0 0 195.5 152.5" xml:space="preserve">
<g>
	<g>
		<defs>
			<rect id="SVGID_1_" x="-109.462" y="-67.264" width="414.423" height="293.029"/>
		</defs>
		<clipPath id="SVGID_2_">
			<use xlink:href="#SVGID_1_"  overflow="visible"/>
		</clipPath>
		<path clip-path="url(#SVGID_2_)" d="M60.016,45.535l-2.814,2.813h-4.221v-6.331h-7.034v3.518l-2.813,2.813h-4.22V27.246
			l2.813-2.814h4.221v10.552h7.034v-7.737l2.814-2.814h4.22V45.535z M56.499,25.136v10.551H45.245V25.136h-2.813v19.695h2.813V38.5
			h11.254v6.331h2.813V25.136H56.499z"/>
		<path clip-path="url(#SVGID_2_)" d="M94.482,48.348h-4.812l-1.94-3.517h-9.596l-0.366,0.704l-2.813,2.813h-4.812l12.155-22.283
			l2.813-2.786l12.183,22.256L94.482,48.348z M92.906,44.831h3.208L85.112,24.742L74.139,44.831h3.208l1.913-3.517h11.706
			L92.906,44.831z M80.808,38.5l4.305-7.906l4.333,7.906H80.808z M82.946,36.052l-0.957,1.744h1.913L82.946,36.052z"/>
		<path clip-path="url(#SVGID_2_)" d="M128.525,24.432v21.103l-2.813,2.813h-1.154l-10.1-9.651v6.838l-2.814,2.813h-4.221V27.246
			l2.814-2.814h1.125l10.128,9.651v-6.837l2.814-2.814H128.525z M125.008,25.136v13.28l-13.927-13.28h-0.142v19.695h2.814V31.55
			l13.899,13.28h0.169V25.136H125.008z"/>
		<g clip-path="url(#SVGID_2_)">
			<defs>
				<rect id="SVGID_3_" x="-109.462" y="-67.264" width="414.423" height="293.029"/>
			</defs>
			<clipPath id="SVGID_4_">
				<use xlink:href="#SVGID_3_"  overflow="visible"/>
			</clipPath>
			<path clip-path="url(#SVGID_4_)" d="M151.146,46.49c-1.153,1.155-2.729,1.857-4.474,1.857c-3.011,0-5.516-2.082-6.162-4.895
				l2.813-2.814l2.308-0.815c-3.011-0.507-5.289-3.096-5.289-6.247c0-1.745,0.702-3.319,1.856-4.474
				c0.478-0.478,2.335-2.334,2.813-2.813c1.153-1.153,2.729-1.857,4.474-1.857c3.011,0,5.515,2.082,6.162,4.896l-2.814,2.813
				l-2.307,0.817c3.011,0.506,5.289,3.094,5.289,6.246c0,1.744-0.702,3.32-1.856,4.474C153.48,44.155,151.623,46.012,151.146,46.49
				 M152.13,29.834l2.674-0.957c-0.789-2.167-2.871-3.742-5.318-3.742c-3.123,0-5.628,2.532-5.628,5.626
				c0,3.123,2.505,5.627,5.628,5.627c1.547,0,2.813,1.267,2.813,2.814s-1.267,2.813-2.813,2.813c-1.239,0-2.279-0.788-2.646-1.885
				l-2.673,0.956c0.788,2.167,2.869,3.743,5.318,3.743c3.095,0,5.628-2.504,5.628-5.627c0-3.095-2.533-5.628-5.628-5.628
				c-1.548,0-2.813-1.266-2.813-2.813c0-1.547,1.266-2.814,2.813-2.814C150.695,27.949,151.765,28.737,152.13,29.834
				 M147.572,31.663c0.225,0.45,0.563,0.788,1.013,1.013C148.359,32.226,148.022,31.888,147.572,31.663 M148.585,41.117
				c-0.226-0.45-0.563-0.788-1.013-1.012C147.797,40.554,148.135,40.892,148.585,41.117"/>
			<path clip-path="url(#SVGID_4_)" d="M104.68,73.078l2.533,2.533l-5.797,5.797l-2.56-2.533l-1.379,1.378
				c-2.476,2.476-6.471,2.476-8.947,0c-2.475-2.475-2.475-6.471,0-8.947l1.379-1.407l-0.479-0.478
				c-1.941-1.942-1.941-5.038-0.028-6.979h0.028l2.813-2.814c1.913-1.913,5.037-1.913,6.95,0c1.913,1.942,1.913,5.036,0,6.978
				l-0.507,0.478l2.982,3.011l2.561-2.56l2.982,2.982L104.68,73.078z M104.23,77.608l1.997-1.998l-2.56-2.533l2.56-2.56
				l-1.997-1.997l-2.561,2.56l-3.966-3.996l0.984-0.984c1.66-1.632,1.66-4.305,0-5.966c-1.632-1.659-4.305-1.659-5.965,0
				c-1.632,1.661-1.632,4.334,0,5.966l1.013,0.984l-1.914,1.914c-2.195,2.195-2.195,5.74,0,7.935c2.223,2.223,5.769,2.223,7.963,0
				l1.884-1.885L104.23,77.608z M97.815,74.963c-1.097,1.097-2.897,1.097-3.995,0c-1.098-1.097-1.098-2.897,0-3.996l1.885-1.884
				l3.996,3.994L97.815,74.963z M94.719,64.103c-0.562-0.534-0.562-1.435,0-1.969c0.536-0.563,1.436-0.563,1.999,0
				c0.535,0.534,0.535,1.435,0,1.969l-1.013,1.014L94.719,64.103z"/>
			<path clip-path="url(#SVGID_4_)" d="M22.948,101.805v7.035c-0.281,0.393-0.62,0.759-0.957,1.097
				c-0.563,0.563-2.476,2.477-2.813,2.842c-1.913,1.913-4.558,3.095-7.484,3.095c-5.824,0-10.552-4.727-10.552-10.551
				c0-2.927,1.182-5.543,3.095-7.456c0.479-0.479,2.336-2.336,2.814-2.813c1.913-1.913,4.53-3.096,7.456-3.096
				c3.687,0,6.922,1.886,8.807,4.755l-2.785,2.814l-2.954,2.278H22.948z M19.43,107.545c-1.266,1.238-3.01,1.997-4.924,1.997
				c-3.882,0-7.034-3.151-7.034-7.033c0-3.883,3.151-7.034,7.034-7.034c2.308,0,4.333,1.098,5.628,2.813l2.223-1.716
				c-1.801-2.365-4.643-3.911-7.851-3.911c-5.43,0-9.847,4.417-9.847,9.848s4.417,9.848,9.847,9.848
				c3.152,0,5.937-1.463,7.737-3.743v-6.104h-7.737v2.813h4.924V107.545z M16.955,101.805c-1.126-1.688-3.067-2.813-5.262-2.813
				c-1.013,0-1.998,0.253-2.842,0.675c-0.422,0.844-0.676,1.828-0.676,2.842c0,2.195,1.125,4.136,2.814,5.261v-3.15l2.813-2.814
				H16.955z"/>
			<path clip-path="url(#SVGID_4_)" d="M51.14,115.873h-5.037l-3.686-5.627H41.91v2.813l-2.813,2.813h-4.221V94.771l2.813-2.813
				h7.738c4.277,0,7.738,3.46,7.738,7.736c0,2.787-1.463,5.206-3.658,6.584l4.446,6.781L51.14,115.873z M48.494,106.025
				c2.364-1.153,3.967-3.544,3.967-6.331c0-3.883-3.151-7.033-7.034-7.033h-7.034v19.695h2.814v-5.627h4.22h0.169l3.686,5.627h3.376
				L48.494,106.025z M45.427,103.915c2.335,0,4.221-1.885,4.221-4.221c0-2.335-1.885-4.22-4.221-4.22h-4.22v8.44H45.427z
				 M41.91,103.211v-4.219h0.704c1.941,0,3.517,1.575,3.517,3.517c0,0.225-0.028,0.449-0.056,0.647
				c-0.226,0.028-0.422,0.055-0.647,0.055H41.91z"/>
			<path clip-path="url(#SVGID_4_)" d="M72.662,113.06l-2.813,2.813h-4.22V94.771l2.813-2.814h4.22V113.06z M71.959,92.661h-2.813
				v19.695h2.813V92.661z"/>
			<path clip-path="url(#SVGID_4_)" d="M92.92,98.992v3.517h8.44v4.221l-2.109,2.11h4.923v4.221l-2.814,2.813H85.885V94.771
				l2.813-2.814h15.476v4.222l-2.814,2.813H92.92z M103.47,95.475v-2.813H89.403v19.695h14.067v-2.814H92.216v-3.517h8.441v-2.813
				h-8.441v-7.737H103.47z"/>
			<path clip-path="url(#SVGID_4_)" d="M136.248,96.179l-2.813,2.813h-4.221v14.067l-2.814,2.813h-4.22V98.992h-7.034v-4.221
				l2.813-2.814h18.288V96.179z M118.663,92.661v2.813h7.034v16.882h2.813V95.475h7.035v-2.813H118.663z"/>
			<path clip-path="url(#SVGID_4_)" d="M153.635,113.595c-1.406,1.406-3.347,2.278-5.485,2.278c-2.504,0-4.728-1.182-6.134-3.011
				l-0.423-0.563l2.813-2.813l3.35-2.589l0.422,0.563c0.646,0.846,1.66,1.38,2.785,1.38c0.226,0,0.422-0.028,0.646-0.058
				c0.029-0.196,0.057-0.422,0.057-0.646V94.771l2.814-2.813h4.22v13.363c0,2.139-0.872,4.052-2.251,5.459
				C155.972,111.26,154.114,113.115,153.635,113.595 M155.183,105.321c0,2.337-1.884,4.221-4.22,4.221
				c-1.351,0-2.588-0.646-3.349-1.631l-2.222,1.688c1.294,1.688,3.292,2.758,5.57,2.758c3.882,0,7.034-3.151,7.034-7.035v-12.66
				h-2.814V105.321z"/>
			<path clip-path="url(#SVGID_4_)" d="M178.676,98.992v3.517h8.441v4.221l-2.11,2.11h4.923v4.221l-2.813,2.813h-15.476V94.771
				l2.814-2.814h15.474v4.222l-2.813,2.813H178.676z M189.227,95.475v-2.813h-14.068v19.695h14.068v-2.814h-11.254v-3.517h8.441
				v-2.813h-8.441v-7.737H189.227z"/>
			<path clip-path="url(#SVGID_4_)" d="M62.149,14.02l-0.159-0.584c-0.23,0.318-0.602,0.778-1.54,0.778
				c-0.248,0-0.85-0.018-1.381-0.46c-0.796-0.672-0.831-1.646-0.831-2.583V4.906c0-1.026,0.035-1.486,0.212-1.981
				c0.195-0.583,0.743-1.54,2.301-1.54c0.319,0,1.239,0,1.822,0.813c0.337,0.46,0.408,0.868,0.408,1.93v1.309h-1.522V4.022
				c0-0.124-0.018-0.266-0.018-0.389c-0.018-0.195,0-0.884-0.743-0.867c-0.248,0-0.407,0.07-0.496,0.141
				c-0.372,0.266-0.336,0.832-0.336,1.24v7.184c0,0.513,0.018,0.903,0.124,1.115c0.071,0.141,0.266,0.407,0.69,0.389
				c0.089,0,0.284,0,0.478-0.124c0.336-0.229,0.354-0.654,0.354-0.991V8.889h-1.009V7.366h2.637v6.654H62.149z"/>
			<path clip-path="url(#SVGID_4_)" d="M70.292,14.02c-0.212-1.168-0.248-1.434-0.248-2.618v-0.886c0-0.424-0.019-0.867-0.071-1.291
				c-0.036-0.3-0.088-0.602-0.301-0.796c-0.159-0.125-0.336-0.16-0.531-0.16h-0.673v5.751h-1.646V1.527h2.69
				c0.212,0,0.424,0,0.619,0.018c0.442,0.036,1.274,0.089,1.522,1.222c0.07,0.317,0.106,0.938,0.106,1.787
				c0,0.478,0,0.972-0.036,1.468c-0.018,0.319-0.07,0.708-0.194,0.991c-0.301,0.654-1.009,0.637-1.274,0.672
				c0.265,0.054,0.778-0.018,1.132,0.532c0.283,0.442,0.301,0.955,0.301,1.981v1.362c0,1.417,0.035,1.681,0.318,2.46H70.292z
				 M70.098,3.633c-0.018-0.266-0.072-0.407-0.177-0.496c-0.106-0.106-0.283-0.106-0.602-0.106h-0.832v3.857h0.778
				c0.425,0,0.672-0.106,0.779-0.548c0.071-0.301,0.088-1.043,0.088-1.912C70.133,4.164,70.115,3.899,70.098,3.633"/>
			<path clip-path="url(#SVGID_4_)" d="M78.86,14.02l-0.318-2.301h-1.876l-0.283,2.301h-1.61l1.769-12.493h2l1.929,12.493H78.86z
				 M77.533,3.704l-0.69,6.494h1.486L77.533,3.704z"/>
			<polygon clip-path="url(#SVGID_4_)" points="86.985,14.02 84.985,4.853 85.126,14.02 83.587,14.02 83.587,1.527 85.356,1.527 
				87.321,10.039 87.25,1.527 88.807,1.527 88.807,14.02 			"/>
			<path clip-path="url(#SVGID_4_)" d="M97.34,12.888c-0.266,1.204-1.31,1.132-1.682,1.132h-3.167V1.527h3.025
				c0.16,0,0.884-0.054,1.38,0.372c0.514,0.442,0.53,1.043,0.53,1.646v8.317C97.428,12.374,97.394,12.657,97.34,12.888
				 M95.766,3.917c0-0.125,0-0.248-0.018-0.372c-0.07-0.513-0.513-0.496-0.655-0.496h-0.956v9.432h1.097
				c0.372,0,0.531-0.106,0.531-0.69V3.917z"/>
			<path clip-path="url(#SVGID_4_)" d="M111.608,13.082c-0.302,0.442-0.938,1.097-2.266,1.097c-1.272,0-1.91-0.584-2.212-1.026
				c-0.442-0.637-0.442-1.416-0.442-2.142V4.978c0-0.283,0.019-0.567,0.036-0.849c0.035-0.478,0.123-2.053,1.716-2.567
				c0.354-0.123,0.655-0.159,1.045-0.159c0.919,0,1.415,0.282,1.733,0.548c0.266,0.212,0.46,0.477,0.584,0.779
				c0.247,0.566,0.266,1.132,0.266,1.733v1.593h-1.664V4.129c0-0.266,0.089-1.293-1.008-1.293c-0.354,0-0.531,0.106-0.673,0.212
				c-0.406,0.354-0.371,0.886-0.371,1.362v6.902c0,0.141,0,0.283,0.017,0.425c0.018,0.336,0.071,1.009,0.991,1.009
				c0.107,0,0.39,0.018,0.638-0.178c0.424-0.3,0.406-0.831,0.406-1.292V8.853h1.664v2.336
				C112.068,11.878,112.015,12.481,111.608,13.082"/>
			<path clip-path="url(#SVGID_4_)" d="M119.113,14.02l-0.318-2.301h-1.876l-0.283,2.301h-1.609l1.77-12.493h1.999l1.929,12.493
				H119.113z M117.786,3.704l-0.69,6.494h1.487L117.786,3.704z"/>
			<polygon clip-path="url(#SVGID_4_)" points="125.505,3.066 125.505,6.694 127.894,6.694 127.894,8.216 125.522,8.216 
				125.522,14.02 123.859,14.02 123.859,1.527 128.142,1.527 128.142,3.066 			"/>
			<polygon clip-path="url(#SVGID_4_)" points="131.329,14.02 131.329,1.527 135.452,1.527 135.452,3.083 132.991,3.083 
				132.991,6.747 135.187,6.747 135.187,8.304 133.01,8.304 133.01,12.445 135.452,12.445 135.452,14.02 			"/>
			<path clip-path="url(#SVGID_4_)" fill="#AC262A" d="M42.278,72.075c0,1.76-1.411,3.102-3.158,3.102h-0.418
				c-1.286,0-2.515-0.602-3.144-1.495H35.53v-1.382h1.481v0.991c0.405,0.335,0.936,0.573,1.704,0.615h0.405
				c1.048-0.014,1.887-0.783,1.887-1.83s-0.796-1.467-1.887-1.634c-0.237-0.042-0.46-0.057-0.698-0.099
				c-1.509-0.265-2.864-1.159-2.864-2.751c0-1.566,1.271-2.92,2.864-2.92h0.209c1.048,0,2.152,0.46,2.752,1.216v1.718h-1.467v-1.16
				c-0.376-0.237-0.782-0.363-1.285-0.391h-0.209c-0.825,0.028-1.482,0.728-1.482,1.538c0,0.824,0.545,1.243,1.482,1.354
				c0.237,0.056,0.517,0.07,0.712,0.085C40.937,69.252,42.278,70.329,42.278,72.075"/>
			<polygon clip-path="url(#SVGID_4_)" fill="#AC262A" points="46.292,66.152 46.292,73.696 47.284,73.696 47.284,75.135 
				43.917,75.135 43.917,73.696 44.895,73.696 44.895,66.152 43.917,66.152 43.917,64.713 47.284,64.713 47.284,66.152 			"/>
			<polygon clip-path="url(#SVGID_4_)" fill="#AC262A" points="57.819,66.109 57.819,73.64 58.867,73.64 58.867,75.135 
				56.115,75.135 51.533,67.157 51.533,73.682 52.497,73.682 52.497,75.148 49.061,75.148 49.061,73.682 50.094,73.682 
				50.094,66.109 49.061,66.109 49.061,64.628 51.896,64.657 56.38,72.633 56.38,66.109 55.431,66.109 55.431,64.628 58.867,64.628 
				58.867,66.109 			"/>
			<path clip-path="url(#SVGID_4_)" fill="#AC262A" d="M69.728,69.91c0,2.893-2.319,5.225-5.197,5.252h-3.925v-1.48h1.103v-7.544
				h-1.103v-1.494h3.925C67.409,64.686,69.728,67.032,69.728,69.91 M68.233,69.91c0-2.082-1.69-3.772-3.771-3.772h-1.258v7.544
				h1.258C66.542,73.682,68.233,71.991,68.233,69.91"/>
			<path clip-path="url(#SVGID_4_)" fill="#AC262A" d="M77.99,72.075c0,1.76-1.411,3.102-3.158,3.102h-0.419
				c-1.285,0-2.515-0.602-3.143-1.495h-0.028v-1.382h1.481v0.991c0.405,0.335,0.936,0.573,1.705,0.615h0.405
				c1.048-0.014,1.886-0.783,1.886-1.83s-0.796-1.467-1.886-1.634c-0.237-0.042-0.461-0.057-0.698-0.099
				c-1.509-0.265-2.864-1.159-2.864-2.751c0-1.566,1.271-2.92,2.864-2.92h0.209c1.048,0,2.152,0.46,2.752,1.216v1.718h-1.467v-1.16
				c-0.377-0.237-0.782-0.363-1.285-0.391h-0.209c-0.825,0.028-1.481,0.728-1.481,1.538c0,0.824,0.545,1.243,1.481,1.354
				c0.237,0.056,0.517,0.07,0.712,0.085C76.648,69.252,77.99,70.329,77.99,72.075"/>
			<polygon clip-path="url(#SVGID_4_)" fill="#AC262A" points="120.835,75.148 116.635,75.148 116.635,73.753 118.061,73.753 
				118.061,66.119 116.635,66.119 116.635,64.634 119.455,64.634 119.455,73.753 120.835,73.753 			"/>
			<path clip-path="url(#SVGID_4_)" fill="#AC262A" d="M129.007,69.749c-0.12,0.36-0.316,0.675-0.54,0.99l-1.785,3.075l-0.779,1.35
				l-1.53-0.015l1.815-3.105c-0.181,0.015-0.345,0.03-0.524,0.03c-1.996,0-3.617-1.665-3.617-3.721c0-2.054,1.621-3.719,3.617-3.719
				c1.993,0,3.613,1.665,3.613,3.719c0,0.466-0.075,0.916-0.24,1.336h0.016L129.007,69.749z M127.491,69.764l0.06-0.075h0.016
				c0.256-0.405,0.391-0.84,0.391-1.336c0-1.275-1.021-2.354-2.294-2.354c-1.276,0-2.312,1.08-2.312,2.354
				c0,1.321,1.035,2.371,2.312,2.371C126.427,70.724,127.087,70.349,127.491,69.764"/>
			<path clip-path="url(#SVGID_4_)" fill="#AC262A" d="M137.207,72.134v0.015c-0.016,0.045-0.016,0.105-0.016,0.21
				c-0.195,1.56-1.56,2.79-3.24,2.79c-1.77,0-3.225-1.365-3.27-3.091c0-0.179,0.029-0.345,0.045-0.539
				c0.135-0.915,0.646-1.65,1.38-2.175c-0.525-0.525-0.854-1.185-0.81-1.951v-0.059v-0.151c0-0.06,0.015-0.104,0.029-0.15v-0.044
				v-0.075c0.24-1.245,1.186-2.175,2.431-2.25c0.045,0,0.09-0.03,0.15-0.03h0.044h0.061c0.075,0,0.136,0.03,0.21,0.03h0.09v0.015
				c1.306,0.195,2.28,1.335,2.28,2.714c0,0.106,0,0.241-0.015,0.361v0.074c-0.106,0.585-0.376,1.11-0.78,1.515
				c0.854,0.585,1.41,1.561,1.41,2.639v0.016V72.134z M135.872,72.134c0.045-0.975-0.631-1.83-1.635-1.995
				c-0.031,0-0.046-0.015-0.046-0.031h-0.104h-0.104c-0.975-0.044-1.786,0.662-1.95,1.605c-0.121,1.005,0.615,1.936,1.648,2.1
				c0.047,0.016,0.137,0.03,0.271,0.03C134.957,73.843,135.797,73.08,135.872,72.134 M133.802,68.804h0.285
				c0.601-0.075,1.125-0.555,1.229-1.23c0-0.075,0.03-0.135,0.03-0.181c0-0.764-0.525-1.35-1.23-1.454h-0.059h-0.075h-0.105h-0.03
				c-0.645,0.045-1.169,0.525-1.274,1.23v0.014c0,0.045-0.016,0.061-0.016,0.106v0.075c0,0.705,0.48,1.305,1.2,1.409
				C133.771,68.789,133.787,68.804,133.802,68.804"/>
			<path clip-path="url(#SVGID_4_)" fill="#AC262A" d="M143.938,72.883h1.469v2.266h-6.57v-1.335l4.891-4.665
				c0.285-0.434,0.405-0.81,0.405-1.2c0-1.109-0.885-2.01-1.965-2.01s-1.95,0.9-1.95,2.01v0.06h-1.291v-0.06
				c0-1.83,1.456-3.33,3.241-3.33s3.239,1.5,3.239,3.33c0,0.75-0.254,1.47-0.734,2.115l-3.976,3.75h3.241V72.883z"/>
			<path clip-path="url(#SVGID_4_)" d="M68.707,141.038c-0.29,1.312-1.427,1.234-1.832,1.234h-3.451V128.66h3.297
				c0.173,0,0.964-0.058,1.503,0.404c0.559,0.482,0.579,1.139,0.579,1.794v9.062C68.803,140.479,68.764,140.787,68.707,141.038
				 M66.99,131.263c0-0.135,0-0.27-0.019-0.404c-0.077-0.56-0.559-0.54-0.713-0.54h-1.041v10.276h1.195
				c0.405,0,0.578-0.115,0.578-0.752V131.263z"/>
			<polygon clip-path="url(#SVGID_4_)" points="72.81,142.272 72.81,128.66 77.303,128.66 77.303,130.357 74.622,130.357 
				74.622,134.348 77.014,134.348 77.014,136.045 74.642,136.045 74.642,140.557 77.303,140.557 77.303,142.272 			"/>
			<polygon clip-path="url(#SVGID_4_)" points="84.453,142.272 82.333,142.272 80.249,128.66 82.043,128.66 83.431,139.573 
				84.761,128.66 86.534,128.66 			"/>
			<polygon clip-path="url(#SVGID_4_)" points="89.868,142.272 89.868,128.66 94.36,128.66 94.36,130.357 91.681,130.357 
				91.681,134.348 94.071,134.348 94.071,136.045 91.7,136.045 91.7,140.557 94.36,140.557 94.36,142.272 			"/>
			<polygon clip-path="url(#SVGID_4_)" points="101.684,142.272 99.505,132.285 99.66,142.272 97.981,142.272 97.981,128.66 
				99.91,128.66 102.05,137.935 101.973,128.66 103.67,128.66 103.67,142.272 			"/>
			<polygon clip-path="url(#SVGID_4_)" points="111.031,130.26 111.031,142.271 109.2,142.271 109.2,130.26 107.138,130.26 
				107.138,128.66 113.153,128.66 113.153,130.26 			"/>
			<polygon clip-path="url(#SVGID_4_)" points="116.659,142.272 116.659,128.66 121.151,128.66 121.151,130.357 118.472,130.357 
				118.472,134.348 120.862,134.348 120.862,136.045 118.491,136.045 118.491,140.557 121.151,140.557 121.151,142.272 			"/>
			<path clip-path="url(#SVGID_4_)" d="M128.553,142.272c-0.231-1.273-0.27-1.562-0.27-2.854v-0.964
				c0-0.462-0.019-0.944-0.077-1.407c-0.038-0.327-0.097-0.655-0.328-0.867c-0.173-0.135-0.367-0.173-0.578-0.173h-0.733v6.266
				h-1.793V128.66h2.932c0.23,0,0.463,0,0.674,0.02c0.482,0.038,1.389,0.097,1.659,1.33c0.077,0.348,0.114,1.022,0.114,1.947
				c0,0.521,0,1.061-0.037,1.6c-0.02,0.348-0.077,0.772-0.212,1.08c-0.327,0.714-1.101,0.694-1.388,0.732
				c0.287,0.059,0.847-0.019,1.233,0.579c0.308,0.481,0.327,1.041,0.327,2.16v1.483c0,1.543,0.039,1.832,0.347,2.681H128.553z
				 M128.342,130.954c-0.021-0.288-0.077-0.443-0.193-0.54c-0.116-0.115-0.309-0.115-0.656-0.115h-0.905v4.204h0.849
				c0.463,0,0.732-0.116,0.848-0.599c0.077-0.327,0.096-1.138,0.096-2.082C128.379,131.533,128.36,131.244,128.342,130.954"/>
			<line clip-path="url(#SVGID_4_)" fill="#AC262A" x1="92.977" y1="151.553" x2="102.614" y2="151.553"/>
			<rect x="92.977" y="151.018" clip-path="url(#SVGID_4_)" fill="#AC262A" width="9.637" height="1.07"/>
			<rect x="92.977" y="151.018" clip-path="url(#SVGID_4_)" fill="#AC262A" width="9.637" height="1.07"/>
			<path clip-path="url(#SVGID_4_)" fill="#AC262A" d="M103.149,152.624H92.441v-2.142h10.708V152.624z M93.512,151.553h8.566
				H93.512z"/>
			<line clip-path="url(#SVGID_4_)" fill="#AC262A" x1="41.994" y1="8.33" x2="51.631" y2="8.33"/>
			<rect x="41.993" y="7.795" clip-path="url(#SVGID_4_)" fill="#AC262A" width="9.637" height="1.071"/>
			<rect x="41.993" y="7.795" clip-path="url(#SVGID_4_)" fill="#AC262A" width="9.637" height="1.071"/>
			<path clip-path="url(#SVGID_4_)" fill="#AC262A" d="M52.166,9.401H41.458V7.259h10.708V9.401z M42.528,8.33h8.567H42.528z"/>
			<line clip-path="url(#SVGID_4_)" fill="#AC262A" x1="142.739" y1="8.33" x2="152.377" y2="8.33"/>
			<rect x="142.739" y="7.795" clip-path="url(#SVGID_4_)" fill="#AC262A" width="9.638" height="1.071"/>
			<rect x="142.739" y="7.795" clip-path="url(#SVGID_4_)" fill="#AC262A" width="9.638" height="1.071"/>
			<path clip-path="url(#SVGID_4_)" fill="#AC262A" d="M152.911,9.401h-10.707V7.259h10.707V9.401z M143.274,8.33h8.566H143.274z"/>
		</g>
	</g>
</g>
</svg>
