<?xml version="1.0" encoding="utf-8"?>
<!-- Generator: Adobe Illustrator 14.0.0, SVG Export Plug-In . SVG Version: 6.00 Build 43363)  -->
<!DOCTYPE svg PUBLIC "-//W3C//DTD SVG 1.1//EN" "http://www.w3.org/Graphics/SVG/1.1/DTD/svg11.dtd">
<svg version="1.1" id="Layer_1" xmlns="http://www.w3.org/2000/svg" xmlns:xlink="http://www.w3.org/1999/xlink" x="0px" y="0px"
	 width="198.43px" height="16.167px" viewBox="0 0 198.43 16.167" enable-background="new 0 0 198.43 16.167" xml:space="preserve">
<g>
	<path fill="#603913" d="M11.029,3.728C12.21,4.781,12.8,6.375,12.8,8.51c0,2.134-0.659,3.812-1.975,5.037
		c-1.318,1.225-3.2,1.835-5.647,1.835c-1.736,0-3.502-0.044-5.301-0.134l0.188-3.89l-0.188-9.13l6.117-0.082
		C8.168,2.147,9.847,2.674,11.029,3.728z M9.476,8.874c0-1.584-0.298-2.741-0.894-3.471C7.985,4.673,7.04,4.309,5.743,4.309
		c-0.836,0-1.725,0.046-2.666,0.135l-0.126,6.671l0.064,2.026c1.086,0.071,1.996,0.107,2.728,0.107
		C8.231,13.249,9.476,11.792,9.476,8.874z"/>
	<path fill="#603913" d="M16.972,10.898c0.125,1.711,1.088,2.566,2.886,2.566c1.025,0,2.081-0.252,3.169-0.756l0.251,0.162
		l-0.409,1.972c-1.087,0.396-2.185,0.604-3.294,0.622c-1.736,0-3.084-0.433-4.046-1.296c-0.962-0.865-1.443-2.059-1.443-3.579
		c0-1.522,0.486-2.719,1.459-3.593c0.971-0.874,2.211-1.311,3.717-1.311c1.505,0,2.629,0.329,3.372,0.986
		c0.742,0.658,1.114,1.562,1.114,2.715c0,0.359-0.032,0.729-0.094,1.106l-0.47,0.38L16.972,10.898z M19.357,7.441
		c-0.607,0-1.114,0.171-1.522,0.514s-0.675,0.828-0.799,1.458l3.952-0.109l0.063-0.216C21.03,7.992,20.465,7.441,19.357,7.441z"/>
	<path fill="#603913" d="M42.412,15.249h-3.198l0.187-3.89L39.37,9.846l-3.42-0.055l-3.074,0.055l-0.03,1.269l0.125,4.134h-3.199
		l0.187-3.89l-0.187-9.13h3.262l-0.126,5.348l3.23,0.081l3.2-0.081l-0.125-5.348h3.261l-0.188,8.886L42.412,15.249z"/>
	<path fill="#603913" d="M50.144,5.659c1.663,0,2.912,0.405,3.749,1.216c0.836,0.81,1.255,2.007,1.255,3.59
		c0,1.588-0.456,2.814-1.365,3.689c-0.91,0.872-2.186,1.31-3.827,1.31c-1.642,0-2.886-0.41-3.733-1.23
		c-0.847-0.817-1.27-2.02-1.27-3.604s0.449-2.81,1.348-3.673C47.201,6.091,48.482,5.659,50.144,5.659z M50.034,7.469
		c-0.752,0-1.296,0.221-1.63,0.662c-0.336,0.441-0.502,1.211-0.502,2.31c0,1.097,0.167,1.904,0.502,2.416
		c0.334,0.513,0.888,0.77,1.662,0.77c0.773,0,1.328-0.207,1.663-0.619c0.334-0.414,0.502-1.171,0.502-2.271
		c0-1.098-0.179-1.918-0.534-2.457C51.342,7.739,50.787,7.469,50.034,7.469z"/>
	<path fill="#603913" d="M66.848,13.411c0.188,0,0.407-0.025,0.659-0.08l0.219,0.162l-0.282,1.404
		c-0.501,0.269-1.078,0.441-1.725,0.513c-0.983-0.071-1.6-0.575-1.851-1.513h-0.251c-0.899,0.738-1.819,1.226-2.76,1.46
		c-1.172,0-2.071-0.232-2.698-0.69c-0.627-0.459-0.941-1.129-0.941-2.013l0.062-2.375L57.187,6.01l3.011-0.216l-0.094,5.969
		c0,0.954,0.47,1.431,1.412,1.431c0.669,0,1.348-0.26,2.038-0.781V6.01l2.98-0.216l-0.188,7.022
		C66.346,13.212,66.514,13.411,66.848,13.411z"/>
	<path fill="#603913" d="M73.968,13.249c0.481,0,0.993-0.107,1.537-0.324l0.252,0.217l-0.314,1.567
		c-0.773,0.359-1.579,0.575-2.415,0.648c-2.113-0.182-3.18-1.063-3.2-2.648l0.126-1.701V7.522h-1.474l-0.126-0.108l0.156-1.485
		h1.382V4.363l2.854-0.783l0.22,0.162L72.871,5.93h2.822l0.094,0.134l-0.125,1.458h-2.824l-0.125,4.54
		c0,0.43,0.088,0.738,0.266,0.917C73.158,13.16,73.486,13.249,73.968,13.249z"/>
	<path fill="#603913" d="M79.552,10.898c0.125,1.711,1.086,2.566,2.886,2.566c1.024,0,2.081-0.252,3.168-0.756l0.251,0.162
		l-0.408,1.972c-1.087,0.396-2.185,0.604-3.293,0.622c-1.736,0-3.085-0.433-4.047-1.296c-0.962-0.865-1.443-2.059-1.443-3.579
		c0-1.522,0.486-2.719,1.459-3.593c0.972-0.874,2.211-1.311,3.717-1.311c1.506,0,2.63,0.329,3.373,0.986
		c0.742,0.658,1.113,1.562,1.113,2.715c0,0.359-0.031,0.729-0.093,1.106l-0.471,0.38L79.552,10.898z M81.935,7.441
		c-0.606,0-1.113,0.171-1.521,0.514c-0.408,0.342-0.675,0.828-0.8,1.458l3.953-0.109l0.063-0.216
		C83.608,7.992,83.043,7.441,81.935,7.441z"/>
	<path fill="#603913" d="M95.141,9.387c0-0.991-0.491-1.486-1.474-1.486c-0.71,0-1.464,0.288-2.258,0.863v2.351l0.157,4.134h-3.138
		l0.158-3.89L88.46,6.01l2.98-0.216v1.377h0.156c0.9-0.684,1.84-1.169,2.824-1.458c1.192,0,2.097,0.235,2.714,0.703
		c0.616,0.468,0.915,1.134,0.894,1.999l-0.063,2.7l0.126,4.134h-3.138L95.141,9.387z"/>
	<path fill="#603913" d="M117.351,15.249h-3.2l0.188-3.89l-0.031-1.513l-3.42-0.055l-3.073,0.055l-0.032,1.269l0.125,4.134h-3.2
		l0.188-3.89l-0.188-9.13h3.264l-0.124,5.348l3.229,0.081l3.2-0.081l-0.125-5.348h3.261l-0.187,8.886L117.351,15.249z"/>
	<path fill="#603913" d="M125.082,5.659c1.663,0,2.912,0.405,3.748,1.216c0.837,0.81,1.255,2.007,1.255,3.59
		c0,1.588-0.455,2.814-1.364,3.689c-0.91,0.872-2.184,1.31-3.826,1.31c-1.642,0-2.887-0.41-3.733-1.23
		c-0.848-0.817-1.271-2.02-1.271-3.604s0.45-2.81,1.35-3.673C122.138,6.091,123.42,5.659,125.082,5.659z M124.973,7.469
		c-0.753,0-1.297,0.221-1.633,0.662c-0.333,0.441-0.501,1.211-0.501,2.31c0,1.097,0.168,1.904,0.501,2.416
		c0.336,0.513,0.89,0.77,1.664,0.77c0.773,0,1.327-0.207,1.663-0.619c0.333-0.414,0.502-1.171,0.502-2.271
		c0-1.098-0.179-1.918-0.534-2.457C126.279,7.739,125.727,7.469,124.973,7.469z"/>
	<path fill="#603913" d="M135.418,15.249h-3.106l0.157-3.918l-0.125-10.073l3.105-0.216l-0.188,10.074L135.418,15.249z"/>
	<path fill="#603913" d="M141.564,15.249h-3.104l0.156-3.918l-0.125-10.073l3.105-0.216l-0.188,10.074L141.564,15.249z"/>
	<path fill="#603913" d="M148.515,5.659c1.391,0,2.086,0,2.086,0s0.344,0.235,1.033,0.703c0.691,0.469,1.036,1.117,1.036,1.946
		c0,0.234-0.052,0.997-0.156,2.295l-0.096,2.214c0,0.234,0.032,0.392,0.096,0.474c0.062,0.08,0.188,0.121,0.377,0.121
		s0.406-0.025,0.657-0.08l0.252,0.162l-0.314,1.404c-0.502,0.269-1.067,0.441-1.694,0.513c-1.004-0.071-1.61-0.567-1.819-1.485
		h-0.157c-0.795,0.72-1.599,1.226-2.415,1.513c-1.129-0.019-2.019-0.28-2.666-0.783c-0.648-0.504-0.971-1.18-0.971-2.025
		c0-1.314,0.803-2.108,2.415-2.376l3.606-0.569V8.847c0-0.883-0.481-1.325-1.443-1.325c-0.961,0-2.091,0.388-3.388,1.163
		l-0.25-0.109l-0.347-1.782C145.737,6.037,147.122,5.659,148.515,5.659z M147.274,11.493c-0.482,0.092-0.72,0.344-0.72,0.757
		c0,0.811,0.405,1.215,1.222,1.215c0.605,0,1.254-0.314,1.945-0.944l0.063-1.513L147.274,11.493z"/>
	<path fill="#603913" d="M162.457,9.387c0-0.991-0.491-1.486-1.475-1.486c-0.71,0-1.464,0.288-2.259,0.863v2.351l0.157,4.134h-3.138
		l0.157-3.89l-0.125-5.349l2.979-0.216v1.377h0.156c0.901-0.684,1.842-1.169,2.824-1.458c1.192,0,2.097,0.235,2.713,0.703
		c0.617,0.468,0.916,1.134,0.895,1.999l-0.063,2.7l0.125,4.134h-3.136L162.457,9.387z"/>
	<path fill="#603913" d="M177.264,12.816c0.02,0.234,0.061,0.392,0.124,0.474c0.063,0.08,0.188,0.121,0.377,0.121
		s0.407-0.025,0.657-0.08l0.22,0.162l-0.281,1.404c-0.501,0.269-1.077,0.441-1.725,0.513c-1.005-0.071-1.643-0.54-1.915-1.405
		h-0.188c-0.752,0.613-1.535,1.072-2.352,1.378c-1.549,0-2.738-0.42-3.576-1.256c-0.837-0.837-1.254-2.03-1.254-3.578
		c0-1.549,0.485-2.747,1.458-3.592c0.972-0.846,2.316-1.27,4.03-1.27c0.461,0,0.961,0.037,1.506,0.108l-0.031-4.537l3.106-0.216
		l-0.221,10.074L177.264,12.816z M170.268,10.116c0,2.105,0.741,3.16,2.227,3.16c0.669,0,1.306-0.278,1.913-0.838l0.032-1.107
		l-0.063-3.483c-0.605-0.234-1.182-0.352-1.726-0.352C171.063,7.495,170.268,8.369,170.268,10.116z"/>
	<path fill="#603913" d="M182.563,10.898c0.124,1.711,1.087,2.566,2.887,2.566c1.023,0,2.08-0.252,3.168-0.756l0.249,0.162
		l-0.405,1.972c-1.089,0.396-2.186,0.604-3.295,0.622c-1.734,0-3.084-0.433-4.046-1.296c-0.963-0.865-1.442-2.059-1.442-3.579
		c0-1.522,0.486-2.719,1.457-3.593c0.973-0.874,2.212-1.311,3.718-1.311s2.63,0.329,3.372,0.986
		c0.743,0.658,1.114,1.562,1.114,2.715c0,0.359-0.031,0.729-0.096,1.106l-0.47,0.38L182.563,10.898z M184.946,7.441
		c-0.605,0-1.112,0.171-1.521,0.514c-0.407,0.342-0.674,0.828-0.799,1.458l3.953-0.109l0.061-0.216
		C186.621,7.992,186.056,7.441,184.946,7.441z"/>
	<path fill="#603913" d="M198.06,5.875v2.457l-0.313,0.109c-0.271-0.091-0.565-0.134-0.88-0.134c-0.897,0-1.724,0.494-2.476,1.484
		v1.323l0.188,4.134h-3.14l0.159-3.89l-0.128-5.349l2.98-0.216l-0.031,1.864h0.188c0.755-1.206,1.705-1.818,2.855-1.836
		C197.611,5.84,197.808,5.857,198.06,5.875z"/>
</g>
</svg>
