<?xml version="1.0" encoding="UTF-8"?><svg id="a" xmlns="http://www.w3.org/2000/svg" viewBox="0 0 391.33 414.97"><defs><style>.b{fill:#91bf21}</style></defs><path class="b" d="M250.6 114.33c-.82-6.4-2.47-12.53-4.16-18.48 1.58-.51 3.26-1.11 4.88-1.77.58 2.62 1.19 5.26 1.85 8.02 2.29 9.62 4.61 19.51 5.02 29.11-.94.27-2.05.67-3.42 1.26-.31.13-.62.26-.94.38-.42-2.96-1-5.93-1.57-8.86-.62-3.2-1.27-6.51-1.67-9.66zm36.96-6.09c.74 4.59 1.19 9.41 1.62 14.08 2.67-2.03 2.71-4.5 3.71-6.55-.37-2.89-.88-5.8-1.4-8.62-.73-3.94-1.48-8.01-1.77-12-.26-3.61-1.15-6.91-2-10.11-.55-2.06-1.12-4.19-1.53-6.42-.05-.27-.09-.56-.14-.83l-4.07-4.07c1.53 7.73 2.72 15.6 3.86 23.25.56 3.77 1.12 7.53 1.72 11.27zM167.74 18.23c.26-.72.5-1.46.74-2.22.08-.27.16-.56.24-.84l-5.07 5.07c-.85 2.71-1.62 5.48-2.3 8.28 1 .92 1.99 1.8 2.96 2.62.78-4.29 1.86-8.54 3.42-12.91zm124.17 124.34l.05.21.2.09c.68.32 1.17.14 1.46-.08 1.76-1.29 1.77-7.96.01-21.49-.87 3.72-2.23 5.2-3.96 6.3.51 5.08 1.14 10.19 2.24 14.96zM173.53 35.13c.09.97.21 1.93.35 2.88 1.69 1.04 3.48 2.09 5.42 3.17-1.27-4.88-2.24-9.82-2.52-15.17-.35-6.65 1.18-12.84 3.16-19.15-.48-.4-.92-.77-1.33-1.13-1.03.79-2.04 1.62-2.99 2.57l-1.82 1.82c-1.28 3.45-2.39 6.91-2.42 10.09-.02 2.65.56 5.67 1.13 8.59.41 2.13.84 4.32 1.03 6.34zm57.08 22.21c.57 6.37 1.68 14.93 2.43 20.46.7 1.48 1.34 2.92 1.7 3.88.75 2.04 2.65 7.22 3.96 10.85.75-.08 1.64-.18 2.64-.28-2.22-7.67-4.69-15.71-7.64-24.79-1.1-3.38-2.12-6.79-3.08-10.12zm14.69 34.49c1.7-.21 3.39-1.16 5.02-2.41-1.44-7.25-3.49-14.42-5.47-21.35-1.38-4.81-2.8-9.79-4-14.74-.29-1.18-.6-2.35-.9-3.52-2.25.75-4.3 1.41-5.94 1.92.81 2.74 1.64 5.46 2.47 8.17 2.18 7.13 4.44 14.5 6.06 21.55.81 3.53 1.79 7 2.76 10.39zm-23.78-58.89c-.82 1.59-1.1 4.16-1.13 5.35-.07 2.98 1 5.88 2.05 8.68.43 1.15.83 2.24 1.16 3.33.91 3.01 1.86 6.01 2.85 9.01-.19-6.99-2.45-18.33-2.45-22.71 0-1-.93-2.25-2.47-3.66zm-8.7-14.24c-.1-.9-.1-1.78.09-2.59.61-2.6 1.55-3.45 2.17-3.4.87.07 1.89 1.74 2.05 4.68.04.67 0 1.57-.06 2.61l-.03.75c2.17 1.11 4.09 2.22 5.54 3.24-.08-.78-.2-1.55-.33-2.27-.09-.54-.18-1.05-.22-1.47-.27-2.59-.05-4.2.32-6.15l-4.91-4.91c-.58.38-1.12.47-1.63.25-1.1-.48-1.8-2.21-1.94-3.28 0-.07 0-.14-.01-.21a29.01 29.01 0 00-4.04-2.66c-.9 2.37-1.6 4.34-1.76 5.44-.35 2.41-.13 5.17.23 7.96 1.5.64 3.03 1.32 4.52 2.01zm-30.61 10.97c.6 2.87.99 5.81 1.37 8.65.26 1.94.52 3.9.85 5.87 4 2.58 7.63 5.57 11.03 8.63.58-2.38 1.29-5.53 1.4-7.02.1-1.28.05-3.82-.07-6.4-.31-1.55-.6-3.12-.82-4.72-.82-5.87-.41-11.24.26-17.15-1.47-.78-2.73-1.46-3.66-1.98a53 53 0 01-1.62-.96c-1.06 8.84-.32 17.47 1.55 26 2.6 10.41-3.5 5.14-3.91 2.33-.9-4.2-1.61-8.39-2.17-12.9-.63-5.05.15-8.23 1.04-11.92.38-1.57.76-3.19 1.06-5.02a94.286 94.286 0 01-5.97-4.18c-.81 2.6-1.43 5.29-1.92 8.34-.62 3.93-.03 6.14.73 8.94.27 1.01.58 2.15.86 3.48zm64.49 32.36c2.21 8.14 4.43 16.45 6.53 24.81 1.41-1.36 2.71-2.73 3.86-3.77-2.3-7.3-5.79-19.24-3.85-20.37l.21-.12.06.04c3.79 2.65 5.22 9.83 6.26 15.07.05.25.1.48.14.72.54-2.18.68-4.59 1.61-6.83 2.06-4.99 1.91-7.68 3-12.12.22-.91.46-1.74.71-2.51l-3.01-3.01c.64 1.72 1.3 3.6.97 4.8-.04.13-.07.25-.11.37-.46 1.47-1.02 2.25-1.6 2.21-1.27-.08-3.03-3.53-3.41-6.04-.32-2.09-.57-4.2-.81-6.28l-4.18-4.18c2.85 13.05 1.69 16.36.48 17.05l-.14.08-.29-.07c-3.84-.86-3.84-8.64-3.84-13.28 0-.81 0-1.54-.02-2.17-1.99.79-4.08 1.56-6.12 2.28 1.19 4.48 2.39 8.94 3.58 13.33zm1.15-21.62c.17-.04.32-.08.49-.12l-.06-.28-9.83-9.83c.91 3.86 1.88 7.73 2.87 11.59 2.43-.48 4.79-.96 6.53-1.36zm13.48 44.61l.03.15c1.58 7.19 3.22 14.62 4.51 21.9 1.36 7.72 1.95 15.35 2.12 22.98 1.53-.58 3.07-1.21 4.71-1.76-.07-2.73-.27-5.47-.7-8.19-.46-2.9-1.41-5.67-2.33-8.34-.9-2.62-1.83-5.34-2.27-8.12-.33-2.08-.55-4.21-.77-6.28-.31-2.94-.73-5.96-1.26-9-.74-4.25 2.53-5.56 3.34 0 .38 2.55.51 4.58.71 5.77.78 4.58 1.95 9.18 3.09 13.64 1.38 5.41 2.81 11 3.53 16.57.12.96.23 1.95.31 2.96 1.35-.27 2.82-.44 4.43-.47-.78-6.78-2.34-13.58-3.86-20.21-1.31-5.72-2.67-11.63-3.48-17.38-.24-1.67-.51-3.34-.79-5.01-.81-7.19.54-8.22 1.5-7.47 3.13 2.45 1.76 4.34 2.04 7.01 1 5.01 2 10.1 2.85 15.21.56 3.39 1.26 6.79 2 10.39 1.19 5.76 2.38 11.64 2.99 17.45 2.19-.07 2.29-.58 2.4-1.36-.22-1.93-.37-3.88-.5-5.77-.12-1.8-.25-3.67-.45-5.49-.73-6.61-2-14.44-3.7-22.64-.38-1.86-.87-3.71-1.33-5.5-.63-2.41-1.27-4.9-1.69-7.44-.16-.99-.36-2-.55-3-.26-1.35-.53-2.75-.72-4.1v-.18c-3.57 1.52-7.26 3.18-8.55 4.04-2.21 1.47-5.3 5.33-7.62 9.65zm-23.34-42.61c-.06-.22-.12-.45-.18-.68-1.5-5.51-2.92-10.83-4.08-16.27l-6.35-6.35c.47 8.12 2.17 16.32 4.33 24.46 1.41-.26 3.73-.68 6.27-1.16zm36.91 26.55c.55-.22 1.11-.44 1.67-.65l-7.4-7.4c-1.5 6.17-4.8 12.17-4.8 12.17s5.95-2.29 10.53-4.12zm41.93 80.54l-93.53 93.53c-6.55-10.08-17.75-29.96-18.28-48.61 5.72-.35 11.7-1.56 17.86-3.61 1.6-.48 3.15-1.02 4.57-1.65 2.09-.82 7.78-3.51 11.32-6.11 5.42-3.26 10.5-6.57 13.79-8.08l.03-.02c-2.43 4.05-4.99 6.88-8.45 9.34-5.99 4.27-18.38 11.77-26.8 12.78-.13.02-.34 0-.99-.08-1.74-.2-7.02-.81-7.89.56-.2.33-.11.82.29 1.46.6.95 9.3.25 11.23-.2 8.56-1.98 17.95-6.34 25.76-11.96 5.12-3.68 7.7-7.38 10.67-12.91.36-.68.78-1.62 1.22-2.65 2.04-1.6 4.31-3.57 6.07-5.6-2.14 5.88-9.89 16.89-10.49 17.63-.65.8-2.17 2.11-3.92 3.63-2.68 2.32-7.66 6.64-7.19 7.71.02.04.25.43 2.11.18 6-.81 12.27-10.88 15.28-15.73l.22-.35c4.66-7.48 7.11-12.96 7.62-22.12.4-7.33.72-14.61.71-21.87 1.58-.35 3.13-.67 4.63-.94-.19 4.83-.7 9.65-1.21 14.38-.14 1.27-.28 2.54-.41 3.8-.15 1.47-.25 2.96-.35 4.55-.25 3.86-.51 7.85-1.61 11.43-.06.2-.26.66-.67 1.58-.76 1.71-2.96 6.67-2.96 8.02.06-.03.12-.06.17-.08 6.13-4.24 7.81-15.09 9.06-23.07.18-1.18.36-2.3.53-3.32 1.03-5.93 1.5-12.17 1.42-18.03 1.59-.34 3.12-.75 4.57-1.25.03.53.07 1.06.08 1.59.17 5.9-1.24 12.92-2.48 19.11-.3 1.51-.6 2.98-.86 4.37-.03.14-.07.3-.12.48-.28.89-.91 2.3-1.67 4.01-1.4 3.13-3.74 8.35-3.01 9.38.37.52.66.46.77.44 2.28-.41 5.89-10.36 6.55-12.85 1.88-7.11 3.3-14.52 3.78-19.83.24-2.63.23-5.3.09-8 .73-.36 1.46-.72 2.14-1.13.11-.07.22-.13.33-.2.24 3.83-.17 6.93-.67 10.66l-.25 1.9c-.2 1.51-.25 2.96-.29 4.36-.07 2.12-.14 4.3-.74 6.69-.15.59-.44 1.39-.76 2.31-.84 2.36-2.08 5.85-1.43 7.4 3.55-.5 3.91-4.38 4.24-7.8.26-2.71.5-5.27 2.5-5.44.22-.02.42.06.57.23.53.58.34 2.31-.3 5.96-.1.56-.21 1.18-.27 1.6l.12.09c2.71-.86 2.63-4.41 2.57-7.58-.05-2.49-.09-4.46 1.28-4.84.29-.08.56-.03.79.13.67.48.79 1.83.89 3.68.02.4.05.87.08 1.14.36.02.66-.11.95-.4 3.8-3.72.99-28.51.4-31.38-.52-2.55-.79-5.05-1.05-7.46-.31-2.87-.62-5.84-1.38-8.88-1.33-5.38-2.17-10.4-2.49-14.93-.09-1.23-.21-2.47-.33-3.7l3.86 3.86c.08.56.18 1.12.23 1.67.42 3.94 1.53 7.67 2.6 11.27.6 2.03 1.23 4.13 1.72 6.23.21.89.2 2.68.2 4.75 0 3.76 0 10.05 1.72 10.33.3.05.53-.02.73-.23.2-.21.37-.53.49-.93 1.38-4.44-1.75-19.56-3.16-26.34-.23-1.09-.42-2.02-.57-2.78l4.32 4.32c.16.21.29.34.39.39l13.05 13.05c11.3 11.3 11.3 29.63 0 40.93zm-89.86 50.33c-.17-.17-1.29.2-1.83.38-.66.22-1.34.44-1.93.5-1.11.1-2.41.16-3.79.22-3.49.16-7.41.34-10.11 1.26-.08.15-.22.26-.32.34.68.5 3.27 1.23 7.37 1.35 4.26.13 9.55-.56 10.41-2.93.04-.1.07-.19.09-.27.22-.69.1-.86.1-.86zm10.19-4.06c-.23-.06-.42-.21-.45-.23-1.9-.11-5.82 1.34-6.48 2.75-.09.19-.33.7.71 1.35 1.23.77 3.83.13 5.34-1.32.32-.3.72-.77.89-1.34.11-.37.14-.77-.02-1.2zm25.67-13.12c.12-.5 0-.83-.38-1.09-.4-.26-1.02.17-1.35.45-1.59 1.34-2.84 4.1-2.54 4.77.01.04.04.1.28.07.62-.08 3.6-2.42 4-4.2zm41.45-57.41a1.42 1.42 0 00-.37-.33c-.29.12-.66.25-.98.26-.66 1.46-1.42 5.6-.74 7.31.22.54.48.52.59.51.56-.06 1.12-.66 1.54-1.65.09-.21.17-.44.24-.67.62-1.99.52-4.42-.28-5.43zm2.1-22.69c.05-.82-.2-1.59-.62-1.86a.839.839 0 00-.52-.12c-.31.18-.54.3-.71.37-.56.7-.7 2.24-.2 3.06.17.28.48.61 1.21.25.31-.15.56-.51.71-.97.07-.22.11-.46.13-.72zM188.99 9.31c.2-2.13.6-5.34 1.2-8.88-1.81.37-3.58.92-5.3 1.64-.28.96-.58 1.93-.97 2.92-.05.12-.09.25-.14.37 1.38 1.76 3.25 3 5.21 3.94zm7.87 2.85c.06-.53.12-1.03.18-1.58.05-.43 0-1.06-.05-1.79-.12-1.66-.28-3.93.61-4.9.28-.31.67-.46 1.18-.47.84-.01 1.39.19 1.69.62.82 1.17-.19 3.89-.93 5.89-.39 1.05-.7 1.88-.73 2.42-.01.18-.01.35-.02.52 1.68.63 3.8 1.46 6.11 2.4.2-1.83.35-3.72.24-5.71-.16-2.78.26-5.38.95-7.94-1.82-.67-3.68-1.14-5.57-1.44-.77.38-1.03.28-1.1.24-.1-.07-.15-.23-.18-.42-1.65-.18-3.3-.2-4.96-.1-.39 1.43-.75 2.7-1.02 3.69-.64 2.28-1.09 3.93-1.23 4.54-.17.75-.29 1.5-.43 2.25 1.43.52 2.82.94 3.98 1.33.31.1.75.26 1.28.45zm-17.33 179.8c1.51 5.34 3.19 12.52 3.19 18.16 0 10.18-4.71 28.75-13.96 32.86l-93.44-93.46c-11.3-11.3-11.3-29.63 0-40.93l12.53-12.53c.26.64.54 1.18.82 1.53.14.17.4.45.71.41.59-.18 1.16-1.47 1.07-4.54l2.29-2.29c.36 3.88 1.07 6.4 2.12 7.2.31.24.64.31 1.03.22.09-.13.2-.23.27-.3 1.14-1.88.46-5.13-.14-8.01-.14-.69-.28-1.36-.39-2.01l4.26-4.26c-.06 2.32.06 4.68.47 7.09l.49 2.95c1.97 11.97 4.01 24.35 12.52 33.35.38.4.7.97 1.05 1.57.67 1.18 1.37 2.41 2.46 2.46.77.04.93-.26.99-.35.62-1.15-1.32-4.64-2.24-5.91-.49-.69-1.14-1.22-1.83-1.79-.86-.7-1.74-1.43-2.34-2.51-1.05-1.88-1.7-4.38-2.34-6.8-.52-1.98-1.06-4.03-1.8-5.71-2.53-5.68-3.69-12.63-4.56-19.29-.49-3.69.2-6.25.97-8.89l5.74-5.74c.17 1.45.52 2.88.9 4.35.38 1.45.77 2.94.95 4.47 1.22 10.53 4.73 19.45 8.54 28.41.51 1.19 1.02 2.5 1.57 3.88 2.98 7.55 6.7 16.95 13.68 20.16 2.74 1.26 3.14.86 3.14.86.4-.56-1.47-3.33-5.63-8.22-.61-.72-1.11-1.3-1.36-1.64-1.85-2.44-2.93-5.14-3.98-7.74-.42-1.05-.86-2.14-1.34-3.2-.8-1.76-1.78-3.53-2.72-5.24-1.05-1.91-2.14-3.88-3.04-5.92-4.8-10.92-6.92-22.93-5.83-32.95.08-.77.15-1.56.22-2.35l4.06-4.06c-1.21 12.64-.33 25.08 4.6 36.63 2.56 6 5.55 11.86 8.88 17.42 2.21 3.7 4.89 6.21 7.73 8.87 1.42 1.33 2.89 2.71 4.31 4.26 2.84 3.09 5.74 6.11 9.26 8.98 2.51 2.5 5.82 5.64 7.32 6.39 1.94.97 6.41 5.08 9.35 8.98-.82-.29-1.54-.56-2.15-.8-.72-.28-2.03-1.07-3.68-2.08-3.44-2.09-9.19-5.59-11.01-4.79-.17.07-.4.22-.49.68-.69 3.5 11.02 7.96 18.98 10.31.47 1.77.97 3.61 1.46 5.43-6.29-1.65-11.89-5.28-16.54-8.61-2.14-1.53-4.53-2.72-6.85-3.87-3.06-1.52-6.22-3.09-8.95-5.5-11-9.71-17.99-22.6-22.85-32.74-3.38-7.05-5.67-13.33-7.22-19.76-.16-.68-.31-1.66-.47-2.79-.47-3.18-1.17-7.99-2.87-8.77-.3-.14-.63-.14-1 0l-.04.08c-.06.1-.14.19-.23.26-.41 9.09 2.24 21.44 6.5 30.22 1.17 2.42 2.63 4.67 4.04 6.86 1.38 2.14 2.81 4.35 4.02 6.77.3.61.6 1.22.9 1.82 2.06 4.2 4.01 8.18 7.39 11.74 12.63 13.35 28.67 23.02 45.07 27.58 1.43 5.21 2.63 9.46 2.63 9.46s-15.94-4.47-22.37-8.67c-4.07-2.65-9.71-4.74-14.02-6.71-.6-.65-1.19-1.36-1.76-2.07-.96-1.19-1.87-2.31-2.67-2.85-1.46-.99-2.95-1.62-4.39-2.23-1.95-.83-3.96-1.68-5.82-3.39-.35-.32-.78-.86-1.28-1.48-1.15-1.43-2.88-3.58-4.21-3.64-.12 0-.23.03-.35.07-1.38-.7-2.65-.79-5.73-1.89-1.16-.41-2.12-.79-2.93-1.14a8.4 8.4 0 00-1.42-1.16c-.74-.48-1.42-.73-1.94-.74-.93-.77-1.55-1.62-2.38-2.78-.77-1.07-1.49-2.34-2.08-3.48-.85-2.96-3.47-6.45-4.21-6.41-.17.01-.41.07-.6.49-.64 1.48.19 5.55 1.94 7.72.25.31.57.64.94.87.97 2.45 3.29 6.74 8.23 9.74.09.06.18.11.27.17 1.23.72 2.61 1.37 4.18 1.87 5.66 1.83 14.14 9 19.28 12 5.14 3 13.78 11.05 21.49 14.05 7.71 3 22.22 7.8 22.22 7.8s.58 1.61 1.36 4.12c-.18-.04-.35-.07-.53-.11-.85-.19-2.66-.95-4.95-1.92-3.37-1.42-10.92-4.6-12.57-4.08-.09.26-.18.43-.27.55.3 3.44 7.76 5.53 12.3 6.81 1.15.32 2.15.6 2.81.84 1.37.5 2.79.94 4.23 1.34zm-12.86-20.59c.44.7 1.22 1.08 2.18 1 .52-.06 1.11-.26 1.11-.85 0-.81-.97-1.87-2.09-1.97-.66-.06-1.14.1-1.35.45-.21.35-.16.89.15 1.38zm-12.62-4.79c1.91 2.16 6.96 4.63 9.31 4.11h.01c.75-.17 1.11-.42 1.06-.74-.28-1.92-8.1-5.94-9.23-5.86-1.04.17-1.69.49-1.84.9-.1.41.11.94.68 1.59zm-12.81-7.72c1.59 2.5 6.61 5.29 8.94 4.96.52-.07.78-.28.93-.5-.03-.12-.05-.27-.04-.46v-.1c-.99-1.84-5.41-5.46-8.29-5.98-1.34-.24-1.71.32-1.83.51-.3.45-.01 1.1.28 1.57zm-6.04-4.16c2.03.8 3.62.96 4.09.44 0-.12.01-.25.03-.37-.39-1.58-3.51-3.84-5.63-5.37-1-.72-1.87-1.35-2.37-1.82-.26-.25-.59-.61-.95-1.01-1.1-1.22-2.76-3.07-3.83-2.87-.39.07-.71.45-.98 1.12-.02.05-.04.1-.05.15-.99 3.17 5.1 7.92 9.68 9.73zm7.33-12.15c2.26 2.84 5.46 5.2 6.78 5.02.03 0 .05 0 .08-.01 1.13-.23 1.2-.83 1.13-1.33-.4-3.05-7.22-8.83-8.56-8.74-.71.05-1.16.26-1.33.64-.36.82.37 2.5 1.9 4.42zm-19.56-.74c.1 0 .22.02.36.08.08.03.15.06.2.1.35-.03.6-.15.73-.35.34-.52.09-1.73-.69-3.24-1.4-2.74-3.63-5.04-4.18-5.06-.83-.03-1.87.05-2.08.66v.03c-.55 1.75 3.91 6.36 5.65 7.79zm-8.91.64c.59.85 1.82 2.2 3.53 1.74h.02c.28-.08.56-.24.56-.83.02-2.03-3.07-6.01-3.84-6.25-.89-.27-1.16.11-1.26.23-.68.92-.19 3.41.98 5.11zm-15.1-28.99c-1.36 2.17 1.08 11.86 5.11 17.7 1.3 1.88 3.24 4.03 5.19 3.76.29-1.6-3.71-12.62-7.03-18.61-1.67-3.01-2.35-3.21-2.42-3.22-.39-.06-.65.05-.85.36zM92.05 103c-.34-.61-1.02-1.63-1.75-1.49-.13.03-.27.26-.37.62-.6 2.27.62 7.83 2.35 9.31.25.21.47.3.66.33.12-.12.25-.22.35-.28.08-.05.18-.13.3-.19.46-1.6-.16-5.82-1.53-8.3zm6 5.79c.1 0 .32.01.54-.39.64-1.21.32-4.35-.87-5.81-.49-.6-1.03-.81-1.64-.63-1.27.37-1.44 1.49-1.35 2.37.19 2.06 1.87 4.31 3.32 4.45h.01zm30.83 56.25c.12-.4-.82-1.4-1.45-2.06-.44-.46-.86-.91-1.18-1.35-.48.07-1-.45-1.07-.52-.31-.33-.32-.58-.26-.76-.8-.68-1.6-1.66-2.39-2.61-1.11-1.35-2.37-2.87-3.22-2.96-1.02-.11-1.7.02-1.86.34-.31.62.63 2.63 4.22 6.21l.15.16c3.66 3.67 4.95 4.14 5.39 4.1 1.43-.14 1.62-.47 1.65-.53zm29.8 16.53c-.06-.23-.05-.49-.03-.65-.72-1.38-3.26-1.79-5.36-2.12-.95-.15-1.76-.28-2.32-.49-3.44-1.28-6.29-3.43-9.67-6.1-.34-.27-.79-.67-1.32-1.15-1.72-1.55-4.93-4.42-6.22-3.84-.59.27-.7 1.36-.69 2.24.03 3.12 11.06 10.13 19.35 12.29 3.18.83 5.37.76 6.26-.18zm19.07 14.36a1.74 1.74 0 01-.12-.46c-1.73-1.61-8.06-4.63-11.48-4.81-.72-.04-1.23.06-1.5.27.75 1.86 6.98 4.94 10.87 5.31.65.06 1.7.08 2.22-.31zm26.57-171.19c-.09-.98-.09-1.93-.06-2.87-1.97-1.08-3.87-2.1-5.61-3.02.12 6.54 1.02 12.8 2.01 18.68 2.36 13.94 5.65 23.17 10.06 28.23l.21.24.3-.12c1.08-.43 1.38-.59 1.35-.98v-.05c.11-.16.21-.34.28-.54.9-2.26-.85-6.04-2.7-10.04-1.83-3.96-3.72-8.06-2.75-10.18.3-.66.86-1.09 1.73-1.35 3.1-.9 8.32 16.19 10.04 21.8.35 1.15.63 2.05.8 2.57 7.17 21.17 14.57 43.05 16.62 66.51 1.58-4.35 2.61-8.33 2.25-10.75-1.05-7.06-2.69-16.65-5.66-26.51-3.08-10.23-8.06-14.38-8.06-22.09 0-1.15.02-2.13.05-3-3.49-8.79-6.43-17.95-9.26-26.84l-.38-1.19c.38-.71.7-1.46.97-2.23l.1-.28-.22-.2c-.62-.57-1.25-1.14-1.87-1.7-.11-.69-.23-1.38-.35-2.1-.13-.74-.26-1.5-.39-2.28-.26-1.66-.11-3.42.03-5.11.05-.61.1-1.24.14-1.86-1.49-.93-3.06-1.87-4.66-2.8 0 .04 0 .08.01.11.03.43.12 1.16.23 2.07.46 3.64 1.53 12.17-.67 13.75-.43.31-.98.32-1.69.04-.12-.13-.3-.24-.46-.34-.03-.02-.08-.05-.13-.08-1.67-1.93-1.94-8.56-2.1-12.6-.05-1.18-.09-2.19-.15-2.91zM189.59 156.6c-2.68-.41-7.21-1.1-10.88-2.29.05.18.09.38.15.54.57 1.7 1.66 3.53 2.95 5.31 3.24.69 6.71 1.23 10.18 1.4.2-1.46.39-3.02.55-4.62-.8-.05-1.6-.13-2.38-.25l-.57-.09zm-2.19-26.23c-.75-.24-1.46-.47-2.08-.62-1.18-.29-2.63-.9-4.16-1.55-1.21-.51-2.44-1.02-3.59-1.4v.19c0 .57-.02 1.58-.05 2.84.75.48 1.65 1.04 2.75 1.71l-.03.06.45.19c3.49 1.5 7.7 3.05 12.53 3.1h1.44c.52-1.58 1.09-3.15 1.7-4.71-1.06.7-2.17 1.12-3.4 1.28-1.59.2-3.7-.47-5.56-1.07zm23.27-13.75c-.11-.76-.45-1.98-.84-3.39-1.01-3.62-2.52-9.08-1.15-10.57.69-.75 1.11-.63 1.25-.59 1.69.46 2.92 6.13 3.33 7.99.1.46.18.81.23 1.01.69 2.46 1.56 4.94 2.39 7.33.91 2.6 1.85 5.3 2.56 7.95.42 1.57.08 6.3-.2 10.11-.38 5.17-.37 5.93 0 6.24.71.59 1.34.47 1.74.26 1-.51 1.83-2.3 2.48-4.38 1.08-3.47 1.64-7.76 1.61-8.24-.34-5.06-1.71-10.25-2.95-14.72-.45-1.61-1-3.23-1.54-4.8-.79-2.31-1.6-4.7-2.09-7.08-.29-1.41-.28-2.82-.26-4.19.01-1.28.03-2.49-.21-3.63-.54-2.61-1.84-5.48-3.11-8.26-.88-1.94-1.79-3.94-2.4-5.78l-.54-1.62c-.9-2.71-1.81-5.47-2.8-8.22.17 2.65.38 6.13.87 11.01 1.78 17.4-2.93 13.6-2.11 30.49.15 3.03.19 5.59.14 7.78.17 3.73-.07 7.28-1 10.27-.29.94-.65 1.82-1.08 2.64-.15.28-.31.54-.48.8-.33.75-.62 1.44-.82 2.25-.32 1.28-.5 3.21-.59 5.5 1.33-.7 2.51-1.63 3.53-2.8 5.92-6.86 4.57-19.61 4.02-23.35zm-23.61 20.93c-3.89-.81-6.84-1.79-9.63-3.24-.02 1.59-.03 3.32-.02 5.1 1.5.21 3.41 1.15 4.85 1.86.88.43 1.63.81 2.19.99 2.83.91 5.7 1.52 8.37 1.83.09-1.63.31-3.21.64-4.74-1-.23-1.99-.54-2.97-.84-1.12-.35-2.28-.71-3.42-.94zm1.75-79.45c2.39 5.18 6.59 14.95 4.75 18.41-.34.65-.88 1.02-1.65 1.15-.66.11-2.76-1.67-7.98-20.51-.17-.63-.31-1.12-.39-1.41-.49-1.67-.99-3.32-1.48-4.95-.44-.98-3.1-3.13-6.69-5.78 1.22 4.52 2.83 8.87 4.43 13.13.84 2.24 1.7 4.55 2.49 6.85 1.76 5.11 3.23 10.56 4.64 15.83.99 3.69 2.02 7.52 3.13 11.12.25.82.52 1.62.77 2.4 1.53 4.63 2.84 8.64.38 13.3-.21.39-.7 1.07-1.27 1.86-2.09 2.9-4.96 6.87-3.39 8.86.4.5.98.59 1.59.23 1.66-.96 4.89-7.15 5.44-9.15.95-.18 1.62-.01 2.05.52 1.15 1.41.45 5-.48 6.94-1.08 2.28-2.8 3.78-5.1 4.46-4.35 1.27-9.78-.69-13.1-2.77-.09-.06-.21-.14-.31-.21.24 1.92.47 3.72.64 5.22.24.12.46.22.66.3l.28.11c3.61 1.43 8.1 3.2 12.13 3.12 3.05-.07 5.75-1.54 7.79-4.27.48-.64.89-1.34 1.26-2.07.57-4.4.02-9.08.75-13.68-.58-1.67-1.27-3.3-1.94-4.89-1.04-2.43-2.11-4.95-2.75-7.58-.2-.8-.67-2.06-1.21-3.52-1.12-3.01-2.68-7.1-2.17-8.54.24-.68.64-1.49 1.19-1.49 1.07-.02 3.22 2.19 7.37 12.82l.31.78c.39.96.84 2.16 1.31 3.53 1.19-8.11.69-19.62-.68-24.79-1.05-3.93-7.52-10.24-12.75-15.33zm20.84 98.35c2.01-1.25 4.51-2.8 5.27-4.23v-.02c.42-.69 1.4-2.97.99-3.93-.09-.22-.39-.71-1.2-.57-1.87.32-3.82 2.11-5.87 4.01-1.53 1.41-3.11 2.87-4.51 3.51-.33.15-.7.28-1.06.41.07 1.57.14 3.1.22 4.54 1.51-.65 2.91-1.55 4.64-2.75.4-.27.93-.61 1.53-.98zm-21.91 10.52c1.13.1 2.25.24 3.31.43.15-.86.34-1.93.53-3.12-2.54-.31-5.08-.77-7.52-1.26 1.28 1.49 2.57 2.85 3.68 3.96zm77.11-36.01l-.06-.48c-.27-2.11-.54-4.28-.66-6.33-.79-13.98-2.29-24.71-4.74-33.76-.07-.24-.18-.61-.31-1.04-.95 1.15-2.56 2.24-4.46 3.23 1 4.18 1.96 8.36 2.84 12.55 1.64 7.83 3.14 16.51 3.49 25.6 1.62-.07 2.51.35 3.9.24zm-54.34 33.41c.86-.51 1.74-1 2.61-1.49 2.58-1.44 5.26-2.94 7.59-5.05 4.31-3.91 10.76-13.41 11.48-20.01.1-.92-.28-2.07-.65-3.18-.27-.81-.52-1.57-.57-2.18-.03-.34.19-1.11.38-1.78.23-.81.48-1.66.46-2.25-.08-3.68-.79-7.61-1.48-11.41-.4-2.2-.81-4.48-1.08-6.62-1.18-9.37-3.53-18.23-6.64-24.94-.77-1.66-1.37-3.59-2.01-5.63-.9-2.86-1.83-5.81-3.26-8.03-1.61-2.48-2.55-3.35-3.34-3.09-.79.26-1.05 1.49-.91 4.42.22 4.68 2.36 9.66 4.42 14.48.88 2.06 1.72 4 2.36 5.85 5.64 16.02 11.04 34.5 3.79 51.2-3.2 7.36-10.27 16.43-18.25 18.95-.56.18-1.13.32-1.71.45.1 1.49.19 2.77.26 3.73 1.26-.85 3-1.68 4.35-2.31.9-.42 1.68-.79 2.2-1.09zM168.68 30.34c-.78.05-1.4.41-1.84 1.05-.24.36-.4.84-.52 1.38 1.03.81 2.06 1.58 3.11 2.32-.09-.47-.16-.89-.2-1.21-.02.04-.36-2.64-.49-2.63l-.06-.9zm18.37 117.13c-1.63-.44-6.58-2.22-9.56-4.19.07 2.23.2 4.41.41 6.37.15.11.26.18.34.21 4.42 1.89 9.83 3.08 14.6 3.25.1-1.91.11-3.77 0-5.44-2.04.12-4.15.25-5.78-.2zm-66.64-59.3c-.66-3.33.09-6.19.82-8.95.42-1.6.86-3.25 1.03-5.01.23-2.39.18-4.75.12-7.03-.05-1.86-.07-3.76.04-5.7l6.33-6.33-.06.55c-.24 2.44-.5 4.96-.84 7.37-.7 4.94-1.14 20.38 3.78 23.77l.08.06.05.09c1.26 2.12 1.75 2.13 1.75 2.14.64-.35.34-5.2-.2-7.92-.97-4.91-1.31-10.68-.95-16.25.35-5.45.84-10.34 1.5-14.9l1.68-1.68c2.47 5.21 5.53 19.8 7.78 26.7 1.72 5.28 4.07 7.6 6.67 9.09 1.41 5.54 3.77 10.89 8.01 16.23 1.91 2.41 6.27 5.59 7.24 4.99.02-.01.09-.06.13-.21.11-.36.1-1.27-.9-3.54-.82-1.85-2.32-3.79-3.76-5.66-1.14-1.48-2.33-3.02-3.18-4.52-1.09-1.91-1.87-3.43-2.51-4.98.7.32 1.39.66 2.08 1.07 1.38.82 2.82 2.16 4.16 3.78 1.2 2.45 2.6 4.81 4.21 6.99 1.19 2.92 1.7 5.85.97 8.1-1.42 4.39 4.07 6.5 4.65 13.67-1.63-.86-3.23-1.58-4.2-1.59-.34.19-.59.28-.78.31l-.1.09c-2.62 2.45-3 2.39-6.76-.93-.54-.48-1.14-1.27-1.76-2.1-1.43-1.89-3.18-4.22-4.98-3.8.91 7.12 9.27 12.35 16 16.57.5.31.99.62 1.48.93-.24 1.68-.46 3.47-.62 5.32-.4-.17-.76-.35-1.03-.55-.9-.65-1.58-1.53-2.23-2.39-.53-.7-1.04-1.36-1.66-1.9-.96-.84-1.87-1.57-2.75-2.27-2.16-1.74-4.21-3.39-6.25-5.98-1.48-1.88-2.91-3.88-4.3-5.82-1.39-1.95-2.83-3.97-4.28-5.79-1.81-2.27-3.13-3.06-3.5-2.9-.06.03-.55.32-.1 2.89.85 4.89 16.35 23.98 25.86 27.85-.04.76-.08 1.52-.1 2.28-1.41-1.02-3.72-2.17-5.57-3.08-1.72-.85-3.21-1.59-3.96-2.16-3.82-2.93-7.2-6.23-9.52-9.3l-.58-.77c-2.84-3.76-4.89-6.47-7.23-10.64-.76-1.36-1.45-2.72-2.11-4.03-1.38-2.73-2.68-5.32-4.6-7.84-.26.1-.58.15-.85.15-.24.2-.41.46-.51.8v.03c-1.56 5.22 12.33 23.09 15.43 26.08 3.73 3.6 8.18 7.23 11.9 9.72 3.38 2.26 5.97 3.62 7.57 4.17 0 1.27.05 2.51.13 3.7-.07-.08-.16-.16-.19-.23-17.69-8.56-30.89-22.38-41.52-43.44-.57-1.13-1.22-2.32-1.9-3.56-2.03-3.7-4.32-7.9-5.08-11.71zm20.98 10.97c-.36-.4-1.08-1.05-1.89-.87-1.73.39-1.57 2.17-1.42 2.92.35 1.77 1.75 3.65 3.03 3.44h.01c.75-.13 1.24-.53 1.47-1.18.37-1.15-.13-3.1-1.2-4.3zm10.86 5.11c-.15 3.71 9.96 12.29 11.88 12.98.14-.02.32-.03.56 0 .26-.04.51-.12.59-.3.22-.56-.38-2.15-4.7-6.53-.44-.45-.59-.6-.65-.7-.43-.63-.81-1.47-1.22-2.35-1.08-2.36-2.31-5.03-4.69-4.59-1.54.28-1.74.99-1.76 1.49zm-5.8-8.25c-.86 1.41.33 3.75 1.98 4.89.53.37 1.77 1.05 2.79.28.06-.16.16-.33.25-.47.07-.11.14-.24.22-.34.12-1.55-1.4-4.26-3-5.09-.92-.48-1.65-.23-2.25.74zm-9.74-21.66c.62 4.32 1.74 8.64 3.51 12.91 1.23 2.97 3.26 6.22 4.81 6.33.55.04 1.08-.35 1.57-1.17.05-.09.1-.19.13-.3.52-1.67-1.48-5.02-2.97-7.51-.79-1.33-1.47-2.47-1.73-3.25-.55-1.67-.95-3.57-1.23-5.66-1-7.11-4.38-9.46-4.1-1.36zm-1.05 21.03c.44.66.95 1.01 1.35.94 1.56-.27 1.66-1.75 1.65-2.2-.02-1.23-.77-2.65-2.11-2.84-.73-.1-1.23.06-1.49.48-.53.85-.12 2.56.6 3.62zm-8.08.52c.71 2.49 2.71 5.06 4.33 4.76.63-.12 1.01-.51 1.2-1.12.5-1.74-.82-5.18-2.61-6.81-.52-.47-1.28-.97-1.99-.7-1.7.66-1.14 3.13-.93 3.87zm-2.93-7.83c.58.7 1.27.92 2.12.67.02 0 .03-.01.05-.01l.06-.02c.82-.31.83-1.69.75-2.5-.29-3-2.13-6.34-2.81-6.43-.31-.04-.59.17-.83.61-.94 1.72-.78 5.91.68 7.67zm84.37 99.99c-.93.49-2.22.79-3.83.91 1.64.61 4.58 1.25 8.38.16 4.52-1.29 15.86-5.75 22.56-8.66 2.21-1.32 4.17-2.35 4.68-2.19.95-.54 2.31-1.2 3.85-1.96-.25.02-.44 0-.51-.09-.99-1.39 4.81-9.87 6.72-12.66.62-.91 1.07-1.56 1.23-1.85 1.38-2.43 2.51-5.07 3.41-7.98 1.45-4.66 2.32-10.01 2.67-16.33v-.12c-1.31.36-2.59.72-3.8 1.07.18 3.21.08 6.38-.56 9.44-.93 4.49-4.79 19.77-15.06 27.89-2.34 1.85-23.06 12.82-25.82 11.59-.09-.04-.11-.08-.12-.15v-.02c.37-1.18 9.11-5.91 14.34-8.74 4.06-2.2 7.56-4.1 8.51-4.91 3.24-2.77 14.92-14.45 12.86-20.95l-.17-.52-.48.26c-2.75 1.5-4.59 4.85-6.37 8.09-1.09 1.98-2.12 3.85-3.29 5.19-2.86 3.26-6.79 5.69-10.59 8.04l-.69.43c-.3.19-.65.43-1.04.69-1.15.78-3.29 2.24-3.94 1.81-.15-.1-.47-.53-.11-2.32.31-1.32 4.09-3.63 6.63-5.17 1.29-.78 2.4-1.46 2.99-1.94 2.8-2.29 4.62-5.14 6.38-7.9 1.59-2.49 3.09-4.84 5.25-6.82 1.21-1.11 2.23-1.87 3.14-2.54 2.78-2.07 4.05-3.01 3.63-9.08-.02-.34-.05-.66-.08-.99-2.44.75-4.28 1.34-5.19 1.63-1.9 8.95-8.99 18.31-15.86 23.49-.56.42-1.16.88-1.79 1.36-1.9 1.46-4.14 3.16-6.53 4.76-4.52 3.2-9.41 6.53-12.55 8.65.08-.01.14-.01.22-.03.52-.08 1.35-.34 2.4-.68 2.19-.7 5.85-1.87 7.01-1.09.21.14.32.35.34.66.02.23-.01.45-.08.66-.71 2.28-5.93 3.48-10.5 3.83-1.14.09-2.06.07-2.86-.02l-.4 3c2.68.17 5.56.37 6.49.58-.26.63-.75 1.13-1.49 1.52zm43.85-20.13c-1.52 2.43-3.31 5.28-5.36 6.98 2.64-1.34 5.48-2.9 7.81-4.65.89-1.39 1.91-2.82 2.92-4.22 2-2.78 4.08-5.66 5.1-8.23 1.34-3.4 1.73-9.63 2-14.18.05-.82.1-1.58.14-2.27.14-1.93.05-3.93-.13-5.94-1.45.35-2.91.72-4.34 1.09-.1 4.62-.53 9.32-1.45 14.05l-.3 1.56c-.97 5.11-1.68 8.8-4.95 13.56-.44.65-.93 1.42-1.45 2.25zM151.01 56.67c-.38 8.09.08 14.68 1.54 21.36 1.6 1.03 3.27 1.91 4.77 2.76-1.06-3.9-1.7-7.67-1.96-10.94-.54-6.75-.35-14.13-.2-20.07.1-3.81.52-7.32 1.37-11.38.11-.55.37-1.34.65-2.18.4-1.21.81-2.51 1.03-3.67-.73-.56-1.43-1.09-2.07-1.61-4.31 4.34-4.84 17.94-5.07 24.11-.02.62-.05 1.17-.07 1.62zm94.14 78.31c1.09-.15 2.57-.4 4.2-.78-1.2-13.11-3.21-24.7-6.13-35.24-.18-.65-.37-1.31-.55-1.96-.87.25-1.63.45-2.22.6 1.21 3.54 3.46 10.57 3.34 15.94-.14 5.81 1.3 16.81 1.36 21.45zm-39.21 10.72c.09.28.28.42.4.48 1.55.79 7.58-3.51 8.1-4.22.35-.48 3.29-8.07 2.03-9.86-.17-.24-.57-.61-1.33-.38-.81.24-1.52 1.9-2.91 5.78-.49 1.37-1 2.78-1.25 3.1-.25.32-1.09.92-1.91 1.49-1.37.96-2.37 1.7-2.84 2.34l-.09-.03-.16.49s-.02.06-.03.08l-.09.29h.01c-.04.18-.03.33.06.44zm-46.37-75.22c.26 4.26.53 8.66 1.96 12.25.79 1.98 1.87 4.12 3.15 6.33 4.22 5.42 11.16 12.81 10.95 14.27-.28 1.97-.05 5.46.34 9.2 3.55 2.78 6.28 4.51 7.47 3.69.9-.62.5-2.21.12-3.35-.26-.78-1.44-1.48-2.8-2.28-1.23-.72-2.91-1.72-2.85-2.37.02-.17.23-.63 1.81-1.17 1.24-.43 2.21-.1 3.15.22 1.94.66 3.34.81 5.02-2.86 2.78-6.09-1.24-14.28-4.17-20.26-.6-1.21-1.15-2.35-1.61-3.38-1.45-3.25-7.99-26.11-11.17-39-1.46-1.05-2.97-2.12-4.48-3.2 1.05 6.75 4.37 16.89 7.84 27.45 4.97 15.13 10.13 30.79 7.83 34.84-.26.46-.6.74-1.06.85-3.51.85-7.81-6.29-9.43-8.98l-.12-.19c-3.36-5.57-8.01-14.66-6.86-16.82.47-.93.96-1.4 1.45-1.38 1.9.05 4.57 6.18 6.52 10.65 2.3 5.29 3.68 8.28 5.08 8.19l.26-.02.12-.23c1.73-3.4-1.38-9.31-3.44-13.22-.44-.83-.82-1.56-1.1-2.14-.69-1.49-1.33-3.75-2.01-6.14-1.25-4.43-2.67-9.46-4.99-11.35h-.01l-.43-.35-.25.5c-.56 1.1-.28 3.12.02 5.26.32 2.32.69 4.96-.24 5.67-.41.32-1.13.27-2.16-.15-2.46-1-1.72-10.01-1.4-13.87.08-.93.14-1.69.16-2.19.23-6.58.52-12.62 1.26-18.5-1.14-.83-2.26-1.64-3.33-2.43-.41 2.17-.76 4.35-1.01 6.54-.93 8.28-.92 16.73.03 25.11.17 1.5.27 3.11.37 4.81zm-11.24 3.86c-.31-3.04-.5-6.15-.7-9.38-.09-1.48-.18-2.99-.29-4.52-.56-8.2.66-16.35 3.52-23.56 1.03-2.58 2.4-4.89 3.85-7.1-.11-.09-.21-.18-.32-.27l-15.2 15.2c5.56 5.58 5.94 19.15 7.35 25.84.31 1.46.94 2.7 1.78 3.79z"/><path d="M29.1 339.25v6.22H0v-6.22c0-1.83.88-2.93 2.65-3.31l.66-.12c.28-.05.81-.15 1.58-.28.76-.14 1.81-.32 3.13-.55v-33.31c-1.32-.23-2.36-.42-3.13-.55-.76-.14-1.29-.23-1.58-.28-.29-.05-.51-.09-.66-.12-1.77-.4-2.65-1.5-2.65-3.33v-6.22h21.09v43.8c1.32.23 2.36.42 3.13.55.76.14 1.29.23 1.58.28.29.05.51.09.66.12 1.77.38 2.65 1.48 2.65 3.31zm-6.75-60.72c-.46.99-1.07 1.85-1.83 2.59s-1.65 1.33-2.67 1.77-2.12.66-3.28.66c-1.13 0-2.2-.22-3.2-.66a8.41 8.41 0 01-2.62-1.77c-.74-.74-1.33-1.6-1.77-2.59s-.66-2.05-.66-3.18.22-2.26.66-3.28a8.433 8.433 0 011.77-2.65 8.41 8.41 0 012.62-1.77c1.01-.44 2.07-.66 3.2-.66 1.16 0 2.26.22 3.28.66a8.76 8.76 0 012.67 1.77c.76.74 1.37 1.62 1.83 2.65s.69 2.12.69 3.28-.23 2.19-.69 3.18zm39.03 29.53v10.9H33.97v-10.9h27.41zm80-.85c0 5.61-.94 10.76-2.8 15.45-1.87 4.69-4.5 8.73-7.88 12.12-3.39 3.39-7.46 6.01-12.22 7.88-4.76 1.87-10.04 2.8-15.82 2.8H66.58v-6.22c0-1.83.88-2.93 2.65-3.31l.66-.12c.29-.05.81-.15 1.58-.29.76-.14 1.81-.32 3.13-.55v-55.54c-1.32-.23-2.36-.42-3.13-.56-.76-.14-1.29-.23-1.58-.28-.29-.05-.51-.09-.66-.12-1.77-.38-2.65-1.48-2.65-3.31v-6.22h36.08c5.78 0 11.06.94 15.82 2.83 4.76 1.89 8.84 4.52 12.22 7.88 3.39 3.37 6.02 7.4 7.88 12.09 1.87 4.69 2.8 9.84 2.8 15.45zm-14.55 0c0-4.2-.56-7.96-1.69-11.3-1.13-3.33-2.73-6.16-4.82-8.47-2.08-2.31-4.61-4.08-7.59-5.32-2.98-1.23-6.34-1.85-10.08-1.85H88.92v53.87h13.73c3.74 0 7.1-.62 10.08-1.85 2.98-1.23 5.51-3.01 7.6-5.32 2.08-2.31 3.69-5.13 4.82-8.47 1.13-3.33 1.69-7.1 1.69-11.3zm53.31-15.24c2.88 1.09 5.35 2.69 7.43 4.79s3.7 4.67 4.87 7.73 1.75 6.54 1.75 10.45c0 .99-.04 1.81-.13 2.46-.09.65-.25 1.17-.48 1.54s-.54.63-.93.79c-.39.16-.88.24-1.48.24h-33.55c.39 5.57 1.89 9.67 4.5 12.28 2.61 2.61 6.07 3.92 10.37 3.92 2.12 0 3.94-.25 5.48-.74s2.88-1.04 4.02-1.64c1.15-.6 2.15-1.15 3.02-1.64.86-.49 1.7-.74 2.51-.74.53 0 .99.11 1.38.32.39.21.72.51 1 .9l3.81 4.76a22.028 22.028 0 01-4.87 4.26c-1.8 1.15-3.68 2.06-5.64 2.75s-3.95 1.17-5.98 1.46-4 .42-5.9.42c-3.77 0-7.28-.63-10.53-1.88-3.25-1.25-6.07-3.1-8.47-5.56-2.4-2.45-4.29-5.49-5.66-9.1s-2.06-7.8-2.06-12.57c0-3.7.6-7.19 1.8-10.45 1.2-3.26 2.92-6.1 5.16-8.52s4.97-4.33 8.2-5.74 6.87-2.12 10.93-2.12c3.42 0 6.57.55 9.45 1.64zm-18.12 10.95c-2.15 2.15-3.53 5.2-4.13 9.16h24.55c0-1.69-.23-3.29-.69-4.79-.46-1.5-1.17-2.81-2.12-3.94s-2.15-2.02-3.6-2.67c-1.45-.65-3.14-.98-5.08-.98-3.81 0-6.79 1.08-8.94 3.23zm75.02 25.35c0 2.61-.48 5.02-1.43 7.22-.95 2.21-2.35 4.11-4.18 5.71-1.83 1.61-4.1 2.86-6.8 3.76-2.7.9-5.79 1.35-9.29 1.35-6.73 0-13.32-1.44-17.2-2.91v-15.38h6.09c1.36 0 2.18.66 2.47 1.97.09.5.28 1.96.71 6.24 2.88.9 6.27.92 8.56.92 1.55 0 2.88-.18 3.99-.55 1.11-.37 2.03-.86 2.75-1.46.72-.6 1.25-1.3 1.59-2.09s.5-1.61.5-2.46c0-1.27-.38-2.31-1.14-3.12-.76-.81-1.76-1.52-3.02-2.12-1.25-.6-2.68-1.14-4.29-1.61-1.61-.48-3.25-1-4.92-1.56-1.68-.56-3.32-1.23-4.92-1.98-1.61-.76-3.03-1.72-4.29-2.88-1.25-1.16-2.26-2.59-3.02-4.29-.76-1.69-1.14-3.74-1.14-6.14 0-2.22.44-4.34 1.32-6.35s2.18-3.76 3.89-5.26 3.84-2.7 6.4-3.6c2.56-.9 5.51-1.35 8.86-1.35 5.25 0 8.17.42 15.77 2.8v15.38h-6.09c-1.36 0-2.19-.66-2.47-1.97-.09-.5-.28-1.89-.68-5.97-1.36-.45-3.87-.71-6.31-.71-2.58 0-4.6.55-6.09 1.64-1.48 1.09-2.22 2.52-2.22 4.29 0 1.16.38 2.14 1.14 2.94s1.76 1.49 3.02 2.09c1.25.6 2.67 1.14 4.26 1.61 1.59.48 3.21 1 4.87 1.56 1.66.56 3.28 1.21 4.87 1.93 1.59.72 3.01 1.64 4.26 2.75s2.26 2.44 3.02 4c.76 1.55 1.14 3.42 1.14 5.61zm32.43 10.98v6.22h-29.1v-6.22c0-1.83.88-2.93 2.65-3.31.15-.03.38-.07.66-.12s.81-.15 1.58-.28c.76-.14 1.81-.32 3.13-.55v-33.31c-1.32-.23-2.37-.42-3.13-.55-.76-.14-1.29-.23-1.58-.28-.29-.05-.51-.09-.66-.12-1.77-.38-2.65-1.48-2.65-3.31v-6.22h21.09V335c1.32.23 2.36.42 3.13.55s1.29.23 1.58.28c.29.05.51.09.66.12 1.77.38 2.65 1.48 2.65 3.31zm-6.75-60.72c-.46.99-1.07 1.85-1.83 2.59a8.76 8.76 0 01-2.67 1.77c-1.02.44-2.12.66-3.28.66-1.13 0-2.2-.22-3.2-.66-1-.44-1.88-1.03-2.62-1.77a8.51 8.51 0 01-1.77-2.59c-.44-.99-.66-2.05-.66-3.18s.22-2.26.66-3.28a8.433 8.433 0 011.77-2.65 8.41 8.41 0 012.62-1.77c1.01-.44 2.07-.66 3.2-.66 1.17 0 2.26.22 3.28.66a8.76 8.76 0 012.67 1.77c.76.74 1.37 1.62 1.83 2.65s.69 2.12.69 3.28-.23 2.19-.69 3.18zm40.41 10.54c2.05.48 3.92 1.17 5.61 2.09h15.61v4.87c0 .81-.21 1.45-.63 1.91-.42.46-1.15.78-2.17.95l-4.87.9c.35.92.63 1.89.82 2.91.2 1.02.29 2.1.29 3.23 0 2.68-.54 5.11-1.61 7.28a16.366 16.366 0 01-4.45 5.53c-1.89 1.52-4.13 2.69-6.72 3.52-2.59.83-5.41 1.24-8.44 1.24-2.05 0-4.04-.19-5.98-.58-1.69 1.02-2.54 2.17-2.54 3.44 0 1.09.5 1.9 1.51 2.41 1 .51 2.33.87 3.97 1.08 1.64.21 3.5.34 5.58.4 2.08.05 4.21.17 6.4.34s4.32.49 6.4.93c2.08.44 3.94 1.14 5.58 2.09 1.64.95 2.96 2.25 3.97 3.89 1 1.64 1.51 3.75 1.51 6.32 0 2.4-.59 4.73-1.77 6.99-1.18 2.26-2.89 4.27-5.13 6.03-2.24 1.76-4.98 3.18-8.23 4.26-3.25 1.08-6.95 1.61-11.11 1.61s-7.71-.4-10.74-1.19c-3.03-.79-5.55-1.85-7.54-3.18-1.99-1.32-3.48-2.85-4.47-4.58-.99-1.73-1.48-3.53-1.48-5.4 0-2.54.78-4.67 2.33-6.4 1.55-1.73 3.7-3.1 6.46-4.13-1.34-.74-2.42-1.73-3.23-2.96s-1.22-2.84-1.22-4.82c0-.81.14-1.65.42-2.51s.71-1.72 1.3-2.57 1.31-1.65 2.2-2.41c.88-.76 1.92-1.44 3.12-2.04-2.75-1.48-4.91-3.46-6.48-5.93-1.57-2.47-2.36-5.36-2.36-8.68 0-2.68.54-5.11 1.61-7.28s2.58-4.02 4.5-5.56c1.92-1.53 4.2-2.71 6.83-3.52s5.5-1.22 8.6-1.22c2.33 0 4.52.24 6.56.71zm6.83 54.37c-.63-.67-1.5-1.19-2.59-1.56s-2.37-.64-3.84-.82c-1.46-.18-3.02-.31-4.66-.4s-3.33-.18-5.08-.26-3.43-.24-5.05-.45c-1.48.81-2.67 1.77-3.57 2.88-.9 1.11-1.35 2.39-1.35 3.84 0 .95.24 1.84.71 2.67s1.23 1.54 2.28 2.14 2.39 1.07 4.05 1.4c1.66.33 3.69.5 6.09.5s4.53-.19 6.3-.56 3.22-.88 4.37-1.54c1.15-.65 1.98-1.43 2.51-2.33s.79-1.88.79-2.94-.32-1.92-.95-2.59zm-9.15-28.97c1.2-.44 2.2-1.05 2.99-1.83a7.67 7.67 0 001.8-2.8c.41-1.09.61-2.29.61-3.6 0-2.68-.8-4.81-2.41-6.38-1.6-1.57-4.01-2.35-7.22-2.35s-5.62.79-7.22 2.35c-1.61 1.57-2.41 3.7-2.41 6.38 0 1.27.2 2.45.61 3.55.41 1.09 1 2.04 1.8 2.83.79.79 1.8 1.41 3.02 1.85 1.22.44 2.62.66 4.21.66 1.62 0 3.03-.22 4.23-.66zm90.52 24.78v6.22h-21.09v-34.55c0-3.32-.77-5.88-2.3-7.7-1.53-1.82-3.84-2.72-6.91-2.72-2.26 0-4.37.51-6.35 1.54-1.98 1.02-3.84 2.42-5.61 4.18V335c1.32.23 2.36.42 3.12.55.76.14 1.29.23 1.58.28.29.05.51.09.66.12 1.77.38 2.65 1.48 2.65 3.31v6.22h-29.09v-6.22c0-1.83.88-2.93 2.65-3.31.16-.03.38-.07.67-.12s.81-.15 1.58-.28 1.8-.32 3.13-.55v-33.31c-1.32-.23-2.36-.42-3.13-.55-.76-.14-1.29-.23-1.58-.28-.29-.05-.51-.09-.67-.12-1.77-.38-2.65-1.48-2.65-3.31v-6.22H344c1.69 0 2.8.79 3.33 2.38l.9 4.29c1.09-1.13 2.25-2.15 3.47-3.07 1.22-.92 2.5-1.71 3.86-2.38 1.36-.67 2.81-1.18 4.37-1.53 1.56-.35 3.25-.53 5.08-.53 2.96 0 5.59.5 7.88 1.51 2.29 1 4.21 2.42 5.74 4.23 1.53 1.82 2.7 3.99 3.49 6.51.79 2.52 1.19 5.3 1.19 8.33v24.06c1.32.23 2.37.42 3.13.55s1.29.23 1.58.28c.29.05.51.09.67.12 1.77.38 2.65 1.48 2.65 3.31z" fill="#46565e"/><path class="b" d="M164.34 412.55h64.02v2.42h-64.02zm-89.08-27.9c-.03-.15-.08-.6-.15-1.34-.92-.27-1.7-.4-2.33-.4-.57 0-1.1.1-1.58.3-.48.2-.89.48-1.24.86-.35.37-.62.82-.81 1.35-.19.53-.29 1.13-.29 1.79s.1 1.3.29 1.83.46.98.79 1.35c.33.37.72.65 1.17.84s.93.29 1.45.29c.31 0 .59-.02.84-.05a3.277 3.277 0 001.29-.44c.19-.11.38-.26.56-.43a.94.94 0 01.18-.12c.06-.03.13-.05.2-.05.12 0 .23.05.32.14l.89.97c-.5.61-1.1 1.08-1.83 1.41-.72.33-1.59.49-2.6.49-.91 0-1.72-.15-2.44-.46-.72-.31-1.34-.74-1.85-1.29s-.9-1.21-1.18-1.97c-.27-.76-.41-1.6-.41-2.51s.15-1.76.46-2.52c.3-.76.73-1.42 1.28-1.97s1.21-.98 1.98-1.29 1.62-.46 2.54-.46c1.02 0 2.29.29 3.83.88v3.11h-.97c-.22 0-.35-.1-.39-.31zm16.41-3.54v.99c0 .29-.14.47-.42.53-.02 0-.06.01-.11.02-.05 0-.13.02-.25.04s-.29.05-.5.09v5.63c0 .73-.12 1.4-.35 2.01a4.37 4.37 0 01-1.01 1.59c-.44.45-.97.8-1.59 1.05s-1.33.38-2.11.38-1.48-.13-2.11-.38c-.62-.25-1.15-.6-1.59-1.05-.44-.45-.77-.98-1-1.59-.23-.62-.35-1.29-.35-2.01v-5.63c-.21-.04-.38-.07-.5-.09s-.21-.04-.25-.04c-.05 0-.08-.02-.11-.02-.28-.06-.42-.24-.42-.53v-.99h4.9v.99c0 .29-.14.47-.42.53-.03 0-.07.01-.12.02-.06 0-.15.02-.29.04s-.31.05-.52.09v5.63c0 .47.06.89.19 1.27s.31.7.54.97c.24.27.53.47.87.62.35.15.74.22 1.18.22s.83-.07 1.18-.22.64-.35.88-.62c.24-.26.42-.58.55-.96.13-.38.19-.8.19-1.27v-5.63c-.21-.04-.38-.07-.52-.09s-.23-.04-.29-.04c-.06 0-.1-.02-.12-.02-.28-.06-.42-.24-.42-.53v-.99h4.9zm10.23 8.38c0 .55-.09 1.07-.28 1.55-.19.48-.46.9-.83 1.26-.36.36-.81.64-1.33.84s-1.12.31-1.8.31h-.25c-1.08 0-2.25-.22-3.5-.64v-3.14h.97c.22 0 .35.11.39.31.03.15.08.62.15 1.39.49.15 1.25.22 2.31.22.65 0 1.15-.15 1.5-.46s.53-.75.53-1.32c0-.32-.08-.58-.24-.78-.16-.2-.37-.37-.64-.51-.26-.14-.57-.26-.9-.35-.34-.1-.68-.2-1.03-.31-.35-.11-.69-.25-1.03-.41a3.14 3.14 0 01-.9-.62c-.26-.25-.48-.57-.64-.95-.16-.38-.24-.85-.24-1.41 0-.44.09-.88.27-1.3s.44-.8.78-1.12c.34-.33.76-.59 1.25-.78.5-.2 1.06-.3 1.7-.3 1.2 0 2.37.23 3.5.69v3.12h-.97c-.22 0-.35-.11-.39-.32-.03-.15-.08-.61-.15-1.37-.43-.19-1.08-.28-1.96-.28-.31 0-.59.04-.82.11-.23.08-.43.18-.59.32-.16.14-.28.3-.36.49-.08.19-.12.4-.12.62 0 .29.08.53.24.72.16.19.37.35.64.49.26.14.57.26.9.36.34.11.68.22 1.03.34.35.12.7.26 1.03.42.34.16.64.36.9.61.26.24.48.54.64.9.16.35.24.78.24 1.29zm12.34-8.38V384h-.97c-.22 0-.35-.1-.39-.31-.02-.1-.05-.33-.08-.71h-2.49v8.66c.21.04.38.07.5.09.12.02.21.04.25.05.05 0 .08.01.11.02.28.06.42.24.42.53v.99h-4.83v-.99c0-.29.14-.47.42-.53.02 0 .06-.01.11-.02.05 0 .13-.02.25-.05.12-.02.29-.05.5-.09v-8.66h-2.49c-.04.37-.07.61-.08.71-.05.21-.18.31-.39.31h-.97v-2.89h10.14zm13.46 8.59c-.3.76-.72 1.42-1.26 1.98s-1.19.99-1.95 1.3c-.76.31-1.6.47-2.52.47s-1.77-.16-2.53-.47c-.76-.31-1.41-.75-1.96-1.3-.54-.56-.96-1.22-1.26-1.98-.3-.76-.45-1.59-.45-2.49s.15-1.72.45-2.49c.3-.76.72-1.42 1.26-1.98s1.2-.99 1.96-1.3c.76-.31 1.6-.47 2.53-.47s1.76.16 2.52.47c.76.31 1.41.75 1.95 1.3s.96 1.21 1.26 1.97c.3.76.45 1.59.45 2.49s-.15 1.72-.45 2.49zm-2.15-4.29a3.86 3.86 0 00-.76-1.35c-.33-.37-.74-.66-1.21-.85-.48-.2-1.01-.3-1.61-.3s-1.13.1-1.61.3c-.48.2-.88.48-1.22.85-.33.37-.59.82-.77 1.35-.18.53-.27 1.13-.27 1.8s.09 1.27.27 1.8c.18.53.44.98.77 1.35.34.37.74.65 1.22.85.48.2 1.02.3 1.61.3s1.13-.1 1.61-.3c.48-.2.88-.48 1.21-.85.33-.37.59-.82.76-1.35s.27-1.13.27-1.8-.09-1.27-.27-1.8zm20.14-2.76l-.25.04c-.12.02-.29.05-.5.09v8.86c.21.04.38.07.5.09.12.02.21.04.25.05s.08.01.11.02c.28.06.42.24.42.53v.99h-4.8v-.99c0-.29.14-.47.42-.53.03 0 .4-.06 1.1-.15v-6.21c0-.15 0-.31.01-.48 0-.17.02-.35.04-.53l-3.69 6.92c-.08.16-.19.28-.33.37-.14.09-.29.13-.47.13h-.31a.81.81 0 01-.47-.13c-.13-.09-.24-.21-.33-.37l-3.74-6.94c.02.19.04.37.05.54 0 .18.01.34.01.49v6.21c.7.1 1.07.15 1.1.15.28.06.42.24.42.53v.99h-4.8v-.99c0-.29.14-.47.42-.53.02 0 .06-.01.11-.02.05 0 .13-.02.25-.05.12-.02.29-.05.5-.09v-8.86c-.21-.04-.38-.07-.5-.09-.12-.02-.21-.04-.25-.04-.05 0-.08-.02-.11-.02-.28-.06-.42-.24-.42-.53v-.99h3.25c.07 0 .14.02.2.04s.11.06.16.11.1.12.14.2l3.65 6.78c.1.18.18.37.27.56.08.19.16.39.24.59l.24-.6c.08-.2.17-.39.27-.56l3.61-6.76c.04-.08.09-.15.14-.2.05-.05.1-.09.16-.11.06-.02.13-.04.2-.04h3.25v.99c0 .29-.14.47-.42.53-.02 0-.06.01-.11.02zm7.4 4.7v1.74h-4.37v-1.74h4.37zm17.77-4.7l-.25.04c-.12.02-.29.05-.5.09v8.86c.21.04.38.07.5.09.12.02.21.04.25.05s.08.01.11.02c.28.06.42.24.42.53v.99h-4.8v-.99c0-.29.14-.47.42-.53.03 0 .4-.06 1.1-.15v-6.21c0-.15 0-.31.01-.48 0-.17.02-.35.04-.53l-3.69 6.92c-.08.16-.19.28-.33.37-.14.09-.29.13-.47.13h-.31a.81.81 0 01-.47-.13c-.13-.09-.24-.21-.33-.37l-3.74-6.94c.02.19.04.37.05.54 0 .18.01.34.01.49v6.21c.7.1 1.07.15 1.1.15.28.06.42.24.42.53v.99h-4.8v-.99c0-.29.14-.47.42-.53.02 0 .06-.01.11-.02.05 0 .13-.02.25-.05.12-.02.29-.05.5-.09v-8.86c-.21-.04-.38-.07-.5-.09-.12-.02-.21-.04-.25-.04-.05 0-.08-.02-.11-.02-.28-.06-.42-.24-.42-.53v-.99h3.25c.07 0 .14.02.2.04s.11.06.16.11.1.12.14.2l3.65 6.78c.1.18.18.37.27.56.08.19.16.39.24.59l.24-.6c.08-.2.17-.39.27-.56l3.61-6.76c.04-.08.09-.15.14-.2.05-.05.1-.09.16-.11.06-.02.13-.04.2-.04h3.25v.99c0 .29-.14.47-.42.53-.02 0-.06.01-.11.02zm15.94 9.8v.86h-4.12v-.86c0-.2.11-.34.34-.43.04-.02.15-.06.34-.14l-.06-.18-.61-1.66h-4.86l-.63 1.73-.04.11c.19.08.3.13.34.14.22.09.34.24.34.43v.86h-4.12v-.86c0-.2.11-.34.34-.43.09-.04.4-.17.93-.39l4.13-10.52h2.32l4.13 10.52c.53.22.84.35.93.39.22.09.33.24.33.43zm-8.4-4.01h3.69l-1.39-3.79c-.07-.18-.14-.4-.22-.64-.08-.24-.16-.51-.24-.8-.08.29-.16.56-.23.8-.08.25-.15.46-.22.65l-1.39 3.77zm22.66-1.23c0 .89-.15 1.72-.45 2.46s-.72 1.39-1.26 1.93-1.19.96-1.95 1.26c-.76.3-1.6.45-2.52.45h-5.75v-.99c0-.29.14-.47.42-.53.02 0 .06-.01.11-.02.05 0 .13-.02.25-.05.12-.02.29-.05.5-.09v-8.86c-.21-.04-.38-.07-.5-.09-.12-.02-.21-.04-.25-.04s-.08-.02-.11-.02c-.28-.06-.42-.24-.42-.53v-.99h5.75c.92 0 1.76.15 2.52.45.76.3 1.41.72 1.95 1.26s.96 1.18 1.26 1.93c.3.75.45 1.57.45 2.46zm-2.32 0c0-.67-.09-1.27-.27-1.8-.18-.53-.44-.98-.77-1.35a3.36 3.36 0 00-1.21-.85c-.48-.2-1.01-.3-1.61-.3h-2.19v8.59h2.19c.6 0 1.13-.1 1.61-.3s.88-.48 1.21-.85c.33-.37.59-.82.77-1.35.18-.53.27-1.13.27-1.8zm13.58-6.1v3.21h-.97c-.22 0-.35-.11-.39-.31-.02-.13-.06-.49-.12-1.09h-3.92v3.38h4.13v1.75h-4.13v3.45h3.92c.06-.59.1-.96.12-1.09.04-.21.18-.32.39-.31h.97v3.22h-8.97v-.99c0-.29.14-.47.42-.53.02 0 .06-.01.11-.02.05 0 .13-.02.25-.05.12-.02.29-.05.5-.09v-8.86c-.21-.04-.38-.07-.5-.09-.12-.02-.21-.04-.25-.04-.05 0-.08-.02-.11-.02-.28-.06-.42-.24-.42-.53v-.99h8.97zm15.93 8.38c0 .55-.09 1.07-.28 1.55-.19.48-.46.9-.83 1.26-.36.36-.8.64-1.33.84-.52.21-1.12.31-1.8.31h-.25c-1.08 0-2.25-.22-3.5-.64v-3.14h.97c.22 0 .35.11.39.31.03.15.08.62.15 1.39.49.15 1.25.22 2.3.22.65 0 1.15-.15 1.5-.46.35-.31.53-.75.53-1.32 0-.32-.08-.58-.24-.78-.16-.2-.37-.37-.64-.51-.26-.14-.57-.26-.9-.35-.34-.1-.68-.2-1.03-.31-.35-.11-.69-.25-1.03-.41s-.64-.36-.9-.62c-.26-.25-.48-.57-.64-.95-.16-.38-.24-.85-.24-1.41 0-.44.09-.88.27-1.3.18-.42.44-.8.78-1.12s.76-.59 1.25-.78 1.06-.3 1.7-.3c1.2 0 2.37.23 3.5.69v3.12h-.97c-.22 0-.35-.11-.39-.32-.03-.15-.08-.61-.15-1.37-.43-.19-1.08-.28-1.96-.28-.32 0-.59.04-.82.11-.23.08-.43.18-.59.32-.16.14-.28.3-.36.49-.08.19-.12.4-.12.62 0 .29.08.53.24.72.16.19.37.35.64.49.26.14.57.26.9.36s.68.22 1.03.34c.35.12.7.26 1.03.42s.64.36.9.61c.26.24.48.54.64.9.16.35.24.78.24 1.29zm14.09.21c-.3.76-.72 1.42-1.26 1.98s-1.19.99-1.95 1.3c-.76.31-1.6.47-2.52.47s-1.77-.16-2.53-.47c-.76-.31-1.41-.75-1.96-1.3-.54-.56-.96-1.22-1.26-1.98-.3-.76-.45-1.59-.45-2.49s.15-1.72.45-2.49c.3-.76.72-1.42 1.26-1.98s1.2-.99 1.96-1.3c.76-.31 1.6-.47 2.53-.47s1.76.16 2.52.47c.76.31 1.41.75 1.95 1.3s.96 1.21 1.26 1.97c.3.76.45 1.59.45 2.49s-.15 1.72-.45 2.49zm-2.15-4.29a3.86 3.86 0 00-.76-1.35c-.33-.37-.74-.66-1.21-.85-.48-.2-1.01-.3-1.61-.3s-1.13.1-1.61.3-.89.48-1.22.85c-.33.37-.59.82-.77 1.35-.18.53-.27 1.13-.27 1.8s.09 1.27.27 1.8c.18.53.44.98.77 1.35.33.37.74.65 1.22.85s1.02.3 1.61.3 1.13-.1 1.61-.3c.48-.2.88-.48 1.21-.85.33-.37.59-.82.76-1.35.18-.53.27-1.13.27-1.8s-.09-1.27-.27-1.8zm14.28-4.3v3.21h-.97c-.22 0-.35-.11-.39-.31-.02-.13-.06-.49-.12-1.09h-4.35v3.61h4.26v1.81h-4.26v3.3c.21.04.38.07.5.09s.21.04.25.05.08.01.11.02c.28.06.42.24.42.53v.99h-4.84v-.99c0-.29.14-.47.42-.53.02 0 .06-.01.11-.02s.13-.02.25-.05c.12-.02.29-.05.5-.09v-8.86c-.21-.04-.38-.07-.5-.09-.12-.02-.21-.04-.25-.04s-.08-.02-.11-.02c-.28-.06-.42-.24-.42-.53v-.99h9.4zm12.38 0V384h-.97c-.22 0-.35-.1-.39-.31-.02-.1-.05-.33-.08-.71h-2.49v8.66c.21.04.38.07.5.09s.21.04.25.05c.05 0 .08.01.11.02.28.06.42.24.42.53v.99h-4.83v-.99c0-.29.14-.47.42-.53.02 0 .06-.01.11-.02.05 0 .13-.02.25-.05.12-.02.29-.05.5-.09v-8.66h-2.49c-.04.37-.07.61-.08.71-.04.21-.18.31-.39.31h-.97v-2.89h10.14zm20.83 0v.99c0 .29-.14.47-.42.53-.01 0-.07.01-.19.03s-.27.05-.48.09l-3.28 10.56h-2.05l-2.67-8.34c-.03-.11-.07-.22-.11-.35-.04-.12-.07-.25-.11-.4-.03.14-.07.27-.11.4-.04.13-.07.25-.11.35l-2.69 8.34h-2.05l-3.28-10.56a23.78 23.78 0 00-.67-.12c-.28-.06-.42-.24-.42-.53v-.99h4.56v.99c0 .29-.14.47-.42.53-.02 0-.04.01-.08.02-.04 0-.1.03-.19.05-.09.02-.18.04-.29.07l1.75 6.16c.05.18.1.38.14.59.04.21.08.43.12.67.04-.24.09-.46.15-.67s.11-.41.17-.59l2.4-7.3c.04-.13.13-.25.27-.35.13-.11.29-.16.49-.16h.67c.2 0 .36.05.49.14.13.09.22.22.27.37l2.38 7.3c.12.36.23.76.32 1.2.04-.21.08-.43.12-.63.04-.2.09-.39.13-.56l1.75-6.14c-.17-.04-.4-.09-.7-.15-.28-.06-.42-.24-.42-.53v-.99h4.56zm12.98 11.34v.86h-4.12v-.86c0-.2.11-.34.33-.43.04-.02.15-.06.34-.14l-.06-.18-.61-1.66h-4.86l-.63 1.73-.04.11c.19.08.3.13.34.14.22.09.33.24.33.43v.86h-4.12v-.86c0-.2.11-.34.34-.43.09-.04.4-.17.92-.39l4.13-10.52h2.32l4.13 10.52c.53.22.84.35.93.39.22.09.34.24.34.43zm-8.4-4.01h3.69l-1.39-3.79c-.07-.18-.14-.4-.22-.64-.08-.24-.16-.51-.24-.8-.08.29-.16.56-.23.8-.08.25-.15.46-.22.65l-1.39 3.77zm21.78 3.88v.99h-2.28c-.2 0-.36-.04-.5-.12s-.26-.19-.35-.34l-2.56-3.91c-.1-.15-.2-.25-.32-.31s-.29-.09-.51-.09h-.85v3.1c.21.04.38.07.5.09.12.02.21.04.25.05s.08.01.11.02c.28.06.42.24.42.53v.99h-4.82v-.99c0-.29.14-.47.42-.53.02 0 .06-.01.11-.02s.13-.02.25-.05.29-.05.5-.09v-8.86c-.21-.04-.38-.07-.5-.09s-.21-.04-.25-.05c-.05 0-.08-.01-.11-.02-.28-.06-.42-.24-.42-.53v-.99h4.88c.83 0 1.55.09 2.14.26.59.17 1.08.41 1.46.72.38.31.66.68.84 1.11.18.43.27.9.27 1.42 0 .41-.06.8-.18 1.16s-.3.7-.52 1-.51.56-.84.78c-.33.22-.72.4-1.14.54.29.16.53.4.74.7l1.92 2.83c.21.04.38.07.52.09.14.02.24.04.3.05.06 0 .1.01.13.02.28.06.42.24.42.53zm-4.17-6.01c.21-.19.36-.41.46-.67.1-.26.15-.54.15-.85 0-.62-.2-1.09-.61-1.43-.41-.33-1.03-.5-1.87-.5h-1.33v4.05h1.3c.43 0 .8-.05 1.12-.16.32-.11.58-.25.78-.44zm15.47-5.2v3.21h-.97c-.22 0-.35-.11-.39-.31-.02-.13-.06-.49-.12-1.09h-3.92v3.38h4.13v1.75h-4.13v3.45h3.92c.06-.59.1-.96.12-1.09.04-.21.18-.32.39-.31h.97v3.22h-8.97v-.99c0-.29.14-.47.42-.53.02 0 .06-.01.11-.02.05 0 .13-.02.25-.05.12-.02.29-.05.5-.09v-8.86c-.21-.04-.38-.07-.5-.09-.12-.02-.21-.04-.25-.04-.05 0-.08-.02-.11-.02-.28-.06-.42-.24-.42-.53v-.99h8.97z"/></svg>