<?xml version="1.0" encoding="utf-8"?>
<!-- Generator: Adobe Illustrator 14.0.0, SVG Export Plug-In  -->
<!DOCTYPE svg PUBLIC "-//W3C//DTD SVG 1.1//EN" "http://www.w3.org/Graphics/SVG/1.1/DTD/svg11.dtd" [
	<!ENTITY ns_flows "http://ns.adobe.com/Flows/1.0/">
]>
<svg version="1.1"
	 xmlns="http://www.w3.org/2000/svg" xmlns:xlink="http://www.w3.org/1999/xlink" xmlns:a="http://ns.adobe.com/AdobeSVGViewerExtensions/3.0/"
	 x="0px" y="0px" width="320px" height="153px" viewBox="-5.493 -4.882 320 153" enable-background="new -5.493 -4.882 320 153"
	 xml:space="preserve">
<defs>
</defs>
<path id="path4717_1_" fill="#010101" d="M273.719,0.059c-17.848,0-32.311,12.734-32.311,28.425c0,7.24,3.104,13.857,8.204,18.906
	l4.681,4.813c5.943,5.938,14.616,9.678,24.309,9.678c17.846,0,32.312-12.725,32.312-28.427c0-7.368-3.177-14.067-8.408-19.116
	l-3.595-3.667C292.964,4.19,283.911,0.059,273.719,0.059z M101.276,1.144v54.602l4.875,4.987h9.994V34.273l9.996,21.472l4.839,4.987
	h7.817l9.994-21.152v16.165l4.831,4.987h24.167V6.123l-4.856-4.979h-22.969l-10.921,21.082l-7.482-16.095l-4.865-4.987H101.276z
	 M13.244,1.196v41.609c0,4.752-2.785,7.377-8.32,7.377c-1.683,0-3.263-0.566-4.865-1.375v5.923c1.458,0.635,4.865,4.981,4.865,4.981
	c2.703,1.162,5.739,2.168,10.938,2.168c11.883,0,26.512-5.996,26.512-15.646V6.167l-4.865-4.971H13.244z M45.67,1.196v36.666
	c0,5.45,1.404,9.77,4.318,12.913l0.494,0.52l3.887,3.896c3.718,4.45,10.183,6.761,19.69,6.761c17.966,0,23.303-6.429,23.303-19.065
	V6.167l-4.856-4.971h-9.863v40.852c0,3.968-1.371,9.008-6.444,9.008c-0.357,0-0.712-0.032-1.057-0.115
	c-0.343-1.253-0.485-2.622-0.485-3.895V6.167l-4.866-4.971H45.67z M181.641,1.196v54.637l4.848,4.979h27.006
	c19.782,0,28.229-6.087,28.266-16.111c0.026-4.121-0.41-7.988-3.375-10.744l-4.733-4.751v-0.062c4.748-1.838,6.151-5.333,6.151-9.66
	c0-3.223-1.012-5.72-2.863-7.624l-4.699-4.821c-4.299-4.605-13.226-5.843-23.69-5.843H181.641z M278.602,10.433h0.512
	c1.453,4.122,1.913,10.472,1.913,18.05c0,13.416-1.487,23.003-7.308,23.003c-0.184,0-0.349-0.01-0.529-0.035
	c-1.423-4.099-1.877-10.432-1.877-18.007C271.313,20.017,272.743,10.433,278.602,10.433z M212.578,11.252
	c1.528,0,2.87,0.209,4.028,0.591c0.258,0.825,0.344,1.741,0.344,2.697c0,2.62-1.475,5.175-3.913,6.548
	c-0.744,0.444-1.513,0.736-2.301,0.944V11.42C211.444,11.42,211.879,11.252,212.578,11.252z M212.208,32.582
	c1.438,0.031,2.781,0.342,4.194,1.11c0.872,1.765,1.341,3.745,1.341,5.923c0,3.343-1.262,6.299-3.491,8.338
	c-1.145,1.051-2.289,1.735-3.517,2.15V32.635C211.243,32.588,211.728,32.571,212.208,32.582z"/>
<path id="path4727_2_" fill="#FFCD05" d="M273.729,0.05c-17.849,0-32.32,12.743-32.32,28.434c0,15.697,14.472,28.398,32.32,28.398
	c17.86,0,32.328-12.703,32.328-28.398C306.057,12.792,291.589,0.05,273.729,0.05z M101.276,1.144v54.602h10.022V23.813
	l14.843,31.933h7.791l14.859-31.457v31.457h24.142V1.144h-22.969l-12.269,23.682l-11-23.682H101.276z M13.244,1.196v41.609
	c0,4.752-2.791,7.377-8.328,7.377c-1.68,0-3.268-0.568-4.866-1.375v5.923c2.727,1.158,5.752,2.151,10.938,2.151
	c11.914,0,26.521-5.976,26.521-15.627V1.196H13.244z M45.67,1.196v36.666c0,12.564,7.466,19.136,23.515,19.136
	c17.982,0,23.322-6.436,23.322-19.136V1.196h-9.863v40.852c0.002,3.968-1.369,9.017-6.444,9.017c-5.002,0-6.407-5.029-6.407-8.98
	V1.196H45.67z M181.632,1.196v54.645h27.015c19.768,0,28.229-6.051,28.24-16.119c0.052-6.793-1.271-12.92-12.798-14.447
	c8.531-1.164,10.868-5.254,10.868-10.752c0-10.793-11.671-13.327-26.407-13.327H181.632z M273.719,5.427
	c5.819,0,7.308,9.595,7.308,23.057c0,13.414-1.488,23.003-7.308,23.003c-5.84,0-7.287-9.587-7.289-23.003
	C266.43,15.021,267.876,5.427,273.719,5.427z M207.712,6.281c6.038,0,9.229,3.168,9.229,8.259c0,2.62-1.474,5.173-3.915,6.548
	c-2.229,1.313-4.719,1.403-7.165,1.49V6.44C206.574,6.44,207.016,6.281,207.712,6.281z M206.84,27.584
	c2.23-0.044,4.219,0.561,6.479,2.362c2.803,2.204,4.434,5.658,4.434,9.669c0,3.339-1.271,6.297-3.5,8.338
	c-2.574,2.367-5.285,2.869-8.381,2.539V27.646C206.2,27.615,206.522,27.591,206.84,27.584z"/>
<path fill="#FFCD05" d="M69.185,57.047c-15.856,0-23.564-6.275-23.564-19.186V1.196l24.173-0.05l0.05,40.938
	c0,2.095,0.458,8.931,6.357,8.931c2.268,0,3.978-1.008,5.083-2.995c0.847-1.525,1.313-3.646,1.312-5.972V1.196l9.913-0.05
	l0.05,36.715C92.557,51.668,86.004,57.047,69.185,57.047L69.185,57.047z M69.744,1.196L45.67,1.246l0.05,36.616
	c0,12.843,7.676,19.086,23.465,19.086c16.748,0,23.272-5.352,23.272-19.086V1.196l-9.813,0.05l0.05,40.802
	c0.001,2.343-0.469,4.481-1.324,6.021c-1.123,2.021-2.863,3.046-5.17,3.046c-5.992,0-6.457-6.912-6.457-9.03V1.196L69.744,1.196z
	 M273.729,56.932c-17.849,0-32.37-12.762-32.37-28.448C241.359,12.777,255.88,0,273.729,0c17.854,0,32.378,12.777,32.378,28.483
	C306.107,44.17,291.583,56.932,273.729,56.932L273.729,56.932z M273.729,0.1c-17.794,0-32.271,12.733-32.271,28.384
	c0,15.631,14.477,28.349,32.271,28.349c17.798,0,32.278-12.717,32.278-28.349C306.007,12.833,291.527,0.1,273.729,0.1L273.729,0.1z
	 M10.987,56.932c-5.427,0-8.501-1.112-10.957-2.155L0,48.808c1.949,0.903,3.443,1.325,4.916,1.325c5.416,0,8.278-2.534,8.278-7.328
	V1.196l24.314-0.05l0.05,40.108C37.558,50.493,23.555,56.932,10.987,56.932L10.987,56.932z M0.027,48.852L0.1,54.731
	c2.417,0.993,5.48,2.101,10.888,2.101c12.521,0,26.471-6.397,26.471-15.578V1.196l-24.215,0.05l0.05,41.56
	c0,4.859-2.897,7.427-8.378,7.427C3.426,50.232,1.919,49.807,0.027,48.852L0.027,48.852z M208.647,55.891h-27.015l-0.05-54.695
	l26.968-0.05c12.318,0,26.457,1.52,26.457,13.376c0,6.441-3.365,9.773-10.911,10.802c11.938,1.482,12.888,8.213,12.841,14.398
	C236.924,50.451,227.407,55.891,208.647,55.891L208.647,55.891z M181.632,1.246l0.05,54.595l26.965-0.05
	c18.693,0,28.178-5.407,28.19-16.069c0.049-6.424-0.896-12.826-12.755-14.397c7.486-1.121,10.825-4.421,10.825-10.802
	c0-9.182-8.129-13.277-26.357-13.277H181.632L181.632,1.246z M172.983,55.795h-24.191l-0.05-31.507l-14.765,31.479l-7.836,0.028
	l-14.888-31.961l0.095,31.912l-10.072,0.05l-0.05-54.651l25.469-0.05l11.045,23.71l12.18-23.684l23.013-0.027L172.983,55.795
	L172.983,55.795z M148.747,24.267l0.095,31.479l24.042-0.05V1.144l-22.919,0.05L137.74,24.848L126.651,1.165l-25.375,0.029
	l0.05,54.552l9.972-0.05l-0.05-31.883l14.938,31.911l7.746-0.028L148.747,24.267L148.747,24.267z M273.719,51.537
	c-5.142,0-7.337-6.894-7.339-23.053c0-16.196,2.194-23.106,7.339-23.106c6.521,0,7.357,12.349,7.357,23.106
	C281.077,39.217,280.241,51.537,273.719,51.537L273.719,51.537z M273.719,5.477c-5.074,0-7.239,6.881-7.239,23.007
	c0.002,10.687,0.826,22.954,7.239,22.954c5.02,0,7.258-7.079,7.258-22.954C280.977,12.572,278.739,5.477,273.719,5.477
	L273.719,5.477z M207.496,50.633c-0.518,0-1.051-0.03-1.629-0.092l-0.045-22.896c0.375-0.08,0.698-0.104,1.018-0.111l0.224-0.002
	c2.288,0,4.227,0.732,6.287,2.375c2.871,2.258,4.452,5.706,4.452,9.708c0,3.325-1.249,6.299-3.516,8.375
	C212.325,49.793,210.167,50.633,207.496,50.633L207.496,50.633z M207.063,27.632l-0.222,0.002c-0.317,0.007-0.639,0.031-0.965,0.062
	l0.045,22.796c0.53,0.012,1.06,0.042,1.574,0.042c2.645,0,4.781-0.832,6.723-2.617c2.247-2.057,3.484-5.005,3.484-8.301
	c0-3.971-1.568-7.391-4.415-9.63C211.247,28.357,209.327,27.632,207.063,27.632L207.063,27.632z M205.864,22.628L205.812,6.44
	c0.405-0.05,0.692-0.09,0.979-0.13c0.287-0.04,0.573-0.079,0.922-0.079c5.897,0,9.279,3.028,9.279,8.309
	c0,2.697-1.51,5.223-3.94,6.591C210.811,22.451,208.296,22.541,205.864,22.628L205.864,22.628z M207.712,6.331
	c-0.344,0-0.625,0.04-0.908,0.079c-0.29,0.041-0.582,0.081-0.942,0.081l0.05,16.088c2.368-0.136,4.871-0.226,7.09-1.533
	c2.4-1.352,3.891-3.844,3.891-6.505C216.892,9.323,213.546,6.331,207.712,6.331L207.712,6.331z"/>
<path d="M175.783,91.074c0,1.751-0.451,3.182-1.351,4.292c-0.901,1.109-2.029,1.948-3.386,2.516v0.037
	c1.036,0.271,1.844,0.832,2.424,1.684c0.579,0.851,0.869,1.807,0.869,2.867c0,1.185-0.253,2.307-0.759,3.367
	s-1.239,1.986-2.201,2.775s-2.141,1.418-3.533,1.887c-1.395,0.469-2.967,0.703-4.718,0.703c-0.814,0-1.449-0.007-1.905-0.019
	c-0.457-0.013-1.086-0.025-1.888-0.037c-0.802-0.013-1.979-0.019-3.533-0.019l4.736-24.938c1.036-0.049,2.09-0.086,3.163-0.11
	s1.782-0.043,2.128-0.056c0.345-0.012,1.208-0.019,2.59-0.019c2.393,0,4.218,0.42,5.476,1.258
	C175.154,88.102,175.783,89.372,175.783,91.074z M169.27,102.803c0-1.8-1.369-2.701-4.106-2.701c-0.987,0-1.838,0.013-2.554,0.037
	l-1.295,6.993c0.271,0.05,0.616,0.087,1.036,0.111c0.419,0.024,0.876,0.037,1.369,0.037c0.912,0,1.714-0.123,2.405-0.37
	c0.69-0.246,1.27-0.573,1.739-0.98c0.468-0.407,0.819-0.882,1.054-1.425C169.153,103.963,169.27,103.395,169.27,102.803z
	 M170.639,92.159c0-0.694-0.247-1.252-0.74-1.674s-1.394-0.633-2.7-0.633c-0.47,0-0.92,0.007-1.351,0.019
	c-0.433,0.013-0.857,0.031-1.276,0.057l-1.259,6.548c0.444,0.025,1.012,0.037,1.702,0.037c1.727,0,3.096-0.384,4.107-1.153
	C170.133,94.591,170.639,93.524,170.639,92.159z"/>
<path d="M189.324,96.92c-0.666-0.222-1.363-0.104-2.09,0.352c-0.729,0.457-1.419,1.159-2.072,2.109
	c-0.654,0.949-1.239,2.09-1.758,3.422c-0.518,1.332-0.925,2.775-1.221,4.329l-0.777,3.996h-4.625l1.851-9.62
	c0.073-0.419,0.19-1.036,0.352-1.85c0.16-0.814,0.32-1.665,0.48-2.554c0.16-0.888,0.309-1.732,0.444-2.534
	c0.135-0.801,0.24-1.412,0.314-1.831h4.477c-0.123,0.716-0.309,1.505-0.555,2.367c-0.247,0.864-0.592,1.925-1.036,3.183h0.074
	c0.493-0.962,0.992-1.838,1.498-2.627s1.042-1.449,1.609-1.979s1.185-0.912,1.851-1.147c0.666-0.233,1.394-0.289,2.183-0.166
	L189.324,96.92z"/>
<path d="M194.393,111.128h-4.625l3.516-18.389h4.625L194.393,111.128z M199.61,86.893c0,0.913-0.314,1.659-0.943,2.239
	c-0.629,0.579-1.351,0.869-2.164,0.869c-0.814,0-1.48-0.271-1.998-0.814c-0.519-0.542-0.777-1.171-0.777-1.887
	c0-0.444,0.086-0.851,0.259-1.221s0.401-0.69,0.685-0.962s0.611-0.481,0.98-0.629c0.37-0.148,0.765-0.223,1.185-0.223
	c0.813,0,1.479,0.266,1.998,0.796C199.351,85.592,199.61,86.203,199.61,86.893z"/>
<path d="M215.15,111.128h-4.662l2.22-11.573c0.222-1.138,0.24-1.953,0.056-2.448c-0.186-0.494-0.573-0.741-1.166-0.741
	c-0.616,0-1.271,0.321-1.961,0.964s-1.351,1.466-1.979,2.467c-0.629,1.002-1.184,2.096-1.665,3.283
	c-0.48,1.188-0.82,2.313-1.017,3.375l-0.889,4.674h-4.625l1.851-9.62c0.073-0.419,0.19-1.036,0.352-1.85
	c0.16-0.814,0.32-1.665,0.48-2.554c0.16-0.888,0.309-1.732,0.444-2.534c0.135-0.801,0.24-1.412,0.314-1.831h4.514
	c-0.124,0.567-0.309,1.295-0.555,2.183c-0.247,0.888-0.617,2.06-1.11,3.515l0.074,0.037c0.419-0.813,0.895-1.597,1.427-2.35
	c0.532-0.752,1.12-1.405,1.767-1.961c0.646-0.555,1.348-0.999,2.105-1.332s1.584-0.499,2.479-0.499c0.895,0,1.634,0.147,2.218,0.444
	c0.584,0.296,1.037,0.715,1.359,1.258s0.515,1.19,0.577,1.942c0.062,0.753,0.006,1.572-0.167,2.46L215.15,111.128z"/>
<path d="M231.133,101.212l4.884,9.916h-5.587l-3.885-9.213l-1.776,9.213h-4.625l5.144-27.01h4.625l-3.071,16.132l7.992-8.584
	l3.626,2.405L231.133,101.212z"/>
<path d="M265.172,111.128h-4.625l2.221-11.544c0.196-1.135,0.209-1.955,0.036-2.461c-0.173-0.505-0.53-0.758-1.072-0.758
	c-0.568,0-1.185,0.296-1.851,0.888s-1.313,1.363-1.942,2.313c-0.629,0.95-1.196,2.029-1.702,3.237
	c-0.506,1.209-0.869,2.43-1.091,3.663l-0.852,4.662h-4.625l2.22-11.544c0.197-1.135,0.21-1.955,0.037-2.461
	c-0.173-0.505-0.543-0.758-1.109-0.758c-0.543,0-1.147,0.296-1.813,0.888s-1.313,1.363-1.942,2.313
	c-0.629,0.95-1.196,2.029-1.702,3.237c-0.506,1.209-0.869,2.43-1.091,3.663l-0.889,4.662h-4.625l1.851-9.62
	c0.073-0.419,0.19-1.036,0.352-1.85c0.16-0.814,0.32-1.665,0.48-2.554c0.16-0.888,0.309-1.732,0.444-2.534
	c0.135-0.801,0.24-1.412,0.314-1.831h4.551c-0.124,0.567-0.309,1.308-0.555,2.22c-0.247,0.913-0.617,2.072-1.11,3.478l0.074,0.037
	c0.419-0.813,0.888-1.597,1.406-2.35c0.518-0.752,1.091-1.405,1.72-1.961c0.629-0.555,1.319-0.999,2.072-1.332
	c0.752-0.333,1.56-0.499,2.424-0.499c1.134,0,2.041,0.303,2.72,0.906c0.678,0.604,1.017,1.499,1.017,2.683
	c0,0.37-0.043,0.753-0.129,1.147c-0.087,0.395-0.229,0.9-0.426,1.517h0.074c0.419-0.838,0.894-1.641,1.425-2.405
	c0.529-0.764,1.115-1.43,1.757-1.998c0.642-0.566,1.338-1.018,2.091-1.351c0.752-0.333,1.56-0.499,2.424-0.499
	c1.726,0,2.892,0.567,3.496,1.702s0.733,2.603,0.389,4.402L265.172,111.128z"/>
<path d="M288.704,92.961c-0.42,2.146-0.789,4.07-1.109,5.772c-0.321,1.701-0.617,3.269-0.889,4.698
	c-0.271,1.431-0.518,2.77-0.74,4.015c-0.222,1.246-0.432,2.474-0.629,3.682h-4.588c0.173-0.715,0.401-1.548,0.685-2.497
	c0.283-0.95,0.635-2.066,1.055-3.349h-0.074c-0.37,0.666-0.808,1.369-1.313,2.108c-0.506,0.74-1.079,1.419-1.721,2.035
	c-0.642,0.617-1.35,1.123-2.127,1.518c-0.777,0.394-1.622,0.592-2.534,0.592c-1.406,0-2.479-0.463-3.22-1.388
	c-0.739-0.925-1.109-2.374-1.109-4.348c0-1.727,0.233-3.397,0.703-5.014c0.468-1.615,1.189-3.046,2.164-4.292
	c0.974-1.245,2.201-2.238,3.682-2.979c1.479-0.739,3.231-1.109,5.254-1.109c1.11,0,2.214,0.043,3.312,0.129
	C286.601,92.622,287.667,92.764,288.704,92.961z M282.506,96.181c-0.333-0.05-0.709-0.075-1.129-0.075
	c-1.061,0-1.979,0.279-2.756,0.836c-0.777,0.557-1.425,1.269-1.942,2.135c-0.519,0.865-0.901,1.818-1.147,2.857
	c-0.247,1.04-0.37,2.042-0.37,3.007c0,0.916,0.117,1.571,0.352,1.968s0.586,0.594,1.055,0.594c0.666,0,1.351-0.334,2.054-1.002
	s1.362-1.503,1.979-2.506c0.616-1.002,1.159-2.085,1.628-3.248c0.468-1.163,0.801-2.228,0.999-3.192l0.222-1.188
	C283.154,96.292,282.839,96.23,282.506,96.181z"/>
<path d="M305.946,111.128h-4.662l2.22-11.573c0.222-1.138,0.24-1.953,0.056-2.448c-0.186-0.494-0.573-0.741-1.166-0.741
	c-0.616,0-1.271,0.321-1.961,0.964s-1.351,1.466-1.979,2.467c-0.629,1.002-1.184,2.096-1.665,3.283
	c-0.48,1.188-0.82,2.313-1.017,3.375l-0.889,4.674h-4.625l1.851-9.62c0.073-0.419,0.19-1.036,0.352-1.85
	c0.16-0.814,0.32-1.665,0.48-2.554c0.16-0.888,0.309-1.732,0.444-2.534c0.135-0.801,0.24-1.412,0.314-1.831h4.514
	c-0.124,0.567-0.309,1.295-0.555,2.183c-0.247,0.888-0.617,2.06-1.11,3.515l0.074,0.037c0.419-0.813,0.895-1.597,1.427-2.35
	c0.532-0.752,1.12-1.405,1.767-1.961c0.646-0.555,1.348-0.999,2.105-1.332s1.584-0.499,2.479-0.499c0.895,0,1.634,0.147,2.218,0.444
	c0.584,0.296,1.037,0.715,1.359,1.258s0.515,1.19,0.577,1.942c0.062,0.753,0.006,1.572-0.167,2.46L305.946,111.128z"/>
<path d="M239.545,125.551c-0.821-0.178-1.605-0.266-2.353-0.266c-1.307,0-2.501,0.256-3.584,0.77c-1.082,0.514-2.016,1.213-2.8,2.1
	s-1.391,1.918-1.819,3.095c-0.43,1.176-0.645,2.427-0.645,3.752c0,0.653,0.098,1.292,0.294,1.918
	c0.196,0.625,0.509,1.181,0.938,1.666c0.429,0.485,0.989,0.882,1.68,1.189c0.69,0.309,1.53,0.462,2.52,0.462
	c0.71,0,1.354-0.051,1.933-0.153c0.578-0.104,1.139-0.238,1.68-0.406l1.344-7.084h2.521l-1.68,8.82
	c-1.009,0.373-2.059,0.644-3.15,0.812s-2.114,0.252-3.066,0.252c-1.307,0-2.445-0.178-3.416-0.532s-1.772-0.854-2.407-1.498
	c-0.635-0.644-1.111-1.404-1.429-2.281c-0.317-0.878-0.476-1.849-0.476-2.912c0-1.792,0.308-3.431,0.924-4.914
	c0.616-1.484,1.456-2.768,2.521-3.851c1.063-1.082,2.314-1.922,3.752-2.52c1.437-0.598,2.986-0.896,4.647-0.896
	c0.934,0,1.829,0.065,2.688,0.196c0.858,0.131,1.68,0.327,2.464,0.588l-0.729,2.437
	C241.151,125.976,240.367,125.728,239.545,125.551z"/>
<path d="M256.471,136.961c-0.457,1.157-1.063,2.146-1.819,2.968c-0.757,0.821-1.624,1.451-2.604,1.89
	c-0.979,0.438-1.992,0.658-3.038,0.658c-1.755,0-3.043-0.425-3.864-1.274c-0.821-0.849-1.231-2.076-1.231-3.682
	c0-1.381,0.205-2.65,0.616-3.808c0.41-1.157,0.979-2.156,1.708-2.996c0.728-0.84,1.582-1.493,2.562-1.96
	c0.98-0.467,2.039-0.7,3.178-0.7c0.915,0,1.699,0.121,2.353,0.364c0.653,0.242,1.189,0.588,1.609,1.036
	c0.421,0.447,0.729,0.979,0.925,1.596c0.195,0.616,0.294,1.288,0.294,2.016C257.158,134.506,256.928,135.804,256.471,136.961z
	 M253.811,130.997c-0.476-0.542-1.218-0.813-2.226-0.813c-0.766,0-1.461,0.196-2.086,0.588c-0.625,0.393-1.162,0.91-1.61,1.554
	c-0.447,0.645-0.793,1.382-1.036,2.213c-0.242,0.83-0.363,1.685-0.363,2.562c0,1.045,0.224,1.844,0.672,2.394
	c0.448,0.551,1.204,0.826,2.268,0.826c0.672,0,1.316-0.172,1.933-0.518c0.615-0.346,1.157-0.826,1.624-1.442
	c0.466-0.616,0.84-1.354,1.119-2.212c0.28-0.858,0.421-1.792,0.421-2.8C254.526,132.322,254.288,131.538,253.811,130.997z"/>
<path d="M266.202,130.982c-0.635,0.514-1.228,1.209-1.778,2.086c-0.551,0.878-1.031,1.857-1.442,2.94
	c-0.41,1.082-0.709,2.109-0.896,3.08l-0.588,3.136h-2.464l1.399-7.252c0.205-1.12,0.411-2.23,0.616-3.332s0.41-2.212,0.616-3.332
	h2.407c-0.111,0.598-0.274,1.298-0.489,2.1c-0.215,0.803-0.527,1.812-0.938,3.024l0.057,0.028c0.392-0.84,0.793-1.619,1.203-2.338
	c0.411-0.719,0.854-1.321,1.33-1.807c0.477-0.485,0.994-0.845,1.555-1.078c0.56-0.233,1.176-0.294,1.848-0.182l-0.504,2.436
	C267.48,130.306,266.835,130.47,266.202,130.982z"/>
<path d="M275.077,129.961c-0.915,0-1.605,0.191-2.072,0.573c-0.467,0.383-0.699,0.873-0.699,1.471c0,0.373,0.103,0.704,0.308,0.994
	c0.205,0.289,0.467,0.564,0.784,0.825c0.317,0.262,0.658,0.527,1.021,0.799c0.364,0.271,0.705,0.564,1.022,0.882
	s0.578,0.672,0.784,1.063c0.205,0.393,0.308,0.85,0.308,1.372c0,0.579-0.126,1.144-0.378,1.694s-0.63,1.036-1.134,1.456
	s-1.13,0.756-1.876,1.008c-0.747,0.252-1.615,0.378-2.604,0.378c-0.934,0-1.727-0.065-2.38-0.196l0.448-2.268
	c0.746,0.262,1.503,0.392,2.268,0.392c0.915,0,1.652-0.182,2.212-0.546c0.561-0.364,0.84-0.91,0.84-1.638
	c0-0.373-0.103-0.7-0.308-0.98c-0.205-0.279-0.467-0.546-0.784-0.798s-0.653-0.504-1.008-0.756s-0.69-0.536-1.008-0.854
	s-0.579-0.682-0.784-1.093c-0.205-0.41-0.308-0.896-0.308-1.456c0-0.597,0.116-1.152,0.35-1.665c0.233-0.514,0.583-0.962,1.05-1.345
	s1.046-0.681,1.736-0.896s1.484-0.322,2.38-0.322c0.485,0,0.915,0.019,1.288,0.056c0.373,0.038,0.737,0.084,1.092,0.141
	l-0.448,2.044C276.504,130.072,275.805,129.961,275.077,129.961z"/>
<path d="M285.745,129.961c-0.915,0-1.605,0.191-2.072,0.573c-0.467,0.383-0.699,0.873-0.699,1.471c0,0.373,0.103,0.704,0.308,0.994
	c0.205,0.289,0.467,0.564,0.784,0.825c0.317,0.262,0.658,0.527,1.021,0.799c0.364,0.271,0.705,0.564,1.022,0.882
	s0.578,0.672,0.784,1.063c0.205,0.393,0.308,0.85,0.308,1.372c0,0.579-0.126,1.144-0.378,1.694s-0.63,1.036-1.134,1.456
	s-1.13,0.756-1.876,1.008c-0.747,0.252-1.615,0.378-2.604,0.378c-0.934,0-1.727-0.065-2.38-0.196l0.448-2.268
	c0.746,0.262,1.503,0.392,2.268,0.392c0.915,0,1.652-0.182,2.212-0.546c0.561-0.364,0.84-0.91,0.84-1.638
	c0-0.373-0.103-0.7-0.308-0.98c-0.205-0.279-0.467-0.546-0.784-0.798s-0.653-0.504-1.008-0.756s-0.69-0.536-1.008-0.854
	s-0.579-0.682-0.784-1.093c-0.205-0.41-0.308-0.896-0.308-1.456c0-0.597,0.116-1.152,0.35-1.665c0.233-0.514,0.583-0.962,1.05-1.345
	s1.046-0.681,1.736-0.896s1.484-0.322,2.38-0.322c0.485,0,0.915,0.019,1.288,0.056c0.373,0.038,0.737,0.084,1.092,0.141
	l-0.448,2.044C287.172,130.072,286.473,129.961,285.745,129.961z"/>
<path d="M292.829,136.093c-0.037,0.205-0.07,0.462-0.098,0.77c-0.028,0.309-0.042,0.593-0.042,0.854c0,0.541,0.051,0.984,0.153,1.33
	c0.104,0.345,0.271,0.62,0.504,0.826c0.233,0.205,0.542,0.35,0.925,0.434c0.382,0.084,0.854,0.126,1.414,0.126
	c0.653,0,1.315-0.07,1.987-0.21s1.307-0.331,1.904-0.574l0.084,1.96c-0.709,0.28-1.466,0.495-2.268,0.645
	c-0.803,0.149-1.662,0.224-2.576,0.224c-1.605,0-2.786-0.354-3.542-1.063c-0.756-0.71-1.134-1.857-1.134-3.444
	c0-1.344,0.182-2.618,0.546-3.822c0.363-1.204,0.877-2.259,1.54-3.164c0.662-0.905,1.46-1.619,2.394-2.142s1.979-0.784,3.136-0.784
	c0.747,0,1.377,0.089,1.891,0.266c0.513,0.178,0.933,0.411,1.26,0.7c0.326,0.289,0.564,0.626,0.714,1.008
	c0.149,0.383,0.224,0.779,0.224,1.19C301.844,134.245,298.839,135.868,292.829,136.093z M298.834,130.366
	c-0.345-0.271-0.798-0.405-1.357-0.405c-0.561,0-1.069,0.111-1.526,0.336c-0.457,0.224-0.868,0.532-1.232,0.924
	c-0.363,0.392-0.677,0.85-0.938,1.372c-0.262,0.522-0.477,1.073-0.645,1.652c2.166-0.094,3.743-0.359,4.732-0.799
	c0.989-0.438,1.484-1.077,1.484-1.918C299.353,131.024,299.18,130.638,298.834,130.366z"/>
<path d="M303.497,142.225l3.892-20.439h2.464l-3.892,20.439H303.497z"/>
</svg>
