<?xml version="1.0" encoding="utf-8"?>
<!-- Generator: Adobe Illustrator 14.0.0, SVG Export Plug-In . SVG Version: 6.00 Build 43363)  -->
<!DOCTYPE svg PUBLIC "-//W3C//DTD SVG 1.1//EN" "http://www.w3.org/Graphics/SVG/1.1/DTD/svg11.dtd">
<svg version="1.1" id="Layer_1" xmlns="http://www.w3.org/2000/svg" xmlns:xlink="http://www.w3.org/1999/xlink" x="0px" y="0px"
	 width="1813.41px" height="155.512px" viewBox="0 0 1813.41 155.512" enable-background="new 0 0 1813.41 155.512"
	 xml:space="preserve">
<polygon fill-rule="evenodd" clip-rule="evenodd" fill="#00010C" points="479.652,12.846 418.596,12.846 384.892,75.182 
	374.914,12.846 317.742,12.846 295.177,131.265 331.317,131.213 343.301,67.346 362.8,131.135 392.507,131.135 430.552,67.402 
	418.647,131.213 457.087,131.265 "/>
<polygon fill-rule="evenodd" clip-rule="evenodd" fill="#00010C" points="686.813,83.671 677.657,131.265 715.781,131.265 
	738.505,12.745 700.381,12.745 692.845,52.509 653.289,52.509 660.831,12.745 622.363,12.745 599.77,131.265 638.237,131.265 
	647.257,83.671 "/>
<polygon fill-rule="evenodd" clip-rule="evenodd" fill="#00010C" points="28.76,13.061 7.542,131.214 38.467,131.265 43.309,97.877 
	62.25,83.434 88.891,131.107 129.264,131.107 91.591,57.401 139.665,13.061 99.872,13.061 52.385,54.437 60.931,12.902 "/>
<path fill-rule="evenodd" clip-rule="evenodd" fill="#00010C" d="M835.969,12.698l-12.593,70.317
	c-2.644,14.949-10.023,21.404-22.566,21.404c-11.11,0-18.625-5.186-18.997-14.629c-0.051-0.586-0.078-1.166-0.078-1.775
	c0-1.69,0.185-3.546,0.529-5.738l12.622-69.579h-38.389l-12.221,67.989c-0.637,3.438-0.874,7.092-0.874,10.665
	c0,0.738,0,1.454,0.028,2.165c1.24,26.032,21.692,40.559,57.459,40.559c18.096,0,31.247-6.612,40.744-13.624
	c9.736-6.985,16.744-19.871,18.941-32.144l13.653-75.61H835.969z"/>
<polygon fill-rule="evenodd" clip-rule="evenodd" fill="#00010C" points="1155.532,64.452 1111.934,77.632 1151.434,95.197 
	1166.512,136.917 1188.792,94.244 1239.61,77.632 1191.276,64.452 1178.762,19.558 "/>
<path fill-rule="evenodd" clip-rule="evenodd" fill="#ECEBEE" d="M876.294,19.958l-12.455,69c-1.209,6.696-3.549,13.06-7.028,19.097
	c-3.683,6.394-8.084,11.431-13.199,15.12c-12.888,9.494-27.103,14.245-42.672,14.245c-13.431,0-24.739-1.938-33.939-5.806
	c1.814,1.86,3.821,3.559,6.061,5.14c10.486,7.432,24.995,11.129,43.564,11.129c15.578,0,29.792-4.751,42.665-14.253
	c5.13-3.682,9.517-8.711,13.206-15.105c3.488-6.053,5.82-12.408,7.038-19.104l14.353-79.463H876.294z"/>
<path fill="none" stroke="#000000" stroke-width="0.25" stroke-miterlimit="10" d="M876.294,19.958l-12.455,69
	c-1.209,6.696-3.549,13.06-7.028,19.097c-3.683,6.394-8.084,11.431-13.199,15.12c-12.888,9.494-27.103,14.245-42.672,14.245
	c-13.431,0-24.739-1.938-33.939-5.806c1.814,1.86,3.821,3.559,6.061,5.14c10.486,7.432,24.995,11.129,43.564,11.129
	c15.578,0,29.792-4.751,42.665-14.253c5.13-3.682,9.517-8.711,13.206-15.105c3.488-6.053,5.82-12.408,7.038-19.104l14.353-79.463
	H876.294z"/>
<polygon fill-rule="evenodd" clip-rule="evenodd" fill="#00010C" points="1716.163,42.184 1782.196,42.184 1787.911,12.82 
	1685.502,12.82 1662.987,131.419 1768.047,131.419 1773.655,101.813 1704.844,101.813 1708.225,83.876 1764.975,83.876 
	1769.946,57.9 1713.202,57.9 "/>
<polygon fill-rule="evenodd" clip-rule="evenodd" fill="#00010C" points="1343.491,41.536 1409.524,41.536 1415.241,12.171 
	1312.831,12.171 1290.317,130.771 1395.375,130.771 1400.985,101.164 1332.172,101.164 1335.553,83.228 1392.303,83.228 
	1397.276,57.251 1340.532,57.251 "/>
<path fill-rule="evenodd" clip-rule="evenodd" fill="#00010C" d="M942.725,97.011v0.716c0,29.285,19.895,38.017,55.928,38.017h0.027
	c19.605,0,35.875-3.917,46.326-11.11c11.217-7.701,18.467-21.562,18.467-35.266c0-0.874-0.027-1.747-0.08-2.621
	c-0.635-9.256-5.506-16.799-14.576-22.351c-3.682-2.307-10.057-4.713-18.762-7.121c-1.402-0.394-4.152-0.817-7.484-1.324
	c-0.188-0.023-0.422-0.079-0.637-0.102c-0.102-0.028-0.209-0.028-0.316-0.056c-4.764-0.739-10.502-1.641-15.029-2.751
	c-11.719-2.83-13.99-5.874-14.311-10.452v-0.236c-0.023-0.079-0.023-0.158-0.023-0.237c0-5.423,6.24-8.94,15.367-8.94
	c12.406,0,17.727,4.256,18.359,13.41l0.027,0.451h40.48c0.158-2.142,0.209-3.545,0.209-4.87c0-0.632,0-1.24-0.051-1.905
	c-0.717-11.032-6.934-20.74-16.67-25.768c-9.391-5-20.846-6.984-39.42-6.984c-21.318,0-33.174,2.993-43.045,10.293
	c-9.307,6.85-16.455,19.42-16.455,31.326c0,0.609,0,1.217,0.057,1.82c0.711,11.139,5.953,21.883,16.031,27.228
	c4.521,2.378,11.006,3.647,20.818,5.553c0.107,0.027,0.215,0.056,0.344,0.056c0.586,0.13,1.168,0.237,1.777,0.367
	c0.314,0.056,0.631,0.135,0.924,0.186c2.857,0.559,5.924,1.167,9.285,1.855c12.406,2.614,19.525,4.441,19.898,10.129
	c0.021,0.187,0.021,0.372,0.021,0.558c0,6.534-6.984,12.008-17.457,12.008c-11.455,0-18.389-3.383-19.184-11.878H942.725z"/>
<path fill-rule="evenodd" clip-rule="evenodd" fill="#00010C" d="M1536.59,99.513v0.717c0,29.284,19.895,38.016,55.926,38.016h0.029
	c19.605,0,35.875-3.917,46.326-11.11c11.217-7.701,18.467-21.562,18.467-35.266c0-0.874-0.027-1.747-0.08-2.621
	c-0.637-9.256-5.506-16.799-14.576-22.351c-3.682-2.307-10.057-4.713-18.762-7.121c-1.402-0.394-4.154-0.817-7.484-1.324
	c-0.188-0.023-0.424-0.079-0.639-0.102c-0.1-0.028-0.207-0.028-0.314-0.056c-4.764-0.739-10.502-1.641-15.029-2.751
	c-11.719-2.83-13.99-5.874-14.313-10.452v-0.236c-0.021-0.079-0.021-0.158-0.021-0.237c0-5.423,6.24-8.94,15.367-8.94
	c12.406,0,17.727,4.256,18.359,13.41l0.027,0.451h40.48c0.158-2.142,0.209-3.545,0.209-4.87c0-0.632,0-1.24-0.051-1.905
	c-0.717-11.032-6.934-20.74-16.67-25.768c-9.391-5-20.846-6.984-39.42-6.984c-21.318,0-33.174,2.993-43.045,10.293
	c-9.307,6.85-16.455,19.42-16.455,31.326c0,0.609,0,1.217,0.057,1.82c0.711,11.139,5.953,21.883,16.031,27.228
	c4.521,2.378,11.004,3.647,20.818,5.553c0.107,0.027,0.215,0.056,0.344,0.056c0.586,0.13,1.168,0.237,1.775,0.367
	c0.316,0.056,0.633,0.135,0.926,0.186c2.857,0.559,5.924,1.167,9.285,1.855c12.406,2.615,19.525,4.441,19.898,10.129
	c0.021,0.187,0.021,0.372,0.021,0.558c0,6.534-6.984,12.008-17.457,12.008c-11.455,0-18.389-3.383-19.184-11.878H1536.59z"/>
<path fill-rule="evenodd" clip-rule="evenodd" fill="#ECEBEE" d="M1548.532,29.58c-0.258-0.271-0.521-0.511-0.783-0.767
	c-2.822-2.659-6.875-4.759-12.16-6.285c3.502,5.246,5.246,12.167,5.246,20.77c0,1.868-0.078,3.704-0.24,5.464
	c-0.621,6.293-1.721,11.671-3.309,16.143c-1.893,5.325-4.736,10.192-8.502,14.594l-0.016,0.024
	c-4.387,5.037-9.766,9.067-16.129,12.09c-6.789,3.201-13.834,4.813-21.096,4.813h-28.809l-7.354,37.813h-24.537l-2.023,10.463h42.23
	l7.363-37.82h28.814c7.271,0,14.291-1.605,21.082-4.813c1.768-0.845,3.455-1.752,5.076-2.744v-3.131h4.51
	c2.389-1.86,4.572-3.937,6.557-6.215V89.97h0.023c3.154-3.713,5.658-7.728,7.51-12.083c-2.029-2.038-3.789-4.418-5.285-7.107
	c-2.867-5.115-4.502-10.835-4.914-17.174c-0.055-0.644-0.07-1.318-0.07-2.023c0-6.378,1.713-12.757,5.131-19.112
	C1547.383,31.471,1547.942,30.509,1548.532,29.58"/>
<path fill="none" stroke="#000000" stroke-width="0.25" stroke-miterlimit="10" d="M1548.532,29.58
	c-0.258-0.271-0.521-0.511-0.783-0.767c-2.822-2.659-6.875-4.759-12.16-6.285c3.502,5.246,5.246,12.167,5.246,20.77
	c0,1.868-0.078,3.704-0.24,5.464c-0.621,6.293-1.721,11.671-3.309,16.143c-1.893,5.325-4.736,10.192-8.502,14.594l-0.016,0.024
	c-4.387,5.037-9.766,9.067-16.129,12.09c-6.789,3.201-13.834,4.813-21.096,4.813h-28.809l-7.354,37.813h-24.537l-2.023,10.463h42.23
	l7.363-37.82h28.814c7.271,0,14.291-1.605,21.082-4.813c1.768-0.845,3.455-1.752,5.076-2.744v-3.131h4.51
	c2.389-1.86,4.572-3.937,6.557-6.215V89.97h0.023c3.154-3.713,5.658-7.728,7.51-12.083c-2.029-2.038-3.789-4.418-5.285-7.107
	c-2.867-5.115-4.502-10.835-4.914-17.174c-0.055-0.644-0.07-1.318-0.07-2.023c0-6.378,1.713-12.757,5.131-19.112
	C1547.383,31.471,1547.942,30.509,1548.532,29.58z"/>
<path fill-rule="evenodd" clip-rule="evenodd" fill="#ECEBEE" d="M599.569,22.527c3.503,5.247,5.247,12.168,5.247,20.77
	c0,1.868-0.077,3.705-0.24,5.464c-0.62,6.293-1.721,11.672-3.309,16.145c-1.891,5.323-4.736,10.19-8.503,14.594l-0.015,0.022
	c-4.387,5.038-9.766,9.068-16.128,12.091c-6.79,3.2-13.834,4.813-21.096,4.813h-28.808l-7.355,37.813h-24.537l-2.023,10.463h42.231
	l7.363-37.821h28.815c7.27,0,14.292-1.604,21.081-4.813c4.053-1.923,7.711-4.247,10.966-6.99l11.874-62.289
	c-0.993-1.465-2.124-2.774-3.403-3.976C608.908,26.154,604.855,24.054,599.569,22.527"/>
<path fill="none" stroke="#000000" stroke-width="0.25" stroke-miterlimit="10" d="M599.569,22.527
	c3.503,5.247,5.247,12.168,5.247,20.77c0,1.868-0.077,3.705-0.24,5.464c-0.62,6.293-1.721,11.672-3.309,16.145
	c-1.891,5.323-4.736,10.19-8.503,14.594l-0.015,0.022c-4.387,5.038-9.766,9.068-16.128,12.091c-6.79,3.2-13.834,4.813-21.096,4.813
	h-28.808l-7.355,37.813h-24.537l-2.023,10.463h42.231l7.363-37.821h28.815c7.27,0,14.292-1.604,21.081-4.813
	c4.053-1.923,7.711-4.247,10.966-6.99l11.874-62.289c-0.993-1.465-2.124-2.774-3.403-3.976
	C608.908,26.154,604.855,24.054,599.569,22.527z"/>
<path fill-rule="evenodd" clip-rule="evenodd" fill="#ECEBEE" d="M1059.239,68.724c4.502,5.015,6.99,10.966,7.463,17.841
	c0.061,0.838,0.078,1.79,0.078,2.837c0,7.394-1.799,14.523-5.395,21.406c-3.604,6.874-8.426,12.408-14.484,16.555
	c-11.324,7.797-27.391,11.694-48.184,11.694h-0.031c-14.732,0-26.521-1.604-35.389-4.819c2.193,2.61,4.814,4.866,7.891,6.766
	c9.215,5.681,23.592,8.517,43.191,8.517h0.039c20.779,0,36.83-3.905,48.176-11.687c6.045-4.155,10.881-9.681,14.477-16.563
	c3.604-6.874,5.41-14.012,5.41-21.405c0-1.046-0.039-1.991-0.094-2.836c-0.713-10.448-6.098-18.757-16.121-24.917
	C1064.477,70.995,1062.129,69.848,1059.239,68.724"/>
<path fill="none" stroke="#000000" stroke-width="0.25" stroke-miterlimit="10" d="M1059.239,68.724
	c4.502,5.015,6.99,10.966,7.463,17.841c0.061,0.838,0.078,1.79,0.078,2.837c0,7.394-1.799,14.523-5.395,21.406
	c-3.604,6.874-8.426,12.408-14.484,16.555c-11.324,7.797-27.391,11.694-48.184,11.694h-0.031c-14.732,0-26.521-1.604-35.389-4.819
	c2.193,2.61,4.814,4.866,7.891,6.766c9.215,5.681,23.592,8.517,43.191,8.517h0.039c20.779,0,36.83-3.905,48.176-11.687
	c6.045-4.155,10.881-9.681,14.477-16.563c3.604-6.874,5.41-14.012,5.41-21.405c0-1.046-0.039-1.991-0.094-2.836
	c-0.713-10.448-6.098-18.757-16.121-24.917C1064.477,70.995,1062.129,69.848,1059.239,68.724z"/>
<polygon fill-rule="evenodd" clip-rule="evenodd" fill="#ECEBEE" points="1775.68,108.886 1770.813,134.578 1676.764,134.578 
	1674.786,145.041 1786.506,145.041 1793.35,108.886 "/>
<polygon fill="none" stroke="#000000" stroke-width="0.25" stroke-miterlimit="10" points="1775.68,108.886 1770.813,134.578 
	1676.764,134.578 1674.786,145.041 1786.506,145.041 1793.35,108.886 "/>
<polygon fill-rule="evenodd" clip-rule="evenodd" fill="#ECEBEE" points="1418.174,108.392 1402.977,108.392 1398.11,134.084 
	1304.061,134.084 1302.084,144.547 1413.803,144.547 1415.741,134.286 1413.161,134.286 "/>
<polygon fill="none" stroke="#000000" stroke-width="0.25" stroke-miterlimit="10" points="1418.174,108.392 1402.977,108.392 
	1398.11,134.084 1304.061,134.084 1302.084,144.547 1413.803,144.547 1415.741,134.286 1413.161,134.286 "/>
<path fill-rule="evenodd" clip-rule="evenodd" fill="#ECEBEE" d="M1653.133,71.226c4.504,5.015,6.992,10.966,7.463,17.841
	c0.063,0.838,0.078,1.79,0.078,2.837c0,7.394-1.797,14.523-5.393,21.406c-3.605,6.874-8.426,12.408-14.486,16.555
	c-11.324,7.797-27.389,11.694-48.184,11.694h-0.029c-14.734,0-26.523-1.604-35.389-4.819c2.193,2.61,4.813,4.866,7.891,6.766
	c9.215,5.68,23.59,8.517,43.191,8.517h0.039c20.777,0,36.828-3.905,48.176-11.687c2.41-1.667,4.633-3.542,6.656-5.635h-4.014
	l9.996-52.663c-2.387-2.751-5.385-5.208-8.967-7.424C1658.374,73.497,1656.026,72.35,1653.133,71.226"/>
<path fill="none" stroke="#000000" stroke-width="0.25" stroke-miterlimit="10" d="M1653.133,71.226
	c4.504,5.015,6.992,10.966,7.463,17.841c0.063,0.838,0.078,1.79,0.078,2.837c0,7.394-1.797,14.523-5.393,21.406
	c-3.605,6.874-8.426,12.408-14.486,16.555c-11.324,7.797-27.389,11.694-48.184,11.694h-0.029c-14.734,0-26.523-1.604-35.389-4.819
	c2.193,2.61,4.813,4.866,7.891,6.766c9.215,5.68,23.59,8.517,43.191,8.517h0.039c20.777,0,36.828-3.905,48.176-11.687
	c2.41-1.667,4.633-3.542,6.656-5.635h-4.014l9.996-52.663c-2.387-2.751-5.385-5.208-8.967-7.424
	C1658.374,73.497,1656.026,72.35,1653.133,71.226z"/>
<polygon fill-rule="evenodd" clip-rule="evenodd" fill="#ECEBEE" points="1240.584,80.746 1190.981,96.967 1172.909,131.58 
	1181.565,155.512 1206.676,107.438 1266.594,87.837 "/>
<polygon fill="none" stroke="#000000" stroke-width="0.25" stroke-miterlimit="10" points="1240.584,80.746 1190.981,96.967 
	1172.909,131.58 1181.565,155.512 1206.676,107.438 1266.594,87.837 "/>
<polygon fill-rule="evenodd" clip-rule="evenodd" fill="#ECEBEE" points="1417.153,19.465 1412.208,44.909 1346.184,44.909 
	1344.463,54.077 1401.217,54.077 1400.979,55.371 1427.903,55.371 1434.87,19.465 "/>
<polygon fill="none" stroke="#000000" stroke-width="0.25" stroke-miterlimit="10" points="1417.153,19.465 1412.208,44.909 
	1346.184,44.909 1344.463,54.077 1401.217,54.077 1400.979,55.371 1427.903,55.371 1434.87,19.465 "/>
<polygon fill-rule="evenodd" clip-rule="evenodd" fill="#ECEBEE" points="1789.825,19.959 1784.879,45.403 1718.856,45.403 
	1717.135,54.571 1773.889,54.571 1773.649,55.865 1800.575,55.865 1807.542,19.959 "/>
<polygon fill="none" stroke="#000000" stroke-width="0.25" stroke-miterlimit="10" points="1789.825,19.959 1784.879,45.403 
	1718.856,45.403 1717.135,54.571 1773.889,54.571 1773.649,55.865 1800.575,55.865 1807.542,19.959 "/>
<polygon fill-rule="evenodd" clip-rule="evenodd" fill="#ECEBEE" points="237.078,127.712 234.552,117.249 193.181,117.249 
	183.377,134.423 161.072,134.423 155.189,144.886 199.048,144.886 208.867,127.712 "/>
<polygon fill="none" stroke="#000000" stroke-width="0.25" stroke-miterlimit="10" points="237.078,127.712 234.552,117.249 
	193.181,117.249 183.377,134.423 161.072,134.423 155.189,144.886 199.048,144.886 208.867,127.712 "/>
<polygon fill-rule="evenodd" clip-rule="evenodd" fill="#ECEBEE" points="1399.256,64.424 1395.049,86.48 1338.301,86.48 
	1336.155,97.874 1353.801,97.874 1353.989,96.944 1410.719,96.944 1416.952,64.424 "/>
<polygon fill="none" stroke="#000000" stroke-width="0.25" stroke-miterlimit="10" points="1399.256,64.424 1395.049,86.48 
	1338.301,86.48 1336.155,97.874 1353.801,97.874 1353.989,96.944 1410.719,96.944 1416.952,64.424 "/>
<polygon fill-rule="evenodd" clip-rule="evenodd" fill="#ECEBEE" points="1771.928,65.104 1767.719,87.16 1710.973,87.16 
	1708.825,98.554 1726.473,98.554 1726.659,97.623 1783.391,97.623 1789.624,65.104 "/>
<polygon fill="none" stroke="#000000" stroke-width="0.25" stroke-miterlimit="10" points="1771.928,65.104 1767.719,87.16 
	1710.973,87.16 1708.825,98.554 1726.473,98.554 1726.659,97.623 1783.391,97.623 1789.624,65.104 "/>
<polygon fill-rule="evenodd" clip-rule="evenodd" fill="#ECEBEE" points="680.725,97.292 682.732,86.822 649.825,86.822 
	640.811,134.424 613.383,134.424 611.383,144.887 656.505,144.887 665.519,97.292 "/>
<polygon fill="none" stroke="#000000" stroke-width="0.25" stroke-miterlimit="10" points="680.725,97.292 682.732,86.822 
	649.825,86.822 640.811,134.424 613.383,134.424 611.383,144.887 656.505,144.887 665.519,97.292 "/>
<polygon fill-rule="evenodd" clip-rule="evenodd" fill="#ECEBEE" points="477.498,134.245 477.18,134.245 495.881,37.701 
	499.269,19.93 481.598,19.93 459.773,134.424 432.313,134.393 430.376,144.816 475.452,144.887 "/>
<polygon fill="none" stroke="#000000" stroke-width="0.25" stroke-miterlimit="10" points="477.498,134.245 477.18,134.245 
	495.881,37.701 499.269,19.93 481.598,19.93 459.773,134.424 432.313,134.393 430.376,144.816 475.452,144.887 "/>
<polygon fill-rule="evenodd" clip-rule="evenodd" fill="#ECEBEE" points="144.966,134.401 139.434,134.401 142.339,129.255 
	111.269,68.454 163.661,20.125 136.635,20.125 95.574,57.992 134.558,134.238 96.752,134.238 102.604,144.701 150.252,144.701 "/>
<polygon fill="none" stroke="#000000" stroke-width="0.25" stroke-miterlimit="10" points="144.966,134.401 139.434,134.401 
	142.339,129.255 111.269,68.454 163.661,20.125 136.635,20.125 95.574,57.992 134.558,134.238 96.752,134.238 102.604,144.701 
	150.252,144.701 "/>
<path fill-rule="evenodd" clip-rule="evenodd" fill="#ECEBEE" d="M943.956,93.766l5.781-32.768c-0.945-3.084-1.543-6.355-1.76-9.812
	c-0.045-0.643-0.07-1.332-0.07-2.022c0-6.379,1.713-12.757,5.131-19.12c0.932-1.721,1.947-3.372,3.023-4.929l0.9-5.03h-17.539
	l-20.184,114.339h-27.155l-1.837,10.462h44.672l6.1-34.526c-0.961-3.798-1.449-7.998-1.449-12.602v-3.992H943.956z"/>
<path fill="none" stroke="#000000" stroke-width="0.25" stroke-miterlimit="10" d="M943.956,93.766l5.781-32.768
	c-0.945-3.084-1.543-6.355-1.76-9.812c-0.045-0.643-0.07-1.332-0.07-2.022c0-6.379,1.713-12.757,5.131-19.12
	c0.932-1.721,1.947-3.372,3.023-4.929l0.9-5.03h-17.539l-20.184,114.339h-27.155l-1.837,10.462h44.672l6.1-34.526
	c-0.961-3.798-1.449-7.998-1.449-12.602v-3.992H943.956z"/>
<path fill-rule="evenodd" clip-rule="evenodd" fill="#ECEBEE" d="M741.801,104.585c-0.953-3.379-1.511-6.991-1.698-10.873v-0.047
	l-0.03-2.24v-0.03c0-4.154,0.317-7.913,0.93-11.245l10.842-60.32h-11.494L718.38,134.423h-27.087l-2.008,10.463h44.789
	L741.801,104.585z"/>
<path fill="none" stroke="#000000" stroke-width="0.25" stroke-miterlimit="10" d="M741.801,104.585
	c-0.953-3.379-1.511-6.991-1.698-10.873v-0.047l-0.03-2.24v-0.03c0-4.154,0.317-7.913,0.93-11.245l10.842-60.32h-11.494
	L718.38,134.423h-27.087l-2.008,10.463h44.789L741.801,104.585z"/>
<polygon fill-rule="evenodd" clip-rule="evenodd" fill="#00010C" points="899.321,13.01 878.448,131.265 916.493,131.265 
	937.366,13.01 "/>
<polygon fill-rule="evenodd" clip-rule="evenodd" fill="#ECEBEE" points="416.116,134.323 414.589,134.309 423.858,84.613 
	394.229,134.238 372.738,134.238 375.939,144.7 409.917,144.7 "/>
<polygon fill="none" stroke="#000000" stroke-width="0.25" stroke-miterlimit="10" points="416.116,134.323 414.589,134.309 
	423.858,84.613 394.229,134.238 372.738,134.238 375.939,144.7 409.917,144.7 "/>
<polygon fill-rule="evenodd" clip-rule="evenodd" fill="#ECEBEE" points="70.043,103.935 61.262,88.201 46.382,99.547 
	41.313,134.424 21.224,134.393 19.341,144.816 56.999,144.887 62.053,110.019 "/>
<polygon fill="none" stroke="#000000" stroke-width="0.25" stroke-miterlimit="10" points="70.043,103.935 61.262,88.201 
	46.382,99.547 41.313,134.424 21.224,134.393 19.341,144.816 56.999,144.887 62.053,110.019 "/>
<path fill-rule="evenodd" clip-rule="evenodd" fill="#ECEBEE" d="M1035.885,50.391c1.342,1.395,2.17,3.418,2.488,6.03
	c4.504,1.488,8.092,2.968,10.766,4.417h36.139l0.211-3.022c0.146-1.961,0.217-3.674,0.217-5.115c0-0.814-0.008-1.527-0.047-2.116
	c-0.404-6.084-2.225-11.656-5.48-16.686c-3.254-5.061-7.57-8.983-12.934-11.757c-1.783-0.946-3.643-1.791-5.619-2.535
	c1.037,1.194,2,2.472,2.875,3.837c3.24,5.029,5.061,10.586,5.463,16.686c0.031,0.581,0.07,1.294,0.07,2.108
	c0,1.449-0.084,3.154-0.217,5.123l-0.232,3.03H1035.885z"/>
<path fill="none" stroke="#000000" stroke-width="0.25" stroke-miterlimit="10" d="M1035.885,50.391
	c1.342,1.395,2.17,3.418,2.488,6.03c4.504,1.488,8.092,2.968,10.766,4.417h36.139l0.211-3.022c0.146-1.961,0.217-3.674,0.217-5.115
	c0-0.814-0.008-1.527-0.047-2.116c-0.404-6.084-2.225-11.656-5.48-16.686c-3.254-5.061-7.57-8.983-12.934-11.757
	c-1.783-0.946-3.643-1.791-5.619-2.535c1.037,1.194,2,2.472,2.875,3.837c3.24,5.029,5.061,10.586,5.463,16.686
	c0.031,0.581,0.07,1.294,0.07,2.108c0,1.449-0.084,3.154-0.217,5.123l-0.232,3.03H1035.885z"/>
<polygon fill-rule="evenodd" clip-rule="evenodd" fill="#ECEBEE" points="354.896,116.691 343.977,80.901 333.932,134.369 
	308.821,134.408 306.821,144.887 349.626,144.816 "/>
<polygon fill="none" stroke="#000000" stroke-width="0.25" stroke-miterlimit="10" points="354.896,116.691 343.977,80.901 
	333.932,134.369 308.821,134.408 306.821,144.887 349.626,144.816 "/>
<path fill-rule="evenodd" clip-rule="evenodd" fill="#ECEBEE" d="M1672.704,63.186l4.131-21.77c-0.768-1.783-1.674-3.503-2.76-5.17
	c-3.254-5.061-7.572-8.982-12.936-11.757c-1.781-0.945-3.643-1.79-5.617-2.534c1.037,1.194,1.998,2.472,2.875,3.836
	c3.238,5.03,5.061,10.587,5.463,16.687c0.031,0.581,0.07,1.294,0.07,2.108c0,1.449-0.086,3.154-0.217,5.123l-0.232,3.03h-33.699
	c1.342,1.395,2.17,3.418,2.488,6.029c4.504,1.489,8.092,2.969,10.766,4.418H1672.704z"/>
<path fill="none" stroke="#000000" stroke-width="0.25" stroke-miterlimit="10" d="M1672.704,63.186l4.131-21.77
	c-0.768-1.783-1.674-3.503-2.76-5.17c-3.254-5.061-7.572-8.982-12.936-11.757c-1.781-0.945-3.643-1.79-5.617-2.534
	c1.037,1.194,1.998,2.472,2.875,3.836c3.238,5.03,5.061,10.587,5.463,16.687c0.031,0.581,0.07,1.294,0.07,2.108
	c0,1.449-0.086,3.154-0.217,5.123l-0.232,3.03h-33.699c1.342,1.395,2.17,3.418,2.488,6.029c4.504,1.489,8.092,2.969,10.766,4.418
	H1672.704z"/>
<polygon fill-rule="evenodd" clip-rule="evenodd" fill="#ECEBEE" points="296.295,134.424 291.133,134.424 293.661,121.201 
	273.377,20.116 259.799,20.116 282.716,134.424 251.839,134.424 254.382,144.887 298.411,144.887 "/>
<polygon fill="none" stroke="#000000" stroke-width="0.25" stroke-miterlimit="10" points="296.295,134.424 291.133,134.424 
	293.661,121.201 273.377,20.116 259.799,20.116 282.716,134.424 251.839,134.424 254.382,144.887 298.411,144.887 "/>
<path fill-rule="evenodd" clip-rule="evenodd" fill="#ECEBEE" d="M1610.043,102.538c0.58-0.977,0.867-2.023,0.867-3.139v-0.179
	l-0.021-0.069v-0.101c-0.078-1.302-1.24-2.441-3.504-3.434c-2.293-1.038-6.891-2.264-13.797-3.712
	c-2.479-0.504-5.549-1.124-9.236-1.837h-0.018l-2.525-0.52c-0.193-0.031-0.395-0.062-0.598-0.108
	c-5.998-1.162-10.158-2.03-12.484-2.611c-1.146-0.295-2.225-0.582-3.225-0.893c2.689,3.388,5.945,6.084,9.758,8.115
	c2.285,1.193,5.34,2.278,9.152,3.239c2.334,0.566,6.488,1.449,12.494,2.604c0.193,0.048,0.404,0.087,0.582,0.117l2.527,0.52h0.014
	c3.682,0.713,6.775,1.325,9.232,1.844C1609.524,102.422,1609.78,102.492,1610.043,102.538"/>
<path fill="none" stroke="#000000" stroke-width="0.25" stroke-miterlimit="10" d="M1610.043,102.538
	c0.58-0.977,0.867-2.023,0.867-3.139v-0.179l-0.021-0.069v-0.101c-0.078-1.302-1.24-2.441-3.504-3.434
	c-2.293-1.038-6.891-2.264-13.797-3.712c-2.479-0.504-5.549-1.124-9.236-1.837h-0.018l-2.525-0.52
	c-0.193-0.031-0.395-0.062-0.598-0.108c-5.998-1.162-10.158-2.03-12.484-2.611c-1.146-0.295-2.225-0.582-3.225-0.893
	c2.689,3.388,5.945,6.084,9.758,8.115c2.285,1.193,5.34,2.278,9.152,3.239c2.334,0.566,6.488,1.449,12.494,2.604
	c0.193,0.048,0.404,0.087,0.582,0.117l2.527,0.52h0.014c3.682,0.713,6.775,1.325,9.232,1.844
	C1609.524,102.422,1609.78,102.492,1610.043,102.538z"/>
<path fill-rule="evenodd" clip-rule="evenodd" fill="#ECEBEE" d="M1016.147,100.036c0.582-0.977,0.869-2.023,0.869-3.14v-0.178
	l-0.023-0.069v-0.101c-0.078-1.302-1.24-2.441-3.504-3.434c-2.293-1.038-6.889-2.264-13.795-3.712
	c-2.479-0.504-5.549-1.124-9.238-1.837h-0.016l-2.527-0.52c-0.193-0.031-0.395-0.062-0.596-0.109c-6-1.161-10.16-2.029-12.486-2.61
	c-1.146-0.295-2.225-0.582-3.225-0.893c2.691,3.388,5.945,6.084,9.758,8.115c2.287,1.193,5.34,2.278,9.154,3.239
	c2.332,0.565,6.486,1.449,12.492,2.604c0.193,0.048,0.404,0.086,0.582,0.117l2.525,0.52h0.018c3.68,0.713,6.771,1.324,9.23,1.844
	C1015.629,99.92,1015.885,99.99,1016.147,100.036"/>
<path fill="none" stroke="#000000" stroke-width="0.25" stroke-miterlimit="10" d="M1016.147,100.036
	c0.582-0.977,0.869-2.023,0.869-3.14v-0.178l-0.023-0.069v-0.101c-0.078-1.302-1.24-2.441-3.504-3.434
	c-2.293-1.038-6.889-2.264-13.795-3.712c-2.479-0.504-5.549-1.124-9.238-1.837h-0.016l-2.527-0.52
	c-0.193-0.031-0.395-0.062-0.596-0.109c-6-1.161-10.16-2.029-12.486-2.61c-1.146-0.295-2.225-0.582-3.225-0.893
	c2.691,3.388,5.945,6.084,9.758,8.115c2.287,1.193,5.34,2.278,9.154,3.239c2.332,0.565,6.486,1.449,12.492,2.604
	c0.193,0.048,0.404,0.086,0.582,0.117l2.525,0.52h0.018c3.68,0.713,6.771,1.324,9.23,1.844
	C1015.629,99.92,1015.885,99.99,1016.147,100.036z"/>
<path fill-rule="evenodd" clip-rule="evenodd" fill="#00010C" d="M1529.752,20.686c-6.217-5.823-19.713-8.179-32.25-8.179h-57.543
	l-22.939,118.418h35.582l7.357-37.808h31.512c14.02,0,26.906-6.771,34.758-15.79c7.436-8.682,9.949-17.83,11.031-28.918
	c0.164-1.691,0.244-3.438,0.244-5.158C1537.504,34.519,1535.276,25.923,1529.752,20.686 M1501.159,50.392
	c-0.48,4.205-1.512,8.151-4.471,11.032c-3.072,3.173-6.219,4.233-11.934,4.233h-19.393l5.002-26.167h17.857
	c10.738,0,13.094,3.968,13.094,8.709C1501.315,48.909,1501.264,49.654,1501.159,50.392"/>
<path fill-rule="evenodd" clip-rule="evenodd" fill="#00010C" d="M593.765,20.687c-6.218-5.824-19.713-8.18-32.25-8.18h-57.543
	l-22.938,118.417h35.582l7.356-37.807h31.512c14.019,0,26.906-6.771,34.758-15.79c7.436-8.681,9.95-17.83,11.032-28.918
	c0.163-1.691,0.242-3.439,0.242-5.158C601.516,34.52,599.29,25.923,593.765,20.687 M565.14,50.546
	c-0.479,4.205-1.511,8.151-4.47,11.032c-3.073,3.174-6.218,4.233-11.934,4.233h-19.392l5-26.167h17.859
	c10.738,0,13.095,3.968,13.095,8.709C565.297,49.063,565.247,49.808,565.14,50.546"/>
<polygon fill-rule="evenodd" clip-rule="evenodd" fill="#ECEBEE" points="1150.336,101.858 1148.84,97.704 1122.94,86.188 
	1118.266,87.599 "/>
<polygon fill="none" stroke="#000000" stroke-width="0.25" stroke-miterlimit="10" points="1150.336,101.858 1148.84,97.704 
	1122.94,86.188 1118.266,87.599 "/>
<path fill-rule="evenodd" clip-rule="evenodd" fill="#ECEBEE" d="M796.852,19.941l-11.424,62.955
	c-0.318,2.054-0.481,3.798-0.481,5.192c0,0.48,0.024,0.961,0.07,1.48v0.077l0.008,0.093c0.139,3.596,1.535,6.387,4.162,8.347
	c2.79,2.094,6.634,3.123,11.571,3.123h0.031c-0.054-0.332-0.062-0.666-0.077-1.007v-0.085l-0.024-0.085
	c-0.031-0.52-0.069-1.016-0.069-1.496c0-1.395,0.17-3.123,0.503-5.177l13.3-73.418H796.852z"/>
<path fill="none" stroke="#000000" stroke-width="0.25" stroke-miterlimit="10" d="M796.852,19.941l-11.424,62.955
	c-0.318,2.054-0.481,3.798-0.481,5.192c0,0.48,0.024,0.961,0.07,1.48v0.077l0.008,0.093c0.139,3.596,1.535,6.387,4.162,8.347
	c2.79,2.094,6.634,3.123,11.571,3.123h0.031c-0.054-0.332-0.062-0.666-0.077-1.007v-0.085l-0.024-0.085
	c-0.031-0.52-0.069-1.016-0.069-1.496c0-1.395,0.17-3.123,0.503-5.177l13.3-73.418H796.852z"/>
<path fill-rule="evenodd" clip-rule="evenodd" fill="#00010C" d="M255.01,13.033h-43.439l-66.513,118.232h36.376l9.815-17.171
	h45.852l4.149,17.171h37.464L255.01,13.033z M203.839,90.09l21.59-40.344l7.723,40.344H203.839z"/>
<path fill-rule="evenodd" clip-rule="evenodd" fill="#ECEBEE" d="M561.376,53.346c0.233-0.992,0.419-2.046,0.55-3.193v-0.046
	l0.016-0.055c0.078-0.589,0.116-1.147,0.116-1.728c0-1.674-0.449-2.891-1.325-3.604c-1.504-1.224-4.317-1.844-8.502-1.844h-15.152
	l-3.751,19.631h15.446c0.799,0,1.558-0.024,2.256-0.078l1.728-9.083H561.376z"/>
<path fill="none" stroke="#000000" stroke-width="0.25" stroke-miterlimit="10" d="M561.376,53.346
	c0.233-0.992,0.419-2.046,0.55-3.193v-0.046l0.016-0.055c0.078-0.589,0.116-1.147,0.116-1.728c0-1.674-0.449-2.891-1.325-3.604
	c-1.504-1.224-4.317-1.844-8.502-1.844h-15.152l-3.751,19.631h15.446c0.799,0,1.558-0.024,2.256-0.078l1.728-9.083H561.376z"/>
<path fill-rule="evenodd" clip-rule="evenodd" fill="#ECEBEE" d="M1497.395,53.191c0.232-0.992,0.418-2.046,0.549-3.193v-0.046
	l0.018-0.055c0.076-0.589,0.115-1.147,0.115-1.728c0-1.674-0.449-2.891-1.324-3.604c-1.504-1.224-4.318-1.844-8.502-1.844h-15.152
	l-3.752,19.631h15.447c0.799,0,1.557-0.024,2.256-0.078l1.727-9.083H1497.395z"/>
<path fill="none" stroke="#000000" stroke-width="0.25" stroke-miterlimit="10" d="M1497.395,53.191
	c0.232-0.992,0.418-2.046,0.549-3.193v-0.046l0.018-0.055c0.076-0.589,0.115-1.147,0.115-1.728c0-1.674-0.449-2.891-1.324-3.604
	c-1.504-1.224-4.318-1.844-8.502-1.844h-15.152l-3.752,19.631h15.447c0.799,0,1.557-0.024,2.256-0.078l1.727-9.083H1497.395z"/>
<path fill-rule="evenodd" clip-rule="evenodd" fill="#ECEBEE" d="M1022.704,47.01v-0.124c-0.264-3.62-1.412-6.193-3.48-7.719
	c-2.34-1.744-6.201-2.628-11.617-2.628c-4.023,0-7.178,0.667-9.486,2c-1.645,0.945-2.504,2.092-2.605,3.402v0.054v0.558
	c0.141,1.52,0.699,2.659,1.674,3.472c1.736,1.396,5.123,2.705,10.154,3.938c1.193,0.286,2.643,0.597,4.363,0.93
	c0.434-0.698,1.131-1.333,2.107-1.891C1016.006,47.738,1018.983,47.072,1022.704,47.01"/>
<path fill="none" stroke="#000000" stroke-width="0.25" stroke-miterlimit="10" d="M1022.704,47.01v-0.124
	c-0.264-3.62-1.412-6.193-3.48-7.719c-2.34-1.744-6.201-2.628-11.617-2.628c-4.023,0-7.178,0.667-9.486,2
	c-1.645,0.945-2.504,2.092-2.605,3.402v0.054v0.558c0.141,1.52,0.699,2.659,1.674,3.472c1.736,1.396,5.123,2.705,10.154,3.938
	c1.193,0.286,2.643,0.597,4.363,0.93c0.434-0.698,1.131-1.333,2.107-1.891C1016.006,47.738,1018.983,47.072,1022.704,47.01z"/>
<path fill-rule="evenodd" clip-rule="evenodd" fill="#ECEBEE" d="M1616.598,49.326v-0.124c-0.262-3.62-1.41-6.193-3.48-7.719
	c-2.34-1.744-6.199-2.628-11.615-2.628c-4.023,0-7.178,0.667-9.488,2c-1.643,0.945-2.502,2.092-2.604,3.402v0.054v0.558
	c0.141,1.52,0.697,2.659,1.674,3.472c1.736,1.396,5.123,2.705,10.152,3.938c1.193,0.286,2.645,0.597,4.363,0.93
	c0.436-0.698,1.133-1.333,2.109-1.891C1609.903,50.054,1612.879,49.388,1616.598,49.326"/>
<path fill="none" stroke="#000000" stroke-width="0.25" stroke-miterlimit="10" d="M1616.598,49.326v-0.124
	c-0.262-3.62-1.41-6.193-3.48-7.719c-2.34-1.744-6.199-2.628-11.615-2.628c-4.023,0-7.178,0.667-9.488,2
	c-1.643,0.945-2.502,2.092-2.604,3.402v0.054v0.558c0.141,1.52,0.697,2.659,1.674,3.472c1.736,1.396,5.123,2.705,10.152,3.938
	c1.193,0.286,2.645,0.597,4.363,0.93c0.436-0.698,1.133-1.333,2.109-1.891C1609.903,50.054,1612.879,49.388,1616.598,49.326z"/>
<polygon fill-rule="evenodd" clip-rule="evenodd" fill="#ECEBEE" points="662.779,19.936 657.222,49.224 674.894,49.224 
	680.449,19.936 "/>
<polygon fill="none" stroke="#000000" stroke-width="0.25" stroke-miterlimit="10" points="662.779,19.936 657.222,49.224 
	674.894,49.224 680.449,19.936 "/>
<polygon fill-rule="evenodd" clip-rule="evenodd" fill="#ECEBEE" points="62.751,20.136 57.519,45.58 79.243,26.646 80.607,20.058 
	"/>
<polygon fill="none" stroke="#000000" stroke-width="0.25" stroke-miterlimit="10" points="62.751,20.136 57.519,45.58 
	79.243,26.646 80.607,20.058 "/>
<polygon fill-rule="evenodd" clip-rule="evenodd" fill="#ECEBEE" points="1186.993,37.121 1193.852,61.736 1207.672,65.502 
	1195.293,21.078 "/>
<polygon fill="none" stroke="#000000" stroke-width="0.25" stroke-miterlimit="10" points="1186.993,37.121 1193.852,61.736 
	1207.672,65.502 1195.293,21.078 "/>
<polygon fill-rule="evenodd" clip-rule="evenodd" fill="#ECEBEE" points="229.232,86.908 223.985,59.526 209.337,86.908 "/>
<polygon fill="none" stroke="#000000" stroke-width="0.25" stroke-miterlimit="10" points="229.232,86.908 223.985,59.526 
	209.337,86.908 "/>
<polygon fill-rule="evenodd" clip-rule="evenodd" fill="#ECEBEE" points="379.379,19.91 386.602,65.008 397.414,45.021 
	393.399,19.91 "/>
<path fill-rule="evenodd" clip-rule="evenodd" fill="#ECEBEE" d="M1586.6,106.78c2.441,0.914,5.658,1.379,9.648,1.41l-0.131-1.41
	H1586.6z"/>
</svg>
