<?xml version="1.0" encoding="utf-8"?>
<!-- Generator: Adobe Illustrator 14.0.0, SVG Export Plug-In . SVG Version: 6.00 Build 43363)  -->
<!DOCTYPE svg PUBLIC "-//W3C//DTD SVG 1.1//EN" "http://www.w3.org/Graphics/SVG/1.1/DTD/svg11.dtd">
<svg version="1.1" id="Layer_1" xmlns="http://www.w3.org/2000/svg" xmlns:xlink="http://www.w3.org/1999/xlink" x="0px" y="0px"
	 width="342.645px" height="133.388px" viewBox="-165.952 -2.72 342.645 133.388"
	 enable-background="new -165.952 -2.72 342.645 133.388" xml:space="preserve">
<g>
	<path fill="#FF3F05" d="M-91.049,87.159c-5.609-6.431-12.769-12.041-17.262-19.152c-5.108-7.695-6.518-17.27-3.844-26.11
		c2.836-9.933,15.496-17.959,25.615-16.518c-10.414,2.882-14.364,15.093-9.701,24.42c3.58,7.748,11.714,13.141,18.424,19.416l0,0
		c2.718,2.415,5.095,5.188,7.066,8.242c8.073,13.156,7.53,25.553,2.2,34.85l0,0c-5.679,9.462-15.562,15.614-26.559,16.532
		c3.432-1.012,6.371-3.251,8.26-6.29c2.55-3.52,4.194-7.611,4.788-11.915c1.022-9.902-3.269-17.044-8.94-23.46L-91.049,87.159z"/>
	<path fill="#FF3F05" d="M-117.64,22.636c8.94-8.506,0.682-21.508-3.409-25.319c5.346,15.758-8.925,17.881-14.689,26.156
		c-2.427,3.169-3.562,7.138-3.177,11.111c0.765,5.326,4.221,9.881,9.143,12.056l0.542,0.216l0.806,0.279
		c0.542,0.156,1.115,0.279,1.72,0.402l0.682,0.093l0,0c1.365,0.149,2.742,0.149,4.106,0c-3.238-3.238-5.361-6.197-4.509-11.187
		C-125.186,30.074-121.839,26.912-117.64,22.636z"/>
	<path fill="#FF3F05" d="M-145.687,96.889c4.37-4.941,9.793-9.297,13.249-14.688c3.903-5.901,4.976-13.233,2.928-20.004
		c-2.169-7.624-11.931-13.776-19.647-12.676c7.995,2.201,11.017,11.561,7.437,18.733c-2.742,5.858-8.972,10.058-14.116,14.876l0,0
		c-2.081,1.853-3.904,3.973-5.423,6.306c-6.199,10.058-5.734,19.526-1.643,26.668l0,0c4.348,7.268,11.924,12.002,20.361,12.722
		c-2.63-0.778-4.884-2.492-6.337-4.818c-1.953-2.7-3.21-5.841-3.658-9.142C-153.326,107.272-150.041,101.802-145.687,96.889z"/>
	<path fill="#3975FB" d="M-96.938,113.487c0.348-1.621,0.525-3.273,0.526-4.929c0-0.201,0-0.402,0-0.604c0-0.435,0-0.854,0-1.304
		c-0.004-0.901-0.077-1.803-0.216-2.695c-1.638-5.132-4.426-9.822-8.152-13.713l0,0c-3.997-4.54-8.692-8.707-12.69-13.231l0,0
		h-0.078c-0.279,0.495-0.573,0.99-0.883,1.472c-3.455,5.376-8.879,9.745-13.249,14.673l0,0c-3.626,4.09-6.493,8.569-6.896,14.333
		v0.433c0,0.219,0,0.419,0,0.636c0.011,1.822,0.229,3.636,0.651,5.408c1.084,5.625,3.517,9.421,6.926,11.699
		c7.999,7.227,20.254,6.926,27.892-0.682C-100.053,122.628-97.883,118.97-96.938,113.487z"/>
	<path fill="#3975FB" d="M-44.982,41.494v-5.765l4.649-0.945V4.057l-4.649-0.945v-5.795h18.734v5.795l-4.323,0.945V34.83
		l4.323,0.947v5.763L-44.982,41.494z M-32.896,31.268l-4.974-5.733l21.786-21.988V3.453l-4.649-0.341v-5.795h19.385v5.795
		L-5.5,3.964L-32.896,31.268z M-19.74,41.494v-5.765l4.292-0.339l0,0l-10.847-14.984l6.632-6.2l15.572,20.81l4.433,0.761v5.763
		L-19.74,41.494z"/>
	<path fill="#3975FB" d="M4.944,41.494v-5.765l3.099-0.45L21.664-2.683h10.29L45.542,35.28l3.1,0.45v5.765H32.913v-5.765
		l2.974-0.542l-1.643-5.439H19.385l-1.548,5.439l2.944,0.542v5.765H4.944z M21.539,22.744h10.493l-4.65-14.256l-0.48-1.424h-0.186
		l-0.482,1.55L21.539,22.744z"/>
	<path fill="#3975FB" d="M54.235,41.494v-5.765l4.648-0.945V4.057l-4.648-0.945v-5.826h21.321c3.056-0.076,6.096,0.484,8.925,1.643
		c2.339,0.953,4.347,2.568,5.78,4.647c1.375,2.129,2.077,4.624,2.015,7.159c0.017,2.512-0.688,4.974-2.032,7.097
		c-1.384,2.162-3.312,3.919-5.592,5.097c-2.519,1.293-5.32,1.937-8.152,1.876h-7.855V34.83l4.647,0.947v5.763L54.235,41.494z
		 M68.645,17.26h6.881c1.878,0.121,3.742-0.428,5.252-1.55c1.239-1.128,1.894-2.76,1.781-4.432c0.086-1.764-0.558-3.484-1.781-4.757
		c-1.433-1.265-3.313-1.9-5.222-1.766h-6.911V17.26z M82.406,41.494l-6.665-18.145l8.614-2.572l5.921,13.945l3.967,0.947v5.763
		L82.406,41.494z"/>
	<path fill="#3975FB" d="M100.271,41.494v-5.765l4.649-0.945V4.057l-4.649-0.945v-5.795h34.789V9.714h-7.423l-0.342-4.851h-12.613
		v10.104h14.49v7.469h-14.49v11.591h13.342l0.34-5.037h7.314v12.535L100.271,41.494z"/>
	<path fill="#3975FB" d="M143.054,41.494v-5.765l4.647-0.945V4.057l-4.647-0.945v-5.795h19.865v5.795l-5.456,0.945v29.969h11.468
		l0.342-6.338h7.421v13.807H143.054z"/>
	<path fill="#FF3F05" d="M-30.261,86.431c-2.448,0.028-4.89-0.253-7.268-0.836c-2.292-0.625-4.457-1.641-6.4-3.007v-8.755h5.935
		l0.744,4.803c0.815,0.698,1.78,1.195,2.82,1.457c1.354,0.396,2.758,0.588,4.169,0.573c1.005,0.026,2.007-0.125,2.959-0.45
		c0.719-0.255,1.345-0.718,1.797-1.332c0.412-0.607,0.623-1.327,0.604-2.06c0.013-0.722-0.181-1.431-0.558-2.047
		c-0.483-0.679-1.113-1.239-1.844-1.643c-1.099-0.625-2.257-1.144-3.455-1.548c-2.45-0.713-4.832-1.647-7.112-2.791
		c-1.656-0.8-3.088-1.998-4.169-3.487c-0.958-1.465-1.441-3.19-1.379-4.941c-0.051-1.803,0.494-3.573,1.55-5.037
		c1.157-1.507,2.691-2.683,4.446-3.409c2.055-0.865,4.264-1.301,6.494-1.286c2.479-0.117,4.962,0.184,7.344,0.884
		c2.014,0.597,3.903,1.552,5.578,2.819v8.136h-5.732l-0.946-4.743c-0.757-0.382-1.559-0.668-2.387-0.852
		c-1.095-0.27-2.219-0.4-3.346-0.387c-0.948-0.02-1.893,0.127-2.79,0.432c-0.747,0.253-1.407,0.709-1.906,1.319
		c-0.478,0.601-0.724,1.355-0.698,2.123c-0.006,0.662,0.201,1.308,0.589,1.844c0.556,0.664,1.255,1.193,2.046,1.55
		c1.311,0.638,2.662,1.191,4.044,1.658c3.23,0.789,6.257,2.259,8.878,4.306c2.053,1.744,3.195,4.33,3.1,7.021
		c0.051,1.865-0.528,3.694-1.643,5.19c-1.202,1.526-2.814,2.676-4.648,3.316C-25.623,86.068-27.936,86.468-30.261,86.431z"/>
	<path fill="#FF3F05" d="M-12.411,85.966v-4.542l3.672-0.744V56.416l-3.672-0.744v-4.572h27.442v9.732H9.174L8.91,57.004h-9.947
		v7.966h11.434v5.918H-1.037v9.142H9.438l0.264-3.982h5.763v9.917H-12.411z"/>
	<path fill="#FF3F05" d="M21.339,85.966v-4.542l3.655-0.744V56.416l-3.655-0.744v-4.649h16.812c2.41-0.056,4.805,0.387,7.036,1.301
		c1.839,0.752,3.422,2.023,4.555,3.657c1.07,1.682,1.61,3.647,1.55,5.64c0.035,1.98-0.504,3.93-1.55,5.609
		c-1.087,1.701-2.607,3.087-4.401,4.014c-1.986,1.042-4.202,1.576-6.446,1.55h-6.197v7.903l3.658,0.744v4.524H21.339z
		 M32.712,66.844h5.439c1.476,0.11,2.946-0.313,4.137-1.193c0.979-0.884,1.498-2.17,1.409-3.487c0.072-1.39-0.438-2.75-1.409-3.749
		c-1.126-0.997-2.605-1.5-4.105-1.396h-5.456L32.712,66.844z M43.557,85.966l-5.266-14.304l6.786-2.045l4.65,11.063l3.1,0.744v4.542
		H43.557z"/>
	<path fill="#FF3F05" d="M69.143,85.966L58.079,56.075l-3.178-0.372v-4.602h14.736v4.572l-3.1,0.48l6.524,20.145l0.435,1.55h0.138
		l0.435-1.55L80.5,56.153l-3.672-0.48v-4.572h13.945v4.572l-3.299,0.372L77.244,85.966H69.143z"/>
	<path fill="#FF3F05" d="M94.818,85.966v-4.542l3.655-0.744V56.416l-3.655-0.744v-4.572h14.998v4.572l-3.671,0.744v24.234
		l3.671,0.744v4.572H94.818z"/>
	<path fill="#FF3F05" d="M131.402,86.431c-3.076,0.067-6.12-0.64-8.85-2.062c-2.525-1.347-4.598-3.405-5.967-5.919
		c-1.491-2.864-2.224-6.067-2.122-9.297v-1.409c-0.059-3.087,0.627-6.144,2.001-8.91c1.282-2.54,3.267-4.659,5.716-6.104
		c2.698-1.533,5.763-2.298,8.863-2.216c2.295-0.009,4.578,0.324,6.774,0.992c2.148,0.657,4.142,1.749,5.855,3.206v8.679h-5.67
		l-0.761-5.208c-0.545-0.376-1.126-0.698-1.735-0.96c-0.625-0.283-1.278-0.49-1.952-0.62c-0.748-0.156-1.514-0.227-2.278-0.216
		c-1.717-0.045-3.407,0.43-4.852,1.362c-1.418,0.956-2.524,2.309-3.175,3.891c-0.789,1.919-1.17,3.982-1.115,6.057v1.457
		c-0.041,2.054,0.348,4.09,1.147,5.981c0.691,1.608,1.824,2.99,3.269,3.982c1.479,0.958,3.212,1.448,4.974,1.412
		c0.99-0.004,1.979-0.112,2.944-0.327c0.947-0.205,1.874-0.488,2.773-0.852l0.791-4.911h5.64v8.551
		c-1.61,1.031-3.356,1.831-5.189,2.372C136.192,86.081,133.802,86.442,131.402,86.431z"/>
	<path fill="#FF3F05" d="M148.834,85.966v-4.542l3.657-0.744V56.416l-3.657-0.744v-4.572h27.442v9.732h-5.873l-0.264-3.829h-9.948
		v7.966h11.435v5.918h-11.435v9.142h10.476l0.264-3.982h5.763v9.917H148.834z"/>
	<path fill="#FF3F05" d="M-44.982,130.375v-4.539l3.673-0.744v-24.236l-3.673-0.744v-4.569h15.635
		c3.471-0.197,6.921,0.64,9.917,2.402c2.378,1.582,3.74,4.306,3.58,7.16c0.021,1.545-0.411,3.063-1.24,4.368
		c-0.874,1.334-2.149,2.354-3.642,2.914c1.252,0.227,2.428,0.759,3.424,1.55c0.885,0.722,1.577,1.653,2.015,2.711
		c1.474,3.903,0.396,8.312-2.712,11.094c-2.83,1.91-6.215,2.827-9.623,2.604L-44.982,130.375z M-33.609,110.06h4.215
		c1.524,0.098,3.042-0.271,4.354-1.053c1.018-0.696,1.604-1.867,1.55-3.1c0.103-1.297-0.442-2.562-1.457-3.377
		c-1.305-0.802-2.827-1.176-4.354-1.069h-4.262L-33.609,110.06z M-33.609,124.517h5.981c1.415,0.1,2.82-0.287,3.983-1.098
		c0.937-0.826,1.437-2.041,1.348-3.286c0.034-0.925-0.142-1.848-0.511-2.695c-0.314-0.705-0.861-1.279-1.55-1.628
		c-0.872-0.406-1.828-0.597-2.789-0.558h-6.431L-33.609,124.517z"/>
	<path fill="#FF3F05" d="M-10.195,130.375v-4.539l3.657-0.744v-24.236l-3.657-0.744v-4.569h27.442v9.729h-5.874l-0.264-3.826H1.164
		v7.964h11.434v5.998H1.164v9.143h10.475l0.264-3.982h5.763v9.886L-10.195,130.375z"/>
	<path fill="#FF3F05" d="M23.54,130.375v-4.539l3.718-0.837v-24.033l-3.718-0.854v-4.569h15.789
		c2.918-0.063,5.793,0.696,8.305,2.186c2.391,1.468,4.336,3.563,5.625,6.057c1.392,2.75,2.088,5.798,2.03,8.881v0.603
		c0.063,3.076-0.629,6.117-2.015,8.865c-1.269,2.496-3.206,4.594-5.592,6.057c-2.512,1.489-5.389,2.246-8.308,2.186H23.54z
		 M34.928,124.517h4.075c1.665,0.05,3.299-0.449,4.649-1.424c1.33-1.021,2.335-2.404,2.897-3.982
		c0.696-1.867,1.031-3.85,0.992-5.843v-0.618c0.043-2.004-0.294-3.997-0.992-5.873c-0.566-1.565-1.574-2.932-2.897-3.937
		c-1.353-0.969-2.987-1.466-4.649-1.409h-4.075V124.517z"/>
	<path fill="#FF3F05" d="M60.634,130.375v-4.539l3.657-0.744v-24.236l-3.657-0.744v-4.647h16.813
		c2.408-0.059,4.806,0.385,7.034,1.301c1.846,0.748,3.437,2.019,4.57,3.657c1.072,1.682,1.612,3.646,1.552,5.64
		c0.035,1.98-0.503,3.928-1.552,5.609c-1.087,1.702-2.605,3.087-4.399,4.015c-1.987,1.042-4.202,1.573-6.446,1.548h-6.197v7.903
		l3.67,0.743v4.542L60.634,130.375z M71.991,111.253h5.439c1.479,0.11,2.946-0.313,4.137-1.193c0.981-0.884,1.5-2.168,1.412-3.484
		c0.071-1.393-0.441-2.75-1.412-3.751c-1.13-0.998-2.615-1.502-4.12-1.394h-5.456V111.253z M82.838,130.375l-5.252-14.302
		l6.788-2.045l4.647,11.063l3.1,0.744v4.539H82.838z"/>
	<path fill="#FF3F05" d="M96.941,130.375v-4.539l3.655-0.744v-24.236l-3.655-0.744v-4.569h14.997v4.569l-3.657,0.744v24.236
		l3.657,0.744v4.539H96.941z"/>
	<path fill="#FF3F05" d="M129.124,130.903c-2.3,0.052-4.585-0.376-6.71-1.256c-1.853-0.804-3.415-2.157-4.479-3.874
		c-1.15-2.015-1.751-4.295-1.751-6.616v-0.139h7.189c-0.048,1.684,0.501,3.331,1.552,4.647c0.906,0.852,2.119,1.304,3.361,1.256
		c0.794,0.011,1.576-0.175,2.276-0.542c0.718-0.392,1.306-0.984,1.69-1.706c0.467-0.896,0.691-1.9,0.65-2.911v-18.906l-4.74-0.773
		v-4.54h16.067v4.569l-3.672,0.744v18.873c0.056,2.061-0.409,4.101-1.35,5.937c-0.864,1.651-2.218,2.998-3.873,3.858
		C133.413,130.49,131.277,130.963,129.124,130.903z"/>
	<path fill="#FF3F05" d="M148.168,130.375v-4.539l3.658-0.744v-24.236l-3.658-0.744v-4.569h28.201v9.9h-5.889l-0.216-3.967h-10.77
		v8.817h12.008v5.889h-12.008v8.91l3.657,0.744v4.539H148.168z"/>
</g>
</svg>
