<?xml version="1.0" encoding="UTF-8" standalone="no"?>
<!-- Created with Inkscape (http://www.inkscape.org/) -->

<svg
   version="1.1"
   id="svg2"
   width="191.01334"
   height="66.613335"
   viewBox="0 0 191.01334 66.613335"
   sodipodi:docname="logo-looox-green_2.eps"
   xmlns:inkscape="http://www.inkscape.org/namespaces/inkscape"
   xmlns:sodipodi="http://sodipodi.sourceforge.net/DTD/sodipodi-0.dtd"
   xmlns="http://www.w3.org/2000/svg"
   xmlns:svg="http://www.w3.org/2000/svg">
  <defs
     id="defs6" />
  <sodipodi:namedview
     id="namedview4"
     pagecolor="#ffffff"
     bordercolor="#000000"
     borderopacity="0.25"
     inkscape:showpageshadow="2"
     inkscape:pageopacity="0.0"
     inkscape:pagecheckerboard="0"
     inkscape:deskcolor="#d1d1d1" />
  <g
     id="g8"
     inkscape:groupmode="layer"
     inkscape:label="ink_ext_XXXXXX"
     transform="matrix(1.3333333,0,0,-1.3333333,0,66.613333)">
    <g
       id="g10"
       transform="scale(0.1)">
      <path
         d="M 0,345.074 V 178.215 h 164.051 v 31.441 H 39.0195 V 345.074 H 0"
         style="fill:#4f4c4c;fill-opacity:1;fill-rule:nonzero;stroke:none"
         id="path12" />
      <path
         d="m 1394.93,487.262 c -11.04,-11.043 -116.6,-125.364 -116.6,-125.364 -38.47,-40.07 -64.93,-61.41 -83.75,-61.41 -0.4,0 -0.79,0.012 -1.18,0.032 -18.16,0.878 -29.05,12.441 -47.73,45.089 -23.01,40.172 -38.26,71.61 -49.82,91.02 -20.44,32 -36.32,47.992 -53.49,47.992 -11.6,0 -20.14,-3.191 -24.62,-11.41 -6.27,-11.563 -13.17,-36.102 23.85,-75.91 31.51,-33.93 49.63,-56.903 57.49,-68.461 19.92,-28.32 33.75,-44.102 26.67,-71.578 -4.89,-18.782 -69.71,-97.703 -92.56,-117.403 -13.61,-13.648 -55.002,-37.898 -86.303,-67.0973 -30.082,-28.1523 -9.571,-55.8398 15.078,-55.8398 41.725,0 62.635,37.1289 67.665,46.6679 18.16,34.5196 50.11,81.5582 64.27,98.8322 25.02,30.488 47.51,40.617 61.75,40.617 20.88,0 53.01,-6.598 63.91,-68.309 12.8,-58.7417 -4.29,-99.98 15.52,-119.7886 C 1245.7,4.32031 1257.79,0 1269.58,0 c 28.33,0 54.91,24.9414 54.91,47.3711 0,39.7695 -30.67,57.6409 -63.69,100.6679 -36.47,47.52 -40.21,74 -38.34,97.449 1.43,17.313 13.02,39.364 50.41,67.614 46.56,35.257 73.3,53.386 97.52,73.968 16.36,13.899 28.5,27.918 43.65,49.258 16.69,23.524 25.65,53.684 11.74,61.422 -2.23,1.262 -4.63,1.801 -7.08,1.801 -9.12,0 -18.93,-7.43 -23.77,-12.289"
         style="fill:#9abd99;fill-opacity:1;fill-rule:nonzero;stroke:none"
         id="path14" />
      <path
         d="m 220.629,305.621 c 0,15.52 2.91,25.969 8.769,31.359 5.813,5.379 16.75,8.098 32.77,8.098 h 123.191 c 15.989,0 26.93,-2.719 32.731,-8.098 5.848,-5.39 8.769,-15.839 8.769,-31.359 V 217.68 c 0,-15.532 -2.921,-25.989 -8.769,-31.391 -5.801,-5.379 -16.742,-8.07 -32.731,-8.07 H 262.168 c -16.02,0 -26.957,2.691 -32.77,8.07 -5.859,5.402 -8.769,15.859 -8.769,31.391 z M 259.66,209.648 H 387.879 V 315.449 H 259.66 V 209.648"
         style="fill:#4f4c4c;fill-opacity:1;fill-rule:nonzero;stroke:none"
         id="path16" />
      <path
         d="m 507.984,305.621 c 0,15.52 2.903,25.969 8.762,31.359 5.809,5.379 16.75,8.098 32.738,8.098 h 123.211 c 15.989,0 26.93,-2.719 32.739,-8.098 5.832,-5.39 8.761,-15.839 8.761,-31.359 V 217.68 c 0,-15.532 -2.929,-25.989 -8.761,-31.391 -5.809,-5.379 -16.75,-8.07 -32.739,-8.07 H 549.484 c -15.988,0 -26.929,2.691 -32.738,8.07 -5.859,5.402 -8.762,15.859 -8.762,31.391 z m 38.993,-95.973 H 675.184 V 315.449 H 546.977 V 209.648"
         style="fill:#4f4c4c;fill-opacity:1;fill-rule:nonzero;stroke:none"
         id="path18" />
      <path
         d="m 795.332,305.621 c 0,15.52 2.949,25.969 8.758,31.359 5.859,5.379 16.75,8.098 32.742,8.098 h 123.231 c 15.968,0 26.917,-2.719 32.738,-8.098 5.84,-5.39 8.759,-15.839 8.759,-31.359 V 217.68 c 0,-15.532 -2.919,-25.989 -8.759,-31.391 -5.821,-5.379 -16.77,-8.07 -32.738,-8.07 H 836.832 c -15.992,0 -26.883,2.691 -32.742,8.07 -5.809,5.402 -8.758,15.859 -8.758,31.391 z m 39,-95.973 H 962.531 V 315.449 H 834.332 V 209.648"
         style="fill:#4f4c4c;fill-opacity:1;fill-rule:nonzero;stroke:none"
         id="path20" />
    </g>
  </g>
</svg>
