<svg xmlns="http://www.w3.org/2000/svg" width="268.31" height="89.212"><g data-name="Group 685"><path data-name="Path 175" d="M266.416 0c.03.044.05.114.091.129A2.675 2.675 0 0 1 268.31 3a9.561 9.561 0 0 1-.748 3.427 21.92 21.92 0 0 1-2.706 4.873 48.629 48.629 0 0 1-11.6 11.465q-7.336 5.2-14.647 10.431a34.536 34.536 0 0 0-6.833 6.124 11.2 11.2 0 0 0-2.789 5.962 16.4 16.4 0 0 0 1.167 7.974 37.278 37.278 0 0 0 4.87 8.123 99.375 99.375 0 0 0 7.343 8.342 34.133 34.133 0 0 1 3.448 4.125 12.492 12.492 0 0 1 2.212 5.933 6.705 6.705 0 0 1-1.2 4.621 11.377 11.377 0 0 1-6.363 4.493c-.322.095-.7.059-.958.322h-3.341c-.078-.15-.235-.14-.373-.172a9.5 9.5 0 0 1-4.319-2.3 6.646 6.646 0 0 1-1.987-4.532 38.641 38.641 0 0 1-.115-4.857 54.88 54.88 0 0 0-.244-7.786 34.969 34.969 0 0 0-2.295-9.688 13.148 13.148 0 0 0-2.782-4.136 10.59 10.59 0 0 0-10.987-1.975 20.285 20.285 0 0 0-4.918 3.2 36.045 36.045 0 0 0-5.17 5.691 139.454 139.454 0 0 0-10.174 15.355 17.411 17.411 0 0 1-5.016 5.755 12.517 12.517 0 0 1-7.947 2.443 5.41 5.41 0 0 1-5.1-3.695 4.829 4.829 0 0 1 .507-3.653 9.99 9.99 0 0 1 2.282-2.742 66.636 66.636 0 0 1 5.765-4.523 322.214 322.214 0 0 1 6.266-4.323 42.358 42.358 0 0 0 7.04-5.918 142.805 142.805 0 0 0 11.57-13.592q.99-1.335 1.856-2.746a7.814 7.814 0 0 0 .711-6.863 14.7 14.7 0 0 0-2.007-3.71 109.011 109.011 0 0 0-10.637-13.011c-1.5-1.572-3.007-3.133-4.452-4.749a17.059 17.059 0 0 1-3.259-5.137 8.158 8.158 0 0 1-.482-4.931c.7-2.967 2.976-4.392 6.137-3.856a7.1 7.1 0 0 1 2.938 1.255 18.139 18.139 0 0 1 3.541 3.481 49.558 49.558 0 0 1 4.814 7.3c2.47 4.441 4.922 8.89 7.567 13.24a37.418 37.418 0 0 0 2.923 4.28 11.278 11.278 0 0 0 1.809 1.814 6.331 6.331 0 0 0 6.261 1.047 14.483 14.483 0 0 0 3.166-1.62 48.512 48.512 0 0 0 6.063-4.832c3.155-2.844 6.046-5.928 9-8.958q8.254-8.471 16.51-16.951A11.229 11.229 0 0 1 265.009 0z" fill="#ff6000"/></g><g data-name="Group 686"><path data-name="Path 176" d="M0 27.669c2.284-.01 4.568-.006 6.852-.037.485-.006.618.177.575.588a4.923 4.923 0 0 0 0 .5v22.041a4.054 4.054 0 0 1 0 .5c-.059.464.188.59.62.552.2-.018.409 0 .615 0h21c.234 0 .47.012.7 0 .339-.02.467.121.465.44a407.686 407.686 0 0 0 0 4.692c0 .369-.157.5-.523.476-.174-.013-.351 0-.527 0H.955a2.542 2.542 0 0 1-.955-.07z" fill="#4b4742"/></g><g data-name="Group 687"><path data-name="Path 177" d="M114.543 57.436c-3.721 0-7.443.009-11.164 0a20.491 20.491 0 0 1-4.19-.364 4.4 4.4 0 0 1-3.707-3.761 15.428 15.428 0 0 1-.271-2.919q-.016-7.838 0-15.675a12.635 12.635 0 0 1 .451-3.649 4.089 4.089 0 0 1 2.977-2.921 12.654 12.654 0 0 1 2.673-.461c.555-.037 1.113-.04 1.669-.04h23.12a16.265 16.265 0 0 1 3.407.277c2.6.554 3.7 1.654 4.115 4.164a13.54 13.54 0 0 1 .2 2.252q-.009 8.173 0 16.346a11.264 11.264 0 0 1-.5 3.471 4.016 4.016 0 0 1-2.838 2.736 15.936 15.936 0 0 1-4.69.541c-3.751.015-7.5.005-11.253.005m-.063-24.526h-11.253c-.686 0-.7.012-.7.633q-.005 8.8 0 17.607c0 .646.014.647.669.66h22.595c.691 0 .708-.011.709-.626q.007-8.8 0-17.607c0-.649-.016-.65-.676-.666H114.48" fill="#4b4742"/></g><g data-name="Group 688"><path data-name="Path 178" d="M168.305 57.436c-3.721 0-7.443.009-11.165-.005a19.413 19.413 0 0 1-4.274-.39 4.315 4.315 0 0 1-3.545-3.515 14.031 14.031 0 0 1-.327-3q-.009-8.006 0-16.012a12.114 12.114 0 0 1 .468-3.478 4.068 4.068 0 0 1 2.994-2.9 12.531 12.531 0 0 1 2.761-.459c.673-.034 1.347-.034 2.021-.034h22.418a21.393 21.393 0 0 1 3.241.2c2.8.429 4.123 1.678 4.536 4.354a15.625 15.625 0 0 1 .192 2.421q-.014 7.922 0 15.844a12.2 12.2 0 0 1-.493 3.642 4.033 4.033 0 0 1-2.879 2.8 16.417 16.417 0 0 1-4.778.534c-3.722.017-7.444.005-11.165.005m.001-5.631h10.9c.2 0 .411-.012.615 0 .347.023.475-.135.456-.448-.011-.167 0-.335 0-.5v-17.02c0-.168-.01-.336 0-.5.02-.33-.151-.451-.479-.432-.175.01-.352 0-.528 0H157.3c-.176 0-.353.01-.528 0-.347-.021-.475.141-.454.454.01.138 0 .279 0 .419v17.686c0 .249.14.344.386.339h11.607" fill="#4b4742"/></g><g data-name="Group 689"><path data-name="Path 179" d="M60.714 57.419H49.462a18.224 18.224 0 0 1-4.187-.382 4.265 4.265 0 0 1-3.469-3.28 12.51 12.51 0 0 1-.358-3.071q-.008-8.131 0-16.262a11.669 11.669 0 0 1 .413-3.317 4.1 4.1 0 0 1 3.034-2.972 12.129 12.129 0 0 1 2.849-.458c1.054-.034 2.109-.031 3.164-.031h21.361a16.111 16.111 0 0 1 3.578.308c2.5.565 3.573 1.666 3.983 4.09a14.4 14.4 0 0 1 .2 2.419q-.007 8.09 0 16.178a11.085 11.085 0 0 1-.539 3.631 3.921 3.921 0 0 1-2.667 2.575 11.089 11.089 0 0 1-3.01.525c-2.929.1-5.859.028-8.789.046-1.436.009-2.872 0-4.307 0m-.05-5.606h11.151c1.009 0 .932.077.932-.918V33.807c0-.971.064-.9-.959-.9H49.658c-1.027 0-.928-.045-.929.923v17.087c0 .167.008.335 0 .5-.014.291.141.4.427.39.2-.006.409 0 .615 0h10.893" fill="#4b4742"/></g></svg>