<?xml version="1.0" encoding="utf-8"?>
<!-- Generator: Adobe Illustrator 14.0.0, SVG Export Plug-In . SVG Version: 6.00 Build 43363)  -->
<!DOCTYPE svg PUBLIC "-//W3C//DTD SVG 1.1//EN" "http://www.w3.org/Graphics/SVG/1.1/DTD/svg11.dtd">
<svg version="1.1"
	 id="Layer_1" xmlns:rdf="http://www.w3.org/1999/02/22-rdf-syntax-ns#" xmlns:dc="http://purl.org/dc/elements/1.1/" xmlns:svg="http://www.w3.org/2000/svg" xmlns:cc="http://creativecommons.org/ns#"
	 xmlns="http://www.w3.org/2000/svg" xmlns:xlink="http://www.w3.org/1999/xlink" x="0px" y="0px" width="500px" height="74.195px"
	 viewBox="0 0 500 74.195" enable-background="new 0 0 500 74.195" xml:space="preserve">
<g id="g10" transform="matrix(1.25,0,0,-1.25,0,74.194997)">
	<path id="path14" fill="#FB263B" d="M16.938,57.732L0,29.116L16.938,0.503h15.352l5.217,8.48l-5.5,8.863h-4.619l-6.665,11.261
		l6.665,11.269h4.844l-5.382,8.663l5.352,8.694H16.938z"/>
	<path id="path18" fill="#7D7779" d="M36.047,57.732l-5.348-8.691l5.381-8.666h4.645l6.667-11.269l-6.667-11.261H35.85l5.505-8.863
		l-5.22-8.48h14.679l16.938,28.616L50.815,57.732H36.047z"/>
	<path id="path22" fill="#FB263B" d="M79.231,58.371V1.423h39.619v18.28h-18.08v38.669H79.231z"/>
	<path id="path76" fill="#FB263B" d="M156.87,40.435c6.718,0,10.89-5.112,10.89-11.213c0-6.561-4.48-11.066-10.89-11.066
		c-6.407,0-10.887,4.505-10.887,11.066C145.983,35.323,150.154,40.435,156.87,40.435 M156.87,59.356
		c-17.68,0-32.195-11.751-32.195-29.831C124.674,11.061,139.111,0,156.87,0c17.759,0,32.198,11.061,32.198,29.525
		C189.068,47.605,174.553,59.356,156.87,59.356"/>
	<path id="path80" fill="#FB263B" d="M250.346,58.441l-18.221-26.933l20.768-30.596h-24.088l-6.637,12.208
		c-0.619,1.147-1.008,2.289-1.241,3.509h-0.616c-0.384-1.372-0.925-2.67-1.62-3.964l-6.488-11.753h-24.087l20.387,30.596
		L190.2,58.441h23.858l4.326-8.163c0.846-1.526,1.311-3.128,1.773-4.732h0.465c0.389,1.68,1.081,3.206,1.852,4.732l4.015,8.163
		H250.346z"/>
	<path id="path84" fill="#FB263B" d="M282.565,21.741l3.86,17.552h0.773c0.384-2.445,0.773-4.959,1.39-7.402l2.468-10.149H282.565
		L282.565,21.741z M278.783,8.085h15.98l1.933-7.173h22.391l-20.771,57.529h-23.391L254.692,0.912h22.39L278.783,8.085
		L278.783,8.085z"/>
	<path id="path130" fill="#FB263B" d="M330.513,58.441h21.768l8.032-30.212h0.544c0.384,2.52,0.77,5.187,1.462,7.628l6.566,22.584
		h21.541L400,0.912h-20.463l-2.858,31.513h-0.384c-0.386-1.908-0.773-3.894-1.387-5.725L366.49,0.912h-12.352l-7.566,24.341
		c-0.62,2.441-1.16,4.73-1.312,7.173h-0.697c-0.152-2.289-0.309-4.656-0.538-6.943l-2.471-24.57h-20.46L330.513,58.441
		L330.513,58.441z"/>
</g>
</svg>
