<?xml version="1.0" encoding="UTF-8" standalone="no"?>
<!-- Created with Inkscape (http://www.inkscape.org/) -->

<svg
   version="1.1"
   id="svg2"
   width="312.01334"
   height="98.73333"
   viewBox="0 0 312.01334 98.73333"
   sodipodi:docname="Logo-Luijendijk-liggend-fc.eps"
   xmlns:inkscape="http://www.inkscape.org/namespaces/inkscape"
   xmlns:sodipodi="http://sodipodi.sourceforge.net/DTD/sodipodi-0.dtd"
   xmlns="http://www.w3.org/2000/svg"
   xmlns:svg="http://www.w3.org/2000/svg">
  <defs
     id="defs6" />
  <sodipodi:namedview
     id="namedview4"
     pagecolor="#ffffff"
     bordercolor="#000000"
     borderopacity="0.25"
     inkscape:showpageshadow="2"
     inkscape:pageopacity="0.0"
     inkscape:pagecheckerboard="0"
     inkscape:deskcolor="#d1d1d1" />
  <g
     id="g8"
     inkscape:groupmode="layer"
     inkscape:label="ink_ext_XXXXXX"
     transform="matrix(1.3333333,0,0,-1.3333333,0,98.733333)">
    <g
       id="g10"
       transform="scale(0.1)">
      <path
         d="m 489.188,650.605 c -3.922,6.665 -9.825,12.641 -17.45,17.543 l -88.554,56.836 c -15.34,9.848 -37.075,15.493 -59.629,15.493 -22.567,0 -44.289,-5.645 -59.629,-15.493 l -88.555,-56.836 c -7.625,-4.902 -13.527,-10.878 -17.449,-17.543 l 165.633,-99.164 165.633,99.164"
         style="fill:#f6833d;fill-opacity:1;fill-rule:nonzero;stroke:none"
         id="path12" />
      <path
         d="m 42.1367,674.777 c -8.2304,4.93 -16.0117,7.539 -22.4922,7.539 C 1.91016,682.316 0,660.344 0,650.891 V 357.719 L 285.855,528.859 42.1367,674.777"
         style="fill:#a3d726;fill-opacity:1;fill-rule:nonzero;stroke:none"
         id="path14" />
      <path
         d="M 152.559,403.906 V 131.422 h 38.953 v 0 h 84.144 v 38.949 H 191.512 V 427.23 l 413.457,247.547 c 8.234,4.93 16.015,7.539 22.496,7.539 17.734,0 19.644,-21.972 19.644,-31.418 V 329.863 C 647.109,161.125 520.371,15.8203 352.266,1.24609 164.691,-15.0117 6.24609,129.875 0.183594,312.676"
         style="fill:#53675a;fill-opacity:1;fill-rule:nonzero;stroke:none"
         id="path16" />
      <path
         d="m 442.496,322.676 c 10.067,-3.5 19.188,-8.465 27.356,-14.879 v 98.906 h 38.949 V 131.422 h -38.949 v 98.469 c 0,8.168 -1.536,15.824 -4.598,22.98 -3.063,7.145 -7.293,13.418 -12.691,18.817 -5.399,5.398 -11.668,9.628 -18.821,12.695 -7.148,3.062 -14.808,4.594 -22.976,4.594 -8.164,0 -15.899,-1.532 -23.2,-4.594 -7.285,-3.067 -13.632,-7.297 -19.035,-12.695 -5.398,-5.399 -9.629,-11.672 -12.691,-18.817 -3.063,-7.156 -4.598,-14.812 -4.598,-22.98 v -98.469 h -38.953 v 98.469 c 0,13.714 2.563,26.48 7.66,38.297 5.11,11.816 12.188,22.171 21.227,31.074 9.047,8.898 19.476,15.898 31.293,21.008 11.816,5.101 24.586,7.66 38.297,7.66 11.089,0 21.66,-1.75 31.73,-5.254"
         style="fill:#ffffff;fill-opacity:1;fill-rule:nonzero;stroke:none"
         id="path18" />
      <path
         d="m 804.055,510.137 h 37.808 V 395.313 h 43.809 v -33.208 h -81.617 v 148.032"
         style="fill:#706d6e;fill-opacity:1;fill-rule:nonzero;stroke:none"
         id="path20" />
      <path
         d="m 978.461,510.137 v -89.418 c 0,-10.008 0.598,-28.211 19.203,-28.211 18.806,0 18.806,16.406 18.806,28.211 v 89.418 h 37.8 v -89.418 c 0,-24.805 -5.4,-35.813 -14.79,-45.41 -9.61,-9.805 -23.01,-16.008 -41.417,-16.008 -10.801,0 -30.403,2.601 -42.606,15.804 -12.203,13.407 -14.805,23.805 -14.805,45.614 v 89.418 h 37.809"
         style="fill:#706d6e;fill-opacity:1;fill-rule:nonzero;stroke:none"
         id="path22" />
      <path
         d="m 1121.25,510.137 h 37.81 V 362.105 h -37.81 v 148.032"
         style="fill:#706d6e;fill-opacity:1;fill-rule:nonzero;stroke:none"
         id="path24" />
      <path
         d="m 1315.07,510.137 v -89.418 c 0,-25.207 -2.8,-34.012 -9.2,-42.012 -10,-13.004 -26.8,-19.406 -41.81,-19.406 -3.6,0 -49.61,0 -49.81,50.414 h 40.21 c 0.4,-6.801 1.4,-17.207 11.4,-17.207 11.4,0 11.4,12.004 11.4,18.805 v 98.824 h 37.81"
         style="fill:#706d6e;fill-opacity:1;fill-rule:nonzero;stroke:none"
         id="path26" />
      <path
         d="m 1382.65,510.137 h 82.22 V 476.93 h -46.01 v -23.004 h 44.6 v -33.207 h -44.6 v -25.406 h 46.01 v -33.208 h -82.22 v 148.032"
         style="fill:#706d6e;fill-opacity:1;fill-rule:nonzero;stroke:none"
         id="path28" />
      <path
         d="m 1528.85,510.137 h 32.6 l 57.21,-93.024 0.41,0.403 -1.61,92.621 h 36.21 V 362.105 h -32.8 l -56.42,90.016 -0.4,-0.199 1,-89.817 h -36.2 v 148.032"
         style="fill:#706d6e;fill-opacity:1;fill-rule:nonzero;stroke:none"
         id="path30" />
      <path
         d="m 1757.05,395.313 h 16.2 c 28.21,0 36.21,19.601 36.21,40.605 0,8.402 -1.8,19.008 -7.2,27.406 -4.4,6.602 -12,13.606 -28.81,13.606 h -16.4 z m -37.81,114.824 h 49.01 c 16.61,0 46.21,0 65.41,-27.61 10.21,-14.004 13.61,-29.804 13.61,-46.007 0,-40.407 -20.01,-74.415 -76.22,-74.415 h -51.81 v 148.032"
         style="fill:#706d6e;fill-opacity:1;fill-rule:nonzero;stroke:none"
         id="path32" />
      <path
         d="m 1910.24,510.137 h 37.81 V 362.105 h -37.81 v 148.032"
         style="fill:#706d6e;fill-opacity:1;fill-rule:nonzero;stroke:none"
         id="path34" />
      <path
         d="m 2104.06,510.137 v -89.418 c 0,-25.207 -2.8,-34.012 -9.2,-42.012 -10,-13.004 -26.81,-19.406 -41.81,-19.406 -3.6,0 -49.61,0 -49.81,50.414 h 40.21 c 0.4,-6.801 1.4,-17.207 11.4,-17.207 11.4,0 11.4,12.004 11.4,18.805 v 98.824 h 37.81"
         style="fill:#706d6e;fill-opacity:1;fill-rule:nonzero;stroke:none"
         id="path36" />
      <path
         d="m 2175.64,510.137 h 37.8 V 443.52 h 0.41 l 41.81,66.617 h 39.61 l -49.02,-73.821 52.21,-74.211 h -44.2 l -40.41,64.012 h -0.41 v -64.012 h -37.8 v 148.032"
         style="fill:#706d6e;fill-opacity:1;fill-rule:nonzero;stroke:none"
         id="path38" />
      <path
         d="m 893.855,132.105 v 148.032 h 6 V 209.32 h 82.817 v 70.817 h 6.004 V 132.105 h -6.004 v 71.817 h -82.817 v -71.817 h -6"
         style="fill:#231f20;fill-opacity:1;fill-rule:nonzero;stroke:none"
         id="path40" />
      <path
         d="m 1058.86,205.918 c 0,-40.805 31.6,-71.012 70.81,-71.012 39.21,0 70.82,30.207 70.82,71.211 0,41.012 -31.61,71.215 -70.82,71.215 -39.21,0 -70.81,-30.203 -70.81,-71.215 z m -6.01,0.398 c 0,44.215 34.41,76.418 76.82,76.418 42.41,0 76.82,-32.203 76.82,-76.617 0,-44.41 -34.41,-76.617 -76.82,-76.617 -42.41,0 -76.82,32.207 -76.82,76.617 v 0.199"
         style="fill:#231f20;fill-opacity:1;fill-rule:nonzero;stroke:none"
         id="path42" />
      <path
         d="m 1246.86,280.137 h 6.8 l 58.41,-138.032 58.61,138.032 h 6.6 l -63.21,-148.032 h -4.2 l -63.01,148.032"
         style="fill:#231f20;fill-opacity:1;fill-rule:nonzero;stroke:none"
         id="path44" />
      <path
         d="m 1434.66,280.137 h 81.21 v -5.403 h -75.21 V 209.32 h 75.21 v -5.398 h -75.21 v -66.418 h 75.21 v -5.399 h -81.21 v 148.032"
         style="fill:#231f20;fill-opacity:1;fill-rule:nonzero;stroke:none"
         id="path46" />
      <path
         d="m 1695.48,140.105 v 140.032 h 6 V 132.105 h -7.6 L 1590.66,274.137 V 132.105 h -6 v 148.032 h 9 l 101.82,-140.032"
         style="fill:#231f20;fill-opacity:1;fill-rule:nonzero;stroke:none"
         id="path48" />
      <path
         d="m 1772.86,280.137 h 6 V 132.105 h -6 v 148.032"
         style="fill:#231f20;fill-opacity:1;fill-rule:nonzero;stroke:none"
         id="path50" />
      <path
         d="m 1850.45,280.137 h 81.22 v -5.403 h -75.22 V 209.32 h 75.22 v -5.398 h -75.22 v -66.418 h 75.22 v -5.399 h -81.22 v 148.032"
         style="fill:#231f20;fill-opacity:1;fill-rule:nonzero;stroke:none"
         id="path52" />
      <path
         d="m 1998.45,280.137 h 33.81 c 23,0 32.21,-2.004 39.4,-6.203 12.01,-6 21.41,-22.207 21.41,-39.407 0.4,-9.207 -2.4,-20.808 -9.4,-30.007 -10.81,-14.204 -23.21,-16.004 -40.01,-16.606 l 39.81,-55.809 h -7.6 l -43.41,61.211 h 4.2 c 10.8,0 28.41,0 37.81,9.403 9.4,9.801 12.6,20.004 12.6,31.605 0,12.805 -6.2,27.008 -17.6,34.41 -9.01,5.801 -19.81,6 -37.21,6 h -27.81 V 132.105 h -6 v 148.032"
         style="fill:#231f20;fill-opacity:1;fill-rule:nonzero;stroke:none"
         id="path54" />
      <path
         d="m 2151.44,169.512 c 3.6,-28.403 25.21,-34.606 36.61,-34.606 18.6,0 37.21,14 37.21,35.207 0,27.207 -23.61,32.805 -37.81,36.606 -13,3.203 -38.81,9.402 -38.81,37.406 -0.6,24.609 18.8,38.609 40.21,38.609 17.4,0 35.01,-10.199 38.21,-34.406 h -6 c -2.2,11.805 -8.81,29.004 -32.61,29.004 -18.8,0 -33.81,-12.801 -33.81,-32.207 -0.2,-23.602 19.41,-29.402 39.81,-34.602 7.2,-2.003 36.81,-7.402 36.81,-39.609 0,-24.406 -21.01,-41.414 -43.01,-41.414 -17.8,0 -40.81,12.008 -42.81,40.012 h 6"
         style="fill:#231f20;fill-opacity:1;fill-rule:nonzero;stroke:none"
         id="path56" />
      <path
         d="m 152.559,131.422 v 272.484 l 38.953,23.324 V 170.371 h 84.144 V 131.422 H 152.559"
         style="fill:#ffffff;fill-opacity:1;fill-rule:nonzero;stroke:none"
         id="path58" />
    </g>
  </g>
</svg>
