<?xml version="1.0" encoding="utf-8"?>
<!-- Generator: Adobe Illustrator 14.0.0, SVG Export Plug-In  -->
<!DOCTYPE svg PUBLIC "-//W3C//DTD SVG 1.1//EN" "http://www.w3.org/Graphics/SVG/1.1/DTD/svg11.dtd" [
	<!ENTITY ns_flows "http://ns.adobe.com/Flows/1.0/">
]>
<svg version="1.1"
	 xmlns="http://www.w3.org/2000/svg" xmlns:xlink="http://www.w3.org/1999/xlink" xmlns:a="http://ns.adobe.com/AdobeSVGViewerExtensions/3.0/"
	 x="0px" y="0px" width="396px" height="218px" viewBox="-6.485 -8.701 396 218" enable-background="new -6.485 -8.701 396 218"
	 xml:space="preserve">
<defs>
</defs>
<path fill="#0790C8" d="M165.718,41.564V0h-40.796C142.641,9.021,157.021,23.657,165.718,41.564z"/>
<path fill="#0790C8" d="M0,118.146v47.571h48.582C26.901,156.713,9.446,139.593,0,118.146z"/>
<path fill="#0790C8" d="M42.214,0H0v44.637C8.502,25.332,23.493,9.531,42.214,0z"/>
<path fill="#003876" d="M75.934,73.967h66.909c-3.658-29.492-28.791-52.324-59.274-52.324c-32.999,0-59.749,26.75-59.749,59.749
	c0,30.41,22.724,55.496,52.114,59.247V73.967z"/>
<path fill="#003876" d="M232.531,204.36l-17.537-109.6h-28.576L170.83,142.66c-2.598,8.443-4.547,15.263-6.17,24.03h-0.324
	c-1.625-8.605-3.41-16.237-5.846-23.868l-15.264-48.062h-29.064l-17.535,109.6h25.492l5.52-42.865
	c1.137-9.093,2.273-17.536,3.248-27.766h0.162c1.461,9.742,4.223,20.296,7.145,29.714l12.99,40.917h24.355l13.477-44.814
	c2.76-9.417,4.709-17.698,6.332-25.816h0.324c0.813,8.443,1.787,16.562,3.248,25.492l6.982,45.139H232.531L232.531,204.36z"/>
<polygon fill="#003876" points="307.433,116.355 307.433,94.761 247.031,94.761 247.031,204.36 272.361,204.36 272.361,160.521 
	305.484,160.521 305.484,139.737 272.361,139.737 272.361,116.355 307.433,116.355 "/>
<polygon fill="#003876" points="383.89,204.36 383.89,182.604 347.519,182.604 347.519,158.41 381.941,158.41 381.941,137.789 
	347.519,137.789 347.519,116.031 383.89,116.031 383.89,94.761 322.189,94.761 322.189,204.36 383.89,204.36 "/>
</svg>
