<?xml version="1.0" encoding="UTF-8" standalone="no"?>
<!-- Created with Inkscape (http://www.inkscape.org/) -->

<svg
   version="1.1"
   id="svg2"
   width="378.64001"
   height="99.73333"
   viewBox="0 0 378.64001 99.73333"
   sodipodi:docname="oaxliving_cmyk_noadd_noline.eps"
   xmlns:inkscape="http://www.inkscape.org/namespaces/inkscape"
   xmlns:sodipodi="http://sodipodi.sourceforge.net/DTD/sodipodi-0.dtd"
   xmlns="http://www.w3.org/2000/svg"
   xmlns:svg="http://www.w3.org/2000/svg">
  <defs
     id="defs6" />
  <sodipodi:namedview
     id="namedview4"
     pagecolor="#ffffff"
     bordercolor="#000000"
     borderopacity="0.25"
     inkscape:showpageshadow="2"
     inkscape:pageopacity="0.0"
     inkscape:pagecheckerboard="0"
     inkscape:deskcolor="#d1d1d1" />
  <g
     id="g8"
     inkscape:groupmode="layer"
     inkscape:label="ink_ext_XXXXXX"
     transform="matrix(1.3333333,0,0,-1.3333333,0,99.733333)">
    <g
       id="g10"
       transform="scale(0.1)">
      <path
         d="m 1333.57,729.578 c -16.53,-16.531 -174.59,-187.703 -174.59,-187.703 -57.6,-59.996 -97.22,-91.949 -125.4,-91.949 -0.6,0 -1.18,0.015 -1.77,0.043 -27.19,1.32 -43.494,18.629 -71.462,67.515 -34.453,60.149 -57.285,107.223 -74.594,136.286 -30.606,47.914 -54.383,71.855 -80.094,71.855 -17.367,0 -30.152,-4.777 -36.863,-17.086 -9.387,-17.309 -19.719,-54.051 35.711,-113.66 47.18,-50.805 74.312,-85.195 86.082,-102.504 29.824,-42.406 50.531,-66.031 39.933,-107.18 C 923.199,357.078 826.145,238.91 791.93,209.414 771.555,188.977 709.578,152.664 662.715,108.945 617.676,66.7969 648.387,25.3359 685.293,25.3359 c 62.469,0 93.777,55.5938 101.309,69.8789 27.191,51.6872 75.031,122.1212 96.23,147.9762 37.465,45.653 71.137,60.821 92.461,60.821 31.267,0 79.367,-9.879 95.687,-102.282 19.17,-87.949 -6.42,-149.6987 23.24,-179.3589 C 1110.12,6.46875 1128.23,0 1145.88,0 c 42.42,0 82.22,37.3438 82.22,70.9258 0,59.5512 -45.93,86.3042 -95.37,150.7342 -54.6,71.153 -60.2,110.801 -57.4,145.914 2.14,25.918 19.49,58.934 75.48,101.231 69.71,52.797 109.75,79.945 146.01,110.758 24.5,20.812 42.68,41.804 65.36,73.757 24.99,35.215 38.41,80.375 17.58,91.965 -3.34,1.887 -6.93,2.695 -10.6,2.695 -13.66,0 -28.35,-11.125 -35.59,-18.402"
         style="fill:#9abd99;fill-opacity:1;fill-rule:nonzero;stroke:none"
         id="path12" />
      <path
         d="M 60.2148,300.785 H 258.73 V 464.539 H 60.2148 Z M 0,449.609 c 0,23.5 4.41016,39.571 13.2188,48.219 8.8085,8.649 25.7851,12.977 50.914,12.977 H 254.57 c 25.129,0 42.098,-4.328 50.914,-12.977 8.813,-8.648 13.219,-24.719 13.219,-48.219 V 313.266 c 0,-23.664 -4.406,-39.77 -13.219,-48.34 -8.816,-8.567 -25.785,-12.852 -50.914,-12.852 H 64.1328 c -25.1289,0 -42.1055,4.285 -50.914,12.852 C 4.41016,273.496 0,289.602 0,313.266 v 136.343"
         style="fill:#4f4c4c;fill-opacity:1;fill-rule:nonzero;stroke:none"
         id="path14" />
      <path
         d="m 503.023,355.371 h 113.329 l -55.805,105.25 z M 387.246,252.074 533.621,510.805 h 58.012 L 739.969,252.074 H 672.406 L 641.32,308.617 H 477.316 l -30.105,-56.543 h -59.965"
         style="fill:#4f4c4c;fill-opacity:1;fill-rule:nonzero;stroke:none"
         id="path16" />
      <path
         d="m 1339.33,252.066 v 211.981 h 52.13 V 291.723 h 166.21 v -39.657 h -218.34"
         style="fill:#4f4c4c;fill-opacity:1;fill-rule:nonzero;stroke:none"
         id="path18" />
      <path
         d="m 1615.92,252.066 v 211.981 h 51.41 V 252.066 h -51.41"
         style="fill:#4f4c4c;fill-opacity:1;fill-rule:nonzero;stroke:none"
         id="path20" />
      <path
         d="m 1860.94,252.066 -128.26,211.981 h 58.51 l 89.83,-153.723 84.69,153.723 h 53.6 L 1896.44,252.066 h -35.5"
         style="fill:#4f4c4c;fill-opacity:1;fill-rule:nonzero;stroke:none"
         id="path22" />
      <path
         d="m 2078.55,252.066 v 211.981 h 51.41 V 252.066 h -51.41"
         style="fill:#4f4c4c;fill-opacity:1;fill-rule:nonzero;stroke:none"
         id="path24" />
      <path
         d="m 2224.44,252.066 v 211.981 h 35.5 l 179.91,-140.75 v 140.75 h 46.75 V 252.066 h -35.74 l -179.42,142.95 v -142.95 h -47"
         style="fill:#4f4c4c;fill-opacity:1;fill-rule:nonzero;stroke:none"
         id="path26" />
      <path
         d="m 2789.14,425.125 h -161.3 V 292.703 h 161.3 v 45.039 h -84.2 v 37.696 H 2839.8 V 302.25 c 0,-19.426 -3.79,-32.645 -11.37,-39.656 -7.6,-7.02 -22.15,-10.528 -43.69,-10.528 h -153.48 c -21.54,0 -36.1,3.508 -43.69,10.528 -7.59,7.011 -11.38,20.23 -11.38,39.656 v 111.859 c 0,19.254 3.79,32.391 11.38,39.411 7.59,7.015 22.15,10.527 43.69,10.527 h 153.48 c 21.37,0 35.9,-3.43 43.56,-10.281 7.67,-6.856 11.5,-19.258 11.5,-37.207 v -5.629 l -50.66,-8.571 v 22.766"
         style="fill:#4f4c4c;fill-opacity:1;fill-rule:nonzero;stroke:none"
         id="path28" />
    </g>
  </g>
</svg>
