<?xml version="1.0" encoding="utf-8"?>
<!-- Generator: Adobe Illustrator 14.0.0, SVG Export Plug-In  -->
<!DOCTYPE svg PUBLIC "-//W3C//DTD SVG 1.1//EN" "http://www.w3.org/Graphics/SVG/1.1/DTD/svg11.dtd" [
	<!ENTITY ns_flows "http://ns.adobe.com/Flows/1.0/">
]>
<svg version="1.1"
	 xmlns="http://www.w3.org/2000/svg" xmlns:xlink="http://www.w3.org/1999/xlink" xmlns:a="http://ns.adobe.com/AdobeSVGViewerExtensions/3.0/"
	 x="0px" y="0px" width="251px" height="140px" viewBox="0 -2.346 251 140" enable-background="new 0 -2.346 251 140"
	 xml:space="preserve">
<defs>
</defs>
<g>
	<defs>
		<rect id="SVGID_13_" y="88.817" width="255.119" height="49.32"/>
	</defs>
	<clipPath id="SVGID_14_">
		<use xlink:href="#SVGID_13_"  overflow="visible"/>
	</clipPath>
	<g clip-path="url(#SVGID_14_)">
		<path fill="#010101" d="M59.275,92.125h0.904l0.096,0.322h5.389l0.117-0.322h0.911l1.187,3.353l-1.275,0.445
			c-0.283-0.557-0.486-0.92-0.61-1.09c-0.242-0.333-0.521-0.596-0.837-0.788c-0.236-0.146-0.473-0.22-0.705-0.22
			c-0.109,0-0.186,0.026-0.227,0.079c-0.041,0.052-0.062,0.172-0.062,0.36v5.498c0,0.325,0.011,0.528,0.034,0.61
			c0.023,0.083,0.063,0.147,0.117,0.196c0.055,0.048,0.131,0.08,0.228,0.096s0.354,0.024,0.772,0.024v1.323h-4.668v-1.323h0.282
			c0.313,0,0.513-0.019,0.601-0.058c0.087-0.039,0.153-0.107,0.199-0.206c0.047-0.098,0.069-0.303,0.069-0.614v-5.622
			c0-0.16-0.019-0.26-0.056-0.301c-0.036-0.042-0.113-0.062-0.232-0.062c-0.238,0-0.503,0.089-0.795,0.268
			c-0.293,0.178-0.553,0.43-0.781,0.754c-0.092,0.128-0.286,0.487-0.584,1.076l-1.254-0.445L59.275,92.125z"/>
		<path fill="#010101" d="M74.63,99.475l0.939,0.946c-0.539,0.617-1.089,1.063-1.648,1.34c-0.561,0.276-1.165,0.415-1.813,0.415
			c-1.042,0-1.92-0.353-2.633-1.059s-1.069-1.56-1.069-2.561c0-0.658,0.16-1.26,0.48-1.807c0.319-0.546,0.763-0.973,1.329-1.282
			c0.567-0.309,1.209-0.463,1.927-0.463c0.457,0,0.873,0.066,1.248,0.199c0.374,0.133,0.702,0.322,0.983,0.569
			c0.28,0.247,0.507,0.545,0.679,0.895s0.289,0.712,0.354,1.086c0.027,0.188,0.041,0.484,0.041,0.891h-4.614
			c0.009,0.581,0.179,1.05,0.511,1.409c0.332,0.358,0.736,0.538,1.217,0.538c0.307,0,0.64-0.093,1.001-0.278
			C73.921,100.129,74.279,99.85,74.63,99.475z M73.259,97.494c-0.032-0.274-0.098-0.49-0.195-0.648
			c-0.1-0.158-0.232-0.283-0.399-0.377s-0.343-0.141-0.526-0.141c-0.192,0-0.378,0.048-0.557,0.144
			c-0.179,0.096-0.322,0.226-0.43,0.391s-0.178,0.375-0.209,0.631H73.259z"/>
		<path fill="#010101" d="M79.656,91.947v8.021c0,0.27,0.012,0.43,0.034,0.48c0.032,0.091,0.103,0.158,0.212,0.199
			c0.069,0.027,0.254,0.041,0.557,0.041h0.239v1.323h-4.243v-1.323h0.26c0.274,0,0.451-0.017,0.528-0.051s0.135-0.089,0.171-0.165
			c0.037-0.075,0.055-0.243,0.055-0.504v-6.115h-1.014V92.53c0.818-0.056,1.663-0.25,2.536-0.583H79.656z"/>
		<path fill="#010101" d="M83.255,99.571c0.352,0,0.652,0.125,0.901,0.374s0.374,0.55,0.374,0.901c0,0.352-0.125,0.652-0.374,0.901
			c-0.249,0.25-0.55,0.374-0.901,0.374c-0.356,0-0.659-0.125-0.908-0.374c-0.25-0.249-0.374-0.549-0.374-0.901
			c0-0.352,0.124-0.652,0.374-0.901C82.596,99.695,82.899,99.571,83.255,99.571z"/>
		<path fill="#010101" d="M95.011,92.283c0.85,0,1.582,0.187,2.197,0.559c0.615,0.372,1.096,0.907,1.443,1.604
			s0.521,1.585,0.521,2.663c0,1.216-0.159,2.153-0.479,2.811c-0.361,0.745-0.85,1.307-1.464,1.687s-1.37,0.569-2.266,0.569
			c-0.873,0-1.61-0.184-2.211-0.552c-0.601-0.368-1.077-0.912-1.429-1.632c-0.353-0.72-0.528-1.637-0.528-2.752
			c0-1.12,0.175-2.035,0.524-2.746c0.35-0.71,0.835-1.257,1.457-1.638C93.398,92.474,94.143,92.283,95.011,92.283z M96.794,97.233
			c0-1.25-0.186-2.155-0.557-2.716c-0.328-0.488-0.76-0.732-1.295-0.732c-0.494,0-0.908,0.258-1.244,0.773
			c-0.336,0.516-0.504,1.407-0.504,2.675s0.169,2.159,0.508,2.672c0.338,0.513,0.763,0.77,1.274,0.77
			c0.517,0,0.948-0.263,1.296-0.79S96.794,98.474,96.794,97.233z"/>
		<path fill="#010101" d="M100.955,97.692l0.254-5.245h4.826c0.301,0,0.494-0.024,0.579-0.072c0.085-0.048,0.134-0.134,0.147-0.257
			h0.918v2.386h-4.997l-0.062,1.227c0.558-0.059,1.063-0.089,1.516-0.089c0.936,0,1.718,0.137,2.344,0.411
			c0.626,0.274,1.09,0.642,1.392,1.104c0.302,0.461,0.452,1.001,0.452,1.618c0,1.074-0.434,1.926-1.303,2.557
			c-0.776,0.562-1.721,0.843-2.83,0.843c-0.74,0-1.408-0.127-2.002-0.38c-0.595-0.254-1.037-0.57-1.327-0.95
			s-0.435-0.761-0.435-1.145c0-0.306,0.104-0.563,0.312-0.771s0.462-0.312,0.765-0.312c0.215,0,0.411,0.06,0.59,0.178
			c0.178,0.119,0.333,0.318,0.465,0.597c0.188,0.384,0.361,0.662,0.521,0.833s0.348,0.303,0.563,0.394s0.455,0.137,0.72,0.137
			c0.352,0,0.667-0.07,0.946-0.209c0.278-0.139,0.488-0.329,0.631-0.569c0.141-0.24,0.212-0.515,0.212-0.826
			c0-0.525-0.222-0.953-0.665-1.282s-1.143-0.494-2.098-0.494C102.539,97.377,101.727,97.482,100.955,97.692z"/>
		<path fill="#010101" d="M110.339,92.153h0.904l0.096,0.295h6.396v1.323c-0.607,0.589-1.098,1.145-1.471,1.666
			s-0.717,1.13-1.035,1.827c-0.317,0.697-0.555,1.351-0.709,1.961c-0.156,0.61-0.295,1.539-0.418,2.787h-2.462
			c0.11-1.13,0.295-2.071,0.556-2.824c0.26-0.752,0.679-1.567,1.254-2.443c0.576-0.876,1.184-1.623,1.824-2.24h-3.119
			c-0.398,0-0.658,0.023-0.781,0.069c-0.124,0.045-0.223,0.119-0.295,0.22c-0.074,0.101-0.156,0.327-0.247,0.679l-0.144,0.556
			l-1.311-0.308L110.339,92.153z"/>
		<path fill="#010101" d="M120.525,95.526h-1.418c-0.005-0.105-0.008-0.192-0.008-0.26c0-0.59,0.135-1.098,0.402-1.525
			s0.686-0.777,1.256-1.049c0.568-0.272,1.22-0.408,1.951-0.408c0.695,0,1.32,0.123,1.874,0.367
			c0.554,0.245,0.966,0.559,1.238,0.943s0.409,0.779,0.409,1.186c0,0.32-0.086,0.634-0.254,0.942
			c-0.17,0.309-0.398,0.57-0.686,0.785c-0.192,0.142-0.479,0.286-0.857,0.432c0.343,0.037,0.648,0.12,0.918,0.25
			c0.271,0.13,0.504,0.295,0.703,0.494s0.348,0.424,0.445,0.675c0.099,0.251,0.148,0.523,0.148,0.815
			c0,0.526-0.156,1.017-0.467,1.474c-0.312,0.457-0.773,0.826-1.387,1.107c-0.612,0.281-1.324,0.421-2.133,0.421
			c-0.792,0-1.496-0.133-2.113-0.397c-0.618-0.265-1.082-0.601-1.394-1.008s-0.466-0.812-0.466-1.213
			c0-0.306,0.109-0.569,0.328-0.789c0.221-0.219,0.486-0.329,0.797-0.329c0.297,0,0.561,0.103,0.789,0.309
			c0.146,0.133,0.272,0.359,0.378,0.679c0.132,0.416,0.253,0.691,0.36,0.826s0.282,0.255,0.525,0.36
			c0.242,0.105,0.489,0.158,0.74,0.158c0.293,0,0.576-0.071,0.848-0.212c0.273-0.142,0.473-0.321,0.602-0.539
			c0.128-0.217,0.191-0.479,0.191-0.785c0-0.562-0.217-0.976-0.65-1.241c-0.334-0.206-0.854-0.309-1.557-0.309h-0.445v-1.323h0.445
			c0.558,0,0.957-0.041,1.196-0.124c0.24-0.082,0.429-0.22,0.565-0.415s0.206-0.403,0.206-0.627c0-0.306-0.114-0.569-0.343-0.788
			c-0.288-0.279-0.727-0.418-1.316-0.418c-0.393,0-0.717,0.06-0.971,0.178c-0.253,0.119-0.451,0.287-0.596,0.504
			C120.638,94.89,120.552,95.174,120.525,95.526z"/>
		<path fill="#010101" d="M137.063,92.448h2.185v5.183h1.803v1.742h-1.803v2.639h-2.181v-2.639h-4.511v-2.139L137.063,92.448z
			 M137.067,94.655l-2.845,2.975h2.845V94.655z"/>
		<path fill="#010101" d="M143.806,95.526h-1.419c-0.005-0.105-0.007-0.192-0.007-0.26c0-0.59,0.134-1.098,0.401-1.525
			s0.687-0.777,1.256-1.049s1.221-0.408,1.952-0.408c0.695,0,1.319,0.123,1.873,0.367c0.554,0.245,0.967,0.559,1.239,0.943
			c0.271,0.384,0.408,0.779,0.408,1.186c0,0.32-0.085,0.634-0.254,0.942s-0.397,0.57-0.686,0.785
			c-0.191,0.142-0.478,0.286-0.856,0.432c0.343,0.037,0.648,0.12,0.918,0.25s0.504,0.295,0.703,0.494
			c0.198,0.199,0.347,0.424,0.445,0.675s0.147,0.523,0.147,0.815c0,0.526-0.155,1.017-0.467,1.474
			c-0.311,0.457-0.772,0.826-1.386,1.107c-0.613,0.281-1.324,0.421-2.134,0.421c-0.791,0-1.496-0.133-2.113-0.397
			c-0.617-0.265-1.082-0.601-1.393-1.008c-0.312-0.407-0.467-0.812-0.467-1.213c0-0.306,0.109-0.569,0.329-0.789
			s0.485-0.329,0.797-0.329c0.297,0,0.561,0.103,0.789,0.309c0.146,0.133,0.272,0.359,0.377,0.679
			c0.133,0.416,0.253,0.691,0.36,0.826s0.283,0.255,0.525,0.36s0.489,0.158,0.741,0.158c0.293,0,0.575-0.071,0.848-0.212
			s0.473-0.321,0.601-0.539c0.128-0.217,0.192-0.479,0.192-0.785c0-0.562-0.217-0.976-0.651-1.241
			c-0.334-0.206-0.853-0.309-1.556-0.309h-0.446v-1.323h0.446c0.558,0,0.956-0.041,1.196-0.124c0.239-0.082,0.428-0.22,0.565-0.415
			c0.137-0.194,0.205-0.403,0.205-0.627c0-0.306-0.114-0.569-0.343-0.788c-0.288-0.279-0.727-0.418-1.316-0.418
			c-0.393,0-0.716,0.06-0.97,0.178c-0.254,0.119-0.452,0.287-0.597,0.504C143.919,94.89,143.833,95.174,143.806,95.526z"/>
		<path fill="#010101" d="M161.48,92.283v7.501c0,0.324,0.014,0.518,0.041,0.582c0.041,0.114,0.113,0.195,0.218,0.243
			c0.105,0.048,0.299,0.072,0.581,0.072h0.963v1.33h-5.902v-1.33h0.974c0.343,0,0.562-0.021,0.658-0.065
			c0.096-0.043,0.168-0.114,0.216-0.212s0.071-0.305,0.071-0.62v-5.348h-1.919v-1.33c0.548-0.055,0.969-0.112,1.261-0.171
			c0.439-0.087,0.905-0.206,1.399-0.356c0.273-0.083,0.529-0.181,0.768-0.295H161.48z"/>
		<path fill="#010101" d="M167.086,95.526h-1.419c-0.005-0.105-0.007-0.192-0.007-0.26c0-0.59,0.134-1.098,0.401-1.525
			s0.687-0.777,1.256-1.049s1.221-0.408,1.952-0.408c0.695,0,1.319,0.123,1.873,0.367c0.554,0.245,0.967,0.559,1.239,0.943
			c0.271,0.384,0.408,0.779,0.408,1.186c0,0.32-0.085,0.634-0.254,0.942s-0.397,0.57-0.686,0.785
			c-0.192,0.142-0.478,0.286-0.856,0.432c0.343,0.037,0.648,0.12,0.918,0.25s0.504,0.295,0.703,0.494
			c0.198,0.199,0.347,0.424,0.445,0.675s0.147,0.523,0.147,0.815c0,0.526-0.155,1.017-0.467,1.474
			c-0.311,0.457-0.772,0.826-1.386,1.107c-0.613,0.281-1.324,0.421-2.134,0.421c-0.791,0-1.496-0.133-2.113-0.397
			c-0.617-0.265-1.082-0.601-1.393-1.008c-0.312-0.407-0.467-0.812-0.467-1.213c0-0.306,0.109-0.569,0.329-0.789
			s0.485-0.329,0.797-0.329c0.297,0,0.561,0.103,0.789,0.309c0.146,0.133,0.272,0.359,0.377,0.679
			c0.133,0.416,0.253,0.691,0.36,0.826s0.283,0.255,0.525,0.36s0.489,0.158,0.741,0.158c0.293,0,0.575-0.071,0.848-0.212
			s0.473-0.321,0.601-0.539c0.128-0.217,0.192-0.479,0.192-0.785c0-0.562-0.217-0.976-0.651-1.241
			c-0.334-0.206-0.853-0.309-1.556-0.309h-0.446v-1.323h0.446c0.558,0,0.956-0.041,1.196-0.124c0.239-0.082,0.428-0.22,0.565-0.415
			c0.137-0.194,0.205-0.403,0.205-0.627c0-0.306-0.114-0.569-0.343-0.788c-0.288-0.279-0.727-0.418-1.316-0.418
			c-0.393,0-0.716,0.06-0.97,0.178c-0.254,0.119-0.452,0.287-0.597,0.504C167.2,94.89,167.114,95.174,167.086,95.526z"/>
		<path fill="#010101" d="M179.812,97.692l0.254-5.245h4.826c0.302,0,0.494-0.024,0.579-0.072c0.085-0.048,0.134-0.134,0.147-0.257
			h0.919v2.386h-4.998l-0.062,1.227c0.558-0.059,1.063-0.089,1.515-0.089c0.938,0,1.719,0.137,2.345,0.411
			c0.626,0.274,1.09,0.642,1.392,1.104c0.302,0.461,0.452,1.001,0.452,1.618c0,1.074-0.434,1.926-1.302,2.557
			c-0.777,0.562-1.721,0.843-2.832,0.843c-0.74,0-1.407-0.127-2.001-0.38c-0.595-0.254-1.037-0.57-1.327-0.95
			s-0.436-0.761-0.436-1.145c0-0.306,0.104-0.563,0.313-0.771s0.463-0.312,0.765-0.312c0.215,0,0.411,0.06,0.589,0.178
			c0.179,0.119,0.334,0.318,0.467,0.597c0.188,0.384,0.36,0.662,0.521,0.833s0.348,0.303,0.563,0.394s0.454,0.137,0.72,0.137
			c0.352,0,0.667-0.07,0.946-0.209c0.278-0.139,0.488-0.329,0.631-0.569c0.142-0.24,0.212-0.515,0.212-0.826
			c0-0.525-0.222-0.953-0.665-1.282s-1.143-0.494-2.098-0.494C181.396,97.377,180.584,97.482,179.812,97.692z"/>
		<path fill="#010101" d="M189.052,97.692l0.254-5.245h4.826c0.302,0,0.494-0.024,0.579-0.072c0.085-0.048,0.134-0.134,0.147-0.257
			h0.919v2.386h-4.998l-0.062,1.227c0.558-0.059,1.063-0.089,1.515-0.089c0.938,0,1.719,0.137,2.345,0.411
			c0.626,0.274,1.09,0.642,1.392,1.104c0.302,0.461,0.452,1.001,0.452,1.618c0,1.074-0.434,1.926-1.302,2.557
			c-0.777,0.562-1.721,0.843-2.832,0.843c-0.74,0-1.407-0.127-2.001-0.38c-0.595-0.254-1.037-0.57-1.327-0.95
			s-0.436-0.761-0.436-1.145c0-0.306,0.104-0.563,0.313-0.771s0.463-0.312,0.765-0.312c0.215,0,0.411,0.06,0.589,0.178
			c0.179,0.119,0.334,0.318,0.467,0.597c0.188,0.384,0.36,0.662,0.521,0.833s0.348,0.303,0.563,0.394s0.454,0.137,0.72,0.137
			c0.352,0,0.667-0.07,0.946-0.209c0.278-0.139,0.488-0.329,0.631-0.569c0.142-0.24,0.212-0.515,0.212-0.826
			c0-0.525-0.222-0.953-0.665-1.282s-1.143-0.494-2.098-0.494C190.636,97.377,189.825,97.482,189.052,97.692z"/>
	</g>
</g>
<g>
	<defs>
		<rect id="SVGID_12_" y="88.817" width="255.119" height="49.32"/>
	</defs>
	<clipPath id="SVGID_15_">
		<use xlink:href="#SVGID_12_"  overflow="visible"/>
	</clipPath>
</g>
<g>
	<defs>
		<rect id="SVGID_11_" y="88.817" width="255.119" height="49.32"/>
	</defs>
	<clipPath id="SVGID_16_">
		<use xlink:href="#SVGID_11_"  overflow="visible"/>
	</clipPath>
	<g clip-path="url(#SVGID_16_)">
		<path fill="#010101" d="M64.103,108.885h2.147l2.87,7.384c0.156,0.393,0.294,0.635,0.415,0.727
			c0.121,0.091,0.344,0.135,0.669,0.13v1.323h-4.525v-1.323l0.274-0.007c0.251,0,0.428-0.033,0.528-0.1
			c0.101-0.065,0.15-0.147,0.15-0.243c0-0.082-0.043-0.251-0.13-0.507l-0.285-0.871H63.31l-0.359,0.967
			c-0.072,0.206-0.109,0.341-0.109,0.404c0,0.073,0.026,0.14,0.078,0.199c0.053,0.06,0.139,0.103,0.258,0.13
			c0.078,0.019,0.293,0.027,0.645,0.027v1.323H60.12v-1.323c0.237,0,0.411-0.021,0.521-0.062s0.2-0.103,0.271-0.186
			c0.07-0.082,0.149-0.235,0.236-0.459L64.103,108.885z M63.816,114.034h1.898l-0.925-2.626L63.816,114.034z"/>
		<path fill="#010101" d="M73.666,111.442v0.761c0.521-0.32,0.92-0.527,1.195-0.621c0.277-0.094,0.573-0.141,0.889-0.141
			c0.799,0,1.451,0.295,1.953,0.884c0.576,0.677,0.864,1.541,0.864,2.592c0,1.005-0.251,1.846-0.755,2.522
			c-0.575,0.781-1.348,1.172-2.316,1.172c-0.311,0-0.582-0.035-0.816-0.105c-0.232-0.071-0.486-0.2-0.76-0.388v1.378
			c0,0.274,0.014,0.438,0.041,0.494c0.031,0.068,0.083,0.117,0.154,0.146c0.07,0.03,0.248,0.045,0.531,0.045h0.322v1.323h-4.251
			v-1.323h0.231c0.313,0,0.503-0.013,0.568-0.038c0.066-0.024,0.118-0.077,0.156-0.157c0.039-0.08,0.059-0.243,0.059-0.49v-6.143
			h-1.015v-1.33c0.491-0.06,0.909-0.133,1.255-0.22c0.347-0.086,0.697-0.208,1.052-0.363H73.666z M73.919,113.582v2.234
			c0,0.353,0.033,0.603,0.099,0.751c0.066,0.148,0.181,0.27,0.343,0.363s0.349,0.141,0.559,0.141c0.371,0,0.678-0.172,0.922-0.515
			c0.245-0.343,0.367-0.863,0.367-1.563c0-0.649-0.106-1.13-0.318-1.443c-0.213-0.313-0.475-0.469-0.785-0.469
			C74.749,113.081,74.353,113.248,73.919,113.582z"/>
		<path fill="#010101" d="M82.652,111.442v0.761c0.521-0.32,0.92-0.527,1.197-0.621c0.275-0.094,0.572-0.141,0.887-0.141
			c0.801,0,1.451,0.295,1.955,0.884c0.575,0.677,0.863,1.541,0.863,2.592c0,1.005-0.252,1.846-0.754,2.522
			c-0.576,0.781-1.349,1.172-2.317,1.172c-0.312,0-0.583-0.035-0.815-0.105c-0.233-0.071-0.487-0.2-0.762-0.388v1.378
			c0,0.274,0.014,0.438,0.041,0.494c0.032,0.068,0.084,0.117,0.154,0.146c0.071,0.03,0.248,0.045,0.531,0.045h0.322v1.323h-4.25
			v-1.323h0.231c0.313,0,0.503-0.013,0.569-0.038c0.064-0.024,0.117-0.077,0.156-0.157c0.038-0.08,0.058-0.243,0.058-0.49v-6.143
			h-1.015v-1.33c0.491-0.06,0.91-0.133,1.256-0.22c0.346-0.086,0.695-0.208,1.051-0.363H82.652z M82.906,113.582v2.234
			c0,0.353,0.033,0.603,0.1,0.751s0.181,0.27,0.343,0.363s0.349,0.141,0.56,0.141c0.369,0,0.677-0.172,0.922-0.515
			c0.244-0.343,0.366-0.863,0.366-1.563c0-0.649-0.106-1.13-0.319-1.443c-0.212-0.313-0.474-0.469-0.784-0.469
			C83.736,113.081,83.34,113.248,82.906,113.582z"/>
		<path fill="#010101" d="M90.556,116.008c0.353,0,0.652,0.124,0.902,0.373c0.248,0.25,0.373,0.55,0.373,0.902
			c0,0.352-0.125,0.652-0.373,0.901c-0.25,0.249-0.55,0.373-0.902,0.373c-0.355,0-0.658-0.124-0.908-0.373
			c-0.249-0.249-0.373-0.55-0.373-0.901c0-0.353,0.124-0.652,0.373-0.902C89.898,116.132,90.201,116.008,90.556,116.008z"/>
		<path fill="#010101" d="M102.425,108.721c0.85,0,1.582,0.187,2.197,0.559c0.615,0.372,1.096,0.907,1.443,1.604
			s0.521,1.585,0.521,2.663c0,1.216-0.159,2.153-0.479,2.811c-0.361,0.745-0.85,1.307-1.464,1.687
			c-0.614,0.379-1.37,0.568-2.266,0.568c-0.873,0-1.61-0.184-2.211-0.552c-0.601-0.367-1.077-0.911-1.429-1.631
			c-0.353-0.72-0.528-1.638-0.528-2.753c0-1.12,0.175-2.035,0.524-2.746c0.35-0.71,0.835-1.257,1.457-1.638
			C100.812,108.912,101.557,108.721,102.425,108.721z M104.208,113.67c0-1.25-0.186-2.155-0.557-2.716
			c-0.328-0.488-0.76-0.732-1.295-0.732c-0.494,0-0.908,0.258-1.244,0.773c-0.336,0.516-0.504,1.407-0.504,2.675
			c0,1.269,0.169,2.159,0.508,2.672c0.338,0.513,0.763,0.77,1.274,0.77c0.517,0,0.948-0.264,1.296-0.79
			C104.035,115.794,104.208,114.911,104.208,113.67z"/>
		<path fill="#010101" d="M114.792,108.721v1.344c-0.872,0.032-1.571,0.114-2.095,0.247c-0.523,0.132-0.958,0.313-1.305,0.542
			c-0.348,0.229-0.631,0.499-0.848,0.812c-0.217,0.313-0.366,0.671-0.449,1.073c0.402-0.279,0.783-0.477,1.143-0.593
			c0.357-0.116,0.748-0.175,1.168-0.175c0.668,0,1.264,0.137,1.789,0.412c0.525,0.274,0.928,0.644,1.203,1.11
			c0.277,0.466,0.415,1.005,0.415,1.618c0,1.02-0.36,1.858-1.079,2.517c-0.721,0.658-1.693,0.986-2.918,0.986
			c-1.266,0-2.255-0.338-2.968-1.014c-0.837-0.786-1.255-1.872-1.255-3.257c0-0.937,0.141-1.733,0.422-2.389
			s0.723-1.236,1.326-1.741s1.311-0.877,2.122-1.118C112.275,108.854,113.384,108.73,114.792,108.721z M111.783,113.526
			c-0.334,0-0.629,0.075-0.885,0.223s-0.455,0.361-0.597,0.638s-0.212,0.593-0.212,0.949c0,0.521,0.156,0.947,0.469,1.278
			c0.313,0.332,0.707,0.497,1.184,0.497c0.488,0,0.892-0.165,1.209-0.497c0.318-0.331,0.477-0.765,0.477-1.299
			c0-0.539-0.154-0.973-0.463-1.299C112.656,113.69,112.262,113.526,111.783,113.526z"/>
		<path fill="#010101" d="M123.386,111.963h-1.42c-0.004-0.105-0.006-0.192-0.006-0.26c0-0.59,0.133-1.098,0.4-1.525
			s0.687-0.777,1.256-1.049c0.57-0.272,1.221-0.408,1.953-0.408c0.695,0,1.319,0.123,1.873,0.367
			c0.553,0.245,0.966,0.559,1.238,0.943s0.408,0.779,0.408,1.186c0,0.32-0.084,0.634-0.253,0.942
			c-0.17,0.309-0.398,0.57-0.686,0.785c-0.192,0.142-0.478,0.286-0.857,0.432c0.343,0.037,0.649,0.12,0.919,0.25
			s0.504,0.295,0.702,0.494c0.199,0.198,0.348,0.424,0.446,0.675c0.098,0.252,0.147,0.523,0.147,0.816
			c0,0.525-0.156,1.017-0.467,1.474c-0.312,0.457-0.773,0.826-1.386,1.107c-0.613,0.281-1.324,0.421-2.135,0.421
			c-0.791,0-1.496-0.132-2.113-0.397c-0.617-0.265-1.082-0.601-1.393-1.008c-0.311-0.406-0.467-0.811-0.467-1.213
			c0-0.307,0.109-0.569,0.33-0.788c0.219-0.22,0.484-0.329,0.796-0.329c0.298,0,0.561,0.103,0.79,0.308
			c0.146,0.133,0.271,0.359,0.377,0.679c0.133,0.416,0.252,0.691,0.36,0.826c0.107,0.135,0.282,0.255,0.524,0.36
			c0.243,0.105,0.49,0.157,0.742,0.157c0.293,0,0.575-0.07,0.848-0.212c0.271-0.142,0.473-0.321,0.6-0.538
			c0.129-0.218,0.193-0.479,0.193-0.785c0-0.563-0.218-0.976-0.652-1.241c-0.333-0.205-0.852-0.309-1.556-0.309h-0.445V112.8h0.445
			c0.558,0,0.956-0.041,1.196-0.124c0.24-0.082,0.429-0.22,0.565-0.415c0.138-0.194,0.206-0.403,0.206-0.627
			c0-0.306-0.114-0.569-0.343-0.788c-0.288-0.279-0.728-0.418-1.316-0.418c-0.394,0-0.716,0.06-0.97,0.178
			c-0.254,0.119-0.453,0.287-0.597,0.504C123.5,111.327,123.414,111.612,123.386,111.963z"/>
		<path fill="#010101" d="M137.96,108.721v1.344c-0.873,0.032-1.571,0.114-2.095,0.247c-0.523,0.132-0.959,0.313-1.306,0.542
			c-0.348,0.229-0.63,0.499-0.847,0.812c-0.218,0.313-0.367,0.671-0.449,1.073c0.402-0.279,0.782-0.477,1.142-0.593
			c0.358-0.116,0.748-0.175,1.169-0.175c0.667,0,1.264,0.137,1.789,0.412c0.525,0.274,0.927,0.644,1.203,1.11
			s0.415,1.005,0.415,1.618c0,1.02-0.36,1.858-1.08,2.517s-1.692,0.986-2.917,0.986c-1.266,0-2.256-0.338-2.969-1.014
			c-0.836-0.786-1.254-1.872-1.254-3.257c0-0.937,0.141-1.733,0.421-2.389c0.281-0.656,0.724-1.236,1.327-1.741
			s1.311-0.877,2.122-1.118C135.443,108.854,136.552,108.73,137.96,108.721z M134.951,113.526c-0.334,0-0.629,0.075-0.885,0.223
			s-0.454,0.361-0.596,0.638s-0.213,0.593-0.213,0.949c0,0.521,0.156,0.947,0.47,1.278c0.313,0.332,0.707,0.497,1.183,0.497
			c0.489,0,0.893-0.165,1.21-0.497c0.317-0.331,0.477-0.765,0.477-1.299c0-0.539-0.154-0.973-0.463-1.299
			C135.825,113.69,135.43,113.526,134.951,113.526z"/>
		<path fill="#010101" d="M144.365,108.885h2.185v5.183h1.803v1.741h-1.803v2.64h-2.181v-2.64h-4.511v-2.139L144.365,108.885z
			 M144.369,111.093l-2.845,2.975h2.845V111.093z"/>
		<path fill="#010101" d="M150.018,114.129l0.254-5.244h4.826c0.302,0,0.494-0.024,0.579-0.072c0.085-0.048,0.134-0.134,0.147-0.257
			h0.919v2.386h-4.998l-0.062,1.227c0.558-0.059,1.063-0.089,1.515-0.089c0.938,0,1.719,0.137,2.345,0.411
			c0.626,0.274,1.09,0.642,1.392,1.104s0.452,1.001,0.452,1.618c0,1.073-0.434,1.926-1.302,2.557
			c-0.777,0.563-1.721,0.843-2.832,0.843c-0.74,0-1.407-0.126-2.001-0.38c-0.595-0.254-1.037-0.57-1.327-0.949
			c-0.29-0.38-0.436-0.762-0.436-1.146c0-0.306,0.104-0.563,0.313-0.771s0.463-0.313,0.765-0.313c0.215,0,0.411,0.06,0.589,0.179
			c0.179,0.118,0.334,0.317,0.467,0.596c0.188,0.384,0.36,0.662,0.521,0.833c0.16,0.172,0.348,0.303,0.563,0.395
			s0.454,0.137,0.72,0.137c0.352,0,0.667-0.069,0.946-0.209c0.278-0.139,0.488-0.329,0.631-0.568
			c0.142-0.24,0.212-0.516,0.212-0.826c0-0.525-0.222-0.953-0.665-1.282s-1.143-0.494-2.098-0.494
			C151.602,113.814,150.791,113.919,150.018,114.129z"/>
		<path fill="#010101" d="M159.361,118.613v-1.343c0.877-0.037,1.574-0.12,2.095-0.251c0.521-0.13,0.955-0.31,1.305-0.538
			c0.349-0.229,0.631-0.499,0.845-0.813c0.215-0.313,0.365-0.673,0.452-1.079c-0.402,0.283-0.784,0.483-1.145,0.6
			c-0.361,0.116-0.75,0.175-1.166,0.175c-0.667,0-1.265-0.138-1.792-0.414c-0.528-0.276-0.93-0.646-1.204-1.11
			c-0.273-0.463-0.411-1.003-0.411-1.62c0-1.018,0.359-1.855,1.076-2.513c0.718-0.657,1.691-0.986,2.921-0.986
			c1.266,0,2.256,0.338,2.969,1.015c0.836,0.791,1.254,1.878,1.254,3.263c0,0.933-0.142,1.728-0.425,2.386
			c-0.282,0.658-0.725,1.24-1.325,1.745c-0.6,0.505-1.306,0.877-2.116,1.117S160.772,118.609,159.361,118.613z M162.364,113.801
			c0.334,0,0.628-0.073,0.885-0.219c0.256-0.146,0.454-0.359,0.596-0.638s0.213-0.597,0.213-0.953c0-0.521-0.156-0.946-0.47-1.275
			s-0.707-0.494-1.183-0.494c-0.484,0-0.886,0.165-1.203,0.494s-0.477,0.761-0.477,1.295c0,0.54,0.154,0.973,0.463,1.299
			S161.888,113.801,162.364,113.801z"/>
		<path fill="#010101" d="M173.222,108.721v7.5c0,0.324,0.014,0.519,0.041,0.582c0.041,0.114,0.113,0.195,0.218,0.244
			c0.105,0.048,0.299,0.071,0.581,0.071h0.963v1.33h-5.902v-1.33h0.974c0.343,0,0.562-0.021,0.658-0.064
			c0.096-0.044,0.168-0.114,0.216-0.213c0.048-0.098,0.071-0.305,0.071-0.62v-5.348h-1.919v-1.33
			c0.548-0.055,0.969-0.112,1.261-0.171c0.439-0.087,0.905-0.206,1.399-0.356c0.273-0.083,0.529-0.181,0.768-0.295H173.222z"/>
		<path fill="#010101" d="M177.739,114.129l0.254-5.244h4.826c0.302,0,0.494-0.024,0.579-0.072c0.085-0.048,0.134-0.134,0.147-0.257
			h0.919v2.386h-4.998l-0.062,1.227c0.558-0.059,1.063-0.089,1.515-0.089c0.938,0,1.719,0.137,2.345,0.411
			c0.626,0.274,1.09,0.642,1.392,1.104s0.452,1.001,0.452,1.618c0,1.073-0.434,1.926-1.302,2.557
			c-0.777,0.563-1.721,0.843-2.832,0.843c-0.74,0-1.407-0.126-2.001-0.38c-0.595-0.254-1.037-0.57-1.327-0.949
			c-0.29-0.38-0.436-0.762-0.436-1.146c0-0.306,0.104-0.563,0.313-0.771s0.463-0.313,0.765-0.313c0.215,0,0.411,0.06,0.589,0.179
			c0.179,0.118,0.334,0.317,0.467,0.596c0.188,0.384,0.36,0.662,0.521,0.833c0.16,0.172,0.348,0.303,0.563,0.395
			s0.454,0.137,0.72,0.137c0.352,0,0.667-0.069,0.946-0.209c0.278-0.139,0.488-0.329,0.631-0.568
			c0.142-0.24,0.212-0.516,0.212-0.826c0-0.525-0.222-0.953-0.665-1.282s-1.143-0.494-2.098-0.494
			C179.323,113.814,178.511,113.919,177.739,114.129z"/>
		<path fill="#010101" d="M192.135,113.136c0.708,0.279,1.255,0.658,1.639,1.138c0.302,0.37,0.452,0.829,0.452,1.378
			c0,0.836-0.329,1.524-0.987,2.063c-0.735,0.599-1.723,0.897-2.961,0.897c-0.828,0-1.543-0.125-2.146-0.377
			c-0.603-0.251-1.053-0.574-1.351-0.97c-0.297-0.396-0.445-0.803-0.445-1.224c0-0.438,0.163-0.857,0.49-1.255
			s0.838-0.735,1.532-1.014c-0.58-0.261-1.016-0.597-1.306-1.008c-0.291-0.412-0.436-0.864-0.436-1.357
			c0-0.489,0.136-0.933,0.408-1.33c0.271-0.397,0.694-0.723,1.268-0.977c0.574-0.253,1.233-0.38,1.979-0.38
			c0.941,0,1.748,0.205,2.42,0.614s1.008,0.965,1.008,1.669c0,0.411-0.114,0.787-0.343,1.127
			C193.127,112.472,192.72,112.807,192.135,113.136z M189.688,114.411c-0.438,0.229-0.763,0.475-0.97,0.737
			c-0.208,0.263-0.313,0.516-0.313,0.758c0,0.191,0.071,0.383,0.213,0.572s0.356,0.343,0.645,0.459
			c0.287,0.116,0.626,0.175,1.015,0.175c0.384,0,0.722-0.054,1.015-0.161c0.292-0.107,0.5-0.24,0.623-0.397
			c0.124-0.157,0.186-0.328,0.186-0.511c0-0.229-0.078-0.418-0.233-0.569c-0.224-0.219-0.61-0.438-1.158-0.658L189.688,114.411z
			 M190.833,112.553l0.254-0.281c0.164-0.174,0.274-0.309,0.329-0.404c0.082-0.133,0.141-0.255,0.175-0.367
			c0.034-0.112,0.052-0.225,0.052-0.339c0-0.247-0.13-0.465-0.388-0.654c-0.259-0.19-0.618-0.285-1.08-0.285
			c-0.443,0-0.787,0.088-1.031,0.264c-0.245,0.176-0.367,0.38-0.367,0.613c0,0.206,0.073,0.382,0.22,0.528
			c0.196,0.197,0.555,0.402,1.076,0.617L190.833,112.553z"/>
	</g>
</g>
<g>
	<defs>
		<rect id="SVGID_10_" y="88.817" width="255.119" height="49.32"/>
	</defs>
	<clipPath id="SVGID_17_">
		<use xlink:href="#SVGID_10_"  overflow="visible"/>
	</clipPath>
</g>
<g>
	<defs>
		<rect id="SVGID_9_" y="88.817" width="255.119" height="49.32"/>
	</defs>
	<clipPath id="SVGID_18_">
		<use xlink:href="#SVGID_9_"  overflow="visible"/>
	</clipPath>
	<g clip-path="url(#SVGID_18_)">
		<path fill="#010101" d="M43.265,127.888v0.993c0.367-0.384,0.684-0.646,0.952-0.784c0.269-0.14,0.525-0.209,0.772-0.209
			c0.225,0,0.426,0.051,0.602,0.154c0.177,0.103,0.316,0.25,0.42,0.441c0.103,0.192,0.154,0.397,0.154,0.617
			c0,0.288-0.096,0.549-0.285,0.781c-0.19,0.233-0.457,0.35-0.801,0.35c-0.092,0-0.174-0.007-0.244-0.021
			c-0.071-0.014-0.221-0.059-0.45-0.137c-0.119-0.036-0.218-0.055-0.296-0.055c-0.119,0-0.316,0.075-0.591,0.226v2.681
			c0,0.229,0.017,0.377,0.052,0.446c0.034,0.068,0.09,0.118,0.168,0.15c0.077,0.032,0.246,0.048,0.507,0.048h0.302v1.323h-4.23
			v-1.323h0.353c0.253,0,0.411-0.014,0.474-0.041c0.062-0.027,0.108-0.075,0.141-0.144c0.032-0.069,0.049-0.222,0.049-0.46v-3.146
			h-1.016v-1.316c0.746-0.045,1.52-0.237,2.324-0.575H43.265z"/>
		<path fill="#010101" d="M50.512,127.888c0.782,0,1.462,0.152,2.043,0.459c0.581,0.306,1.027,0.724,1.341,1.251
			c0.313,0.528,0.469,1.146,0.469,1.854c0,1.069-0.348,1.938-1.041,2.605c-0.695,0.667-1.623,1-2.784,1
			c-1.184,0-2.125-0.336-2.824-1.007c-0.677-0.641-1.015-1.506-1.015-2.599c0-0.718,0.154-1.335,0.463-1.851
			c0.309-0.517,0.755-0.932,1.34-1.245C49.089,128.044,49.758,127.888,50.512,127.888z M50.54,129.389
			c-0.261,0-0.505,0.078-0.733,0.233s-0.406,0.384-0.531,0.686c-0.125,0.301-0.188,0.686-0.188,1.151
			c0,0.479,0.062,0.878,0.185,1.192c0.124,0.315,0.294,0.549,0.512,0.699c0.217,0.151,0.455,0.227,0.716,0.227
			c0.402,0,0.747-0.17,1.035-0.511c0.288-0.34,0.433-0.869,0.433-1.587c0-0.694-0.135-1.217-0.402-1.566
			C51.297,129.564,50.956,129.389,50.54,129.389z"/>
		<path fill="#010101" d="M61.654,132.358l0.939,0.945c-0.54,0.617-1.09,1.064-1.649,1.341s-1.165,0.414-1.813,0.414
			c-1.042,0-1.92-0.353-2.633-1.059s-1.068-1.56-1.068-2.561c0-0.658,0.159-1.261,0.479-1.807c0.319-0.546,0.763-0.974,1.329-1.282
			c0.567-0.308,1.209-0.462,1.928-0.462c0.457,0,0.872,0.065,1.247,0.198c0.374,0.133,0.702,0.322,0.983,0.569
			s0.508,0.545,0.68,0.895c0.171,0.35,0.289,0.712,0.353,1.087c0.027,0.188,0.041,0.484,0.041,0.891h-4.614
			c0.01,0.581,0.18,1.05,0.512,1.409c0.331,0.358,0.736,0.538,1.217,0.538c0.306,0,0.639-0.093,1-0.277
			C60.945,133.012,61.301,132.732,61.654,132.358z M60.283,130.376c-0.033-0.274-0.098-0.49-0.196-0.648
			c-0.099-0.157-0.231-0.283-0.399-0.377c-0.166-0.094-0.342-0.141-0.525-0.141c-0.193,0-0.379,0.049-0.557,0.145
			c-0.18,0.096-0.322,0.227-0.43,0.391c-0.108,0.164-0.178,0.375-0.21,0.631H60.283z"/>
		<path fill="#010101" d="M66.566,124.831v8.021c0,0.27,0.012,0.43,0.035,0.479c0.031,0.092,0.103,0.158,0.212,0.199
			c0.069,0.027,0.254,0.041,0.556,0.041h0.24v1.323h-4.244v-1.323h0.261c0.274,0,0.45-0.017,0.528-0.052
			c0.077-0.034,0.135-0.089,0.171-0.164s0.055-0.243,0.055-0.504v-6.115h-1.015v-1.323c0.818-0.055,1.664-0.249,2.537-0.582H66.566z
			"/>
		<path fill="#010101" d="M72.552,128.052h3.64v1.323c-0.306,0.005-0.484,0.014-0.534,0.027c-0.078,0.022-0.159,0.078-0.244,0.164
			c-0.084,0.087-0.17,0.223-0.257,0.405l-2.241,4.922h-1.845l-2.339-5.072c-0.055-0.115-0.125-0.213-0.212-0.296
			c-0.069-0.063-0.144-0.104-0.226-0.123c-0.055-0.019-0.223-0.027-0.5-0.027v-1.323h4.202v1.323h-0.22
			c-0.27,0-0.437,0.021-0.5,0.062c-0.087,0.055-0.131,0.126-0.131,0.213c0,0.068,0.029,0.176,0.09,0.322l1.063,2.667l1.109-2.667
			c0.063-0.151,0.096-0.263,0.096-0.336c0-0.092-0.048-0.16-0.144-0.206c-0.073-0.036-0.236-0.055-0.486-0.055h-0.322V128.052z"/>
		<path fill="#010101" d="M80.517,127.888c0.781,0,1.463,0.152,2.043,0.459c0.58,0.306,1.027,0.724,1.34,1.251
			c0.313,0.528,0.471,1.146,0.471,1.854c0,1.069-0.348,1.938-1.043,2.605c-0.694,0.667-1.622,1-2.783,1
			c-1.184,0-2.125-0.336-2.824-1.007c-0.676-0.641-1.015-1.506-1.015-2.599c0-0.718,0.154-1.335,0.463-1.851
			c0.309-0.517,0.755-0.932,1.341-1.245C79.093,128.044,79.763,127.888,80.517,127.888z M80.544,129.389
			c-0.26,0-0.505,0.078-0.733,0.233s-0.405,0.384-0.531,0.686c-0.126,0.301-0.188,0.686-0.188,1.151
			c0,0.479,0.062,0.878,0.186,1.192c0.123,0.315,0.293,0.549,0.51,0.699c0.217,0.151,0.457,0.227,0.717,0.227
			c0.402,0,0.748-0.17,1.035-0.511c0.288-0.34,0.432-0.869,0.432-1.587c0-0.694-0.133-1.217-0.4-1.566S80.96,129.389,80.544,129.389
			z"/>
		<path fill="#010101" d="M90.011,128.052h0.897l0.556,1.906l-1.296,0.521c-0.247-0.397-0.557-0.709-0.929-0.936
			c-0.373-0.227-0.742-0.34-1.107-0.34c-0.242,0-0.423,0.042-0.541,0.124c-0.119,0.082-0.179,0.181-0.179,0.295
			c0,0.096,0.042,0.185,0.127,0.267c0.085,0.083,0.259,0.17,0.524,0.261l1.885,0.672c0.334,0.119,0.654,0.268,0.96,0.445
			c0.306,0.179,0.536,0.396,0.688,0.655c0.154,0.258,0.23,0.561,0.23,0.908c0,0.621-0.238,1.131-0.713,1.528
			c-0.558,0.467-1.252,0.699-2.084,0.699c-0.713,0-1.335-0.18-1.865-0.541l-0.191,0.377h-0.912l-0.844-2.249l1.297-0.548
			c0.324,0.507,0.724,0.906,1.199,1.196c0.475,0.29,0.912,0.436,1.309,0.436c0.248,0,0.455-0.058,0.625-0.172
			c0.127-0.091,0.191-0.198,0.191-0.322c0-0.104-0.051-0.205-0.15-0.302c-0.102-0.096-0.322-0.203-0.666-0.322l-1.48-0.514
			c-0.818-0.288-1.374-0.596-1.669-0.922c-0.295-0.327-0.442-0.715-0.442-1.162c0-0.576,0.23-1.061,0.693-1.453
			c0.525-0.448,1.174-0.672,1.946-0.672c0.686,0,1.272,0.155,1.762,0.466L90.011,128.052z"/>
		<path fill="#010101" d="M95.941,124.831v6.174l1.316-1.115c0.143-0.118,0.226-0.195,0.25-0.229c0.025-0.034,0.038-0.067,0.038-0.1
			c0-0.055-0.03-0.099-0.093-0.133c-0.061-0.035-0.193-0.052-0.394-0.052h-0.261v-1.323h4.189v1.323
			c-0.303,0-0.508,0.021-0.617,0.062c-0.146,0.06-0.387,0.21-0.721,0.452l-1.33,0.973l1.893,2.202
			c0.191,0.229,0.349,0.369,0.47,0.421c0.121,0.053,0.36,0.082,0.716,0.086v1.323h-4.25v-1.323h0.236
			c0.172,0,0.285-0.016,0.34-0.048s0.082-0.073,0.082-0.123c0-0.064-0.073-0.192-0.219-0.384l-0.787-1.009l-0.859,0.638v0.371
			c0,0.173,0.014,0.291,0.041,0.353c0.028,0.062,0.074,0.111,0.141,0.147s0.171,0.055,0.313,0.055h0.24v1.323H92.74v-1.323
			c0.137-0.004,0.242-0.007,0.315-0.007c0.256,0,0.421-0.017,0.493-0.052c0.074-0.034,0.126-0.092,0.158-0.175
			c0.023-0.059,0.034-0.258,0.034-0.596v-6.006H92.74v-1.337c0.777-0.036,1.623-0.226,2.537-0.568H95.941z"/>
		<path fill="#010101" d="M106.06,130.747v-0.508c0-0.301-0.025-0.509-0.076-0.623c-0.05-0.114-0.141-0.21-0.273-0.285
			s-0.297-0.113-0.494-0.113c-0.15,0-0.287,0.025-0.411,0.076c-0.124,0.05-0.222,0.114-0.295,0.191
			c-0.073,0.078-0.157,0.229-0.253,0.453c-0.124,0.283-0.271,0.486-0.443,0.609c-0.171,0.124-0.373,0.186-0.605,0.186
			c-0.293,0-0.533-0.092-0.721-0.274s-0.281-0.409-0.281-0.679c0-0.306,0.096-0.578,0.288-0.815
			c0.257-0.315,0.638-0.574,1.146-0.775c0.507-0.2,1.078-0.301,1.713-0.301c0.636,0,1.176,0.103,1.622,0.308
			c0.445,0.206,0.757,0.452,0.933,0.737c0.176,0.286,0.264,0.721,0.264,1.306v2.455c0,0.301,0.016,0.494,0.048,0.579
			c0.032,0.084,0.101,0.158,0.206,0.223c0.104,0.064,0.221,0.096,0.35,0.096c0.127,0,0.299-0.036,0.514-0.109v1.337
			c-0.389,0.123-0.761,0.185-1.117,0.185c-0.421,0-0.779-0.068-1.076-0.205c-0.297-0.138-0.547-0.343-0.748-0.617
			c-0.457,0.297-0.871,0.509-1.244,0.634c-0.372,0.126-0.732,0.188-1.08,0.188c-0.652,0-1.181-0.184-1.583-0.552
			c-0.402-0.367-0.603-0.821-0.603-1.36c0-0.307,0.068-0.588,0.209-0.844c0.139-0.256,0.347-0.479,0.623-0.672
			c0.277-0.191,0.704-0.362,1.282-0.511S105.232,130.81,106.06,130.747z M106.06,131.884c-0.6,0.087-1.021,0.175-1.269,0.264
			c-0.247,0.09-0.423,0.201-0.528,0.336c-0.105,0.136-0.157,0.273-0.157,0.415c0,0.183,0.068,0.336,0.206,0.46
			c0.137,0.123,0.322,0.185,0.555,0.185c0.15,0,0.326-0.039,0.524-0.116c0.199-0.078,0.422-0.192,0.669-0.343V131.884z"/>
		<path fill="#010101" d="M113.196,127.888v0.911c0.397-0.306,0.802-0.534,1.212-0.686c0.412-0.15,0.83-0.226,1.254-0.226
			c0.27,0,0.529,0.04,0.777,0.119c0.25,0.08,0.457,0.185,0.624,0.313s0.318,0.302,0.456,0.521c0.442-0.338,0.867-0.581,1.273-0.729
			s0.82-0.223,1.24-0.223c0.365,0,0.696,0.065,0.993,0.198s0.538,0.313,0.723,0.538c0.185,0.227,0.305,0.472,0.359,0.737
			c0.036,0.164,0.056,0.404,0.056,0.72v2.838c0,0.233,0.017,0.384,0.051,0.453c0.034,0.068,0.092,0.121,0.175,0.157
			c0.06,0.027,0.226,0.041,0.501,0.041h0.301v1.323h-3.996v-1.323c0.294,0,0.48-0.015,0.557-0.044
			c0.077-0.03,0.134-0.078,0.17-0.145c0.037-0.066,0.055-0.212,0.055-0.437v-2.492c0-0.289-0.02-0.479-0.059-0.573
			c-0.039-0.095-0.115-0.175-0.227-0.241c-0.113-0.066-0.246-0.1-0.402-0.1c-0.18,0-0.371,0.04-0.578,0.12
			c-0.206,0.08-0.512,0.256-0.914,0.525v2.686c0,0.266,0.018,0.433,0.054,0.501c0.036,0.069,0.101,0.121,0.19,0.158
			c0.055,0.022,0.233,0.037,0.537,0.041v1.323h-3.75v-1.323c0.311-0.004,0.5-0.021,0.568-0.048c0.069-0.027,0.121-0.077,0.158-0.15
			s0.055-0.239,0.055-0.5v-2.347c0-0.36-0.031-0.601-0.096-0.719c-0.102-0.178-0.28-0.268-0.537-0.268
			c-0.128,0-0.264,0.017-0.405,0.048c-0.143,0.032-0.282,0.083-0.42,0.151c-0.073,0.036-0.261,0.154-0.563,0.355l-0.158,0.103v2.676
			c0,0.256,0.014,0.416,0.041,0.479s0.081,0.116,0.161,0.157c0.079,0.041,0.218,0.062,0.415,0.062h0.185v1.323h-4.003v-1.323h0.268
			c0.283,0,0.459-0.015,0.531-0.044c0.07-0.03,0.124-0.082,0.16-0.158c0.037-0.075,0.055-0.24,0.055-0.496v-3.079h-1.014v-1.323
			c0.838-0.078,1.611-0.272,2.322-0.582H113.196z"/>
		<path fill="#010101" d="M126.953,127.888v0.761c0.521-0.32,0.92-0.527,1.196-0.621c0.276-0.093,0.572-0.14,0.888-0.14
			c0.8,0,1.451,0.294,1.953,0.884c0.576,0.677,0.864,1.54,0.864,2.592c0,1.005-0.251,1.846-0.754,2.522
			c-0.576,0.781-1.349,1.172-2.317,1.172c-0.311,0-0.583-0.035-0.816-0.105c-0.232-0.071-0.486-0.2-0.76-0.388v1.378
			c0,0.274,0.014,0.438,0.041,0.494c0.031,0.068,0.083,0.117,0.154,0.146c0.07,0.03,0.248,0.045,0.531,0.045h0.321v1.323h-4.25
			v-1.323h0.231c0.313,0,0.503-0.013,0.568-0.038c0.066-0.024,0.118-0.077,0.156-0.157c0.039-0.08,0.059-0.243,0.059-0.49V129.8
			h-1.015v-1.33c0.491-0.06,0.909-0.132,1.255-0.219c0.347-0.087,0.697-0.208,1.052-0.363H126.953z M127.207,130.027v2.234
			c0,0.353,0.033,0.603,0.099,0.751c0.066,0.148,0.181,0.27,0.343,0.363s0.349,0.141,0.559,0.141c0.37,0,0.678-0.172,0.922-0.515
			c0.245-0.343,0.367-0.863,0.367-1.563c0-0.649-0.106-1.13-0.318-1.443c-0.213-0.313-0.475-0.47-0.785-0.47
			C128.036,129.526,127.64,129.693,127.207,130.027z"/>
		<path fill="#010101" d="M136.242,124.831v3.805c0.452-0.274,0.853-0.468,1.2-0.579c0.347-0.112,0.683-0.168,1.007-0.168
			c0.435,0,0.822,0.092,1.162,0.277c0.341,0.185,0.591,0.417,0.751,0.695c0.16,0.279,0.24,0.651,0.24,1.118v2.858
			c0,0.279,0.011,0.448,0.034,0.507c0.036,0.087,0.104,0.151,0.205,0.192c0.06,0.023,0.222,0.034,0.487,0.034h0.322v1.323h-4.038
			v-1.323h0.206c0.196,0,0.331-0.019,0.404-0.055s0.123-0.088,0.15-0.154s0.041-0.228,0.041-0.483v-2.365
			c0-0.311-0.019-0.518-0.058-0.62s-0.108-0.188-0.209-0.254c-0.1-0.066-0.226-0.1-0.375-0.1c-0.215,0-0.439,0.044-0.674,0.131
			s-0.521,0.246-0.857,0.479v2.729c0,0.261,0.014,0.423,0.041,0.487c0.027,0.063,0.079,0.114,0.156,0.15s0.222,0.055,0.435,0.055
			h0.149v1.323h-3.982v-1.323h0.384c0.224,0,0.366-0.015,0.429-0.044c0.062-0.03,0.108-0.081,0.14-0.151
			c0.032-0.071,0.049-0.212,0.049-0.422v-6.218h-1.001v-1.323c0.379-0.022,0.806-0.088,1.278-0.195s0.899-0.236,1.278-0.387H136.242
			z"/>
		<path fill="#010101" d="M146.291,127.888c0.781,0,1.462,0.152,2.043,0.459c0.58,0.306,1.026,0.724,1.34,1.251
			c0.313,0.528,0.47,1.146,0.47,1.854c0,1.069-0.348,1.938-1.042,2.605c-0.695,0.667-1.623,1-2.783,1
			c-1.184,0-2.125-0.336-2.825-1.007c-0.676-0.641-1.014-1.506-1.014-2.599c0-0.718,0.153-1.335,0.462-1.851
			c0.309-0.517,0.756-0.932,1.341-1.245C144.867,128.044,145.536,127.888,146.291,127.888z M146.318,129.389
			c-0.261,0-0.505,0.078-0.733,0.233s-0.406,0.384-0.531,0.686c-0.126,0.301-0.189,0.686-0.189,1.151
			c0,0.479,0.063,0.878,0.186,1.192c0.123,0.315,0.294,0.549,0.511,0.699c0.217,0.151,0.456,0.227,0.717,0.227
			c0.401,0,0.747-0.17,1.035-0.511c0.287-0.34,0.432-0.869,0.432-1.587c0-0.694-0.134-1.217-0.401-1.566
			S146.734,129.389,146.318,129.389z"/>
		<path fill="#010101" d="M155.484,128.052h3.641v1.323c-0.307,0.005-0.485,0.014-0.535,0.027c-0.078,0.022-0.159,0.078-0.243,0.164
			c-0.085,0.087-0.171,0.223-0.257,0.405l-2.242,4.922h-1.844l-2.339-5.072c-0.055-0.115-0.126-0.213-0.213-0.296
			c-0.068-0.063-0.144-0.104-0.226-0.123c-0.055-0.019-0.222-0.027-0.5-0.027v-1.323h4.202v1.323h-0.219
			c-0.271,0-0.437,0.021-0.501,0.062c-0.087,0.055-0.13,0.126-0.13,0.213c0,0.068,0.029,0.176,0.089,0.322l1.063,2.667l1.109-2.667
			c0.064-0.151,0.097-0.263,0.097-0.336c0-0.092-0.048-0.16-0.145-0.206c-0.073-0.036-0.235-0.055-0.486-0.055h-0.322V128.052z"/>
		<path fill="#010101" d="M165.717,132.358l0.938,0.945c-0.539,0.617-1.089,1.064-1.648,1.341s-1.164,0.414-1.813,0.414
			c-1.042,0-1.919-0.353-2.632-1.059c-0.714-0.706-1.07-1.56-1.07-2.561c0-0.658,0.16-1.261,0.48-1.807
			c0.319-0.546,0.763-0.974,1.33-1.282c0.566-0.308,1.209-0.462,1.926-0.462c0.457,0,0.873,0.065,1.248,0.198
			s0.703,0.322,0.983,0.569c0.281,0.247,0.508,0.545,0.679,0.895c0.172,0.35,0.289,0.712,0.354,1.087
			c0.027,0.188,0.041,0.484,0.041,0.891h-4.613c0.009,0.581,0.179,1.05,0.511,1.409c0.331,0.358,0.736,0.538,1.217,0.538
			c0.306,0,0.64-0.093,1-0.277C165.008,133.012,165.365,132.732,165.717,132.358z M164.346,130.376
			c-0.032-0.274-0.098-0.49-0.196-0.648c-0.099-0.157-0.231-0.283-0.398-0.377c-0.168-0.094-0.343-0.141-0.526-0.141
			c-0.192,0-0.378,0.049-0.557,0.145s-0.322,0.227-0.43,0.391c-0.108,0.164-0.178,0.375-0.21,0.631H164.346z"/>
		<path fill="#010101" d="M170.714,127.888v0.911c0.517-0.352,0.959-0.592,1.327-0.72c0.367-0.128,0.743-0.191,1.128-0.191
			c0.442,0,0.835,0.094,1.175,0.28c0.341,0.188,0.589,0.422,0.744,0.703s0.233,0.68,0.233,1.196v2.852
			c0,0.242,0.017,0.397,0.051,0.467c0.035,0.068,0.089,0.118,0.161,0.15c0.056,0.023,0.22,0.034,0.494,0.034h0.336v1.323h-4.024
			v-1.323c0.307-0.004,0.478-0.011,0.515-0.021c0.114-0.032,0.189-0.084,0.226-0.157c0.037-0.073,0.055-0.23,0.055-0.473v-2.512
			c0-0.323-0.034-0.533-0.103-0.629c-0.109-0.16-0.283-0.24-0.521-0.24c-0.197,0-0.407,0.044-0.631,0.131
			c-0.225,0.086-0.525,0.265-0.905,0.533v2.717c0,0.297,0.032,0.479,0.097,0.548s0.22,0.103,0.464,0.103h0.221v1.323h-3.982v-1.323
			h0.198c0.315,0,0.511-0.014,0.587-0.041c0.075-0.027,0.132-0.075,0.171-0.144s0.059-0.203,0.059-0.403v-3.189h-1.015v-1.323
			c0.82-0.102,1.589-0.296,2.305-0.582H170.714z"/>
		<path fill="#010101" d="M180.485,127.888v5.065c0,0.242,0.014,0.391,0.041,0.446c0.027,0.055,0.076,0.097,0.147,0.127
			c0.07,0.029,0.229,0.044,0.477,0.044h0.37v1.323h-4.236v-1.323h0.363c0.237,0,0.39-0.013,0.455-0.037
			c0.066-0.025,0.116-0.067,0.147-0.127c0.032-0.06,0.049-0.179,0.049-0.356v-3.271h-1.015v-1.289
			c0.36-0.018,0.707-0.057,1.038-0.116s0.627-0.13,0.888-0.213c0.169-0.055,0.377-0.146,0.624-0.273H180.485z M179.375,124.831
			c0.347,0,0.643,0.122,0.888,0.366c0.244,0.245,0.366,0.541,0.366,0.888c0,0.353-0.122,0.65-0.366,0.895
			c-0.245,0.245-0.541,0.367-0.888,0.367c-0.348,0-0.644-0.122-0.888-0.367c-0.245-0.244-0.367-0.54-0.367-0.888
			c0-0.343,0.126-0.639,0.377-0.888S179.041,124.831,179.375,124.831z"/>
		<path fill="#010101" d="M188.52,132.358l0.938,0.945c-0.539,0.617-1.089,1.064-1.648,1.341s-1.164,0.414-1.813,0.414
			c-1.042,0-1.919-0.353-2.632-1.059c-0.714-0.706-1.07-1.56-1.07-2.561c0-0.658,0.16-1.261,0.48-1.807
			c0.319-0.546,0.763-0.974,1.33-1.282c0.566-0.308,1.209-0.462,1.926-0.462c0.457,0,0.873,0.065,1.248,0.198
			s0.703,0.322,0.983,0.569c0.281,0.247,0.508,0.545,0.679,0.895c0.172,0.35,0.289,0.712,0.354,1.087
			c0.027,0.188,0.041,0.484,0.041,0.891h-4.613c0.009,0.581,0.179,1.05,0.511,1.409c0.331,0.358,0.736,0.538,1.217,0.538
			c0.306,0,0.64-0.093,1-0.277C187.811,133.012,188.167,132.732,188.52,132.358z M187.149,130.376
			c-0.032-0.274-0.098-0.49-0.196-0.648c-0.099-0.157-0.231-0.283-0.398-0.377c-0.168-0.094-0.343-0.141-0.526-0.141
			c-0.192,0-0.378,0.049-0.557,0.145s-0.322,0.227-0.43,0.391c-0.108,0.164-0.178,0.375-0.21,0.631H187.149z"/>
		<path fill="#010101" d="M193.398,127.888v0.993c0.367-0.384,0.685-0.646,0.952-0.784c0.268-0.14,0.525-0.209,0.773-0.209
			c0.224,0,0.425,0.051,0.601,0.154c0.177,0.103,0.316,0.25,0.419,0.441c0.104,0.192,0.155,0.397,0.155,0.617
			c0,0.288-0.096,0.549-0.285,0.781c-0.19,0.233-0.457,0.35-0.801,0.35c-0.092,0-0.173-0.007-0.244-0.021s-0.221-0.059-0.45-0.137
			c-0.119-0.036-0.218-0.055-0.296-0.055c-0.119,0-0.315,0.075-0.591,0.226v2.681c0,0.229,0.018,0.377,0.052,0.446
			c0.034,0.068,0.09,0.118,0.168,0.15c0.077,0.032,0.246,0.048,0.507,0.048h0.302v1.323h-4.229v-1.323h0.352
			c0.253,0,0.411-0.014,0.473-0.041c0.063-0.027,0.109-0.075,0.142-0.144c0.032-0.069,0.049-0.222,0.049-0.46v-3.146h-1.015v-1.316
			c0.744-0.045,1.52-0.237,2.324-0.575H193.398z"/>
		<path fill="#010101" d="M198.706,132.454c0.352,0,0.652,0.124,0.901,0.373c0.249,0.25,0.374,0.55,0.374,0.902
			c0,0.352-0.125,0.652-0.374,0.901s-0.55,0.373-0.901,0.373c-0.356,0-0.659-0.124-0.908-0.373s-0.374-0.55-0.374-0.901
			c0-0.353,0.125-0.652,0.374-0.902C198.046,132.578,198.349,132.454,198.706,132.454z"/>
		<path fill="#010101" d="M204.565,127.888v0.911c0.517-0.352,0.959-0.592,1.327-0.72c0.367-0.128,0.743-0.191,1.128-0.191
			c0.442,0,0.835,0.094,1.175,0.28c0.341,0.188,0.589,0.422,0.744,0.703s0.233,0.68,0.233,1.196v2.852
			c0,0.242,0.017,0.397,0.051,0.467c0.035,0.068,0.089,0.118,0.161,0.15c0.056,0.023,0.22,0.034,0.494,0.034h0.336v1.323h-4.024
			v-1.323c0.307-0.004,0.478-0.011,0.515-0.021c0.114-0.032,0.189-0.084,0.226-0.157c0.037-0.073,0.055-0.23,0.055-0.473v-2.512
			c0-0.323-0.034-0.533-0.103-0.629c-0.109-0.16-0.283-0.24-0.521-0.24c-0.197,0-0.407,0.044-0.631,0.131
			c-0.225,0.086-0.525,0.265-0.905,0.533v2.717c0,0.297,0.032,0.479,0.097,0.548s0.22,0.103,0.464,0.103h0.221v1.323h-3.982v-1.323
			h0.198c0.315,0,0.511-0.014,0.587-0.041c0.075-0.027,0.132-0.075,0.171-0.144s0.059-0.203,0.059-0.403v-3.189h-1.015v-1.323
			c0.82-0.102,1.589-0.296,2.305-0.582H204.565z"/>
		<path fill="#010101" d="M214.184,124.831v8.021c0,0.27,0.012,0.43,0.035,0.479c0.031,0.092,0.103,0.158,0.212,0.199
			c0.068,0.027,0.254,0.041,0.556,0.041h0.24v1.323h-4.244v-1.323h0.261c0.274,0,0.45-0.017,0.527-0.052
			c0.078-0.034,0.135-0.089,0.172-0.164c0.036-0.075,0.055-0.243,0.055-0.504v-6.115h-1.015v-1.323
			c0.818-0.055,1.664-0.249,2.537-0.582H214.184z"/>
	</g>
</g>
<g>
	<defs>
		<rect id="SVGID_8_" y="88.817" width="255.119" height="49.32"/>
	</defs>
	<clipPath id="SVGID_19_">
		<use xlink:href="#SVGID_8_"  overflow="visible"/>
	</clipPath>
</g>
<g>
	<defs>
		<rect id="SVGID_7_" x="13.534" y="53.88" width="255.12" height="25.8"/>
	</defs>
	<clipPath id="SVGID_20_">
		<use xlink:href="#SVGID_7_"  overflow="visible"/>
	</clipPath>
	<g clip-path="url(#SVGID_20_)">
		<path fill="#010101" d="M14.586,59.67h5.769v0.9h-0.397c-0.458,0-0.785,0.043-0.981,0.13c-0.197,0.086-0.334,0.237-0.413,0.454
			c-0.064,0.158-0.096,0.493-0.096,1.004v4.171h7.752v-4.064c0-0.554-0.018-0.888-0.054-1.003c-0.057-0.23-0.181-0.403-0.37-0.518
			s-0.477-0.173-0.863-0.173h-0.59v-0.9h5.726v0.9h-0.515c-0.4,0-0.685,0.045-0.853,0.135c-0.168,0.09-0.286,0.212-0.354,0.367
			c-0.068,0.155-0.102,0.488-0.102,0.999v10.186c0,0.565,0.036,0.925,0.107,1.078c0.071,0.153,0.214,0.263,0.429,0.327
			c0.129,0.043,0.558,0.064,1.287,0.064v0.9h-5.726v-0.9h0.418c0.529,0,0.881-0.036,1.056-0.106
			c0.175-0.071,0.288-0.185,0.338-0.341c0.043-0.121,0.064-0.501,0.064-1.14v-4.654h-7.752v4.771c0,0.565,0.037,0.926,0.112,1.083
			s0.22,0.265,0.435,0.322c0.157,0.043,0.604,0.064,1.34,0.064v0.9h-5.769v-0.9h0.365c0.558,0,0.906-0.03,1.045-0.092
			c0.139-0.061,0.25-0.177,0.333-0.348c0.082-0.172,0.123-0.476,0.123-0.912V62.072c0-0.468-0.038-0.792-0.112-0.972
			c-0.075-0.18-0.193-0.313-0.354-0.399c-0.161-0.086-0.427-0.13-0.799-0.13h-0.601V59.67z"/>
		<path fill="#010101" d="M37.296,64.024c1.051,0,1.961,0.218,2.729,0.654c0.769,0.436,1.375,1.072,1.818,1.909
			c0.442,0.836,0.664,1.791,0.664,2.863s-0.227,2.026-0.681,2.862c-0.454,0.837-1.072,1.475-1.854,1.914
			c-0.783,0.439-1.719,0.66-2.805,0.66c-1.73,0-3.029-0.54-3.897-1.619c-0.868-1.08-1.303-2.349-1.303-3.807
			c0-1.065,0.226-2.011,0.675-2.836c0.451-0.826,1.082-1.465,1.893-1.919C35.347,64.25,36.267,64.024,37.296,64.024z M37.21,65.064
			c-0.814,0-1.505,0.321-2.069,0.965c-0.715,0.801-1.072,1.966-1.072,3.496c0,1.473,0.304,2.595,0.911,3.366
			c0.551,0.687,1.298,1.029,2.241,1.029c0.607,0,1.149-0.16,1.624-0.482c0.477-0.321,0.859-0.834,1.153-1.538
			c0.293-0.704,0.439-1.532,0.439-2.482c0-0.93-0.157-1.763-0.472-2.499c-0.243-0.586-0.609-1.042-1.1-1.367
			C38.377,65.227,37.826,65.064,37.21,65.064z"/>
		<path fill="#010101" d="M43.431,64.281h4.91v0.9h-0.3c-0.407,0-0.661,0.015-0.761,0.043c-0.144,0.043-0.251,0.111-0.322,0.204
			c-0.072,0.093-0.107,0.204-0.107,0.333c0,0.179,0.078,0.468,0.236,0.869l2.449,6.102l2.375-6.102
			c0.15-0.393,0.227-0.679,0.227-0.858c0-0.186-0.072-0.331-0.215-0.434c-0.144-0.104-0.4-0.156-0.772-0.156h-0.515v-0.9h4.236v0.9
			c-0.294,0.007-0.539,0.054-0.735,0.14c-0.196,0.085-0.351,0.197-0.461,0.332c-0.11,0.136-0.276,0.461-0.499,0.976l-3.424,7.999
			h-1.287l-3.447-8.182c-0.144-0.335-0.301-0.611-0.473-0.825c-0.113-0.136-0.266-0.243-0.455-0.321s-0.41-0.118-0.66-0.118V64.281z
			"/>
		<path fill="#010101" d="M64.822,71.862l0.687,0.558c-0.522,0.622-1.027,1.115-1.517,1.479c-0.49,0.365-0.953,0.62-1.389,0.767
			c-0.437,0.146-0.947,0.221-1.533,0.221c-1.051,0-1.945-0.215-2.682-0.644c-0.844-0.493-1.49-1.137-1.94-1.931
			c-0.45-0.793-0.675-1.729-0.675-2.809c0-1.13,0.217-2.095,0.653-2.896s1.046-1.432,1.828-1.893s1.688-0.691,2.718-0.691
			c0.766,0,1.43,0.119,1.995,0.358c0.564,0.239,1.044,0.599,1.437,1.08c0.393,0.481,0.68,1.032,0.857,1.653
			c0.101,0.364,0.158,0.834,0.172,1.412h-7.58c-0.021,0.352-0.033,0.613-0.033,0.785c0,0.902,0.158,1.706,0.473,2.412
			c0.314,0.705,0.73,1.225,1.249,1.558s1.106,0.5,1.764,0.5c0.558,0,1.097-0.131,1.619-0.392
			C63.446,73.129,64.079,72.62,64.822,71.862z M63.45,67.53c-0.107-0.657-0.259-1.144-0.456-1.458
			c-0.196-0.314-0.475-0.564-0.836-0.75s-0.767-0.279-1.217-0.279c-0.451,0-0.873,0.093-1.266,0.279s-0.721,0.443-0.98,0.772
			c-0.262,0.329-0.488,0.808-0.682,1.437H63.45z"/>
		<path fill="#010101" d="M67.074,65.814v-0.89c0.637-0.071,1.111-0.157,1.426-0.257s0.769-0.314,1.362-0.643h0.772v2.037
			c0.941-0.793,1.746-1.332,2.414-1.614s1.344-0.423,2.029-0.423c0.585,0,1.103,0.098,1.553,0.294
			c0.449,0.197,0.814,0.463,1.098,0.799c0.281,0.336,0.469,0.719,0.563,1.147c0.057,0.265,0.085,0.665,0.085,1.201v4.719
			c0,0.564,0.041,0.927,0.123,1.088c0.083,0.161,0.213,0.277,0.392,0.349s0.618,0.107,1.318,0.107v0.9h-5.511v-0.9h0.3
			c0.516,0,0.865-0.047,1.051-0.14s0.32-0.229,0.402-0.407s0.123-0.544,0.123-1.094v-3.946c0-0.814-0.066-1.379-0.198-1.694
			c-0.132-0.315-0.357-0.57-0.675-0.767c-0.318-0.196-0.721-0.295-1.207-0.295c-0.579,0-1.197,0.148-1.855,0.445
			c-0.657,0.296-1.293,0.734-1.908,1.313v4.943c0,0.558,0.041,0.929,0.123,1.115c0.082,0.186,0.217,0.325,0.402,0.418
			c0.129,0.071,0.473,0.107,1.029,0.107h0.311v0.9h-5.532v-0.9h0.27c0.532,0,0.896-0.045,1.089-0.135
			c0.195-0.089,0.332-0.248,0.41-0.477c0.043-0.114,0.064-0.508,0.064-1.18v-6.123H67.074z"/>
		<path fill="#010101" d="M81.496,65.814v-0.89c0.594-0.07,1.093-0.169,1.496-0.296c0.404-0.127,0.863-0.329,1.379-0.604h0.782v8.6
			c0,0.3,0.043,0.525,0.128,0.675c0.086,0.15,0.206,0.26,0.359,0.327c0.154,0.068,0.435,0.103,0.842,0.103h0.504v0.9h-5.49v-0.9
			h0.44c0.479,0,0.8-0.043,0.965-0.129s0.28-0.207,0.349-0.364s0.102-0.525,0.102-1.104v-6.316H81.496z M84.22,59.188
			c0.343,0,0.636,0.12,0.879,0.359c0.242,0.24,0.365,0.531,0.365,0.874s-0.123,0.636-0.365,0.879
			c-0.243,0.243-0.536,0.364-0.879,0.364c-0.344,0-0.637-0.121-0.88-0.364s-0.364-0.536-0.364-0.879s0.121-0.634,0.364-0.874
			C83.583,59.308,83.876,59.188,84.22,59.188z"/>
		<path fill="#010101" d="M97.344,71.862l0.687,0.558c-0.522,0.622-1.027,1.115-1.518,1.479c-0.49,0.365-0.953,0.62-1.389,0.767
			s-0.947,0.221-1.533,0.221c-1.051,0-1.945-0.215-2.681-0.644c-0.844-0.493-1.491-1.137-1.94-1.931
			c-0.451-0.793-0.676-1.729-0.676-2.809c0-1.13,0.218-2.095,0.654-2.896c0.436-0.801,1.045-1.432,1.828-1.893
			c0.782-0.461,1.688-0.691,2.718-0.691c0.765,0,1.43,0.119,1.995,0.358c0.564,0.239,1.043,0.599,1.436,1.08
			c0.394,0.481,0.68,1.032,0.858,1.653c0.101,0.364,0.157,0.834,0.172,1.412h-7.581c-0.021,0.352-0.032,0.613-0.032,0.785
			c0,0.902,0.157,1.706,0.472,2.412c0.314,0.705,0.73,1.225,1.249,1.558s1.106,0.5,1.765,0.5c0.557,0,1.097-0.131,1.619-0.392
			C95.968,73.129,96.601,72.62,97.344,71.862z M95.972,67.53c-0.107-0.657-0.26-1.144-0.456-1.458s-0.476-0.564-0.837-0.75
			s-0.766-0.279-1.217-0.279c-0.45,0-0.872,0.093-1.266,0.279c-0.393,0.186-0.72,0.443-0.98,0.772
			c-0.262,0.329-0.488,0.808-0.682,1.437H95.972z"/>
		<path fill="#010101" d="M99.574,65.814v-0.89c0.521-0.042,0.984-0.129,1.391-0.259c0.406-0.131,0.869-0.345,1.39-0.641h0.802
			v2.026c0.508-0.622,1.098-1.115,1.77-1.479c0.672-0.365,1.275-0.547,1.812-0.547c0.529,0,0.947,0.125,1.255,0.375
			c0.307,0.25,0.461,0.554,0.461,0.912c0,0.257-0.102,0.484-0.306,0.681c-0.204,0.197-0.448,0.295-0.734,0.295
			c-0.129,0-0.239-0.018-0.333-0.054c-0.092-0.036-0.229-0.114-0.406-0.236c-0.395-0.257-0.723-0.386-0.987-0.386
			c-0.357,0-0.751,0.15-1.179,0.45c-0.544,0.386-0.969,0.765-1.277,1.137v4.943c0,0.429,0.023,0.72,0.07,0.874
			c0.047,0.153,0.123,0.285,0.23,0.396c0.107,0.11,0.24,0.191,0.396,0.241c0.158,0.05,0.433,0.075,0.826,0.075h0.354v0.9h-5.543
			v-0.9h0.461c0.436,0,0.722-0.039,0.857-0.118c0.186-0.107,0.323-0.256,0.413-0.445c0.089-0.189,0.134-0.53,0.134-1.023v-6.327
			H99.574z"/>
	</g>
</g>
<g>
	<defs>
		<rect id="SVGID_6_" x="13.534" y="53.88" width="255.12" height="25.8"/>
	</defs>
	<clipPath id="SVGID_21_">
		<use xlink:href="#SVGID_6_"  overflow="visible"/>
	</clipPath>
</g>
<g>
	<defs>
		<rect id="SVGID_5_" x="13.534" y="53.88" width="255.12" height="25.8"/>
	</defs>
	<clipPath id="SVGID_22_">
		<use xlink:href="#SVGID_5_"  overflow="visible"/>
	</clipPath>
</g>
<g>
	<defs>
		<rect id="SVGID_4_" x="13.534" y="53.88" width="255.12" height="25.8"/>
	</defs>
	<clipPath id="SVGID_23_">
		<use xlink:href="#SVGID_4_"  overflow="visible"/>
	</clipPath>
	<g clip-path="url(#SVGID_23_)">
		<path fill="#010101" d="M144.899,59.67h5.769v0.9h-0.396c-0.457,0-0.784,0.043-0.981,0.13c-0.196,0.086-0.334,0.237-0.412,0.454
			c-0.064,0.158-0.097,0.493-0.097,1.004v4.171h7.752v-4.064c0-0.554-0.018-0.888-0.054-1.003c-0.057-0.23-0.18-0.403-0.369-0.518
			s-0.478-0.173-0.863-0.173h-0.59v-0.9h5.726v0.9h-0.515c-0.4,0-0.685,0.045-0.853,0.135c-0.168,0.09-0.286,0.212-0.354,0.367
			c-0.068,0.155-0.102,0.488-0.102,0.999v10.186c0,0.565,0.035,0.925,0.106,1.078s0.215,0.263,0.43,0.327
			c0.128,0.043,0.558,0.064,1.286,0.064v0.9h-5.726v-0.9h0.418c0.529,0,0.881-0.036,1.057-0.106
			c0.175-0.071,0.287-0.185,0.337-0.341c0.043-0.121,0.064-0.501,0.064-1.14v-4.654h-7.752v4.771c0,0.565,0.037,0.926,0.112,1.083
			s0.22,0.265,0.435,0.322c0.157,0.043,0.604,0.064,1.34,0.064v0.9h-5.769v-0.9h0.364c0.558,0,0.906-0.03,1.046-0.092
			c0.14-0.061,0.25-0.177,0.332-0.348c0.082-0.172,0.124-0.476,0.124-0.912V62.072c0-0.468-0.038-0.792-0.113-0.972
			c-0.075-0.18-0.192-0.313-0.354-0.399s-0.428-0.13-0.799-0.13h-0.601V59.67z"/>
		<path fill="#010101" d="M169.913,68.42l0.002-1.169c0-0.794-0.222-1.36-0.666-1.7s-1.071-0.509-1.881-0.509
			c-0.401,0-0.752,0.048-1.053,0.145c-0.301,0.097-0.543,0.229-0.726,0.397s-0.317,0.359-0.403,0.574
			c-0.035,0.079-0.121,0.382-0.258,0.911c-0.164,0.644-0.496,0.965-0.997,0.965c-0.286,0-0.517-0.095-0.691-0.284
			s-0.263-0.444-0.263-0.766c0-0.472,0.175-0.935,0.525-1.389s0.885-0.829,1.604-1.126c0.718-0.296,1.566-0.445,2.546-0.445
			c0.915,0,1.698,0.141,2.349,0.423s1.129,0.687,1.437,1.216c0.215,0.364,0.322,1.028,0.322,1.992v4.124
			c0,0.585,0.018,0.967,0.054,1.146c0.078,0.308,0.216,0.538,0.412,0.691c0.197,0.153,0.452,0.229,0.767,0.229
			c0.329,0,0.723-0.075,1.18-0.227v0.935c-0.593,0.172-1.126,0.258-1.598,0.258c-0.508,0-0.935-0.072-1.281-0.215
			s-0.631-0.352-0.853-0.627s-0.364-0.603-0.429-0.981c-0.857,0.672-1.634,1.144-2.327,1.415c-0.693,0.272-1.394,0.408-2.102,0.408
			c-0.986,0-1.787-0.269-2.401-0.805c-0.615-0.536-0.923-1.165-0.923-1.887c0-0.437,0.113-0.851,0.339-1.244
			c0.226-0.393,0.568-0.74,1.03-1.04c0.462-0.301,1.187-0.564,2.174-0.794C166.789,68.813,168.16,68.606,169.913,68.42z
			 M169.907,69.353c-1.659,0.243-2.686,0.411-3.079,0.504c-0.779,0.179-1.337,0.375-1.673,0.59c-0.337,0.215-0.576,0.445-0.72,0.691
			c-0.143,0.247-0.214,0.51-0.214,0.788c0,0.279,0.08,0.549,0.241,0.81s0.388,0.467,0.682,0.616c0.293,0.15,0.604,0.226,0.934,0.226
			c0.465,0,0.99-0.11,1.577-0.332c0.586-0.222,1.337-0.654,2.253-1.298L169.907,69.353z"/>
		<path fill="#010101" d="M174.922,65.814v-0.89c0.52-0.042,0.983-0.129,1.39-0.259c0.406-0.131,0.869-0.345,1.39-0.641h0.802v2.026
			c0.508-0.622,1.097-1.115,1.77-1.479c0.672-0.365,1.275-0.547,1.812-0.547c0.529,0,0.947,0.125,1.255,0.375
			c0.307,0.25,0.461,0.554,0.461,0.912c0,0.257-0.102,0.484-0.306,0.681c-0.204,0.197-0.448,0.295-0.734,0.295
			c-0.129,0-0.239-0.018-0.332-0.054c-0.094-0.036-0.229-0.114-0.408-0.236c-0.393-0.257-0.722-0.386-0.986-0.386
			c-0.357,0-0.75,0.15-1.18,0.45c-0.543,0.386-0.969,0.765-1.275,1.137v4.943c0,0.429,0.022,0.72,0.069,0.874
			c0.047,0.153,0.123,0.285,0.23,0.396c0.107,0.11,0.239,0.191,0.396,0.241s0.433,0.075,0.826,0.075h0.354v0.9h-5.543v-0.9h0.461
			c0.436,0,0.722-0.039,0.857-0.118c0.186-0.107,0.323-0.256,0.413-0.445c0.089-0.189,0.134-0.53,0.134-1.023v-6.327H174.922z"/>
		<path fill="#010101" d="M184.573,64.281h1.833v-1.608c0-1.108,0.366-2.014,1.1-2.718c0.732-0.704,1.688-1.056,2.868-1.056
			c0.786,0,1.399,0.165,1.839,0.493s0.659,0.686,0.659,1.072c0,0.257-0.088,0.474-0.263,0.648c-0.175,0.175-0.395,0.263-0.659,0.263
			c-0.236,0-0.439-0.042-0.611-0.128s-0.437-0.3-0.794-0.644c-0.379-0.357-0.739-0.536-1.082-0.536c-0.236,0-0.449,0.074-0.639,0.22
			s-0.336,0.361-0.439,0.643c-0.104,0.283-0.155,0.717-0.155,1.303v2.048h2.016v1.094h-2.016v6.958c0,0.479,0.035,0.799,0.107,0.96
			c0.071,0.161,0.179,0.273,0.321,0.338s0.476,0.097,0.997,0.097h0.439v0.9h-5.521v-0.9h0.332c0.564,0,0.924-0.036,1.078-0.107
			c0.153-0.071,0.264-0.188,0.332-0.349c0.067-0.161,0.098-0.527,0.091-1.099v-6.798h-1.833V64.281z"/>
		<path fill="#010101" d="M198.963,64.281h0.752l0.964,3.281l-0.965,0.322c-0.387-0.88-0.928-1.571-1.625-2.075
			s-1.403-0.756-2.117-0.756c-0.551,0-0.998,0.134-1.341,0.402s-0.515,0.578-0.515,0.928c0,0.329,0.125,0.611,0.375,0.847
			c0.243,0.243,0.79,0.519,1.641,0.825l2.091,0.74c1.18,0.422,1.984,0.872,2.413,1.351c0.422,0.486,0.633,1.037,0.633,1.651
			c0,0.522-0.157,1.024-0.472,1.507c-0.315,0.482-0.771,0.867-1.367,1.152c-0.598,0.286-1.282,0.43-2.054,0.43
			c-1.201,0-2.23-0.344-3.088-1.031l-0.226,0.773h-0.764l-1.338-3.506l0.965-0.387c0.651,1.029,1.268,1.759,1.848,2.188
			c0.809,0.607,1.683,0.911,2.62,0.911c0.623,0,1.135-0.166,1.536-0.498s0.602-0.702,0.602-1.11c0-0.336-0.125-0.643-0.375-0.922
			c-0.258-0.271-0.751-0.536-1.48-0.793L195.2,69.61c-1.065-0.386-1.805-0.808-2.22-1.265c-0.414-0.458-0.622-0.983-0.622-1.577
			c0-0.722,0.338-1.36,1.014-1.914c0.676-0.554,1.535-0.831,2.579-0.831c0.543,0,1.029,0.07,1.458,0.209s0.851,0.371,1.266,0.693
			L198.963,64.281z"/>
		<path fill="#010101" d="M212.302,71.862l0.687,0.558c-0.521,0.622-1.027,1.115-1.518,1.479c-0.489,0.365-0.952,0.62-1.388,0.767
			c-0.437,0.146-0.947,0.221-1.534,0.221c-1.051,0-1.944-0.215-2.681-0.644c-0.843-0.493-1.49-1.137-1.94-1.931
			c-0.45-0.793-0.676-1.729-0.676-2.809c0-1.13,0.218-2.095,0.654-2.896c0.436-0.801,1.046-1.432,1.828-1.893
			c0.783-0.461,1.688-0.691,2.719-0.691c0.765,0,1.43,0.119,1.994,0.358c0.564,0.239,1.044,0.599,1.437,1.08
			c0.394,0.481,0.68,1.032,0.858,1.653c0.1,0.364,0.157,0.834,0.171,1.412h-7.581c-0.021,0.352-0.032,0.613-0.032,0.785
			c0,0.902,0.157,1.706,0.473,2.412c0.314,0.705,0.73,1.225,1.249,1.558c0.518,0.333,1.105,0.5,1.764,0.5
			c0.558,0,1.098-0.131,1.619-0.392S211.559,72.62,212.302,71.862z M210.93,67.53c-0.107-0.657-0.259-1.144-0.456-1.458
			c-0.196-0.314-0.476-0.564-0.836-0.75c-0.361-0.186-0.767-0.279-1.217-0.279c-0.451,0-0.873,0.093-1.266,0.279
			c-0.394,0.186-0.721,0.443-0.981,0.772s-0.487,0.808-0.681,1.437H210.93z"/>
		<path fill="#010101" d="M214.554,65.814v-0.89c0.637-0.071,1.112-0.157,1.427-0.257s0.769-0.314,1.361-0.643h0.772v2.037
			c0.942-0.793,1.747-1.332,2.414-1.614c0.668-0.282,1.345-0.423,2.029-0.423c0.586,0,1.104,0.098,1.553,0.294
			c0.45,0.197,0.815,0.463,1.098,0.799c0.282,0.336,0.47,0.719,0.563,1.147c0.057,0.265,0.085,0.665,0.085,1.201v4.719
			c0,0.564,0.041,0.927,0.124,1.088c0.082,0.161,0.212,0.277,0.391,0.349s0.619,0.107,1.319,0.107v0.9h-5.512v-0.9h0.301
			c0.515,0,0.864-0.047,1.051-0.14c0.186-0.093,0.319-0.229,0.402-0.407c0.082-0.179,0.123-0.544,0.123-1.094v-3.946
			c0-0.814-0.066-1.379-0.198-1.694c-0.133-0.315-0.357-0.57-0.676-0.767c-0.318-0.196-0.721-0.295-1.206-0.295
			c-0.579,0-1.197,0.148-1.855,0.445c-0.657,0.296-1.294,0.734-1.908,1.313v4.943c0,0.558,0.041,0.929,0.123,1.115
			c0.082,0.186,0.216,0.325,0.402,0.418c0.128,0.071,0.472,0.107,1.029,0.107h0.311v0.9h-5.532v-0.9h0.27
			c0.531,0,0.895-0.045,1.089-0.135c0.194-0.089,0.331-0.248,0.41-0.477c0.043-0.114,0.064-0.508,0.064-1.18v-6.123H214.554z"/>
	</g>
</g>
<g>
	<defs>
		<rect id="SVGID_3_" x="13.534" y="53.88" width="255.12" height="25.8"/>
	</defs>
	<clipPath id="SVGID_24_">
		<use xlink:href="#SVGID_3_"  overflow="visible"/>
	</clipPath>
</g>
<g>
	<defs>
		<rect id="SVGID_2_" x="0.379" width="255.12" height="53.88"/>
	</defs>
	<clipPath id="SVGID_25_">
		<use xlink:href="#SVGID_2_"  overflow="visible"/>
	</clipPath>
	<g clip-path="url(#SVGID_25_)">
		<path fill="#010101" d="M17.708,25.928l-3.151,12.445c0.748,0.109,1.349,0.164,1.8,0.164c0.686,0,1.535-0.117,2.548-0.352
			l-0.234,1.148c-1.046,0.219-1.858,0.328-2.435,0.328c-0.609,0-1.506-0.055-2.692-0.164c-1.046-0.109-1.913-0.164-2.599-0.164
			c-1.249,0-2.693,0.18-4.332,0.539l0.352-1.313c1.718-0.438,2.834-0.867,3.35-1.289c0.78-0.672,1.381-1.852,1.803-3.539
			l3.277-13.102c0.406-1.672,0.609-2.656,0.609-2.953c0-0.281-0.098-0.492-0.292-0.633c-0.195-0.141-0.582-0.203-1.159-0.188
			l0.305-1.125c1.572-0.016,3.456-0.304,5.651-0.865c-0.188,0.594-0.43,1.469-0.728,2.625l-1.76,6.913
			c0.75,0.156,1.383,0.234,1.9,0.234c1.955,0,3.627-0.684,5.019-2.051s2.088-2.988,2.088-4.863c0-1.453-0.558-2.648-1.674-3.586
			c-1.116-0.938-2.634-1.406-4.553-1.406c-2.451,0-4.846,0.594-7.187,1.781c-2.341,1.188-4.098,2.66-5.268,4.418
			C7.175,20.69,6.59,22.53,6.59,24.452c0,1.453,0.602,2.703,1.805,3.75c0.609,0.516,0.984,0.891,1.125,1.125s0.211,0.484,0.211,0.75
			c0,0.328-0.122,0.613-0.365,0.855s-0.538,0.363-0.883,0.363c-0.848,0-1.602-0.492-2.261-1.477
			c-0.848-1.281-1.272-2.859-1.272-4.734c0-2.406,0.664-4.648,1.992-6.727s3.34-3.797,6.035-5.156s5.535-2.039,8.52-2.039
			c2.781,0,5.07,0.523,6.867,1.57s2.695,2.594,2.695,4.641c0,1.922-0.823,3.711-2.47,5.367s-3.913,2.719-6.8,3.188
			c0.718,1.438,1.178,2.406,1.381,2.906c0.327,0.844,0.827,2.266,1.498,4.266c1.577,4.685,3.209,7.984,4.896,9.898
			c1.25,1.401,2.601,2.102,4.053,2.102c1.499,0,2.459-0.676,2.881-2.027c0.25-0.854,0.484-1.383,0.703-1.585
			c0.297-0.279,0.633-0.419,1.008-0.419s0.69,0.133,0.948,0.398s0.387,0.586,0.387,0.961c0,0.969-0.531,1.891-1.593,2.766
			c-1.063,0.875-2.43,1.313-4.101,1.313c-1.515,0-2.964-0.366-4.346-1.099c-1.383-0.733-2.726-1.934-4.03-3.603
			c-1.304-1.668-2.44-3.671-3.408-6.01c-0.483-1.172-1.193-3.32-2.129-6.445c-0.562-1.906-0.912-3.047-1.053-3.422l-0.577-0.047
			C18.169,25.881,17.97,25.897,17.708,25.928z"/>
		<path fill="#010101" d="M44.911,19.624c1.531,0,2.805,0.609,3.82,1.828s1.523,2.914,1.523,5.086c0,3.469-1.219,6.582-3.656,9.34
			s-5.016,4.137-7.734,4.137c-1.672,0-3.02-0.547-4.043-1.641s-1.535-2.586-1.535-4.477c0-3.281,0.938-6.313,2.813-9.094
			C38.458,21.35,41.395,19.624,44.911,19.624z M42.918,21.381c-1.328,0-2.613,0.949-3.855,2.848s-1.863,4.52-1.863,7.863
			c0,2.031,0.383,3.633,1.148,4.805c0.563,0.859,1.313,1.289,2.25,1.289c1.313,0,2.508-0.813,3.586-2.438
			c1.375-2.109,2.063-4.727,2.063-7.852c0-2.344-0.316-4.016-0.949-5.016S43.872,21.381,42.918,21.381z"/>
		<path fill="#010101" d="M64.762,33.452l0.773,1.031c-3.828,3.641-7.109,5.461-9.844,5.461c-1.109,0-1.957-0.375-2.543-1.125
			s-0.879-1.953-0.879-3.609c0-3.344,1.016-6.672,3.047-9.984c2.281-3.766,5.008-5.648,8.18-5.648c1.109,0,1.957,0.277,2.543,0.832
			s0.879,1.316,0.879,2.285c0,1.016-0.352,2.016-1.055,3s-1.961,2.008-3.773,3.07c-0.906,0.516-2.844,1.445-5.813,2.789
			c-0.141,0.844-0.211,1.648-0.211,2.414c0,1.109,0.176,1.883,0.527,2.32s0.863,0.656,1.535,0.656c0.641,0,1.344-0.18,2.109-0.539
			C61.27,35.92,62.778,34.936,64.762,33.452z M56.559,30.053c2.516-1.125,4.406-2.336,5.672-3.633
			c0.859-0.906,1.289-1.805,1.289-2.695c0-0.672-0.176-1.207-0.527-1.605s-0.809-0.598-1.371-0.598
			c-0.578,0-1.141,0.219-1.688,0.656c-0.734,0.578-1.352,1.453-1.852,2.625C57.364,26.522,56.856,28.272,56.559,30.053z"/>
		<path fill="#010101" d="M78.543,33.686l0.797,0.844c-1.219,1.375-2.66,2.629-4.324,3.762s-3.035,1.699-4.113,1.699
			c-0.484,0-0.883-0.184-1.195-0.551s-0.469-0.871-0.469-1.512c0-1.25,0.483-3.844,1.451-7.781l2.528-10.289
			c0.92-3.719,1.693-6.211,2.317-7.477c0.968-1.915,2.337-3.401,4.107-4.459c1.771-1.058,3.64-1.587,5.606-1.587
			c0.671,0,1.197,0.162,1.58,0.484c0.382,0.323,0.573,0.712,0.573,1.168c0,0.504-0.187,0.917-0.561,1.239
			c-0.374,0.323-0.919,0.484-1.635,0.484c-0.467,0-1.129-0.078-1.985-0.234c-0.747-0.125-1.439-0.188-2.078-0.188
			s-1.121,0.132-1.448,0.396c-0.451,0.374-0.86,1.159-1.226,2.356c-0.366,1.197-0.962,3.561-1.787,7.091l-2.338,9.82
			c-1.156,4.922-1.734,7.492-1.734,7.711c0,0.5,0.18,0.75,0.539,0.75c0.344,0,0.844-0.203,1.5-0.609
			C75.948,35.991,77.246,34.952,78.543,33.686z"/>
		<path fill="#010101" d="M101.829,40.283l-0.853-11.335c-0.174-2.31-0.261-3.833-0.261-4.566c0-2.114,0.301-4.059,0.903-5.836
			c0.604-1.777,1.671-3.684,3.205-5.719c-1.825,0-3.686,0.438-5.582,1.315c-1.895,0.877-3.283,1.887-4.165,3.029
			s-1.322,2.293-1.322,3.452c0,0.532,0.16,1.096,0.481,1.691c0.414,0.751,0.62,1.323,0.62,1.714c0,0.36-0.108,0.65-0.326,0.869
			c-0.217,0.219-0.496,0.329-0.837,0.329c-0.496,0-0.931-0.258-1.303-0.773c-0.466-0.688-0.698-1.539-0.698-2.555
			c0-1.906,0.718-3.742,2.154-5.508s3.403-3.07,5.9-3.914c1.608-0.547,3.949-0.922,7.024-1.125c0.828-0.063,1.671-0.141,2.529-0.234
			c-2.112,3.094-3.489,5.676-4.131,7.746s-0.962,4.879-0.962,8.426c0,2.721,0.141,5.206,0.423,7.457l4.506-4.807l3.85-3.939
			c3.879-3.984,6.492-7.125,7.837-9.422c1.017-1.734,1.525-3.313,1.525-4.734c0-0.781-0.18-1.641-0.539-2.578
			c-0.234-0.594-0.352-1.047-0.352-1.359c0-0.422,0.16-0.789,0.48-1.102s0.699-0.469,1.137-0.469c0.594,0,1.094,0.305,1.5,0.914
			s0.609,1.563,0.609,2.859c0,1.266-0.266,2.605-0.798,4.02c-0.531,1.414-1.65,3.215-3.354,5.402
			c-1.705,2.188-4.34,5.086-7.905,8.695C109.391,32.002,105.625,36.022,101.829,40.283z"/>
		<path fill="#010101" d="M133.2,19.624c1.531,0,2.805,0.609,3.82,1.828s1.523,2.914,1.523,5.086c0,3.469-1.219,6.582-3.656,9.34
			s-5.016,4.137-7.734,4.137c-1.672,0-3.02-0.547-4.043-1.641s-1.535-2.586-1.535-4.477c0-3.281,0.938-6.313,2.813-9.094
			C126.747,21.35,129.684,19.624,133.2,19.624z M131.208,21.381c-1.328,0-2.613,0.949-3.855,2.848s-1.863,4.52-1.863,7.863
			c0,2.031,0.383,3.633,1.148,4.805c0.563,0.859,1.313,1.289,2.25,1.289c1.313,0,2.508-0.813,3.586-2.438
			c1.375-2.109,2.063-4.727,2.063-7.852c0-2.344-0.316-4.016-0.949-5.016S132.161,21.381,131.208,21.381z"/>
		<path fill="#010101" d="M151.059,19.624c1.391,0,2.465,0.27,3.223,0.809s1.137,1.16,1.137,1.863c0,0.422-0.16,0.789-0.48,1.102
			s-0.707,0.469-1.16,0.469c-0.297,0-0.555-0.066-0.773-0.199s-0.531-0.465-0.938-0.996c-0.766-1.016-1.523-1.523-2.273-1.523
			c-0.641,0-1.207,0.246-1.699,0.737c-0.492,0.492-0.738,1.104-0.738,1.837c0,0.64,0.156,1.261,0.469,1.861
			c0.313,0.601,1.102,1.572,2.367,2.915c1.734,1.841,2.602,3.589,2.602,5.243s-0.703,3.102-2.109,4.343
			c-1.406,1.24-3.219,1.86-5.438,1.86c-1.859,0-3.242-0.379-4.148-1.137s-1.359-1.691-1.359-2.801c0-0.547,0.172-1,0.516-1.359
			s0.766-0.539,1.266-0.539c0.438,0,0.813,0.145,1.125,0.434s0.469,0.629,0.469,1.02c0,0.156-0.011,0.359-0.031,0.609
			c-0.011,0.203-0.016,0.375-0.016,0.516c0,0.516,0.218,0.953,0.654,1.313c0.42,0.359,0.996,0.539,1.728,0.539
			c0.841,0,1.581-0.145,2.219-0.433c0.639-0.289,1.137-0.726,1.495-1.312c0.358-0.585,0.537-1.166,0.537-1.744
			c0-0.562-0.168-1.123-0.504-1.685s-1.09-1.491-2.262-2.786c-1.625-1.811-2.438-3.55-2.438-5.22c0-1.529,0.617-2.868,1.852-4.015
			C147.583,20.197,149.153,19.624,151.059,19.624z"/>
		<path fill="#010101" d="M159.754,39.334h-3.492l3.07-12.773c1.484-6.335,2.457-10.238,2.918-11.709
			c0.461-1.47,1.016-2.683,1.664-3.637s1.461-1.807,2.438-2.558s2.031-1.326,3.164-1.725s2.129-0.599,2.988-0.599
			c0.813,0,1.418,0.156,1.816,0.469s0.598,0.727,0.598,1.242c0,0.438-0.18,0.813-0.539,1.125c-0.358,0.313-0.812,0.469-1.357,0.469
			c-0.688,0-1.725-0.117-3.114-0.352c-0.452-0.094-0.851-0.141-1.194-0.141c-0.483,0-0.94,0.172-1.369,0.517
			c-0.43,0.345-0.813,0.96-1.147,1.845c-0.336,0.886-0.808,2.723-1.417,5.513l-1.684,7.475c1.501-1.702,3.058-3.015,4.668-3.936
			c1.22-0.687,2.385-1.031,3.495-1.031c0.782,0,1.442,0.293,1.982,0.879s0.81,1.324,0.81,2.215c0,1.672-0.867,3.164-2.602,4.477
			s-4.383,2.016-7.945,2.109c1.203,0.532,2.164,1.115,2.883,1.749c0.719,0.633,1.426,1.51,2.121,2.628
			c0.695,1.119,1.59,2.992,2.684,5.621c1.297,3.129,2.5,5.209,3.609,6.242c1.094,1.032,2.297,1.549,3.609,1.549
			c0.766,0,1.398-0.168,1.898-0.504s0.75-0.676,0.75-1.02c0-0.219-0.078-0.516-0.234-0.891c-0.172-0.406-0.258-0.75-0.258-1.031
			c0-0.359,0.141-0.68,0.422-0.961s0.609-0.422,0.984-0.422c0.438,0,0.813,0.176,1.125,0.527s0.469,0.816,0.469,1.395
			c0,1.125-0.516,2.125-1.547,3s-2.375,1.313-4.031,1.313c-1.703,0-3.227-0.431-4.57-1.291s-2.602-2.236-3.773-4.129
			c-0.672-1.096-1.844-3.59-3.516-7.485c-0.78-1.846-1.482-3.23-2.105-4.153c-0.484-0.72-1.146-1.432-1.989-2.135L159.754,39.334z
			 M162.256,28.225c2.1,0.016,3.799-0.188,5.098-0.609c1.298-0.422,2.224-0.984,2.775-1.688s0.828-1.469,0.828-2.297
			c0-0.594-0.16-1.07-0.479-1.43c-0.32-0.359-0.706-0.539-1.158-0.539c-1.466,0-3.713,1.636-6.738,4.906L162.256,28.225z"/>
		<path fill="#010101" d="M193.223,19.225l1.547-0.328l-1.758,5.93c-0.703,2.359-1.367,5.078-1.992,8.156
			c-0.344,1.672-0.516,2.75-0.516,3.234s0.195,0.727,0.586,0.727c0.25,0,0.648-0.164,1.195-0.492
			c0.969-0.578,1.898-1.297,2.789-2.156l0.75,0.914c-1.781,1.625-2.922,2.609-3.422,2.953c-1,0.688-1.953,1.195-2.859,1.523
			c-0.594,0.219-1.172,0.328-1.734,0.328c-0.406,0-0.711-0.094-0.914-0.281s-0.305-0.461-0.305-0.82
			c0-0.234,0.063-0.555,0.188-0.961l0.938-3.188c-1.344,1.609-2.945,2.992-4.805,4.148c-1.141,0.719-2.188,1.078-3.141,1.078
			c-0.906,0-1.602-0.32-2.086-0.961c-0.656-0.859-0.984-1.984-0.984-3.375c0-1.656,0.441-3.5,1.324-5.531s2.066-3.875,3.551-5.531
			s3.047-2.875,4.688-3.656c1.266-0.594,2.891-0.891,4.875-0.891c0.5,0,1.008,0.031,1.523,0.094L193.223,19.225z M190.317,22.811
			c-0.844-0.172-1.555-0.258-2.133-0.258c-1.406,0-2.633,0.387-3.68,1.16s-2.02,2.164-2.918,4.172s-1.348,4.012-1.348,6.012
			c0,1.063,0.18,1.828,0.539,2.297s0.828,0.703,1.406,0.703c1.078,0,2.234-0.582,3.469-1.746s2.141-2.84,2.719-5.027L190.317,22.811
			z"/>
		<path fill="#010101" d="M198.028,25.014l-0.703-0.938c1.547-1.547,3.017-2.688,4.41-3.422c1.395-0.734,2.492-1.102,3.293-1.102
			c0.33,0,0.577,0.07,0.741,0.211s0.247,0.336,0.247,0.586c0,0.313-0.126,0.914-0.375,1.805c-0.36,1.313-0.61,2.352-0.751,3.117
			c3.739-3.813,6.6-5.719,8.578-5.719c0.515,0,0.904,0.141,1.169,0.422s0.397,0.727,0.397,1.336c0,0.656-0.234,1.773-0.702,3.352
			c1.783-1.859,3.331-3.176,4.645-3.949s2.338-1.16,3.072-1.16c0.657,0,1.165,0.188,1.525,0.563
			c0.359,0.375,0.539,0.953,0.539,1.734c0,0.469-0.078,1.023-0.234,1.664s-0.727,2.594-1.711,5.859
			c-1.234,4.047-1.852,6.461-1.852,7.242c0,0.531,0.219,0.797,0.656,0.797c0.297,0,0.586-0.094,0.867-0.281
			c0.922-0.656,1.867-1.469,2.836-2.438l0.773,0.844c-0.328,0.266-0.945,0.813-1.852,1.641c-1.25,1.125-2.109,1.828-2.578,2.109
			c-0.906,0.531-1.672,0.797-2.297,0.797c-0.469,0-0.883-0.23-1.242-0.691s-0.539-1.098-0.539-1.91c0-0.75,0.109-1.629,0.328-2.637
			s0.859-3.27,1.922-6.785c0.797-2.641,1.195-4.242,1.195-4.805c0-0.531-0.234-0.797-0.703-0.797c-0.391,0-0.914,0.195-1.57,0.586
			c-1.344,0.813-2.469,1.805-3.375,2.977c-0.625,0.813-1.172,2.102-1.641,3.867c-1.047,3.859-1.828,7.008-2.344,9.445h-3.328
			l3.492-14.32c0.25-1.031,0.375-1.625,0.375-1.781c0-0.25-0.063-0.441-0.188-0.574s-0.304-0.199-0.538-0.199
			c-0.421,0-1.076,0.328-1.966,0.984c-1.544,1.109-2.655,2.184-3.334,3.223s-1.26,2.621-1.742,4.746l-1.803,7.922h-3.367
			l2.648-11.18c0.781-3.234,1.172-4.992,1.172-5.273c0-0.359-0.141-0.539-0.422-0.539C201.145,22.342,199.903,23.233,198.028,25.014
			z"/>
		<path fill="#010101" d="M227.512,25.436l-0.914-0.938c1.422-1.703,2.836-2.961,4.242-3.773s2.625-1.219,3.656-1.219
			c0.391,0,0.699,0.098,0.926,0.293s0.34,0.48,0.34,0.855c0,0.453-0.051,0.918-0.152,1.395s-0.418,1.605-0.949,3.387
			c2.391-2.391,4.023-3.867,4.898-4.43c1.469-0.953,2.813-1.43,4.031-1.43c0.797,0,1.469,0.375,2.016,1.125s0.82,1.883,0.82,3.398
			c0,3.781-1.179,7.375-3.536,10.781c-2.358,3.406-4.966,5.109-7.823,5.109c-1.124,0-2.248-0.305-3.372-0.914l-2.003,7.734
			c-0.125,0.469-0.188,0.852-0.188,1.148c0,0.578,0.219,0.992,0.656,1.242c0.672,0.391,2.086,0.711,4.242,0.961l-0.305,1.172
			c-2.516-0.203-4.492-0.305-5.93-0.305c-1.484,0-3.406,0.102-5.766,0.305l0.305-1.172c1.188-0.125,2.051-0.453,2.59-0.984
			s0.973-1.477,1.301-2.836l4.242-17.789c0.797-3.313,1.195-5.156,1.195-5.531c0-0.406-0.195-0.609-0.586-0.609
			C230.762,22.413,229.45,23.42,227.512,25.436z M232.26,36.499c1.232,1.234,2.497,1.852,3.792,1.852
			c1.873,0,3.516-1.461,4.928-4.383s2.118-5.773,2.118-8.555c0-0.891-0.199-1.566-0.597-2.027s-0.932-0.691-1.602-0.691
			c-0.749,0-1.591,0.367-2.526,1.102c-1.449,1.141-2.557,2.273-3.32,3.398c-0.546,0.813-1.061,2.219-1.544,4.219L232.26,36.499z"/>
	</g>
</g>
<g>
	<defs>
		<rect id="SVGID_1_" x="0.379" width="255.12" height="53.88"/>
	</defs>
	<clipPath id="SVGID_26_">
		<use xlink:href="#SVGID_1_"  overflow="visible"/>
	</clipPath>
</g>
</svg>
