<?xml version="1.0" encoding="utf-8"?>
<!-- Generator: Adobe Illustrator 14.0.0, SVG Export Plug-In . SVG Version: 6.00 Build 43363)  -->
<!DOCTYPE svg PUBLIC "-//W3C//DTD SVG 1.1//EN" "http://www.w3.org/Graphics/SVG/1.1/DTD/svg11.dtd">
<svg version="1.1" xmlns="http://www.w3.org/2000/svg" xmlns:xlink="http://www.w3.org/1999/xlink" x="0px" y="0px"
	 width="189.068px" height="127.559px" viewBox="0 0 189.068 127.559" enable-background="new 0 0 189.068 127.559"
	 xml:space="preserve">
<g id="Layer_1">
	<rect x="-104.752" y="0.167" fill="none" width="368.504" height="127.559"/>
	<circle fill-rule="evenodd" clip-rule="evenodd" fill="#80C8CB" cx="95" cy="63.667" r="63.5"/>
</g>
<g id="Layer_2">
	<g>
		<path d="M15.025,39.318l-2.313,9.138c0.549,0.081,0.99,0.121,1.322,0.121c0.503,0,1.127-0.086,1.872-0.258l-0.172,0.843
			c-0.768,0.161-1.364,0.241-1.788,0.241c-0.447,0-1.106-0.04-1.977-0.12c-0.768-0.081-1.404-0.121-1.908-0.121
			c-0.917,0-1.977,0.132-3.18,0.396l0.258-0.964c1.261-0.321,2.081-0.637,2.459-0.946c0.573-0.493,1.014-1.36,1.324-2.599
			l2.406-9.62c0.298-1.228,0.447-1.95,0.447-2.168c0-0.207-0.072-0.361-0.215-0.464c-0.143-0.104-0.427-0.149-0.851-0.138
			l0.224-0.826c1.154-0.011,2.538-0.223,4.149-0.635c-0.138,0.436-0.316,1.078-0.534,1.927l-1.292,5.076
			c0.551,0.115,1.016,0.172,1.395,0.172c1.435,0,2.664-0.501,3.686-1.505c1.022-1.004,1.533-2.194,1.533-3.571
			c0-1.067-0.41-1.945-1.229-2.633c-0.819-0.688-1.934-1.032-3.343-1.032c-1.799,0-3.559,0.436-5.277,1.308
			c-1.719,0.872-3.008,1.953-3.868,3.244c-0.859,1.291-1.289,2.641-1.289,4.052c0,1.067,0.441,1.985,1.325,2.753
			c0.447,0.379,0.723,0.654,0.826,0.826c0.103,0.172,0.155,0.356,0.155,0.551c0,0.241-0.09,0.45-0.268,0.628
			c-0.179,0.178-0.395,0.267-0.648,0.267c-0.623,0-1.176-0.362-1.66-1.084c-0.623-0.94-0.934-2.1-0.934-3.476
			c0-1.767,0.488-3.413,1.463-4.939c0.975-1.525,2.452-2.788,4.431-3.786c1.979-0.999,4.064-1.498,6.255-1.498
			c2.042,0,3.723,0.385,5.042,1.153s1.979,1.904,1.979,3.407c0,1.411-0.604,2.725-1.813,3.941c-1.209,1.216-2.873,1.996-4.993,2.34
			c0.527,1.056,0.865,1.767,1.014,2.134c0.24,0.62,0.607,1.664,1.1,3.132c1.158,3.44,2.356,5.862,3.595,7.268
			c0.917,1.028,1.909,1.543,2.976,1.543c1.101,0,1.806-0.497,2.116-1.489c0.184-0.627,0.355-1.015,0.516-1.163
			c0.218-0.206,0.464-0.308,0.74-0.308c0.275,0,0.507,0.097,0.696,0.292c0.189,0.195,0.284,0.43,0.284,0.706
			c0,0.711-0.39,1.388-1.17,2.031c-0.779,0.642-1.783,0.963-3.01,0.963c-1.113,0-2.177-0.269-3.191-0.807
			c-1.015-0.539-2.001-1.42-2.958-2.645c-0.958-1.225-1.792-2.696-2.503-4.413c-0.355-0.86-0.876-2.438-1.563-4.732
			c-0.412-1.399-0.67-2.237-0.773-2.512l-0.423-0.035C15.364,39.283,15.217,39.295,15.025,39.318z"/>
		<path d="M34.999,34.688c1.124,0,2.059,0.448,2.805,1.342c0.746,0.895,1.119,2.14,1.119,3.734c0,2.547-0.895,4.833-2.685,6.858
			c-1.79,2.025-3.683,3.037-5.679,3.037c-1.228,0-2.217-0.402-2.968-1.205c-0.751-0.803-1.127-1.898-1.127-3.287
			c0-2.41,0.688-4.635,2.065-6.677C30.26,35.957,32.417,34.688,34.999,34.688z M33.536,35.979c-0.975,0-1.918,0.697-2.831,2.091
			c-0.912,1.394-1.368,3.318-1.368,5.773c0,1.491,0.281,2.667,0.843,3.528c0.413,0.631,0.964,0.946,1.652,0.946
			c0.964,0,1.841-0.596,2.633-1.79c1.009-1.549,1.514-3.47,1.514-5.765c0-1.721-0.232-2.948-0.697-3.683
			C34.818,36.347,34.235,35.979,33.536,35.979z"/>
		<path d="M49.574,44.842l0.568,0.757c-2.811,2.673-5.22,4.009-7.228,4.009c-0.815,0-1.437-0.275-1.867-0.826
			c-0.43-0.551-0.646-1.434-0.646-2.65c0-2.455,0.746-4.898,2.237-7.331c1.675-2.765,3.677-4.147,6.006-4.147
			c0.814,0,1.437,0.204,1.867,0.611s0.645,0.967,0.645,1.678c0,0.746-0.258,1.48-0.774,2.203c-0.516,0.723-1.44,1.475-2.771,2.254
			c-0.666,0.379-2.088,1.062-4.268,2.048c-0.104,0.62-0.155,1.21-0.155,1.772c0,0.815,0.129,1.383,0.387,1.704
			c0.258,0.321,0.634,0.482,1.127,0.482c0.47,0,0.986-0.132,1.549-0.396C47.01,46.655,48.117,45.932,49.574,44.842z M43.551,42.347
			c1.847-0.826,3.235-1.715,4.165-2.667c0.63-0.665,0.946-1.325,0.946-1.979c0-0.493-0.129-0.886-0.387-1.179
			s-0.594-0.439-1.007-0.439c-0.424,0-0.837,0.161-1.239,0.482c-0.54,0.424-0.993,1.067-1.359,1.927
			C44.142,39.754,43.769,41.039,43.551,42.347z"/>
		<path d="M59.693,45.014l0.585,0.62c-0.895,1.01-1.953,1.93-3.175,2.762c-1.222,0.832-2.229,1.248-3.02,1.248
			c-0.355,0-0.648-0.135-0.877-0.404c-0.229-0.27-0.344-0.64-0.344-1.11c0-0.917,0.355-2.822,1.065-5.713l1.856-7.555
			c0.676-2.73,1.243-4.561,1.701-5.49c0.71-1.406,1.716-2.497,3.016-3.274c1.3-0.777,2.672-1.166,4.117-1.166
			c0.492,0,0.879,0.119,1.16,0.355s0.421,0.522,0.421,0.857c0,0.37-0.138,0.673-0.412,0.91c-0.274,0.237-0.675,0.355-1.2,0.355
			c-0.343,0-0.829-0.057-1.458-0.172c-0.549-0.092-1.058-0.138-1.526-0.138s-0.823,0.097-1.063,0.291
			c-0.332,0.274-0.632,0.851-0.9,1.73c-0.269,0.879-0.706,2.615-1.312,5.207l-1.717,7.21c-0.849,3.614-1.273,5.501-1.273,5.662
			c0,0.367,0.131,0.551,0.396,0.551c0.252,0,0.62-0.149,1.102-0.447C57.787,46.706,58.74,45.943,59.693,45.014z"/>
		<path d="M76.79,49.857l-0.626-8.322c-0.127-1.697-0.191-2.814-0.191-3.353c0-1.552,0.221-2.98,0.664-4.285
			c0.442-1.305,1.227-2.705,2.353-4.199c-1.34,0-2.707,0.322-4.099,0.965c-1.392,0.644-2.411,1.385-3.059,2.224
			c-0.647,0.839-0.97,1.684-0.97,2.535c0,0.391,0.118,0.805,0.354,1.241c0.303,0.552,0.455,0.972,0.455,1.259
			c0,0.265-0.08,0.477-0.239,0.638c-0.16,0.161-0.364,0.241-0.615,0.241c-0.365,0-0.684-0.189-0.957-0.568
			c-0.342-0.504-0.513-1.13-0.513-1.875c0-1.399,0.527-2.748,1.582-4.044s2.499-2.254,4.333-2.874
			c1.181-0.401,2.9-0.677,5.157-0.826c0.607-0.045,1.227-0.103,1.857-0.172c-1.551,2.271-2.562,4.167-3.033,5.688
			s-0.707,3.583-0.707,6.187c0,1.997,0.104,3.822,0.311,5.475l3.309-3.529l2.825-2.892c2.85-2.926,4.768-5.231,5.756-6.918
			c0.746-1.273,1.119-2.432,1.119-3.477c0-0.573-0.132-1.205-0.396-1.893c-0.173-0.436-0.259-0.769-0.259-0.998
			c0-0.31,0.118-0.58,0.354-0.809c0.234-0.229,0.514-0.344,0.834-0.344c0.436,0,0.803,0.224,1.102,0.671
			c0.299,0.447,0.447,1.147,0.447,2.099c0,0.93-0.195,1.914-0.586,2.952s-1.211,2.36-2.463,3.966
			c-1.252,1.606-3.186,3.734-5.805,6.385C82.342,43.778,79.577,46.729,76.79,49.857z"/>
		<path d="M99.824,34.688c1.123,0,2.059,0.448,2.805,1.342c0.744,0.895,1.117,2.14,1.117,3.734c0,2.547-0.895,4.833-2.684,6.858
			s-3.684,3.037-5.68,3.037c-1.227,0-2.217-0.402-2.969-1.205c-0.75-0.803-1.127-1.898-1.127-3.287c0-2.41,0.689-4.635,2.066-6.677
			C95.086,35.957,97.242,34.688,99.824,34.688z M98.361,35.979c-0.977,0-1.92,0.697-2.832,2.091
			c-0.912,1.394-1.367,3.318-1.367,5.773c0,1.491,0.281,2.667,0.842,3.528c0.414,0.631,0.965,0.946,1.652,0.946
			c0.965,0,1.842-0.596,2.633-1.79c1.01-1.549,1.516-3.47,1.516-5.765c0-1.721-0.232-2.948-0.697-3.683
			C99.643,36.347,99.061,35.979,98.361,35.979z"/>
		<path d="M112.936,34.688c1.021,0,1.811,0.198,2.367,0.594c0.557,0.396,0.834,0.852,0.834,1.368c0,0.31-0.117,0.58-0.354,0.809
			c-0.234,0.23-0.518,0.344-0.852,0.344c-0.217,0-0.406-0.048-0.566-0.146c-0.162-0.098-0.391-0.341-0.689-0.731
			c-0.563-0.746-1.119-1.119-1.668-1.119c-0.471,0-0.887,0.181-1.248,0.542s-0.543,0.811-0.543,1.349
			c0,0.47,0.115,0.925,0.344,1.366c0.23,0.441,0.811,1.155,1.738,2.14c1.273,1.352,1.91,2.636,1.91,3.85
			c0,1.215-0.516,2.278-1.549,3.188c-1.031,0.911-2.363,1.366-3.992,1.366c-1.365,0-2.381-0.278-3.045-0.834
			c-0.666-0.556-0.998-1.242-0.998-2.057c0-0.401,0.125-0.734,0.377-0.998c0.254-0.264,0.563-0.396,0.93-0.396
			c0.322,0,0.598,0.106,0.826,0.318c0.23,0.212,0.344,0.462,0.344,0.749c0,0.115-0.008,0.264-0.021,0.447
			c-0.008,0.149-0.012,0.275-0.012,0.378c0,0.379,0.16,0.7,0.48,0.964c0.309,0.264,0.73,0.396,1.268,0.396
			c0.617,0,1.16-0.106,1.629-0.318s0.836-0.533,1.098-0.963c0.264-0.43,0.395-0.856,0.395-1.28c0-0.413-0.123-0.825-0.369-1.237
			c-0.248-0.413-0.801-1.094-1.66-2.045c-1.193-1.329-1.791-2.606-1.791-3.833c0-1.123,0.453-2.105,1.359-2.948
			C110.383,35.11,111.537,34.688,112.936,34.688z"/>
		<path d="M119.32,49.161h-2.564l2.254-9.379c1.09-4.651,1.805-7.517,2.143-8.597c0.34-1.08,0.746-1.97,1.223-2.67
			s1.072-1.327,1.789-1.878s1.492-0.974,2.324-1.267s1.563-0.439,2.193-0.439c0.596,0,1.041,0.115,1.334,0.344
			s0.439,0.534,0.439,0.912c0,0.321-0.133,0.597-0.396,0.826s-0.596,0.344-0.996,0.344c-0.506,0-1.268-0.086-2.287-0.258
			c-0.332-0.069-0.625-0.103-0.877-0.103c-0.355,0-0.689,0.126-1.006,0.379c-0.314,0.253-0.596,0.705-0.842,1.355
			c-0.246,0.65-0.594,2-1.041,4.047l-1.236,5.488c1.104-1.25,2.246-2.213,3.428-2.89c0.896-0.504,1.752-0.757,2.566-0.757
			c0.574,0,1.059,0.215,1.455,0.646s0.596,0.972,0.596,1.626c0,1.228-0.637,2.323-1.91,3.287s-3.219,1.48-5.834,1.549
			c0.883,0.391,1.588,0.819,2.115,1.284c0.529,0.465,1.047,1.109,1.559,1.93c0.51,0.821,1.166,2.197,1.971,4.126
			c0.951,2.297,1.834,3.825,2.65,4.583c0.803,0.758,1.686,1.138,2.648,1.138c0.563,0,1.027-0.124,1.395-0.37
			c0.367-0.247,0.551-0.497,0.551-0.749c0-0.161-0.057-0.379-0.172-0.654c-0.127-0.299-0.189-0.551-0.189-0.757
			c0-0.264,0.104-0.499,0.311-0.706c0.205-0.207,0.447-0.31,0.723-0.31c0.32,0,0.596,0.129,0.826,0.387
			c0.229,0.258,0.344,0.6,0.344,1.024c0,0.826-0.379,1.56-1.137,2.203c-0.756,0.642-1.744,0.963-2.959,0.963
			c-1.25,0-2.369-0.316-3.355-0.947c-0.988-0.632-1.91-1.643-2.771-3.032c-0.492-0.804-1.354-2.636-2.58-5.496
			c-0.574-1.355-1.09-2.372-1.547-3.049c-0.355-0.528-0.842-1.051-1.461-1.568L119.32,49.161z M121.158,41.004
			c1.541,0.011,2.789-0.138,3.742-0.448c0.953-0.31,1.633-0.723,2.037-1.239c0.406-0.517,0.609-1.078,0.609-1.687
			c0-0.436-0.119-0.786-0.354-1.05c-0.234-0.264-0.518-0.396-0.85-0.396c-1.076,0-2.727,1.201-4.947,3.603L121.158,41.004z"/>
		<path d="M143.895,34.396l1.135-0.241l-1.291,4.354c-0.516,1.732-1.004,3.729-1.461,5.989c-0.254,1.228-0.379,2.02-0.379,2.375
			s0.143,0.533,0.43,0.533c0.184,0,0.477-0.121,0.877-0.361c0.713-0.424,1.395-0.952,2.049-1.583l0.551,0.671
			c-1.309,1.193-2.146,1.916-2.514,2.168c-0.734,0.505-1.434,0.877-2.098,1.119c-0.438,0.16-0.861,0.241-1.273,0.241
			c-0.299,0-0.523-0.069-0.672-0.207s-0.225-0.338-0.225-0.602c0-0.172,0.047-0.407,0.139-0.706l0.688-2.34
			c-0.986,1.182-2.162,2.197-3.527,3.046c-0.838,0.527-1.605,0.792-2.307,0.792c-0.664,0-1.176-0.235-1.531-0.706
			c-0.48-0.631-0.723-1.457-0.723-2.478c0-1.216,0.324-2.57,0.973-4.062c0.648-1.491,1.518-2.845,2.607-4.061
			c1.09-1.216,2.236-2.111,3.441-2.685c0.93-0.436,2.123-0.654,3.58-0.654c0.367,0,0.74,0.023,1.117,0.069L143.895,34.396z
			 M141.76,37.029c-0.619-0.126-1.141-0.189-1.564-0.189c-1.033,0-1.934,0.284-2.703,0.852c-0.768,0.568-1.482,1.589-2.143,3.063
			s-0.988,2.945-0.988,4.414c0,0.78,0.131,1.342,0.395,1.686c0.264,0.344,0.609,0.517,1.033,0.517c0.791,0,1.641-0.427,2.547-1.282
			c0.906-0.854,1.572-2.085,1.996-3.691L141.76,37.029z"/>
		<path d="M147.422,38.646l-0.516-0.688c1.135-1.136,2.215-1.973,3.238-2.513c1.023-0.539,1.83-0.809,2.418-0.809
			c0.242,0,0.424,0.051,0.543,0.155c0.121,0.103,0.182,0.247,0.182,0.43c0,0.229-0.092,0.671-0.275,1.325
			c-0.264,0.963-0.447,1.727-0.551,2.289c2.746-2.799,4.846-4.199,6.299-4.199c0.377,0,0.664,0.103,0.857,0.31
			c0.195,0.207,0.293,0.533,0.293,0.981c0,0.482-0.172,1.302-0.516,2.461c1.309-1.365,2.445-2.332,3.41-2.9
			c0.963-0.568,1.715-0.852,2.256-0.852c0.482,0,0.855,0.138,1.119,0.413c0.264,0.275,0.396,0.7,0.396,1.273
			c0,0.344-0.059,0.752-0.172,1.222c-0.115,0.47-0.535,1.904-1.258,4.302c-0.906,2.971-1.359,4.744-1.359,5.317
			c0,0.39,0.162,0.585,0.482,0.585c0.219,0,0.43-0.069,0.637-0.207c0.678-0.482,1.371-1.078,2.082-1.79l0.568,0.62
			c-0.24,0.195-0.695,0.597-1.359,1.205c-0.918,0.826-1.549,1.342-1.893,1.549c-0.666,0.39-1.229,0.585-1.688,0.585
			c-0.344,0-0.648-0.169-0.912-0.508s-0.395-0.806-0.395-1.402c0-0.551,0.08-1.196,0.24-1.936c0.16-0.74,0.631-2.401,1.41-4.982
			c0.586-1.938,0.879-3.115,0.879-3.528c0-0.39-0.172-0.585-0.518-0.585c-0.285,0-0.67,0.144-1.152,0.43
			c-0.986,0.597-1.813,1.325-2.479,2.186c-0.459,0.597-0.859,1.543-1.203,2.839c-0.77,2.834-1.344,5.146-1.721,6.935h-2.445
			l2.564-10.515c0.184-0.757,0.275-1.193,0.275-1.308c0-0.184-0.045-0.324-0.137-0.422c-0.092-0.097-0.225-0.146-0.396-0.146
			c-0.309,0-0.789,0.241-1.441,0.723c-1.135,0.815-1.951,1.604-2.449,2.366c-0.498,0.763-0.924,1.925-1.279,3.485l-1.322,5.816
			h-2.473l1.943-8.208c0.574-2.375,0.861-3.666,0.861-3.872c0-0.264-0.104-0.396-0.311-0.396
			C149.711,36.685,148.799,37.339,147.422,38.646z"/>
		<path d="M169.072,38.957l-0.672-0.688c1.043-1.25,2.082-2.174,3.115-2.771c1.031-0.597,1.926-0.895,2.684-0.895
			c0.287,0,0.514,0.072,0.68,0.215s0.25,0.353,0.25,0.628c0,0.333-0.037,0.674-0.111,1.024c-0.076,0.35-0.309,1.179-0.697,2.487
			c1.756-1.755,2.953-2.839,3.596-3.252c1.078-0.7,2.066-1.05,2.961-1.05c0.584,0,1.078,0.275,1.479,0.826
			c0.402,0.551,0.604,1.383,0.604,2.496c0,2.776-0.865,5.415-2.598,7.916c-1.73,2.501-3.645,3.751-5.742,3.751
			c-0.826,0-1.652-0.224-2.477-0.671l-1.471,5.679c-0.092,0.344-0.139,0.625-0.139,0.843c0,0.424,0.162,0.728,0.482,0.912
			c0.494,0.287,1.531,0.522,3.115,0.706l-0.225,0.861c-1.846-0.149-3.297-0.224-4.354-0.224c-1.09,0-2.5,0.075-4.232,0.224
			l0.223-0.861c0.873-0.092,1.506-0.333,1.902-0.723s0.715-1.084,0.955-2.082l3.115-13.062c0.584-2.432,0.877-3.786,0.877-4.061
			c0-0.298-0.145-0.448-0.43-0.448C171.457,36.736,170.494,37.477,169.072,38.957z M172.559,47.079
			c0.904,0.906,1.832,1.359,2.783,1.359c1.375,0,2.58-1.073,3.617-3.218c1.037-2.145,1.557-4.239,1.557-6.281
			c0-0.654-0.146-1.15-0.439-1.488c-0.291-0.338-0.684-0.508-1.176-0.508c-0.549,0-1.168,0.27-1.854,0.809
			c-1.064,0.837-1.879,1.669-2.439,2.495c-0.4,0.597-0.777,1.629-1.133,3.098L172.559,47.079z"/>
	</g>
	<g>
		<path d="M24.171,79.664l-0.152,0.668c-0.398,0.047-0.703,0.07-0.914,0.07c-0.336,0-0.781-0.027-1.336-0.082
			c-0.594-0.055-1.102-0.082-1.523-0.082c-0.336,0-0.684,0.055-1.043,0.164c0.316-0.899,0.684-2.148,1.099-3.747l0.901-3.519
			l-3.17,0.117c-0.556,0.031-1.127,0.074-1.714,0.129c-0.529,2.086-1.075,3.629-1.638,4.629s-1.206,1.736-1.929,2.209
			s-1.416,0.709-2.081,0.709c-0.648,0-1.203-0.156-1.665-0.469c-0.336-0.219-0.504-0.492-0.504-0.82
			c0-0.195,0.066-0.361,0.199-0.498s0.293-0.205,0.48-0.205c0.305,0,0.617,0.215,0.938,0.645c0.195,0.258,0.354,0.424,0.475,0.498
			s0.256,0.111,0.404,0.111c0.609,0,1.182-0.492,1.717-1.477s1.318-3.418,2.35-7.301l1.148-4.289c-1.563,0-2.736,0.258-3.521,0.773
			s-1.178,1.098-1.178,1.746c0,0.219,0.105,0.496,0.316,0.832c0.188,0.313,0.281,0.566,0.281,0.762c0,0.227-0.072,0.412-0.217,0.557
			s-0.326,0.217-0.545,0.217c-0.273,0-0.508-0.131-0.703-0.393s-0.293-0.643-0.293-1.143c0-0.906,0.328-1.707,0.984-2.402
			s1.609-1.188,2.859-1.477c0.719-0.164,2.152-0.246,4.301-0.246c-0.578,1.141-1.226,3.156-1.941,6.047
			c2.068,0,3.698-0.074,4.889-0.223c0.676-2.266,1.271-3.846,1.787-4.74s1.096-1.541,1.74-1.939s1.365-0.598,2.162-0.598
			c0.688,0,1.217,0.131,1.588,0.393s0.557,0.561,0.557,0.896c0,0.195-0.066,0.355-0.199,0.48c-0.132,0.125-0.304,0.188-0.515,0.188
			c-0.272,0-0.581-0.195-0.924-0.586c-0.351-0.391-0.663-0.586-0.936-0.586c-0.585,0-1.162,0.543-1.731,1.629
			c-1.015,1.938-2.189,6.027-3.523,12.27c0.132,0.016,0.318,0.043,0.56,0.082c0.443,0.078,0.802,0.117,1.074,0.117
			C23.405,79.781,23.767,79.742,24.171,79.664z"/>
		<path d="M32.175,70.335c0.766,0,1.402,0.305,1.91,0.914s0.762,1.457,0.762,2.543c0,1.734-0.609,3.291-1.828,4.67
			s-2.508,2.068-3.867,2.068c-0.836,0-1.51-0.273-2.021-0.82s-0.768-1.293-0.768-2.238c0-1.641,0.469-3.156,1.406-4.547
			C28.949,71.199,30.417,70.335,32.175,70.335z M31.179,71.214c-0.664,0-1.307,0.475-1.928,1.424s-0.932,2.26-0.932,3.932
			c0,1.016,0.191,1.816,0.574,2.402c0.281,0.43,0.656,0.645,1.125,0.645c0.656,0,1.254-0.406,1.793-1.219
			c0.688-1.055,1.031-2.363,1.031-3.926c0-1.172-0.158-2.008-0.475-2.508S31.656,71.214,31.179,71.214z"/>
		<path d="M41.363,71.449c-0.602,0.961-1.018,1.809-1.248,2.543s-0.346,1.465-0.346,2.191c0,0.672,0.148,1.723,0.445,3.152
			c1.727-1.313,2.949-2.541,3.668-3.686s1.078-2.131,1.078-2.959c0-0.242-0.09-0.547-0.27-0.914
			c-0.195-0.391-0.293-0.68-0.293-0.867c0-0.203,0.07-0.381,0.211-0.533s0.309-0.229,0.504-0.229c0.258,0,0.465,0.111,0.621,0.334
			s0.234,0.6,0.234,1.131c0,1.664-0.59,3.285-1.77,4.863c-1.445,1.938-3.277,3.43-5.496,4.477c-0.055-0.367-0.164-0.953-0.328-1.758
			c-0.32-1.617-0.48-2.742-0.48-3.375c0-0.836,0.195-1.646,0.586-2.432s0.969-1.467,1.734-2.045
			c-1.375,0.023-2.359,0.176-2.953,0.457c-0.422,0.203-0.633,0.441-0.633,0.715c0,0.109,0.055,0.293,0.164,0.551
			c0.07,0.18,0.105,0.332,0.105,0.457s-0.053,0.236-0.158,0.334s-0.236,0.146-0.393,0.146c-0.203,0-0.375-0.086-0.516-0.258
			s-0.211-0.402-0.211-0.691c0-0.461,0.152-0.877,0.457-1.248s0.832-0.662,1.582-0.873s1.742-0.309,2.977-0.293
			c0.5-0.219,0.816-0.328,0.949-0.328c0.125,0,0.238,0.051,0.34,0.152s0.152,0.211,0.152,0.328
			C42.078,71.035,41.839,71.253,41.363,71.449z"/>
		<path d="M52.66,77.25l0.387,0.516c-1.914,1.82-3.555,2.73-4.922,2.73c-0.555,0-0.979-0.188-1.271-0.563s-0.439-0.977-0.439-1.805
			c0-1.672,0.508-3.336,1.523-4.992c1.141-1.883,2.504-2.824,4.09-2.824c0.555,0,0.979,0.139,1.271,0.416s0.439,0.658,0.439,1.143
			c0,0.508-0.176,1.008-0.527,1.5s-0.98,1.004-1.887,1.535c-0.453,0.258-1.422,0.723-2.906,1.395
			c-0.07,0.422-0.105,0.824-0.105,1.207c0,0.555,0.088,0.941,0.264,1.16s0.432,0.328,0.768,0.328c0.32,0,0.672-0.09,1.055-0.27
			C50.914,78.484,51.667,77.992,52.66,77.25z M48.558,75.55c1.258-0.563,2.203-1.168,2.836-1.816
			c0.43-0.453,0.645-0.902,0.645-1.348c0-0.336-0.088-0.604-0.264-0.803s-0.404-0.299-0.686-0.299c-0.289,0-0.57,0.109-0.844,0.328
			c-0.367,0.289-0.676,0.727-0.926,1.313C48.96,73.785,48.707,74.66,48.558,75.55z"/>
		<path d="M55.027,73.089l-0.398-0.41c1.001-0.958,1.798-1.594,2.393-1.908c0.594-0.313,1.103-0.471,1.524-0.471
			c0.164,0,0.294,0.035,0.388,0.105s0.141,0.152,0.141,0.246c0,0.07-0.02,0.195-0.059,0.375l-0.528,2.358
			c0.795-0.884,1.794-1.709,2.995-2.475c0.639-0.399,1.166-0.599,1.579-0.599c0.304,0,0.542,0.098,0.714,0.293
			c0.171,0.195,0.257,0.477,0.257,0.844c0,0.242-0.035,0.516-0.104,0.82c-0.125,0.508-0.452,1.613-0.981,3.316
			c-0.498,1.594-0.747,2.652-0.747,3.176c0,0.16,0.023,0.28,0.07,0.36s0.113,0.12,0.199,0.12c0.227,0,0.582-0.219,1.066-0.656
			c0.344-0.313,0.688-0.602,1.031-0.867l0.293,0.422c-0.719,0.793-1.465,1.431-2.238,1.912c-0.492,0.312-0.898,0.467-1.219,0.467
			c-0.297,0-0.527-0.107-0.691-0.322s-0.246-0.564-0.246-1.049c0-0.695,0.434-2.426,1.301-5.191
			c0.266-0.984,0.398-1.559,0.398-1.723c0-0.242-0.145-0.363-0.434-0.363c-0.313,0-0.715,0.164-1.207,0.493
			c-0.734,0.484-1.348,1.056-1.84,1.713c-0.313,0.423-0.574,1.096-0.785,2.019l-0.949,4.096h-1.746
			c0.328-1.173,0.613-2.296,0.855-3.368l1.043-4.459c0.039-0.18,0.059-0.31,0.059-0.388c0-0.211-0.078-0.316-0.234-0.316
			c-0.125,0-0.305,0.083-0.539,0.248C55.902,72.231,55.449,72.625,55.027,73.089z"/>
		<path d="M66.089,73.054l-0.516-0.398c0.78-0.859,1.492-1.471,2.136-1.834c0.645-0.363,1.192-0.545,1.645-0.545
			c0.25,0,0.441,0.055,0.574,0.164c0.132,0.109,0.198,0.258,0.198,0.445c0,0.227-0.253,1.188-0.76,2.883
			c-0.825,2.773-1.238,4.445-1.238,5.016c0,0.109,0.027,0.201,0.082,0.275s0.113,0.111,0.176,0.111c0.25,0,0.891-0.484,1.922-1.453
			l0.457,0.445c-1.07,1.008-1.852,1.652-2.344,1.934s-0.895,0.422-1.207,0.422c-0.273,0-0.49-0.086-0.65-0.258
			s-0.24-0.41-0.24-0.715c0-0.977,0.586-3.363,1.758-7.16c0.055-0.18,0.082-0.34,0.082-0.48c0-0.156-0.07-0.234-0.211-0.234
			c-0.156,0-0.334,0.063-0.533,0.188S66.777,72.382,66.089,73.054z M70.695,65.296c0.242,0,0.441,0.08,0.598,0.24
			s0.234,0.365,0.234,0.615c0,0.344-0.119,0.646-0.357,0.908s-0.506,0.393-0.803,0.393c-0.234,0-0.43-0.082-0.586-0.246
			s-0.234-0.379-0.234-0.645c0-0.352,0.113-0.65,0.34-0.896S70.382,65.296,70.695,65.296z"/>
		<path d="M77.609,77.25l0.387,0.516c-1.914,1.82-3.555,2.73-4.922,2.73c-0.555,0-0.979-0.188-1.271-0.563s-0.439-0.977-0.439-1.805
			c0-1.672,0.508-3.336,1.523-4.992c1.141-1.883,2.504-2.824,4.09-2.824c0.555,0,0.979,0.139,1.271,0.416s0.439,0.658,0.439,1.143
			c0,0.508-0.176,1.008-0.527,1.5s-0.98,1.004-1.887,1.535c-0.453,0.258-1.422,0.723-2.906,1.395
			c-0.07,0.422-0.105,0.824-0.105,1.207c0,0.555,0.088,0.941,0.264,1.16s0.432,0.328,0.768,0.328c0.32,0,0.672-0.09,1.055-0.27
			C75.863,78.484,76.617,77.992,77.609,77.25z M73.507,75.55c1.258-0.563,2.203-1.168,2.836-1.816
			c0.43-0.453,0.645-0.902,0.645-1.348c0-0.336-0.088-0.604-0.264-0.803s-0.404-0.299-0.686-0.299c-0.289,0-0.57,0.109-0.844,0.328
			c-0.367,0.289-0.676,0.727-0.926,1.313C73.91,73.785,73.656,74.66,73.507,75.55z"/>
		<path d="M81.793,80.191h-1.746l0.82-3.152c0.398-1.547,0.746-3.016,1.043-4.406c0.07-0.344,0.105-0.559,0.105-0.645
			c0-0.188-0.086-0.281-0.258-0.281c-0.117,0-0.297,0.08-0.539,0.24s-0.68,0.557-1.313,1.189l-0.363-0.41
			c0.75-0.805,1.497-1.408,2.243-1.811s1.318-0.604,1.717-0.604c0.141,0,0.252,0.033,0.334,0.1s0.123,0.15,0.123,0.252
			c0,0.103-0.051,0.373-0.154,0.813l-0.51,2.108c0.791-1.247,1.684-2.313,2.678-3.2c0.477-0.423,0.877-0.635,1.197-0.635
			c0.234,0,0.43,0.076,0.586,0.229c0.158,0.152,0.236,0.33,0.236,0.533c0,0.211-0.076,0.391-0.229,0.539s-0.533,0.324-1.143,0.527
			c-0.576,0.195-1.047,0.43-1.41,0.703c-0.363,0.274-0.762,0.692-1.195,1.255c-0.432,0.563-0.736,1.053-0.908,1.471
			s-0.434,1.389-0.787,2.911L81.793,80.191z"/>
		<path fill="#161B1E" d="M84.41,97.639c-1.4,1.126-2.773,1.689-4.121,1.689c-1.126,0-2.066-0.368-2.818-1.104
			s-1.128-1.657-1.128-2.764c0-2.091,1.533-3.758,4.6-5.001c-0.352-0.983-0.527-1.754-0.527-2.314c0-1.021,0.434-1.944,1.303-2.768
			s1.848-1.235,2.936-1.235c0.768,0,1.389,0.222,1.865,0.664c0.475,0.442,0.713,1.022,0.713,1.738c0,1.79-1.443,3.138-4.326,4.042
			c0.832,2.233,1.76,4.044,2.783,5.431c1.008-1.055,1.598-2.239,1.768-3.555h-2.012l0.928-1.445h2.588
			c1.281,0,2.271-0.212,2.969-0.636l-0.762,1.202c-0.77,0.586-1.494,0.879-2.178,0.879h-0.313c-0.508,1.563-1.391,2.91-2.646,4.043
			c0.924,1.159,1.686,1.738,2.285,1.738c0.508,0,1.188-0.283,2.041-0.85c0.07-0.046,0.176-0.114,0.313-0.205l-0.146,0.723
			c-1.146,0.944-2.225,1.416-3.232,1.416c-0.586,0-1.063-0.107-1.426-0.322C85.5,98.792,85.016,98.335,84.41,97.639z M84.088,97.141
			c-1.166-1.712-2.162-3.753-2.988-6.123c-1.81,0.82-2.715,2.109-2.715,3.867c0,0.931,0.281,1.704,0.845,2.319
			s1.275,0.923,2.134,0.923C82.131,98.127,83.039,97.798,84.088,97.141z M82.721,90.01c1.939-0.763,2.91-1.946,2.91-3.55
			c0-1.147-0.473-1.722-1.416-1.722c-0.594,0-1.072,0.243-1.441,0.729c-0.367,0.486-0.551,1.123-0.551,1.912
			C82.223,88.097,82.389,88.974,82.721,90.01z"/>
		<path d="M81.875,106.083l1.859-0.714l-0.842,3.28h2.428l-0.188,0.832h-2.43l-1.021,3.928c-0.324,1.179-0.486,1.998-0.486,2.459
			c0,0.211,0.045,0.363,0.135,0.457s0.213,0.141,0.369,0.141c0.242,0,0.613-0.145,1.113-0.434c0.656-0.383,1.281-0.816,1.875-1.301
			l0.445,0.539c-1.711,1.289-2.855,2.078-3.434,2.367s-1.043,0.434-1.395,0.434c-0.289,0-0.518-0.105-0.686-0.316
			s-0.252-0.555-0.252-1.031c0-0.563,0.148-1.422,0.445-2.578l1.194-4.664h-1.899l0.211-0.832h1.901L81.875,106.083z"/>
		<path d="M94.186,108.192h1.67l-1.102,4.096c-0.648,2.379-0.973,3.732-0.973,4.061c0,0.148,0.035,0.262,0.105,0.34
			s0.148,0.117,0.234,0.117c0.133,0,0.289-0.059,0.469-0.176c0.258-0.18,0.746-0.633,1.465-1.359l0.387,0.434
			c-1.57,1.633-2.727,2.449-3.469,2.449c-0.25,0-0.463-0.096-0.639-0.287s-0.264-0.463-0.264-0.814c0-0.406,0.084-0.949,0.254-1.629
			c-0.695,0.797-1.555,1.496-2.576,2.098c-0.68,0.398-1.27,0.598-1.77,0.598c-0.271,0-0.486-0.09-0.643-0.27
			s-0.234-0.466-0.234-0.857c0-0.305,0.035-0.633,0.105-0.985c0.102-0.493,0.359-1.482,0.773-2.969
			c0.523-1.885,0.785-3.016,0.785-3.392c0-0.219-0.078-0.328-0.234-0.328c-0.141,0-0.332,0.072-0.574,0.217
			s-0.656,0.494-1.242,1.049l-0.516-0.41c1.047-0.938,1.846-1.553,2.396-1.846s0.994-0.439,1.33-0.439
			c0.188,0,0.34,0.068,0.457,0.205c0.117,0.138,0.176,0.351,0.176,0.64c0,0.54-0.281,1.866-0.844,3.979
			c-0.5,1.9-0.75,2.984-0.75,3.25c0,0.164,0.053,0.306,0.158,0.423s0.221,0.176,0.346,0.176c0.436,0,1.057-0.361,1.861-1.084
			c0.803-0.723,1.33-1.545,1.58-2.467L94.186,108.192z"/>
		<path d="M97.684,110.606l-0.516-0.398c0.779-0.859,1.492-1.471,2.135-1.834c0.645-0.363,1.193-0.545,1.645-0.545
			c0.25,0,0.441,0.055,0.574,0.164s0.199,0.258,0.199,0.445c0,0.227-0.254,1.188-0.76,2.883c-0.826,2.773-1.238,4.445-1.238,5.016
			c0,0.109,0.027,0.201,0.082,0.275s0.113,0.111,0.176,0.111c0.25,0,0.891-0.484,1.922-1.453l0.457,0.445
			c-1.07,1.008-1.852,1.652-2.344,1.934s-0.895,0.422-1.207,0.422c-0.273,0-0.49-0.086-0.65-0.258s-0.24-0.41-0.24-0.715
			c0-0.977,0.586-3.363,1.758-7.16c0.055-0.18,0.082-0.34,0.082-0.48c0-0.156-0.07-0.234-0.211-0.234
			c-0.156,0-0.334,0.063-0.533,0.188S98.371,109.934,97.684,110.606z M102.289,102.848c0.242,0,0.441,0.08,0.598,0.24
			s0.234,0.365,0.234,0.615c0,0.344-0.119,0.646-0.357,0.908s-0.506,0.393-0.803,0.393c-0.234,0-0.43-0.082-0.586-0.246
			s-0.234-0.379-0.234-0.645c0-0.352,0.113-0.65,0.34-0.896S101.977,102.848,102.289,102.848z"/>
		<path d="M103.414,110.641l-0.398-0.41c1-0.958,1.797-1.594,2.393-1.908c0.594-0.313,1.102-0.471,1.523-0.471
			c0.164,0,0.295,0.035,0.389,0.105s0.141,0.152,0.141,0.246c0,0.07-0.02,0.195-0.059,0.375l-0.529,2.358
			c0.795-0.884,1.795-1.709,2.996-2.475c0.639-0.399,1.166-0.599,1.578-0.599c0.305,0,0.543,0.098,0.715,0.293
			c0.17,0.195,0.256,0.477,0.256,0.844c0,0.242-0.035,0.516-0.104,0.82c-0.125,0.508-0.453,1.613-0.982,3.316
			c-0.498,1.594-0.746,2.652-0.746,3.176c0,0.16,0.023,0.28,0.07,0.36s0.113,0.12,0.199,0.12c0.227,0,0.582-0.219,1.066-0.656
			c0.344-0.313,0.688-0.602,1.031-0.867l0.293,0.422c-0.719,0.793-1.465,1.431-2.238,1.912c-0.492,0.312-0.898,0.467-1.219,0.467
			c-0.297,0-0.527-0.107-0.691-0.322s-0.246-0.564-0.246-1.049c0-0.695,0.434-2.426,1.301-5.191
			c0.266-0.984,0.398-1.559,0.398-1.723c0-0.242-0.145-0.363-0.434-0.363c-0.313,0-0.715,0.164-1.207,0.493
			c-0.734,0.484-1.348,1.056-1.84,1.713c-0.313,0.423-0.574,1.096-0.785,2.019l-0.949,4.096h-1.746
			c0.328-1.174,0.613-2.296,0.855-3.368l1.043-4.459c0.039-0.18,0.059-0.31,0.059-0.388c0-0.211-0.078-0.316-0.234-0.316
			c-0.125,0-0.305,0.083-0.539,0.248C104.289,109.783,103.836,110.176,103.414,110.641z"/>
		<path d="M114.277,110.793l-0.457-0.469c0.711-0.852,1.418-1.48,2.121-1.887s1.313-0.609,1.828-0.609
			c0.195,0,0.35,0.049,0.463,0.146s0.17,0.24,0.17,0.428c0,0.227-0.025,0.459-0.076,0.697s-0.209,0.803-0.475,1.693
			c1.195-1.195,2.012-1.934,2.449-2.215c0.734-0.477,1.406-0.715,2.016-0.715c0.398,0,0.734,0.188,1.008,0.563
			s0.41,0.941,0.41,1.699c0,1.891-0.59,3.688-1.77,5.391c-1.178,1.703-2.482,2.555-3.91,2.555c-0.563,0-1.125-0.152-1.688-0.457
			l-1,3.867c-0.063,0.234-0.094,0.426-0.094,0.574c0,0.289,0.109,0.496,0.328,0.621c0.336,0.195,1.043,0.355,2.121,0.48
			l-0.152,0.586c-1.258-0.102-2.246-0.152-2.965-0.152c-0.742,0-1.703,0.051-2.883,0.152l0.152-0.586
			c0.594-0.063,1.025-0.227,1.295-0.492s0.486-0.738,0.65-1.418l2.121-8.895c0.398-1.656,0.598-2.578,0.598-2.766
			c0-0.203-0.098-0.305-0.293-0.305C115.902,109.282,115.246,109.786,114.277,110.793z M116.65,116.325
			c0.617,0.617,1.25,0.926,1.896,0.926c0.936,0,1.758-0.73,2.463-2.191c0.707-1.461,1.061-2.887,1.061-4.277
			c0-0.445-0.1-0.783-0.299-1.014s-0.465-0.346-0.801-0.346c-0.375,0-0.795,0.184-1.264,0.551c-0.725,0.57-1.277,1.137-1.66,1.699
			c-0.273,0.406-0.529,1.109-0.771,2.109L116.65,116.325z"/>
		<path d="M129.535,114.918l0.398,0.422c-0.609,0.688-1.33,1.314-2.162,1.881s-1.518,0.85-2.057,0.85
			c-0.242,0-0.441-0.092-0.598-0.275s-0.234-0.436-0.234-0.756c0-0.625,0.242-1.922,0.725-3.891l1.264-5.145
			c0.461-1.859,0.848-3.105,1.16-3.738c0.482-0.957,1.168-1.7,2.053-2.229c0.887-0.529,1.82-0.794,2.805-0.794
			c0.334,0,0.598,0.081,0.789,0.242s0.287,0.355,0.287,0.584c0,0.252-0.094,0.458-0.281,0.619c-0.186,0.162-0.459,0.242-0.816,0.242
			c-0.234,0-0.564-0.039-0.992-0.117c-0.375-0.063-0.721-0.094-1.041-0.094c-0.318,0-0.559,0.066-0.723,0.198
			c-0.227,0.187-0.43,0.579-0.613,1.178c-0.184,0.6-0.48,1.781-0.893,3.546l-1.17,4.91c-0.578,2.461-0.867,3.746-0.867,3.855
			c0,0.25,0.09,0.375,0.27,0.375c0.172,0,0.422-0.102,0.75-0.305C128.236,116.071,128.887,115.551,129.535,114.918z"/>
		<path d="M138.406,107.688l0.773-0.164l-0.879,2.965c-0.352,1.18-0.684,2.539-0.996,4.078c-0.172,0.836-0.258,1.375-0.258,1.617
			s0.098,0.363,0.293,0.363c0.125,0,0.324-0.082,0.598-0.246c0.484-0.289,0.949-0.648,1.395-1.078l0.375,0.457
			c-0.891,0.813-1.461,1.305-1.711,1.477c-0.5,0.344-0.977,0.598-1.43,0.762c-0.297,0.109-0.586,0.164-0.867,0.164
			c-0.203,0-0.355-0.047-0.457-0.141s-0.152-0.23-0.152-0.41c0-0.117,0.031-0.277,0.094-0.48l0.469-1.594
			c-0.672,0.805-1.473,1.496-2.402,2.074c-0.57,0.359-1.094,0.539-1.57,0.539c-0.453,0-0.801-0.16-1.043-0.48
			c-0.328-0.43-0.492-0.992-0.492-1.688c0-0.828,0.221-1.75,0.662-2.766s1.033-1.938,1.775-2.766s1.523-1.438,2.344-1.828
			c0.633-0.297,1.445-0.445,2.438-0.445c0.25,0,0.504,0.016,0.762,0.047L138.406,107.688z M136.953,109.481
			c-0.422-0.086-0.777-0.129-1.066-0.129c-0.703,0-1.316,0.193-1.84,0.58s-1.01,1.082-1.459,2.086s-0.674,2.006-0.674,3.006
			c0,0.531,0.09,0.914,0.27,1.148s0.414,0.352,0.703,0.352c0.539,0,1.117-0.291,1.734-0.873s1.07-1.42,1.359-2.514L136.953,109.481z
			"/>
		<path d="M140.844,110.641l-0.398-0.41c1-0.958,1.797-1.594,2.393-1.908c0.594-0.313,1.102-0.471,1.523-0.471
			c0.164,0,0.295,0.035,0.389,0.105s0.141,0.152,0.141,0.246c0,0.07-0.02,0.195-0.059,0.375l-0.529,2.358
			c0.795-0.884,1.795-1.709,2.996-2.475c0.639-0.399,1.166-0.599,1.578-0.599c0.305,0,0.543,0.098,0.715,0.293
			c0.17,0.195,0.256,0.477,0.256,0.844c0,0.242-0.035,0.516-0.104,0.82c-0.125,0.508-0.453,1.613-0.982,3.316
			c-0.498,1.594-0.746,2.652-0.746,3.176c0,0.16,0.023,0.28,0.07,0.36s0.113,0.12,0.199,0.12c0.227,0,0.582-0.219,1.066-0.656
			c0.344-0.313,0.688-0.602,1.031-0.867l0.293,0.422c-0.719,0.793-1.465,1.431-2.238,1.912c-0.492,0.312-0.898,0.467-1.219,0.467
			c-0.297,0-0.527-0.107-0.691-0.322s-0.246-0.564-0.246-1.049c0-0.695,0.434-2.426,1.301-5.191
			c0.266-0.984,0.398-1.559,0.398-1.723c0-0.242-0.145-0.363-0.434-0.363c-0.313,0-0.715,0.164-1.207,0.493
			c-0.734,0.484-1.348,1.056-1.84,1.713c-0.313,0.423-0.574,1.096-0.785,2.019l-0.949,4.096h-1.746
			c0.328-1.174,0.613-2.296,0.855-3.368l1.043-4.459c0.039-0.18,0.059-0.31,0.059-0.388c0-0.211-0.078-0.316-0.234-0.316
			c-0.125,0-0.305,0.083-0.539,0.248C141.719,109.783,141.266,110.176,140.844,110.641z"/>
		<path d="M154.813,106.083l1.859-0.714l-0.842,3.28h2.428l-0.188,0.832h-2.43l-1.021,3.928c-0.324,1.179-0.486,1.998-0.486,2.459
			c0,0.211,0.045,0.363,0.135,0.457s0.213,0.141,0.369,0.141c0.242,0,0.613-0.145,1.113-0.434c0.656-0.383,1.281-0.816,1.875-1.301
			l0.445,0.539c-1.711,1.289-2.855,2.078-3.434,2.367s-1.043,0.434-1.395,0.434c-0.289,0-0.518-0.105-0.686-0.316
			s-0.252-0.555-0.252-1.031c0-0.563,0.148-1.422,0.445-2.578l1.193-4.664h-1.898l0.211-0.832h1.9L154.813,106.083z"/>
		<path d="M165.348,114.801l0.387,0.516c-1.914,1.82-3.555,2.73-4.922,2.73c-0.555,0-0.979-0.188-1.271-0.563
			s-0.439-0.977-0.439-1.805c0-1.672,0.508-3.336,1.523-4.992c1.141-1.883,2.504-2.824,4.09-2.824c0.555,0,0.979,0.139,1.271,0.416
			s0.439,0.658,0.439,1.143c0,0.508-0.176,1.008-0.527,1.5s-0.98,1.004-1.887,1.535c-0.453,0.258-1.422,0.723-2.906,1.395
			c-0.07,0.422-0.105,0.824-0.105,1.207c0,0.555,0.088,0.941,0.264,1.16s0.432,0.328,0.768,0.328c0.32,0,0.672-0.09,1.055-0.27
			C163.602,116.036,164.355,115.543,165.348,114.801z M161.246,113.102c1.258-0.563,2.203-1.168,2.836-1.816
			c0.43-0.453,0.645-0.902,0.645-1.348c0-0.336-0.088-0.604-0.264-0.803s-0.404-0.299-0.686-0.299c-0.289,0-0.57,0.109-0.844,0.328
			c-0.367,0.289-0.676,0.727-0.926,1.313C161.648,111.336,161.395,112.211,161.246,113.102z"/>
		<path d="M167.715,110.641l-0.398-0.41c1-0.958,1.797-1.594,2.393-1.908c0.594-0.313,1.102-0.471,1.523-0.471
			c0.164,0,0.295,0.035,0.389,0.105s0.141,0.152,0.141,0.246c0,0.07-0.02,0.195-0.059,0.375l-0.529,2.358
			c0.795-0.884,1.795-1.709,2.996-2.475c0.639-0.399,1.166-0.599,1.578-0.599c0.305,0,0.543,0.098,0.715,0.293
			c0.17,0.195,0.256,0.477,0.256,0.844c0,0.242-0.035,0.516-0.104,0.82c-0.125,0.508-0.453,1.613-0.982,3.316
			c-0.498,1.594-0.746,2.652-0.746,3.176c0,0.16,0.023,0.28,0.07,0.36s0.113,0.12,0.199,0.12c0.227,0,0.582-0.219,1.066-0.656
			c0.344-0.313,0.688-0.602,1.031-0.867l0.293,0.422c-0.719,0.793-1.465,1.431-2.238,1.912c-0.492,0.312-0.898,0.467-1.219,0.467
			c-0.297,0-0.527-0.107-0.691-0.322s-0.246-0.564-0.246-1.049c0-0.695,0.434-2.426,1.301-5.191
			c0.266-0.984,0.398-1.559,0.398-1.723c0-0.242-0.145-0.363-0.434-0.363c-0.313,0-0.715,0.164-1.207,0.493
			c-0.734,0.484-1.348,1.056-1.84,1.713c-0.313,0.423-0.574,1.096-0.785,2.019l-0.949,4.096h-1.746
			c0.328-1.174,0.613-2.296,0.855-3.368l1.043-4.459c0.039-0.18,0.059-0.31,0.059-0.388c0-0.211-0.078-0.316-0.234-0.316
			c-0.125,0-0.305,0.083-0.539,0.248C168.59,109.783,168.137,110.176,167.715,110.641z"/>
	</g>
</g>
</svg>
