<?xml version="1.0" encoding="utf-8"?>
<!-- Generator: Adobe Illustrator 14.0.0, SVG Export Plug-In  -->
<!DOCTYPE svg PUBLIC "-//W3C//DTD SVG 1.1//EN" "http://www.w3.org/Graphics/SVG/1.1/DTD/svg11.dtd" [
	<!ENTITY ns_flows "http://ns.adobe.com/Flows/1.0/">
]>
<svg version="1.1"
	 xmlns="http://www.w3.org/2000/svg" xmlns:xlink="http://www.w3.org/1999/xlink" xmlns:a="http://ns.adobe.com/AdobeSVGViewerExtensions/3.0/"
	 x="0px" y="0px" width="574px" height="275px" viewBox="132.445 174.138 574 275" enable-background="new 132.445 174.138 574 275"
	 xml:space="preserve">
<defs>
</defs>
<polygon fill="#25408F" points="216.533,266.853 216.533,286.771 188.833,286.771 188.833,359.324 164.691,359.324 164.691,286.771 
	137.253,286.771 137.253,266.853 "/>
<g>
	<defs>
		<rect id="SVGID_2_" width="841.89" height="595.276"/>
	</defs>
	<clipPath id="SVGID_3_">
		<use xlink:href="#SVGID_2_"  overflow="visible"/>
	</clipPath>
	<path clip-path="url(#SVGID_3_)" fill="#25408F" d="M256.899,285.452c-5.804,0-9.63,2.111-9.63,6.332
		c0,15.302,48.675,6.596,48.675,39.838c0,18.863-16.62,28.494-37.199,28.494c-15.432,0-31.527-5.675-42.607-14.775l9.365-18.864
		c9.497,8.181,23.876,13.984,33.507,13.984c7.122,0,11.608-2.64,11.608-7.52c0-15.699-48.676-6.2-48.676-38.915
		c0-17.28,14.642-28.231,36.935-28.231c13.587,0,27.307,4.223,36.937,10.423l-9.103,19.125
		C276.949,289.807,264.549,285.452,256.899,285.452"/>
	<path clip-path="url(#SVGID_3_)" fill="#25408F" d="M383.141,290.2c0,9.631-6.201,17.414-15.963,20.051
		c11.741,2.375,18.997,11.476,18.997,23.351c0,15.828-13.851,25.723-35.618,25.723h-45.641v-92.471h43.927
		C369.818,266.853,383.141,275.955,383.141,290.2 M358.34,294.423c0-5.543-4.088-8.839-10.816-8.708h-18.469v17.94h18.469
		C354.252,303.655,358.34,300.226,358.34,294.423 M361.242,330.566c0-5.805-5.276-9.497-13.718-9.365h-18.469v19.391h18.469
		C355.966,340.591,361.242,336.897,361.242,330.566"/>
	<g clip-path="url(#SVGID_3_)" enable-background="new    ">
		<g>
			<defs>
				<rect id="SVGID_1_" x="407.773" y="203.366" width="77.627" height="28.888"/>
			</defs>
			<clipPath id="SVGID_4_">
				<use xlink:href="#SVGID_1_"  overflow="visible"/>
			</clipPath>
			<path clip-path="url(#SVGID_4_)" fill="#25408F" d="M478.335,232.254c-0.928,0-1.76-0.382-2.35-1.082
				c-7.854-9.332-18.267-14.472-29.317-14.472c-11.134,0-21.598,5.203-29.47,14.65c-0.468,0.562-1.174,0.884-1.933,0.884
				c-2.288,0-5.927-3.645-7.001-5.936c-0.986-2.102-0.269-3.453,0.246-4.071c10.136-12.163,23.686-18.862,38.158-18.862
				c14.367,0,27.85,6.618,37.966,18.636c0.56,0.667,1.325,2.164,0.143,4.703C483.735,228.942,480.967,232.254,478.335,232.254"/>
		</g>
	</g>
	<path clip-path="url(#SVGID_3_)" fill="#25408F" d="M459.574,248.558c-0.928,0-1.761-0.383-2.351-1.082
		c-2.721-3.235-6.311-5.018-10.104-5.018c-3.822,0-7.43,1.806-10.156,5.081c-0.474,0.563-1.178,0.887-1.935,0.887
		c-2.29,0-5.928-3.646-7.002-5.937c-0.983-2.104-0.268-3.455,0.246-4.073c4.993-5.993,11.688-9.293,18.847-9.293
		c7.107,0,13.769,3.261,18.754,9.181c0.56,0.667,1.324,2.164,0.142,4.703C464.972,245.245,462.205,248.558,459.574,248.558"/>
	<path clip-path="url(#SVGID_3_)" fill="#25408F" d="M395.632,216.412c-2.287,0-5.927-3.646-7-5.937
		c-0.985-2.103-0.268-3.454,0.247-4.072c15.451-18.544,36.062-28.794,58.033-28.86h0.169c21.917,0,42.511,10.127,57.987,28.514
		c0.562,0.667,1.329,2.165,0.146,4.705c-1.042,2.238-3.81,5.549-6.442,5.549c-0.926,0-1.758-0.383-2.349-1.08
		c-13.214-15.701-30.723-24.347-49.298-24.347h-0.186c-18.641,0.054-36.177,8.805-49.372,24.642
		C397.097,216.089,396.391,216.412,395.632,216.412"/>
	<path clip-path="url(#SVGID_3_)" fill="#25408F" d="M478.786,232.254c-0.925,0-1.762-0.382-2.348-1.082
		c-7.855-9.332-18.266-14.472-29.32-14.472c-11.131,0-21.597,5.203-29.469,14.65c-0.469,0.562-1.173,0.884-1.932,0.884
		c-2.289,0-5.929-3.645-7.002-5.936c-0.986-2.102-0.269-3.453,0.246-4.071c10.137-12.163,23.689-18.862,38.157-18.862
		c14.368,0,27.853,6.618,37.967,18.636c0.56,0.667,1.326,2.164,0.144,4.703C484.187,228.942,481.419,232.254,478.786,232.254"/>
	<path clip-path="url(#SVGID_3_)" fill="#25408F" d="M377.081,396.139c0,6.213-3.881,9.83-10.628,9.83h-4.701v7.304h-6.89v-26.395
		h11.591C373.2,386.878,377.081,390.262,377.081,396.139 M370.521,396.368c0-2.595-1.618-3.991-4.402-3.991h-4.367v8.097h4.367
		C368.903,400.473,370.521,399.039,370.521,396.368"/>
	<path clip-path="url(#SVGID_3_)" fill="#25408F" d="M398.199,413.273l-3.837-7.304h-0.15h-4.967v7.304h-6.905v-26.396h11.872
		c6.997,0,10.994,3.385,10.994,9.263c0,3.993-1.664,6.932-4.712,8.513l5.499,8.62H398.199z M389.245,400.474h5
		c2.79,0,4.407-1.437,4.407-4.106c0-2.595-1.617-3.992-4.407-3.992h-5V400.474z"/>
	<path clip-path="url(#SVGID_3_)" fill="#25408F" d="M438.333,400.054c0,7.721-6.088,13.523-14.271,13.523
		c-8.159,0-14.268-5.803-14.268-13.523c0-7.678,6.109-13.368,14.268-13.368C432.245,386.686,438.333,392.409,438.333,400.054
		 M416.88,400.097c0,4.288,3.343,7.601,7.267,7.601c3.949,0,7.119-3.313,7.119-7.601c0-4.295-3.17-7.533-7.119-7.533
		C420.192,392.564,416.88,395.802,416.88,400.097"/>
	<polygon clip-path="url(#SVGID_3_)" fill="#25408F" points="463.378,386.878 463.341,392.376 450.541,392.376 450.541,398.247 
		462.372,398.247 462.372,403.741 450.541,403.741 450.541,413.273 443.649,413.273 443.649,386.878 	"/>
	<polygon clip-path="url(#SVGID_3_)" fill="#25408F" points="489.215,386.878 489.215,392.376 475.277,392.376 475.277,397.304 
		487.864,397.304 487.864,402.768 475.277,402.805 475.277,407.774 489.587,407.774 489.587,413.273 468.387,413.273 
		468.387,386.878 	"/>
	<path clip-path="url(#SVGID_3_)" fill="#25408F" d="M505.37,392.184c-1.659,0-2.743,0.606-2.743,1.811
		c0,4.365,13.889,1.878,13.889,11.377c0,5.379-4.745,8.127-10.619,8.127c-4.41,0-8.991-1.62-12.163-4.217l2.672-5.382
		c2.708,2.328,6.818,3.985,9.57,3.985c2.028,0,3.309-0.747,3.309-2.146c0-4.479-13.895-1.769-13.895-11.102
		c0-4.938,4.17-8.065,10.545-8.065c3.869,0,7.797,1.209,10.54,2.978l-2.597,5.46C511.087,393.427,507.552,392.184,505.37,392.184"/>
	<path clip-path="url(#SVGID_3_)" fill="#25408F" d="M531.58,392.184c-1.662,0-2.743,0.606-2.743,1.811
		c0,4.365,13.885,1.878,13.885,11.377c0,5.379-4.742,8.127-10.614,8.127c-4.415,0-8.993-1.62-12.164-4.217l2.678-5.382
		c2.699,2.328,6.812,3.985,9.563,3.985c2.029,0,3.316-0.747,3.316-2.146c0-4.479-13.902-1.769-13.902-11.102
		c0-4.938,4.178-8.065,10.552-8.065c3.862,0,7.786,1.209,10.532,2.978l-2.597,5.46C537.302,393.427,533.762,392.184,531.58,392.184"
		/>
	<rect x="548.113" y="386.877" clip-path="url(#SVGID_3_)" fill="#25408F" width="6.89" height="26.396"/>
	<path clip-path="url(#SVGID_3_)" fill="#25408F" d="M588.856,400.054c0,7.721-6.107,13.523-14.273,13.523
		c-8.169,0-14.28-5.803-14.28-13.523c0-7.678,6.111-13.368,14.28-13.368C582.749,386.686,588.856,392.409,588.856,400.054
		 M567.39,400.097c0,4.288,3.352,7.601,7.261,7.601c3.952,0,7.121-3.313,7.121-7.601c0-4.295-3.169-7.533-7.121-7.533
		C570.705,392.564,567.39,395.802,567.39,400.097"/>
	<polygon clip-path="url(#SVGID_3_)" fill="#25408F" points="600.223,386.878 612.208,402.768 612.208,386.878 618.603,386.878 
		618.603,413.273 612.572,413.273 600.593,397.458 600.593,413.273 594.16,413.273 594.16,386.878 	"/>
	<path clip-path="url(#SVGID_3_)" fill="#25408F" d="M643.223,408.601h-11.407l-1.841,4.672h-7.077l11.329-26.395h7.077
		l11.077,26.395h-7.343L643.223,408.601z M641.197,403.335l-3.613-9.415l-3.701,9.415H641.197z"/>
	<polygon clip-path="url(#SVGID_3_)" fill="#25408F" points="663.521,386.878 663.521,407.397 674.706,407.397 674.706,413.273 
		656.629,413.273 656.629,386.878 	"/>
	<path clip-path="url(#SVGID_3_)" fill="#25408F" d="M689.398,392.184c-1.666,0-2.755,0.606-2.755,1.811
		c0,4.365,13.9,1.878,13.9,11.377c0,5.379-4.749,8.127-10.625,8.127c-4.403,0-9-1.62-12.165-4.217l2.677-5.382
		c2.712,2.328,6.807,3.985,9.567,3.985c2.023,0,3.312-0.747,3.312-2.146c0-4.479-13.896-1.769-13.896-11.102
		c0-4.938,4.184-8.065,10.544-8.065c3.879,0,7.79,1.209,10.546,2.978l-2.596,5.46C695.114,393.427,691.575,392.184,689.398,392.184"
		/>
	<path clip-path="url(#SVGID_3_)" fill="#25408F" d="M280.442,382.416c-9.751,0-17.656,7.907-17.656,17.657
		c0,9.753,7.905,17.659,17.656,17.659c9.75,0,17.655-7.906,17.655-17.659C298.097,390.323,290.192,382.416,280.442,382.416
		 M289.076,401.566c-0.802,2.328-1.973,4.47-3.483,6.354c-2.225,2.774-4.499,4.152-5.151,4.516
		c-0.655-0.363-2.927-1.741-5.153-4.516c-1.508-1.884-2.682-4.025-3.484-6.354c-0.979-2.85-1.4-5.996-1.259-9.353
		c0.008-0.481,0.386-0.665,0.717-0.695c4.851-0.403,7.659-2.277,9.179-3.805c1.516,1.527,4.333,3.401,9.178,3.805
		c0.332,0.03,0.707,0.214,0.716,0.695C290.476,395.57,290.055,398.716,289.076,401.566 M280.442,400.073h8.095
		c0.605-2.164,0.969-4.688,0.866-7.628c-4.422-0.393-7.242-1.967-8.961-3.441V400.073z M275.999,407.29
		c1.735,2.177,3.533,3.471,4.443,4.043v-11.26h-8.093C273.24,403.258,274.677,405.637,275.999,407.29"/>
	<path clip-path="url(#SVGID_3_)" fill="#25408F" d="M195.96,382.415c-9.752,0-17.657,7.908-17.657,17.658
		c0,9.753,7.905,17.66,17.657,17.66c9.75,0,17.655-7.907,17.655-17.66C213.615,390.323,205.71,382.415,195.96,382.415
		 M194.929,393.043c0.551-0.12,2.184,0.201,3.215,0.647c1.632,0.699,2.911,1.816,3.837,3.328c0.803,1.309,1.202,2.74,1.211,4.278
		c-0.198,0.031-1.824,0.039-2.08,0.008c-0.005-0.068-0.013-0.141-0.016-0.216c-0.043-1.069-0.341-2.066-0.895-2.985
		c-1.066-1.755-2.953-2.89-5-2.99c-0.09-0.006-0.182-0.011-0.277-0.014C194.927,394.401,194.929,393.725,194.929,393.043
		 M198.245,397.747c1.014,0.938,1.589,2.345,1.535,3.575c-0.006,0.005-0.009,0.012-0.017,0.019c-0.007,0.002-0.014,0.01-0.018,0.01
		c-0.61,0-1.222-0.002-1.833-0.002c-0.056,0-0.112-0.008-0.188-0.008c-0.005-0.071-0.014-0.138-0.02-0.195
		c-0.058-0.716-0.334-1.32-0.844-1.824c-0.486-0.484-1.07-0.744-1.754-0.813c-0.077-0.007-0.151-0.012-0.225-0.019
		c-0.007,0-0.015-0.006-0.048-0.019c-0.007-0.683-0.017-1.356-0.025-2.027C195.742,396.275,197.265,396.85,198.245,397.747
		 M188.633,391.522c0.38-0.357,0.726-0.353,1.109,0.015c0.586,0.553,1.157,1.122,1.734,1.685c0.541,0.524,1.064,1.063,1.619,1.569
		c0.445,0.405,0.503,0.843,0.003,1.3c-0.54,0.492-1.056,1.016-1.628,1.57c-1.501-1.47-2.971-2.9-4.439-4.332
		c-0.034-0.037-0.049-0.094-0.088-0.166C187.506,392.614,188.06,392.054,188.633,391.522 M201.269,410.488
		c-0.57,0.166-1.154,0.201-1.743,0.169c-0.924-0.037-1.81-0.238-2.678-0.546c-0.853-0.304-1.649-0.708-2.406-1.194
		c-2.96-1.886-5.415-4.292-7.388-7.193c-0.778-1.146-1.364-2.381-1.648-3.746c-0.175-0.871-0.252-1.741-0.051-2.615
		c0.103-0.45,0.253-0.876,0.611-1.222c0.064,0.042,0.132,0.07,0.185,0.118c1.507,1.465,3.012,2.933,4.526,4.407
		c-0.029,0.166-0.05,0.307-0.078,0.452c-0.12,0.675,0.037,1.274,0.487,1.784c1.291,1.46,2.689,2.802,4.169,4.059
		c0.425,0.365,0.917,0.538,1.47,0.521c0.272-0.013,0.541-0.056,0.874-0.087c1.474,1.438,2.982,2.906,4.485,4.371
		c0.053,0.053,0.081,0.112,0.14,0.191C201.954,410.25,201.609,410.382,201.269,410.488 M204.936,407.347
		c-0.385,0.396-0.788,0.772-1.181,1.152c-0.167,0.166-0.346,0.33-0.537,0.513c-0.461-0.344-4.248-4.038-4.567-4.452
		c0.133-0.135,0.275-0.277,0.417-0.414c0.419-0.409,0.846-0.814,1.258-1.227c0.2-0.196,0.427-0.271,0.7-0.23
		c0.194,0.031,0.334,0.144,0.463,0.273c0.435,0.423,0.867,0.84,1.301,1.263c0.64,0.625,1.286,1.253,1.928,1.874
		c0.077,0.079,0.159,0.149,0.23,0.23C205.252,406.674,205.256,407.014,204.936,407.347 M204.422,401.224
		c-0.005-0.108-0.02-0.221-0.025-0.33c-0.066-1.637-0.519-3.151-1.37-4.551c-1.621-2.682-4.491-4.402-7.617-4.558
		c-0.134-0.008-0.276-0.016-0.42-0.021c0.005-1.066,0.007-1.19,0.011-2.229c0.834-0.181,2.643,0.083,4.22,0.76
		c2.482,1.067,4.433,2.768,5.84,5.069c1.227,1.995,1.608,3.499,1.62,5.84C206.384,401.255,204.806,401.269,204.422,401.224"/>
	<path clip-path="url(#SVGID_3_)" fill="#25408F" d="M142.253,403.581h22.179v-11.852h-22.179V403.581z M153.715,382.416
		c-9.747,0-17.652,7.906-17.652,17.656c0,9.753,7.905,17.661,17.652,17.661c9.754,0,17.658-7.908,17.658-17.661
		C171.373,390.322,163.469,382.416,153.715,382.416 M165.704,405.882c0,0.487-0.398,0.884-0.888,0.884h-8.985
		c0.031,0.523,0.08,1.061,0.145,1.246c0.107,0.288,0.26,0.499,0.482,0.71c0.176,0.169,0.505,0.39,0.569,0.644
		c0.092,0.389-1.626,0.287-1.839,0.287h-3.497c-0.207,0-1.929,0.102-1.836-0.287c0.07-0.254,0.391-0.475,0.574-0.644
		c0.216-0.211,0.375-0.422,0.48-0.71c0.064-0.186,0.112-0.723,0.144-1.246h-9.184c-0.489,0-0.881-0.396-0.881-0.884v-14.509
		c0-0.488,0.392-0.883,0.881-0.883h22.947c0.49,0,0.888,0.395,0.888,0.883V405.882z"/>
	<path clip-path="url(#SVGID_3_)" fill="#25408F" d="M241.461,407.057c-0.222,0-0.407,0.187-0.407,0.409
		c0,0.227,0.185,0.411,0.407,0.411c0.229,0,0.411-0.185,0.411-0.411C241.872,407.244,241.69,407.057,241.461,407.057
		 M239.557,407.057c-0.231,0-0.415,0.187-0.415,0.409c0,0.227,0.184,0.411,0.415,0.411c0.227,0,0.412-0.185,0.412-0.411
		C239.969,407.244,239.784,407.057,239.557,407.057 M237.652,407.057c-0.231,0-0.415,0.187-0.415,0.409
		c0,0.227,0.184,0.411,0.415,0.411c0.227,0,0.409-0.185,0.409-0.411C238.061,407.244,237.879,407.057,237.652,407.057
		 M230.382,407.057c-0.225,0-0.409,0.187-0.409,0.409c0,0.227,0.184,0.411,0.409,0.411c0.229,0,0.414-0.185,0.414-0.411
		C230.796,407.244,230.611,407.057,230.382,407.057 M232.294,407.057c-0.229,0-0.412,0.187-0.412,0.409
		c0,0.227,0.183,0.411,0.412,0.411c0.223,0,0.405-0.185,0.405-0.411C232.699,407.244,232.517,407.057,232.294,407.057
		 M228.496,407.201h-1.507c-0.148,0-0.268,0.119-0.268,0.266c0,0.149,0.12,0.264,0.268,0.264h1.507c0.142,0,0.262-0.114,0.262-0.264
		C228.758,407.32,228.638,407.201,228.496,407.201 M245.278,407.877c0.225,0,0.408-0.185,0.408-0.411
		c0-0.223-0.183-0.409-0.408-0.409c-0.231,0-0.414,0.187-0.414,0.409C244.864,407.693,245.047,407.877,245.278,407.877
		 M238.199,382.416c-9.752,0-17.653,7.906-17.653,17.656c0,9.753,7.901,17.661,17.653,17.661c9.753,0,17.658-7.908,17.658-17.661
		C255.857,390.322,247.952,382.416,238.199,382.416 M246.928,390.827c0.117-0.124,0.315-0.124,0.435,0
		c1.048,1.062,1.626,2.463,1.626,3.949c0,1.491-0.578,2.893-1.624,3.945c-0.122,0.125-0.32,0.125-0.437,0.003
		c-0.122-0.121-0.123-0.317-0.002-0.436c0.93-0.942,1.446-2.19,1.446-3.513c0-1.319-0.516-2.568-1.447-3.513
		C246.804,391.141,246.805,390.945,246.928,390.827 M244.93,392.284c0.125-0.122,0.321-0.122,0.441,0
		c0.658,0.667,1.022,1.555,1.022,2.492c0,0.935-0.361,1.815-1.017,2.48c-0.123,0.122-0.318,0.125-0.442,0.003
		c-0.119-0.118-0.119-0.316-0.004-0.437c0.545-0.551,0.844-1.276,0.844-2.047c0-0.776-0.299-1.502-0.847-2.059
		C244.81,392.601,244.811,392.403,244.93,392.284 M240.362,392.248c0.119-0.119,0.316-0.119,0.437,0.005
		c0.12,0.121,0.12,0.318-0.005,0.441c-0.565,0.55-0.876,1.29-0.876,2.082c0,0.784,0.307,1.521,0.864,2.077
		c0.123,0.121,0.123,0.316,0,0.44c-0.117,0.122-0.311,0.122-0.437,0c-0.674-0.674-1.045-1.57-1.045-2.518
		C239.3,393.818,239.677,392.917,240.362,392.248 M238.364,390.784c0.122-0.114,0.32-0.112,0.441,0.003
		c0.122,0.124,0.12,0.323-0.002,0.444c-0.956,0.942-1.481,2.204-1.481,3.545c0,1.333,0.522,2.588,1.467,3.534
		c0.123,0.121,0.123,0.319,0,0.443c-0.122,0.115-0.318,0.115-0.436,0c-1.063-1.066-1.649-2.481-1.649-3.978
		C236.704,393.269,237.295,391.849,238.364,390.784 M236.373,389.328c0.124-0.121,0.318-0.118,0.441,0.003
		c0.117,0.118,0.116,0.314,0,0.436c-1.345,1.336-2.089,3.114-2.089,5.01c0,1.881,0.739,3.655,2.069,4.988
		c0.124,0.121,0.124,0.319,0,0.439c-0.12,0.119-0.318,0.119-0.441,0c-1.45-1.45-2.247-3.378-2.247-5.428
		C234.106,392.711,234.909,390.779,236.373,389.328 M247.655,409.63h-1.651v0.583h-2.568v-0.583h-14.248v0.583h-2.573v-0.583h-1.492
		v-4.349h16.93l0.426-14.94c0.008-0.197,0.169-0.349,0.364-0.343c0.188,0.008,0.338,0.157,0.341,0.343l0.427,14.94h4.044V409.63z
		 M249.356,400.184c-0.115,0.121-0.313,0.124-0.436,0c-0.122-0.121-0.122-0.317-0.002-0.442c1.321-1.326,2.049-3.089,2.049-4.966
		s-0.728-3.64-2.049-4.97c-0.12-0.122-0.12-0.318,0.002-0.442c0.123-0.121,0.321-0.118,0.436,0.003
		c1.437,1.447,2.23,3.366,2.23,5.409S250.793,398.737,249.356,400.184 M242.961,407.466c0,0.227,0.181,0.411,0.408,0.411
		c0.227,0,0.41-0.185,0.41-0.411c0-0.223-0.183-0.409-0.41-0.409C243.142,407.057,242.961,407.244,242.961,407.466"/>
	<path clip-path="url(#SVGID_3_)" fill="#25408F" d="M322.683,382.416c-9.754,0-17.659,7.907-17.659,17.657
		c0,9.753,7.905,17.659,17.659,17.659c9.753,0,17.657-7.906,17.657-17.659C340.339,390.323,332.436,382.416,322.683,382.416
		 M319.008,390.057c0-0.272,0.226-0.497,0.502-0.497h6.434c0.272,0,0.496,0.225,0.496,0.497v6.056c0,0.275-0.224,0.503-0.496,0.503
		h-6.434c-0.276,0-0.502-0.228-0.502-0.503V390.057z M335.689,407.584h-6.436c-0.274,0-0.499-0.226-0.499-0.496v-6.058
		c0-0.271,0.225-0.496,0.499-0.496h2.815v-1.143h-8.78v1.143h2.656c0.272,0,0.496,0.225,0.496,0.496v6.058
		c0,0.271-0.224,0.496-0.496,0.496h-6.434c-0.276,0-0.502-0.226-0.502-0.496v-6.058c0-0.271,0.226-0.496,0.502-0.496h2.726v-1.143
		h-8.781v1.143h2.656c0.274,0,0.498,0.225,0.498,0.496v6.058c0,0.271-0.224,0.496-0.498,0.496h-6.437
		c-0.272,0-0.499-0.226-0.499-0.496v-6.058c0-0.271,0.227-0.496,0.499-0.496h2.728v-2.195h9.834v-1.528h1.052v1.528h9.833v2.195
		h2.568c0.272,0,0.5,0.225,0.5,0.496v6.058C336.189,407.359,335.961,407.584,335.689,407.584"/>
	<path clip-path="url(#SVGID_3_)" fill="#25408F" d="M651.311,259.773c-3.453,0-6.823,0.382-10.085,1.089
		c0.138-1.814,0.225-3.643,0.225-5.496c0-35.818-26.485-64.854-59.159-64.854c-24.477,0-45.48,16.296-54.479,39.529
		c-8.954-5.022-19.091-7.875-29.84-7.875c-3.066,0-6.081,0.239-9.034,0.684c0.269,1.422,0.17,3.232-0.838,5.401
		c-1.437,3.082-5.219,7.668-9.762,7.668h-0.002c-1.994,0-3.87-0.867-5.154-2.386c-1.251-1.487-2.577-2.851-3.958-4.098
		c-1.605,0.858-3.168,1.788-4.699,2.785c1.307,1.115,2.545,2.353,3.699,3.724c0.905,1.077,2.779,4.067,0.664,8.61
		c-1.438,3.082-5.22,7.668-9.766,7.668c-2,0-3.879-0.871-5.151-2.385c-1.462-1.738-3.231-2.9-5.117-3.412
		c-4.849,6-8.794,12.897-11.614,20.427h19.241v92.471h-24.139v-72.711c-21.779,0.005-39.431,19.359-39.431,43.234
		c0,23.879,17.658,43.236,39.44,43.236h218.96c28.542,0,51.681-25.364,51.681-56.653
		C702.992,285.14,679.853,259.773,651.311,259.773 M513.731,360.377c-27.835,0-48.546-20.313-48.546-47.488
		c0-26.646,21.238-46.697,49.469-46.697c13.719,0,28.098,6.068,37.331,15.83l-13.981,16.752
		c-6.068-7.385-14.907-12.136-22.953-12.136c-14.247,0-25.064,11.212-25.064,25.987c0,14.904,10.817,26.251,25.064,26.251
		c7.649,0,16.488-4.22,22.953-10.816l14.113,15.168C542.224,353.652,527.449,360.377,513.731,360.377 M606.596,359.324h-24.142
		v-72.552h-27.437v-19.919h79.279v19.919h-27.701V359.324z M627.618,359.099h-5.839v-5.63h5.839V359.099z M650.004,359.099h-5.48
		v-10.518c0-2.533-1.226-3.835-3.316-3.835c-2.09,0-3.424,1.302-3.424,3.835v10.518h-5.479v-18.855h5.479v2.674
		c1.263-1.581,2.883-3.025,5.658-3.025c4.147,0,6.563,2.675,6.563,7V359.099z M660.493,359.099h-5.479V333.42h5.479V359.099z
		 M481.456,225.159c0.167-0.361,0.224-0.586,0.249-0.748c-1.813,0.507-3.599,1.091-5.347,1.76c0.726,0.745,1.44,1.512,2.13,2.317
		C479.236,228.175,480.724,226.729,481.456,225.159"/>
	<path clip-path="url(#SVGID_3_)" fill="#25408F" d="M143.9,431.219c-2.638,0-4.711,2.036-4.711,4.637
		c0,2.6,2.073,4.654,4.711,4.654c1.319,0,2.676-0.604,3.675-1.564l1.319,1.47c-1.338,1.319-3.242,2.167-5.107,2.167
		c-3.863,0-6.86-2.922-6.86-6.708c0-3.75,3.035-6.635,6.935-6.635c1.866,0,3.731,0.773,5.013,2.036l-1.3,1.621
		C146.613,431.861,145.238,431.219,143.9,431.219"/>
	<polygon clip-path="url(#SVGID_3_)" fill="#25408F" points="153.375,429.297 153.375,440.472 159.085,440.472 159.085,442.488 
		151.151,442.488 151.151,429.297 	"/>
	<path clip-path="url(#SVGID_3_)" fill="#25408F" d="M174.102,435.893c0,3.769-3.053,6.688-6.992,6.688
		c-3.938,0-6.991-2.92-6.991-6.688c0-3.788,3.053-6.652,6.991-6.652C171.049,429.241,174.102,432.124,174.102,435.893
		 M162.38,435.893c0,2.619,2.167,4.691,4.749,4.691s4.692-2.072,4.692-4.691s-2.11-4.654-4.692-4.654
		C164.528,431.239,162.38,433.274,162.38,435.893"/>
	<path clip-path="url(#SVGID_3_)" fill="#25408F" d="M181.975,440.585c2.148,0,3.486-1.319,3.486-3.563v-7.726h2.224v7.726
		c0,3.449-2.167,5.56-5.729,5.56s-5.748-2.11-5.748-5.56v-7.726h2.224v7.726C178.432,439.248,179.808,440.585,181.975,440.585"/>
	<path clip-path="url(#SVGID_3_)" fill="#25408F" d="M203.096,435.892c0,3.808-2.884,6.597-6.879,6.597h-5.351v-13.191h5.408
		C200.23,429.297,203.096,432.068,203.096,435.892 M200.853,435.912c0-2.694-2.016-4.616-4.617-4.616h-3.147v9.196h3.242
		C198.894,440.492,200.853,438.588,200.853,435.912"/>
	<path clip-path="url(#SVGID_3_)" fill="#25408F" d="M217.696,435.892c0,3.808-2.884,6.597-6.879,6.597h-5.351v-13.191h5.408
		C214.831,429.297,217.696,432.068,217.696,435.892 M215.453,435.912c0-2.694-2.016-4.616-4.617-4.616h-3.147v9.196h3.242
		C213.494,440.492,215.453,438.588,215.453,435.912"/>
	<rect x="220.066" y="429.298" clip-path="url(#SVGID_3_)" fill="#25408F" width="2.224" height="13.19"/>
	<polygon clip-path="url(#SVGID_3_)" fill="#25408F" points="235.178,429.297 235.178,431.295 227.979,431.295 227.979,434.875 
		234.424,434.875 234.424,436.854 227.979,436.854 227.979,440.491 235.404,440.491 235.404,442.488 225.756,442.488 
		225.756,429.297 	"/>
	<polygon clip-path="url(#SVGID_3_)" fill="#25408F" points="240.3,429.297 247.366,438.776 247.366,429.297 249.552,429.297 
		249.552,442.488 247.366,442.488 240.338,433.028 240.338,442.488 238.114,442.488 238.114,429.297 	"/>
	<path clip-path="url(#SVGID_3_)" fill="#25408F" d="M257.199,431.295c-1.3,0-2.148,0.489-2.148,1.375
		c0,2.884,7.123,1.338,7.104,6.087c0,2.354-2.073,3.807-4.975,3.807c-2.073,0-4.033-0.848-5.39-2.092l0.962-1.922
		c1.356,1.244,3.052,1.922,4.466,1.922c1.545,0,2.468-0.584,2.468-1.602c0-2.939-7.123-1.301-7.123-5.992
		c0-2.263,1.941-3.675,4.805-3.675c1.715,0,3.393,0.546,4.618,1.356l-0.924,1.96C259.63,431.652,258.198,431.295,257.199,431.295"/>
	<polygon clip-path="url(#SVGID_3_)" fill="#25408F" points="273.76,429.297 273.76,431.295 269.577,431.295 269.577,442.488 
		267.354,442.488 267.354,431.295 263.188,431.295 263.188,429.297 	"/>
	<polygon clip-path="url(#SVGID_3_)" fill="#25408F" points="285.083,429.297 285.083,431.295 277.884,431.295 277.884,434.875 
		284.329,434.875 284.329,436.854 277.884,436.854 277.884,440.491 285.309,440.491 285.309,442.488 275.661,442.488 
		275.661,429.297 	"/>
	<polygon clip-path="url(#SVGID_3_)" fill="#25408F" points="290.205,429.297 297.271,438.776 297.271,429.297 299.457,429.297 
		299.457,442.488 297.271,442.488 290.243,433.028 290.243,442.488 288.019,442.488 288.019,429.297 	"/>
	<rect x="308.572" y="427.225" clip-path="url(#SVGID_3_)" fill="#25408F" width="1.64" height="17.449"/>
	<path clip-path="url(#SVGID_3_)" fill="#25408F" d="M325.19,431.219c-2.638,0-4.711,2.036-4.711,4.637
		c0,2.6,2.073,4.654,4.711,4.654c1.319,0,2.676-0.604,3.675-1.564l1.319,1.47c-1.338,1.319-3.242,2.167-5.107,2.167
		c-3.863,0-6.86-2.922-6.86-6.708c0-3.75,3.035-6.635,6.935-6.635c1.866,0,3.731,0.773,5.013,2.036l-1.3,1.621
		C327.903,431.861,326.528,431.219,325.19,431.219"/>
	<path clip-path="url(#SVGID_3_)" fill="#25408F" d="M345.049,435.893c0,3.769-3.053,6.688-6.992,6.688
		c-3.938,0-6.991-2.92-6.991-6.688c0-3.788,3.053-6.652,6.991-6.652C341.996,429.241,345.049,432.124,345.049,435.893
		 M333.327,435.893c0,2.619,2.167,4.691,4.749,4.691s4.692-2.072,4.692-4.691s-2.11-4.654-4.692-4.654
		C335.475,431.239,333.327,433.274,333.327,435.893"/>
	<polygon clip-path="url(#SVGID_3_)" fill="#25408F" points="350.058,429.297 354.411,438.06 358.745,429.297 361.365,429.297 
		361.365,442.488 359.31,442.488 359.292,432.633 355.126,441.112 353.676,441.112 349.512,432.633 349.512,442.488 
		347.419,442.488 347.419,429.297 	"/>
	<path clip-path="url(#SVGID_3_)" fill="#25408F" d="M375.323,433.8c0,2.979-1.903,4.711-5.22,4.711h-3.034v3.978h-2.223v-13.192
		h5.257C373.42,429.296,375.323,430.937,375.323,433.8 M373.194,433.858c0-1.733-1.15-2.563-3.185-2.563h-2.94v5.221h2.94
		C372.044,436.515,373.194,435.648,373.194,433.858"/>
	<path clip-path="url(#SVGID_3_)" fill="#25408F" d="M383.027,440.585c2.148,0,3.486-1.319,3.486-3.563v-7.726h2.224v7.726
		c0,3.449-2.167,5.56-5.729,5.56s-5.748-2.11-5.748-5.56v-7.726h2.224v7.726C379.484,439.248,380.86,440.585,383.027,440.585"/>
	<polygon clip-path="url(#SVGID_3_)" fill="#25408F" points="400.925,429.297 400.925,431.295 396.742,431.295 396.742,442.488 
		394.518,442.488 394.518,431.295 390.353,431.295 390.353,429.297 	"/>
	<polygon clip-path="url(#SVGID_3_)" fill="#25408F" points="412.248,429.297 412.248,431.295 405.049,431.295 405.049,434.875 
		411.494,434.875 411.494,436.854 405.049,436.854 405.049,440.491 412.474,440.491 412.474,442.488 402.826,442.488 
		402.826,429.297 	"/>
	<path clip-path="url(#SVGID_3_)" fill="#25408F" d="M423.55,442.489l-2.412-3.995c-0.188,0.019-0.395,0.019-0.603,0.019h-3.128
		v3.977h-2.224v-13.191h5.352c3.374,0,5.313,1.64,5.313,4.504c0,2.109-0.979,3.6-2.731,4.277l2.959,4.41H423.55z M420.536,436.515
		c2.036,0,3.204-0.867,3.204-2.657c0-1.734-1.168-2.563-3.204-2.563h-3.128v5.22H420.536z"/>
	<path clip-path="url(#SVGID_3_)" fill="#25408F" d="M432.969,431.295c-1.301,0-2.147,0.489-2.147,1.375
		c0,2.884,7.123,1.338,7.104,6.087c0,2.354-2.072,3.807-4.975,3.807c-2.073,0-4.033-0.848-5.389-2.092l0.961-1.922
		c1.355,1.244,3.052,1.922,4.466,1.922c1.545,0,2.468-0.584,2.468-1.602c0-2.939-7.123-1.301-7.123-5.992
		c0-2.263,1.941-3.675,4.807-3.675c1.715,0,3.392,0.546,4.615,1.356l-0.923,1.96C435.401,431.652,433.968,431.295,432.969,431.295"
		/>
	<rect x="446.155" y="427.225" clip-path="url(#SVGID_3_)" fill="#25408F" width="1.641" height="17.449"/>
	<polygon clip-path="url(#SVGID_3_)" fill="#25408F" points="459.081,429.297 466.146,438.776 466.146,429.297 468.333,429.297 
		468.333,442.488 466.146,442.488 459.117,433.028 459.117,442.488 456.893,442.488 456.893,429.297 	"/>
	<polygon clip-path="url(#SVGID_3_)" fill="#25408F" points="481.236,429.297 481.236,431.295 474.038,431.295 474.038,434.875 
		480.482,434.875 480.482,436.854 474.038,436.854 474.038,440.491 481.462,440.491 481.462,442.488 471.813,442.488 
		471.813,429.297 	"/>
	<polygon clip-path="url(#SVGID_3_)" fill="#25408F" points="493.181,429.297 493.181,431.295 488.997,431.295 488.997,442.488 
		486.774,442.488 486.774,431.295 482.61,431.295 482.61,429.297 	"/>
	<polygon clip-path="url(#SVGID_3_)" fill="#25408F" points="495.797,429.297 499,440.02 502.185,429.297 504.371,429.297 
		507.574,440.02 510.759,429.297 513.059,429.297 508.649,442.488 506.368,442.488 503.24,432.199 500.074,442.488 497.776,442.488 
		493.403,429.297 	"/>
	<polygon clip-path="url(#SVGID_3_)" fill="#25408F" points="524.021,429.297 524.021,431.295 516.822,431.295 516.822,434.875 
		523.266,434.875 523.266,436.854 516.822,436.854 516.822,440.491 524.247,440.491 524.247,442.488 514.597,442.488 
		514.597,429.297 	"/>
	<path clip-path="url(#SVGID_3_)" fill="#25408F" d="M535.325,442.489l-2.412-3.995c-0.189,0.019-0.396,0.019-0.603,0.019h-3.13
		v3.977h-2.224v-13.191h5.354c3.372,0,5.313,1.64,5.313,4.504c0,2.109-0.979,3.6-2.732,4.277l2.959,4.41H535.325z M532.31,436.515
		c2.034,0,3.202-0.867,3.202-2.657c0-1.734-1.168-2.563-3.202-2.563h-3.13v5.22H532.31z"/>
	<polygon clip-path="url(#SVGID_3_)" fill="#25408F" points="549.378,442.489 545.043,436.666 542.801,439.134 542.801,442.489 
		540.577,442.489 540.577,429.297 542.801,429.297 542.801,436.12 549.096,429.297 551.715,429.297 546.607,434.931 
		552.054,442.489 	"/>
	<polygon clip-path="url(#SVGID_3_)" fill="#25408F" points="563.527,429.297 563.527,431.295 556.328,431.295 556.328,434.875 
		562.772,434.875 562.772,436.854 556.328,436.854 556.328,440.491 563.752,440.491 563.752,442.488 554.103,442.488 
		554.103,429.297 	"/>
	<polygon clip-path="url(#SVGID_3_)" fill="#25408F" points="568.648,429.297 575.714,438.776 575.714,429.297 577.902,429.297 
		577.902,442.488 575.714,442.488 568.685,433.028 568.685,442.488 566.461,442.488 566.461,429.297 	"/>
	<rect x="587.016" y="427.225" clip-path="url(#SVGID_3_)" fill="#25408F" width="1.64" height="17.449"/>
	<polygon clip-path="url(#SVGID_3_)" fill="#25408F" points="606.761,429.297 606.761,431.295 602.578,431.295 602.578,442.488 
		600.355,442.488 600.355,431.295 596.191,431.295 596.191,429.297 	"/>
	<polygon clip-path="url(#SVGID_3_)" fill="#25408F" points="618.085,429.297 618.085,431.295 610.886,431.295 610.886,434.875 
		617.331,434.875 617.331,436.854 610.886,436.854 610.886,440.491 618.311,440.491 618.311,442.488 608.662,442.488 
		608.662,429.297 	"/>
	<polygon clip-path="url(#SVGID_3_)" fill="#25408F" points="623.244,429.297 623.244,440.472 628.954,440.472 628.954,442.488 
		621.02,442.488 621.02,429.297 	"/>
	<polygon clip-path="url(#SVGID_3_)" fill="#25408F" points="640.503,429.297 640.503,431.295 633.305,431.295 633.305,434.875 
		639.75,434.875 639.75,436.854 633.305,436.854 633.305,440.491 640.73,440.491 640.73,442.488 631.081,442.488 631.081,429.297 	
		"/>
	<polygon clip-path="url(#SVGID_3_)" fill="#25408F" points="652.296,429.297 652.278,431.295 645.663,431.295 645.663,435.102 
		651.656,435.102 651.656,437.081 645.663,437.081 645.663,442.488 643.44,442.488 643.44,429.297 	"/>
	<path clip-path="url(#SVGID_3_)" fill="#25408F" d="M667.163,435.893c0,3.769-3.054,6.688-6.992,6.688s-6.991-2.92-6.991-6.688
		c0-3.788,3.053-6.652,6.991-6.652S667.163,432.124,667.163,435.893 M655.441,435.893c0,2.619,2.168,4.691,4.749,4.691
		s4.691-2.072,4.691-4.691s-2.11-4.654-4.691-4.654C657.589,431.239,655.441,433.274,655.441,435.893"/>
	<polygon clip-path="url(#SVGID_3_)" fill="#25408F" points="671.718,429.297 678.785,438.776 678.785,429.297 680.972,429.297 
		680.972,442.488 678.785,442.488 671.755,433.028 671.755,442.488 669.532,442.488 669.532,429.297 	"/>
	<rect x="684.452" y="429.298" clip-path="url(#SVGID_3_)" fill="#25408F" width="2.225" height="13.19"/>
	<polygon clip-path="url(#SVGID_3_)" fill="#25408F" points="699.565,429.297 699.565,431.295 692.366,431.295 692.366,434.875 
		698.81,434.875 698.81,436.854 692.366,436.854 692.366,440.491 699.791,440.491 699.791,442.488 690.141,442.488 690.141,429.297 
			"/>
</g>
</svg>
