<?xml version="1.0" encoding="utf-8"?>
<!-- Generator: Adobe Illustrator 14.0.0, SVG Export Plug-In . SVG Version: 6.00 Build 43363)  -->
<!DOCTYPE svg PUBLIC "-//W3C//DTD SVG 1.1//EN" "http://www.w3.org/Graphics/SVG/1.1/DTD/svg11.dtd">
<svg version="1.1" xmlns="http://www.w3.org/2000/svg" xmlns:xlink="http://www.w3.org/1999/xlink" x="0px" y="0px" width="183px"
	 height="60px" viewBox="0 0 183 60" enable-background="new 0 0 183 60" xml:space="preserve">
<g id="Layer_1" display="none">
	<path display="inline" fill="#FFFFFF" d="M123.743,54.539l-0.05-0.807l-1.641-0.004v7.715h1.731v-5.59
		c0.126-0.256,0.319-0.471,0.56-0.621c0.277-0.162,0.596-0.242,0.916-0.229c0.195-0.002,0.391,0.022,0.578,0.075
		c0.164,0.046,0.314,0.13,0.439,0.246c0.127,0.125,0.223,0.279,0.277,0.449c0.069,0.222,0.102,0.453,0.096,0.686v4.99h1.732v-5.143
		c0.001-0.025,0.001-0.05,0-0.074v-0.074c0.088-0.323,0.271-0.613,0.526-0.83c0.272-0.219,0.615-0.332,0.965-0.316
		c0.194-0.004,0.386,0.018,0.575,0.063c0.16,0.039,0.311,0.116,0.434,0.228c0.129,0.12,0.225,0.272,0.278,0.44
		c0.069,0.226,0.103,0.463,0.096,0.7v5.007h1.731v-5c0.011-0.441-0.049-0.882-0.174-1.306c-0.1-0.328-0.27-0.631-0.5-0.887
		c-0.219-0.231-0.491-0.405-0.793-0.506c-0.346-0.112-0.707-0.167-1.069-0.162c-0.938-0.033-1.831,0.414-2.367,1.186
		c-0.176-0.389-0.477-0.706-0.854-0.902c-0.393-0.193-0.826-0.289-1.264-0.282c-0.441-0.01-0.88,0.075-1.285,0.249
		C124.32,54,124,54.24,123.743,54.539z M139.268,61.133c0.026,0.11,0.065,0.215,0.117,0.315l1.748,0.011v-0.121
		c-0.216-0.527-0.315-1.094-0.292-1.663v-3.423c0.017-0.396-0.055-0.793-0.211-1.158c-0.14-0.32-0.351-0.604-0.618-0.828
		c-0.279-0.228-0.602-0.397-0.947-0.498c-0.823-0.234-1.696-0.224-2.513,0.031c-0.362,0.116-0.7,0.294-1.002,0.526
		c-0.262,0.206-0.479,0.463-0.637,0.756c-0.147,0.271-0.224,0.573-0.224,0.881h1.73c0.008-0.292,0.146-0.565,0.376-0.745
		c0.126-0.087,0.269-0.162,0.421-0.21c0.18-0.057,0.367-0.085,0.557-0.083c0.377-0.029,0.746,0.102,1.021,0.36
		c0.231,0.253,0.351,0.597,0.334,0.948v0.504h-1.091c-0.5-0.006-0.999,0.051-1.484,0.169c-0.395,0.093-0.769,0.259-1.103,0.489
		c-0.29,0.205-0.525,0.479-0.685,0.799c-0.16,0.344-0.24,0.72-0.233,1.099c-0.009,0.315,0.058,0.628,0.194,0.912
		c0.129,0.278,0.314,0.526,0.543,0.729c0.242,0.215,0.524,0.381,0.83,0.486c0.342,0.12,0.7,0.18,1.063,0.176
		c0.406,0,0.809-0.086,1.178-0.255c0.164-0.075,0.319-0.166,0.463-0.274c0.137-0.1,0.264-0.211,0.383-0.334L139.268,61.133
		L139.268,61.133z M138.051,60.121c-0.182,0.054-0.369,0.08-0.56,0.079l0.001,0.002c-0.178,0.002-0.355-0.026-0.523-0.084
		c-0.141-0.05-0.271-0.128-0.382-0.229c-0.104-0.096-0.184-0.213-0.235-0.345c-0.053-0.138-0.08-0.286-0.078-0.435
		c-0.015-0.379,0.17-0.738,0.485-0.947c0.438-0.252,0.942-0.369,1.446-0.335h0.934v1.45c-0.146,0.262-0.359,0.48-0.617,0.633
		C138.374,60,138.216,60.07,138.051,60.121L138.051,60.121z M146.434,60.102c-0.188,0.074-0.389,0.109-0.59,0.105v-0.018
		c-0.307,0.014-0.611-0.061-0.877-0.215c-0.223-0.141-0.406-0.334-0.537-0.563c-0.138-0.247-0.23-0.517-0.272-0.796
		c-0.05-0.303-0.075-0.609-0.074-0.916v-0.25c0-0.303,0.024-0.606,0.075-0.905c0.042-0.28,0.134-0.552,0.273-0.8
		c0.279-0.511,0.828-0.816,1.41-0.784c0.217-0.004,0.432,0.037,0.631,0.121c0.36,0.153,0.643,0.448,0.78,0.813
		c0.074,0.187,0.116,0.385,0.125,0.584h1.631c-0.009-0.404-0.095-0.804-0.253-1.177c-0.148-0.348-0.366-0.661-0.643-0.92
		c-0.283-0.263-0.617-0.467-0.982-0.599c-0.92-0.314-1.922-0.281-2.818,0.093c-0.424,0.195-0.798,0.483-1.095,0.842
		c-0.298,0.365-0.521,0.786-0.651,1.238c-0.145,0.486-0.215,0.991-0.211,1.498v0.25c-0.004,0.507,0.066,1.011,0.211,1.497
		c0.133,0.449,0.354,0.869,0.651,1.234c0.3,0.356,0.675,0.642,1.099,0.834c0.486,0.221,1.016,0.328,1.549,0.315
		c0.412,0.003,0.82-0.067,1.205-0.21c0.361-0.133,0.695-0.329,0.988-0.58c0.278-0.238,0.508-0.529,0.676-0.857
		c0.168-0.316,0.264-0.685,0.274-1.054h-1.631c-0.008,0.184-0.056,0.362-0.14,0.526C147.074,59.74,146.783,59.989,146.434,60.102
		L146.434,60.102z M152.965,53.848c-0.359,0.174-0.681,0.42-0.941,0.725V50.49h-1.732v10.955h1.732v-5.514
		c0.146-0.275,0.361-0.508,0.623-0.678c0.279-0.172,0.603-0.259,0.931-0.25c0.368-0.025,0.733,0.094,1.016,0.332
		c0.263,0.314,0.388,0.723,0.347,1.13v4.981h1.732v-4.965c0.008-0.451-0.053-0.902-0.179-1.336
		c-0.099-0.334-0.271-0.641-0.505-0.898c-0.219-0.23-0.49-0.403-0.791-0.503c-0.332-0.108-0.678-0.162-1.026-0.158
		C153.754,53.581,153.342,53.67,152.965,53.848L152.965,53.848z M158.678,51.063c-0.17,0.18-0.261,0.418-0.254,0.664h-0.01
		c-0.006,0.242,0.086,0.477,0.254,0.652c0.194,0.184,0.457,0.277,0.723,0.26c0.271,0.02,0.537-0.074,0.736-0.26
		c0.172-0.173,0.266-0.409,0.257-0.652c0.007-0.247-0.085-0.486-0.257-0.664c-0.195-0.185-0.457-0.28-0.727-0.264
		C159.133,50.781,158.871,50.877,158.678,51.063z M158.532,61.447h1.731v-7.715h-1.731V61.447z M163.807,54.623l-0.051-0.891
		l-1.648,0.002v7.715h1.754v-5.491c0.148-0.28,0.365-0.519,0.632-0.692c0.278-0.175,0.603-0.264,0.93-0.256
		c0.196-0.004,0.392,0.02,0.581,0.073c0.159,0.045,0.305,0.13,0.421,0.247c0.121,0.125,0.21,0.277,0.261,0.445
		c0.063,0.218,0.094,0.445,0.088,0.673v5h1.731v-4.985c0.009-0.449-0.05-0.9-0.175-1.334c-0.097-0.33-0.266-0.635-0.495-0.891
		c-0.213-0.227-0.479-0.396-0.774-0.495c-0.326-0.106-0.666-0.158-1.01-0.154c-0.438-0.006-0.871,0.087-1.268,0.271
		C164.404,54.04,164.072,54.3,163.807,54.623L163.807,54.623z M172.122,61.307c0.489,0.195,1.013,0.292,1.539,0.284l-0.011,0.003
		c0.349,0.002,0.699-0.039,1.035-0.127c0.301-0.074,0.578-0.185,0.842-0.328c0.228-0.13,0.438-0.285,0.631-0.463
		c0.173-0.162,0.326-0.343,0.46-0.54l-0.933-0.89c-0.224,0.29-0.504,0.529-0.824,0.706c-0.345,0.177-0.729,0.265-1.115,0.256
		c-0.541,0.017-1.064-0.196-1.439-0.588c-0.181-0.188-0.324-0.41-0.42-0.653c-0.105-0.264-0.17-0.543-0.189-0.826h5.049v-0.738
		c0.005-0.518-0.063-1.033-0.2-1.532c-0.118-0.438-0.325-0.849-0.606-1.206c-0.273-0.34-0.625-0.61-1.024-0.788
		c-0.462-0.197-0.96-0.294-1.462-0.282c-0.471-0.002-0.936,0.094-1.367,0.282c-0.422,0.186-0.799,0.458-1.107,0.799
		c-0.325,0.366-0.574,0.793-0.736,1.255c-0.188,0.529-0.279,1.089-0.271,1.65v0.284c-0.004,0.503,0.084,1.002,0.258,1.474
		C170.549,60.234,171.238,60.95,172.122,61.307z M172.299,55.479c0.29-0.33,0.713-0.514,1.151-0.498l0.008,0.004
		c0.248-0.01,0.494,0.041,0.722,0.141c0.189,0.092,0.354,0.225,0.48,0.393c0.126,0.17,0.219,0.36,0.275,0.563
		c0.059,0.216,0.094,0.437,0.104,0.66v0.129h-3.3C171.785,56.361,171.979,55.877,172.299,55.479L172.299,55.479z M182.363,59.004
		c0.041,0.111,0.062,0.229,0.061,0.346l0.01-0.008c-0.001,0.269-0.129,0.521-0.344,0.68c-0.315,0.193-0.683,0.283-1.052,0.261
		c-0.192,0-0.384-0.023-0.571-0.068c-0.178-0.042-0.347-0.115-0.499-0.217c-0.149-0.101-0.274-0.235-0.362-0.394
		c-0.104-0.184-0.16-0.389-0.166-0.6h-1.684c0,0.334,0.074,0.653,0.211,0.948c0.146,0.315,0.36,0.596,0.623,0.823
		c0.303,0.258,0.648,0.457,1.023,0.589c0.449,0.157,0.923,0.233,1.398,0.226c0.434,0.004,0.866-0.054,1.284-0.172
		c0.354-0.1,0.688-0.263,0.987-0.48c0.263-0.195,0.479-0.447,0.631-0.737c0.148-0.291,0.225-0.614,0.221-0.941
		c0.012-0.312-0.055-0.62-0.193-0.899c-0.133-0.258-0.325-0.482-0.56-0.655c-0.274-0.2-0.577-0.36-0.897-0.47
		c-0.393-0.139-0.793-0.251-1.199-0.336c-0.26-0.053-0.518-0.121-0.77-0.203c-0.172-0.053-0.336-0.128-0.488-0.223
		c-0.107-0.066-0.195-0.159-0.254-0.271c-0.05-0.107-0.074-0.225-0.072-0.343c-0.004-0.262,0.113-0.511,0.316-0.676
		c0.121-0.094,0.258-0.165,0.403-0.209c0.185-0.059,0.377-0.088,0.57-0.082c0.2-0.006,0.399,0.029,0.589,0.096
		c0.156,0.059,0.299,0.146,0.421,0.26c0.11,0.105,0.199,0.232,0.257,0.375c0.057,0.137,0.086,0.284,0.086,0.432h1.732
		c0.006-0.678-0.297-1.321-0.821-1.75c-0.288-0.233-0.618-0.41-0.974-0.521c-0.418-0.132-0.854-0.195-1.293-0.19
		c-0.42-0.005-0.838,0.06-1.236,0.19c-0.342,0.111-0.66,0.285-0.941,0.51c-0.25,0.202-0.453,0.457-0.595,0.745
		c-0.138,0.278-0.21,0.584-0.21,0.896c-0.008,0.297,0.064,0.592,0.203,0.854c0.141,0.253,0.335,0.473,0.568,0.646
		c0.267,0.197,0.561,0.354,0.873,0.467c0.367,0.136,0.744,0.24,1.129,0.316c0.287,0.055,0.568,0.133,0.842,0.229
		c0.18,0.05,0.35,0.15,0.503,0.26C182.23,58.781,182.313,58.885,182.363,59.004L182.363,59.004z M3.69,54.54l-0.05-0.806L2,53.73
		v7.715h1.732v-5.592c0.126-0.254,0.32-0.47,0.56-0.621c0.277-0.162,0.595-0.241,0.916-0.229c0.195-0.002,0.39,0.023,0.577,0.075
		c0.164,0.046,0.314,0.13,0.439,0.246c0.128,0.125,0.223,0.28,0.278,0.45c0.07,0.221,0.102,0.453,0.096,0.685v4.99H8.33v-5.292
		c0.088-0.323,0.272-0.613,0.526-0.83c0.273-0.219,0.616-0.332,0.966-0.316c0.192-0.004,0.386,0.018,0.573,0.063
		c0.162,0.039,0.31,0.116,0.435,0.228c0.128,0.12,0.223,0.272,0.277,0.44c0.07,0.226,0.103,0.463,0.096,0.7v5.007h1.732v-5
		c0.01-0.441-0.05-0.882-0.175-1.306c-0.098-0.328-0.269-0.631-0.499-0.887c-0.219-0.232-0.492-0.406-0.795-0.506
		c-0.345-0.112-0.706-0.167-1.069-0.162c-0.938-0.032-1.83,0.414-2.366,1.186c-0.175-0.389-0.477-0.707-0.855-0.902
		c-0.392-0.193-0.825-0.289-1.262-0.282c-0.442-0.01-0.88,0.075-1.287,0.249C4.267,54,3.947,54.24,3.69,54.54L3.69,54.54z
		 M16.57,61.309c0.49,0.195,1.013,0.291,1.54,0.284l-0.01-0.007c0.361,0.003,0.711-0.039,1.051-0.126
		c0.289-0.075,0.568-0.187,0.83-0.329c0.442-0.24,0.821-0.584,1.102-1.002l-0.934-0.891c-0.223,0.289-0.504,0.529-0.824,0.705
		c-0.345,0.178-0.728,0.267-1.115,0.258c-0.28,0.005-0.559-0.049-0.817-0.157c-0.237-0.092-0.45-0.235-0.624-0.42
		c-0.181-0.188-0.323-0.411-0.42-0.653c-0.105-0.266-0.169-0.544-0.19-0.828h5.05v-0.736c-0.004-0.518-0.075-1.033-0.21-1.533
		c-0.12-0.438-0.326-0.849-0.607-1.206c-0.274-0.341-0.626-0.612-1.026-0.79c-0.461-0.197-0.96-0.293-1.461-0.281
		c-0.471-0.002-0.937,0.094-1.368,0.282c-0.422,0.185-0.8,0.457-1.109,0.799c-0.325,0.366-0.575,0.793-0.736,1.255
		c-0.187,0.53-0.279,1.089-0.272,1.65v0.284c-0.004,0.503,0.083,1.002,0.257,1.474c0.162,0.441,0.412,0.844,0.736,1.184
		C15.74,60.864,16.134,61.13,16.57,61.309z M16.748,55.48c0.29-0.33,0.712-0.514,1.151-0.498l-0.007,0.004
		c0.26-0.01,0.508,0.039,0.736,0.141c0.19,0.092,0.355,0.225,0.481,0.393c0.126,0.17,0.22,0.36,0.275,0.563
		c0.058,0.216,0.093,0.437,0.105,0.66v0.129h-3.3C16.234,56.363,16.429,55.879,16.748,55.48L16.748,55.48z M24.718,53.734v-1.877
		l-1.732-0.004v1.875h-1.269v1.285h1.269v4.406c-0.01,0.344,0.041,0.686,0.15,1.014c0.086,0.252,0.23,0.481,0.42,0.67
		c0.178,0.17,0.395,0.297,0.631,0.369c0.268,0.078,0.525,0.116,0.794,0.114c0.221,0.003,0.442-0.015,0.66-0.053
		c0.18-0.032,0.34-0.067,0.48-0.106v-1.34c-0.06,0.014-0.147,0.029-0.259,0.046c-0.115,0.017-0.23,0.025-0.346,0.025
		c-0.109,0.001-0.218-0.01-0.324-0.032c-0.093-0.02-0.179-0.061-0.253-0.12c-0.077-0.067-0.133-0.155-0.164-0.253
		c-0.042-0.139-0.061-0.283-0.057-0.429v-4.308h1.362v-1.283H24.718z M31.891,61.134c0.027,0.11,0.066,0.216,0.118,0.316
		l1.733,0.013v-0.12c-0.217-0.526-0.317-1.095-0.293-1.663v-3.424c0.017-0.396-0.054-0.793-0.21-1.158
		c-0.139-0.32-0.352-0.604-0.62-0.828c-0.279-0.228-0.601-0.396-0.947-0.498c-0.822-0.234-1.695-0.223-2.512,0.031
		c-0.362,0.116-0.701,0.294-1.001,0.526c-0.263,0.206-0.48,0.463-0.638,0.756c-0.146,0.271-0.223,0.574-0.224,0.881h1.736
		c0.008-0.292,0.146-0.565,0.376-0.745c0.128-0.09,0.27-0.161,0.42-0.21c0.18-0.057,0.368-0.085,0.557-0.083
		c0.376-0.029,0.747,0.102,1.02,0.36c0.232,0.253,0.352,0.597,0.335,0.948v0.505H30.65c-0.5-0.007-1,0.051-1.487,0.168
		c-0.394,0.094-0.767,0.26-1.101,0.489c-0.291,0.205-0.527,0.479-0.684,0.799c-0.162,0.343-0.243,0.719-0.236,1.098
		c-0.014,0.314,0.064,0.626,0.196,0.912c0.129,0.277,0.313,0.527,0.542,0.73c0.254,0.215,0.526,0.379,0.841,0.484
		c0.342,0.12,0.701,0.18,1.063,0.176c0.407,0,0.81-0.086,1.18-0.255c0.164-0.073,0.32-0.166,0.463-0.274
		c0.137-0.1,0.264-0.211,0.382-0.334L31.891,61.134L31.891,61.134z M30.675,60.124c-0.182,0.053-0.37,0.08-0.56,0.078
		c-0.179,0.003-0.356-0.024-0.525-0.083c-0.141-0.051-0.27-0.128-0.38-0.229c-0.104-0.097-0.184-0.215-0.236-0.346
		c-0.053-0.139-0.08-0.285-0.078-0.434c-0.015-0.379,0.169-0.738,0.485-0.948c0.439-0.253,0.943-0.369,1.448-0.335h0.933v1.449
		c-0.148,0.262-0.36,0.48-0.617,0.636C30.998,60.003,30.84,60.073,30.675,60.124L30.675,60.124z M39.798,61.134
		c0.027,0.11,0.066,0.216,0.118,0.316l1.77,0.013v-0.12c-0.217-0.526-0.316-1.095-0.293-1.663v-3.424
		c0.018-0.396-0.054-0.793-0.21-1.158c-0.14-0.32-0.353-0.604-0.621-0.828c-0.279-0.228-0.601-0.396-0.947-0.498
		c-0.823-0.234-1.696-0.223-2.512,0.031c-0.362,0.116-0.701,0.295-1.002,0.526c-0.262,0.206-0.479,0.463-0.637,0.756
		c-0.146,0.271-0.223,0.574-0.224,0.881h1.731c-0.001-0.144,0.032-0.284,0.096-0.413c0.065-0.129,0.158-0.242,0.272-0.332
		c0.126-0.087,0.268-0.162,0.42-0.21c0.18-0.057,0.367-0.085,0.556-0.083c0.376-0.029,0.747,0.102,1.02,0.36
		c0.232,0.253,0.352,0.597,0.335,0.948v0.505h-1.091c-0.5-0.007-1,0.051-1.487,0.168c-0.394,0.094-0.767,0.26-1.101,0.489
		c-0.291,0.205-0.526,0.479-0.684,0.799c-0.163,0.343-0.244,0.719-0.236,1.098c-0.014,0.314,0.065,0.626,0.196,0.912
		c0.129,0.277,0.313,0.527,0.542,0.73c0.242,0.215,0.524,0.379,0.831,0.484c0.33,0.12,0.69,0.18,1.052,0.176
		c0.407,0,0.81-0.086,1.18-0.255c0.164-0.073,0.32-0.166,0.463-0.274c0.136-0.1,0.264-0.211,0.381-0.334L39.798,61.134
		L39.798,61.134z M38.582,60.124c-0.182,0.053-0.37,0.08-0.56,0.078c-0.178,0.003-0.355-0.024-0.524-0.083
		c-0.141-0.05-0.27-0.128-0.38-0.229c-0.104-0.097-0.185-0.215-0.236-0.346c-0.053-0.139-0.08-0.285-0.079-0.434
		c-0.016-0.379,0.168-0.738,0.485-0.948c0.438-0.253,0.942-0.369,1.447-0.335h0.934v1.449c-0.147,0.262-0.359,0.48-0.616,0.636
		C38.905,60.003,38.747,60.073,38.582,60.124L38.582,60.124z M43.338,61.449h1.733V50.494h-1.733V61.449L43.338,61.449z
		 M53.527,59.247c0.135-0.515,0.2-1.046,0.196-1.579l-0.008-0.146c0.005-0.535-0.059-1.068-0.192-1.588
		c-0.112-0.447-0.307-0.869-0.574-1.244c-0.248-0.341-0.572-0.618-0.946-0.81c-0.408-0.199-0.858-0.298-1.312-0.288
		c-0.397-0.009-0.792,0.069-1.157,0.229c-0.332,0.152-0.625,0.376-0.86,0.656v-3.98h-1.732v10.956h1.578l0.085-0.835
		c0.233,0.306,0.536,0.554,0.883,0.723c0.808,0.352,1.729,0.337,2.525-0.039c0.373-0.193,0.696-0.471,0.94-0.813
		C53.218,60.113,53.413,59.693,53.527,59.247L53.527,59.247z M51.909,56.557c0.056,0.317,0.083,0.639,0.082,0.963l-0.002,0.149
		c0.003,0.33-0.025,0.66-0.084,0.985c-0.048,0.279-0.146,0.549-0.288,0.794c-0.129,0.22-0.31,0.403-0.526,0.534
		c-0.245,0.139-0.524,0.207-0.806,0.197c-0.355,0.015-0.706-0.082-1.002-0.279c-0.259-0.185-0.465-0.436-0.595-0.727v-3.181
		c0.128-0.289,0.332-0.536,0.591-0.718c0.295-0.189,0.641-0.282,0.991-0.268c0.29-0.01,0.578,0.061,0.831,0.204
		c0.218,0.136,0.399,0.322,0.526,0.545C51.767,56.005,51.862,56.275,51.909,56.557z M57.029,61.309
		c0.49,0.195,1.012,0.293,1.54,0.284l-0.003-0.007c0.351,0.004,0.701-0.039,1.042-0.126c0.289-0.076,0.568-0.187,0.83-0.329
		c0.233-0.126,0.449-0.281,0.643-0.463c0.173-0.162,0.327-0.343,0.46-0.539l-0.935-0.891c-0.222,0.289-0.503,0.529-0.824,0.705
		c-0.345,0.178-0.728,0.266-1.115,0.257c-0.28,0.005-0.558-0.049-0.816-0.157c-0.236-0.093-0.449-0.236-0.624-0.42
		c-0.181-0.189-0.323-0.411-0.42-0.654c-0.105-0.264-0.169-0.543-0.19-0.826h5.05v-0.737c-0.004-0.519-0.074-1.034-0.21-1.534
		c-0.12-0.438-0.326-0.848-0.607-1.205c-0.275-0.34-0.627-0.61-1.027-0.788c-0.461-0.197-0.959-0.294-1.46-0.282
		c-0.471-0.002-0.937,0.094-1.368,0.282c-0.422,0.185-0.8,0.457-1.11,0.799c-0.324,0.366-0.574,0.793-0.736,1.255
		c-0.187,0.53-0.278,1.089-0.27,1.65v0.284c-0.004,0.503,0.083,1.002,0.257,1.474C55.463,60.232,56.15,60.946,57.029,61.309z
		 M57.207,55.48c0.29-0.33,0.712-0.514,1.15-0.498l0.007,0.004c0.25-0.01,0.496,0.041,0.723,0.141
		c0.19,0.092,0.354,0.225,0.48,0.393c0.127,0.17,0.22,0.36,0.275,0.563c0.059,0.216,0.094,0.437,0.105,0.66v0.129h-3.3
		C56.692,56.363,56.887,55.879,57.207,55.48z M71.008,53.734l-1.225,5.326l-1.61-5.326H66.87l-1.578,5.27l-1.248-5.27h-1.69
		l2.11,7.715h1.426l1.626-5.299l1.653,5.299h1.426l2.104-7.715H71.008L71.008,53.734z M75.712,61.309
		c0.49,0.195,1.013,0.293,1.54,0.284l-0.022,0.005c0.35,0.002,0.699-0.041,1.037-0.127c0.301-0.076,0.58-0.186,0.842-0.328
		c0.442-0.242,0.82-0.586,1.102-1.002l-0.934-0.893c-0.222,0.29-0.502,0.531-0.823,0.707c-0.344,0.178-0.728,0.266-1.115,0.257
		c-0.28,0.005-0.559-0.048-0.817-0.157c-0.235-0.101-0.447-0.248-0.624-0.432c-0.181-0.188-0.323-0.41-0.42-0.652
		c-0.105-0.266-0.169-0.544-0.19-0.828h5.05v-0.736c0.005-0.518-0.063-1.034-0.2-1.533c-0.119-0.438-0.325-0.849-0.606-1.206
		c-0.274-0.341-0.626-0.612-1.026-0.79c-0.461-0.197-0.959-0.293-1.461-0.281c-0.471-0.002-0.937,0.094-1.368,0.282
		c-0.422,0.186-0.799,0.458-1.108,0.799c-0.325,0.366-0.575,0.793-0.737,1.255c-0.187,0.53-0.278,1.089-0.27,1.65v0.284
		c-0.004,0.503,0.083,1.002,0.257,1.474c0.161,0.441,0.412,0.844,0.736,1.184C74.882,60.864,75.276,61.13,75.712,61.309
		L75.712,61.309z M75.891,55.48c0.29-0.33,0.712-0.514,1.15-0.498l-0.007,0.004c0.26-0.01,0.509,0.039,0.737,0.141
		c0.19,0.092,0.355,0.225,0.48,0.393c0.127,0.17,0.22,0.36,0.275,0.563c0.059,0.216,0.094,0.437,0.106,0.66v0.129h-3.3
		C75.377,56.363,75.572,55.879,75.891,55.48z M85.391,55.275c0.117,0.009,0.233,0.022,0.347,0.041l0.005-1.623
		c-0.199-0.063-0.405-0.096-0.613-0.1c-0.357-0.009-0.7,0.084-1.015,0.268c-0.295,0.186-0.543,0.438-0.724,0.736l-0.042-0.863
		h-1.654v7.716h1.733v-5.277c0.12-0.278,0.325-0.513,0.584-0.67c0.31-0.175,0.663-0.259,1.019-0.243L85.391,55.275z M88.566,58.934
		l0.77-0.791l2.295,3.306h2l-3.173-4.5l2.866-3.218h-2.08l-2.132,2.404l-0.542,0.678v-6.315h-1.733V61.45h1.729V58.934
		L88.566,58.934z M94.706,51.064c-0.169,0.18-0.259,0.418-0.252,0.664h-0.011c-0.008,0.242,0.084,0.479,0.254,0.652
		c0.194,0.184,0.457,0.277,0.724,0.26c0.271,0.02,0.537-0.075,0.736-0.26c0.171-0.173,0.265-0.409,0.257-0.652
		c0.007-0.247-0.086-0.486-0.257-0.664c-0.195-0.185-0.458-0.28-0.728-0.264C95.162,50.783,94.9,50.879,94.706,51.064z
		 M94.561,61.449h1.732v-7.715h-1.732V61.449L94.561,61.449z M99.835,54.625l-0.05-0.891l-1.628,0.002v7.715h1.731V55.96
		c0.147-0.28,0.365-0.519,0.631-0.692c0.278-0.175,0.602-0.264,0.93-0.257c0.197-0.002,0.393,0.023,0.582,0.075
		c0.158,0.045,0.303,0.13,0.42,0.247c0.121,0.125,0.21,0.276,0.26,0.444c0.064,0.219,0.096,0.447,0.09,0.674v5h1.731v-4.985
		c0.01-0.45-0.048-0.911-0.175-1.333c-0.096-0.33-0.266-0.635-0.496-0.892c-0.211-0.228-0.477-0.397-0.772-0.496
		c-0.325-0.106-0.667-0.158-1.009-0.154c-0.438-0.006-0.871,0.087-1.27,0.271C100.434,54.041,100.1,54.302,99.835,54.625z
		 M106.203,55.928c-0.146,0.523-0.218,1.063-0.211,1.606l0.013,0.151c-0.006,0.526,0.065,1.051,0.211,1.558
		c0.128,0.446,0.337,0.866,0.616,1.237c0.259,0.34,0.589,0.619,0.968,0.816c0.384,0.189,0.82,0.301,1.263,0.294
		c0.391,0.009,0.779-0.062,1.141-0.21c0.326-0.142,0.619-0.354,0.855-0.62v0.521c0.035,0.507-0.146,1.004-0.5,1.368
		c-0.375,0.328-0.863,0.495-1.36,0.468c-0.357,0-0.712-0.076-1.037-0.222c-0.362-0.168-0.681-0.416-0.931-0.728l-0.82,1.054
		c0.181,0.231,0.391,0.434,0.631,0.592c0.238,0.16,0.495,0.291,0.764,0.395c0.935,0.361,1.966,0.386,2.918,0.071
		c0.407-0.133,0.783-0.348,1.104-0.632c0.312-0.282,0.556-0.631,0.716-1.021c0.178-0.438,0.266-0.91,0.257-1.383v-7.503h-1.561
		l-0.079,0.777c-0.234-0.29-0.532-0.522-0.869-0.682c-1.215-0.53-2.635-0.186-3.473,0.842
		C106.537,55.055,106.329,55.477,106.203,55.928z M107.823,58.648c-0.071-0.316-0.106-0.641-0.104-0.965l0.004-0.141
		c-0.004-0.33,0.032-0.659,0.104-0.98c0.062-0.285,0.171-0.556,0.323-0.803c0.141-0.223,0.332-0.41,0.561-0.542
		c0.248-0.138,0.527-0.207,0.813-0.2c0.328-0.012,0.652,0.07,0.937,0.235c0.255,0.152,0.463,0.37,0.603,0.631v3.396
		c-0.145,0.263-0.35,0.486-0.599,0.652c-0.286,0.176-0.62,0.26-0.956,0.246c-0.281,0.008-0.56-0.06-0.806-0.195
		c-0.226-0.133-0.415-0.317-0.556-0.539C107.994,59.199,107.885,58.931,107.823,58.648L107.823,58.648z M118.837,59.005
		c0.04,0.111,0.062,0.228,0.06,0.347l0.014,0.012c0.006,0.27-0.125,0.525-0.348,0.68c-0.311,0.193-0.675,0.284-1.041,0.26
		c-0.191,0-0.383-0.022-0.57-0.068c-0.178-0.041-0.346-0.115-0.498-0.217c-0.148-0.102-0.273-0.236-0.363-0.393
		c-0.102-0.184-0.157-0.39-0.164-0.6h-1.684c0.002,0.324,0.072,0.645,0.211,0.938c0.146,0.316,0.359,0.598,0.624,0.824
		c0.301,0.258,0.647,0.457,1.022,0.589c0.449,0.157,0.922,0.233,1.398,0.226c0.434,0.004,0.867-0.054,1.284-0.172
		c0.356-0.1,0.69-0.263,0.987-0.48c0.264-0.195,0.494-0.446,0.631-0.737c0.138-0.292,0.215-0.626,0.211-0.94
		c0.008-0.312-0.059-0.62-0.192-0.9c-0.134-0.258-0.325-0.482-0.56-0.655c-0.274-0.2-0.577-0.359-0.898-0.47
		c-0.393-0.139-0.794-0.251-1.202-0.335c-0.26-0.054-0.517-0.122-0.771-0.204c-0.171-0.054-0.334-0.129-0.487-0.225
		c-0.106-0.064-0.194-0.158-0.252-0.27c-0.05-0.107-0.075-0.225-0.071-0.343c0-0.126,0.026-0.252,0.078-0.367
		c0.055-0.12,0.137-0.225,0.239-0.308c0.12-0.094,0.257-0.165,0.403-0.209c0.184-0.059,0.377-0.087,0.57-0.084
		c0.199-0.004,0.399,0.031,0.588,0.098c0.156,0.059,0.299,0.146,0.422,0.26c0.108,0.107,0.195,0.235,0.256,0.375
		c0.056,0.126,0.084,0.273,0.084,0.42h1.731c0.007-0.678-0.295-1.321-0.819-1.75c-0.289-0.232-0.619-0.409-0.974-0.52
		c-0.419-0.132-0.854-0.196-1.294-0.189c-0.42-0.006-0.838,0.059-1.236,0.189c-0.342,0.111-0.66,0.283-0.94,0.509
		c-0.25,0.202-0.453,0.456-0.595,0.745c-0.139,0.278-0.211,0.584-0.211,0.895c-0.008,0.297,0.063,0.592,0.203,0.855
		c0.141,0.254,0.334,0.475,0.566,0.646c0.268,0.196,0.561,0.354,0.873,0.467c0.368,0.135,0.746,0.24,1.13,0.315
		c0.286,0.056,0.567,0.132,0.843,0.228c0.18,0.051,0.348,0.149,0.502,0.261C118.703,58.782,118.786,58.886,118.837,59.005
		L118.837,59.005z M153.023,19.608L146.893,5l-6.045,11.355l11.387,26.968L172.146,5.91h-11.679l-7.444,13.7V19.608z M82.482,5.905
		H63.823v10.09h18.659V5.905z M82.404,31.17v10.08l-8.446-0.003c0,0-10.123-0.03-10.123-10.013V21.16h10.107v8.067
		c0.059,1.129,1.021,2,2.15,1.944L82.404,31.17L82.404,31.17z M120.378,5.905h12.104l10.394,24.668l-6.772,12.778L120.378,5.905z
		 M174.105,21.16h10.011v20.105h-10.011V21.16z M99.585,5.923h-10.1l-0.02,24.863c0,6.596,7.008,10.468,10.827,10.468h15.317V5.922
		h-10.1v24.801h-3.439c-1.335,0.035-2.447-1.016-2.485-2.351V5.923L99.585,5.923z M174.102,5.906h10.016v10.08h-10.016V5.906z
		 M53.812,5.906H2.006v10.09H53.81V5.906H53.812z M2.006,31.166H53.81v10.089H2.007L2.006,31.166L2.006,31.166z M53.81,18.534H2.007
		v10.09h51.804L53.81,18.534L53.81,18.534z"/>
</g>
<g id="Layer_2">
	<path fill="#00ADEF" d="M151.455,15.109l-6.131-14.608l-6.045,11.355l11.387,26.968l19.912-37.413H158.9l-7.445,13.7V15.109z
		 M80.914,1.406H62.255v10.09h18.659V1.406z M80.836,26.671v10.08l-8.446-0.003c0,0-10.123-0.03-10.123-10.013V16.661h10.107v8.067
		c0.059,1.129,1.021,2,2.15,1.944L80.836,26.671L80.836,26.671z M118.811,1.406h12.104l10.395,24.668l-6.773,12.778L118.811,1.406z
		 M172.537,16.661h10.012v20.105h-10.012V16.661z M98.018,1.424H87.917l-0.02,24.863c0,6.596,7.007,10.468,10.828,10.468h15.316
		V1.423h-10.1v24.801h-3.439c-1.334,0.035-2.447-1.016-2.484-2.351V1.424L98.018,1.424z M172.533,1.407h10.016v10.08h-10.016V1.407z
		 M52.244,1.407H0.438v10.09h51.804V1.407H52.244z M0.438,26.667h51.804v10.089H0.439L0.438,26.667L0.438,26.667z M52.242,14.035
		H0.439v10.09h51.804L52.242,14.035L52.242,14.035z"/>
</g>
<g id="Layer_3">
	<path fill="#003C58" d="M122.176,50.04l-0.051-0.807l-1.641-0.004v7.715h1.732v-5.59c0.125-0.256,0.318-0.471,0.559-0.621
		c0.277-0.162,0.596-0.242,0.916-0.229c0.195-0.002,0.391,0.022,0.578,0.075c0.164,0.046,0.314,0.13,0.439,0.246
		c0.127,0.125,0.223,0.279,0.277,0.449c0.07,0.222,0.102,0.453,0.096,0.686v4.99h1.732v-5.143c0.002-0.025,0.002-0.05,0-0.074
		v-0.074c0.088-0.323,0.271-0.613,0.527-0.83c0.271-0.219,0.615-0.332,0.965-0.316c0.193-0.004,0.385,0.018,0.574,0.063
		c0.16,0.039,0.311,0.116,0.434,0.228c0.129,0.12,0.225,0.272,0.279,0.44c0.068,0.226,0.102,0.463,0.096,0.7v5.007h1.73v-5
		c0.012-0.441-0.049-0.882-0.174-1.306c-0.1-0.328-0.27-0.631-0.5-0.887c-0.219-0.231-0.49-0.405-0.793-0.506
		c-0.346-0.112-0.707-0.167-1.068-0.162c-0.939-0.033-1.832,0.414-2.367,1.186c-0.176-0.389-0.477-0.706-0.855-0.902
		c-0.393-0.193-0.826-0.289-1.264-0.282c-0.441-0.01-0.879,0.075-1.285,0.249C122.752,49.501,122.432,49.741,122.176,50.04z
		 M137.699,56.634c0.027,0.11,0.066,0.215,0.117,0.315l1.748,0.011v-0.121c-0.215-0.527-0.314-1.094-0.291-1.663v-3.423
		c0.016-0.396-0.055-0.793-0.211-1.158c-0.141-0.32-0.352-0.604-0.619-0.828c-0.279-0.228-0.602-0.397-0.947-0.498
		c-0.822-0.234-1.695-0.224-2.512,0.031c-0.363,0.116-0.701,0.294-1.002,0.526c-0.262,0.206-0.479,0.463-0.637,0.756
		c-0.148,0.271-0.225,0.573-0.225,0.881h1.73c0.008-0.292,0.146-0.565,0.377-0.745c0.125-0.087,0.268-0.162,0.42-0.21
		c0.18-0.057,0.367-0.085,0.557-0.083c0.377-0.029,0.746,0.102,1.021,0.36c0.23,0.253,0.35,0.597,0.334,0.948v0.504h-1.092
		c-0.5-0.006-0.998,0.051-1.484,0.169c-0.395,0.093-0.768,0.259-1.102,0.489c-0.291,0.205-0.525,0.479-0.686,0.799
		c-0.16,0.344-0.24,0.72-0.232,1.099c-0.01,0.315,0.057,0.628,0.193,0.912c0.129,0.278,0.314,0.526,0.543,0.729
		c0.242,0.215,0.525,0.381,0.83,0.486c0.342,0.12,0.701,0.18,1.063,0.176c0.406,0,0.809-0.086,1.178-0.255
		c0.164-0.075,0.32-0.166,0.463-0.274c0.137-0.1,0.264-0.211,0.383-0.334L137.699,56.634L137.699,56.634z M136.482,55.622
		c-0.182,0.054-0.369,0.08-0.559,0.079v0.002c-0.178,0.002-0.355-0.026-0.523-0.084c-0.141-0.05-0.271-0.128-0.381-0.229
		c-0.104-0.096-0.184-0.213-0.236-0.345c-0.053-0.138-0.08-0.286-0.078-0.435c-0.014-0.379,0.17-0.738,0.486-0.947
		c0.438-0.252,0.941-0.369,1.445-0.335h0.934v1.45c-0.146,0.262-0.359,0.48-0.617,0.633
		C136.807,55.501,136.648,55.571,136.482,55.622L136.482,55.622z M144.865,55.603c-0.188,0.074-0.389,0.109-0.59,0.105V55.69
		c-0.307,0.014-0.611-0.061-0.877-0.215c-0.223-0.141-0.406-0.334-0.537-0.563c-0.137-0.247-0.23-0.517-0.271-0.796
		c-0.051-0.303-0.076-0.609-0.074-0.916v-0.25c0-0.303,0.023-0.606,0.074-0.905c0.043-0.28,0.135-0.552,0.273-0.8
		c0.279-0.511,0.828-0.816,1.41-0.784c0.217-0.004,0.432,0.037,0.631,0.121c0.361,0.153,0.643,0.448,0.781,0.813
		c0.074,0.187,0.115,0.385,0.125,0.584h1.631c-0.01-0.404-0.096-0.804-0.254-1.177c-0.148-0.348-0.365-0.661-0.643-0.92
		c-0.283-0.263-0.617-0.467-0.982-0.599c-0.92-0.314-1.922-0.281-2.818,0.093c-0.424,0.195-0.797,0.483-1.094,0.842
		c-0.299,0.365-0.521,0.786-0.652,1.238c-0.145,0.486-0.215,0.991-0.211,1.498v0.25c-0.004,0.507,0.066,1.011,0.211,1.497
		c0.133,0.449,0.355,0.869,0.652,1.234c0.299,0.356,0.674,0.642,1.098,0.834c0.486,0.221,1.016,0.328,1.549,0.315
		c0.412,0.003,0.82-0.067,1.205-0.21c0.361-0.133,0.695-0.329,0.988-0.58c0.279-0.238,0.508-0.529,0.676-0.857
		c0.168-0.316,0.264-0.685,0.275-1.054h-1.631c-0.008,0.184-0.057,0.362-0.141,0.526C145.506,55.241,145.215,55.49,144.865,55.603
		L144.865,55.603z M151.396,49.349c-0.359,0.174-0.68,0.42-0.941,0.725v-4.082h-1.732v10.955h1.732v-5.514
		c0.146-0.275,0.361-0.508,0.623-0.678c0.279-0.172,0.604-0.259,0.932-0.25c0.367-0.025,0.732,0.094,1.016,0.332
		c0.262,0.314,0.387,0.723,0.346,1.13v4.981h1.732v-4.965c0.008-0.451-0.053-0.902-0.178-1.336c-0.1-0.334-0.271-0.641-0.506-0.898
		c-0.219-0.23-0.49-0.403-0.791-0.503c-0.332-0.108-0.678-0.162-1.025-0.158C152.186,49.082,151.773,49.171,151.396,49.349
		L151.396,49.349z M157.109,46.563c-0.17,0.18-0.26,0.418-0.254,0.664h-0.01c-0.006,0.242,0.086,0.477,0.254,0.652
		c0.195,0.184,0.457,0.277,0.723,0.26c0.271,0.02,0.537-0.074,0.736-0.26c0.172-0.173,0.266-0.409,0.258-0.652
		c0.006-0.247-0.086-0.486-0.258-0.664c-0.195-0.185-0.457-0.28-0.727-0.264C157.564,46.282,157.303,46.378,157.109,46.563z
		 M156.965,56.948h1.73v-7.715h-1.73V56.948z M162.238,50.124l-0.051-0.891l-1.648,0.002v7.715h1.754v-5.491
		c0.148-0.28,0.365-0.519,0.633-0.692c0.277-0.175,0.602-0.264,0.93-0.256c0.195-0.004,0.391,0.02,0.58,0.073
		c0.16,0.045,0.305,0.13,0.422,0.247c0.121,0.125,0.209,0.277,0.26,0.445c0.064,0.218,0.094,0.445,0.088,0.673v5h1.732v-4.985
		c0.008-0.449-0.051-0.9-0.176-1.334c-0.096-0.33-0.266-0.635-0.494-0.891c-0.213-0.227-0.48-0.396-0.775-0.495
		c-0.326-0.106-0.666-0.158-1.01-0.154c-0.438-0.006-0.871,0.087-1.268,0.271C162.836,49.541,162.504,49.801,162.238,50.124
		L162.238,50.124z M170.555,56.808c0.488,0.195,1.012,0.292,1.539,0.284l-0.012,0.003c0.35,0.002,0.699-0.039,1.035-0.127
		c0.301-0.074,0.578-0.185,0.842-0.328c0.229-0.13,0.439-0.285,0.631-0.463c0.174-0.162,0.326-0.343,0.461-0.54l-0.934-0.89
		c-0.223,0.29-0.504,0.529-0.824,0.706c-0.344,0.177-0.729,0.265-1.115,0.256c-0.541,0.017-1.064-0.196-1.439-0.588
		c-0.18-0.188-0.324-0.41-0.42-0.653c-0.105-0.264-0.17-0.543-0.189-0.826h5.049v-0.738c0.006-0.518-0.063-1.033-0.199-1.532
		c-0.119-0.438-0.326-0.849-0.607-1.206c-0.273-0.34-0.625-0.61-1.023-0.788c-0.463-0.197-0.961-0.294-1.463-0.282
		c-0.471-0.002-0.936,0.094-1.367,0.282c-0.422,0.186-0.799,0.458-1.107,0.799c-0.324,0.366-0.574,0.793-0.736,1.255
		c-0.188,0.529-0.279,1.089-0.271,1.65v0.284c-0.004,0.503,0.084,1.002,0.258,1.474C168.98,55.735,169.67,56.451,170.555,56.808z
		 M170.73,50.979c0.291-0.33,0.713-0.514,1.152-0.498l0.008,0.004c0.248-0.01,0.494,0.041,0.721,0.141
		c0.189,0.092,0.355,0.225,0.48,0.393c0.127,0.17,0.219,0.36,0.275,0.563c0.059,0.216,0.094,0.437,0.105,0.66v0.129h-3.301
		C170.217,51.862,170.412,51.378,170.73,50.979L170.73,50.979z M180.795,54.505c0.041,0.111,0.063,0.229,0.061,0.346l0.01-0.008
		c0,0.269-0.129,0.521-0.344,0.68c-0.314,0.193-0.682,0.283-1.051,0.261c-0.193,0-0.385-0.023-0.572-0.068
		c-0.178-0.042-0.346-0.115-0.498-0.217c-0.15-0.101-0.275-0.235-0.363-0.394c-0.104-0.184-0.16-0.389-0.166-0.6h-1.684
		c0,0.334,0.074,0.653,0.211,0.948c0.146,0.315,0.361,0.596,0.623,0.823c0.303,0.258,0.648,0.457,1.023,0.589
		c0.449,0.157,0.924,0.233,1.398,0.226c0.434,0.004,0.867-0.054,1.285-0.172c0.354-0.1,0.688-0.263,0.986-0.48
		c0.264-0.195,0.479-0.447,0.631-0.737c0.148-0.291,0.225-0.614,0.221-0.941c0.012-0.312-0.055-0.62-0.193-0.899
		c-0.133-0.258-0.324-0.482-0.559-0.655c-0.275-0.2-0.578-0.36-0.898-0.47c-0.393-0.139-0.793-0.251-1.199-0.336
		c-0.26-0.053-0.518-0.121-0.77-0.203c-0.172-0.053-0.336-0.128-0.488-0.223c-0.107-0.066-0.195-0.159-0.254-0.271
		c-0.049-0.107-0.074-0.225-0.072-0.343c-0.004-0.262,0.113-0.511,0.316-0.676c0.121-0.094,0.258-0.165,0.404-0.209
		c0.184-0.059,0.377-0.088,0.57-0.082c0.199-0.006,0.398,0.029,0.588,0.096c0.156,0.059,0.299,0.146,0.422,0.26
		c0.109,0.105,0.199,0.232,0.256,0.375c0.057,0.137,0.086,0.284,0.086,0.432h1.732c0.006-0.678-0.297-1.321-0.82-1.75
		c-0.289-0.233-0.619-0.41-0.975-0.521c-0.418-0.132-0.854-0.195-1.293-0.19c-0.42-0.005-0.838,0.06-1.236,0.19
		c-0.342,0.111-0.66,0.285-0.941,0.51c-0.25,0.202-0.453,0.457-0.594,0.745c-0.139,0.278-0.211,0.584-0.211,0.896
		c-0.008,0.297,0.064,0.592,0.203,0.854c0.141,0.253,0.336,0.473,0.568,0.646c0.268,0.197,0.561,0.354,0.873,0.467
		c0.367,0.136,0.744,0.24,1.129,0.316c0.287,0.055,0.568,0.133,0.842,0.229c0.18,0.05,0.35,0.15,0.504,0.26
		C180.662,54.282,180.744,54.386,180.795,54.505L180.795,54.505z M2.122,50.041l-0.05-0.806l-1.64-0.004v7.715h1.732v-5.592
		c0.126-0.254,0.32-0.47,0.56-0.621c0.277-0.162,0.595-0.241,0.916-0.229c0.195-0.002,0.39,0.023,0.577,0.075
		c0.164,0.046,0.314,0.13,0.439,0.246c0.128,0.125,0.223,0.28,0.278,0.45c0.07,0.221,0.102,0.453,0.096,0.685v4.99h1.732v-5.292
		c0.088-0.323,0.272-0.613,0.526-0.83c0.273-0.219,0.616-0.332,0.966-0.316c0.192-0.004,0.386,0.018,0.573,0.063
		c0.162,0.039,0.31,0.116,0.435,0.228c0.128,0.12,0.223,0.272,0.277,0.44c0.07,0.226,0.103,0.463,0.096,0.7v5.007h1.732v-5
		c0.01-0.441-0.05-0.882-0.175-1.306c-0.098-0.328-0.269-0.631-0.499-0.887c-0.219-0.232-0.492-0.406-0.795-0.506
		c-0.345-0.112-0.706-0.167-1.069-0.162C7.891,49.059,7,49.505,6.463,50.276c-0.175-0.389-0.477-0.707-0.855-0.902
		c-0.392-0.193-0.825-0.289-1.262-0.282c-0.442-0.01-0.88,0.075-1.287,0.249C2.699,49.501,2.379,49.741,2.122,50.041L2.122,50.041z
		 M15.002,56.81c0.49,0.195,1.013,0.291,1.54,0.284l-0.01-0.007c0.361,0.003,0.711-0.039,1.051-0.126
		c0.289-0.075,0.568-0.187,0.83-0.329c0.442-0.24,0.821-0.584,1.102-1.002l-0.934-0.891c-0.223,0.289-0.504,0.529-0.824,0.705
		c-0.345,0.178-0.728,0.267-1.115,0.258c-0.28,0.005-0.559-0.049-0.817-0.157c-0.237-0.092-0.45-0.235-0.624-0.42
		c-0.181-0.188-0.323-0.411-0.42-0.653c-0.105-0.266-0.169-0.544-0.19-0.828h5.05v-0.736c-0.004-0.518-0.075-1.033-0.21-1.533
		c-0.12-0.438-0.326-0.849-0.607-1.206c-0.274-0.341-0.626-0.612-1.026-0.79c-0.461-0.197-0.96-0.293-1.461-0.281
		c-0.471-0.002-0.937,0.094-1.368,0.282c-0.422,0.185-0.8,0.457-1.109,0.799c-0.325,0.366-0.575,0.793-0.736,1.255
		c-0.187,0.53-0.279,1.089-0.272,1.65v0.284c-0.004,0.503,0.083,1.002,0.257,1.474c0.162,0.441,0.412,0.844,0.736,1.184
		C14.172,56.365,14.566,56.631,15.002,56.81z M15.18,50.981c0.29-0.33,0.712-0.514,1.151-0.498l-0.007,0.004
		c0.26-0.01,0.508,0.039,0.736,0.141c0.19,0.092,0.355,0.225,0.481,0.393c0.126,0.17,0.22,0.36,0.275,0.563
		c0.058,0.216,0.093,0.437,0.105,0.66v0.129h-3.3C14.667,51.864,14.861,51.38,15.18,50.981L15.18,50.981z M23.15,49.235v-1.877
		l-1.732-0.004v1.875h-1.269v1.285h1.269v4.406c-0.01,0.344,0.041,0.686,0.15,1.014c0.086,0.252,0.23,0.481,0.42,0.67
		c0.178,0.17,0.395,0.297,0.631,0.369c0.268,0.078,0.525,0.116,0.794,0.114c0.221,0.003,0.442-0.015,0.66-0.053
		c0.18-0.032,0.34-0.067,0.48-0.106v-1.34c-0.06,0.014-0.147,0.029-0.259,0.046c-0.115,0.017-0.23,0.025-0.346,0.025
		c-0.109,0.001-0.218-0.01-0.324-0.032c-0.093-0.02-0.179-0.061-0.253-0.12c-0.077-0.067-0.133-0.155-0.164-0.253
		c-0.042-0.139-0.061-0.283-0.057-0.429v-4.308h1.362v-1.283H23.15z M30.323,56.635c0.027,0.11,0.066,0.216,0.118,0.316l1.733,0.013
		v-0.12c-0.217-0.526-0.317-1.095-0.293-1.663v-3.424c0.017-0.396-0.054-0.793-0.21-1.158c-0.139-0.32-0.352-0.604-0.62-0.828
		c-0.279-0.228-0.601-0.396-0.947-0.498c-0.822-0.234-1.695-0.223-2.512,0.031c-0.362,0.116-0.701,0.294-1.001,0.526
		c-0.263,0.206-0.48,0.463-0.638,0.756c-0.146,0.271-0.223,0.574-0.224,0.881h1.736c0.008-0.292,0.146-0.565,0.376-0.745
		c0.128-0.09,0.27-0.161,0.42-0.21c0.18-0.057,0.368-0.085,0.557-0.083c0.376-0.029,0.747,0.102,1.02,0.36
		c0.232,0.253,0.352,0.597,0.335,0.948v0.505h-1.091c-0.5-0.007-1,0.051-1.487,0.168c-0.394,0.094-0.767,0.26-1.101,0.489
		c-0.291,0.205-0.527,0.479-0.684,0.799c-0.162,0.343-0.243,0.719-0.236,1.098c-0.014,0.314,0.064,0.626,0.196,0.912
		c0.129,0.277,0.313,0.527,0.542,0.73c0.254,0.215,0.526,0.379,0.841,0.484c0.342,0.12,0.701,0.18,1.063,0.176
		c0.407,0,0.81-0.086,1.18-0.255c0.164-0.073,0.32-0.166,0.463-0.274c0.137-0.1,0.264-0.211,0.382-0.334L30.323,56.635
		L30.323,56.635z M29.107,55.625c-0.182,0.053-0.37,0.08-0.56,0.078c-0.179,0.003-0.356-0.024-0.525-0.083
		c-0.141-0.051-0.27-0.128-0.38-0.229c-0.104-0.097-0.184-0.215-0.236-0.346c-0.053-0.139-0.08-0.285-0.078-0.434
		c-0.015-0.379,0.169-0.738,0.485-0.948c0.439-0.253,0.943-0.369,1.448-0.335h0.933v1.449c-0.148,0.262-0.36,0.48-0.617,0.636
		C29.43,55.504,29.272,55.574,29.107,55.625L29.107,55.625z M38.23,56.635c0.027,0.11,0.066,0.216,0.118,0.316l1.77,0.013v-0.12
		c-0.217-0.526-0.316-1.095-0.293-1.663v-3.424c0.018-0.396-0.054-0.793-0.21-1.158c-0.14-0.32-0.353-0.604-0.621-0.828
		c-0.279-0.228-0.601-0.396-0.947-0.498c-0.823-0.234-1.696-0.223-2.512,0.031c-0.362,0.116-0.701,0.295-1.002,0.526
		c-0.262,0.206-0.479,0.463-0.637,0.756c-0.146,0.271-0.223,0.574-0.224,0.881h1.731c-0.001-0.144,0.032-0.284,0.096-0.413
		c0.065-0.129,0.158-0.242,0.272-0.332c0.126-0.087,0.268-0.162,0.42-0.21c0.18-0.057,0.367-0.085,0.556-0.083
		c0.376-0.029,0.747,0.102,1.02,0.36c0.232,0.253,0.352,0.597,0.335,0.948v0.505h-1.091c-0.5-0.007-1,0.051-1.487,0.168
		c-0.394,0.094-0.767,0.26-1.101,0.489c-0.291,0.205-0.526,0.479-0.684,0.799c-0.163,0.343-0.244,0.719-0.236,1.098
		c-0.014,0.314,0.065,0.626,0.196,0.912c0.129,0.277,0.313,0.527,0.542,0.73c0.242,0.215,0.524,0.379,0.831,0.484
		c0.33,0.12,0.69,0.18,1.052,0.176c0.407,0,0.81-0.086,1.18-0.255c0.164-0.073,0.32-0.166,0.463-0.274
		c0.136-0.1,0.264-0.211,0.381-0.334L38.23,56.635L38.23,56.635z M37.014,55.625c-0.182,0.053-0.37,0.08-0.56,0.078
		c-0.178,0.003-0.355-0.024-0.524-0.083c-0.141-0.05-0.27-0.128-0.38-0.229c-0.104-0.097-0.185-0.215-0.236-0.346
		c-0.053-0.139-0.08-0.285-0.079-0.434c-0.016-0.379,0.168-0.738,0.485-0.948c0.438-0.253,0.942-0.369,1.447-0.335h0.934v1.449
		c-0.147,0.262-0.359,0.48-0.616,0.636C37.337,55.504,37.179,55.574,37.014,55.625L37.014,55.625z M41.77,56.95h1.733V45.995H41.77
		V56.95L41.77,56.95z M51.959,54.748c0.135-0.515,0.2-1.046,0.196-1.579l-0.008-0.146c0.005-0.535-0.059-1.068-0.192-1.588
		c-0.112-0.447-0.307-0.869-0.574-1.244c-0.248-0.341-0.572-0.618-0.946-0.81c-0.408-0.199-0.858-0.298-1.312-0.288
		c-0.397-0.009-0.792,0.069-1.157,0.229c-0.332,0.152-0.625,0.376-0.86,0.656v-3.98h-1.732v10.956h1.578l0.085-0.835
		c0.233,0.306,0.536,0.554,0.883,0.723c0.808,0.352,1.729,0.337,2.525-0.039c0.373-0.193,0.696-0.471,0.94-0.813
		C51.65,55.614,51.845,55.194,51.959,54.748L51.959,54.748z M50.341,52.058c0.056,0.317,0.083,0.639,0.082,0.963l-0.002,0.149
		c0.003,0.33-0.025,0.66-0.084,0.985c-0.048,0.279-0.146,0.549-0.288,0.794c-0.129,0.22-0.31,0.403-0.526,0.534
		c-0.245,0.139-0.524,0.207-0.806,0.197c-0.355,0.015-0.706-0.082-1.002-0.279c-0.259-0.185-0.465-0.436-0.595-0.727v-3.181
		c0.128-0.289,0.332-0.536,0.591-0.718c0.295-0.189,0.641-0.282,0.991-0.268c0.29-0.01,0.578,0.061,0.831,0.204
		c0.218,0.136,0.399,0.322,0.526,0.545C50.199,51.506,50.294,51.776,50.341,52.058z M55.461,56.81
		c0.49,0.195,1.012,0.293,1.54,0.284l-0.003-0.007c0.351,0.004,0.701-0.039,1.042-0.126c0.289-0.076,0.568-0.187,0.83-0.329
		c0.233-0.126,0.449-0.281,0.643-0.463c0.173-0.162,0.327-0.343,0.46-0.539l-0.935-0.891c-0.222,0.289-0.503,0.529-0.824,0.705
		c-0.345,0.178-0.728,0.266-1.115,0.257c-0.28,0.005-0.558-0.049-0.816-0.157c-0.236-0.093-0.449-0.236-0.624-0.42
		c-0.181-0.189-0.323-0.411-0.42-0.654c-0.105-0.264-0.169-0.543-0.19-0.826h5.05v-0.737c-0.004-0.519-0.074-1.034-0.21-1.534
		c-0.12-0.438-0.326-0.848-0.607-1.205c-0.275-0.34-0.627-0.61-1.027-0.788c-0.461-0.197-0.959-0.294-1.46-0.282
		c-0.471-0.002-0.937,0.094-1.368,0.282c-0.422,0.185-0.8,0.457-1.11,0.799c-0.324,0.366-0.574,0.793-0.736,1.255
		c-0.187,0.53-0.278,1.089-0.27,1.65v0.284c-0.004,0.503,0.083,1.002,0.257,1.474C53.895,55.733,54.582,56.447,55.461,56.81z
		 M55.639,50.981c0.29-0.33,0.712-0.514,1.15-0.498l0.007,0.004c0.25-0.01,0.496,0.041,0.723,0.141
		c0.19,0.092,0.354,0.225,0.48,0.393c0.127,0.17,0.22,0.36,0.275,0.563c0.059,0.216,0.094,0.437,0.105,0.66v0.129h-3.3
		C55.125,51.864,55.319,51.38,55.639,50.981z M69.44,49.235l-1.225,5.326l-1.61-5.326h-1.303l-1.578,5.27l-1.248-5.27h-1.69
		l2.11,7.715h1.426l1.626-5.299l1.653,5.299h1.426l2.104-7.715H69.44L69.44,49.235z M74.144,56.81
		c0.49,0.195,1.013,0.293,1.54,0.284l-0.022,0.005c0.35,0.002,0.699-0.041,1.037-0.127c0.301-0.076,0.58-0.186,0.842-0.328
		c0.442-0.242,0.82-0.586,1.102-1.002l-0.934-0.893c-0.222,0.29-0.502,0.531-0.823,0.707c-0.344,0.178-0.728,0.266-1.115,0.257
		c-0.28,0.005-0.559-0.048-0.817-0.157c-0.235-0.101-0.447-0.248-0.624-0.432c-0.181-0.188-0.323-0.41-0.42-0.652
		c-0.105-0.266-0.169-0.544-0.19-0.828h5.05v-0.736c0.005-0.518-0.063-1.034-0.2-1.533c-0.119-0.438-0.325-0.849-0.606-1.206
		c-0.274-0.341-0.626-0.612-1.026-0.79c-0.461-0.197-0.959-0.293-1.461-0.281c-0.471-0.002-0.937,0.094-1.368,0.282
		c-0.422,0.186-0.799,0.458-1.108,0.799c-0.325,0.366-0.575,0.793-0.737,1.255c-0.187,0.53-0.278,1.089-0.27,1.65v0.284
		c-0.004,0.503,0.083,1.002,0.257,1.474c0.161,0.441,0.412,0.844,0.736,1.184C73.314,56.365,73.708,56.631,74.144,56.81
		L74.144,56.81z M74.323,50.981c0.29-0.33,0.712-0.514,1.15-0.498l-0.007,0.004c0.26-0.01,0.509,0.039,0.737,0.141
		c0.19,0.092,0.355,0.225,0.48,0.393c0.127,0.17,0.22,0.36,0.275,0.563c0.059,0.216,0.094,0.437,0.106,0.66v0.129h-3.3
		C73.809,51.864,74.004,51.38,74.323,50.981z M83.823,50.776c0.117,0.009,0.233,0.022,0.347,0.041l0.005-1.623
		c-0.199-0.063-0.405-0.096-0.613-0.1c-0.357-0.009-0.7,0.084-1.015,0.268c-0.295,0.186-0.543,0.438-0.724,0.736l-0.042-0.863
		h-1.654v7.716h1.733v-5.277c0.12-0.278,0.325-0.513,0.584-0.67c0.31-0.175,0.663-0.259,1.019-0.243L83.823,50.776z M86.998,54.435
		l0.77-0.791l2.294,3.306h2l-3.172-4.5l2.866-3.218h-2.08l-2.132,2.404l-0.542,0.678v-6.315h-1.733v10.953h1.729V54.435
		L86.998,54.435z M93.139,46.565c-0.17,0.18-0.26,0.418-0.252,0.664h-0.012c-0.008,0.242,0.084,0.479,0.254,0.652
		c0.195,0.184,0.457,0.277,0.725,0.26c0.27,0.02,0.537-0.075,0.736-0.26c0.17-0.173,0.264-0.409,0.256-0.652
		c0.008-0.247-0.086-0.486-0.256-0.664c-0.195-0.185-0.459-0.28-0.729-0.264C93.594,46.284,93.332,46.38,93.139,46.565z
		 M92.992,56.95h1.732v-7.715h-1.732V56.95L92.992,56.95z M98.268,50.126l-0.051-0.891l-1.627,0.002v7.715h1.73v-5.491
		c0.148-0.28,0.365-0.519,0.631-0.692c0.279-0.175,0.602-0.264,0.93-0.257c0.197-0.002,0.393,0.023,0.582,0.075
		c0.158,0.045,0.303,0.13,0.42,0.247c0.121,0.125,0.211,0.276,0.26,0.444c0.064,0.219,0.096,0.447,0.09,0.674v5h1.732v-4.985
		c0.01-0.45-0.049-0.911-0.176-1.333c-0.096-0.33-0.266-0.635-0.496-0.892c-0.211-0.228-0.477-0.397-0.771-0.496
		c-0.326-0.106-0.668-0.158-1.01-0.154c-0.438-0.006-0.871,0.087-1.27,0.271C98.865,49.542,98.531,49.803,98.268,50.126z
		 M104.635,51.429c-0.146,0.523-0.217,1.063-0.211,1.606l0.014,0.151c-0.006,0.526,0.064,1.051,0.211,1.558
		c0.127,0.446,0.336,0.866,0.615,1.237c0.26,0.34,0.59,0.619,0.969,0.816c0.383,0.189,0.82,0.301,1.262,0.294
		c0.391,0.009,0.779-0.062,1.141-0.21c0.326-0.142,0.619-0.354,0.855-0.62v0.521c0.035,0.507-0.146,1.004-0.5,1.368
		c-0.375,0.328-0.863,0.495-1.359,0.468c-0.357,0-0.713-0.076-1.037-0.222c-0.363-0.168-0.682-0.416-0.932-0.728l-0.82,1.054
		c0.182,0.231,0.391,0.434,0.631,0.592c0.238,0.16,0.496,0.291,0.764,0.395c0.936,0.361,1.967,0.386,2.918,0.071
		c0.408-0.133,0.783-0.348,1.105-0.632c0.311-0.282,0.555-0.631,0.715-1.021c0.178-0.438,0.266-0.91,0.258-1.383v-7.503h-1.561
		l-0.08,0.777c-0.234-0.29-0.531-0.522-0.869-0.682c-1.215-0.53-2.635-0.186-3.473,0.842
		C104.969,50.556,104.762,50.978,104.635,51.429z M106.256,54.149c-0.072-0.316-0.107-0.641-0.105-0.965l0.004-0.141
		c-0.004-0.33,0.033-0.659,0.105-0.98c0.061-0.285,0.17-0.556,0.322-0.803c0.141-0.223,0.332-0.41,0.561-0.542
		c0.248-0.138,0.527-0.207,0.813-0.2c0.328-0.012,0.652,0.07,0.938,0.235c0.254,0.152,0.463,0.37,0.602,0.631v3.396
		c-0.145,0.263-0.35,0.486-0.598,0.652c-0.287,0.176-0.621,0.26-0.957,0.246c-0.281,0.008-0.559-0.06-0.805-0.195
		c-0.227-0.133-0.416-0.317-0.557-0.539C106.426,54.7,106.316,54.432,106.256,54.149L106.256,54.149z M117.27,54.506
		c0.039,0.111,0.061,0.228,0.059,0.347l0.014,0.012c0.006,0.27-0.125,0.525-0.348,0.68c-0.311,0.193-0.674,0.284-1.041,0.26
		c-0.191,0-0.383-0.022-0.57-0.068c-0.178-0.041-0.346-0.115-0.498-0.217c-0.148-0.102-0.273-0.236-0.363-0.393
		c-0.102-0.184-0.156-0.39-0.164-0.6h-1.684c0.002,0.324,0.072,0.645,0.211,0.938c0.146,0.316,0.359,0.598,0.625,0.824
		c0.301,0.258,0.646,0.457,1.021,0.589c0.449,0.157,0.922,0.233,1.398,0.226c0.434,0.004,0.867-0.054,1.285-0.172
		c0.355-0.1,0.689-0.263,0.986-0.48c0.264-0.195,0.494-0.446,0.631-0.737c0.139-0.292,0.215-0.626,0.211-0.94
		c0.008-0.312-0.059-0.62-0.191-0.9c-0.135-0.258-0.326-0.482-0.561-0.655c-0.273-0.2-0.576-0.359-0.898-0.47
		c-0.393-0.139-0.793-0.251-1.201-0.335c-0.26-0.054-0.518-0.122-0.771-0.204c-0.17-0.054-0.334-0.129-0.486-0.225
		c-0.107-0.064-0.195-0.158-0.252-0.27c-0.051-0.107-0.076-0.225-0.072-0.343c0-0.126,0.027-0.252,0.078-0.367
		c0.055-0.12,0.137-0.225,0.24-0.308c0.119-0.094,0.256-0.165,0.402-0.209c0.184-0.059,0.377-0.087,0.57-0.084
		c0.199-0.004,0.4,0.031,0.588,0.098c0.156,0.059,0.299,0.146,0.422,0.26c0.109,0.107,0.195,0.235,0.256,0.375
		c0.057,0.126,0.084,0.273,0.084,0.42h1.732c0.006-0.678-0.295-1.321-0.82-1.75c-0.289-0.232-0.619-0.409-0.973-0.52
		c-0.42-0.132-0.855-0.196-1.295-0.189c-0.42-0.006-0.838,0.059-1.236,0.189c-0.342,0.111-0.66,0.283-0.939,0.509
		c-0.25,0.202-0.453,0.456-0.596,0.745c-0.139,0.278-0.211,0.584-0.211,0.895c-0.008,0.297,0.064,0.592,0.203,0.855
		c0.141,0.254,0.334,0.475,0.566,0.646c0.268,0.196,0.561,0.354,0.873,0.467c0.369,0.135,0.746,0.24,1.131,0.315
		c0.285,0.056,0.566,0.132,0.842,0.228c0.18,0.051,0.348,0.149,0.502,0.261C117.135,54.283,117.219,54.387,117.27,54.506
		L117.27,54.506z"/>
</g>
</svg>
