<?xml version="1.0" encoding="utf-8"?>
<!-- Generator: Adobe Illustrator 14.0.0, SVG Export Plug-In . SVG Version: 6.00 Build 43363)  -->
<!DOCTYPE svg PUBLIC "-//W3C//DTD SVG 1.1//EN" "http://www.w3.org/Graphics/SVG/1.1/DTD/svg11.dtd">
<svg version="1.1" xmlns="http://www.w3.org/2000/svg" xmlns:xlink="http://www.w3.org/1999/xlink" x="0px" y="0px"
	 width="4808.523px" height="2246.686px" viewBox="0 0 4808.523 2246.686" enable-background="new 0 0 4808.523 2246.686"
	 xml:space="preserve">
<g id="Layer_4">
	<g>
		<path fill="#187B45" d="M123.365,2226.332h-10.699c-14.05-41.176-31.181-87.592-51.389-139.252
			c-16.859-43.012-26.479-66.733-28.855-71.166c-1.621-2.918-3.566-5.159-5.836-6.728c-2.27-1.565-10.322-4.296-24.154-8.187v-9.564
			c23.344,1.19,38.688,1.783,46.039,1.783c10.481,0,25.829-0.593,46.039-1.783V2001c-1.945,0.542-3.404,0.92-4.377,1.135
			c-10.593,2.594-16.834,4.676-18.724,6.241c-1.892,1.568-2.837,3.379-2.837,5.431c0,1.082,0.162,2.27,0.486,3.566
			c1.943,7.893,10.038,31.3,24.286,70.222l30.763,84.818c13.308-34.38,24.942-66.22,34.896-95.521
			c12.551-36.652,19.261-56.977,20.127-60.979c0.215-0.863,0.324-1.621,0.324-2.27c0-2.052-0.811-3.729-2.432-5.025
			c-2.378-1.836-10.269-4.539-23.668-8.105v-9.078c0.648,0,4.539,0.162,11.672,0.486c16.642,0.866,27.341,1.297,32.098,1.297
			c9.185,0,20.155-0.593,32.908-1.783v9.078c-11.241,2.918-18.374,5.486-21.398,7.7c-3.027,2.217-6.16,7.052-9.402,14.509
			c-6.593,14.914-23.182,58.901-49.768,131.957L123.365,2226.332z"/>
		<path fill="#187B45" d="M230.844,2107.992c0-35.446,11.429-64.545,34.286-87.296c22.857-22.748,52.225-34.124,88.106-34.124
			c33.395,0,59.98,10.051,79.758,30.152s29.666,47.77,29.666,83c0,39.124-11.132,70.006-33.395,92.646
			c-22.265,22.643-51.551,33.962-87.863,33.962c-34.043,0-60.981-10.266-80.812-30.801
			C240.758,2174.999,230.844,2145.819,230.844,2107.992z M266.346,2103.207c0,35.692,7.807,62.488,23.425,80.389
			c15.616,17.9,35.365,26.85,59.251,26.85c15.778,0,29.772-4.164,41.986-12.492c12.211-8.329,21.452-20.522,27.721-36.584
			c6.267-16.059,9.402-33.825,9.402-53.293c0-24.443-4-44.725-11.996-60.84c-7.999-16.114-17.888-27.662-29.666-34.638
			c-11.781-6.976-25.021-10.464-39.717-10.464c-16.104,0-30.532,4.245-43.283,12.735c-12.753,8.491-22.128,20.769-28.126,36.829
			C269.345,2067.761,266.346,2084.93,266.346,2103.207z"/>
		<path fill="#187B45" d="M746.838,2102.967v8.916l-24.803,5.998c-2.594,0.648-4.486,1.596-5.674,2.837
			c-1.19,1.244-2.001,3.055-2.432,5.431c-0.866,4.863-1.297,17.021-1.297,36.475c0,11.672,0.431,27.506,1.297,47.498
			c-4.757,0.758-14.97,2.918-30.639,6.484c-20.535,4.539-33.503,7.133-38.906,7.781c-10.484,1.297-21.616,1.945-33.395,1.945
			c-38.042,0-67.275-10.076-87.701-30.233c-20.426-20.154-30.639-47.632-30.639-82.433c0-37.716,11.968-68.329,35.907-91.835
			c23.937-23.506,55.791-35.259,95.563-35.259c9.942,0,19.453,0.596,28.531,1.783c2.052,0.218,20.532,3.514,55.441,9.889
			c-0.109,5.945-0.162,10.699-0.162,14.266c0,14.483,0.702,30.856,2.107,49.119h-12.158c-4.972-18.48-9.646-30.639-14.022-36.475
			s-11.484-10.59-21.317-14.266c-12.969-4.97-27.019-7.457-42.148-7.457c-33.503,0-58.684,12.645-75.543,37.934
			c-11.781,17.832-17.67,39.772-17.67,65.816c0,33.288,9.321,58.521,27.964,75.705s42.174,25.775,70.599,25.775
			c17.938,0,36.799-3.781,56.576-11.348c0.431-11.672,0.648-28.8,0.648-51.389c0-12.211-0.324-19.397-0.973-21.561
			c-0.648-2.16-1.945-3.835-3.891-5.025c-2.487-1.512-9.835-3.511-22.047-5.998l-6.322-1.459v-8.916l55.441,1.135
			C717.387,2104.102,731.275,2103.725,746.838,2102.967z"/>
		<path fill="#187B45" d="M825.461,2092.916h39.23c15.129,0,24.045-0.405,26.748-1.216c2.7-0.811,4.889-2.457,6.565-4.944
			c1.674-2.484,3.754-9.671,6.241-21.561c0.324-1.188,0.811-3.024,1.459-5.512h10.699c-1.19,17.832-1.783,31.559-1.783,41.176
			c0,9.944,0.593,23.562,1.783,40.852h-10.699c-3.136-15.669-5.081-24.423-5.836-26.262c-1.082-2.594-2.974-4.458-5.674-5.593
			c-2.703-1.135-10.755-1.702-24.154-1.702h-44.418l0.811,95.32h67.924l5.998-0.162c9.293,0,15.129-0.377,17.508-1.135
			c4.106-1.403,7.726-3.754,10.861-7.052c3.133-3.295,8.916-12.616,17.346-27.964c0.864-1.512,2.161-3.729,3.891-6.646h11.186
			c-1.297,3.46-7.999,23.777-20.102,60.953c-39.339-1.19-75.274-1.783-107.803-1.783c-22.695,0-47.769,0.593-75.219,1.783v-9.564
			l26.262-5.674c4.215-1.188,6.809-2.376,7.781-3.566c1.621-2.052,2.432-6.322,2.432-12.807v-2.918l0.811-38.096
			c0.106-7.348,0.162-21.775,0.162-43.283c0-31.231-0.109-54.116-0.324-68.653c-0.218-14.534-0.757-22.776-1.621-24.722
			c-0.648-1.297-1.649-2.351-2.999-3.161c-1.353-0.811-6.35-2.188-14.995-4.134L758.023,2001v-9.564
			c20.317,1.19,44.58,1.783,72.787,1.783c15.454,0,52.199-0.593,110.234-1.783c0.215,18.698,1.512,37.179,3.891,55.441h-11.348
			c-4.324-14.696-7.837-24.479-10.537-29.342c-1.839-3.349-4.108-5.564-6.809-6.646c-3.566-1.403-11.457-2.107-23.668-2.107h-65.492
			l-1.135,52.199L825.461,2092.916z"/>
		<path fill="#187B45" d="M980.438,2001v-9.564c26.477,1.19,44.418,1.783,53.82,1.783c5.836,0,24.479-0.593,55.928-1.783V2001
			c-19.453,3.352-30.856,5.567-34.205,6.646c-2.378,0.758-4.108,1.945-5.188,3.566c-1.621,2.27-2.541,6.971-2.756,14.104
			c-0.218,7.133-0.324,47.121-0.324,119.961c0,14.375,0.162,33.557,0.486,57.549h71.49c10.699,0,17.67-0.648,20.912-1.945
			s6.591-4.159,10.051-8.592c3.458-4.43,9.942-15.563,19.453-33.395h13.779l-12.969,36.15c-2.27,6.702-5.025,15.51-8.268,26.424
			c-44.702-1.19-83.628-1.783-116.777-1.783c-23.433,0-45.191,0.593-65.272,1.783v-9.564c16.462-3.024,26.145-5.106,29.05-6.241
			c2.903-1.135,4.866-2.675,5.889-4.62c1.023-1.945,1.535-7.619,1.535-17.021l0.811-99.373l-0.486-64.033
			c0-5.512-0.811-8.969-2.432-10.375c-2.487-2.16-10.484-4.43-23.992-6.809C988.596,2003.001,985.083,2002.19,980.438,2001z"/>
		<path fill="#187B45" d="M1345.184,2053.361h-12.32c-2.812-13.876-5.998-24.013-9.564-30.411
			c-3.566-6.396-8.997-11.41-16.292-15.043c-7.295-3.632-15.481-5.448-24.56-5.448c-12.862,0-23.101,3.571-30.72,10.712
			s-11.429,15.796-11.429,25.966c0,8.979,3.131,16.823,9.397,23.53c6.155,6.708,21.211,15.181,45.167,25.416
			c23.954,10.235,40.249,20.818,48.881,31.748c8.523,11.041,12.786,23.436,12.786,37.179c0,12.341-3.217,23.813-9.646,34.418
			c-6.431,10.608-16.104,19.076-29.018,25.408c-12.916,6.33-26.829,9.496-41.743,9.496c-10.16,0-20.345-0.973-30.558-2.918
			s-22.452-5.294-36.718-10.051c1.621-15.238,2.432-35.446,2.432-60.629h12.482c3.562,16.211,7.257,27.559,11.087,34.043
			c3.83,6.484,9.627,11.809,17.399,15.968c7.769,4.162,16.292,6.241,25.573,6.241c12.73,0,23.898-3.569,33.503-10.707
			c9.602-7.138,14.405-17.143,14.405-30.016c0-10.491-3.46-19.792-10.375-27.902c-7.026-8.005-22.237-17.063-45.634-27.174
			c-23.399-10.111-39.043-19.813-46.931-29.102c-7.89-9.18-11.834-20.14-11.834-32.883c0-11.122,3.187-21.732,9.564-31.829
			c6.375-10.097,15.75-18.085,28.126-23.972c12.374-5.887,25.208-8.83,38.501-8.83c15.993,0,35.34,3.838,58.035,11.51
			c-0.542,15.78-0.811,25.289-0.811,28.531C1344.373,2033.207,1344.642,2042.123,1345.184,2053.361z"/>
		<path fill="#187B45" d="M1477.789,2054.658h-12.482c2.052-18.805,3.891-39.879,5.512-63.223
			c47.835,1.19,81.957,1.783,102.367,1.783c16.953,0,47.837-0.593,92.65-1.783c1.403,24.102,3.024,45.176,4.863,63.223h-12.158
			c-5.068-19.777-8.359-31.368-9.868-34.772c-1.51-3.404-3.693-5.836-6.55-7.295c-2.857-1.459-10.109-2.188-21.756-2.188h-35.91
			c-0.866,28.749-1.297,64.305-1.297,106.668c0,39.34,0.431,65.926,1.297,79.758c0.215,3.242,1.026,5.459,2.432,6.646
			c1.836,1.515,10.752,3.838,26.748,6.971c1.512,0.218,3.782,0.704,6.809,1.459v9.564c-21.398-1.19-40.474-1.783-57.225-1.783
			c-15.887,0-32.153,0.593-48.795,1.783v-9.564c3.782-0.973,6.646-1.621,8.592-1.945c14.805-2.484,23.344-4.592,25.613-6.322
			c0.973-0.863,1.702-2.079,2.188-3.647c0.486-1.565,0.892-13.536,1.216-35.907c0.431-34.582,0.648-60.195,0.648-76.84
			c0-29.07-0.218-54.684-0.648-76.84h-38.582l-6.971,0.162c-6.16,0-10.213,0.648-12.158,1.945
			c-3.027,1.839-5.729,5.729-8.105,11.672C1484.38,2028.721,1481.571,2038.881,1477.789,2054.658z"/>
		<path fill="#187B45" d="M1680.75,2001v-9.564c20.102,1.19,37.447,1.783,52.037,1.783c15.238,0,32.799-0.593,52.686-1.783V2001
			c-3.351,0.758-5.892,1.297-7.619,1.621c-15.238,2.379-23.83,4.433-25.775,6.16c-1.945,1.73-3.027,5.35-3.242,10.861
			c-0.648,14.699-0.973,42.366-0.973,83c0,27.128,0.729,45.553,2.188,55.279s5.025,18.05,10.699,24.965
			c5.674,6.918,13.48,12.239,23.425,15.968c9.942,3.729,20.532,5.593,31.773,5.593c16.966,0,30.72-3.511,41.257-10.537
			c10.537-7.023,17.508-16.398,20.912-28.126c3.404-11.725,5.106-34.663,5.106-68.815c0-45.173-0.38-71.814-1.135-79.92
			c-0.324-3.566-1.353-6.079-3.08-7.538c-1.73-1.459-9.835-3.754-24.316-6.89c-1.515-0.324-3.837-0.863-6.971-1.621v-9.564
			c21.181,1.19,37.285,1.783,48.309,1.783c12.427,0,26.586-0.593,42.473-1.783V2001c-3.014,0.866-5.271,1.459-6.776,1.783
			c-14.309,2.918-22.432,5.188-24.367,6.809c-1.936,1.621-3.118,4.433-3.549,8.43c-1.17,8.539-1.875,33.719-2.107,75.543
			c-0.109,32.315-0.704,52.848-1.783,61.602c-1.406,12.105-3.946,21.859-7.619,29.261c-3.675,7.404-9.321,14.428-16.94,21.074
			s-16.348,11.538-26.181,14.671c-12.969,4.105-26.533,6.16-40.689,6.16c-15.78,0-29.856-1.945-42.229-5.836
			c-12.376-3.891-21.966-9.159-28.774-15.806s-11.89-14.48-15.238-23.506c-3.351-9.022-5.025-22.128-5.025-39.312l0.648-73.598
			c0-27.341-0.109-42.741-0.324-46.201c-0.433-5.294-1.244-8.86-2.432-10.699c-0.866-1.512-2.163-2.646-3.891-3.404
			c-1.297-0.648-8.81-2.322-22.533-5.025C1686.963,2002.621,1684.316,2001.973,1680.75,2001z"/>
		<path fill="#187B45" d="M2056.033,1991.436V2001c-3.784,0.866-6.593,1.459-8.43,1.783c-14.375,2.487-22.695,4.838-24.965,7.052
			c-2.27,2.217-3.404,7.161-3.404,14.833v5.674l-0.811,65.168l0.486,94.672c0,7.566,1.107,12.376,3.323,14.428
			c2.214,2.055,9.808,3.838,22.776,5.35c2.485,0.324,6.104,0.973,10.861,1.945v9.564c-17.401-1.19-34.152-1.783-50.254-1.783
			c-16.644,0-34.909,0.593-54.793,1.783v-9.564c3.133-0.863,5.512-1.403,7.133-1.621c15.345-2.484,24.126-4.782,26.343-6.89
			c2.214-2.107,3.323-7.429,3.323-15.968l-0.324-8.105l0.486-59.494c0-61.168-0.162-94.996-0.486-101.48
			c-0.215-3.566-1.373-6.322-3.47-8.268s-10.249-4.268-24.451-6.971c-1.938-0.431-4.79-1.135-8.554-2.107v-9.564
			c23.485,1.19,41.832,1.783,55.039,1.783C2020.584,1993.219,2037.307,1992.626,2056.033,1991.436z"/>
		<path fill="#187B45" d="M2063.652,2001v-9.564c13.69,1.19,24.471,1.783,32.343,1.783c6.36,0,17.733-0.593,34.122-1.783
			l46.039,57.549c4.215,5.081,36.743,44.474,97.59,118.178c0.106-15.129,0.162-26.1,0.162-32.908c0-16.102-0.486-45.553-1.459-88.35
			c-0.433-19.992-0.947-30.854-1.54-32.584c-0.595-1.728-1.839-3.295-3.729-4.701c-1.892-1.403-9.43-3.349-22.614-5.836
			c-1.73-0.324-4.271-0.917-7.619-1.783v-9.564c19.235,1.19,34.529,1.783,45.877,1.783c11.023,0,26.262-0.593,45.715-1.783V2001
			c-2.918,0.758-5.081,1.244-6.484,1.459c-14.483,3.027-22.533,5.025-24.154,5.998c-1.19,0.648-2.163,1.621-2.918,2.918
			c-1.082,1.73-1.839,4.973-2.27,9.727c-0.109,2.055-0.352,16.778-0.729,44.175c-0.38,27.396-0.567,53.901-0.567,79.515
			c0,30.262,0.54,55.821,1.621,76.678l-10.537,4.863l-67.6-83.99l-88.674-106.691l0.811,95.83c0.54,41.94,1.135,64.316,1.783,67.128
			c0.431,1.945,1.403,3.622,2.918,5.025c2.376,2.163,10.428,4.436,24.154,6.812c1.621,0.218,4.053,0.704,7.295,1.459v9.564
			c-16.535-1.19-30.477-1.783-41.824-1.783c-9.511,0-26.1,0.593-49.768,1.783v-9.564c3.782-0.863,6.646-1.512,8.592-1.945
			c12.969-2.27,20.479-4.377,22.533-6.322c1.188-0.973,2.052-2.646,2.594-5.025c1.079-4.97,1.836-23.774,2.27-56.414
			c0.54-46.254,0.811-73.598,0.811-82.027c0-27.125-0.38-42.201-1.135-45.229c-0.433-2.16-1.839-3.972-4.215-5.431
			c-2.378-1.459-12.591-3.7-30.639-6.728C2070.461,2002.459,2067.543,2001.866,2063.652,2001z"/>
		<path fill="#187B45" d="M2492.107,2092.916h39.23c15.129,0,24.045-0.405,26.748-1.216c2.7-0.811,4.889-2.457,6.565-4.944
			c1.674-2.484,3.754-9.671,6.241-21.561c0.324-1.188,0.811-3.024,1.459-5.512h10.699c-1.19,17.832-1.783,31.559-1.783,41.176
			c0,9.944,0.593,23.562,1.783,40.852h-10.699c-3.136-15.669-5.081-24.423-5.836-26.262c-1.082-2.594-2.974-4.458-5.674-5.593
			c-2.703-1.135-10.755-1.702-24.154-1.702h-44.418l0.811,95.32h67.924l5.998-0.162c9.293,0,15.129-0.377,17.508-1.135
			c4.106-1.403,7.726-3.754,10.861-7.052c3.133-3.295,8.916-12.616,17.346-27.964c0.864-1.512,2.161-3.729,3.891-6.646h11.186
			c-1.297,3.46-7.999,23.777-20.102,60.953c-39.339-1.19-75.274-1.783-107.803-1.783c-22.695,0-47.769,0.593-75.219,1.783v-9.564
			l26.262-5.674c4.215-1.188,6.809-2.376,7.781-3.566c1.621-2.052,2.432-6.322,2.432-12.807v-2.918l0.811-38.096
			c0.106-7.348,0.162-21.775,0.162-43.283c0-31.231-0.109-54.116-0.324-68.653c-0.218-14.534-0.757-22.776-1.621-24.722
			c-0.648-1.297-1.649-2.351-2.999-3.161c-1.353-0.811-6.35-2.188-14.995-4.134L2424.67,2001v-9.564
			c20.317,1.19,44.58,1.783,72.787,1.783c15.454,0,52.199-0.593,110.234-1.783c0.215,18.698,1.512,37.179,3.891,55.441h-11.348
			c-4.324-14.696-7.837-24.479-10.537-29.342c-1.839-3.349-4.108-5.564-6.809-6.646c-3.566-1.403-11.457-2.107-23.668-2.107h-65.492
			l-1.135,52.199L2492.107,2092.916z"/>
		<path fill="#187B45" d="M2639.627,2001v-9.564c13.69,1.19,24.471,1.783,32.343,1.783c6.36,0,17.733-0.593,34.122-1.783
			l46.039,57.549c4.215,5.081,36.743,44.474,97.59,118.178c0.106-15.129,0.162-26.1,0.162-32.908c0-16.102-0.486-45.553-1.459-88.35
			c-0.434-19.992-0.947-30.854-1.54-32.584c-0.596-1.728-1.839-3.295-3.729-4.701c-1.893-1.403-9.431-3.349-22.614-5.836
			c-1.73-0.324-4.271-0.917-7.619-1.783v-9.564c19.235,1.19,34.529,1.783,45.877,1.783c11.023,0,26.262-0.593,45.715-1.783V2001
			c-2.918,0.758-5.081,1.244-6.484,1.459c-14.483,3.027-22.533,5.025-24.154,5.998c-1.19,0.648-2.163,1.621-2.918,2.918
			c-1.082,1.73-1.839,4.973-2.27,9.727c-0.109,2.055-0.353,16.778-0.729,44.175c-0.38,27.396-0.567,53.901-0.567,79.515
			c0,30.262,0.539,55.821,1.621,76.678l-10.537,4.863l-67.6-83.99l-88.674-106.691l0.811,95.83
			c0.54,41.94,1.135,64.316,1.783,67.128c0.431,1.945,1.403,3.622,2.918,5.025c2.376,2.163,10.428,4.436,24.154,6.812
			c1.621,0.218,4.053,0.704,7.295,1.459v9.564c-16.535-1.19-30.477-1.783-41.824-1.783c-9.511,0-26.1,0.593-49.768,1.783v-9.564
			c3.782-0.863,6.646-1.512,8.592-1.945c12.969-2.27,20.479-4.377,22.533-6.322c1.188-0.973,2.052-2.646,2.594-5.025
			c1.079-4.97,1.836-23.774,2.27-56.414c0.54-46.254,0.811-73.598,0.811-82.027c0-27.125-0.38-42.201-1.135-45.229
			c-0.433-2.16-1.839-3.972-4.215-5.431c-2.378-1.459-12.591-3.7-30.639-6.728C2646.436,2002.459,2643.518,2001.866,2639.627,2001z"
			/>
		<path fill="#187B45" d="M3013.451,2054.658h-12.482c2.052-18.805,3.891-39.879,5.512-63.223
			c47.835,1.19,81.956,1.783,102.367,1.783c16.953,0,47.837-0.593,92.65-1.783c1.403,24.102,3.024,45.176,4.863,63.223h-12.158
			c-5.068-19.777-8.358-31.368-9.868-34.772s-3.693-5.836-6.551-7.295c-2.856-1.459-10.108-2.188-21.755-2.188h-35.91
			c-0.866,28.749-1.297,64.305-1.297,106.668c0,39.34,0.431,65.926,1.297,79.758c0.215,3.242,1.025,5.459,2.432,6.646
			c1.836,1.515,10.752,3.838,26.748,6.971c1.512,0.218,3.781,0.704,6.809,1.459v9.564c-21.398-1.19-40.475-1.783-57.225-1.783
			c-15.887,0-32.153,0.593-48.795,1.783v-9.564c3.781-0.973,6.646-1.621,8.592-1.945c14.805-2.484,23.344-4.592,25.613-6.322
			c0.973-0.863,1.702-2.079,2.188-3.647c0.486-1.565,0.892-13.536,1.216-35.907c0.431-34.582,0.648-60.195,0.648-76.84
			c0-29.07-0.218-54.684-0.648-76.84h-38.582l-6.971,0.162c-6.16,0-10.213,0.648-12.158,1.945
			c-3.027,1.839-5.729,5.729-8.105,11.672C3020.042,2028.721,3017.232,2038.881,3013.451,2054.658z"/>
		<path fill="#187B45" d="M3285.795,2092.916h39.23c15.129,0,24.045-0.405,26.748-1.216c2.7-0.811,4.889-2.457,6.565-4.944
			c1.674-2.484,3.754-9.671,6.241-21.561c0.324-1.188,0.811-3.024,1.459-5.512h10.699c-1.19,17.832-1.783,31.559-1.783,41.176
			c0,9.944,0.593,23.562,1.783,40.852h-10.699c-3.136-15.669-5.081-24.423-5.836-26.262c-1.082-2.594-2.974-4.458-5.674-5.593
			c-2.703-1.135-10.755-1.702-24.154-1.702h-44.418l0.811,95.32h67.924l5.998-0.162c9.293,0,15.129-0.377,17.508-1.135
			c4.105-1.403,7.726-3.754,10.861-7.052c3.133-3.295,8.916-12.616,17.346-27.964c0.863-1.512,2.16-3.729,3.891-6.646h11.186
			c-1.297,3.46-7.999,23.777-20.102,60.953c-39.34-1.19-75.274-1.783-107.803-1.783c-22.695,0-47.77,0.593-75.219,1.783v-9.564
			l26.262-5.674c4.215-1.188,6.809-2.376,7.781-3.566c1.621-2.052,2.432-6.322,2.432-12.807v-2.918l0.811-38.096
			c0.106-7.348,0.162-21.775,0.162-43.283c0-31.231-0.109-54.116-0.324-68.653c-0.218-14.534-0.758-22.776-1.621-24.722
			c-0.648-1.297-1.649-2.351-2.999-3.161c-1.353-0.811-6.351-2.188-14.995-4.134l-17.508-3.891v-9.564
			c20.316,1.19,44.58,1.783,72.787,1.783c15.453,0,52.199-0.593,110.234-1.783c0.215,18.698,1.512,37.179,3.891,55.441h-11.348
			c-4.324-14.696-7.837-24.479-10.537-29.342c-1.839-3.349-4.108-5.564-6.809-6.646c-3.566-1.403-11.457-2.107-23.668-2.107h-65.492
			l-1.135,52.199L3285.795,2092.916z"/>
		<path fill="#187B45" d="M3654.594,2182.076l6.809,12.32c-17.374,10.917-34.046,18.967-50.016,24.154
			c-15.971,5.188-32.48,7.781-49.529,7.781c-21.69,0-41.384-4.944-59.079-14.833c-17.698-9.889-31.104-23.883-40.224-41.986
			c-9.118-18.101-13.678-38.177-13.678-60.224c0-35.988,11.732-65.437,35.203-88.35c23.471-22.91,54.52-34.367,93.149-34.367
			c23.739,0,50.176,4.863,79.31,14.59c-0.218,9.512-0.324,16.645-0.324,21.398c0,13.835,0.811,28.369,2.432,43.607h-13.617
			c-3.997-18.911-8.26-31.936-12.794-39.068s-11.877-12.832-22.024-17.103c-10.149-4.268-22.672-6.403-37.571-6.403
			c-31.313,0-54.901,11.133-70.771,33.395c-12.311,17.401-18.463,39.23-18.463,65.492c0,31.343,8.663,56.064,25.993,74.165
			c17.331,18.104,40.031,27.153,68.104,27.153c12.093,0,23.86-1.565,35.305-4.701
			C3624.251,2195.965,3638.18,2190.291,3654.594,2182.076z"/>
		<path fill="#187B45" d="M3864.363,2095.186l-0.162-11.51l-0.162-34.854l-0.324-30.314c-0.109-4.539-0.758-7.348-1.945-8.43
			c-1.73-1.836-5.945-3.242-12.645-4.215L3827.24,2001v-9.564c24.887,1.19,42.878,1.783,53.978,1.783
			c12.173,0,29.035-0.593,50.583-1.783V2001c-17.754,3.676-27.759,5.998-30.019,6.971c-2.259,0.973-3.766,2.055-4.519,3.242
			c-1.186,1.945-1.831,7.891-1.938,17.832c-0.218,16.211-0.324,43.987-0.324,83.324l0.648,76.84v4.539
			c0,5.081,0.922,8.323,2.769,9.727c3.039,2.27,14.273,5.081,33.706,8.43v9.564c-29.704-1.19-48.567-1.783-56.589-1.783
			c-13.333,0-29.542,0.593-48.62,1.783v-9.564l29.798-6.646c1.844-0.755,3.257-1.836,4.235-3.242
			c1.52-2.27,2.332-6.537,2.441-12.807l0.811-76.191c-28.463-0.539-50.27-0.811-65.421-0.811c-16.343,0-33.603,0.271-51.784,0.811
			l0.486,78.299c0,5.621,0.537,9.188,1.613,10.699c1.074,1.515,3.873,2.918,8.392,4.215c1.077,0.324,9.899,2.217,26.47,5.674v9.564
			c-26.33-1.19-44.945-1.783-55.842-1.783c-13.49,0-29.838,0.593-49.043,1.783v-9.564c11.672-2.594,20.37-4.43,26.1-5.512
			c4.321-0.755,7.077-1.836,8.268-3.242c1.621-1.836,2.432-5.674,2.432-11.51c0.324-20.641,0.486-50.145,0.486-88.512l-0.811-80.244
			v-5.188c0-3.781-0.62-6.403-1.856-7.862s-3.846-2.675-7.827-3.647l-26.791-5.188v-9.564c21.864,1.19,40.102,1.783,54.715,1.783
			c15.369,0,32.201-0.593,50.494-1.783V2001l-27.355,5.35c-3.476,0.866-5.864,2.082-7.166,3.647
			c-1.302,1.568-1.953,4.352-1.953,8.349l-0.811,76.84c16.688,0.324,34.299,0.486,52.83,0.486
			C3823.777,2095.672,3845.29,2095.51,3864.363,2095.186z"/>
		<path fill="#187B45" d="M3938.285,2001v-9.564c13.69,1.19,24.471,1.783,32.344,1.783c6.359,0,17.732-0.593,34.121-1.783
			l46.039,57.549c4.215,5.081,36.743,44.474,97.59,118.178c0.106-15.129,0.162-26.1,0.162-32.908c0-16.102-0.486-45.553-1.459-88.35
			c-0.434-19.992-0.947-30.854-1.54-32.584c-0.596-1.728-1.839-3.295-3.729-4.701c-1.893-1.403-9.431-3.349-22.614-5.836
			c-1.73-0.324-4.271-0.917-7.619-1.783v-9.564c19.235,1.19,34.529,1.783,45.877,1.783c11.023,0,26.262-0.593,45.715-1.783V2001
			c-2.918,0.758-5.081,1.244-6.484,1.459c-14.483,3.027-22.533,5.025-24.154,5.998c-1.19,0.648-2.163,1.621-2.918,2.918
			c-1.082,1.73-1.839,4.973-2.27,9.727c-0.109,2.055-0.353,16.778-0.729,44.175c-0.38,27.396-0.567,53.901-0.567,79.515
			c0,30.262,0.539,55.821,1.621,76.678l-10.537,4.863l-67.6-83.99l-88.674-106.691l0.811,95.83
			c0.539,41.94,1.135,64.316,1.783,67.128c0.431,1.945,1.403,3.622,2.918,5.025c2.376,2.163,10.428,4.436,24.154,6.812
			c1.621,0.218,4.053,0.704,7.295,1.459v9.564c-16.535-1.19-30.477-1.783-41.824-1.783c-9.512,0-26.1,0.593-49.768,1.783v-9.564
			c3.781-0.863,6.646-1.512,8.592-1.945c12.969-2.27,20.479-4.377,22.533-6.322c1.188-0.973,2.052-2.646,2.594-5.025
			c1.079-4.97,1.836-23.774,2.27-56.414c0.539-46.254,0.811-73.598,0.811-82.027c0-27.125-0.38-42.201-1.135-45.229
			c-0.434-2.16-1.839-3.972-4.215-5.431c-2.379-1.459-12.592-3.7-30.639-6.728C3945.094,2002.459,3942.176,2001.866,3938.285,2001z"
			/>
		<path fill="#187B45" d="M4321.836,1991.436V2001c-3.784,0.866-6.594,1.459-8.43,1.783c-14.375,2.487-22.695,4.838-24.965,7.052
			c-2.27,2.217-3.404,7.161-3.404,14.833v5.674l-0.811,65.168l0.486,94.672c0,7.566,1.106,12.376,3.323,14.428
			c2.214,2.055,9.808,3.838,22.776,5.35c2.484,0.324,6.104,0.973,10.861,1.945v9.564c-17.401-1.19-34.152-1.783-50.254-1.783
			c-16.645,0-34.909,0.593-54.793,1.783v-9.564c3.133-0.863,5.512-1.403,7.133-1.621c15.345-2.484,24.126-4.782,26.343-6.89
			c2.214-2.107,3.323-7.429,3.323-15.968l-0.324-8.105l0.486-59.494c0-61.168-0.162-94.996-0.486-101.48
			c-0.215-3.566-1.373-6.322-3.47-8.268c-2.098-1.945-10.249-4.268-24.451-6.971c-1.938-0.431-4.79-1.135-8.554-2.107v-9.564
			c23.485,1.19,41.832,1.783,55.039,1.783C4286.387,1993.219,4303.109,1992.626,4321.836,1991.436z"/>
		<path fill="#187B45" d="M4403.377,2092.916h39.23c15.129,0,24.045-0.405,26.748-1.216c2.7-0.811,4.889-2.457,6.565-4.944
			c1.674-2.484,3.754-9.671,6.241-21.561c0.324-1.188,0.811-3.024,1.459-5.512h10.699c-1.19,17.832-1.783,31.559-1.783,41.176
			c0,9.944,0.593,23.562,1.783,40.852h-10.699c-3.136-15.669-5.081-24.423-5.836-26.262c-1.082-2.594-2.974-4.458-5.674-5.593
			c-2.703-1.135-10.755-1.702-24.154-1.702h-44.418l0.811,95.32h67.924l5.998-0.162c9.293,0,15.129-0.377,17.508-1.135
			c4.105-1.403,7.726-3.754,10.861-7.052c3.133-3.295,8.916-12.616,17.346-27.964c0.863-1.512,2.16-3.729,3.891-6.646h11.186
			c-1.297,3.46-7.999,23.777-20.102,60.953c-39.34-1.19-75.274-1.783-107.803-1.783c-22.695,0-47.77,0.593-75.219,1.783v-9.564
			l26.262-5.674c4.215-1.188,6.809-2.376,7.781-3.566c1.621-2.052,2.432-6.322,2.432-12.807v-2.918l0.811-38.096
			c0.106-7.348,0.162-21.775,0.162-43.283c0-31.231-0.109-54.116-0.324-68.653c-0.218-14.534-0.758-22.776-1.621-24.722
			c-0.648-1.297-1.649-2.351-2.999-3.161c-1.353-0.811-6.351-2.188-14.995-4.134l-17.508-3.891v-9.564
			c20.316,1.19,44.58,1.783,72.787,1.783c15.453,0,52.199-0.593,110.234-1.783c0.215,18.698,1.512,37.179,3.891,55.441h-11.348
			c-4.324-14.696-7.837-24.479-10.537-29.342c-1.839-3.349-4.108-5.564-6.809-6.646c-3.566-1.403-11.457-2.107-23.668-2.107h-65.492
			l-1.135,52.199L4403.377,2092.916z"/>
		<path fill="#187B45" d="M4556.246,2001v-9.564c23.055,1.19,39.777,1.783,50.17,1.783c3.787,0,7.196-0.053,10.229-0.162
			l44.811-1.621V2001l-7.001,1.459c-15.092,2.918-23.423,4.892-24.995,5.917c-1.576,1.028-2.688,2.568-3.339,4.62
			c-0.436,1.297-0.815,12.32-1.14,33.07l-0.648,57.711c27.716-22.482,55.758-48.369,84.125-77.66
			c7.133-7.346,10.701-12.584,10.701-15.718c0-1.403-0.595-2.594-1.785-3.566c-1.73-1.188-7.404-2.809-17.021-4.86
			c-0.866-0.215-2.107-0.539-3.729-0.973v-9.564c15.238,1.19,28.478,1.783,39.719,1.783c8.539,0,24.752-0.593,48.641-1.783V2001
			c-14.914,3.566-23.886,5.998-26.91,7.295c-3.027,1.297-5.674,2.812-7.943,4.539l-28.539,26.789l-44.104,40.264l-19.944,17.697
			c10.483,11.117,27.996,28.225,52.536,51.323l52.047,47.759c3.349,2.703,6.971,4.838,10.861,6.403
			c3.891,1.568,15.777,4.514,35.664,8.835v9.564c-24.712-1.19-41.867-1.783-51.47-1.783c-8.093,0-26.877,0.593-56.351,1.783v-9.564
			c10.157-2.292,15.965-3.984,17.424-5.078c1.457-1.092,2.187-2.293,2.187-3.604c0-1.53-1.026-3.44-3.075-5.735
			c-7.888-9.063-30.958-31.72-69.208-67.972l-23.825-22.981l0.324,83.162c0,6.378,0.434,10.269,1.302,11.672
			c0.978,1.73,2.986,3.136,6.026,4.215c2.279,0.758,12.103,2.865,29.471,6.322v9.564c-18.402-1.19-35.016-1.783-49.844-1.783
			c-14.073,0-32.528,0.593-55.365,1.783v-9.564c3.457-0.755,6.051-1.297,7.781-1.621c14.805-2.16,23.396-4.321,25.775-6.484
			c1.728-1.512,2.7-5.512,2.918-11.996c0.755-19.344,1.135-45.173,1.135-77.488l-0.811-88.188c0-7.888-0.243-12.454-0.729-13.698
			c-0.486-1.241-1.216-2.188-2.188-2.837c-3.676-2.376-12.592-4.754-26.748-7.133
			C4561.758,2002.244,4559.379,2001.758,4556.246,2001z"/>
	</g>
</g>
<g id="Layer_2">
	<path fill="#187B45" d="M2004.098,0c-270.863,0-490.44,219.578-490.44,490.441v1262.244h1262.245
		c270.862,0,490.44-219.578,490.44-490.44V0H2004.098z"/>
</g>
<g id="Layer_3">
	<g>
		<g>
			<path fill="#FFFFFF" d="M2364.446,681.558h183.357c0.333,0,0.657-0.017,0.989-0.051c0.323-0.034,0.648-0.077,0.972-0.146
				c0.325-0.06,0.64-0.145,0.956-0.238s0.631-0.205,0.929-0.333c0.308-0.128,0.606-0.265,0.896-0.426
				c0.29-0.153,0.571-0.324,0.844-0.504c0.272-0.188,0.537-0.384,0.793-0.588c0.255-0.213,0.495-0.436,0.733-0.666
				c0.229-0.229,0.452-0.478,0.657-0.732c0.213-0.256,0.409-0.512,0.587-0.794c0.188-0.272,0.358-0.554,0.512-0.844
				c0.154-0.29,0.299-0.589,0.418-0.887c0.128-0.308,0.239-0.614,0.342-0.93c0.093-0.315,0.17-0.64,0.238-0.964
				c0.061-0.315,0.112-0.648,0.145-0.972c0.035-0.325,0.052-0.657,0.052-0.99v-74.271c0-0.332-0.018-0.665-0.052-0.989
				c-0.033-0.324-0.084-0.656-0.145-0.98c-0.068-0.315-0.145-0.64-0.238-0.955c-0.103-0.315-0.213-0.623-0.342-0.93
				c-0.119-0.299-0.264-0.597-0.418-0.887c-0.153-0.29-0.324-0.571-0.512-0.845c-0.179-0.281-0.375-0.546-0.587-0.793
				c-0.206-0.256-0.428-0.503-0.657-0.733c-0.239-0.23-0.478-0.452-0.733-0.665c-0.256-0.205-0.521-0.4-0.793-0.589
				c-0.273-0.179-0.554-0.35-0.844-0.503c-0.29-0.162-0.588-0.298-0.896-0.426c-0.298-0.128-0.613-0.239-0.929-0.333
				s-0.631-0.179-0.956-0.239c-0.324-0.068-0.648-0.11-0.972-0.145c-0.333-0.034-0.657-0.051-0.989-0.051h-183.357
				c-0.329,0-0.658,0.017-0.985,0.051c-0.328,0.034-0.653,0.076-0.976,0.145c-0.324,0.061-0.643,0.146-0.958,0.239
				c-0.316,0.094-0.625,0.205-0.929,0.333c-0.304,0.128-0.602,0.264-0.892,0.426c-0.291,0.153-0.573,0.324-0.847,0.503
				c-0.274,0.188-0.538,0.384-0.792,0.589c-0.255,0.213-0.499,0.435-0.731,0.665c-0.233,0.23-0.454,0.478-0.663,0.733
				c-0.209,0.247-0.405,0.512-0.587,0.793c-0.184,0.273-0.354,0.555-0.509,0.845c-0.155,0.29-0.296,0.588-0.422,0.887
				c-0.127,0.307-0.237,0.614-0.333,0.93c-0.096,0.315-0.175,0.64-0.241,0.955c-0.065,0.324-0.113,0.656-0.146,0.98
				c-0.032,0.324-0.049,0.657-0.049,0.989v74.271C2354.387,677.055,2358.903,681.558,2364.446,681.558L2364.446,681.558z
				 M2374.559,607.269h163.182v54.171h-163.194L2374.559,607.269L2374.559,607.269z M2456.132,1016.466
				c80.815,0,146.593-65.767,146.593-146.604c0-80.838-65.769-146.576-146.606-146.576c-80.838,0-146.579,65.751-146.579,146.589
				S2375.293,1016.466,2456.132,1016.466L2456.132,1016.466L2456.132,1016.466z M2456.132,743.353
				c69.72,0,126.458,56.747,126.458,126.483c0,69.738-56.738,126.459-126.458,126.459c-69.724,0-126.483-56.746-126.483-126.471
				s56.746-126.455,126.483-126.455V743.353L2456.132,743.353z M2456.132,1064.534c-0.898,0.001-1.795,0.023-2.692,0.068
				c-0.896,0.045-1.792,0.112-2.685,0.2c-0.892,0.09-1.783,0.199-2.671,0.333c-0.887,0.131-1.771,0.285-2.651,0.461
				c-0.88,0.175-1.756,0.372-2.627,0.592c-0.871,0.218-1.735,0.458-2.593,0.719c-0.859,0.262-1.71,0.543-2.555,0.846
				c-0.846,0.304-1.683,0.626-2.512,0.97c-0.829,0.345-1.65,0.708-2.46,1.093c-0.812,0.383-1.613,0.787-2.405,1.211
				c-0.791,0.423-1.572,0.865-2.342,1.327c-0.77,0.462-1.527,0.941-2.273,1.441c-0.746,0.498-1.481,1.015-2.202,1.55
				c-0.72,0.534-1.428,1.087-2.122,1.656c-0.694,0.569-1.374,1.156-2.039,1.758c-0.665,0.604-1.314,1.222-1.95,1.856
				c-0.634,0.635-1.254,1.285-1.857,1.949c-0.602,0.664-1.188,1.345-1.758,2.039c-0.569,0.692-1.123,1.399-1.656,2.121
				c-0.535,0.721-1.052,1.454-1.551,2.2c-0.5,0.746-0.98,1.504-1.441,2.274c-0.462,0.769-0.904,1.55-1.328,2.341
				c-0.424,0.791-0.828,1.593-1.212,2.403c-0.384,0.813-0.749,1.633-1.093,2.462s-0.667,1.665-0.97,2.51
				c-0.304,0.846-0.586,1.697-0.846,2.556c-0.262,0.859-0.502,1.724-0.721,2.595c-0.218,0.871-0.416,1.745-0.591,2.625
				c-0.176,0.881-0.331,1.765-0.463,2.653c-0.132,0.887-0.244,1.777-0.333,2.67c-0.088,0.895-0.156,1.789-0.201,2.686
				c-0.044,0.896-0.067,1.794-0.069,2.691c0.002,0.896,0.025,1.794,0.069,2.69c0.045,0.896,0.113,1.79,0.201,2.683
				c0.088,0.893,0.2,1.783,0.333,2.672c0.132,0.886,0.287,1.771,0.463,2.649c0.177,0.881,0.374,1.756,0.592,2.626
				c0.218,0.87,0.459,1.733,0.72,2.593c0.261,0.858,0.543,1.71,0.847,2.555c0.302,0.845,0.626,1.682,0.97,2.509
				c0.345,0.83,0.708,1.649,1.093,2.46c0.385,0.811,0.788,1.611,1.211,2.403c0.424,0.791,0.866,1.57,1.329,2.341
				c0.462,0.769,0.942,1.525,1.441,2.271c0.499,0.746,1.016,1.479,1.551,2.199c0.535,0.721,1.088,1.428,1.657,2.121
				s1.156,1.372,1.759,2.036c0.603,0.665,1.222,1.313,1.856,1.948c0.635,0.635,1.286,1.252,1.951,1.854
				c0.665,0.603,1.343,1.188,2.038,1.757s1.402,1.12,2.123,1.654c0.72,0.534,1.454,1.051,2.2,1.548
				c0.746,0.498,1.504,0.979,2.274,1.44c0.771,0.46,1.551,0.901,2.342,1.325c0.791,0.421,1.593,0.825,2.403,1.209
				c0.813,0.383,1.631,0.746,2.462,1.09c0.829,0.343,1.665,0.665,2.51,0.968s1.698,0.583,2.555,0.843
				c0.858,0.261,1.723,0.5,2.594,0.718c0.871,0.218,1.746,0.413,2.625,0.588c0.881,0.175,1.764,0.329,2.652,0.46
				c0.887,0.133,1.777,0.241,2.67,0.33c0.893,0.087,1.788,0.154,2.684,0.197c0.897,0.044,1.793,0.066,2.691,0.066
				c0.889-0.014,1.776-0.048,2.664-0.105c0.887-0.057,1.771-0.135,2.656-0.234c0.883-0.1,1.763-0.221,2.64-0.364
				c0.878-0.142,1.751-0.305,2.621-0.49c0.87-0.186,1.734-0.392,2.593-0.618c0.86-0.227,1.714-0.476,2.561-0.743
				c0.847-0.269,1.687-0.558,2.521-0.867s1.658-0.639,2.475-0.988c0.817-0.35,1.626-0.719,2.425-1.107
				c0.8-0.389,1.589-0.797,2.368-1.224c0.78-0.427,1.549-0.873,2.307-1.338c0.759-0.465,1.505-0.948,2.238-1.448
				c0.735-0.5,1.456-1.019,2.165-1.555c0.709-0.537,1.406-1.089,2.088-1.658c0.682-0.57,1.35-1.156,2.003-1.759
				c0.654-0.603,1.292-1.22,1.92-1.854c0.623-0.633,1.229-1.281,1.817-1.943c0.596-0.664,1.167-1.34,1.731-2.03
				c0.563-0.691,1.099-1.396,1.628-2.112c0.521-0.718,1.032-1.447,1.518-2.188c0.495-0.742,0.963-1.495,1.416-2.261
				c0.452-0.765,0.887-1.54,1.305-2.326c0.409-0.785,0.811-1.581,1.185-2.387c0.375-0.805,0.734-1.617,1.067-2.44
				c0.341-0.823,0.657-1.653,0.955-2.491c0.298-0.838,0.571-1.682,0.828-2.533c0.255-0.852,0.486-1.708,0.708-2.571
				c0.213-0.863,0.4-1.729,0.571-2.602c0.18-0.872,0.325-1.749,0.453-2.628c0.127-0.879,0.238-1.761,0.323-2.646
				c0.085-0.884,0.154-1.771,0.196-2.657c0.043-0.889,0.069-1.776,0.069-2.666c0-0.889-0.026-1.777-0.069-2.664
				c-0.042-0.889-0.11-1.774-0.196-2.659s-0.196-1.767-0.323-2.646c-0.128-0.88-0.273-1.755-0.453-2.627
				c-0.171-0.872-0.358-1.74-0.571-2.603c-0.222-0.862-0.452-1.72-0.708-2.57c-0.256-0.852-0.529-1.697-0.828-2.534
				c-0.298-0.838-0.614-1.668-0.955-2.491c-0.333-0.821-0.691-1.636-1.067-2.441c-0.375-0.805-0.776-1.6-1.185-2.386
				c-0.417-0.787-0.853-1.561-1.305-2.326c-0.452-0.765-0.921-1.519-1.416-2.26c-0.486-0.742-0.998-1.472-1.518-2.189
				c-0.529-0.717-1.066-1.421-1.628-2.111c-0.564-0.691-1.135-1.368-1.731-2.03c-0.588-0.663-1.194-1.312-1.817-1.944
				c-0.628-0.633-1.267-1.252-1.92-1.854c-0.653-0.603-1.321-1.188-2.003-1.758c-0.683-0.569-1.379-1.123-2.088-1.659
				c-0.709-0.534-1.43-1.053-2.165-1.555c-0.733-0.501-1.479-0.983-2.238-1.447c-0.757-0.465-1.527-0.911-2.307-1.338
				c-0.778-0.428-1.568-0.836-2.368-1.225c-0.799-0.389-1.606-0.758-2.425-1.106c-0.817-0.351-1.642-0.68-2.475-0.988
				c-0.833-0.31-1.674-0.599-2.521-0.867c-0.847-0.27-1.701-0.516-2.561-0.743c-0.858-0.228-1.723-0.435-2.593-0.618
				c-0.869-0.185-1.743-0.349-2.621-0.491c-0.876-0.143-1.757-0.264-2.64-0.364c-0.884-0.1-1.769-0.178-2.656-0.234
				s-1.774-0.092-2.664-0.105V1064.534L2456.132,1064.534z M2456.132,1154.023c-0.568,0-1.135-0.014-1.702-0.042
				c-0.567-0.028-1.133-0.071-1.699-0.127c-0.564-0.056-1.127-0.125-1.688-0.209c-0.563-0.084-1.121-0.182-1.678-0.292
				c-0.557-0.11-1.111-0.235-1.66-0.373c-0.551-0.139-1.098-0.29-1.641-0.455c-0.543-0.166-1.081-0.344-1.616-0.534
				c-0.535-0.192-1.063-0.396-1.588-0.614c-0.524-0.217-1.043-0.447-1.557-0.689c-0.511-0.242-1.018-0.499-1.52-0.767
				c-0.5-0.267-0.994-0.547-1.48-0.839c-0.487-0.291-0.966-0.596-1.438-0.911c-0.473-0.314-0.938-0.642-1.393-0.98
				c-0.456-0.337-0.902-0.687-1.342-1.046c-0.439-0.36-0.868-0.731-1.29-1.111c-0.421-0.381-0.832-0.773-1.232-1.175
				c-0.401-0.401-0.793-0.812-1.174-1.232c-0.381-0.421-0.752-0.85-1.112-1.289c-0.361-0.438-0.709-0.886-1.048-1.341
				c-0.338-0.456-0.665-0.92-0.98-1.392s-0.619-0.951-0.911-1.438c-0.292-0.486-0.571-0.979-0.839-1.479
				c-0.268-0.501-0.524-1.008-0.767-1.521c-0.243-0.513-0.474-1.031-0.69-1.556c-0.218-0.523-0.422-1.053-0.615-1.588
				c-0.191-0.534-0.369-1.072-0.535-1.616c-0.165-0.542-0.317-1.09-0.455-1.64s-0.262-1.104-0.375-1.66
				c-0.11-0.558-0.208-1.115-0.292-1.678c-0.083-0.561-0.154-1.123-0.21-1.689c-0.056-0.564-0.098-1.13-0.126-1.697
				c-0.028-0.566-0.043-1.134-0.043-1.701c0-19.131,15.566-34.697,34.697-34.697s34.684,15.566,34.684,34.697
				c-0.001,0.567-0.015,1.135-0.044,1.701c-0.028,0.566-0.07,1.132-0.127,1.697c-0.056,0.564-0.125,1.128-0.209,1.688
				c-0.084,0.562-0.182,1.12-0.292,1.677c-0.111,0.556-0.236,1.109-0.375,1.661c-0.139,0.549-0.29,1.097-0.455,1.64
				c-0.167,0.542-0.344,1.081-0.535,1.615c-0.192,0.535-0.396,1.063-0.613,1.586c-0.217,0.525-0.448,1.044-0.69,1.556
				c-0.243,0.514-0.499,1.021-0.767,1.521c-0.267,0.499-0.547,0.994-0.839,1.48c-0.292,0.486-0.596,0.965-0.911,1.437
				c-0.316,0.472-0.643,0.937-0.98,1.392c-0.339,0.456-0.688,0.902-1.047,1.342c-0.36,0.438-0.731,0.868-1.112,1.288
				c-0.381,0.422-0.772,0.832-1.173,1.233s-0.813,0.792-1.233,1.173c-0.421,0.381-0.85,0.752-1.289,1.112
				c-0.438,0.36-0.885,0.708-1.341,1.048c-0.456,0.338-0.919,0.664-1.391,0.979c-0.472,0.316-0.951,0.62-1.438,0.912
				s-0.98,0.572-1.48,0.84c-0.501,0.268-1.007,0.522-1.52,0.766c-0.514,0.242-1.032,0.472-1.556,0.69
				c-0.524,0.217-1.054,0.421-1.588,0.613c-0.534,0.191-1.073,0.369-1.615,0.535c-0.543,0.165-1.09,0.316-1.64,0.455
				c-0.551,0.138-1.104,0.263-1.66,0.373c-0.557,0.111-1.116,0.21-1.677,0.293c-0.561,0.084-1.124,0.153-1.689,0.209
				c-0.564,0.057-1.13,0.1-1.697,0.128C2457.266,1154.009,2456.699,1154.022,2456.132,1154.023L2456.132,1154.023L2456.132,1154.023
				z M1767.376,1230.447c9.032,6.038,74.735,48.957,121.281,48.957c11.786,0,22.328-2.779,30.46-9.617
				c21.655-18.281,13.93-60.007-23.584-127.612c-0.534-0.947-1.009-1.924-1.425-2.928c-0.417-1.006-0.772-2.031-1.065-3.079
				c-0.293-1.046-0.522-2.107-0.689-3.182c-0.166-1.075-0.267-2.156-0.303-3.243c-0.037-1.087-0.008-2.172,0.086-3.256
				c0.094-1.083,0.252-2.157,0.475-3.222c0.223-1.064,0.508-2.111,0.857-3.142c0.349-1.03,0.757-2.036,1.227-3.018
				c3.806-8.132,11.037-13.726,19.867-15.414c0.81-0.154,1.625-0.274,2.444-0.357c0.82-0.082,1.643-0.129,2.467-0.138
				c0.825-0.008,1.647,0.02,2.47,0.084c0.821,0.065,1.639,0.167,2.452,0.305c0.813,0.138,1.618,0.313,2.415,0.523
				c0.797,0.21,1.583,0.456,2.359,0.737c0.775,0.28,1.536,0.596,2.283,0.944c0.747,0.35,1.477,0.731,2.188,1.146
				c0.713,0.414,1.405,0.86,2.078,1.337c0.672,0.478,1.322,0.983,1.95,1.519c0.627,0.535,1.229,1.098,1.806,1.686
				c0.576,0.591,1.125,1.203,1.647,1.842s1.013,1.3,1.476,1.982c0.462,0.683,0.893,1.385,1.293,2.104
				c0.399,0.722,0.765,1.46,1.099,2.213c0.333,0.754,0.632,1.522,0.896,2.303c16.847,48.513,37.856,86.775,62.442,113.683
				c29.432,32.313,64.219,48.666,103.318,48.666h909.905c0.315-0.017,0.64-0.049,0.955-0.095s0.622-0.107,0.938-0.183
				c0.306-0.076,0.613-0.167,0.912-0.271c0.307-0.105,0.597-0.225,0.886-0.357c0.299-0.134,0.58-0.281,0.854-0.441
				c0.282-0.159,0.546-0.332,0.802-0.519c0.265-0.186,0.512-0.382,0.75-0.593c0.248-0.209,0.478-0.429,0.699-0.661
				c0.214-0.231,0.427-0.473,0.623-0.724s0.384-0.511,0.555-0.78c0.171-0.268,0.332-0.544,0.478-0.828
				c0.145-0.284,0.281-0.575,0.4-0.871c0.111-0.297,0.223-0.599,0.307-0.904c0.095-0.307,0.162-0.617,0.23-0.93
				c0.06-0.314,0.103-0.63,0.137-0.948c0.025-0.317,0.043-0.637,0.043-0.955c0-0.32-0.018-0.639-0.043-0.956
				c-0.034-0.318-0.077-0.634-0.137-0.948c-0.068-0.313-0.136-0.623-0.23-0.93c-0.084-0.306-0.195-0.607-0.307-0.904
				c-0.119-0.296-0.256-0.587-0.4-0.871c-0.146-0.283-0.307-0.56-0.478-0.828c-0.171-0.27-0.358-0.529-0.555-0.78
				s-0.409-0.492-0.623-0.724c-0.222-0.232-0.451-0.452-0.699-0.662c-0.238-0.209-0.485-0.407-0.75-0.592
				c-0.256-0.186-0.52-0.358-0.802-0.519c-0.273-0.161-0.555-0.308-0.854-0.441c-0.289-0.133-0.579-0.252-0.886-0.356
				c-0.299-0.106-0.606-0.196-0.912-0.272c-0.316-0.075-0.623-0.137-0.938-0.183c-0.315-0.047-0.64-0.078-0.955-0.095h-210.748
				l-0.051-524.698l80.531,68.142c0.366,0.306,0.759,0.583,1.159,0.834c0.409,0.251,0.827,0.472,1.262,0.663
				c0.436,0.191,0.888,0.351,1.349,0.479c0.46,0.129,0.921,0.224,1.398,0.286c0.469,0.063,0.946,0.09,1.416,0.086
				c0.478-0.005,0.954-0.043,1.424-0.115c0.469-0.071,0.938-0.176,1.39-0.313c0.461-0.138,0.904-0.306,1.34-0.506
				c0.426-0.2,0.844-0.429,1.244-0.688c0.401-0.258,0.784-0.544,1.144-0.856c0.358-0.313,0.69-0.648,1.006-1.009
				c0.315-0.359,0.597-0.74,0.861-1.14c0.256-0.4,0.486-0.817,0.683-1.25c0.204-0.432,0.366-0.876,0.512-1.333
				c0.136-0.457,0.239-0.921,0.307-1.392c0.077-0.472,0.11-0.944,0.119-1.422V647.454c0-0.726-0.076-1.45-0.23-2.167
				c-0.162-0.716-0.392-1.406-0.699-2.072c-0.315-0.656-0.69-1.278-1.134-1.858c-0.452-0.58-0.955-1.108-1.518-1.578
				l-441.688-373.481c-0.45-0.384-0.929-0.725-1.439-1.015c-0.509-0.299-1.04-0.546-1.594-0.751
				c-0.553-0.204-1.121-0.358-1.701-0.46c-0.581-0.103-1.166-0.154-1.755-0.154c-0.588,0-1.173,0.052-1.753,0.154
				c-0.581,0.102-1.148,0.256-1.7,0.46c-0.554,0.205-1.086,0.452-1.595,0.751c-0.51,0.29-0.989,0.631-1.439,1.015L2007.96,639.778
				c-0.56,0.478-1.062,0.998-1.506,1.586c-0.445,0.58-0.821,1.203-1.129,1.868s-0.54,1.348-0.697,2.063
				c-0.157,0.717-0.234,1.441-0.233,2.175v150.446c-0.002,0.661,0.06,1.316,0.187,1.966c0.127,0.648,0.316,1.278,0.569,1.891
				c0.251,0.611,0.561,1.191,0.928,1.742s0.784,1.059,1.252,1.527c0.467,0.467,0.977,0.884,1.526,1.251
				c0.55,0.366,1.131,0.676,1.743,0.929c0.611,0.251,1.242,0.44,1.891,0.567c0.648,0.128,1.304,0.19,1.965,0.188
				c1.188,0.004,2.341-0.2,3.457-0.61c1.115-0.41,2.124-1.002,3.026-1.775l80.533-68.124v524.199
				c-58.229-5.112-104.218-54.97-136.632-148.38c-0.229-0.673-0.472-1.343-0.729-2.005c-0.259-0.663-0.532-1.319-0.82-1.97
				c-0.288-0.651-0.59-1.294-0.906-1.932c-0.317-0.637-0.648-1.267-0.993-1.889c-0.345-0.622-0.703-1.236-1.076-1.842
				c-0.373-0.606-0.759-1.204-1.158-1.792c-0.399-0.59-0.812-1.169-1.238-1.739c-0.425-0.57-0.863-1.131-1.313-1.681
				c-0.45-0.552-0.913-1.091-1.388-1.62c-0.474-0.531-0.961-1.05-1.459-1.558c-0.499-0.507-1.007-1.004-1.528-1.489
				c-0.52-0.485-1.051-0.958-1.593-1.419c-0.542-0.462-1.092-0.911-1.655-1.348c-0.562-0.437-1.133-0.86-1.713-1.271
				c-0.581-0.411-1.171-0.81-1.77-1.193s-1.205-0.756-1.821-1.112c-0.615-0.357-1.238-0.701-1.869-1.03
				c-0.631-0.328-1.268-0.644-1.913-0.944c-0.646-0.3-1.296-0.586-1.954-0.857c-0.658-0.272-1.321-0.528-1.99-0.77
				c-0.669-0.242-1.343-0.468-2.022-0.679c-0.68-0.211-1.364-0.408-2.051-0.589c-0.688-0.181-1.38-0.346-2.076-0.494
				c-0.696-0.15-1.395-0.284-2.096-0.402c-0.702-0.118-1.405-0.22-2.111-0.308c-0.706-0.086-1.414-0.157-2.123-0.212
				c-0.709-0.055-1.42-0.095-2.13-0.117c-0.711-0.023-1.422-0.03-2.134-0.021c-0.711,0.01-1.422,0.034-2.133,0.075
				c-0.709,0.041-1.419,0.097-2.127,0.171c-0.707,0.072-1.413,0.16-2.117,0.265s-1.405,0.225-2.103,0.36
				c-1.853,0.344-3.678,0.795-5.476,1.356c-1.798,0.562-3.558,1.229-5.276,2c-1.719,0.77-3.386,1.641-5.001,2.61
				c-1.615,0.971-3.167,2.033-4.655,3.188c-1.488,1.154-2.903,2.395-4.244,3.718c-1.341,1.324-2.597,2.723-3.771,4.197
				c-1.174,1.474-2.255,3.012-3.245,4.615c-0.99,1.603-1.881,3.26-2.673,4.969c-0.81,1.699-1.516,3.442-2.116,5.228
				c-0.601,1.785-1.093,3.599-1.477,5.442c-0.384,1.844-0.656,3.703-0.817,5.58c-0.16,1.876-0.209,3.755-0.144,5.638
				c0.064,1.882,0.24,3.753,0.529,5.614c0.289,1.86,0.688,3.697,1.196,5.511c0.508,1.813,1.124,3.589,1.845,5.329
				c0.722,1.74,1.544,3.429,2.469,5.07c35.179,63.381,37.666,94.514,28.189,102.481c-21.453,18.141-89.592-15.352-127.499-40.725
				c-0.275-0.183-0.558-0.352-0.849-0.505c-0.291-0.156-0.589-0.296-0.894-0.422c-0.304-0.126-0.615-0.236-0.93-0.332
				c-0.315-0.095-0.635-0.175-0.958-0.238c-0.324-0.064-0.65-0.113-0.978-0.145c-0.328-0.033-0.657-0.05-0.987-0.05
				c-0.329,0-0.658,0.017-0.987,0.05c-0.328,0.031-0.654,0.079-0.978,0.144c-0.323,0.063-0.643,0.144-0.958,0.239
				c-0.316,0.095-0.626,0.205-0.932,0.33c-0.304,0.127-0.603,0.267-0.894,0.421c-0.291,0.155-0.574,0.323-0.849,0.506
				c-0.275,0.183-0.54,0.378-0.795,0.587c-0.255,0.207-0.501,0.428-0.734,0.66c-0.234,0.232-0.457,0.477-0.667,0.73
				c-0.21,0.253-0.408,0.518-0.592,0.791c-0.18,0.275-0.346,0.56-0.498,0.853c-0.153,0.292-0.29,0.592-0.413,0.896
				c-0.124,0.307-0.231,0.617-0.324,0.934c-0.093,0.316-0.17,0.636-0.232,0.959c-0.062,0.324-0.108,0.649-0.138,0.978
				c-0.031,0.329-0.044,0.657-0.042,0.987c0.002,0.329,0.02,0.659,0.054,0.986c0.033,0.327,0.083,0.653,0.148,0.977
				c0.065,0.321,0.146,0.642,0.242,0.956c0.096,0.315,0.208,0.625,0.334,0.929c0.127,0.305,0.268,0.603,0.423,0.894
				s0.324,0.573,0.507,0.847c0.183,0.274,0.378,0.538,0.587,0.795c0.208,0.255,0.429,0.498,0.661,0.733
				c0.233,0.233,0.476,0.455,0.729,0.665c0.254,0.211,0.518,0.408,0.791,0.593H1767.376L1767.376,1230.447z M2887.743,776.211
				l-421.564-356.51V295.65l421.531,356.511L2887.743,776.211L2887.743,776.211z M2024.528,652.11l421.543-356.442V419.71
				l-421.543,356.501V652.11L2024.528,652.11z M2247.529,614.007v146.181c0.016,0.324,0.048,0.64,0.094,0.955
				s0.106,0.631,0.184,0.938c0.076,0.307,0.166,0.613,0.271,0.921c0.105,0.297,0.224,0.593,0.357,0.883
				c0.133,0.29,0.279,0.574,0.44,0.85c0.16,0.276,0.333,0.545,0.52,0.805c0.185,0.26,0.383,0.511,0.592,0.751
				c0.209,0.241,0.431,0.472,0.662,0.692c0.231,0.22,0.473,0.428,0.724,0.625c0.251,0.198,0.511,0.382,0.78,0.555
				c0.269,0.172,0.545,0.332,0.829,0.478c0.284,0.146,0.574,0.278,0.871,0.397c0.297,0.118,0.598,0.223,0.905,0.312
				c0.306,0.091,0.616,0.166,0.93,0.226c0.314,0.061,0.629,0.105,0.947,0.137c0.318,0.029,0.636,0.045,0.956,0.045
				c0.319,0,0.638-0.016,0.956-0.045c0.317-0.031,0.634-0.076,0.946-0.137c0.314-0.06,0.625-0.135,0.931-0.226
				c0.306-0.089,0.608-0.193,0.905-0.312c0.296-0.119,0.587-0.251,0.871-0.397c0.284-0.146,0.56-0.306,0.829-0.478
				c0.269-0.173,0.529-0.356,0.78-0.555c0.251-0.197,0.492-0.405,0.724-0.626c0.231-0.22,0.451-0.45,0.661-0.691
				c0.21-0.24,0.407-0.491,0.593-0.751c0.186-0.26,0.359-0.528,0.519-0.805c0.16-0.275,0.307-0.56,0.439-0.85
				c0.134-0.29,0.253-0.586,0.358-0.883c0.105-0.308,0.195-0.614,0.271-0.921c0.076-0.308,0.138-0.623,0.184-0.938
				s0.078-0.631,0.093-0.955V597.001l188.47-159.365l212.34,179.543v312.805c0.026,0.315,0.06,0.631,0.11,0.943
				c0.043,0.313,0.111,0.623,0.188,0.931c0.077,0.308,0.171,0.609,0.281,0.908c0.103,0.299,0.222,0.591,0.358,0.879
				c0.137,0.286,0.282,0.565,0.444,0.838c0.162,0.273,0.332,0.539,0.521,0.795c0.187,0.258,0.383,0.505,0.596,0.742
				c0.205,0.238,0.426,0.465,0.657,0.683s0.47,0.423,0.725,0.617c0.248,0.194,0.512,0.377,0.776,0.547
				c0.265,0.169,0.546,0.327,0.828,0.471c0.281,0.145,0.571,0.274,0.861,0.392c0.299,0.116,0.597,0.219,0.904,0.308
				c0.298,0.089,0.606,0.163,0.921,0.222c0.307,0.06,0.623,0.104,0.938,0.135c0.316,0.029,0.632,0.045,0.947,0.045
				c0.325,0,0.64-0.016,0.956-0.045c0.315-0.031,0.622-0.075,0.938-0.135c0.307-0.059,0.614-0.133,0.921-0.222
				s0.606-0.191,0.903-0.308c0.29-0.117,0.58-0.247,0.862-0.392c0.282-0.144,0.554-0.302,0.827-0.471
				c0.264-0.17,0.52-0.353,0.776-0.547c0.248-0.194,0.486-0.399,0.716-0.617c0.239-0.218,0.452-0.444,0.665-0.683
				c0.205-0.237,0.409-0.484,0.589-0.742c0.187-0.256,0.367-0.521,0.528-0.795c0.154-0.272,0.308-0.552,0.444-0.838
				c0.128-0.288,0.256-0.58,0.358-0.879c0.111-0.299,0.204-0.601,0.281-0.908c0.077-0.308,0.136-0.617,0.188-0.931
				c0.051-0.313,0.085-0.628,0.102-0.943V634.176l102.04,86.279v541.707l-487.233-0.076v-176.606
				c-0.02-0.315-0.054-0.631-0.104-0.943c-0.049-0.314-0.114-0.623-0.191-0.931c-0.078-0.308-0.171-0.61-0.279-0.908
				c-0.107-0.299-0.228-0.591-0.362-0.879c-0.135-0.286-0.282-0.566-0.443-0.84c-0.162-0.273-0.335-0.537-0.521-0.793
				c-0.186-0.258-0.384-0.505-0.592-0.743c-0.21-0.237-0.43-0.465-0.661-0.683c-0.231-0.217-0.472-0.422-0.723-0.617
				c-0.25-0.194-0.509-0.376-0.776-0.546c-0.268-0.17-0.543-0.327-0.825-0.471c-0.283-0.145-0.571-0.274-0.866-0.392
				c-0.294-0.116-0.594-0.22-0.898-0.308c-0.304-0.089-0.613-0.162-0.924-0.222s-0.625-0.104-0.941-0.135
				c-0.315-0.029-0.632-0.045-0.948-0.045c-0.318,0-0.634,0.016-0.95,0.045c-0.315,0.03-0.628,0.075-0.939,0.135
				c-0.312,0.06-0.62,0.133-0.923,0.222c-0.305,0.088-0.605,0.191-0.899,0.308c-0.295,0.117-0.583,0.247-0.866,0.392
				c-0.282,0.144-0.557,0.301-0.825,0.471c-0.268,0.17-0.526,0.352-0.776,0.546c-0.251,0.195-0.491,0.4-0.722,0.617
				c-0.231,0.218-0.451,0.445-0.661,0.683c-0.209,0.238-0.407,0.485-0.593,0.743c-0.186,0.256-0.36,0.52-0.52,0.794
				c-0.162,0.273-0.31,0.553-0.445,0.839c-0.135,0.288-0.255,0.58-0.362,0.879c-0.106,0.298-0.199,0.601-0.278,0.908
				s-0.143,0.616-0.192,0.931c-0.049,0.313-0.083,0.628-0.103,0.943v176.633h-50.504l-0.051-332.181
				c-0.016-0.319-0.047-0.636-0.093-0.952c-0.046-0.315-0.107-0.629-0.184-0.939c-0.076-0.31-0.166-0.616-0.272-0.918
				c-0.104-0.301-0.224-0.597-0.357-0.887c-0.133-0.291-0.279-0.573-0.44-0.85c-0.16-0.276-0.333-0.545-0.519-0.805
				s-0.384-0.51-0.593-0.75c-0.209-0.242-0.43-0.473-0.662-0.692c-0.231-0.221-0.473-0.429-0.724-0.625
				c-0.251-0.198-0.511-0.383-0.779-0.556c-0.269-0.172-0.546-0.331-0.83-0.477c-0.284-0.147-0.574-0.279-0.871-0.397
				c-0.296-0.118-0.598-0.223-0.904-0.313c-0.307-0.089-0.617-0.164-0.931-0.225c-0.314-0.062-0.629-0.106-0.946-0.138
				c-0.318-0.029-0.637-0.045-0.956-0.045c-0.32,0-0.638,0.016-0.956,0.045c-0.318,0.031-0.634,0.076-0.947,0.138
				c-0.313,0.061-0.624,0.136-0.93,0.225c-0.307,0.09-0.608,0.194-0.905,0.313c-0.296,0.118-0.586,0.25-0.871,0.397
				c-0.284,0.146-0.56,0.305-0.829,0.477c-0.269,0.173-0.529,0.357-0.781,0.556c-0.251,0.196-0.492,0.404-0.724,0.625
				c-0.231,0.22-0.452,0.45-0.661,0.692c-0.21,0.24-0.408,0.49-0.593,0.75s-0.358,0.528-0.519,0.805
				c-0.161,0.276-0.307,0.559-0.44,0.85c-0.133,0.29-0.252,0.586-0.357,0.887c-0.105,0.302-0.196,0.608-0.271,0.918
				c-0.077,0.311-0.137,0.624-0.184,0.939c-0.046,0.316-0.077,0.633-0.093,0.952v332.23h-90.936V720.455L2247.529,614.007
				L2247.529,614.007z M1763.671,1315.521c0.125-0.306,0.264-0.604,0.418-0.896c0.154-0.292,0.322-0.575,0.503-0.851
				c0.182-0.275,0.377-0.542,0.584-0.797c0.208-0.256,0.428-0.501,0.66-0.736c0.232-0.234,0.475-0.457,0.729-0.669
				c0.253-0.21,0.517-0.408,0.791-0.593c0.273-0.186,0.554-0.356,0.844-0.514c0.29-0.158,0.586-0.3,0.89-0.429
				c0.305-0.129,0.614-0.242,0.929-0.34c0.315-0.098,0.634-0.18,0.957-0.247c0.323-0.067,0.649-0.117,0.977-0.151
				c0.328-0.035,0.657-0.054,0.987-0.057s0.659,0.011,0.988,0.041c0.328,0.03,0.655,0.075,0.979,0.137s0.644,0.138,0.961,0.231
				c0.316,0.094,0.627,0.202,0.933,0.326l164.035,66.805c0.286,0.139,0.565,0.291,0.836,0.454c0.272,0.164,0.536,0.34,0.791,0.529
				c0.255,0.188,0.501,0.39,0.737,0.602c0.236,0.212,0.462,0.435,0.677,0.667c0.215,0.234,0.419,0.478,0.611,0.73
				c0.192,0.251,0.372,0.514,0.54,0.783c0.167,0.269,0.322,0.545,0.464,0.83s0.27,0.574,0.384,0.87
				c0.113,0.297,0.214,0.597,0.299,0.903c0.086,0.305,0.157,0.614,0.214,0.928c0.057,0.312,0.098,0.625,0.125,0.941
				s0.039,0.634,0.037,0.951c-0.003,0.317-0.021,0.633-0.054,0.949c-0.032,0.314-0.08,0.629-0.143,0.94
				c-0.062,0.312-0.139,0.619-0.23,0.923s-0.197,0.604-0.316,0.897c-0.12,0.294-0.252,0.582-0.399,0.863
				c-0.146,0.281-0.306,0.556-0.479,0.821c-0.172,0.268-0.357,0.524-0.553,0.773c-0.197,0.25-0.405,0.488-0.624,0.719
				c-0.219,0.229-0.45,0.448-0.689,0.655c-0.24,0.208-0.49,0.404-0.747,0.589c-0.259,0.185-0.526,0.356-0.8,0.515
				c-0.274,0.159-0.556,0.306-0.844,0.438c-0.289,0.132-0.583,0.251-0.882,0.356c-0.299,0.104-0.603,0.195-0.911,0.271
				c-0.309,0.076-0.619,0.139-0.934,0.186c-0.313,0.047-0.629,0.079-0.945,0.096c-0.317,0.018-0.635,0.02-0.952,0.007
				c-0.316-0.013-0.633-0.04-0.947-0.083s-0.626-0.1-0.936-0.171c-0.309-0.072-0.614-0.159-0.915-0.26l-164.035-66.793
				c-0.306-0.125-0.604-0.265-0.897-0.419c-0.292-0.153-0.576-0.321-0.851-0.504c-0.276-0.182-0.542-0.377-0.798-0.585
				c-0.257-0.208-0.502-0.429-0.738-0.66c-0.234-0.232-0.457-0.475-0.668-0.729c-0.21-0.254-0.409-0.518-0.595-0.791
				c-0.185-0.272-0.356-0.555-0.513-0.845c-0.158-0.29-0.301-0.588-0.429-0.893c-0.129-0.305-0.243-0.613-0.339-0.93
				c-0.099-0.315-0.181-0.635-0.248-0.958c-0.067-0.323-0.117-0.649-0.152-0.978s-0.053-0.657-0.056-0.988
				c-0.002-0.33,0.011-0.659,0.042-0.989c0.03-0.328,0.076-0.655,0.137-0.979c0.063-0.325,0.141-0.646,0.234-0.962
				C1763.438,1316.139,1763.547,1315.827,1763.671,1315.521L1763.671,1315.521L1763.671,1315.521z M3031.546,1484.01
				c0,0.328-0.018,0.656-0.052,0.984c-0.025,0.328-0.076,0.652-0.145,0.976c-0.061,0.322-0.145,0.642-0.239,0.956
				c-0.094,0.315-0.204,0.624-0.333,0.929c-0.128,0.304-0.264,0.601-0.418,0.892c-0.153,0.289-0.323,0.572-0.511,0.846
				c-0.18,0.274-0.375,0.537-0.589,0.792c-0.205,0.255-0.426,0.498-0.656,0.731c-0.23,0.232-0.479,0.453-0.733,0.663
				c-0.257,0.208-0.521,0.405-0.794,0.588c-0.272,0.183-0.554,0.352-0.844,0.509c-0.29,0.154-0.589,0.295-0.887,0.422
				c-0.308,0.127-0.614,0.237-0.93,0.334c-0.316,0.097-0.631,0.176-0.956,0.241c-0.323,0.064-0.647,0.113-0.972,0.147
				c-0.333,0.032-0.656,0.05-0.988,0.051l-1248.517-0.001c-0.316-0.019-0.631-0.053-0.945-0.103
				c-0.313-0.05-0.623-0.113-0.929-0.191c-0.307-0.079-0.61-0.171-0.909-0.278c-0.298-0.107-0.591-0.228-0.878-0.362
				c-0.286-0.136-0.566-0.282-0.839-0.444c-0.273-0.161-0.538-0.334-0.795-0.521c-0.256-0.186-0.504-0.383-0.742-0.594
				c-0.237-0.209-0.465-0.43-0.683-0.659c-0.216-0.231-0.423-0.472-0.617-0.724c-0.194-0.249-0.376-0.509-0.547-0.776
				c-0.169-0.268-0.327-0.543-0.471-0.824c-0.144-0.282-0.274-0.571-0.392-0.866c-0.117-0.294-0.219-0.594-0.308-0.897
				c-0.089-0.305-0.162-0.612-0.222-0.925c-0.06-0.311-0.104-0.624-0.134-0.94c-0.03-0.314-0.044-0.632-0.044-0.948
				c0-0.317,0.015-0.633,0.044-0.949c0.03-0.314,0.074-0.628,0.134-0.939c0.06-0.313,0.133-0.619,0.222-0.923
				c0.089-0.305,0.191-0.605,0.308-0.899c0.117-0.295,0.248-0.583,0.392-0.865c0.144-0.283,0.301-0.559,0.471-0.825
				c0.171-0.268,0.353-0.526,0.547-0.776c0.194-0.251,0.401-0.491,0.617-0.723c0.218-0.23,0.445-0.45,0.683-0.66
				c0.238-0.21,0.485-0.407,0.742-0.594c0.257-0.186,0.521-0.358,0.795-0.52c0.273-0.161,0.553-0.311,0.839-0.444
				c0.288-0.135,0.58-0.256,0.878-0.363c0.299-0.106,0.602-0.198,0.909-0.277c0.307-0.079,0.616-0.143,0.929-0.192
				c0.314-0.049,0.628-0.083,0.945-0.103H3021.5c5.543,0,10.063,4.503,10.063,10.048H3031.546L3031.546,1484.01z M2332.617,1399.022
				c-0.051,0-4.059-10.554-49.312-20.31c-34.152-7.385-79.137-11.457-126.674-11.457c-46.875,0-91.379,3.971-125.366,11.165
				c-0.865,0.183-1.74,0.25-2.624,0.202c-0.883-0.048-1.746-0.208-2.586-0.483c-0.841-0.274-1.632-0.654-2.374-1.137
				c-0.741-0.483-1.407-1.054-1.998-1.712s-1.087-1.382-1.487-2.172c-0.401-0.788-0.692-1.615-0.875-2.48
				c-0.183-0.867-0.25-1.741-0.202-2.625c0.048-0.883,0.209-1.745,0.483-2.587c0.275-0.841,0.654-1.632,1.137-2.373
				c0.483-0.74,1.054-1.408,1.713-1.999c0.658-0.591,1.381-1.087,2.17-1.487c0.789-0.4,1.616-0.691,2.483-0.874
				c35.268-7.485,81.269-11.596,129.527-11.596c72.859,0,196.157,10.948,196.157,51.925c0,40.978-122.461,49.516-160.013,51.152
				h-0.457c-0.321-0.008-0.64-0.029-0.958-0.067c-0.319-0.038-0.635-0.091-0.948-0.159s-0.623-0.151-0.927-0.249
				c-0.305-0.097-0.605-0.209-0.899-0.335c-0.295-0.126-0.583-0.266-0.864-0.419c-0.282-0.154-0.555-0.32-0.82-0.5
				s-0.522-0.372-0.768-0.576c-0.248-0.203-0.484-0.419-0.71-0.646c-0.227-0.227-0.442-0.463-0.646-0.711
				c-0.204-0.247-0.395-0.504-0.575-0.77c-0.179-0.265-0.345-0.538-0.499-0.819c-0.154-0.281-0.292-0.57-0.419-0.864
				c-0.125-0.295-0.237-0.595-0.334-0.899c-0.097-0.306-0.18-0.615-0.247-0.928c-0.067-0.313-0.12-0.63-0.158-0.948
				c-0.038-0.317-0.06-0.638-0.066-0.957c-0.008-0.32,0-0.641,0.024-0.96c0.023-0.32,0.062-0.637,0.115-0.953
				c0.054-0.315,0.123-0.629,0.207-0.938c0.083-0.309,0.182-0.613,0.294-0.914c0.113-0.299,0.24-0.593,0.38-0.881
				c0.141-0.287,0.295-0.567,0.462-0.842c0.167-0.273,0.347-0.537,0.541-0.794c0.193-0.255,0.396-0.502,0.613-0.738
				c0.216-0.237,0.443-0.462,0.68-0.677c0.238-0.215,0.486-0.418,0.743-0.608c0.257-0.191,0.522-0.37,0.796-0.536
				c0.275-0.165,0.556-0.318,0.844-0.457c0.289-0.14,0.583-0.265,0.885-0.375c0.3-0.11,0.605-0.206,0.915-0.289
				c0.311-0.081,0.624-0.147,0.939-0.199c0.316-0.053,0.634-0.09,0.954-0.11c39.746-1.738,76.219-6.496,102.734-13.334
				C2329.445,1407.802,2332.617,1399.124,2332.617,1399.022L2332.617,1399.022z M2438.321,1332.077h-130.379
				c-0.319-0.016-0.637-0.047-0.952-0.093c-0.317-0.047-0.63-0.107-0.94-0.184c-0.311-0.076-0.616-0.167-0.917-0.271
				c-0.301-0.105-0.597-0.225-0.887-0.357c-0.291-0.134-0.574-0.28-0.851-0.44c-0.276-0.161-0.543-0.334-0.804-0.52
				c-0.259-0.185-0.51-0.383-0.752-0.592c-0.24-0.209-0.471-0.431-0.691-0.661c-0.22-0.231-0.428-0.473-0.625-0.725
				c-0.198-0.252-0.382-0.511-0.554-0.78c-0.173-0.27-0.332-0.545-0.478-0.829s-0.278-0.574-0.397-0.871
				c-0.119-0.295-0.222-0.597-0.312-0.903c-0.09-0.308-0.166-0.616-0.225-0.931c-0.061-0.313-0.106-0.63-0.136-0.947
				c-0.031-0.317-0.046-0.637-0.046-0.956s0.015-0.638,0.046-0.955c0.03-0.318,0.075-0.634,0.136-0.947
				c0.06-0.313,0.135-0.624,0.225-0.93c0.09-0.308,0.193-0.608,0.312-0.905c0.119-0.296,0.251-0.586,0.397-0.87
				s0.305-0.562,0.478-0.829c0.172-0.269,0.357-0.53,0.554-0.78c0.197-0.252,0.405-0.493,0.625-0.725
				c0.22-0.231,0.452-0.452,0.691-0.661c0.242-0.209,0.493-0.407,0.752-0.594c0.26-0.185,0.528-0.358,0.804-0.519
				c0.276-0.16,0.56-0.306,0.851-0.439c0.29-0.133,0.586-0.253,0.887-0.357c0.302-0.104,0.608-0.194,0.917-0.271
				c0.31-0.077,0.623-0.138,0.94-0.185c0.315-0.046,0.633-0.077,0.952-0.093h130.379c0.319,0.016,0.636,0.047,0.953,0.094
				c0.315,0.046,0.628,0.107,0.939,0.184c0.309,0.076,0.616,0.166,0.917,0.271c0.301,0.105,0.597,0.225,0.888,0.357
				c0.29,0.135,0.573,0.28,0.849,0.44c0.276,0.159,0.544,0.333,0.805,0.519c0.259,0.187,0.51,0.384,0.75,0.594
				c0.241,0.208,0.472,0.429,0.691,0.66c0.221,0.231,0.428,0.474,0.626,0.725c0.197,0.251,0.381,0.512,0.554,0.78
				c0.172,0.268,0.332,0.545,0.478,0.829c0.146,0.284,0.279,0.574,0.397,0.87c0.119,0.297,0.223,0.598,0.312,0.905
				c0.089,0.306,0.165,0.616,0.226,0.93s0.105,0.629,0.136,0.947c0.03,0.317,0.045,0.636,0.045,0.955s-0.016,0.639-0.045,0.957
				c-0.031,0.316-0.076,0.634-0.136,0.946c-0.061,0.314-0.136,0.623-0.226,0.931c-0.089,0.307-0.193,0.608-0.312,0.903
				c-0.118,0.297-0.251,0.587-0.397,0.871c-0.146,0.284-0.306,0.56-0.478,0.83c-0.173,0.269-0.357,0.529-0.554,0.779
				c-0.198,0.252-0.405,0.493-0.626,0.725c-0.22,0.23-0.45,0.452-0.691,0.661c-0.241,0.209-0.49,0.407-0.75,0.593
				c-0.26,0.185-0.528,0.357-0.805,0.519c-0.276,0.16-0.559,0.307-0.849,0.44c-0.291,0.133-0.586,0.252-0.888,0.357
				c-0.301,0.104-0.608,0.195-0.917,0.271c-0.311,0.076-0.624,0.138-0.939,0.184
				C2438.957,1332.03,2438.64,1332.061,2438.321,1332.077L2438.321,1332.077L2438.321,1332.077z M3031.563,1330.44
				c0,0.33-0.017,0.658-0.052,0.986c-0.033,0.327-0.084,0.652-0.145,0.976c-0.068,0.323-0.146,0.643-0.238,0.958
				c-0.103,0.314-0.213,0.625-0.333,0.929c-0.128,0.304-0.273,0.602-0.427,0.892c-0.153,0.291-0.323,0.573-0.512,0.847
				c-0.179,0.274-0.375,0.538-0.58,0.793c-0.213,0.254-0.435,0.497-0.664,0.73c-0.239,0.233-0.479,0.454-0.734,0.663
				s-0.52,0.404-0.793,0.588c-0.272,0.184-0.554,0.353-0.844,0.508s-0.589,0.296-0.896,0.423c-0.299,0.126-0.614,0.237-0.93,0.333
				c-0.316,0.095-0.631,0.176-0.956,0.24c-0.323,0.065-0.647,0.113-0.972,0.146c-0.333,0.033-0.656,0.051-0.988,0.051
				c-1.145,0-114.329,0.05-228.862,5.849c-67.049,3.374-121.406,8.029-161.498,13.827c-61.342,8.868-73.683,18.383-75.917,20.958
				c3.48,4.161,28.297,21.998,201.947,32.756c0.316,0.03,0.622,0.075,0.938,0.135c0.308,0.061,0.614,0.134,0.921,0.223
				c0.308,0.089,0.606,0.191,0.896,0.309c0.298,0.116,0.588,0.246,0.87,0.391c0.281,0.145,0.554,0.302,0.827,0.473
				c0.264,0.169,0.521,0.351,0.776,0.545c0.248,0.194,0.486,0.4,0.716,0.617c0.23,0.218,0.452,0.445,0.666,0.683
				c0.205,0.237,0.409,0.485,0.588,0.742c0.188,0.256,0.367,0.521,0.528,0.794c0.153,0.272,0.307,0.553,0.443,0.839
				c0.129,0.286,0.256,0.579,0.358,0.878c0.111,0.299,0.206,0.601,0.281,0.908c0.077,0.307,0.145,0.616,0.188,0.93
				c0.051,0.313,0.085,0.627,0.11,0.943c0.017,0.317,0.026,0.633,0.008,0.95c-0.008,0.316-0.033,0.632-0.068,0.946
				c-0.042,0.315-0.094,0.626-0.171,0.936c-0.068,0.31-0.144,0.614-0.247,0.916c-0.094,0.302-0.205,0.599-0.332,0.89
				c-0.129,0.291-0.265,0.574-0.419,0.853c-0.153,0.277-0.323,0.547-0.494,0.81c-0.179,0.262-0.375,0.516-0.571,0.759
				c-0.205,0.244-0.418,0.479-0.64,0.703c-0.222,0.224-0.461,0.437-0.708,0.64c-0.239,0.201-0.495,0.393-0.76,0.57
				c-0.255,0.179-0.528,0.344-0.801,0.496c-0.281,0.153-0.563,0.293-0.854,0.418c-0.298,0.127-0.588,0.238-0.895,0.336
				c-0.299,0.1-0.606,0.183-0.912,0.252c-0.308,0.069-0.624,0.124-0.938,0.164c-0.316,0.039-0.631,0.064-0.947,0.075h-0.648
				c-194.348-11.989-221.169-32.503-221.169-52.877c0-18.484,24.024-29.839,82.954-39.253
				c39.886-6.343,95.404-11.442,164.925-15.159c118.082-6.293,237.663-6.343,238.856-6.343c0.666-0.006,1.322,0.053,1.971,0.179
				c0.657,0.124,1.288,0.312,1.901,0.562c0.614,0.251,1.203,0.559,1.749,0.925c0.554,0.367,1.065,0.784,1.535,1.251
				c0.478,0.469,0.895,0.979,1.262,1.529c0.366,0.552,0.683,1.134,0.938,1.747c0.247,0.612,0.443,1.244,0.571,1.896
				C3031.502,1329.121,3031.563,1329.776,3031.563,1330.44L3031.563,1330.44L3031.563,1330.44z M3031.563,1431.831
				c0,0.329-0.017,0.657-0.052,0.985c-0.033,0.327-0.084,0.652-0.145,0.977c-0.068,0.321-0.146,0.641-0.238,0.956
				c-0.103,0.315-0.213,0.625-0.333,0.929c-0.128,0.305-0.273,0.602-0.427,0.892c-0.153,0.291-0.323,0.573-0.512,0.847
				c-0.179,0.274-0.375,0.538-0.589,0.793c-0.204,0.254-0.426,0.498-0.655,0.731c-0.239,0.232-0.479,0.453-0.734,0.662
				c-0.256,0.21-0.52,0.405-0.793,0.588c-0.272,0.184-0.554,0.353-0.844,0.509c-0.29,0.155-0.589,0.296-0.896,0.422
				c-0.299,0.127-0.614,0.237-0.93,0.333c-0.316,0.097-0.631,0.177-0.956,0.241c-0.323,0.064-0.647,0.113-0.972,0.146
				c-0.333,0.033-0.656,0.049-0.988,0.05c-0.854,0-85.939-0.051-182.913-3.806c-0.323-0.023-0.639-0.061-0.963-0.114
				c-0.315-0.054-0.632-0.123-0.946-0.208c-0.308-0.083-0.623-0.182-0.921-0.295c-0.308-0.114-0.598-0.243-0.888-0.386
				c-0.29-0.142-0.58-0.299-0.853-0.469c-0.272-0.168-0.538-0.35-0.802-0.546c-0.256-0.195-0.503-0.402-0.742-0.621
				c-0.238-0.22-0.46-0.448-0.682-0.69c-0.213-0.24-0.418-0.491-0.606-0.752c-0.195-0.26-0.375-0.53-0.536-0.808
				c-0.171-0.278-0.316-0.563-0.461-0.855c-0.137-0.292-0.256-0.591-0.367-0.896c-0.11-0.304-0.205-0.612-0.281-0.926
				c-0.085-0.313-0.145-0.629-0.196-0.949s-0.085-0.642-0.103-0.964c-0.016-0.323-0.016-0.646-0.008-0.97
				c0.017-0.323,0.043-0.645,0.085-0.965c0.043-0.321,0.103-0.639,0.179-0.953c0.077-0.314,0.162-0.625,0.264-0.932
				c0.103-0.306,0.222-0.606,0.358-0.901c0.137-0.294,0.281-0.582,0.443-0.863c0.162-0.28,0.332-0.552,0.521-0.816
				c0.188-0.263,0.383-0.518,0.597-0.762c0.213-0.244,0.435-0.479,0.674-0.701c0.23-0.223,0.478-0.435,0.733-0.634
				c0.247-0.2,0.512-0.387,0.785-0.561c0.272-0.174,0.554-0.334,0.844-0.482c0.29-0.146,0.58-0.279,0.879-0.398
				c0.307-0.119,0.613-0.223,0.921-0.313c0.307-0.09,0.622-0.164,0.946-0.223c0.316-0.06,0.631-0.103,0.955-0.131
				c0.324-0.027,0.648-0.041,0.972-0.038c96.565,3.718,181.31,3.755,182.153,3.755
				C3027.043,1421.719,3031.563,1426.235,3031.563,1431.831L3031.563,1431.831L3031.563,1431.831z M2668.459,1213.929v-193.67
				c0.018-0.318,0.051-0.637,0.094-0.952c0.051-0.316,0.11-0.629,0.187-0.939c0.077-0.31,0.163-0.616,0.273-0.917
				c0.103-0.303,0.222-0.598,0.358-0.888c0.129-0.291,0.274-0.574,0.435-0.851c0.163-0.276,0.333-0.544,0.521-0.805
				c0.188-0.259,0.384-0.51,0.597-0.749c0.205-0.242,0.426-0.474,0.657-0.693c0.229-0.221,0.478-0.428,0.725-0.625
				c0.247-0.198,0.511-0.382,0.776-0.555c0.273-0.172,0.545-0.331,0.835-0.478c0.281-0.146,0.571-0.279,0.87-0.397
				c0.298-0.119,0.597-0.223,0.903-0.312c0.308-0.091,0.615-0.166,0.931-0.226c0.315-0.061,0.631-0.105,0.946-0.137
				c0.316-0.029,0.64-0.045,0.956-0.045c0.324,0,0.639,0.016,0.955,0.045c0.315,0.031,0.631,0.076,0.947,0.137
				c0.315,0.06,0.623,0.135,0.93,0.226c0.306,0.089,0.614,0.192,0.903,0.312c0.299,0.118,0.589,0.251,0.87,0.396
				c0.29,0.147,0.563,0.306,0.835,0.479c0.265,0.173,0.529,0.356,0.777,0.555c0.255,0.197,0.495,0.404,0.725,0.625
				c0.229,0.22,0.451,0.451,0.665,0.693c0.205,0.239,0.401,0.49,0.588,0.749c0.188,0.261,0.358,0.528,0.521,0.805
				s0.306,0.56,0.444,0.851c0.127,0.29,0.247,0.585,0.349,0.888c0.111,0.301,0.196,0.607,0.273,0.917
				c0.077,0.311,0.136,0.623,0.187,0.939c0.043,0.316,0.077,0.634,0.094,0.952v193.67c-0.017,0.319-0.051,0.637-0.094,0.952
				c-0.051,0.316-0.11,0.629-0.187,0.939c-0.077,0.312-0.162,0.615-0.273,0.918c-0.103,0.302-0.222,0.598-0.349,0.888
				c-0.138,0.29-0.282,0.573-0.444,0.85s-0.333,0.545-0.521,0.805c-0.187,0.259-0.384,0.51-0.588,0.751
				c-0.213,0.241-0.435,0.472-0.665,0.691c-0.23,0.221-0.47,0.429-0.725,0.626c-0.248,0.196-0.512,0.382-0.777,0.554
				c-0.272,0.173-0.545,0.332-0.835,0.479c-0.281,0.146-0.571,0.278-0.87,0.397c-0.29,0.118-0.597,0.222-0.903,0.312
				c-0.307,0.091-0.615,0.166-0.93,0.226c-0.316,0.06-0.632,0.105-0.947,0.136c-0.316,0.03-0.631,0.045-0.955,0.045
				c-0.316,0-0.64-0.015-0.956-0.045c-0.315-0.03-0.631-0.076-0.946-0.136c-0.316-0.06-0.623-0.135-0.931-0.226
				c-0.306-0.09-0.605-0.193-0.903-0.312c-0.299-0.119-0.589-0.251-0.87-0.397c-0.29-0.146-0.563-0.306-0.835-0.479
				c-0.265-0.172-0.529-0.357-0.776-0.554c-0.248-0.197-0.496-0.405-0.725-0.626c-0.23-0.22-0.452-0.45-0.657-0.691
				c-0.213-0.241-0.41-0.492-0.597-0.751c-0.187-0.26-0.358-0.527-0.521-0.804c-0.161-0.277-0.306-0.561-0.435-0.851
				c-0.136-0.29-0.255-0.586-0.358-0.888c-0.11-0.303-0.196-0.606-0.273-0.918c-0.077-0.311-0.136-0.623-0.187-0.939
				C2668.51,1214.565,2668.477,1214.248,2668.459,1213.929"/>
		</g>
	</g>
</g>
</svg>
